%TF.GenerationSoftware,KiCad,Pcbnew,9.0.7*%
%TF.CreationDate,2026-02-25T01:11:13-08:00*%
%TF.ProjectId,Pulse_Box_PCB_v2,50756c73-655f-4426-9f78-5f5043425f76,rev?*%
%TF.SameCoordinates,Original*%
%TF.FileFunction,Legend,Top*%
%TF.FilePolarity,Positive*%
%FSLAX46Y46*%
G04 Gerber Fmt 4.6, Leading zero omitted, Abs format (unit mm)*
G04 Created by KiCad (PCBNEW 9.0.7) date 2026-02-25 01:11:13*
%MOMM*%
%LPD*%
G01*
G04 APERTURE LIST*
%ADD10C,0.100000*%
%ADD11C,0.125000*%
%ADD12C,0.400000*%
%ADD13C,0.150000*%
%ADD14C,0.120000*%
G04 APERTURE END LIST*
D10*
X179827693Y-87920038D02*
X179732455Y-87872419D01*
X179732455Y-87872419D02*
X179589598Y-87872419D01*
X179589598Y-87872419D02*
X179446741Y-87920038D01*
X179446741Y-87920038D02*
X179351503Y-88015276D01*
X179351503Y-88015276D02*
X179303884Y-88110514D01*
X179303884Y-88110514D02*
X179256265Y-88300990D01*
X179256265Y-88300990D02*
X179256265Y-88443847D01*
X179256265Y-88443847D02*
X179303884Y-88634323D01*
X179303884Y-88634323D02*
X179351503Y-88729561D01*
X179351503Y-88729561D02*
X179446741Y-88824800D01*
X179446741Y-88824800D02*
X179589598Y-88872419D01*
X179589598Y-88872419D02*
X179684836Y-88872419D01*
X179684836Y-88872419D02*
X179827693Y-88824800D01*
X179827693Y-88824800D02*
X179875312Y-88777180D01*
X179875312Y-88777180D02*
X179875312Y-88443847D01*
X179875312Y-88443847D02*
X179684836Y-88443847D01*
X180303884Y-88872419D02*
X180303884Y-87872419D01*
X180303884Y-87872419D02*
X180875312Y-88872419D01*
X180875312Y-88872419D02*
X180875312Y-87872419D01*
X181351503Y-88872419D02*
X181351503Y-87872419D01*
X181351503Y-87872419D02*
X181589598Y-87872419D01*
X181589598Y-87872419D02*
X181732455Y-87920038D01*
X181732455Y-87920038D02*
X181827693Y-88015276D01*
X181827693Y-88015276D02*
X181875312Y-88110514D01*
X181875312Y-88110514D02*
X181922931Y-88300990D01*
X181922931Y-88300990D02*
X181922931Y-88443847D01*
X181922931Y-88443847D02*
X181875312Y-88634323D01*
X181875312Y-88634323D02*
X181827693Y-88729561D01*
X181827693Y-88729561D02*
X181732455Y-88824800D01*
X181732455Y-88824800D02*
X181589598Y-88872419D01*
X181589598Y-88872419D02*
X181351503Y-88872419D01*
X160780074Y-68872419D02*
X160303884Y-68872419D01*
X160303884Y-68872419D02*
X160303884Y-67872419D01*
X161113408Y-68348609D02*
X161446741Y-68348609D01*
X161589598Y-68872419D02*
X161113408Y-68872419D01*
X161113408Y-68872419D02*
X161113408Y-67872419D01*
X161113408Y-67872419D02*
X161589598Y-67872419D01*
X162018170Y-68872419D02*
X162018170Y-67872419D01*
X162018170Y-67872419D02*
X162256265Y-67872419D01*
X162256265Y-67872419D02*
X162399122Y-67920038D01*
X162399122Y-67920038D02*
X162494360Y-68015276D01*
X162494360Y-68015276D02*
X162541979Y-68110514D01*
X162541979Y-68110514D02*
X162589598Y-68300990D01*
X162589598Y-68300990D02*
X162589598Y-68443847D01*
X162589598Y-68443847D02*
X162541979Y-68634323D01*
X162541979Y-68634323D02*
X162494360Y-68729561D01*
X162494360Y-68729561D02*
X162399122Y-68824800D01*
X162399122Y-68824800D02*
X162256265Y-68872419D01*
X162256265Y-68872419D02*
X162018170Y-68872419D01*
X162780075Y-68967657D02*
X163541979Y-68967657D01*
X163780075Y-68872419D02*
X163780075Y-67872419D01*
X164256265Y-68872419D02*
X164256265Y-67872419D01*
X164256265Y-67872419D02*
X164827693Y-68872419D01*
X164827693Y-68872419D02*
X164827693Y-67872419D01*
X151303884Y-103491466D02*
X152065789Y-103491466D01*
X151684836Y-103872419D02*
X151684836Y-103110514D01*
D11*
X206272712Y-66823500D02*
X206415569Y-66871119D01*
X206415569Y-66871119D02*
X206653664Y-66871119D01*
X206653664Y-66871119D02*
X206748902Y-66823500D01*
X206748902Y-66823500D02*
X206796521Y-66775880D01*
X206796521Y-66775880D02*
X206844140Y-66680642D01*
X206844140Y-66680642D02*
X206844140Y-66585404D01*
X206844140Y-66585404D02*
X206796521Y-66490166D01*
X206796521Y-66490166D02*
X206748902Y-66442547D01*
X206748902Y-66442547D02*
X206653664Y-66394928D01*
X206653664Y-66394928D02*
X206463188Y-66347309D01*
X206463188Y-66347309D02*
X206367950Y-66299690D01*
X206367950Y-66299690D02*
X206320331Y-66252071D01*
X206320331Y-66252071D02*
X206272712Y-66156833D01*
X206272712Y-66156833D02*
X206272712Y-66061595D01*
X206272712Y-66061595D02*
X206320331Y-65966357D01*
X206320331Y-65966357D02*
X206367950Y-65918738D01*
X206367950Y-65918738D02*
X206463188Y-65871119D01*
X206463188Y-65871119D02*
X206701283Y-65871119D01*
X206701283Y-65871119D02*
X206844140Y-65918738D01*
X207129855Y-65871119D02*
X207701283Y-65871119D01*
X207415569Y-66871119D02*
X207415569Y-65871119D01*
X207986998Y-66585404D02*
X208463188Y-66585404D01*
X207891760Y-66871119D02*
X208225093Y-65871119D01*
X208225093Y-65871119D02*
X208558426Y-66871119D01*
X208748903Y-65871119D02*
X209320331Y-65871119D01*
X209034617Y-66871119D02*
X209034617Y-65871119D01*
X209653665Y-65871119D02*
X209653665Y-66680642D01*
X209653665Y-66680642D02*
X209701284Y-66775880D01*
X209701284Y-66775880D02*
X209748903Y-66823500D01*
X209748903Y-66823500D02*
X209844141Y-66871119D01*
X209844141Y-66871119D02*
X210034617Y-66871119D01*
X210034617Y-66871119D02*
X210129855Y-66823500D01*
X210129855Y-66823500D02*
X210177474Y-66775880D01*
X210177474Y-66775880D02*
X210225093Y-66680642D01*
X210225093Y-66680642D02*
X210225093Y-65871119D01*
X210653665Y-66823500D02*
X210796522Y-66871119D01*
X210796522Y-66871119D02*
X211034617Y-66871119D01*
X211034617Y-66871119D02*
X211129855Y-66823500D01*
X211129855Y-66823500D02*
X211177474Y-66775880D01*
X211177474Y-66775880D02*
X211225093Y-66680642D01*
X211225093Y-66680642D02*
X211225093Y-66585404D01*
X211225093Y-66585404D02*
X211177474Y-66490166D01*
X211177474Y-66490166D02*
X211129855Y-66442547D01*
X211129855Y-66442547D02*
X211034617Y-66394928D01*
X211034617Y-66394928D02*
X210844141Y-66347309D01*
X210844141Y-66347309D02*
X210748903Y-66299690D01*
X210748903Y-66299690D02*
X210701284Y-66252071D01*
X210701284Y-66252071D02*
X210653665Y-66156833D01*
X210653665Y-66156833D02*
X210653665Y-66061595D01*
X210653665Y-66061595D02*
X210701284Y-65966357D01*
X210701284Y-65966357D02*
X210748903Y-65918738D01*
X210748903Y-65918738D02*
X210844141Y-65871119D01*
X210844141Y-65871119D02*
X211082236Y-65871119D01*
X211082236Y-65871119D02*
X211225093Y-65918738D01*
D10*
X211661027Y-91372419D02*
X212232455Y-91372419D01*
X211946741Y-92372419D02*
X211946741Y-91372419D01*
X212470551Y-91372419D02*
X213137217Y-92372419D01*
X213137217Y-91372419D02*
X212470551Y-92372419D01*
X210875312Y-59872419D02*
X210541979Y-59396228D01*
X210303884Y-59872419D02*
X210303884Y-58872419D01*
X210303884Y-58872419D02*
X210684836Y-58872419D01*
X210684836Y-58872419D02*
X210780074Y-58920038D01*
X210780074Y-58920038D02*
X210827693Y-58967657D01*
X210827693Y-58967657D02*
X210875312Y-59062895D01*
X210875312Y-59062895D02*
X210875312Y-59205752D01*
X210875312Y-59205752D02*
X210827693Y-59300990D01*
X210827693Y-59300990D02*
X210780074Y-59348609D01*
X210780074Y-59348609D02*
X210684836Y-59396228D01*
X210684836Y-59396228D02*
X210303884Y-59396228D01*
X211303884Y-59348609D02*
X211637217Y-59348609D01*
X211780074Y-59872419D02*
X211303884Y-59872419D01*
X211303884Y-59872419D02*
X211303884Y-58872419D01*
X211303884Y-58872419D02*
X211780074Y-58872419D01*
X212161027Y-59824800D02*
X212303884Y-59872419D01*
X212303884Y-59872419D02*
X212541979Y-59872419D01*
X212541979Y-59872419D02*
X212637217Y-59824800D01*
X212637217Y-59824800D02*
X212684836Y-59777180D01*
X212684836Y-59777180D02*
X212732455Y-59681942D01*
X212732455Y-59681942D02*
X212732455Y-59586704D01*
X212732455Y-59586704D02*
X212684836Y-59491466D01*
X212684836Y-59491466D02*
X212637217Y-59443847D01*
X212637217Y-59443847D02*
X212541979Y-59396228D01*
X212541979Y-59396228D02*
X212351503Y-59348609D01*
X212351503Y-59348609D02*
X212256265Y-59300990D01*
X212256265Y-59300990D02*
X212208646Y-59253371D01*
X212208646Y-59253371D02*
X212161027Y-59158133D01*
X212161027Y-59158133D02*
X212161027Y-59062895D01*
X212161027Y-59062895D02*
X212208646Y-58967657D01*
X212208646Y-58967657D02*
X212256265Y-58920038D01*
X212256265Y-58920038D02*
X212351503Y-58872419D01*
X212351503Y-58872419D02*
X212589598Y-58872419D01*
X212589598Y-58872419D02*
X212732455Y-58920038D01*
X213161027Y-59348609D02*
X213494360Y-59348609D01*
X213637217Y-59872419D02*
X213161027Y-59872419D01*
X213161027Y-59872419D02*
X213161027Y-58872419D01*
X213161027Y-58872419D02*
X213637217Y-58872419D01*
X213922932Y-58872419D02*
X214494360Y-58872419D01*
X214208646Y-59872419D02*
X214208646Y-58872419D01*
D12*
X171239347Y-79734438D02*
X171239347Y-77734438D01*
X171239347Y-77734438D02*
X172001252Y-77734438D01*
X172001252Y-77734438D02*
X172191728Y-77829676D01*
X172191728Y-77829676D02*
X172286966Y-77924914D01*
X172286966Y-77924914D02*
X172382204Y-78115390D01*
X172382204Y-78115390D02*
X172382204Y-78401104D01*
X172382204Y-78401104D02*
X172286966Y-78591580D01*
X172286966Y-78591580D02*
X172191728Y-78686819D01*
X172191728Y-78686819D02*
X172001252Y-78782057D01*
X172001252Y-78782057D02*
X171239347Y-78782057D01*
X174096490Y-78401104D02*
X174096490Y-79734438D01*
X173239347Y-78401104D02*
X173239347Y-79448723D01*
X173239347Y-79448723D02*
X173334585Y-79639200D01*
X173334585Y-79639200D02*
X173525061Y-79734438D01*
X173525061Y-79734438D02*
X173810776Y-79734438D01*
X173810776Y-79734438D02*
X174001252Y-79639200D01*
X174001252Y-79639200D02*
X174096490Y-79543961D01*
X175334585Y-79734438D02*
X175144109Y-79639200D01*
X175144109Y-79639200D02*
X175048871Y-79448723D01*
X175048871Y-79448723D02*
X175048871Y-77734438D01*
X176001252Y-79639200D02*
X176191728Y-79734438D01*
X176191728Y-79734438D02*
X176572680Y-79734438D01*
X176572680Y-79734438D02*
X176763157Y-79639200D01*
X176763157Y-79639200D02*
X176858395Y-79448723D01*
X176858395Y-79448723D02*
X176858395Y-79353485D01*
X176858395Y-79353485D02*
X176763157Y-79163009D01*
X176763157Y-79163009D02*
X176572680Y-79067771D01*
X176572680Y-79067771D02*
X176286966Y-79067771D01*
X176286966Y-79067771D02*
X176096490Y-78972533D01*
X176096490Y-78972533D02*
X176001252Y-78782057D01*
X176001252Y-78782057D02*
X176001252Y-78686819D01*
X176001252Y-78686819D02*
X176096490Y-78496342D01*
X176096490Y-78496342D02*
X176286966Y-78401104D01*
X176286966Y-78401104D02*
X176572680Y-78401104D01*
X176572680Y-78401104D02*
X176763157Y-78496342D01*
X178477443Y-79639200D02*
X178286967Y-79734438D01*
X178286967Y-79734438D02*
X177906014Y-79734438D01*
X177906014Y-79734438D02*
X177715538Y-79639200D01*
X177715538Y-79639200D02*
X177620300Y-79448723D01*
X177620300Y-79448723D02*
X177620300Y-78686819D01*
X177620300Y-78686819D02*
X177715538Y-78496342D01*
X177715538Y-78496342D02*
X177906014Y-78401104D01*
X177906014Y-78401104D02*
X178286967Y-78401104D01*
X178286967Y-78401104D02*
X178477443Y-78496342D01*
X178477443Y-78496342D02*
X178572681Y-78686819D01*
X178572681Y-78686819D02*
X178572681Y-78877295D01*
X178572681Y-78877295D02*
X177620300Y-79067771D01*
X180096491Y-78686819D02*
X180382205Y-78782057D01*
X180382205Y-78782057D02*
X180477443Y-78877295D01*
X180477443Y-78877295D02*
X180572681Y-79067771D01*
X180572681Y-79067771D02*
X180572681Y-79353485D01*
X180572681Y-79353485D02*
X180477443Y-79543961D01*
X180477443Y-79543961D02*
X180382205Y-79639200D01*
X180382205Y-79639200D02*
X180191729Y-79734438D01*
X180191729Y-79734438D02*
X179429824Y-79734438D01*
X179429824Y-79734438D02*
X179429824Y-77734438D01*
X179429824Y-77734438D02*
X180096491Y-77734438D01*
X180096491Y-77734438D02*
X180286967Y-77829676D01*
X180286967Y-77829676D02*
X180382205Y-77924914D01*
X180382205Y-77924914D02*
X180477443Y-78115390D01*
X180477443Y-78115390D02*
X180477443Y-78305866D01*
X180477443Y-78305866D02*
X180382205Y-78496342D01*
X180382205Y-78496342D02*
X180286967Y-78591580D01*
X180286967Y-78591580D02*
X180096491Y-78686819D01*
X180096491Y-78686819D02*
X179429824Y-78686819D01*
X181715538Y-79734438D02*
X181525062Y-79639200D01*
X181525062Y-79639200D02*
X181429824Y-79543961D01*
X181429824Y-79543961D02*
X181334586Y-79353485D01*
X181334586Y-79353485D02*
X181334586Y-78782057D01*
X181334586Y-78782057D02*
X181429824Y-78591580D01*
X181429824Y-78591580D02*
X181525062Y-78496342D01*
X181525062Y-78496342D02*
X181715538Y-78401104D01*
X181715538Y-78401104D02*
X182001253Y-78401104D01*
X182001253Y-78401104D02*
X182191729Y-78496342D01*
X182191729Y-78496342D02*
X182286967Y-78591580D01*
X182286967Y-78591580D02*
X182382205Y-78782057D01*
X182382205Y-78782057D02*
X182382205Y-79353485D01*
X182382205Y-79353485D02*
X182286967Y-79543961D01*
X182286967Y-79543961D02*
X182191729Y-79639200D01*
X182191729Y-79639200D02*
X182001253Y-79734438D01*
X182001253Y-79734438D02*
X181715538Y-79734438D01*
X183048872Y-79734438D02*
X184096491Y-78401104D01*
X183048872Y-78401104D02*
X184096491Y-79734438D01*
X186191730Y-78401104D02*
X186667920Y-79734438D01*
X186667920Y-79734438D02*
X187144111Y-78401104D01*
X187810778Y-77924914D02*
X187906016Y-77829676D01*
X187906016Y-77829676D02*
X188096492Y-77734438D01*
X188096492Y-77734438D02*
X188572683Y-77734438D01*
X188572683Y-77734438D02*
X188763159Y-77829676D01*
X188763159Y-77829676D02*
X188858397Y-77924914D01*
X188858397Y-77924914D02*
X188953635Y-78115390D01*
X188953635Y-78115390D02*
X188953635Y-78305866D01*
X188953635Y-78305866D02*
X188858397Y-78591580D01*
X188858397Y-78591580D02*
X187715540Y-79734438D01*
X187715540Y-79734438D02*
X188953635Y-79734438D01*
D10*
X191780074Y-76372419D02*
X191303884Y-76372419D01*
X191303884Y-76372419D02*
X191256265Y-76848609D01*
X191256265Y-76848609D02*
X191303884Y-76800990D01*
X191303884Y-76800990D02*
X191399122Y-76753371D01*
X191399122Y-76753371D02*
X191637217Y-76753371D01*
X191637217Y-76753371D02*
X191732455Y-76800990D01*
X191732455Y-76800990D02*
X191780074Y-76848609D01*
X191780074Y-76848609D02*
X191827693Y-76943847D01*
X191827693Y-76943847D02*
X191827693Y-77181942D01*
X191827693Y-77181942D02*
X191780074Y-77277180D01*
X191780074Y-77277180D02*
X191732455Y-77324800D01*
X191732455Y-77324800D02*
X191637217Y-77372419D01*
X191637217Y-77372419D02*
X191399122Y-77372419D01*
X191399122Y-77372419D02*
X191303884Y-77324800D01*
X191303884Y-77324800D02*
X191256265Y-77277180D01*
X192113408Y-76372419D02*
X192446741Y-77372419D01*
X192446741Y-77372419D02*
X192780074Y-76372419D01*
X179756265Y-97467657D02*
X179803884Y-97420038D01*
X179803884Y-97420038D02*
X179899122Y-97372419D01*
X179899122Y-97372419D02*
X180137217Y-97372419D01*
X180137217Y-97372419D02*
X180232455Y-97420038D01*
X180232455Y-97420038D02*
X180280074Y-97467657D01*
X180280074Y-97467657D02*
X180327693Y-97562895D01*
X180327693Y-97562895D02*
X180327693Y-97658133D01*
X180327693Y-97658133D02*
X180280074Y-97800990D01*
X180280074Y-97800990D02*
X179708646Y-98372419D01*
X179708646Y-98372419D02*
X180327693Y-98372419D01*
X181184836Y-97705752D02*
X181184836Y-98372419D01*
X180946741Y-97324800D02*
X180708646Y-98039085D01*
X180708646Y-98039085D02*
X181327693Y-98039085D01*
X181565789Y-97372419D02*
X181899122Y-98372419D01*
X181899122Y-98372419D02*
X182232455Y-97372419D01*
X167303884Y-72872419D02*
X167303884Y-71872419D01*
X167303884Y-71872419D02*
X167684836Y-71872419D01*
X167684836Y-71872419D02*
X167780074Y-71920038D01*
X167780074Y-71920038D02*
X167827693Y-71967657D01*
X167827693Y-71967657D02*
X167875312Y-72062895D01*
X167875312Y-72062895D02*
X167875312Y-72205752D01*
X167875312Y-72205752D02*
X167827693Y-72300990D01*
X167827693Y-72300990D02*
X167780074Y-72348609D01*
X167780074Y-72348609D02*
X167684836Y-72396228D01*
X167684836Y-72396228D02*
X167303884Y-72396228D01*
X168208646Y-71872419D02*
X168446741Y-72872419D01*
X168446741Y-72872419D02*
X168637217Y-72158133D01*
X168637217Y-72158133D02*
X168827693Y-72872419D01*
X168827693Y-72872419D02*
X169065789Y-71872419D01*
X169446741Y-72872419D02*
X169446741Y-71872419D01*
X169446741Y-71872419D02*
X169780074Y-72586704D01*
X169780074Y-72586704D02*
X170113407Y-71872419D01*
X170113407Y-71872419D02*
X170113407Y-72872419D01*
D11*
X208725093Y-64371119D02*
X209344140Y-64371119D01*
X209344140Y-64371119D02*
X209010807Y-64752071D01*
X209010807Y-64752071D02*
X209153664Y-64752071D01*
X209153664Y-64752071D02*
X209248902Y-64799690D01*
X209248902Y-64799690D02*
X209296521Y-64847309D01*
X209296521Y-64847309D02*
X209344140Y-64942547D01*
X209344140Y-64942547D02*
X209344140Y-65180642D01*
X209344140Y-65180642D02*
X209296521Y-65275880D01*
X209296521Y-65275880D02*
X209248902Y-65323500D01*
X209248902Y-65323500D02*
X209153664Y-65371119D01*
X209153664Y-65371119D02*
X208867950Y-65371119D01*
X208867950Y-65371119D02*
X208772712Y-65323500D01*
X208772712Y-65323500D02*
X208725093Y-65275880D01*
X209677474Y-64704452D02*
X209915569Y-65371119D01*
X209915569Y-65371119D02*
X210153664Y-64704452D01*
X210439379Y-64371119D02*
X211058426Y-64371119D01*
X211058426Y-64371119D02*
X210725093Y-64752071D01*
X210725093Y-64752071D02*
X210867950Y-64752071D01*
X210867950Y-64752071D02*
X210963188Y-64799690D01*
X210963188Y-64799690D02*
X211010807Y-64847309D01*
X211010807Y-64847309D02*
X211058426Y-64942547D01*
X211058426Y-64942547D02*
X211058426Y-65180642D01*
X211058426Y-65180642D02*
X211010807Y-65275880D01*
X211010807Y-65275880D02*
X210963188Y-65323500D01*
X210963188Y-65323500D02*
X210867950Y-65371119D01*
X210867950Y-65371119D02*
X210582236Y-65371119D01*
X210582236Y-65371119D02*
X210486998Y-65323500D01*
X210486998Y-65323500D02*
X210439379Y-65275880D01*
D10*
X160780074Y-89872419D02*
X160303884Y-89872419D01*
X160303884Y-89872419D02*
X160303884Y-88872419D01*
X161113408Y-89348609D02*
X161446741Y-89348609D01*
X161589598Y-89872419D02*
X161113408Y-89872419D01*
X161113408Y-89872419D02*
X161113408Y-88872419D01*
X161113408Y-88872419D02*
X161589598Y-88872419D01*
X162018170Y-89872419D02*
X162018170Y-88872419D01*
X162018170Y-88872419D02*
X162256265Y-88872419D01*
X162256265Y-88872419D02*
X162399122Y-88920038D01*
X162399122Y-88920038D02*
X162494360Y-89015276D01*
X162494360Y-89015276D02*
X162541979Y-89110514D01*
X162541979Y-89110514D02*
X162589598Y-89300990D01*
X162589598Y-89300990D02*
X162589598Y-89443847D01*
X162589598Y-89443847D02*
X162541979Y-89634323D01*
X162541979Y-89634323D02*
X162494360Y-89729561D01*
X162494360Y-89729561D02*
X162399122Y-89824800D01*
X162399122Y-89824800D02*
X162256265Y-89872419D01*
X162256265Y-89872419D02*
X162018170Y-89872419D01*
X162780075Y-89967657D02*
X163541979Y-89967657D01*
X163970551Y-88872419D02*
X164161027Y-88872419D01*
X164161027Y-88872419D02*
X164256265Y-88920038D01*
X164256265Y-88920038D02*
X164351503Y-89015276D01*
X164351503Y-89015276D02*
X164399122Y-89205752D01*
X164399122Y-89205752D02*
X164399122Y-89539085D01*
X164399122Y-89539085D02*
X164351503Y-89729561D01*
X164351503Y-89729561D02*
X164256265Y-89824800D01*
X164256265Y-89824800D02*
X164161027Y-89872419D01*
X164161027Y-89872419D02*
X163970551Y-89872419D01*
X163970551Y-89872419D02*
X163875313Y-89824800D01*
X163875313Y-89824800D02*
X163780075Y-89729561D01*
X163780075Y-89729561D02*
X163732456Y-89539085D01*
X163732456Y-89539085D02*
X163732456Y-89205752D01*
X163732456Y-89205752D02*
X163780075Y-89015276D01*
X163780075Y-89015276D02*
X163875313Y-88920038D01*
X163875313Y-88920038D02*
X163970551Y-88872419D01*
X164827694Y-88872419D02*
X164827694Y-89681942D01*
X164827694Y-89681942D02*
X164875313Y-89777180D01*
X164875313Y-89777180D02*
X164922932Y-89824800D01*
X164922932Y-89824800D02*
X165018170Y-89872419D01*
X165018170Y-89872419D02*
X165208646Y-89872419D01*
X165208646Y-89872419D02*
X165303884Y-89824800D01*
X165303884Y-89824800D02*
X165351503Y-89777180D01*
X165351503Y-89777180D02*
X165399122Y-89681942D01*
X165399122Y-89681942D02*
X165399122Y-88872419D01*
X165732456Y-88872419D02*
X166303884Y-88872419D01*
X166018170Y-89872419D02*
X166018170Y-88872419D01*
X216637217Y-59348609D02*
X216780074Y-59396228D01*
X216780074Y-59396228D02*
X216827693Y-59443847D01*
X216827693Y-59443847D02*
X216875312Y-59539085D01*
X216875312Y-59539085D02*
X216875312Y-59681942D01*
X216875312Y-59681942D02*
X216827693Y-59777180D01*
X216827693Y-59777180D02*
X216780074Y-59824800D01*
X216780074Y-59824800D02*
X216684836Y-59872419D01*
X216684836Y-59872419D02*
X216303884Y-59872419D01*
X216303884Y-59872419D02*
X216303884Y-58872419D01*
X216303884Y-58872419D02*
X216637217Y-58872419D01*
X216637217Y-58872419D02*
X216732455Y-58920038D01*
X216732455Y-58920038D02*
X216780074Y-58967657D01*
X216780074Y-58967657D02*
X216827693Y-59062895D01*
X216827693Y-59062895D02*
X216827693Y-59158133D01*
X216827693Y-59158133D02*
X216780074Y-59253371D01*
X216780074Y-59253371D02*
X216732455Y-59300990D01*
X216732455Y-59300990D02*
X216637217Y-59348609D01*
X216637217Y-59348609D02*
X216303884Y-59348609D01*
X217494360Y-58872419D02*
X217684836Y-58872419D01*
X217684836Y-58872419D02*
X217780074Y-58920038D01*
X217780074Y-58920038D02*
X217875312Y-59015276D01*
X217875312Y-59015276D02*
X217922931Y-59205752D01*
X217922931Y-59205752D02*
X217922931Y-59539085D01*
X217922931Y-59539085D02*
X217875312Y-59729561D01*
X217875312Y-59729561D02*
X217780074Y-59824800D01*
X217780074Y-59824800D02*
X217684836Y-59872419D01*
X217684836Y-59872419D02*
X217494360Y-59872419D01*
X217494360Y-59872419D02*
X217399122Y-59824800D01*
X217399122Y-59824800D02*
X217303884Y-59729561D01*
X217303884Y-59729561D02*
X217256265Y-59539085D01*
X217256265Y-59539085D02*
X217256265Y-59205752D01*
X217256265Y-59205752D02*
X217303884Y-59015276D01*
X217303884Y-59015276D02*
X217399122Y-58920038D01*
X217399122Y-58920038D02*
X217494360Y-58872419D01*
X218541979Y-58872419D02*
X218732455Y-58872419D01*
X218732455Y-58872419D02*
X218827693Y-58920038D01*
X218827693Y-58920038D02*
X218922931Y-59015276D01*
X218922931Y-59015276D02*
X218970550Y-59205752D01*
X218970550Y-59205752D02*
X218970550Y-59539085D01*
X218970550Y-59539085D02*
X218922931Y-59729561D01*
X218922931Y-59729561D02*
X218827693Y-59824800D01*
X218827693Y-59824800D02*
X218732455Y-59872419D01*
X218732455Y-59872419D02*
X218541979Y-59872419D01*
X218541979Y-59872419D02*
X218446741Y-59824800D01*
X218446741Y-59824800D02*
X218351503Y-59729561D01*
X218351503Y-59729561D02*
X218303884Y-59539085D01*
X218303884Y-59539085D02*
X218303884Y-59205752D01*
X218303884Y-59205752D02*
X218351503Y-59015276D01*
X218351503Y-59015276D02*
X218446741Y-58920038D01*
X218446741Y-58920038D02*
X218541979Y-58872419D01*
X219256265Y-58872419D02*
X219827693Y-58872419D01*
X219541979Y-59872419D02*
X219541979Y-58872419D01*
X217208646Y-71372419D02*
X217827693Y-71372419D01*
X217827693Y-71372419D02*
X217494360Y-71753371D01*
X217494360Y-71753371D02*
X217637217Y-71753371D01*
X217637217Y-71753371D02*
X217732455Y-71800990D01*
X217732455Y-71800990D02*
X217780074Y-71848609D01*
X217780074Y-71848609D02*
X217827693Y-71943847D01*
X217827693Y-71943847D02*
X217827693Y-72181942D01*
X217827693Y-72181942D02*
X217780074Y-72277180D01*
X217780074Y-72277180D02*
X217732455Y-72324800D01*
X217732455Y-72324800D02*
X217637217Y-72372419D01*
X217637217Y-72372419D02*
X217351503Y-72372419D01*
X217351503Y-72372419D02*
X217256265Y-72324800D01*
X217256265Y-72324800D02*
X217208646Y-72277180D01*
X218161027Y-71705752D02*
X218399122Y-72372419D01*
X218399122Y-72372419D02*
X218637217Y-71705752D01*
X218922932Y-71372419D02*
X219541979Y-71372419D01*
X219541979Y-71372419D02*
X219208646Y-71753371D01*
X219208646Y-71753371D02*
X219351503Y-71753371D01*
X219351503Y-71753371D02*
X219446741Y-71800990D01*
X219446741Y-71800990D02*
X219494360Y-71848609D01*
X219494360Y-71848609D02*
X219541979Y-71943847D01*
X219541979Y-71943847D02*
X219541979Y-72181942D01*
X219541979Y-72181942D02*
X219494360Y-72277180D01*
X219494360Y-72277180D02*
X219446741Y-72324800D01*
X219446741Y-72324800D02*
X219351503Y-72372419D01*
X219351503Y-72372419D02*
X219065789Y-72372419D01*
X219065789Y-72372419D02*
X218970551Y-72324800D01*
X218970551Y-72324800D02*
X218922932Y-72277180D01*
D13*
X178284819Y-73176666D02*
X177808628Y-73509999D01*
X178284819Y-73748094D02*
X177284819Y-73748094D01*
X177284819Y-73748094D02*
X177284819Y-73367142D01*
X177284819Y-73367142D02*
X177332438Y-73271904D01*
X177332438Y-73271904D02*
X177380057Y-73224285D01*
X177380057Y-73224285D02*
X177475295Y-73176666D01*
X177475295Y-73176666D02*
X177618152Y-73176666D01*
X177618152Y-73176666D02*
X177713390Y-73224285D01*
X177713390Y-73224285D02*
X177761009Y-73271904D01*
X177761009Y-73271904D02*
X177808628Y-73367142D01*
X177808628Y-73367142D02*
X177808628Y-73748094D01*
X177713390Y-72605237D02*
X177665771Y-72700475D01*
X177665771Y-72700475D02*
X177618152Y-72748094D01*
X177618152Y-72748094D02*
X177522914Y-72795713D01*
X177522914Y-72795713D02*
X177475295Y-72795713D01*
X177475295Y-72795713D02*
X177380057Y-72748094D01*
X177380057Y-72748094D02*
X177332438Y-72700475D01*
X177332438Y-72700475D02*
X177284819Y-72605237D01*
X177284819Y-72605237D02*
X177284819Y-72414761D01*
X177284819Y-72414761D02*
X177332438Y-72319523D01*
X177332438Y-72319523D02*
X177380057Y-72271904D01*
X177380057Y-72271904D02*
X177475295Y-72224285D01*
X177475295Y-72224285D02*
X177522914Y-72224285D01*
X177522914Y-72224285D02*
X177618152Y-72271904D01*
X177618152Y-72271904D02*
X177665771Y-72319523D01*
X177665771Y-72319523D02*
X177713390Y-72414761D01*
X177713390Y-72414761D02*
X177713390Y-72605237D01*
X177713390Y-72605237D02*
X177761009Y-72700475D01*
X177761009Y-72700475D02*
X177808628Y-72748094D01*
X177808628Y-72748094D02*
X177903866Y-72795713D01*
X177903866Y-72795713D02*
X178094342Y-72795713D01*
X178094342Y-72795713D02*
X178189580Y-72748094D01*
X178189580Y-72748094D02*
X178237200Y-72700475D01*
X178237200Y-72700475D02*
X178284819Y-72605237D01*
X178284819Y-72605237D02*
X178284819Y-72414761D01*
X178284819Y-72414761D02*
X178237200Y-72319523D01*
X178237200Y-72319523D02*
X178189580Y-72271904D01*
X178189580Y-72271904D02*
X178094342Y-72224285D01*
X178094342Y-72224285D02*
X177903866Y-72224285D01*
X177903866Y-72224285D02*
X177808628Y-72271904D01*
X177808628Y-72271904D02*
X177761009Y-72319523D01*
X177761009Y-72319523D02*
X177713390Y-72414761D01*
X220284819Y-62666666D02*
X219808628Y-62999999D01*
X220284819Y-63238094D02*
X219284819Y-63238094D01*
X219284819Y-63238094D02*
X219284819Y-62857142D01*
X219284819Y-62857142D02*
X219332438Y-62761904D01*
X219332438Y-62761904D02*
X219380057Y-62714285D01*
X219380057Y-62714285D02*
X219475295Y-62666666D01*
X219475295Y-62666666D02*
X219618152Y-62666666D01*
X219618152Y-62666666D02*
X219713390Y-62714285D01*
X219713390Y-62714285D02*
X219761009Y-62761904D01*
X219761009Y-62761904D02*
X219808628Y-62857142D01*
X219808628Y-62857142D02*
X219808628Y-63238094D01*
X219284819Y-62333332D02*
X219284819Y-61666666D01*
X219284819Y-61666666D02*
X220284819Y-62095237D01*
X206454819Y-94176666D02*
X205978628Y-94509999D01*
X206454819Y-94748094D02*
X205454819Y-94748094D01*
X205454819Y-94748094D02*
X205454819Y-94367142D01*
X205454819Y-94367142D02*
X205502438Y-94271904D01*
X205502438Y-94271904D02*
X205550057Y-94224285D01*
X205550057Y-94224285D02*
X205645295Y-94176666D01*
X205645295Y-94176666D02*
X205788152Y-94176666D01*
X205788152Y-94176666D02*
X205883390Y-94224285D01*
X205883390Y-94224285D02*
X205931009Y-94271904D01*
X205931009Y-94271904D02*
X205978628Y-94367142D01*
X205978628Y-94367142D02*
X205978628Y-94748094D01*
X205788152Y-93319523D02*
X206454819Y-93319523D01*
X205407200Y-93557618D02*
X206121485Y-93795713D01*
X206121485Y-93795713D02*
X206121485Y-93176666D01*
X206454819Y-90991666D02*
X205978628Y-91324999D01*
X206454819Y-91563094D02*
X205454819Y-91563094D01*
X205454819Y-91563094D02*
X205454819Y-91182142D01*
X205454819Y-91182142D02*
X205502438Y-91086904D01*
X205502438Y-91086904D02*
X205550057Y-91039285D01*
X205550057Y-91039285D02*
X205645295Y-90991666D01*
X205645295Y-90991666D02*
X205788152Y-90991666D01*
X205788152Y-90991666D02*
X205883390Y-91039285D01*
X205883390Y-91039285D02*
X205931009Y-91086904D01*
X205931009Y-91086904D02*
X205978628Y-91182142D01*
X205978628Y-91182142D02*
X205978628Y-91563094D01*
X205454819Y-90658332D02*
X205454819Y-90039285D01*
X205454819Y-90039285D02*
X205835771Y-90372618D01*
X205835771Y-90372618D02*
X205835771Y-90229761D01*
X205835771Y-90229761D02*
X205883390Y-90134523D01*
X205883390Y-90134523D02*
X205931009Y-90086904D01*
X205931009Y-90086904D02*
X206026247Y-90039285D01*
X206026247Y-90039285D02*
X206264342Y-90039285D01*
X206264342Y-90039285D02*
X206359580Y-90086904D01*
X206359580Y-90086904D02*
X206407200Y-90134523D01*
X206407200Y-90134523D02*
X206454819Y-90229761D01*
X206454819Y-90229761D02*
X206454819Y-90515475D01*
X206454819Y-90515475D02*
X206407200Y-90610713D01*
X206407200Y-90610713D02*
X206359580Y-90658332D01*
X202954819Y-54833333D02*
X203669104Y-54833333D01*
X203669104Y-54833333D02*
X203811961Y-54880952D01*
X203811961Y-54880952D02*
X203907200Y-54976190D01*
X203907200Y-54976190D02*
X203954819Y-55119047D01*
X203954819Y-55119047D02*
X203954819Y-55214285D01*
X202954819Y-53928571D02*
X202954819Y-54119047D01*
X202954819Y-54119047D02*
X203002438Y-54214285D01*
X203002438Y-54214285D02*
X203050057Y-54261904D01*
X203050057Y-54261904D02*
X203192914Y-54357142D01*
X203192914Y-54357142D02*
X203383390Y-54404761D01*
X203383390Y-54404761D02*
X203764342Y-54404761D01*
X203764342Y-54404761D02*
X203859580Y-54357142D01*
X203859580Y-54357142D02*
X203907200Y-54309523D01*
X203907200Y-54309523D02*
X203954819Y-54214285D01*
X203954819Y-54214285D02*
X203954819Y-54023809D01*
X203954819Y-54023809D02*
X203907200Y-53928571D01*
X203907200Y-53928571D02*
X203859580Y-53880952D01*
X203859580Y-53880952D02*
X203764342Y-53833333D01*
X203764342Y-53833333D02*
X203526247Y-53833333D01*
X203526247Y-53833333D02*
X203431009Y-53880952D01*
X203431009Y-53880952D02*
X203383390Y-53928571D01*
X203383390Y-53928571D02*
X203335771Y-54023809D01*
X203335771Y-54023809D02*
X203335771Y-54214285D01*
X203335771Y-54214285D02*
X203383390Y-54309523D01*
X203383390Y-54309523D02*
X203431009Y-54357142D01*
X203431009Y-54357142D02*
X203526247Y-54404761D01*
X220259819Y-93786904D02*
X221069342Y-93786904D01*
X221069342Y-93786904D02*
X221164580Y-93739285D01*
X221164580Y-93739285D02*
X221212200Y-93691666D01*
X221212200Y-93691666D02*
X221259819Y-93596428D01*
X221259819Y-93596428D02*
X221259819Y-93405952D01*
X221259819Y-93405952D02*
X221212200Y-93310714D01*
X221212200Y-93310714D02*
X221164580Y-93263095D01*
X221164580Y-93263095D02*
X221069342Y-93215476D01*
X221069342Y-93215476D02*
X220259819Y-93215476D01*
X220259819Y-92834523D02*
X220259819Y-92167857D01*
X220259819Y-92167857D02*
X221259819Y-92596428D01*
X189666666Y-101904819D02*
X189666666Y-102619104D01*
X189666666Y-102619104D02*
X189619047Y-102761961D01*
X189619047Y-102761961D02*
X189523809Y-102857200D01*
X189523809Y-102857200D02*
X189380952Y-102904819D01*
X189380952Y-102904819D02*
X189285714Y-102904819D01*
X190095238Y-102000057D02*
X190142857Y-101952438D01*
X190142857Y-101952438D02*
X190238095Y-101904819D01*
X190238095Y-101904819D02*
X190476190Y-101904819D01*
X190476190Y-101904819D02*
X190571428Y-101952438D01*
X190571428Y-101952438D02*
X190619047Y-102000057D01*
X190619047Y-102000057D02*
X190666666Y-102095295D01*
X190666666Y-102095295D02*
X190666666Y-102190533D01*
X190666666Y-102190533D02*
X190619047Y-102333390D01*
X190619047Y-102333390D02*
X190047619Y-102904819D01*
X190047619Y-102904819D02*
X190666666Y-102904819D01*
X212954819Y-81916666D02*
X212954819Y-82392856D01*
X212954819Y-82392856D02*
X211954819Y-82392856D01*
X212954819Y-81059523D02*
X212954819Y-81630951D01*
X212954819Y-81345237D02*
X211954819Y-81345237D01*
X211954819Y-81345237D02*
X212097676Y-81440475D01*
X212097676Y-81440475D02*
X212192914Y-81535713D01*
X212192914Y-81535713D02*
X212240533Y-81630951D01*
X184859580Y-86666666D02*
X184907200Y-86714285D01*
X184907200Y-86714285D02*
X184954819Y-86857142D01*
X184954819Y-86857142D02*
X184954819Y-86952380D01*
X184954819Y-86952380D02*
X184907200Y-87095237D01*
X184907200Y-87095237D02*
X184811961Y-87190475D01*
X184811961Y-87190475D02*
X184716723Y-87238094D01*
X184716723Y-87238094D02*
X184526247Y-87285713D01*
X184526247Y-87285713D02*
X184383390Y-87285713D01*
X184383390Y-87285713D02*
X184192914Y-87238094D01*
X184192914Y-87238094D02*
X184097676Y-87190475D01*
X184097676Y-87190475D02*
X184002438Y-87095237D01*
X184002438Y-87095237D02*
X183954819Y-86952380D01*
X183954819Y-86952380D02*
X183954819Y-86857142D01*
X183954819Y-86857142D02*
X184002438Y-86714285D01*
X184002438Y-86714285D02*
X184050057Y-86666666D01*
X183954819Y-86333332D02*
X183954819Y-85714285D01*
X183954819Y-85714285D02*
X184335771Y-86047618D01*
X184335771Y-86047618D02*
X184335771Y-85904761D01*
X184335771Y-85904761D02*
X184383390Y-85809523D01*
X184383390Y-85809523D02*
X184431009Y-85761904D01*
X184431009Y-85761904D02*
X184526247Y-85714285D01*
X184526247Y-85714285D02*
X184764342Y-85714285D01*
X184764342Y-85714285D02*
X184859580Y-85761904D01*
X184859580Y-85761904D02*
X184907200Y-85809523D01*
X184907200Y-85809523D02*
X184954819Y-85904761D01*
X184954819Y-85904761D02*
X184954819Y-86190475D01*
X184954819Y-86190475D02*
X184907200Y-86285713D01*
X184907200Y-86285713D02*
X184859580Y-86333332D01*
X205857142Y-58454819D02*
X205523809Y-57978628D01*
X205285714Y-58454819D02*
X205285714Y-57454819D01*
X205285714Y-57454819D02*
X205666666Y-57454819D01*
X205666666Y-57454819D02*
X205761904Y-57502438D01*
X205761904Y-57502438D02*
X205809523Y-57550057D01*
X205809523Y-57550057D02*
X205857142Y-57645295D01*
X205857142Y-57645295D02*
X205857142Y-57788152D01*
X205857142Y-57788152D02*
X205809523Y-57883390D01*
X205809523Y-57883390D02*
X205761904Y-57931009D01*
X205761904Y-57931009D02*
X205666666Y-57978628D01*
X205666666Y-57978628D02*
X205285714Y-57978628D01*
X206809523Y-58454819D02*
X206238095Y-58454819D01*
X206523809Y-58454819D02*
X206523809Y-57454819D01*
X206523809Y-57454819D02*
X206428571Y-57597676D01*
X206428571Y-57597676D02*
X206333333Y-57692914D01*
X206333333Y-57692914D02*
X206238095Y-57740533D01*
X207428571Y-57454819D02*
X207523809Y-57454819D01*
X207523809Y-57454819D02*
X207619047Y-57502438D01*
X207619047Y-57502438D02*
X207666666Y-57550057D01*
X207666666Y-57550057D02*
X207714285Y-57645295D01*
X207714285Y-57645295D02*
X207761904Y-57835771D01*
X207761904Y-57835771D02*
X207761904Y-58073866D01*
X207761904Y-58073866D02*
X207714285Y-58264342D01*
X207714285Y-58264342D02*
X207666666Y-58359580D01*
X207666666Y-58359580D02*
X207619047Y-58407200D01*
X207619047Y-58407200D02*
X207523809Y-58454819D01*
X207523809Y-58454819D02*
X207428571Y-58454819D01*
X207428571Y-58454819D02*
X207333333Y-58407200D01*
X207333333Y-58407200D02*
X207285714Y-58359580D01*
X207285714Y-58359580D02*
X207238095Y-58264342D01*
X207238095Y-58264342D02*
X207190476Y-58073866D01*
X207190476Y-58073866D02*
X207190476Y-57835771D01*
X207190476Y-57835771D02*
X207238095Y-57645295D01*
X207238095Y-57645295D02*
X207285714Y-57550057D01*
X207285714Y-57550057D02*
X207333333Y-57502438D01*
X207333333Y-57502438D02*
X207428571Y-57454819D01*
X221904819Y-69833333D02*
X222619104Y-69833333D01*
X222619104Y-69833333D02*
X222761961Y-69880952D01*
X222761961Y-69880952D02*
X222857200Y-69976190D01*
X222857200Y-69976190D02*
X222904819Y-70119047D01*
X222904819Y-70119047D02*
X222904819Y-70214285D01*
X221904819Y-69452380D02*
X221904819Y-68833333D01*
X221904819Y-68833333D02*
X222285771Y-69166666D01*
X222285771Y-69166666D02*
X222285771Y-69023809D01*
X222285771Y-69023809D02*
X222333390Y-68928571D01*
X222333390Y-68928571D02*
X222381009Y-68880952D01*
X222381009Y-68880952D02*
X222476247Y-68833333D01*
X222476247Y-68833333D02*
X222714342Y-68833333D01*
X222714342Y-68833333D02*
X222809580Y-68880952D01*
X222809580Y-68880952D02*
X222857200Y-68928571D01*
X222857200Y-68928571D02*
X222904819Y-69023809D01*
X222904819Y-69023809D02*
X222904819Y-69309523D01*
X222904819Y-69309523D02*
X222857200Y-69404761D01*
X222857200Y-69404761D02*
X222809580Y-69452380D01*
X217238333Y-99479819D02*
X216905000Y-99003628D01*
X216666905Y-99479819D02*
X216666905Y-98479819D01*
X216666905Y-98479819D02*
X217047857Y-98479819D01*
X217047857Y-98479819D02*
X217143095Y-98527438D01*
X217143095Y-98527438D02*
X217190714Y-98575057D01*
X217190714Y-98575057D02*
X217238333Y-98670295D01*
X217238333Y-98670295D02*
X217238333Y-98813152D01*
X217238333Y-98813152D02*
X217190714Y-98908390D01*
X217190714Y-98908390D02*
X217143095Y-98956009D01*
X217143095Y-98956009D02*
X217047857Y-99003628D01*
X217047857Y-99003628D02*
X216666905Y-99003628D01*
X218095476Y-98479819D02*
X217905000Y-98479819D01*
X217905000Y-98479819D02*
X217809762Y-98527438D01*
X217809762Y-98527438D02*
X217762143Y-98575057D01*
X217762143Y-98575057D02*
X217666905Y-98717914D01*
X217666905Y-98717914D02*
X217619286Y-98908390D01*
X217619286Y-98908390D02*
X217619286Y-99289342D01*
X217619286Y-99289342D02*
X217666905Y-99384580D01*
X217666905Y-99384580D02*
X217714524Y-99432200D01*
X217714524Y-99432200D02*
X217809762Y-99479819D01*
X217809762Y-99479819D02*
X218000238Y-99479819D01*
X218000238Y-99479819D02*
X218095476Y-99432200D01*
X218095476Y-99432200D02*
X218143095Y-99384580D01*
X218143095Y-99384580D02*
X218190714Y-99289342D01*
X218190714Y-99289342D02*
X218190714Y-99051247D01*
X218190714Y-99051247D02*
X218143095Y-98956009D01*
X218143095Y-98956009D02*
X218095476Y-98908390D01*
X218095476Y-98908390D02*
X218000238Y-98860771D01*
X218000238Y-98860771D02*
X217809762Y-98860771D01*
X217809762Y-98860771D02*
X217714524Y-98908390D01*
X217714524Y-98908390D02*
X217666905Y-98956009D01*
X217666905Y-98956009D02*
X217619286Y-99051247D01*
X199859580Y-72666666D02*
X199907200Y-72714285D01*
X199907200Y-72714285D02*
X199954819Y-72857142D01*
X199954819Y-72857142D02*
X199954819Y-72952380D01*
X199954819Y-72952380D02*
X199907200Y-73095237D01*
X199907200Y-73095237D02*
X199811961Y-73190475D01*
X199811961Y-73190475D02*
X199716723Y-73238094D01*
X199716723Y-73238094D02*
X199526247Y-73285713D01*
X199526247Y-73285713D02*
X199383390Y-73285713D01*
X199383390Y-73285713D02*
X199192914Y-73238094D01*
X199192914Y-73238094D02*
X199097676Y-73190475D01*
X199097676Y-73190475D02*
X199002438Y-73095237D01*
X199002438Y-73095237D02*
X198954819Y-72952380D01*
X198954819Y-72952380D02*
X198954819Y-72857142D01*
X198954819Y-72857142D02*
X199002438Y-72714285D01*
X199002438Y-72714285D02*
X199050057Y-72666666D01*
X199954819Y-72190475D02*
X199954819Y-71999999D01*
X199954819Y-71999999D02*
X199907200Y-71904761D01*
X199907200Y-71904761D02*
X199859580Y-71857142D01*
X199859580Y-71857142D02*
X199716723Y-71761904D01*
X199716723Y-71761904D02*
X199526247Y-71714285D01*
X199526247Y-71714285D02*
X199145295Y-71714285D01*
X199145295Y-71714285D02*
X199050057Y-71761904D01*
X199050057Y-71761904D02*
X199002438Y-71809523D01*
X199002438Y-71809523D02*
X198954819Y-71904761D01*
X198954819Y-71904761D02*
X198954819Y-72095237D01*
X198954819Y-72095237D02*
X199002438Y-72190475D01*
X199002438Y-72190475D02*
X199050057Y-72238094D01*
X199050057Y-72238094D02*
X199145295Y-72285713D01*
X199145295Y-72285713D02*
X199383390Y-72285713D01*
X199383390Y-72285713D02*
X199478628Y-72238094D01*
X199478628Y-72238094D02*
X199526247Y-72190475D01*
X199526247Y-72190475D02*
X199573866Y-72095237D01*
X199573866Y-72095237D02*
X199573866Y-71904761D01*
X199573866Y-71904761D02*
X199526247Y-71809523D01*
X199526247Y-71809523D02*
X199478628Y-71761904D01*
X199478628Y-71761904D02*
X199383390Y-71714285D01*
X199859580Y-97666666D02*
X199907200Y-97714285D01*
X199907200Y-97714285D02*
X199954819Y-97857142D01*
X199954819Y-97857142D02*
X199954819Y-97952380D01*
X199954819Y-97952380D02*
X199907200Y-98095237D01*
X199907200Y-98095237D02*
X199811961Y-98190475D01*
X199811961Y-98190475D02*
X199716723Y-98238094D01*
X199716723Y-98238094D02*
X199526247Y-98285713D01*
X199526247Y-98285713D02*
X199383390Y-98285713D01*
X199383390Y-98285713D02*
X199192914Y-98238094D01*
X199192914Y-98238094D02*
X199097676Y-98190475D01*
X199097676Y-98190475D02*
X199002438Y-98095237D01*
X199002438Y-98095237D02*
X198954819Y-97952380D01*
X198954819Y-97952380D02*
X198954819Y-97857142D01*
X198954819Y-97857142D02*
X199002438Y-97714285D01*
X199002438Y-97714285D02*
X199050057Y-97666666D01*
X198954819Y-96809523D02*
X198954819Y-96999999D01*
X198954819Y-96999999D02*
X199002438Y-97095237D01*
X199002438Y-97095237D02*
X199050057Y-97142856D01*
X199050057Y-97142856D02*
X199192914Y-97238094D01*
X199192914Y-97238094D02*
X199383390Y-97285713D01*
X199383390Y-97285713D02*
X199764342Y-97285713D01*
X199764342Y-97285713D02*
X199859580Y-97238094D01*
X199859580Y-97238094D02*
X199907200Y-97190475D01*
X199907200Y-97190475D02*
X199954819Y-97095237D01*
X199954819Y-97095237D02*
X199954819Y-96904761D01*
X199954819Y-96904761D02*
X199907200Y-96809523D01*
X199907200Y-96809523D02*
X199859580Y-96761904D01*
X199859580Y-96761904D02*
X199764342Y-96714285D01*
X199764342Y-96714285D02*
X199526247Y-96714285D01*
X199526247Y-96714285D02*
X199431009Y-96761904D01*
X199431009Y-96761904D02*
X199383390Y-96809523D01*
X199383390Y-96809523D02*
X199335771Y-96904761D01*
X199335771Y-96904761D02*
X199335771Y-97095237D01*
X199335771Y-97095237D02*
X199383390Y-97190475D01*
X199383390Y-97190475D02*
X199431009Y-97238094D01*
X199431009Y-97238094D02*
X199526247Y-97285713D01*
X197004819Y-73174404D02*
X197814342Y-73174404D01*
X197814342Y-73174404D02*
X197909580Y-73126785D01*
X197909580Y-73126785D02*
X197957200Y-73079166D01*
X197957200Y-73079166D02*
X198004819Y-72983928D01*
X198004819Y-72983928D02*
X198004819Y-72793452D01*
X198004819Y-72793452D02*
X197957200Y-72698214D01*
X197957200Y-72698214D02*
X197909580Y-72650595D01*
X197909580Y-72650595D02*
X197814342Y-72602976D01*
X197814342Y-72602976D02*
X197004819Y-72602976D01*
X197338152Y-71698214D02*
X198004819Y-71698214D01*
X196957200Y-71936309D02*
X197671485Y-72174404D01*
X197671485Y-72174404D02*
X197671485Y-71555357D01*
X161632142Y-52859580D02*
X161584523Y-52907200D01*
X161584523Y-52907200D02*
X161441666Y-52954819D01*
X161441666Y-52954819D02*
X161346428Y-52954819D01*
X161346428Y-52954819D02*
X161203571Y-52907200D01*
X161203571Y-52907200D02*
X161108333Y-52811961D01*
X161108333Y-52811961D02*
X161060714Y-52716723D01*
X161060714Y-52716723D02*
X161013095Y-52526247D01*
X161013095Y-52526247D02*
X161013095Y-52383390D01*
X161013095Y-52383390D02*
X161060714Y-52192914D01*
X161060714Y-52192914D02*
X161108333Y-52097676D01*
X161108333Y-52097676D02*
X161203571Y-52002438D01*
X161203571Y-52002438D02*
X161346428Y-51954819D01*
X161346428Y-51954819D02*
X161441666Y-51954819D01*
X161441666Y-51954819D02*
X161584523Y-52002438D01*
X161584523Y-52002438D02*
X161632142Y-52050057D01*
X162584523Y-52954819D02*
X162013095Y-52954819D01*
X162298809Y-52954819D02*
X162298809Y-51954819D01*
X162298809Y-51954819D02*
X162203571Y-52097676D01*
X162203571Y-52097676D02*
X162108333Y-52192914D01*
X162108333Y-52192914D02*
X162013095Y-52240533D01*
X163155952Y-52383390D02*
X163060714Y-52335771D01*
X163060714Y-52335771D02*
X163013095Y-52288152D01*
X163013095Y-52288152D02*
X162965476Y-52192914D01*
X162965476Y-52192914D02*
X162965476Y-52145295D01*
X162965476Y-52145295D02*
X163013095Y-52050057D01*
X163013095Y-52050057D02*
X163060714Y-52002438D01*
X163060714Y-52002438D02*
X163155952Y-51954819D01*
X163155952Y-51954819D02*
X163346428Y-51954819D01*
X163346428Y-51954819D02*
X163441666Y-52002438D01*
X163441666Y-52002438D02*
X163489285Y-52050057D01*
X163489285Y-52050057D02*
X163536904Y-52145295D01*
X163536904Y-52145295D02*
X163536904Y-52192914D01*
X163536904Y-52192914D02*
X163489285Y-52288152D01*
X163489285Y-52288152D02*
X163441666Y-52335771D01*
X163441666Y-52335771D02*
X163346428Y-52383390D01*
X163346428Y-52383390D02*
X163155952Y-52383390D01*
X163155952Y-52383390D02*
X163060714Y-52431009D01*
X163060714Y-52431009D02*
X163013095Y-52478628D01*
X163013095Y-52478628D02*
X162965476Y-52573866D01*
X162965476Y-52573866D02*
X162965476Y-52764342D01*
X162965476Y-52764342D02*
X163013095Y-52859580D01*
X163013095Y-52859580D02*
X163060714Y-52907200D01*
X163060714Y-52907200D02*
X163155952Y-52954819D01*
X163155952Y-52954819D02*
X163346428Y-52954819D01*
X163346428Y-52954819D02*
X163441666Y-52907200D01*
X163441666Y-52907200D02*
X163489285Y-52859580D01*
X163489285Y-52859580D02*
X163536904Y-52764342D01*
X163536904Y-52764342D02*
X163536904Y-52573866D01*
X163536904Y-52573866D02*
X163489285Y-52478628D01*
X163489285Y-52478628D02*
X163441666Y-52431009D01*
X163441666Y-52431009D02*
X163346428Y-52383390D01*
X170513095Y-84454819D02*
X170513095Y-85264342D01*
X170513095Y-85264342D02*
X170560714Y-85359580D01*
X170560714Y-85359580D02*
X170608333Y-85407200D01*
X170608333Y-85407200D02*
X170703571Y-85454819D01*
X170703571Y-85454819D02*
X170894047Y-85454819D01*
X170894047Y-85454819D02*
X170989285Y-85407200D01*
X170989285Y-85407200D02*
X171036904Y-85359580D01*
X171036904Y-85359580D02*
X171084523Y-85264342D01*
X171084523Y-85264342D02*
X171084523Y-84454819D01*
X172036904Y-84454819D02*
X171560714Y-84454819D01*
X171560714Y-84454819D02*
X171513095Y-84931009D01*
X171513095Y-84931009D02*
X171560714Y-84883390D01*
X171560714Y-84883390D02*
X171655952Y-84835771D01*
X171655952Y-84835771D02*
X171894047Y-84835771D01*
X171894047Y-84835771D02*
X171989285Y-84883390D01*
X171989285Y-84883390D02*
X172036904Y-84931009D01*
X172036904Y-84931009D02*
X172084523Y-85026247D01*
X172084523Y-85026247D02*
X172084523Y-85264342D01*
X172084523Y-85264342D02*
X172036904Y-85359580D01*
X172036904Y-85359580D02*
X171989285Y-85407200D01*
X171989285Y-85407200D02*
X171894047Y-85454819D01*
X171894047Y-85454819D02*
X171655952Y-85454819D01*
X171655952Y-85454819D02*
X171560714Y-85407200D01*
X171560714Y-85407200D02*
X171513095Y-85359580D01*
X189972080Y-86541666D02*
X190019700Y-86589285D01*
X190019700Y-86589285D02*
X190067319Y-86732142D01*
X190067319Y-86732142D02*
X190067319Y-86827380D01*
X190067319Y-86827380D02*
X190019700Y-86970237D01*
X190019700Y-86970237D02*
X189924461Y-87065475D01*
X189924461Y-87065475D02*
X189829223Y-87113094D01*
X189829223Y-87113094D02*
X189638747Y-87160713D01*
X189638747Y-87160713D02*
X189495890Y-87160713D01*
X189495890Y-87160713D02*
X189305414Y-87113094D01*
X189305414Y-87113094D02*
X189210176Y-87065475D01*
X189210176Y-87065475D02*
X189114938Y-86970237D01*
X189114938Y-86970237D02*
X189067319Y-86827380D01*
X189067319Y-86827380D02*
X189067319Y-86732142D01*
X189067319Y-86732142D02*
X189114938Y-86589285D01*
X189114938Y-86589285D02*
X189162557Y-86541666D01*
X189067319Y-85636904D02*
X189067319Y-86113094D01*
X189067319Y-86113094D02*
X189543509Y-86160713D01*
X189543509Y-86160713D02*
X189495890Y-86113094D01*
X189495890Y-86113094D02*
X189448271Y-86017856D01*
X189448271Y-86017856D02*
X189448271Y-85779761D01*
X189448271Y-85779761D02*
X189495890Y-85684523D01*
X189495890Y-85684523D02*
X189543509Y-85636904D01*
X189543509Y-85636904D02*
X189638747Y-85589285D01*
X189638747Y-85589285D02*
X189876842Y-85589285D01*
X189876842Y-85589285D02*
X189972080Y-85636904D01*
X189972080Y-85636904D02*
X190019700Y-85684523D01*
X190019700Y-85684523D02*
X190067319Y-85779761D01*
X190067319Y-85779761D02*
X190067319Y-86017856D01*
X190067319Y-86017856D02*
X190019700Y-86113094D01*
X190019700Y-86113094D02*
X189972080Y-86160713D01*
X167359580Y-88142857D02*
X167407200Y-88190476D01*
X167407200Y-88190476D02*
X167454819Y-88333333D01*
X167454819Y-88333333D02*
X167454819Y-88428571D01*
X167454819Y-88428571D02*
X167407200Y-88571428D01*
X167407200Y-88571428D02*
X167311961Y-88666666D01*
X167311961Y-88666666D02*
X167216723Y-88714285D01*
X167216723Y-88714285D02*
X167026247Y-88761904D01*
X167026247Y-88761904D02*
X166883390Y-88761904D01*
X166883390Y-88761904D02*
X166692914Y-88714285D01*
X166692914Y-88714285D02*
X166597676Y-88666666D01*
X166597676Y-88666666D02*
X166502438Y-88571428D01*
X166502438Y-88571428D02*
X166454819Y-88428571D01*
X166454819Y-88428571D02*
X166454819Y-88333333D01*
X166454819Y-88333333D02*
X166502438Y-88190476D01*
X166502438Y-88190476D02*
X166550057Y-88142857D01*
X167454819Y-87190476D02*
X167454819Y-87761904D01*
X167454819Y-87476190D02*
X166454819Y-87476190D01*
X166454819Y-87476190D02*
X166597676Y-87571428D01*
X166597676Y-87571428D02*
X166692914Y-87666666D01*
X166692914Y-87666666D02*
X166740533Y-87761904D01*
X166454819Y-86857142D02*
X166454819Y-86238095D01*
X166454819Y-86238095D02*
X166835771Y-86571428D01*
X166835771Y-86571428D02*
X166835771Y-86428571D01*
X166835771Y-86428571D02*
X166883390Y-86333333D01*
X166883390Y-86333333D02*
X166931009Y-86285714D01*
X166931009Y-86285714D02*
X167026247Y-86238095D01*
X167026247Y-86238095D02*
X167264342Y-86238095D01*
X167264342Y-86238095D02*
X167359580Y-86285714D01*
X167359580Y-86285714D02*
X167407200Y-86333333D01*
X167407200Y-86333333D02*
X167454819Y-86428571D01*
X167454819Y-86428571D02*
X167454819Y-86714285D01*
X167454819Y-86714285D02*
X167407200Y-86809523D01*
X167407200Y-86809523D02*
X167359580Y-86857142D01*
X164859580Y-80642857D02*
X164907200Y-80690476D01*
X164907200Y-80690476D02*
X164954819Y-80833333D01*
X164954819Y-80833333D02*
X164954819Y-80928571D01*
X164954819Y-80928571D02*
X164907200Y-81071428D01*
X164907200Y-81071428D02*
X164811961Y-81166666D01*
X164811961Y-81166666D02*
X164716723Y-81214285D01*
X164716723Y-81214285D02*
X164526247Y-81261904D01*
X164526247Y-81261904D02*
X164383390Y-81261904D01*
X164383390Y-81261904D02*
X164192914Y-81214285D01*
X164192914Y-81214285D02*
X164097676Y-81166666D01*
X164097676Y-81166666D02*
X164002438Y-81071428D01*
X164002438Y-81071428D02*
X163954819Y-80928571D01*
X163954819Y-80928571D02*
X163954819Y-80833333D01*
X163954819Y-80833333D02*
X164002438Y-80690476D01*
X164002438Y-80690476D02*
X164050057Y-80642857D01*
X164954819Y-79690476D02*
X164954819Y-80261904D01*
X164954819Y-79976190D02*
X163954819Y-79976190D01*
X163954819Y-79976190D02*
X164097676Y-80071428D01*
X164097676Y-80071428D02*
X164192914Y-80166666D01*
X164192914Y-80166666D02*
X164240533Y-80261904D01*
X164288152Y-78833333D02*
X164954819Y-78833333D01*
X163907200Y-79071428D02*
X164621485Y-79309523D01*
X164621485Y-79309523D02*
X164621485Y-78690476D01*
X193954819Y-82238094D02*
X192954819Y-82238094D01*
X192954819Y-82238094D02*
X192954819Y-81999999D01*
X192954819Y-81999999D02*
X193002438Y-81857142D01*
X193002438Y-81857142D02*
X193097676Y-81761904D01*
X193097676Y-81761904D02*
X193192914Y-81714285D01*
X193192914Y-81714285D02*
X193383390Y-81666666D01*
X193383390Y-81666666D02*
X193526247Y-81666666D01*
X193526247Y-81666666D02*
X193716723Y-81714285D01*
X193716723Y-81714285D02*
X193811961Y-81761904D01*
X193811961Y-81761904D02*
X193907200Y-81857142D01*
X193907200Y-81857142D02*
X193954819Y-81999999D01*
X193954819Y-81999999D02*
X193954819Y-82238094D01*
X193954819Y-80714285D02*
X193954819Y-81285713D01*
X193954819Y-80999999D02*
X192954819Y-80999999D01*
X192954819Y-80999999D02*
X193097676Y-81095237D01*
X193097676Y-81095237D02*
X193192914Y-81190475D01*
X193192914Y-81190475D02*
X193240533Y-81285713D01*
X195738095Y-93454819D02*
X195738095Y-94264342D01*
X195738095Y-94264342D02*
X195785714Y-94359580D01*
X195785714Y-94359580D02*
X195833333Y-94407200D01*
X195833333Y-94407200D02*
X195928571Y-94454819D01*
X195928571Y-94454819D02*
X196119047Y-94454819D01*
X196119047Y-94454819D02*
X196214285Y-94407200D01*
X196214285Y-94407200D02*
X196261904Y-94359580D01*
X196261904Y-94359580D02*
X196309523Y-94264342D01*
X196309523Y-94264342D02*
X196309523Y-93454819D01*
X196690476Y-93454819D02*
X197309523Y-93454819D01*
X197309523Y-93454819D02*
X196976190Y-93835771D01*
X196976190Y-93835771D02*
X197119047Y-93835771D01*
X197119047Y-93835771D02*
X197214285Y-93883390D01*
X197214285Y-93883390D02*
X197261904Y-93931009D01*
X197261904Y-93931009D02*
X197309523Y-94026247D01*
X197309523Y-94026247D02*
X197309523Y-94264342D01*
X197309523Y-94264342D02*
X197261904Y-94359580D01*
X197261904Y-94359580D02*
X197214285Y-94407200D01*
X197214285Y-94407200D02*
X197119047Y-94454819D01*
X197119047Y-94454819D02*
X196833333Y-94454819D01*
X196833333Y-94454819D02*
X196738095Y-94407200D01*
X196738095Y-94407200D02*
X196690476Y-94359580D01*
X161857142Y-57359580D02*
X161809523Y-57407200D01*
X161809523Y-57407200D02*
X161666666Y-57454819D01*
X161666666Y-57454819D02*
X161571428Y-57454819D01*
X161571428Y-57454819D02*
X161428571Y-57407200D01*
X161428571Y-57407200D02*
X161333333Y-57311961D01*
X161333333Y-57311961D02*
X161285714Y-57216723D01*
X161285714Y-57216723D02*
X161238095Y-57026247D01*
X161238095Y-57026247D02*
X161238095Y-56883390D01*
X161238095Y-56883390D02*
X161285714Y-56692914D01*
X161285714Y-56692914D02*
X161333333Y-56597676D01*
X161333333Y-56597676D02*
X161428571Y-56502438D01*
X161428571Y-56502438D02*
X161571428Y-56454819D01*
X161571428Y-56454819D02*
X161666666Y-56454819D01*
X161666666Y-56454819D02*
X161809523Y-56502438D01*
X161809523Y-56502438D02*
X161857142Y-56550057D01*
X162809523Y-57454819D02*
X162238095Y-57454819D01*
X162523809Y-57454819D02*
X162523809Y-56454819D01*
X162523809Y-56454819D02*
X162428571Y-56597676D01*
X162428571Y-56597676D02*
X162333333Y-56692914D01*
X162333333Y-56692914D02*
X162238095Y-56740533D01*
X163142857Y-56454819D02*
X163809523Y-56454819D01*
X163809523Y-56454819D02*
X163380952Y-57454819D01*
X161600595Y-59079819D02*
X161600595Y-59889342D01*
X161600595Y-59889342D02*
X161648214Y-59984580D01*
X161648214Y-59984580D02*
X161695833Y-60032200D01*
X161695833Y-60032200D02*
X161791071Y-60079819D01*
X161791071Y-60079819D02*
X161981547Y-60079819D01*
X161981547Y-60079819D02*
X162076785Y-60032200D01*
X162076785Y-60032200D02*
X162124404Y-59984580D01*
X162124404Y-59984580D02*
X162172023Y-59889342D01*
X162172023Y-59889342D02*
X162172023Y-59079819D01*
X162600595Y-59175057D02*
X162648214Y-59127438D01*
X162648214Y-59127438D02*
X162743452Y-59079819D01*
X162743452Y-59079819D02*
X162981547Y-59079819D01*
X162981547Y-59079819D02*
X163076785Y-59127438D01*
X163076785Y-59127438D02*
X163124404Y-59175057D01*
X163124404Y-59175057D02*
X163172023Y-59270295D01*
X163172023Y-59270295D02*
X163172023Y-59365533D01*
X163172023Y-59365533D02*
X163124404Y-59508390D01*
X163124404Y-59508390D02*
X162552976Y-60079819D01*
X162552976Y-60079819D02*
X163172023Y-60079819D01*
X160359580Y-107126666D02*
X160407200Y-107174285D01*
X160407200Y-107174285D02*
X160454819Y-107317142D01*
X160454819Y-107317142D02*
X160454819Y-107412380D01*
X160454819Y-107412380D02*
X160407200Y-107555237D01*
X160407200Y-107555237D02*
X160311961Y-107650475D01*
X160311961Y-107650475D02*
X160216723Y-107698094D01*
X160216723Y-107698094D02*
X160026247Y-107745713D01*
X160026247Y-107745713D02*
X159883390Y-107745713D01*
X159883390Y-107745713D02*
X159692914Y-107698094D01*
X159692914Y-107698094D02*
X159597676Y-107650475D01*
X159597676Y-107650475D02*
X159502438Y-107555237D01*
X159502438Y-107555237D02*
X159454819Y-107412380D01*
X159454819Y-107412380D02*
X159454819Y-107317142D01*
X159454819Y-107317142D02*
X159502438Y-107174285D01*
X159502438Y-107174285D02*
X159550057Y-107126666D01*
X159550057Y-106745713D02*
X159502438Y-106698094D01*
X159502438Y-106698094D02*
X159454819Y-106602856D01*
X159454819Y-106602856D02*
X159454819Y-106364761D01*
X159454819Y-106364761D02*
X159502438Y-106269523D01*
X159502438Y-106269523D02*
X159550057Y-106221904D01*
X159550057Y-106221904D02*
X159645295Y-106174285D01*
X159645295Y-106174285D02*
X159740533Y-106174285D01*
X159740533Y-106174285D02*
X159883390Y-106221904D01*
X159883390Y-106221904D02*
X160454819Y-106793332D01*
X160454819Y-106793332D02*
X160454819Y-106174285D01*
X187359580Y-86666666D02*
X187407200Y-86714285D01*
X187407200Y-86714285D02*
X187454819Y-86857142D01*
X187454819Y-86857142D02*
X187454819Y-86952380D01*
X187454819Y-86952380D02*
X187407200Y-87095237D01*
X187407200Y-87095237D02*
X187311961Y-87190475D01*
X187311961Y-87190475D02*
X187216723Y-87238094D01*
X187216723Y-87238094D02*
X187026247Y-87285713D01*
X187026247Y-87285713D02*
X186883390Y-87285713D01*
X186883390Y-87285713D02*
X186692914Y-87238094D01*
X186692914Y-87238094D02*
X186597676Y-87190475D01*
X186597676Y-87190475D02*
X186502438Y-87095237D01*
X186502438Y-87095237D02*
X186454819Y-86952380D01*
X186454819Y-86952380D02*
X186454819Y-86857142D01*
X186454819Y-86857142D02*
X186502438Y-86714285D01*
X186502438Y-86714285D02*
X186550057Y-86666666D01*
X186788152Y-85809523D02*
X187454819Y-85809523D01*
X186407200Y-86047618D02*
X187121485Y-86285713D01*
X187121485Y-86285713D02*
X187121485Y-85666666D01*
X189333333Y-92954819D02*
X189000000Y-92478628D01*
X188761905Y-92954819D02*
X188761905Y-91954819D01*
X188761905Y-91954819D02*
X189142857Y-91954819D01*
X189142857Y-91954819D02*
X189238095Y-92002438D01*
X189238095Y-92002438D02*
X189285714Y-92050057D01*
X189285714Y-92050057D02*
X189333333Y-92145295D01*
X189333333Y-92145295D02*
X189333333Y-92288152D01*
X189333333Y-92288152D02*
X189285714Y-92383390D01*
X189285714Y-92383390D02*
X189238095Y-92431009D01*
X189238095Y-92431009D02*
X189142857Y-92478628D01*
X189142857Y-92478628D02*
X188761905Y-92478628D01*
X190285714Y-92954819D02*
X189714286Y-92954819D01*
X190000000Y-92954819D02*
X190000000Y-91954819D01*
X190000000Y-91954819D02*
X189904762Y-92097676D01*
X189904762Y-92097676D02*
X189809524Y-92192914D01*
X189809524Y-92192914D02*
X189714286Y-92240533D01*
X189843333Y-69944819D02*
X189510000Y-69468628D01*
X189271905Y-69944819D02*
X189271905Y-68944819D01*
X189271905Y-68944819D02*
X189652857Y-68944819D01*
X189652857Y-68944819D02*
X189748095Y-68992438D01*
X189748095Y-68992438D02*
X189795714Y-69040057D01*
X189795714Y-69040057D02*
X189843333Y-69135295D01*
X189843333Y-69135295D02*
X189843333Y-69278152D01*
X189843333Y-69278152D02*
X189795714Y-69373390D01*
X189795714Y-69373390D02*
X189748095Y-69421009D01*
X189748095Y-69421009D02*
X189652857Y-69468628D01*
X189652857Y-69468628D02*
X189271905Y-69468628D01*
X190319524Y-69944819D02*
X190510000Y-69944819D01*
X190510000Y-69944819D02*
X190605238Y-69897200D01*
X190605238Y-69897200D02*
X190652857Y-69849580D01*
X190652857Y-69849580D02*
X190748095Y-69706723D01*
X190748095Y-69706723D02*
X190795714Y-69516247D01*
X190795714Y-69516247D02*
X190795714Y-69135295D01*
X190795714Y-69135295D02*
X190748095Y-69040057D01*
X190748095Y-69040057D02*
X190700476Y-68992438D01*
X190700476Y-68992438D02*
X190605238Y-68944819D01*
X190605238Y-68944819D02*
X190414762Y-68944819D01*
X190414762Y-68944819D02*
X190319524Y-68992438D01*
X190319524Y-68992438D02*
X190271905Y-69040057D01*
X190271905Y-69040057D02*
X190224286Y-69135295D01*
X190224286Y-69135295D02*
X190224286Y-69373390D01*
X190224286Y-69373390D02*
X190271905Y-69468628D01*
X190271905Y-69468628D02*
X190319524Y-69516247D01*
X190319524Y-69516247D02*
X190414762Y-69563866D01*
X190414762Y-69563866D02*
X190605238Y-69563866D01*
X190605238Y-69563866D02*
X190700476Y-69516247D01*
X190700476Y-69516247D02*
X190748095Y-69468628D01*
X190748095Y-69468628D02*
X190795714Y-69373390D01*
X217954819Y-105738094D02*
X216954819Y-105738094D01*
X216954819Y-105738094D02*
X216954819Y-105499999D01*
X216954819Y-105499999D02*
X217002438Y-105357142D01*
X217002438Y-105357142D02*
X217097676Y-105261904D01*
X217097676Y-105261904D02*
X217192914Y-105214285D01*
X217192914Y-105214285D02*
X217383390Y-105166666D01*
X217383390Y-105166666D02*
X217526247Y-105166666D01*
X217526247Y-105166666D02*
X217716723Y-105214285D01*
X217716723Y-105214285D02*
X217811961Y-105261904D01*
X217811961Y-105261904D02*
X217907200Y-105357142D01*
X217907200Y-105357142D02*
X217954819Y-105499999D01*
X217954819Y-105499999D02*
X217954819Y-105738094D01*
X217050057Y-104785713D02*
X217002438Y-104738094D01*
X217002438Y-104738094D02*
X216954819Y-104642856D01*
X216954819Y-104642856D02*
X216954819Y-104404761D01*
X216954819Y-104404761D02*
X217002438Y-104309523D01*
X217002438Y-104309523D02*
X217050057Y-104261904D01*
X217050057Y-104261904D02*
X217145295Y-104214285D01*
X217145295Y-104214285D02*
X217240533Y-104214285D01*
X217240533Y-104214285D02*
X217383390Y-104261904D01*
X217383390Y-104261904D02*
X217954819Y-104833332D01*
X217954819Y-104833332D02*
X217954819Y-104214285D01*
X196859580Y-68642857D02*
X196907200Y-68690476D01*
X196907200Y-68690476D02*
X196954819Y-68833333D01*
X196954819Y-68833333D02*
X196954819Y-68928571D01*
X196954819Y-68928571D02*
X196907200Y-69071428D01*
X196907200Y-69071428D02*
X196811961Y-69166666D01*
X196811961Y-69166666D02*
X196716723Y-69214285D01*
X196716723Y-69214285D02*
X196526247Y-69261904D01*
X196526247Y-69261904D02*
X196383390Y-69261904D01*
X196383390Y-69261904D02*
X196192914Y-69214285D01*
X196192914Y-69214285D02*
X196097676Y-69166666D01*
X196097676Y-69166666D02*
X196002438Y-69071428D01*
X196002438Y-69071428D02*
X195954819Y-68928571D01*
X195954819Y-68928571D02*
X195954819Y-68833333D01*
X195954819Y-68833333D02*
X196002438Y-68690476D01*
X196002438Y-68690476D02*
X196050057Y-68642857D01*
X196954819Y-67690476D02*
X196954819Y-68261904D01*
X196954819Y-67976190D02*
X195954819Y-67976190D01*
X195954819Y-67976190D02*
X196097676Y-68071428D01*
X196097676Y-68071428D02*
X196192914Y-68166666D01*
X196192914Y-68166666D02*
X196240533Y-68261904D01*
X196050057Y-67309523D02*
X196002438Y-67261904D01*
X196002438Y-67261904D02*
X195954819Y-67166666D01*
X195954819Y-67166666D02*
X195954819Y-66928571D01*
X195954819Y-66928571D02*
X196002438Y-66833333D01*
X196002438Y-66833333D02*
X196050057Y-66785714D01*
X196050057Y-66785714D02*
X196145295Y-66738095D01*
X196145295Y-66738095D02*
X196240533Y-66738095D01*
X196240533Y-66738095D02*
X196383390Y-66785714D01*
X196383390Y-66785714D02*
X196954819Y-67357142D01*
X196954819Y-67357142D02*
X196954819Y-66738095D01*
X223217142Y-96519580D02*
X223169523Y-96567200D01*
X223169523Y-96567200D02*
X223026666Y-96614819D01*
X223026666Y-96614819D02*
X222931428Y-96614819D01*
X222931428Y-96614819D02*
X222788571Y-96567200D01*
X222788571Y-96567200D02*
X222693333Y-96471961D01*
X222693333Y-96471961D02*
X222645714Y-96376723D01*
X222645714Y-96376723D02*
X222598095Y-96186247D01*
X222598095Y-96186247D02*
X222598095Y-96043390D01*
X222598095Y-96043390D02*
X222645714Y-95852914D01*
X222645714Y-95852914D02*
X222693333Y-95757676D01*
X222693333Y-95757676D02*
X222788571Y-95662438D01*
X222788571Y-95662438D02*
X222931428Y-95614819D01*
X222931428Y-95614819D02*
X223026666Y-95614819D01*
X223026666Y-95614819D02*
X223169523Y-95662438D01*
X223169523Y-95662438D02*
X223217142Y-95710057D01*
X224169523Y-96614819D02*
X223598095Y-96614819D01*
X223883809Y-96614819D02*
X223883809Y-95614819D01*
X223883809Y-95614819D02*
X223788571Y-95757676D01*
X223788571Y-95757676D02*
X223693333Y-95852914D01*
X223693333Y-95852914D02*
X223598095Y-95900533D01*
X225074285Y-95614819D02*
X224598095Y-95614819D01*
X224598095Y-95614819D02*
X224550476Y-96091009D01*
X224550476Y-96091009D02*
X224598095Y-96043390D01*
X224598095Y-96043390D02*
X224693333Y-95995771D01*
X224693333Y-95995771D02*
X224931428Y-95995771D01*
X224931428Y-95995771D02*
X225026666Y-96043390D01*
X225026666Y-96043390D02*
X225074285Y-96091009D01*
X225074285Y-96091009D02*
X225121904Y-96186247D01*
X225121904Y-96186247D02*
X225121904Y-96424342D01*
X225121904Y-96424342D02*
X225074285Y-96519580D01*
X225074285Y-96519580D02*
X225026666Y-96567200D01*
X225026666Y-96567200D02*
X224931428Y-96614819D01*
X224931428Y-96614819D02*
X224693333Y-96614819D01*
X224693333Y-96614819D02*
X224598095Y-96567200D01*
X224598095Y-96567200D02*
X224550476Y-96519580D01*
X203359580Y-89166666D02*
X203407200Y-89214285D01*
X203407200Y-89214285D02*
X203454819Y-89357142D01*
X203454819Y-89357142D02*
X203454819Y-89452380D01*
X203454819Y-89452380D02*
X203407200Y-89595237D01*
X203407200Y-89595237D02*
X203311961Y-89690475D01*
X203311961Y-89690475D02*
X203216723Y-89738094D01*
X203216723Y-89738094D02*
X203026247Y-89785713D01*
X203026247Y-89785713D02*
X202883390Y-89785713D01*
X202883390Y-89785713D02*
X202692914Y-89738094D01*
X202692914Y-89738094D02*
X202597676Y-89690475D01*
X202597676Y-89690475D02*
X202502438Y-89595237D01*
X202502438Y-89595237D02*
X202454819Y-89452380D01*
X202454819Y-89452380D02*
X202454819Y-89357142D01*
X202454819Y-89357142D02*
X202502438Y-89214285D01*
X202502438Y-89214285D02*
X202550057Y-89166666D01*
X202454819Y-88833332D02*
X202454819Y-88166666D01*
X202454819Y-88166666D02*
X203454819Y-88595237D01*
X151261905Y-55454819D02*
X151261905Y-54454819D01*
X151261905Y-54454819D02*
X151642857Y-54454819D01*
X151642857Y-54454819D02*
X151738095Y-54502438D01*
X151738095Y-54502438D02*
X151785714Y-54550057D01*
X151785714Y-54550057D02*
X151833333Y-54645295D01*
X151833333Y-54645295D02*
X151833333Y-54788152D01*
X151833333Y-54788152D02*
X151785714Y-54883390D01*
X151785714Y-54883390D02*
X151738095Y-54931009D01*
X151738095Y-54931009D02*
X151642857Y-54978628D01*
X151642857Y-54978628D02*
X151261905Y-54978628D01*
X152785714Y-55454819D02*
X152214286Y-55454819D01*
X152500000Y-55454819D02*
X152500000Y-54454819D01*
X152500000Y-54454819D02*
X152404762Y-54597676D01*
X152404762Y-54597676D02*
X152309524Y-54692914D01*
X152309524Y-54692914D02*
X152214286Y-54740533D01*
X171333333Y-96359580D02*
X171285714Y-96407200D01*
X171285714Y-96407200D02*
X171142857Y-96454819D01*
X171142857Y-96454819D02*
X171047619Y-96454819D01*
X171047619Y-96454819D02*
X170904762Y-96407200D01*
X170904762Y-96407200D02*
X170809524Y-96311961D01*
X170809524Y-96311961D02*
X170761905Y-96216723D01*
X170761905Y-96216723D02*
X170714286Y-96026247D01*
X170714286Y-96026247D02*
X170714286Y-95883390D01*
X170714286Y-95883390D02*
X170761905Y-95692914D01*
X170761905Y-95692914D02*
X170809524Y-95597676D01*
X170809524Y-95597676D02*
X170904762Y-95502438D01*
X170904762Y-95502438D02*
X171047619Y-95454819D01*
X171047619Y-95454819D02*
X171142857Y-95454819D01*
X171142857Y-95454819D02*
X171285714Y-95502438D01*
X171285714Y-95502438D02*
X171333333Y-95550057D01*
X172285714Y-96454819D02*
X171714286Y-96454819D01*
X172000000Y-96454819D02*
X172000000Y-95454819D01*
X172000000Y-95454819D02*
X171904762Y-95597676D01*
X171904762Y-95597676D02*
X171809524Y-95692914D01*
X171809524Y-95692914D02*
X171714286Y-95740533D01*
X190407142Y-71634580D02*
X190359523Y-71682200D01*
X190359523Y-71682200D02*
X190216666Y-71729819D01*
X190216666Y-71729819D02*
X190121428Y-71729819D01*
X190121428Y-71729819D02*
X189978571Y-71682200D01*
X189978571Y-71682200D02*
X189883333Y-71586961D01*
X189883333Y-71586961D02*
X189835714Y-71491723D01*
X189835714Y-71491723D02*
X189788095Y-71301247D01*
X189788095Y-71301247D02*
X189788095Y-71158390D01*
X189788095Y-71158390D02*
X189835714Y-70967914D01*
X189835714Y-70967914D02*
X189883333Y-70872676D01*
X189883333Y-70872676D02*
X189978571Y-70777438D01*
X189978571Y-70777438D02*
X190121428Y-70729819D01*
X190121428Y-70729819D02*
X190216666Y-70729819D01*
X190216666Y-70729819D02*
X190359523Y-70777438D01*
X190359523Y-70777438D02*
X190407142Y-70825057D01*
X191359523Y-71729819D02*
X190788095Y-71729819D01*
X191073809Y-71729819D02*
X191073809Y-70729819D01*
X191073809Y-70729819D02*
X190978571Y-70872676D01*
X190978571Y-70872676D02*
X190883333Y-70967914D01*
X190883333Y-70967914D02*
X190788095Y-71015533D01*
X192311904Y-71729819D02*
X191740476Y-71729819D01*
X192026190Y-71729819D02*
X192026190Y-70729819D01*
X192026190Y-70729819D02*
X191930952Y-70872676D01*
X191930952Y-70872676D02*
X191835714Y-70967914D01*
X191835714Y-70967914D02*
X191740476Y-71015533D01*
X159857142Y-54859580D02*
X159809523Y-54907200D01*
X159809523Y-54907200D02*
X159666666Y-54954819D01*
X159666666Y-54954819D02*
X159571428Y-54954819D01*
X159571428Y-54954819D02*
X159428571Y-54907200D01*
X159428571Y-54907200D02*
X159333333Y-54811961D01*
X159333333Y-54811961D02*
X159285714Y-54716723D01*
X159285714Y-54716723D02*
X159238095Y-54526247D01*
X159238095Y-54526247D02*
X159238095Y-54383390D01*
X159238095Y-54383390D02*
X159285714Y-54192914D01*
X159285714Y-54192914D02*
X159333333Y-54097676D01*
X159333333Y-54097676D02*
X159428571Y-54002438D01*
X159428571Y-54002438D02*
X159571428Y-53954819D01*
X159571428Y-53954819D02*
X159666666Y-53954819D01*
X159666666Y-53954819D02*
X159809523Y-54002438D01*
X159809523Y-54002438D02*
X159857142Y-54050057D01*
X160809523Y-54954819D02*
X160238095Y-54954819D01*
X160523809Y-54954819D02*
X160523809Y-53954819D01*
X160523809Y-53954819D02*
X160428571Y-54097676D01*
X160428571Y-54097676D02*
X160333333Y-54192914D01*
X160333333Y-54192914D02*
X160238095Y-54240533D01*
X161666666Y-53954819D02*
X161476190Y-53954819D01*
X161476190Y-53954819D02*
X161380952Y-54002438D01*
X161380952Y-54002438D02*
X161333333Y-54050057D01*
X161333333Y-54050057D02*
X161238095Y-54192914D01*
X161238095Y-54192914D02*
X161190476Y-54383390D01*
X161190476Y-54383390D02*
X161190476Y-54764342D01*
X161190476Y-54764342D02*
X161238095Y-54859580D01*
X161238095Y-54859580D02*
X161285714Y-54907200D01*
X161285714Y-54907200D02*
X161380952Y-54954819D01*
X161380952Y-54954819D02*
X161571428Y-54954819D01*
X161571428Y-54954819D02*
X161666666Y-54907200D01*
X161666666Y-54907200D02*
X161714285Y-54859580D01*
X161714285Y-54859580D02*
X161761904Y-54764342D01*
X161761904Y-54764342D02*
X161761904Y-54526247D01*
X161761904Y-54526247D02*
X161714285Y-54431009D01*
X161714285Y-54431009D02*
X161666666Y-54383390D01*
X161666666Y-54383390D02*
X161571428Y-54335771D01*
X161571428Y-54335771D02*
X161380952Y-54335771D01*
X161380952Y-54335771D02*
X161285714Y-54383390D01*
X161285714Y-54383390D02*
X161238095Y-54431009D01*
X161238095Y-54431009D02*
X161190476Y-54526247D01*
X191859580Y-86666666D02*
X191907200Y-86714285D01*
X191907200Y-86714285D02*
X191954819Y-86857142D01*
X191954819Y-86857142D02*
X191954819Y-86952380D01*
X191954819Y-86952380D02*
X191907200Y-87095237D01*
X191907200Y-87095237D02*
X191811961Y-87190475D01*
X191811961Y-87190475D02*
X191716723Y-87238094D01*
X191716723Y-87238094D02*
X191526247Y-87285713D01*
X191526247Y-87285713D02*
X191383390Y-87285713D01*
X191383390Y-87285713D02*
X191192914Y-87238094D01*
X191192914Y-87238094D02*
X191097676Y-87190475D01*
X191097676Y-87190475D02*
X191002438Y-87095237D01*
X191002438Y-87095237D02*
X190954819Y-86952380D01*
X190954819Y-86952380D02*
X190954819Y-86857142D01*
X190954819Y-86857142D02*
X191002438Y-86714285D01*
X191002438Y-86714285D02*
X191050057Y-86666666D01*
X191383390Y-86095237D02*
X191335771Y-86190475D01*
X191335771Y-86190475D02*
X191288152Y-86238094D01*
X191288152Y-86238094D02*
X191192914Y-86285713D01*
X191192914Y-86285713D02*
X191145295Y-86285713D01*
X191145295Y-86285713D02*
X191050057Y-86238094D01*
X191050057Y-86238094D02*
X191002438Y-86190475D01*
X191002438Y-86190475D02*
X190954819Y-86095237D01*
X190954819Y-86095237D02*
X190954819Y-85904761D01*
X190954819Y-85904761D02*
X191002438Y-85809523D01*
X191002438Y-85809523D02*
X191050057Y-85761904D01*
X191050057Y-85761904D02*
X191145295Y-85714285D01*
X191145295Y-85714285D02*
X191192914Y-85714285D01*
X191192914Y-85714285D02*
X191288152Y-85761904D01*
X191288152Y-85761904D02*
X191335771Y-85809523D01*
X191335771Y-85809523D02*
X191383390Y-85904761D01*
X191383390Y-85904761D02*
X191383390Y-86095237D01*
X191383390Y-86095237D02*
X191431009Y-86190475D01*
X191431009Y-86190475D02*
X191478628Y-86238094D01*
X191478628Y-86238094D02*
X191573866Y-86285713D01*
X191573866Y-86285713D02*
X191764342Y-86285713D01*
X191764342Y-86285713D02*
X191859580Y-86238094D01*
X191859580Y-86238094D02*
X191907200Y-86190475D01*
X191907200Y-86190475D02*
X191954819Y-86095237D01*
X191954819Y-86095237D02*
X191954819Y-85904761D01*
X191954819Y-85904761D02*
X191907200Y-85809523D01*
X191907200Y-85809523D02*
X191859580Y-85761904D01*
X191859580Y-85761904D02*
X191764342Y-85714285D01*
X191764342Y-85714285D02*
X191573866Y-85714285D01*
X191573866Y-85714285D02*
X191478628Y-85761904D01*
X191478628Y-85761904D02*
X191431009Y-85809523D01*
X191431009Y-85809523D02*
X191383390Y-85904761D01*
X206859580Y-73092857D02*
X206907200Y-73140476D01*
X206907200Y-73140476D02*
X206954819Y-73283333D01*
X206954819Y-73283333D02*
X206954819Y-73378571D01*
X206954819Y-73378571D02*
X206907200Y-73521428D01*
X206907200Y-73521428D02*
X206811961Y-73616666D01*
X206811961Y-73616666D02*
X206716723Y-73664285D01*
X206716723Y-73664285D02*
X206526247Y-73711904D01*
X206526247Y-73711904D02*
X206383390Y-73711904D01*
X206383390Y-73711904D02*
X206192914Y-73664285D01*
X206192914Y-73664285D02*
X206097676Y-73616666D01*
X206097676Y-73616666D02*
X206002438Y-73521428D01*
X206002438Y-73521428D02*
X205954819Y-73378571D01*
X205954819Y-73378571D02*
X205954819Y-73283333D01*
X205954819Y-73283333D02*
X206002438Y-73140476D01*
X206002438Y-73140476D02*
X206050057Y-73092857D01*
X206954819Y-72140476D02*
X206954819Y-72711904D01*
X206954819Y-72426190D02*
X205954819Y-72426190D01*
X205954819Y-72426190D02*
X206097676Y-72521428D01*
X206097676Y-72521428D02*
X206192914Y-72616666D01*
X206192914Y-72616666D02*
X206240533Y-72711904D01*
X205954819Y-71521428D02*
X205954819Y-71426190D01*
X205954819Y-71426190D02*
X206002438Y-71330952D01*
X206002438Y-71330952D02*
X206050057Y-71283333D01*
X206050057Y-71283333D02*
X206145295Y-71235714D01*
X206145295Y-71235714D02*
X206335771Y-71188095D01*
X206335771Y-71188095D02*
X206573866Y-71188095D01*
X206573866Y-71188095D02*
X206764342Y-71235714D01*
X206764342Y-71235714D02*
X206859580Y-71283333D01*
X206859580Y-71283333D02*
X206907200Y-71330952D01*
X206907200Y-71330952D02*
X206954819Y-71426190D01*
X206954819Y-71426190D02*
X206954819Y-71521428D01*
X206954819Y-71521428D02*
X206907200Y-71616666D01*
X206907200Y-71616666D02*
X206859580Y-71664285D01*
X206859580Y-71664285D02*
X206764342Y-71711904D01*
X206764342Y-71711904D02*
X206573866Y-71759523D01*
X206573866Y-71759523D02*
X206335771Y-71759523D01*
X206335771Y-71759523D02*
X206145295Y-71711904D01*
X206145295Y-71711904D02*
X206050057Y-71664285D01*
X206050057Y-71664285D02*
X206002438Y-71616666D01*
X206002438Y-71616666D02*
X205954819Y-71521428D01*
X161454819Y-94833333D02*
X162169104Y-94833333D01*
X162169104Y-94833333D02*
X162311961Y-94880952D01*
X162311961Y-94880952D02*
X162407200Y-94976190D01*
X162407200Y-94976190D02*
X162454819Y-95119047D01*
X162454819Y-95119047D02*
X162454819Y-95214285D01*
X162454819Y-93833333D02*
X162454819Y-94404761D01*
X162454819Y-94119047D02*
X161454819Y-94119047D01*
X161454819Y-94119047D02*
X161597676Y-94214285D01*
X161597676Y-94214285D02*
X161692914Y-94309523D01*
X161692914Y-94309523D02*
X161740533Y-94404761D01*
X155357142Y-53954819D02*
X155023809Y-53478628D01*
X154785714Y-53954819D02*
X154785714Y-52954819D01*
X154785714Y-52954819D02*
X155166666Y-52954819D01*
X155166666Y-52954819D02*
X155261904Y-53002438D01*
X155261904Y-53002438D02*
X155309523Y-53050057D01*
X155309523Y-53050057D02*
X155357142Y-53145295D01*
X155357142Y-53145295D02*
X155357142Y-53288152D01*
X155357142Y-53288152D02*
X155309523Y-53383390D01*
X155309523Y-53383390D02*
X155261904Y-53431009D01*
X155261904Y-53431009D02*
X155166666Y-53478628D01*
X155166666Y-53478628D02*
X154785714Y-53478628D01*
X156309523Y-53954819D02*
X155738095Y-53954819D01*
X156023809Y-53954819D02*
X156023809Y-52954819D01*
X156023809Y-52954819D02*
X155928571Y-53097676D01*
X155928571Y-53097676D02*
X155833333Y-53192914D01*
X155833333Y-53192914D02*
X155738095Y-53240533D01*
X156642857Y-52954819D02*
X157261904Y-52954819D01*
X157261904Y-52954819D02*
X156928571Y-53335771D01*
X156928571Y-53335771D02*
X157071428Y-53335771D01*
X157071428Y-53335771D02*
X157166666Y-53383390D01*
X157166666Y-53383390D02*
X157214285Y-53431009D01*
X157214285Y-53431009D02*
X157261904Y-53526247D01*
X157261904Y-53526247D02*
X157261904Y-53764342D01*
X157261904Y-53764342D02*
X157214285Y-53859580D01*
X157214285Y-53859580D02*
X157166666Y-53907200D01*
X157166666Y-53907200D02*
X157071428Y-53954819D01*
X157071428Y-53954819D02*
X156785714Y-53954819D01*
X156785714Y-53954819D02*
X156690476Y-53907200D01*
X156690476Y-53907200D02*
X156642857Y-53859580D01*
X203454819Y-92166666D02*
X202978628Y-92499999D01*
X203454819Y-92738094D02*
X202454819Y-92738094D01*
X202454819Y-92738094D02*
X202454819Y-92357142D01*
X202454819Y-92357142D02*
X202502438Y-92261904D01*
X202502438Y-92261904D02*
X202550057Y-92214285D01*
X202550057Y-92214285D02*
X202645295Y-92166666D01*
X202645295Y-92166666D02*
X202788152Y-92166666D01*
X202788152Y-92166666D02*
X202883390Y-92214285D01*
X202883390Y-92214285D02*
X202931009Y-92261904D01*
X202931009Y-92261904D02*
X202978628Y-92357142D01*
X202978628Y-92357142D02*
X202978628Y-92738094D01*
X202550057Y-91785713D02*
X202502438Y-91738094D01*
X202502438Y-91738094D02*
X202454819Y-91642856D01*
X202454819Y-91642856D02*
X202454819Y-91404761D01*
X202454819Y-91404761D02*
X202502438Y-91309523D01*
X202502438Y-91309523D02*
X202550057Y-91261904D01*
X202550057Y-91261904D02*
X202645295Y-91214285D01*
X202645295Y-91214285D02*
X202740533Y-91214285D01*
X202740533Y-91214285D02*
X202883390Y-91261904D01*
X202883390Y-91261904D02*
X203454819Y-91833332D01*
X203454819Y-91833332D02*
X203454819Y-91214285D01*
X167238095Y-77454819D02*
X167238095Y-78264342D01*
X167238095Y-78264342D02*
X167285714Y-78359580D01*
X167285714Y-78359580D02*
X167333333Y-78407200D01*
X167333333Y-78407200D02*
X167428571Y-78454819D01*
X167428571Y-78454819D02*
X167619047Y-78454819D01*
X167619047Y-78454819D02*
X167714285Y-78407200D01*
X167714285Y-78407200D02*
X167761904Y-78359580D01*
X167761904Y-78359580D02*
X167809523Y-78264342D01*
X167809523Y-78264342D02*
X167809523Y-77454819D01*
X168714285Y-77454819D02*
X168523809Y-77454819D01*
X168523809Y-77454819D02*
X168428571Y-77502438D01*
X168428571Y-77502438D02*
X168380952Y-77550057D01*
X168380952Y-77550057D02*
X168285714Y-77692914D01*
X168285714Y-77692914D02*
X168238095Y-77883390D01*
X168238095Y-77883390D02*
X168238095Y-78264342D01*
X168238095Y-78264342D02*
X168285714Y-78359580D01*
X168285714Y-78359580D02*
X168333333Y-78407200D01*
X168333333Y-78407200D02*
X168428571Y-78454819D01*
X168428571Y-78454819D02*
X168619047Y-78454819D01*
X168619047Y-78454819D02*
X168714285Y-78407200D01*
X168714285Y-78407200D02*
X168761904Y-78359580D01*
X168761904Y-78359580D02*
X168809523Y-78264342D01*
X168809523Y-78264342D02*
X168809523Y-78026247D01*
X168809523Y-78026247D02*
X168761904Y-77931009D01*
X168761904Y-77931009D02*
X168714285Y-77883390D01*
X168714285Y-77883390D02*
X168619047Y-77835771D01*
X168619047Y-77835771D02*
X168428571Y-77835771D01*
X168428571Y-77835771D02*
X168333333Y-77883390D01*
X168333333Y-77883390D02*
X168285714Y-77931009D01*
X168285714Y-77931009D02*
X168238095Y-78026247D01*
D14*
%TO.C,R8*%
X178620000Y-73163641D02*
X178620000Y-72856359D01*
X179380000Y-73163641D02*
X179380000Y-72856359D01*
%TO.C,R7*%
X220620000Y-62653641D02*
X220620000Y-62346359D01*
X221380000Y-62653641D02*
X221380000Y-62346359D01*
%TO.C,R4*%
X204120000Y-94163641D02*
X204120000Y-93856359D01*
X204880000Y-94163641D02*
X204880000Y-93856359D01*
%TO.C,R3*%
X204120000Y-90978641D02*
X204120000Y-90671359D01*
X204880000Y-90978641D02*
X204880000Y-90671359D01*
%TO.C,J6*%
X194080000Y-53120000D02*
X194080000Y-55880000D01*
X199270000Y-53120000D02*
X194080000Y-53120000D01*
X199270000Y-53120000D02*
X199270000Y-55880000D01*
X199270000Y-55880000D02*
X194080000Y-55880000D01*
X200540000Y-53120000D02*
X201920000Y-53120000D01*
X201920000Y-53120000D02*
X201920000Y-54500000D01*
%TO.C,R12*%
X215153641Y-66120000D02*
X214846359Y-66120000D01*
X215153641Y-66880000D02*
X214846359Y-66880000D01*
%TO.C,U7*%
X214845000Y-90965000D02*
X214940000Y-90965000D01*
X214845000Y-95085000D02*
X214845000Y-90965000D01*
X214940000Y-95085000D02*
X214845000Y-95085000D01*
X219870000Y-90965000D02*
X219965000Y-90965000D01*
X219965000Y-90965000D02*
X219965000Y-95085000D01*
X219965000Y-95085000D02*
X219870000Y-95085000D01*
X220205000Y-90665000D02*
X219875000Y-90425000D01*
X220205000Y-90185000D01*
X220205000Y-90665000D01*
G36*
X220205000Y-90665000D02*
G01*
X219875000Y-90425000D01*
X220205000Y-90185000D01*
X220205000Y-90665000D01*
G37*
%TO.C,TP3*%
X193300000Y-75800000D02*
X195700000Y-75800000D01*
X193300000Y-78200000D02*
X193300000Y-75800000D01*
X195700000Y-75800000D02*
X195700000Y-78200000D01*
X195700000Y-78200000D02*
X193300000Y-78200000D01*
%TO.C,J2*%
X174650000Y-103250000D02*
X174650000Y-104500000D01*
X174950000Y-105800000D02*
X175700000Y-105800000D01*
X175700000Y-105800000D02*
X175700000Y-108750000D01*
X175700000Y-108750000D02*
X190000000Y-108750000D01*
X175900000Y-103250000D02*
X174650000Y-103250000D01*
X204300000Y-105800000D02*
X204300000Y-108750000D01*
X204300000Y-108750000D02*
X190000000Y-108750000D01*
X205050000Y-105800000D02*
X204300000Y-105800000D01*
X174940000Y-103540000D02*
X205060000Y-103540000D01*
X205060000Y-109510000D01*
X174940000Y-109510000D01*
X174940000Y-103540000D01*
X174950000Y-103550000D02*
X176750000Y-103550000D01*
X176750000Y-104300000D01*
X174950000Y-104300000D01*
X174950000Y-103550000D01*
X178250000Y-103550000D02*
X201750000Y-103550000D01*
X201750000Y-104300000D01*
X178250000Y-104300000D01*
X178250000Y-103550000D01*
X203250000Y-103550000D02*
X205050000Y-103550000D01*
X205050000Y-104300000D01*
X203250000Y-104300000D01*
X203250000Y-103550000D01*
%TO.C,L1*%
X200890000Y-76240000D02*
X203690000Y-76240000D01*
X200890000Y-87260000D02*
X200890000Y-76240000D01*
X203690000Y-87260000D02*
X200890000Y-87260000D01*
X208310000Y-76240000D02*
X211110000Y-76240000D01*
X211110000Y-76240000D02*
X211110000Y-87260000D01*
X211110000Y-87260000D02*
X208310000Y-87260000D01*
%TO.C,C3*%
X183765000Y-89711252D02*
X183765000Y-89188748D01*
X185235000Y-89711252D02*
X185235000Y-89188748D01*
D10*
%TO.C,D3*%
X213655000Y-65000000D02*
G75*
G02*
X213555000Y-65000000I-50000J0D01*
G01*
X213555000Y-65000000D02*
G75*
G02*
X213655000Y-65000000I50000J0D01*
G01*
D14*
%TO.C,R10*%
X208846359Y-57620000D02*
X209153641Y-57620000D01*
X208846359Y-58380000D02*
X209153641Y-58380000D01*
%TO.C,J3*%
X223250000Y-83600000D02*
X223250000Y-84850000D01*
X223250000Y-84850000D02*
X224500000Y-84850000D01*
X225800000Y-54450000D02*
X225800000Y-55200000D01*
X225800000Y-55200000D02*
X228750000Y-55200000D01*
X225800000Y-83800000D02*
X228750000Y-83800000D01*
X225800000Y-84550000D02*
X225800000Y-83800000D01*
X228750000Y-55200000D02*
X228750000Y-69500000D01*
X228750000Y-83800000D02*
X228750000Y-69500000D01*
X223540000Y-84560000D02*
X229510000Y-84560000D01*
X229510000Y-54440000D01*
X223540000Y-54440000D01*
X223540000Y-84560000D01*
X223550000Y-56250000D02*
X224300000Y-56250000D01*
X224300000Y-54450000D01*
X223550000Y-54450000D01*
X223550000Y-56250000D01*
X223550000Y-81250000D02*
X224300000Y-81250000D01*
X224300000Y-57750000D01*
X223550000Y-57750000D01*
X223550000Y-81250000D01*
X223550000Y-84550000D02*
X224300000Y-84550000D01*
X224300000Y-82750000D01*
X223550000Y-82750000D01*
X223550000Y-84550000D01*
%TO.C,R6*%
X217251359Y-97145000D02*
X217558641Y-97145000D01*
X217251359Y-97905000D02*
X217558641Y-97905000D01*
%TO.C,SW2*%
X210430000Y-53530000D02*
X210730000Y-53530000D01*
X210430000Y-57670000D02*
X210430000Y-53530000D01*
X210730000Y-57670000D02*
X210430000Y-57670000D01*
X213270000Y-53530000D02*
X213570000Y-53530000D01*
X213570000Y-53530000D02*
X213570000Y-57670000D01*
X213570000Y-57670000D02*
X213270000Y-57670000D01*
%TO.C,C9*%
X200765000Y-72711252D02*
X200765000Y-72188748D01*
X202235000Y-72711252D02*
X202235000Y-72188748D01*
%TO.C,C6*%
X200590000Y-98186252D02*
X200590000Y-96763748D01*
X202410000Y-98186252D02*
X202410000Y-96763748D01*
%TO.C,U4*%
X193440000Y-71502500D02*
X193490000Y-71502500D01*
X193440000Y-73322500D02*
X193440000Y-71502500D01*
X193490000Y-73322500D02*
X193440000Y-73322500D01*
X194610000Y-71502500D02*
X195390000Y-71502500D01*
X196510000Y-71502500D02*
X196560000Y-71502500D01*
X196560000Y-71502500D02*
X196560000Y-73322500D01*
X196560000Y-73322500D02*
X196510000Y-73322500D01*
X193490000Y-73862500D02*
X193160000Y-74102500D01*
X193160000Y-73622500D01*
X193490000Y-73862500D01*
G36*
X193490000Y-73862500D02*
G01*
X193160000Y-74102500D01*
X193160000Y-73622500D01*
X193490000Y-73862500D01*
G37*
%TO.C,C18*%
X165359420Y-51990000D02*
X165640580Y-51990000D01*
X165359420Y-53010000D02*
X165640580Y-53010000D01*
%TO.C,U1*%
X167800000Y-69950000D02*
X167800000Y-70950000D01*
X167800000Y-70950000D02*
X169300000Y-70950000D01*
X186200000Y-70950000D02*
X184700000Y-70950000D01*
X186200000Y-70950000D02*
X186200000Y-69950000D01*
X167800000Y-51975000D02*
X167300000Y-51975000D01*
X167800000Y-51475000D01*
X167800000Y-51975000D01*
G36*
X167800000Y-51975000D02*
G01*
X167300000Y-51975000D01*
X167800000Y-51475000D01*
X167800000Y-51975000D01*
G37*
%TO.C,TP5*%
X164300000Y-71300000D02*
X166700000Y-71300000D01*
X164300000Y-73700000D02*
X164300000Y-71300000D01*
X166700000Y-71300000D02*
X166700000Y-73700000D01*
X166700000Y-73700000D02*
X164300000Y-73700000D01*
%TO.C,U5*%
X167227500Y-82390000D02*
X169047500Y-82390000D01*
X167227500Y-82440000D02*
X167227500Y-82390000D01*
X167227500Y-85510000D02*
X167227500Y-85460000D01*
X169047500Y-82390000D02*
X169047500Y-82440000D01*
X169047500Y-85460000D02*
X169047500Y-85510000D01*
X169047500Y-85510000D02*
X167227500Y-85510000D01*
X169827500Y-85790000D02*
X169347500Y-85790000D01*
X169587500Y-85460000D01*
X169827500Y-85790000D01*
G36*
X169827500Y-85790000D02*
G01*
X169347500Y-85790000D01*
X169587500Y-85460000D01*
X169827500Y-85790000D01*
G37*
%TO.C,C5*%
X188765000Y-89711252D02*
X188765000Y-89188748D01*
X190235000Y-89711252D02*
X190235000Y-89188748D01*
%TO.C,SW1*%
X216430000Y-53530000D02*
X216730000Y-53530000D01*
X216430000Y-57670000D02*
X216430000Y-53530000D01*
X216730000Y-57670000D02*
X216430000Y-57670000D01*
X219270000Y-53530000D02*
X219570000Y-53530000D01*
X219570000Y-53530000D02*
X219570000Y-57670000D01*
X219570000Y-57670000D02*
X219270000Y-57670000D01*
%TO.C,C13*%
X165140000Y-86872164D02*
X165140000Y-87087836D01*
X165860000Y-86872164D02*
X165860000Y-87087836D01*
%TO.C,C14*%
X162640000Y-79392164D02*
X162640000Y-79607836D01*
X163360000Y-79392164D02*
X163360000Y-79607836D01*
%TO.C,D1*%
X194850000Y-86310000D02*
X194850000Y-80500000D01*
X194850000Y-86310000D02*
X199150000Y-86310000D01*
X199150000Y-86310000D02*
X199150000Y-80500000D01*
%TO.C,U3*%
X194590000Y-87740000D02*
X194915000Y-87740000D01*
X194590000Y-87835000D02*
X194590000Y-87740000D01*
X194590000Y-92860000D02*
X194590000Y-92765000D01*
X194915000Y-92860000D02*
X194590000Y-92860000D01*
X198385000Y-87740000D02*
X198710000Y-87740000D01*
X198710000Y-87740000D02*
X198710000Y-87835000D01*
X198710000Y-92765000D02*
X198710000Y-92860000D01*
X198710000Y-92860000D02*
X198385000Y-92860000D01*
X194050000Y-87830000D02*
X193810000Y-87500000D01*
X194290000Y-87500000D01*
X194050000Y-87830000D01*
G36*
X194050000Y-87830000D02*
G01*
X193810000Y-87500000D01*
X194290000Y-87500000D01*
X194050000Y-87830000D01*
G37*
%TO.C,TP2*%
X176300000Y-96800000D02*
X178700000Y-96800000D01*
X176300000Y-99200000D02*
X176300000Y-96800000D01*
X178700000Y-96800000D02*
X178700000Y-99200000D01*
X178700000Y-99200000D02*
X176300000Y-99200000D01*
%TO.C,C17*%
X165359420Y-56490000D02*
X165640580Y-56490000D01*
X165359420Y-57510000D02*
X165640580Y-57510000D01*
%TO.C,U2*%
X161452500Y-60615000D02*
X163272500Y-60615000D01*
X161452500Y-60665000D02*
X161452500Y-60615000D01*
X161452500Y-63735000D02*
X161452500Y-63685000D01*
X163272500Y-60615000D02*
X163272500Y-60665000D01*
X163272500Y-63685000D02*
X163272500Y-63735000D01*
X163272500Y-63735000D02*
X161452500Y-63735000D01*
X164052500Y-64015000D02*
X163572500Y-64015000D01*
X163812500Y-63685000D01*
X164052500Y-64015000D01*
G36*
X164052500Y-64015000D02*
G01*
X163572500Y-64015000D01*
X163812500Y-63685000D01*
X164052500Y-64015000D01*
G37*
D10*
%TO.C,D4*%
X213630000Y-66500000D02*
G75*
G02*
X213530000Y-66500000I-50000J0D01*
G01*
X213530000Y-66500000D02*
G75*
G02*
X213630000Y-66500000I50000J0D01*
G01*
D14*
%TO.C,C2*%
X159640000Y-104872164D02*
X159640000Y-105087836D01*
X160360000Y-104872164D02*
X160360000Y-105087836D01*
%TO.C,C4*%
X186265000Y-89711252D02*
X186265000Y-89188748D01*
X187735000Y-89711252D02*
X187735000Y-89188748D01*
%TO.C,R1*%
X191346359Y-92120000D02*
X191653641Y-92120000D01*
X191346359Y-92880000D02*
X191653641Y-92880000D01*
%TO.C,TP1*%
X175800000Y-87300000D02*
X178200000Y-87300000D01*
X175800000Y-89700000D02*
X175800000Y-87300000D01*
X178200000Y-87300000D02*
X178200000Y-89700000D01*
X178200000Y-89700000D02*
X175800000Y-89700000D01*
%TO.C,R9*%
X188153641Y-69120000D02*
X187846359Y-69120000D01*
X188153641Y-69880000D02*
X187846359Y-69880000D01*
%TO.C,D2*%
X215940000Y-101240000D02*
X215990000Y-101240000D01*
X215940000Y-102760000D02*
X215940000Y-101240000D01*
X216940000Y-102760000D02*
X215940000Y-102760000D01*
X217110000Y-101240000D02*
X217890000Y-101240000D01*
X219010000Y-101240000D02*
X219060000Y-101240000D01*
X219060000Y-101240000D02*
X219060000Y-102760000D01*
X219060000Y-102760000D02*
X218060000Y-102760000D01*
X217880000Y-100700000D02*
X217550000Y-100940000D01*
X217550000Y-100460000D01*
X217880000Y-100700000D01*
G36*
X217880000Y-100700000D02*
G01*
X217550000Y-100940000D01*
X217550000Y-100460000D01*
X217880000Y-100700000D01*
G37*
%TO.C,C12*%
X193765000Y-68261252D02*
X193765000Y-67738748D01*
X195235000Y-68261252D02*
X195235000Y-67738748D01*
%TO.C,C15*%
X221277164Y-95665000D02*
X221492836Y-95665000D01*
X221277164Y-96385000D02*
X221492836Y-96385000D01*
%TO.C,J4*%
X150890000Y-69510000D02*
X150890000Y-76190000D01*
X154460000Y-67790000D02*
X158710000Y-67790000D01*
X154460000Y-77910000D02*
X158710000Y-77910000D01*
X157110000Y-68810000D02*
X157110000Y-70090000D01*
X157110000Y-70090000D02*
X160000000Y-70090000D01*
X157110000Y-76890000D02*
X157110000Y-75610000D01*
X158710000Y-67790000D02*
X158710000Y-68810000D01*
X158710000Y-68810000D02*
X157110000Y-68810000D01*
X158710000Y-76890000D02*
X157110000Y-76890000D01*
X158710000Y-77910000D02*
X158710000Y-76890000D01*
%TO.C,C7*%
X201140000Y-89587836D02*
X201140000Y-89372164D01*
X201860000Y-89587836D02*
X201860000Y-89372164D01*
%TO.C,P1*%
X150400000Y-56525000D02*
X150400000Y-65925000D01*
X152300000Y-56525000D02*
X150400000Y-56525000D01*
X152300000Y-65925000D02*
X150400000Y-65925000D01*
X156200000Y-56525000D02*
X154200000Y-56525000D01*
X156200000Y-65925000D02*
X154200000Y-65925000D01*
%TO.C,C1*%
X162740000Y-97090000D02*
X166790000Y-97090000D01*
X162740000Y-106545563D02*
X162740000Y-97090000D01*
X163804437Y-107610000D02*
X162740000Y-106545563D01*
X163804437Y-107610000D02*
X166790000Y-107610000D01*
X164915000Y-108475000D02*
X166165000Y-108475000D01*
X165540000Y-109100000D02*
X165540000Y-107850000D01*
X172195563Y-107610000D02*
X169210000Y-107610000D01*
X172195563Y-107610000D02*
X173260000Y-106545563D01*
X173260000Y-97090000D02*
X169210000Y-97090000D01*
X173260000Y-106545563D02*
X173260000Y-97090000D01*
%TO.C,J5*%
X150890000Y-81510000D02*
X150890000Y-88190000D01*
X154460000Y-79790000D02*
X158710000Y-79790000D01*
X154460000Y-89910000D02*
X158710000Y-89910000D01*
X157110000Y-80810000D02*
X157110000Y-82090000D01*
X157110000Y-82090000D02*
X160000000Y-82090000D01*
X157110000Y-88890000D02*
X157110000Y-87610000D01*
X158710000Y-79790000D02*
X158710000Y-80810000D01*
X158710000Y-80810000D02*
X157110000Y-80810000D01*
X158710000Y-88890000D02*
X157110000Y-88890000D01*
X158710000Y-89910000D02*
X158710000Y-88890000D01*
%TO.C,C11*%
X191311252Y-72540000D02*
X190788748Y-72540000D01*
X191311252Y-74010000D02*
X190788748Y-74010000D01*
%TO.C,C16*%
X163851248Y-53590000D02*
X165273752Y-53590000D01*
X163851248Y-55410000D02*
X165273752Y-55410000D01*
%TO.C,C8*%
X191140000Y-88607836D02*
X191140000Y-88392164D01*
X191860000Y-88607836D02*
X191860000Y-88392164D01*
%TO.C,TP6*%
X211300000Y-88300000D02*
X213700000Y-88300000D01*
X211300000Y-90700000D02*
X211300000Y-88300000D01*
X213700000Y-88300000D02*
X213700000Y-90700000D01*
X213700000Y-90700000D02*
X211300000Y-90700000D01*
%TO.C,TP4*%
X214300000Y-70800000D02*
X216700000Y-70800000D01*
X214300000Y-73200000D02*
X214300000Y-70800000D01*
X216700000Y-70800000D02*
X216700000Y-73200000D01*
X216700000Y-73200000D02*
X214300000Y-73200000D01*
%TO.C,C10*%
X203765000Y-72711252D02*
X203765000Y-72188748D01*
X205235000Y-72711252D02*
X205235000Y-72188748D01*
%TO.C,R11*%
X215178641Y-64620000D02*
X214871359Y-64620000D01*
X215178641Y-65380000D02*
X214871359Y-65380000D01*
%TO.C,J1*%
X150780000Y-91840000D02*
X160820000Y-91840000D01*
X150780000Y-94200000D02*
X150780000Y-91840000D01*
X150780000Y-102240000D02*
X150780000Y-94800000D01*
X151400000Y-91840000D02*
X151400000Y-102240000D01*
X152900000Y-91840000D02*
X152900000Y-102240000D01*
X157800000Y-91840000D02*
X157800000Y-102240000D01*
X160820000Y-91840000D02*
X160820000Y-102240000D01*
X160820000Y-102240000D02*
X150780000Y-102240000D01*
X150780000Y-94500000D02*
X150170000Y-94940000D01*
X150170000Y-94060000D01*
X150780000Y-94500000D01*
G36*
X150780000Y-94500000D02*
G01*
X150170000Y-94940000D01*
X150170000Y-94060000D01*
X150780000Y-94500000D01*
G37*
%TO.C,R13*%
X156153641Y-54620000D02*
X155846359Y-54620000D01*
X156153641Y-55380000D02*
X155846359Y-55380000D01*
%TO.C,R2*%
X201120000Y-91663641D02*
X201120000Y-91356359D01*
X201880000Y-91663641D02*
X201880000Y-91356359D01*
%TO.C,U6*%
X163590000Y-74940000D02*
X165410000Y-74940000D01*
X163590000Y-74990000D02*
X163590000Y-74940000D01*
X163590000Y-76890000D02*
X163590000Y-76110000D01*
X163590000Y-78060000D02*
X163590000Y-78010000D01*
X165410000Y-74940000D02*
X165410000Y-74990000D01*
X165410000Y-78010000D02*
X165410000Y-78060000D01*
X165410000Y-78060000D02*
X163590000Y-78060000D01*
X166190000Y-78340000D02*
X165710000Y-78340000D01*
X165950000Y-78010000D01*
X166190000Y-78340000D01*
G36*
X166190000Y-78340000D02*
G01*
X165710000Y-78340000D01*
X165950000Y-78010000D01*
X166190000Y-78340000D01*
G37*
%TD*%
M02*
