M48
; DRILL file {KiCad 9.0.7} date 2026-03-08T20:10:11-0700
; FORMAT={-:-/ absolute / metric / decimal}
; #@! TF.CreationDate,2026-03-08T20:10:11-07:00
; #@! TF.GenerationSoftware,Kicad,Pcbnew,9.0.7
; #@! TF.FileFunction,Plated,1,2,PTH
FMAT,2
METRIC
; #@! TA.AperFunction,Plated,PTH,ViaDrill
T1C0.300
; #@! TA.AperFunction,Plated,PTH,ComponentDrill
T2C0.300
; #@! TA.AperFunction,Plated,PTH,ComponentDrill
T3C0.600
; #@! TA.AperFunction,Plated,PTH,ComponentDrill
T4C0.950
; #@! TA.AperFunction,Plated,PTH,ComponentDrill
T5C1.000
; #@! TA.AperFunction,Plated,PTH,ComponentDrill
T6C1.300
%
G90
G05
T1
X160.65Y-84.85
X161.179Y-64.475
X161.5Y-76.151
X161.5Y-80.0
X165.75Y-84.25
X166.275Y-60.725
X167.505Y-76.5
X170.0Y-53.0
X170.5Y-87.5
X170.5Y-93.0
X171.0Y-92.0
X171.25Y-83.5
X171.25Y-84.75
X171.5Y-93.0
X171.612Y-86.388
X172.5Y-67.5
X172.5Y-72.25
X173.72Y-72.28
X173.75Y-82.5
X174.75Y-72.25
X177.375Y-93.375
X180.0Y-72.5
X181.5Y-72.5
X182.5Y-67.5
X182.5Y-82.5
X182.5Y-95.0
X182.75Y-72.5
X183.5Y-82.5
X183.5Y-100.0
X184.75Y-81.25
X184.75Y-97.5
X186.5Y-87.0
X189.0Y-87.0
X189.5Y-54.0
X190.25Y-65.75
X191.0Y-73.5
X191.5Y-87.0
X194.0Y-80.5
X196.75Y-62.5
X198.5Y-68.0
X199.0Y-63.25
X199.5Y-67.0
X199.5Y-68.0
X199.75Y-62.5
X200.5Y-62.0
X200.5Y-68.0
X201.5Y-59.0
X201.5Y-93.0
X201.5Y-94.5
X202.0Y-65.5
X203.0Y-65.5
X204.0Y-65.5
X206.0Y-62.0
X207.0Y-58.0
X207.25Y-68.75
X212.0Y-61.5
X215.0Y-53.0
X217.5Y-67.5
X219.0Y-74.25
X219.0Y-76.0
X220.5Y-62.0
X224.0Y-62.0
T2
X174.1Y-59.76
X174.1Y-61.16
X174.8Y-59.06
X174.8Y-60.46
X174.8Y-61.86
X175.5Y-59.76
X175.5Y-61.16
X176.2Y-59.06
X176.2Y-60.46
X176.2Y-61.86
X176.9Y-59.76
X176.9Y-61.16
X196.0Y-89.0
X196.0Y-90.3
X196.0Y-91.6
X197.3Y-89.0
X197.3Y-90.3
X197.3Y-91.6
T4
X177.5Y-106.0
X180.0Y-106.0
X182.5Y-106.0
X185.0Y-106.0
X187.5Y-106.0
X190.0Y-106.0
X192.5Y-106.0
X195.0Y-106.0
X197.5Y-106.0
X200.0Y-106.0
X202.5Y-106.0
X226.0Y-57.0
X226.0Y-59.5
X226.0Y-62.0
X226.0Y-64.5
X226.0Y-67.0
X226.0Y-69.5
X226.0Y-72.0
X226.0Y-74.5
X226.0Y-77.0
X226.0Y-79.5
X226.0Y-82.0
T5
X195.46Y-54.5
X198.0Y-54.5
X200.54Y-54.5
X219.0Y-79.75
X219.0Y-82.29
X219.0Y-84.83
X219.0Y-87.37
T6
X155.5Y-94.5
X155.5Y-99.58
T3
G00X153.55Y-56.905
M15
G01X152.95Y-56.905
M16
G05
G00X153.55Y-65.545
M15
G01X152.95Y-65.545
M16
G05
G00X157.98Y-56.905
M15
G01X156.88Y-56.905
M16
G05
G00X157.98Y-65.545
M15
G01X156.88Y-65.545
M16
G05
M30
