%TF.GenerationSoftware,KiCad,Pcbnew,9.0.7*%
%TF.CreationDate,2026-03-13T00:39:54-07:00*%
%TF.ProjectId,Pulse_Box_PCB_v2,50756c73-655f-4426-9f78-5f5043425f76,rev?*%
%TF.SameCoordinates,Original*%
%TF.FileFunction,Copper,L1,Top*%
%TF.FilePolarity,Positive*%
%FSLAX46Y46*%
G04 Gerber Fmt 4.6, Leading zero omitted, Abs format (unit mm)*
G04 Created by KiCad (PCBNEW 9.0.7) date 2026-03-13 00:39:54*
%MOMM*%
%LPD*%
G01*
G04 APERTURE LIST*
G04 Aperture macros list*
%AMRoundRect*
0 Rectangle with rounded corners*
0 $1 Rounding radius*
0 $2 $3 $4 $5 $6 $7 $8 $9 X,Y pos of 4 corners*
0 Add a 4 corners polygon primitive as box body*
4,1,4,$2,$3,$4,$5,$6,$7,$8,$9,$2,$3,0*
0 Add four circle primitives for the rounded corners*
1,1,$1+$1,$2,$3*
1,1,$1+$1,$4,$5*
1,1,$1+$1,$6,$7*
1,1,$1+$1,$8,$9*
0 Add four rect primitives between the rounded corners*
20,1,$1+$1,$2,$3,$4,$5,0*
20,1,$1+$1,$4,$5,$6,$7,0*
20,1,$1+$1,$6,$7,$8,$9,0*
20,1,$1+$1,$8,$9,$2,$3,0*%
G04 Aperture macros list end*
%TA.AperFunction,SMDPad,CuDef*%
%ADD10RoundRect,0.250000X1.750000X-1.375000X1.750000X1.375000X-1.750000X1.375000X-1.750000X-1.375000X0*%
%TD*%
%TA.AperFunction,SMDPad,CuDef*%
%ADD11RoundRect,0.140000X-0.140000X-0.170000X0.140000X-0.170000X0.140000X0.170000X-0.140000X0.170000X0*%
%TD*%
%TA.AperFunction,ComponentPad*%
%ADD12R,1.700000X1.700000*%
%TD*%
%TA.AperFunction,ComponentPad*%
%ADD13C,1.700000*%
%TD*%
%TA.AperFunction,SMDPad,CuDef*%
%ADD14C,0.500000*%
%TD*%
%TA.AperFunction,SMDPad,CuDef*%
%ADD15RoundRect,0.135000X0.135000X0.185000X-0.135000X0.185000X-0.135000X-0.185000X0.135000X-0.185000X0*%
%TD*%
%TA.AperFunction,SMDPad,CuDef*%
%ADD16R,2.000000X2.000000*%
%TD*%
%TA.AperFunction,ComponentPad*%
%ADD17RoundRect,0.250000X-0.600000X-0.725000X0.600000X-0.725000X0.600000X0.725000X-0.600000X0.725000X0*%
%TD*%
%TA.AperFunction,ComponentPad*%
%ADD18O,1.700000X1.950000*%
%TD*%
%TA.AperFunction,SMDPad,CuDef*%
%ADD19RoundRect,0.250000X0.475000X-0.250000X0.475000X0.250000X-0.475000X0.250000X-0.475000X-0.250000X0*%
%TD*%
%TA.AperFunction,SMDPad,CuDef*%
%ADD20RoundRect,0.135000X0.185000X-0.135000X0.185000X0.135000X-0.185000X0.135000X-0.185000X-0.135000X0*%
%TD*%
%TA.AperFunction,SMDPad,CuDef*%
%ADD21RoundRect,0.147500X0.147500X0.172500X-0.147500X0.172500X-0.147500X-0.172500X0.147500X-0.172500X0*%
%TD*%
%TA.AperFunction,SMDPad,CuDef*%
%ADD22RoundRect,0.135000X-0.135000X-0.185000X0.135000X-0.185000X0.135000X0.185000X-0.135000X0.185000X0*%
%TD*%
%TA.AperFunction,ComponentPad*%
%ADD23RoundRect,0.250000X0.725000X-0.600000X0.725000X0.600000X-0.725000X0.600000X-0.725000X-0.600000X0*%
%TD*%
%TA.AperFunction,ComponentPad*%
%ADD24O,1.950000X1.700000*%
%TD*%
%TA.AperFunction,SMDPad,CuDef*%
%ADD25RoundRect,0.200000X-0.800000X0.200000X-0.800000X-0.200000X0.800000X-0.200000X0.800000X0.200000X0*%
%TD*%
%TA.AperFunction,SMDPad,CuDef*%
%ADD26RoundRect,0.250000X-0.250000X-0.475000X0.250000X-0.475000X0.250000X0.475000X-0.250000X0.475000X0*%
%TD*%
%TA.AperFunction,SMDPad,CuDef*%
%ADD27R,1.500000X0.900000*%
%TD*%
%TA.AperFunction,SMDPad,CuDef*%
%ADD28R,0.900000X1.500000*%
%TD*%
%TA.AperFunction,HeatsinkPad*%
%ADD29C,0.600000*%
%TD*%
%TA.AperFunction,HeatsinkPad*%
%ADD30R,3.900000X3.900000*%
%TD*%
%TA.AperFunction,SMDPad,CuDef*%
%ADD31RoundRect,0.150000X0.512500X0.150000X-0.512500X0.150000X-0.512500X-0.150000X0.512500X-0.150000X0*%
%TD*%
%TA.AperFunction,SMDPad,CuDef*%
%ADD32RoundRect,0.140000X-0.170000X0.140000X-0.170000X-0.140000X0.170000X-0.140000X0.170000X0.140000X0*%
%TD*%
%TA.AperFunction,SMDPad,CuDef*%
%ADD33RoundRect,0.140000X0.170000X-0.140000X0.170000X0.140000X-0.170000X0.140000X-0.170000X-0.140000X0*%
%TD*%
%TA.AperFunction,SMDPad,CuDef*%
%ADD34RoundRect,0.250000X0.900000X-1.000000X0.900000X1.000000X-0.900000X1.000000X-0.900000X-1.000000X0*%
%TD*%
%TA.AperFunction,SMDPad,CuDef*%
%ADD35RoundRect,0.150000X-0.737500X-0.150000X0.737500X-0.150000X0.737500X0.150000X-0.737500X0.150000X0*%
%TD*%
%TA.AperFunction,HeatsinkPad*%
%ADD36C,0.500000*%
%TD*%
%TA.AperFunction,HeatsinkPad*%
%ADD37R,2.950000X4.900000*%
%TD*%
%TA.AperFunction,SMDPad,CuDef*%
%ADD38RoundRect,0.375000X0.375000X-0.625000X0.375000X0.625000X-0.375000X0.625000X-0.375000X-0.625000X0*%
%TD*%
%TA.AperFunction,SMDPad,CuDef*%
%ADD39RoundRect,0.500000X1.400000X-0.500000X1.400000X0.500000X-1.400000X0.500000X-1.400000X-0.500000X0*%
%TD*%
%TA.AperFunction,SMDPad,CuDef*%
%ADD40RoundRect,0.150000X-0.150000X0.512500X-0.150000X-0.512500X0.150000X-0.512500X0.150000X0.512500X0*%
%TD*%
%TA.AperFunction,ComponentPad*%
%ADD41RoundRect,0.250000X-0.625000X0.350000X-0.625000X-0.350000X0.625000X-0.350000X0.625000X0.350000X0*%
%TD*%
%TA.AperFunction,ComponentPad*%
%ADD42O,1.750000X1.200000*%
%TD*%
%TA.AperFunction,SMDPad,CuDef*%
%ADD43R,1.450000X0.600000*%
%TD*%
%TA.AperFunction,SMDPad,CuDef*%
%ADD44R,1.450000X0.300000*%
%TD*%
%TA.AperFunction,HeatsinkPad*%
%ADD45O,2.100000X1.000000*%
%TD*%
%TA.AperFunction,HeatsinkPad*%
%ADD46O,1.600000X1.000000*%
%TD*%
%TA.AperFunction,SMDPad,CuDef*%
%ADD47RoundRect,0.250000X0.700000X-1.950000X0.700000X1.950000X-0.700000X1.950000X-0.700000X-1.950000X0*%
%TD*%
%TA.AperFunction,SMDPad,CuDef*%
%ADD48RoundRect,0.250000X-0.412500X-0.650000X0.412500X-0.650000X0.412500X0.650000X-0.412500X0.650000X0*%
%TD*%
%TA.AperFunction,ComponentPad*%
%ADD49RoundRect,0.250000X-1.050000X1.050000X-1.050000X-1.050000X1.050000X-1.050000X1.050000X1.050000X0*%
%TD*%
%TA.AperFunction,ComponentPad*%
%ADD50C,2.600000*%
%TD*%
%TA.AperFunction,ViaPad*%
%ADD51C,0.600000*%
%TD*%
%TA.AperFunction,Conductor*%
%ADD52C,0.200000*%
%TD*%
%TA.AperFunction,Conductor*%
%ADD53C,1.000000*%
%TD*%
%TA.AperFunction,Conductor*%
%ADD54C,0.500000*%
%TD*%
%TA.AperFunction,Conductor*%
%ADD55C,2.000000*%
%TD*%
G04 APERTURE END LIST*
D10*
%TO.P,L1,1,1*%
%TO.N,Net-(D1-K)*%
X206000000Y-86375000D03*
%TO.P,L1,2,2*%
%TO.N,+5V*%
X206000000Y-77125000D03*
%TD*%
D11*
%TO.P,C18,1*%
%TO.N,GND*%
X165020000Y-52500000D03*
%TO.P,C18,2*%
%TO.N,Net-(U1-EN)*%
X165980000Y-52500000D03*
%TD*%
D12*
%TO.P,J6,1,Pin_1*%
%TO.N,GND*%
X200540000Y-54500000D03*
D13*
%TO.P,J6,2,Pin_2*%
%TO.N,UART0_RX*%
X198000000Y-54500000D03*
%TO.P,J6,3,Pin_3*%
%TO.N,UART0_TX*%
X195460000Y-54500000D03*
%TD*%
D14*
%TO.P,FID3,*%
%TO.N,*%
X206500000Y-55000000D03*
%TD*%
D15*
%TO.P,R10,1*%
%TO.N,GND*%
X215510000Y-66500000D03*
%TO.P,R10,2*%
%TO.N,Net-(D4-K)*%
X214490000Y-66500000D03*
%TD*%
D16*
%TO.P,TP3,1,1*%
%TO.N,+5V*%
X190000000Y-82000000D03*
%TD*%
D17*
%TO.P,J2,1,Pin_1*%
%TO.N,+24V*%
X177500000Y-106000000D03*
D18*
%TO.P,J2,2,Pin_2*%
%TO.N,GND*%
X180000000Y-106000000D03*
%TO.P,J2,3,Pin_3*%
X182500000Y-106000000D03*
%TO.P,J2,4,Pin_4*%
%TO.N,UART2_TX*%
X185000000Y-106000000D03*
%TO.P,J2,5,Pin_5*%
%TO.N,unconnected-(J2-Pin_5-Pad5)*%
X187500000Y-106000000D03*
%TO.P,J2,6,Pin_6*%
%TO.N,PWM_OUT_N*%
X190000000Y-106000000D03*
%TO.P,J2,7,Pin_7*%
%TO.N,unconnected-(J2-Pin_7-Pad7)*%
X192500000Y-106000000D03*
%TO.P,J2,8,Pin_8*%
%TO.N,UART2_RX*%
X195000000Y-106000000D03*
%TO.P,J2,9,Pin_9*%
%TO.N,N_SENS*%
X197500000Y-106000000D03*
%TO.P,J2,10,Pin_10*%
%TO.N,GND*%
X200000000Y-106000000D03*
%TO.P,J2,11,Pin_11*%
%TO.N,+24V*%
X202500000Y-106000000D03*
%TD*%
D19*
%TO.P,C2,1*%
%TO.N,+24V*%
X186500000Y-90400000D03*
%TO.P,C2,2*%
%TO.N,GND*%
X186500000Y-88500000D03*
%TD*%
D20*
%TO.P,R11,1*%
%TO.N,+3.3V*%
X219000000Y-63010000D03*
%TO.P,R11,2*%
%TO.N,E_SENS*%
X219000000Y-61990000D03*
%TD*%
D15*
%TO.P,R6,1*%
%TO.N,DM*%
X166510000Y-68000000D03*
%TO.P,R6,2*%
%TO.N,Net-(R6-Pad2)*%
X165490000Y-68000000D03*
%TD*%
D21*
%TO.P,D3,1,K*%
%TO.N,Net-(D3-K)*%
X213000000Y-65000000D03*
%TO.P,D3,2,A*%
%TO.N,+3.3V*%
X212030000Y-65000000D03*
%TD*%
D12*
%TO.P,J7,1,Pin_1*%
%TO.N,+3.3V*%
X219000000Y-79750000D03*
D13*
%TO.P,J7,2,Pin_2*%
%TO.N,+5V*%
X219000000Y-82290000D03*
%TO.P,J7,3,Pin_3*%
%TO.N,+24V*%
X219000000Y-84830000D03*
%TO.P,J7,4,Pin_4*%
%TO.N,GND*%
X219000000Y-87370000D03*
%TD*%
D20*
%TO.P,R3,1*%
%TO.N,Net-(U3-FB)*%
X204500000Y-91335000D03*
%TO.P,R3,2*%
%TO.N,+5V*%
X204500000Y-90315000D03*
%TD*%
D22*
%TO.P,R7,1*%
%TO.N,+3.3V*%
X208490000Y-58000000D03*
%TO.P,R7,2*%
%TO.N,Net-(U1-EN)*%
X209510000Y-58000000D03*
%TD*%
D11*
%TO.P,C13,1*%
%TO.N,+5V*%
X176020000Y-86750000D03*
%TO.P,C13,2*%
%TO.N,GND*%
X176980000Y-86750000D03*
%TD*%
D23*
%TO.P,J3,1,Pin_1*%
%TO.N,+24V*%
X226000000Y-82000000D03*
D24*
%TO.P,J3,2,Pin_2*%
%TO.N,GND*%
X226000000Y-79500000D03*
%TO.P,J3,3,Pin_3*%
X226000000Y-77000000D03*
%TO.P,J3,4,Pin_4*%
%TO.N,UART1_TX*%
X226000000Y-74500000D03*
%TO.P,J3,5,Pin_5*%
%TO.N,unconnected-(J3-Pin_5-Pad5)*%
X226000000Y-72000000D03*
%TO.P,J3,6,Pin_6*%
%TO.N,PWM_OUT_E*%
X226000000Y-69500000D03*
%TO.P,J3,7,Pin_7*%
%TO.N,unconnected-(J3-Pin_7-Pad7)*%
X226000000Y-67000000D03*
%TO.P,J3,8,Pin_8*%
%TO.N,UART1_RX*%
X226000000Y-64500000D03*
%TO.P,J3,9,Pin_9*%
%TO.N,E_SENS*%
X226000000Y-62000000D03*
%TO.P,J3,10,Pin_10*%
%TO.N,GND*%
X226000000Y-59500000D03*
%TO.P,J3,11,Pin_11*%
%TO.N,+24V*%
X226000000Y-57000000D03*
%TD*%
D25*
%TO.P,SW2,1,1*%
%TO.N,GND*%
X212000000Y-53500000D03*
%TO.P,SW2,2,2*%
%TO.N,Net-(U1-EN)*%
X212000000Y-57700000D03*
%TD*%
D14*
%TO.P,FID2,*%
%TO.N,*%
X214000000Y-103750000D03*
%TD*%
D19*
%TO.P,C8,1*%
%TO.N,+5V*%
X202000000Y-73400000D03*
%TO.P,C8,2*%
%TO.N,GND*%
X202000000Y-71500000D03*
%TD*%
D26*
%TO.P,C5,1*%
%TO.N,GND*%
X196550000Y-94500000D03*
%TO.P,C5,2*%
%TO.N,Net-(C5-Pad2)*%
X198450000Y-94500000D03*
%TD*%
D15*
%TO.P,R5,1*%
%TO.N,DP*%
X166510000Y-69500000D03*
%TO.P,R5,2*%
%TO.N,Net-(R5-Pad2)*%
X165490000Y-69500000D03*
%TD*%
D27*
%TO.P,U1,1,GND*%
%TO.N,GND*%
X168250000Y-52740000D03*
%TO.P,U1,2,3V3*%
%TO.N,+3.3V*%
X168250000Y-54010000D03*
%TO.P,U1,3,EN*%
%TO.N,Net-(U1-EN)*%
X168250000Y-55280000D03*
%TO.P,U1,4,IO4*%
%TO.N,unconnected-(U1-IO4-Pad4)*%
X168250000Y-56550000D03*
%TO.P,U1,5,IO5*%
%TO.N,unconnected-(U1-IO5-Pad5)*%
X168250000Y-57820000D03*
%TO.P,U1,6,IO6*%
%TO.N,unconnected-(U1-IO6-Pad6)*%
X168250000Y-59090000D03*
%TO.P,U1,7,IO7*%
%TO.N,unconnected-(U1-IO7-Pad7)*%
X168250000Y-60360000D03*
%TO.P,U1,8,IO15*%
%TO.N,unconnected-(U1-IO15-Pad8)*%
X168250000Y-61630000D03*
%TO.P,U1,9,IO16*%
%TO.N,unconnected-(U1-IO16-Pad9)*%
X168250000Y-62900000D03*
%TO.P,U1,10,IO17*%
%TO.N,unconnected-(U1-IO17-Pad10)*%
X168250000Y-64170000D03*
%TO.P,U1,11,IO18*%
%TO.N,unconnected-(U1-IO18-Pad11)*%
X168250000Y-65440000D03*
%TO.P,U1,12,IO8*%
%TO.N,unconnected-(U1-IO8-Pad12)*%
X168250000Y-66710000D03*
%TO.P,U1,13,USB_D-*%
%TO.N,DM*%
X168250000Y-67980000D03*
%TO.P,U1,14,USB_D+*%
%TO.N,DP*%
X168250000Y-69250000D03*
D28*
%TO.P,U1,15,IO3*%
%TO.N,unconnected-(U1-IO3-Pad15)*%
X170015000Y-70500000D03*
%TO.P,U1,16,IO46*%
%TO.N,GND*%
X171285000Y-70500000D03*
%TO.P,U1,17,IO9*%
%TO.N,PWM_3V3*%
X172555000Y-70500000D03*
%TO.P,U1,18,IO10*%
%TO.N,PWM_SEL*%
X173825000Y-70500000D03*
%TO.P,U1,19,IO11*%
%TO.N,unconnected-(U1-IO11-Pad19)*%
X175095000Y-70500000D03*
%TO.P,U1,20,IO12*%
%TO.N,unconnected-(U1-IO12-Pad20)*%
X176365000Y-70500000D03*
%TO.P,U1,21,IO13*%
%TO.N,unconnected-(U1-IO13-Pad21)*%
X177635000Y-70500000D03*
%TO.P,U1,22,IO14*%
%TO.N,N_SENS*%
X178905000Y-70500000D03*
%TO.P,U1,23,IO21*%
%TO.N,unconnected-(U1-IO21-Pad23)*%
X180175000Y-70500000D03*
%TO.P,U1,24,IO47*%
%TO.N,UART2_TX*%
X181445000Y-70500000D03*
%TO.P,U1,25,IO48*%
%TO.N,UART2_RX*%
X182715000Y-70500000D03*
%TO.P,U1,26,IO45*%
%TO.N,GND*%
X183985000Y-70500000D03*
D27*
%TO.P,U1,27,IO0*%
%TO.N,Net-(U1-IO0)*%
X185750000Y-69250000D03*
%TO.P,U1,28,IO35*%
%TO.N,unconnected-(U1-IO35-Pad28)*%
X185750000Y-67980000D03*
%TO.P,U1,29,IO36*%
%TO.N,unconnected-(U1-IO36-Pad29)*%
X185750000Y-66710000D03*
%TO.P,U1,30,IO37*%
%TO.N,unconnected-(U1-IO37-Pad30)*%
X185750000Y-65440000D03*
%TO.P,U1,31,IO38*%
%TO.N,unconnected-(U1-IO38-Pad31)*%
X185750000Y-64170000D03*
%TO.P,U1,32,IO39*%
%TO.N,UART1_TX*%
X185750000Y-62900000D03*
%TO.P,U1,33,IO40*%
%TO.N,UART1_RX*%
X185750000Y-61630000D03*
%TO.P,U1,34,IO41*%
%TO.N,STATUS*%
X185750000Y-60360000D03*
%TO.P,U1,35,IO42*%
%TO.N,E_SENS*%
X185750000Y-59090000D03*
%TO.P,U1,36,RXD0*%
%TO.N,UART0_RX*%
X185750000Y-57820000D03*
%TO.P,U1,37,TXD0*%
%TO.N,UART0_TX*%
X185750000Y-56550000D03*
%TO.P,U1,38,IO2*%
%TO.N,unconnected-(U1-IO2-Pad38)*%
X185750000Y-55280000D03*
%TO.P,U1,39,IO1*%
%TO.N,unconnected-(U1-IO1-Pad39)*%
X185750000Y-54010000D03*
%TO.P,U1,40,GND*%
%TO.N,GND*%
X185750000Y-52740000D03*
D29*
%TO.P,U1,41,GND*%
X174100000Y-59760000D03*
X174100000Y-61160000D03*
X174800000Y-59060000D03*
X174800000Y-60460000D03*
X174800000Y-61860000D03*
X175500000Y-59760000D03*
D30*
X175500000Y-60460000D03*
D29*
X175500000Y-61160000D03*
X176200000Y-59060000D03*
X176200000Y-60460000D03*
X176200000Y-61860000D03*
X176900000Y-59760000D03*
X176900000Y-61160000D03*
%TD*%
D16*
%TO.P,TP5,1,1*%
%TO.N,PWM_3V3*%
X170250000Y-78000000D03*
%TD*%
D31*
%TO.P,U5,1*%
%TO.N,PWM_OUT_N*%
X169275000Y-86150000D03*
%TO.P,U5,2,GND*%
%TO.N,GND*%
X169275000Y-85200000D03*
%TO.P,U5,3*%
%TO.N,PWM_OUT_E*%
X169275000Y-84250000D03*
%TO.P,U5,4*%
%TO.N,PWM_DOUT*%
X167000000Y-84250000D03*
%TO.P,U5,5,VCC*%
%TO.N,+5V*%
X167000000Y-85200000D03*
%TO.P,U5,6*%
%TO.N,Net-(U4-Y)*%
X167000000Y-86150000D03*
%TD*%
D20*
%TO.P,R12,1*%
%TO.N,+3.3V*%
X179000000Y-73520000D03*
%TO.P,R12,2*%
%TO.N,N_SENS*%
X179000000Y-72500000D03*
%TD*%
D19*
%TO.P,C4,1*%
%TO.N,+24V*%
X191500000Y-90400000D03*
%TO.P,C4,2*%
%TO.N,GND*%
X191500000Y-88500000D03*
%TD*%
D25*
%TO.P,SW1,1,1*%
%TO.N,GND*%
X218000000Y-53500000D03*
%TO.P,SW1,2,2*%
%TO.N,Net-(U1-IO0)*%
X218000000Y-57700000D03*
%TD*%
D32*
%TO.P,C14,1*%
%TO.N,+5V*%
X165250000Y-85250000D03*
%TO.P,C14,2*%
%TO.N,GND*%
X165250000Y-86210000D03*
%TD*%
%TO.P,C15,1*%
%TO.N,+5V*%
X163000000Y-79000000D03*
%TO.P,C15,2*%
%TO.N,GND*%
X163000000Y-79960000D03*
%TD*%
D33*
%TO.P,C12,1*%
%TO.N,+3.3V*%
X192500000Y-67460000D03*
%TO.P,C12,2*%
%TO.N,GND*%
X192500000Y-66500000D03*
%TD*%
D34*
%TO.P,D1,1,K*%
%TO.N,Net-(D1-K)*%
X197000000Y-84800000D03*
%TO.P,D1,2,A*%
%TO.N,GND*%
X197000000Y-80500000D03*
%TD*%
D35*
%TO.P,U3,1,BOOT*%
%TO.N,Net-(U3-BOOT)*%
X194087500Y-88395000D03*
%TO.P,U3,2,VIN*%
%TO.N,+24V*%
X194087500Y-89665000D03*
%TO.P,U3,3,EN*%
%TO.N,unconnected-(U3-EN-Pad3)*%
X194087500Y-90935000D03*
%TO.P,U3,4,RT/CLK*%
%TO.N,Net-(U3-RT{slash}CLK)*%
X194087500Y-92205000D03*
%TO.P,U3,5,FB*%
%TO.N,Net-(U3-FB)*%
X199212500Y-92205000D03*
%TO.P,U3,6,COMP*%
%TO.N,Net-(U3-COMP)*%
X199212500Y-90935000D03*
%TO.P,U3,7,GND*%
%TO.N,GND*%
X199212500Y-89665000D03*
%TO.P,U3,8,SW*%
%TO.N,Net-(D1-K)*%
X199212500Y-88395000D03*
D36*
%TO.P,U3,9,GND*%
%TO.N,GND*%
X196000000Y-89000000D03*
X196000000Y-90300000D03*
X196000000Y-91600000D03*
D37*
X196650000Y-90300000D03*
D36*
X197300000Y-89000000D03*
X197300000Y-90300000D03*
X197300000Y-91600000D03*
%TD*%
D38*
%TO.P,U7,1,GND*%
%TO.N,GND*%
X191200000Y-75800000D03*
%TO.P,U7,2,VO*%
%TO.N,+3.3V*%
X193500000Y-75800000D03*
D39*
X193500000Y-69500000D03*
D38*
%TO.P,U7,3,VI*%
%TO.N,+5V*%
X195800000Y-75800000D03*
%TD*%
D16*
%TO.P,TP2,1,1*%
%TO.N,+24V*%
X177500000Y-100000000D03*
%TD*%
D14*
%TO.P,FID1,*%
%TO.N,*%
X157750000Y-105750000D03*
%TD*%
D11*
%TO.P,C16,1*%
%TO.N,GND*%
X165020000Y-57000000D03*
%TO.P,C16,2*%
%TO.N,+3.3V*%
X165980000Y-57000000D03*
%TD*%
D31*
%TO.P,U2,1,I/O1*%
%TO.N,Net-(R5-Pad2)*%
X163500000Y-63125000D03*
%TO.P,U2,2,GND*%
%TO.N,GND*%
X163500000Y-62175000D03*
%TO.P,U2,3,I/O2*%
%TO.N,Net-(R6-Pad2)*%
X163500000Y-61225000D03*
%TO.P,U2,4,I/O2*%
%TO.N,Net-(P1-D-)*%
X161225000Y-61225000D03*
%TO.P,U2,5,VBUS*%
%TO.N,Net-(U2-VBUS)*%
X161225000Y-62175000D03*
%TO.P,U2,6,I/O1*%
%TO.N,Net-(P1-D+)*%
X161225000Y-63125000D03*
%TD*%
D21*
%TO.P,D4,1,K*%
%TO.N,Net-(D4-K)*%
X212975000Y-66500000D03*
%TO.P,D4,2,A*%
%TO.N,STATUS*%
X212005000Y-66500000D03*
%TD*%
D19*
%TO.P,C3,1*%
%TO.N,+24V*%
X189000000Y-90400000D03*
%TO.P,C3,2*%
%TO.N,GND*%
X189000000Y-88500000D03*
%TD*%
D22*
%TO.P,R1,1*%
%TO.N,GND*%
X190990000Y-92500000D03*
%TO.P,R1,2*%
%TO.N,Net-(U3-RT{slash}CLK)*%
X192010000Y-92500000D03*
%TD*%
D16*
%TO.P,TP1,1,1*%
%TO.N,GND*%
X168250000Y-90750000D03*
%TD*%
D15*
%TO.P,R8,1*%
%TO.N,+3.3V*%
X188510000Y-69500000D03*
%TO.P,R8,2*%
%TO.N,Net-(U1-IO0)*%
X187490000Y-69500000D03*
%TD*%
D40*
%TO.P,U4,1,NC*%
%TO.N,unconnected-(U4-NC-Pad1)*%
X174650000Y-84000000D03*
%TO.P,U4,2,A*%
%TO.N,PWM_SEL*%
X173700000Y-84000000D03*
%TO.P,U4,3,GND*%
%TO.N,GND*%
X172750000Y-84000000D03*
%TO.P,U4,4,Y*%
%TO.N,Net-(U4-Y)*%
X172750000Y-86275000D03*
%TO.P,U4,5,VCC*%
%TO.N,+5V*%
X174650000Y-86275000D03*
%TD*%
D20*
%TO.P,R4,1*%
%TO.N,GND*%
X204500000Y-94520000D03*
%TO.P,R4,2*%
%TO.N,Net-(U3-FB)*%
X204500000Y-93500000D03*
%TD*%
D19*
%TO.P,C11,1*%
%TO.N,+3.3V*%
X194500000Y-66950000D03*
%TO.P,C11,2*%
%TO.N,GND*%
X194500000Y-65050000D03*
%TD*%
D41*
%TO.P,J4,1,Pin_1*%
%TO.N,+5V*%
X156550000Y-73250000D03*
D42*
%TO.P,J4,2,Pin_2*%
%TO.N,PWM_5V*%
X156550000Y-75250000D03*
%TO.P,J4,3,Pin_3*%
%TO.N,GND*%
X156550000Y-77250000D03*
%TD*%
D33*
%TO.P,C6,1*%
%TO.N,Net-(U3-COMP)*%
X201500000Y-89960000D03*
%TO.P,C6,2*%
%TO.N,GND*%
X201500000Y-89000000D03*
%TD*%
D43*
%TO.P,P1,A1,GND*%
%TO.N,GND*%
X158345000Y-58000000D03*
%TO.P,P1,A4,VBUS*%
%TO.N,Net-(U2-VBUS)*%
X158345000Y-58800000D03*
D44*
%TO.P,P1,A5,CC*%
%TO.N,Net-(P1-CC)*%
X158345000Y-60000000D03*
%TO.P,P1,A6,D+*%
%TO.N,Net-(P1-D+)*%
X158345000Y-61000000D03*
%TO.P,P1,A7,D-*%
%TO.N,Net-(P1-D-)*%
X158345000Y-61500000D03*
%TO.P,P1,A8*%
%TO.N,N/C*%
X158345000Y-62500000D03*
D43*
%TO.P,P1,A9,VBUS*%
%TO.N,Net-(U2-VBUS)*%
X158345000Y-63700000D03*
%TO.P,P1,A12,GND*%
%TO.N,GND*%
X158345000Y-64500000D03*
%TO.P,P1,B1,GND*%
X158345000Y-64500000D03*
%TO.P,P1,B4,VBUS*%
%TO.N,Net-(U2-VBUS)*%
X158345000Y-63700000D03*
D44*
%TO.P,P1,B5,VCONN*%
%TO.N,unconnected-(P1-VCONN-PadB5)*%
X158345000Y-63000000D03*
%TO.P,P1,B6*%
%TO.N,N/C*%
X158345000Y-62000000D03*
%TO.P,P1,B7*%
X158345000Y-60500000D03*
%TO.P,P1,B8*%
X158345000Y-59500000D03*
D43*
%TO.P,P1,B9,VBUS*%
%TO.N,Net-(U2-VBUS)*%
X158345000Y-58800000D03*
%TO.P,P1,B12,GND*%
%TO.N,GND*%
X158345000Y-58000000D03*
D45*
%TO.P,P1,S1,SHIELD*%
X157430000Y-56930000D03*
D46*
X153250000Y-56930000D03*
D45*
X157430000Y-65570000D03*
D46*
X153250000Y-65570000D03*
%TD*%
D47*
%TO.P,C1,1*%
%TO.N,+24V*%
X168000000Y-105200000D03*
%TO.P,C1,2*%
%TO.N,GND*%
X168000000Y-96500000D03*
%TD*%
D41*
%TO.P,J5,1,Pin_1*%
%TO.N,+5V*%
X156500000Y-83000000D03*
D42*
%TO.P,J5,2,Pin_2*%
%TO.N,PWM_DOUT*%
X156500000Y-85000000D03*
%TO.P,J5,3,Pin_3*%
%TO.N,GND*%
X156500000Y-87000000D03*
%TD*%
D19*
%TO.P,C10,1*%
%TO.N,+5V*%
X198500000Y-74400000D03*
%TO.P,C10,2*%
%TO.N,GND*%
X198500000Y-72500000D03*
%TD*%
D48*
%TO.P,C17,1*%
%TO.N,GND*%
X162937500Y-54500000D03*
%TO.P,C17,2*%
%TO.N,+3.3V*%
X166062500Y-54500000D03*
%TD*%
D33*
%TO.P,C7,1*%
%TO.N,Net-(U3-BOOT)*%
X193500000Y-86960000D03*
%TO.P,C7,2*%
%TO.N,Net-(D1-K)*%
X193500000Y-86000000D03*
%TD*%
D16*
%TO.P,TP4,1,1*%
%TO.N,+3.3V*%
X219000000Y-72250000D03*
%TD*%
D19*
%TO.P,C9,1*%
%TO.N,+5V*%
X204500000Y-73400000D03*
%TO.P,C9,2*%
%TO.N,GND*%
X204500000Y-71500000D03*
%TD*%
D15*
%TO.P,R9,1*%
%TO.N,GND*%
X215535000Y-65000000D03*
%TO.P,R9,2*%
%TO.N,Net-(D3-K)*%
X214515000Y-65000000D03*
%TD*%
D49*
%TO.P,J1,1,Pin_1*%
%TO.N,GND*%
X155500000Y-94500000D03*
D50*
%TO.P,J1,2,Pin_2*%
%TO.N,+24V*%
X155500000Y-99580000D03*
%TD*%
D15*
%TO.P,R13,1*%
%TO.N,Net-(P1-CC)*%
X156510000Y-55000000D03*
%TO.P,R13,2*%
%TO.N,GND*%
X155490000Y-55000000D03*
%TD*%
D20*
%TO.P,R2,1*%
%TO.N,Net-(C5-Pad2)*%
X201500000Y-92020000D03*
%TO.P,R2,2*%
%TO.N,Net-(U3-COMP)*%
X201500000Y-91000000D03*
%TD*%
D31*
%TO.P,U6,1,NC*%
%TO.N,unconnected-(U6-NC-Pad1)*%
X165637500Y-77450000D03*
%TO.P,U6,2,A*%
%TO.N,PWM_3V3*%
X165637500Y-76500000D03*
%TO.P,U6,3,GND*%
%TO.N,GND*%
X165637500Y-75550000D03*
%TO.P,U6,4,Y*%
%TO.N,PWM_5V*%
X163362500Y-75550000D03*
%TO.P,U6,5,VCC*%
%TO.N,+5V*%
X163362500Y-77450000D03*
%TD*%
D51*
%TO.N,GND*%
X170000000Y-53000000D03*
X182500000Y-67500000D03*
X198500000Y-68000000D03*
X161500000Y-80000000D03*
X171500000Y-93000000D03*
X161179468Y-64475000D03*
X171000000Y-92000000D03*
X186500000Y-87000000D03*
X199500000Y-68000000D03*
X170500000Y-93000000D03*
X189500000Y-54000000D03*
X200500000Y-68000000D03*
X212000000Y-61500000D03*
X172500000Y-67500000D03*
X215000000Y-53000000D03*
X194000000Y-80500000D03*
X189000000Y-87000000D03*
X190250000Y-65750000D03*
X217500000Y-67500000D03*
X191000000Y-73500000D03*
X171250000Y-84750000D03*
X191500000Y-87000000D03*
X199500000Y-67000000D03*
%TO.N,+3.3V*%
X207000000Y-58000000D03*
X206000000Y-62000000D03*
X219000000Y-76000000D03*
X219000000Y-74250000D03*
X166275000Y-60725000D03*
X174750000Y-72250000D03*
%TO.N,UART2_RX*%
X182750000Y-72500000D03*
X184750000Y-81250000D03*
X184750000Y-97500000D03*
%TO.N,Net-(U1-IO0)*%
X201500000Y-59000000D03*
X196750000Y-62500000D03*
%TO.N,UART1_RX*%
X207250000Y-68750000D03*
X199750000Y-62500000D03*
X203000000Y-65500000D03*
%TO.N,UART1_TX*%
X199000000Y-63250000D03*
X202000000Y-65500000D03*
%TO.N,UART2_TX*%
X183500000Y-82500000D03*
X183500000Y-100000000D03*
X181500000Y-72500000D03*
%TO.N,PWM_OUT_E*%
X171250000Y-83500000D03*
%TO.N,PWM_OUT_N*%
X177375000Y-93375000D03*
%TO.N,PWM_DOUT*%
X165750000Y-84250000D03*
%TO.N,PWM_3V3*%
X167505000Y-76500000D03*
X172500000Y-72250000D03*
%TO.N,PWM_SEL*%
X173719669Y-72280331D03*
X173750000Y-82500000D03*
%TO.N,Net-(C5-Pad2)*%
X201500000Y-94500000D03*
X201500000Y-93000000D03*
%TO.N,N_SENS*%
X180000000Y-72500000D03*
X182500000Y-95000000D03*
X182500000Y-82500000D03*
%TO.N,E_SENS*%
X224000000Y-62000000D03*
X220500000Y-62000000D03*
%TO.N,STATUS*%
X204000000Y-65500000D03*
X200500000Y-62000000D03*
%TO.N,Net-(U4-Y)*%
X170500000Y-87500000D03*
X171611765Y-86388235D03*
%TD*%
D52*
%TO.N,Net-(U1-EN)*%
X166275000Y-52500000D02*
X165980000Y-52500000D01*
X166786000Y-51989000D02*
X166275000Y-52500000D01*
%TO.N,GND*%
X165631000Y-53111000D02*
X165020000Y-52500000D01*
X166889110Y-53111000D02*
X165631000Y-53111000D01*
X167260110Y-52740000D02*
X166889110Y-53111000D01*
X158345000Y-64630000D02*
X157430000Y-65545000D01*
X163500000Y-62175000D02*
X163145532Y-62175000D01*
X168250000Y-52740000D02*
X167260110Y-52740000D01*
D53*
X202000000Y-70500000D02*
X199500000Y-68000000D01*
X201500000Y-71500000D02*
X202000000Y-71500000D01*
X198500000Y-72500000D02*
X198500000Y-69000000D01*
X191200000Y-75800000D02*
X191200000Y-73700000D01*
D52*
X161179468Y-64475000D02*
X158345000Y-64475000D01*
X171250000Y-84750000D02*
X170800000Y-85200000D01*
X161540000Y-79960000D02*
X161500000Y-80000000D01*
D53*
X202000000Y-71500000D02*
X202000000Y-70500000D01*
X191200000Y-73700000D02*
X191000000Y-73500000D01*
D52*
X163000000Y-79960000D02*
X164674000Y-78286000D01*
X164975001Y-75550000D02*
X165637500Y-75550000D01*
X226000000Y-77000000D02*
X226000000Y-79500000D01*
X172750000Y-84000000D02*
X172000000Y-84000000D01*
D53*
X198500000Y-68000000D02*
X199500000Y-67000000D01*
D52*
X164674000Y-75851001D02*
X164975001Y-75550000D01*
X158345000Y-57820000D02*
X157430000Y-56905000D01*
X163145532Y-62175000D02*
X162188500Y-63132032D01*
D53*
X199500000Y-67000000D02*
X200500000Y-68000000D01*
D52*
X199212500Y-89665000D02*
X197285000Y-89665000D01*
D53*
X199500000Y-67000000D02*
X199500000Y-68000000D01*
D52*
X201500000Y-89000000D02*
X200835000Y-89665000D01*
X158345000Y-57975000D02*
X158345000Y-57820000D01*
D53*
X197000000Y-80500000D02*
X194000000Y-80500000D01*
D52*
X200835000Y-89665000D02*
X199212500Y-89665000D01*
X162188500Y-63132032D02*
X162188500Y-63465968D01*
X162188500Y-63465968D02*
X161179468Y-64475000D01*
X170800000Y-85200000D02*
X169275000Y-85200000D01*
X197285000Y-89665000D02*
X196650000Y-90300000D01*
X163000000Y-79960000D02*
X161540000Y-79960000D01*
X164674000Y-78286000D02*
X164674000Y-75851001D01*
D53*
X204500000Y-71500000D02*
X202000000Y-71500000D01*
D52*
X168250000Y-52740000D02*
X169740000Y-52740000D01*
X172000000Y-84000000D02*
X171250000Y-84750000D01*
D53*
X198500000Y-69000000D02*
X199500000Y-68000000D01*
D52*
X158345000Y-64475000D02*
X158345000Y-64630000D01*
X169740000Y-52740000D02*
X170000000Y-53000000D01*
D54*
%TO.N,+3.3V*%
X166562500Y-54000000D02*
X168240000Y-54000000D01*
D52*
X193500000Y-68000000D02*
X193500000Y-67950000D01*
D54*
X166275000Y-60725000D02*
X166275000Y-57000000D01*
X184809999Y-73520000D02*
X179000000Y-73520000D01*
X166275000Y-57000000D02*
X166275000Y-54650000D01*
X212030000Y-65000000D02*
X211850000Y-65000000D01*
D52*
X219000000Y-74250000D02*
X219000000Y-72250000D01*
D54*
X210500000Y-63650000D02*
X205000000Y-63650000D01*
X193500000Y-69500000D02*
X188510000Y-69500000D01*
X174750000Y-72250000D02*
X176020000Y-73520000D01*
X218510000Y-63500000D02*
X219000000Y-63010000D01*
X208490000Y-58000000D02*
X207000000Y-58000000D01*
X192960000Y-67460000D02*
X192500000Y-67460000D01*
X193500000Y-75800000D02*
X193500000Y-69500000D01*
X193500000Y-67950000D02*
X194500000Y-66950000D01*
X213210001Y-63500000D02*
X218510000Y-63500000D01*
X188510000Y-69819999D02*
X184809999Y-73520000D01*
X193500000Y-68000000D02*
X192960000Y-67460000D01*
X206000000Y-62650000D02*
X205000000Y-63650000D01*
X212030000Y-65000000D02*
X212030000Y-64680001D01*
X188510000Y-69500000D02*
X188510000Y-69819999D01*
X212030000Y-64680001D02*
X213210001Y-63500000D01*
X196700000Y-66950000D02*
X194500000Y-66950000D01*
X193500000Y-69500000D02*
X193500000Y-68000000D01*
X200000000Y-63650000D02*
X196700000Y-66950000D01*
D52*
X166062500Y-54500000D02*
X166562500Y-54000000D01*
D54*
X219000000Y-63010000D02*
X219000000Y-72250000D01*
X176020000Y-73520000D02*
X179000000Y-73520000D01*
D52*
X219000000Y-79750000D02*
X219000000Y-76000000D01*
D54*
X166275000Y-54650000D02*
X166125000Y-54500000D01*
X211850000Y-65000000D02*
X210500000Y-63650000D01*
X206000000Y-62000000D02*
X206000000Y-62650000D01*
X205000000Y-63650000D02*
X200000000Y-63650000D01*
D52*
X168240000Y-54000000D02*
X168250000Y-54010000D01*
%TO.N,+5V*%
X207436000Y-90315000D02*
X209251000Y-88500000D01*
X209251000Y-80251000D02*
X206000000Y-77000000D01*
X216961000Y-80251000D02*
X219000000Y-82290000D01*
X209251000Y-80251000D02*
X216961000Y-80251000D01*
X175125000Y-86750000D02*
X174650000Y-86275000D01*
X176020000Y-86750000D02*
X176020000Y-86730000D01*
X176020000Y-86750000D02*
X175125000Y-86750000D01*
X209251000Y-88500000D02*
X209251000Y-80251000D01*
X165250000Y-85250000D02*
X166950000Y-85250000D01*
X204500000Y-90315000D02*
X207436000Y-90315000D01*
X166950000Y-85250000D02*
X167000000Y-85200000D01*
D53*
%TO.N,+24V*%
X186500000Y-90400000D02*
X186500000Y-98500000D01*
X187000000Y-90400000D02*
X189500000Y-90400000D01*
D52*
X219000000Y-84830000D02*
X221830000Y-82000000D01*
D53*
X191500000Y-90400000D02*
X192225000Y-90400000D01*
D52*
X221830000Y-82000000D02*
X226000000Y-82000000D01*
D53*
X191583236Y-90400000D02*
X189500000Y-90400000D01*
X192960000Y-89665000D02*
X194087500Y-89665000D01*
X192225000Y-90400000D02*
X192960000Y-89665000D01*
D55*
%TO.N,Net-(D1-K)*%
X198800000Y-84800000D02*
X197000000Y-84800000D01*
D52*
X194500000Y-86000000D02*
X193500000Y-86000000D01*
D55*
X200500000Y-86500000D02*
X198800000Y-84800000D01*
X200990000Y-86500000D02*
X200500000Y-86500000D01*
X206000000Y-86500000D02*
X200990000Y-86500000D01*
X200990000Y-86500000D02*
X199326000Y-88164000D01*
D52*
X195700000Y-84800000D02*
X194500000Y-86000000D01*
X197000000Y-84800000D02*
X195700000Y-84800000D01*
%TO.N,UART2_RX*%
X184750000Y-81250000D02*
X184750000Y-97500000D01*
X182715000Y-70500000D02*
X182750000Y-70535000D01*
X182750000Y-70535000D02*
X182750000Y-72500000D01*
%TO.N,DM*%
X168230000Y-68000000D02*
X168250000Y-67980000D01*
X166510000Y-68000000D02*
X168230000Y-68000000D01*
%TO.N,DP*%
X168000000Y-69500000D02*
X168250000Y-69250000D01*
X166510000Y-69500000D02*
X168000000Y-69500000D01*
%TO.N,Net-(U1-EN)*%
X212000000Y-57700000D02*
X209810000Y-57700000D01*
X209510000Y-58000000D02*
X209510000Y-54510000D01*
X172491000Y-51989000D02*
X169200000Y-55280000D01*
X206989000Y-51989000D02*
X172491000Y-51989000D01*
X166786000Y-51989000D02*
X172491000Y-51989000D01*
X209810000Y-57700000D02*
X209510000Y-58000000D01*
X169200000Y-55280000D02*
X168250000Y-55280000D01*
X209510000Y-54510000D02*
X206989000Y-51989000D01*
%TO.N,Net-(U1-IO0)*%
X187490000Y-69500000D02*
X187490000Y-65010000D01*
X218000000Y-57700000D02*
X216700000Y-59000000D01*
X187490000Y-69500000D02*
X186000000Y-69500000D01*
X186000000Y-69500000D02*
X185750000Y-69250000D01*
X190000000Y-62500000D02*
X196750000Y-62500000D01*
X187490000Y-65010000D02*
X190000000Y-62500000D01*
X216700000Y-59000000D02*
X201500000Y-59000000D01*
%TO.N,UART1_RX*%
X187000000Y-61000000D02*
X198250000Y-61000000D01*
X185750000Y-61630000D02*
X186370000Y-61630000D01*
X186370000Y-61630000D02*
X187000000Y-61000000D01*
X198250000Y-61000000D02*
X199750000Y-62500000D01*
X203000000Y-65500000D02*
X206250000Y-68750000D01*
X206250000Y-68750000D02*
X207250000Y-68750000D01*
%TO.N,UART1_TX*%
X211601000Y-75101000D02*
X225399000Y-75101000D01*
X225399000Y-75101000D02*
X225716450Y-74783550D01*
X197500000Y-61750000D02*
X199000000Y-63250000D01*
X185750000Y-62900000D02*
X186350000Y-62900000D01*
X202000000Y-65500000D02*
X211601000Y-75101000D01*
X187500000Y-61750000D02*
X197500000Y-61750000D01*
X186350000Y-62900000D02*
X187500000Y-61750000D01*
%TO.N,UART2_TX*%
X181445000Y-72445000D02*
X181500000Y-72500000D01*
X183500000Y-82500000D02*
X183500000Y-100000000D01*
X181445000Y-70500000D02*
X181445000Y-72445000D01*
%TO.N,PWM_OUT_E*%
X171250000Y-83500000D02*
X170500000Y-84250000D01*
X170500000Y-84250000D02*
X169275000Y-84250000D01*
%TO.N,UART0_TX*%
X193410000Y-56550000D02*
X185750000Y-56550000D01*
X195460000Y-54500000D02*
X193410000Y-56550000D01*
%TO.N,UART0_RX*%
X198000000Y-54500000D02*
X194680000Y-57820000D01*
X194680000Y-57820000D02*
X185750000Y-57820000D01*
%TO.N,Net-(D4-K)*%
X212975000Y-66500000D02*
X214490000Y-66500000D01*
%TO.N,Net-(P1-CC)*%
X159322000Y-59975000D02*
X159371000Y-59926000D01*
X158345000Y-59975000D02*
X159322000Y-59975000D01*
X159371000Y-59926000D02*
X159371000Y-57163215D01*
X157207785Y-55000000D02*
X156510000Y-55000000D01*
X159371000Y-57163215D02*
X157207785Y-55000000D01*
%TO.N,Net-(P1-D-)*%
X161225000Y-61225000D02*
X160975000Y-61475000D01*
X160975000Y-61475000D02*
X158345000Y-61475000D01*
%TO.N,Net-(P1-D+)*%
X161225000Y-63125000D02*
X161579468Y-63125000D01*
X161928468Y-60624000D02*
X159673000Y-60624000D01*
X159322000Y-60975000D02*
X158345000Y-60975000D01*
X161579468Y-63125000D02*
X162188500Y-62515968D01*
X162188500Y-60884032D02*
X161928468Y-60624000D01*
X159673000Y-60624000D02*
X159322000Y-60975000D01*
X162188500Y-62515968D02*
X162188500Y-60884032D01*
%TO.N,PWM_OUT_N*%
X170150000Y-86150000D02*
X169275000Y-86150000D01*
X177375000Y-93375000D02*
X170150000Y-86150000D01*
%TO.N,PWM_5V*%
X156850000Y-75550000D02*
X156550000Y-75250000D01*
X163362500Y-75550000D02*
X156850000Y-75550000D01*
%TO.N,PWM_DOUT*%
X167000000Y-84250000D02*
X165750000Y-84250000D01*
%TO.N,PWM_3V3*%
X172555000Y-70500000D02*
X172555000Y-72195000D01*
X169005000Y-78000000D02*
X170250000Y-78000000D01*
X167505000Y-76500000D02*
X169005000Y-78000000D01*
X172555000Y-72195000D02*
X172500000Y-72250000D01*
X165637500Y-76500000D02*
X167505000Y-76500000D01*
%TO.N,PWM_SEL*%
X173750000Y-83950000D02*
X173700000Y-84000000D01*
X173825000Y-72175000D02*
X173719669Y-72280331D01*
X173825000Y-70500000D02*
X173825000Y-72175000D01*
X173750000Y-82500000D02*
X173750000Y-83950000D01*
%TO.N,Net-(C5-Pad2)*%
X201500000Y-92020000D02*
X201500000Y-93000000D01*
X201500000Y-94500000D02*
X198450000Y-94500000D01*
%TO.N,Net-(U3-COMP)*%
X201500000Y-89960000D02*
X201500000Y-91000000D01*
X199277500Y-91000000D02*
X199212500Y-90935000D01*
X201500000Y-91000000D02*
X199277500Y-91000000D01*
%TO.N,Net-(U3-BOOT)*%
X193500000Y-87807500D02*
X194087500Y-88395000D01*
X193500000Y-86960000D02*
X193500000Y-87807500D01*
%TO.N,Net-(U2-VBUS)*%
X160562501Y-62175000D02*
X159062501Y-63675000D01*
X158345000Y-63700000D02*
X157568000Y-63700000D01*
X157568000Y-58800000D02*
X156500000Y-59868000D01*
X161225000Y-62175000D02*
X160562501Y-62175000D01*
X156250000Y-62382000D02*
X156250000Y-60118000D01*
X159062501Y-63675000D02*
X158345000Y-63675000D01*
X158345000Y-58800000D02*
X157568000Y-58800000D01*
X157568000Y-63700000D02*
X156250000Y-62382000D01*
X156250000Y-60118000D02*
X156500000Y-59868000D01*
%TO.N,Net-(U3-RT{slash}CLK)*%
X192010000Y-92500000D02*
X193792500Y-92500000D01*
X193792500Y-92500000D02*
X194087500Y-92205000D01*
%TO.N,Net-(U3-FB)*%
X204500000Y-91650000D02*
X204500000Y-93325000D01*
X199212500Y-92205000D02*
X200608500Y-93601000D01*
X204399000Y-93601000D02*
X204500000Y-93500000D01*
X200608500Y-93601000D02*
X204399000Y-93601000D01*
%TO.N,Net-(D3-K)*%
X213000000Y-65000000D02*
X214515000Y-65000000D01*
%TO.N,N_SENS*%
X182500000Y-95000000D02*
X182500000Y-82500000D01*
X178905000Y-70500000D02*
X178905000Y-72405000D01*
X178905000Y-72405000D02*
X179000000Y-72500000D01*
X180000000Y-72500000D02*
X179000000Y-72500000D01*
%TO.N,E_SENS*%
X219010000Y-62000000D02*
X219000000Y-61990000D01*
X186160000Y-59500000D02*
X194500000Y-59500000D01*
X225990000Y-61990000D02*
X226000000Y-62000000D01*
X194750000Y-59750000D02*
X216760000Y-59750000D01*
X220500000Y-62000000D02*
X219010000Y-62000000D01*
X216760000Y-59750000D02*
X219000000Y-61990000D01*
X194500000Y-59500000D02*
X194750000Y-59750000D01*
X226000000Y-62000000D02*
X224000000Y-62000000D01*
X185750000Y-59090000D02*
X186160000Y-59500000D01*
%TO.N,STATUS*%
X212005000Y-66500000D02*
X205000000Y-66500000D01*
X198860000Y-60360000D02*
X185750000Y-60360000D01*
X205000000Y-66500000D02*
X204000000Y-65500000D01*
X200500000Y-62000000D02*
X198860000Y-60360000D01*
%TO.N,Net-(R5-Pad2)*%
X163500000Y-63125000D02*
X163500000Y-67510000D01*
X163500000Y-67510000D02*
X165490000Y-69500000D01*
%TO.N,Net-(R6-Pad2)*%
X164463500Y-67463500D02*
X165000000Y-68000000D01*
X163500000Y-61225000D02*
X164162499Y-61225000D01*
X164162499Y-61225000D02*
X164463500Y-61526001D01*
X164463500Y-61526001D02*
X164463500Y-67463500D01*
X165000000Y-68000000D02*
X165490000Y-68000000D01*
%TO.N,Net-(U4-Y)*%
X171725000Y-86275000D02*
X171611765Y-86388235D01*
X170400000Y-87400000D02*
X168250000Y-87400000D01*
X172750000Y-86275000D02*
X171725000Y-86275000D01*
X168250000Y-87400000D02*
X167000000Y-86150000D01*
X170500000Y-87500000D02*
X170400000Y-87400000D01*
X167354468Y-86150000D02*
X167000000Y-86150000D01*
%TD*%
%TA.AperFunction,Conductor*%
%TO.N,+5V*%
G36*
X167213922Y-70117323D02*
G01*
X167244900Y-70134238D01*
X167257665Y-70143793D01*
X167257671Y-70143797D01*
X167392517Y-70194091D01*
X167392516Y-70194091D01*
X167399444Y-70194835D01*
X167452127Y-70200500D01*
X168940500Y-70200499D01*
X169007539Y-70220184D01*
X169053294Y-70272987D01*
X169064500Y-70324499D01*
X169064500Y-71297870D01*
X169064501Y-71297876D01*
X169070908Y-71357483D01*
X169121202Y-71492328D01*
X169121206Y-71492335D01*
X169207452Y-71607544D01*
X169207455Y-71607547D01*
X169322664Y-71693793D01*
X169322671Y-71693797D01*
X169457517Y-71744091D01*
X169457516Y-71744091D01*
X169464444Y-71744835D01*
X169517127Y-71750500D01*
X170512872Y-71750499D01*
X170572483Y-71744091D01*
X170606667Y-71731340D01*
X170676358Y-71726357D01*
X170693327Y-71731338D01*
X170727517Y-71744091D01*
X170787127Y-71750500D01*
X171654865Y-71750499D01*
X171721904Y-71770183D01*
X171767659Y-71822987D01*
X171777603Y-71892146D01*
X171769427Y-71921950D01*
X171730263Y-72016503D01*
X171730261Y-72016510D01*
X171699500Y-72171153D01*
X171699500Y-72328846D01*
X171730261Y-72483489D01*
X171730264Y-72483501D01*
X171790602Y-72629172D01*
X171790609Y-72629185D01*
X171878210Y-72760288D01*
X171878213Y-72760292D01*
X171989707Y-72871786D01*
X171989711Y-72871789D01*
X172120814Y-72959390D01*
X172120827Y-72959397D01*
X172266498Y-73019735D01*
X172266503Y-73019737D01*
X172418976Y-73050066D01*
X172421153Y-73050499D01*
X172421156Y-73050500D01*
X172421158Y-73050500D01*
X172578844Y-73050500D01*
X172578845Y-73050499D01*
X172733497Y-73019737D01*
X172879179Y-72959394D01*
X173010289Y-72871789D01*
X173010291Y-72871786D01*
X173014993Y-72867928D01*
X173016581Y-72869863D01*
X173068250Y-72841618D01*
X173137944Y-72846568D01*
X173182349Y-72875090D01*
X173209376Y-72902117D01*
X173209380Y-72902120D01*
X173340483Y-72989721D01*
X173340496Y-72989728D01*
X173428281Y-73026089D01*
X173486172Y-73050068D01*
X173640822Y-73080830D01*
X173640825Y-73080831D01*
X173640827Y-73080831D01*
X173798513Y-73080831D01*
X173798514Y-73080830D01*
X173953166Y-73050068D01*
X174098848Y-72989725D01*
X174098853Y-72989721D01*
X174098856Y-72989720D01*
X174144247Y-72959390D01*
X174188640Y-72929727D01*
X174203559Y-72925055D01*
X174216241Y-72915905D01*
X174236222Y-72914827D01*
X174255316Y-72908849D01*
X174271335Y-72912935D01*
X174286010Y-72912144D01*
X174311194Y-72923101D01*
X174318857Y-72925056D01*
X174322722Y-72927255D01*
X174370821Y-72959394D01*
X174401623Y-72972152D01*
X174408348Y-72975979D01*
X174415101Y-72982973D01*
X174434703Y-72996071D01*
X174939131Y-73500498D01*
X175437049Y-73998416D01*
X175510175Y-74071542D01*
X175541585Y-74102952D01*
X175664498Y-74185080D01*
X175664511Y-74185087D01*
X175773251Y-74230128D01*
X175801087Y-74241658D01*
X175801091Y-74241658D01*
X175801092Y-74241659D01*
X175946079Y-74270500D01*
X175946082Y-74270500D01*
X178638067Y-74270500D01*
X178672661Y-74275423D01*
X178714796Y-74287665D01*
X178750819Y-74290500D01*
X179249180Y-74290499D01*
X179285204Y-74287665D01*
X179327338Y-74275424D01*
X179361933Y-74270500D01*
X184883919Y-74270500D01*
X184981461Y-74251096D01*
X185028912Y-74241658D01*
X185165494Y-74185084D01*
X185218749Y-74149500D01*
X185288415Y-74102952D01*
X189092952Y-70298414D01*
X189092954Y-70298410D01*
X189095068Y-70295836D01*
X189096520Y-70294846D01*
X189097260Y-70294107D01*
X189097400Y-70294247D01*
X189152813Y-70256501D01*
X189190922Y-70250500D01*
X191037529Y-70250500D01*
X191104568Y-70270185D01*
X191150323Y-70322989D01*
X191156744Y-70340387D01*
X191166088Y-70373043D01*
X191166090Y-70373048D01*
X191166091Y-70373049D01*
X191260302Y-70553407D01*
X191294977Y-70595933D01*
X191388890Y-70711109D01*
X191475025Y-70781342D01*
X191546593Y-70839698D01*
X191726951Y-70933909D01*
X191922582Y-70989886D01*
X192041963Y-71000500D01*
X192625500Y-71000499D01*
X192692539Y-71020183D01*
X192738294Y-71072987D01*
X192749500Y-71124499D01*
X192749500Y-74307057D01*
X192729815Y-74374096D01*
X192680595Y-74418145D01*
X192650704Y-74432969D01*
X192502280Y-74552276D01*
X192446647Y-74621486D01*
X192428351Y-74634221D01*
X192413140Y-74650519D01*
X192400231Y-74653796D01*
X192389303Y-74661404D01*
X192367025Y-74662227D01*
X192345419Y-74667713D01*
X192332790Y-74663492D01*
X192319481Y-74663984D01*
X192300293Y-74652630D01*
X192279152Y-74645565D01*
X192263222Y-74630697D01*
X192259349Y-74628405D01*
X192253351Y-74621483D01*
X192227851Y-74589758D01*
X192201194Y-74525173D01*
X192200500Y-74512073D01*
X192200500Y-73601457D01*
X192193063Y-73564070D01*
X192193063Y-73564069D01*
X192178794Y-73492335D01*
X192162052Y-73408165D01*
X192134939Y-73342710D01*
X192121507Y-73310281D01*
X192121495Y-73310254D01*
X192116365Y-73297870D01*
X192086632Y-73226086D01*
X191977139Y-73062218D01*
X191837782Y-72922861D01*
X191837780Y-72922860D01*
X191830714Y-72915794D01*
X191830714Y-72915793D01*
X191830710Y-72915790D01*
X191637784Y-72722863D01*
X191637780Y-72722860D01*
X191473920Y-72613372D01*
X191473910Y-72613367D01*
X191291836Y-72537949D01*
X191291828Y-72537947D01*
X191098543Y-72499500D01*
X191098540Y-72499500D01*
X190901460Y-72499500D01*
X190901457Y-72499500D01*
X190708171Y-72537947D01*
X190708163Y-72537949D01*
X190526089Y-72613367D01*
X190526079Y-72613372D01*
X190362219Y-72722860D01*
X190362215Y-72722863D01*
X190222863Y-72862215D01*
X190222860Y-72862219D01*
X190113372Y-73026079D01*
X190113367Y-73026089D01*
X190037949Y-73208163D01*
X190037947Y-73208171D01*
X189999500Y-73401455D01*
X189999500Y-73598544D01*
X190037947Y-73791828D01*
X190037949Y-73791836D01*
X190113367Y-73973910D01*
X190113372Y-73973920D01*
X190178602Y-74071542D01*
X190199480Y-74138219D01*
X190199500Y-74140433D01*
X190199500Y-74512073D01*
X190179815Y-74579112D01*
X190172148Y-74589760D01*
X190082971Y-74700702D01*
X189998361Y-74871303D01*
X189998359Y-74871307D01*
X189995720Y-74881919D01*
X189952400Y-75056107D01*
X189949500Y-75098879D01*
X189949500Y-76501122D01*
X189949501Y-76501125D01*
X189952399Y-76543886D01*
X189952399Y-76543887D01*
X189998360Y-76728696D01*
X190082967Y-76899292D01*
X190082969Y-76899295D01*
X190202277Y-77047721D01*
X190202278Y-77047722D01*
X190350704Y-77167030D01*
X190350707Y-77167032D01*
X190521302Y-77251639D01*
X190521303Y-77251639D01*
X190521307Y-77251641D01*
X190706111Y-77297600D01*
X190748877Y-77300500D01*
X191651122Y-77300499D01*
X191693889Y-77297600D01*
X191878693Y-77251641D01*
X192049296Y-77167030D01*
X192197722Y-77047722D01*
X192253353Y-76978514D01*
X192310696Y-76938595D01*
X192380518Y-76936015D01*
X192440651Y-76971594D01*
X192446647Y-76978514D01*
X192502277Y-77047721D01*
X192502278Y-77047722D01*
X192650704Y-77167030D01*
X192650707Y-77167032D01*
X192821302Y-77251639D01*
X192821303Y-77251639D01*
X192821307Y-77251641D01*
X193006111Y-77297600D01*
X193048877Y-77300500D01*
X193951122Y-77300499D01*
X193993889Y-77297600D01*
X194178693Y-77251641D01*
X194349296Y-77167030D01*
X194497722Y-77047722D01*
X194617030Y-76899296D01*
X194701641Y-76728693D01*
X194747600Y-76543889D01*
X194750500Y-76501123D01*
X194750499Y-75098878D01*
X194747600Y-75056111D01*
X194701641Y-74871307D01*
X194642670Y-74752402D01*
X194617032Y-74700707D01*
X194617030Y-74700704D01*
X194497722Y-74552278D01*
X194497721Y-74552277D01*
X194349295Y-74432969D01*
X194319405Y-74418145D01*
X194268092Y-74370723D01*
X194250500Y-74307057D01*
X194250500Y-71124499D01*
X194270185Y-71057460D01*
X194322989Y-71011705D01*
X194374500Y-71000499D01*
X194958028Y-71000499D01*
X194958036Y-71000499D01*
X195077418Y-70989886D01*
X195273049Y-70933909D01*
X195453407Y-70839698D01*
X195611109Y-70711109D01*
X195739698Y-70553407D01*
X195742512Y-70548018D01*
X195790996Y-70497709D01*
X195858983Y-70481599D01*
X195878940Y-70484593D01*
X195878976Y-70484414D01*
X195882075Y-70485022D01*
X195882078Y-70485022D01*
X195882080Y-70485023D01*
X195882084Y-70485024D01*
X196024500Y-70505500D01*
X197375500Y-70505500D01*
X197442539Y-70525185D01*
X197488294Y-70577989D01*
X197499500Y-70629500D01*
X197499500Y-71662770D01*
X197479815Y-71729809D01*
X197463181Y-71750451D01*
X197432289Y-71781342D01*
X197340187Y-71930663D01*
X197340185Y-71930668D01*
X197320620Y-71989711D01*
X197285001Y-72097203D01*
X197285001Y-72097204D01*
X197285000Y-72097204D01*
X197274500Y-72199983D01*
X197274500Y-72800001D01*
X197274501Y-72800019D01*
X197285000Y-72902796D01*
X197285001Y-72902799D01*
X197313806Y-72989725D01*
X197340186Y-73069334D01*
X197432288Y-73218656D01*
X197556344Y-73342712D01*
X197705666Y-73434814D01*
X197872203Y-73489999D01*
X197974991Y-73500500D01*
X198401456Y-73500499D01*
X198401459Y-73500500D01*
X198598541Y-73500500D01*
X198598543Y-73500499D01*
X199025008Y-73500499D01*
X199127797Y-73489999D01*
X199294334Y-73434814D01*
X199443656Y-73342712D01*
X199567712Y-73218656D01*
X199659814Y-73069334D01*
X199714999Y-72902797D01*
X199725500Y-72800009D01*
X199725499Y-72199992D01*
X199719144Y-72137785D01*
X199714999Y-72097203D01*
X199714998Y-72097200D01*
X199688260Y-72016510D01*
X199659814Y-71930666D01*
X199567712Y-71781344D01*
X199536819Y-71750451D01*
X199503334Y-71689128D01*
X199500500Y-71662770D01*
X199500500Y-70629500D01*
X199520185Y-70562461D01*
X199572989Y-70516706D01*
X199624500Y-70505500D01*
X200539218Y-70505500D01*
X200568658Y-70514144D01*
X200598645Y-70520668D01*
X200603660Y-70524422D01*
X200606257Y-70525185D01*
X200626899Y-70541819D01*
X200747398Y-70662318D01*
X200780883Y-70723641D01*
X200775899Y-70793333D01*
X200747400Y-70837679D01*
X200722858Y-70862221D01*
X200613371Y-71026079D01*
X200613364Y-71026092D01*
X200537950Y-71208160D01*
X200537947Y-71208170D01*
X200499500Y-71401456D01*
X200499500Y-71401459D01*
X200499500Y-71598541D01*
X200499500Y-71598543D01*
X200499499Y-71598543D01*
X200537947Y-71791829D01*
X200537950Y-71791839D01*
X200613364Y-71973907D01*
X200613371Y-71973920D01*
X200722860Y-72137781D01*
X200722863Y-72137785D01*
X200862214Y-72277136D01*
X200862218Y-72277139D01*
X201026079Y-72386628D01*
X201026092Y-72386635D01*
X201208160Y-72462049D01*
X201208165Y-72462051D01*
X201208169Y-72462051D01*
X201208170Y-72462052D01*
X201401456Y-72500500D01*
X201401459Y-72500500D01*
X204612975Y-72500500D01*
X204612983Y-72500499D01*
X205025002Y-72500499D01*
X205025008Y-72500499D01*
X205127797Y-72489999D01*
X205294334Y-72434814D01*
X205443656Y-72342712D01*
X205567712Y-72218656D01*
X205659814Y-72069334D01*
X205714999Y-71902797D01*
X205725500Y-71800009D01*
X205725499Y-71199992D01*
X205714999Y-71097203D01*
X205659814Y-70930666D01*
X205567712Y-70781344D01*
X205469787Y-70683419D01*
X205436302Y-70622096D01*
X205441286Y-70552404D01*
X205483158Y-70496471D01*
X205531119Y-70474570D01*
X205536904Y-70473312D01*
X205602368Y-70448895D01*
X205728643Y-70379944D01*
X205791998Y-70316589D01*
X205853321Y-70283107D01*
X205923012Y-70288093D01*
X205967358Y-70316593D01*
X211116139Y-75465374D01*
X211116149Y-75465385D01*
X211120479Y-75469715D01*
X211120480Y-75469716D01*
X211232284Y-75581520D01*
X211232286Y-75581521D01*
X211232290Y-75581524D01*
X211369209Y-75660573D01*
X211369216Y-75660577D01*
X211481019Y-75690534D01*
X211521942Y-75701500D01*
X211521943Y-75701500D01*
X218092098Y-75701500D01*
X218159137Y-75721185D01*
X218204892Y-75773989D01*
X218214836Y-75843147D01*
X218213715Y-75849691D01*
X218199500Y-75921153D01*
X218199500Y-76078846D01*
X218230261Y-76233489D01*
X218230264Y-76233501D01*
X218290602Y-76379172D01*
X218290609Y-76379185D01*
X218378602Y-76510874D01*
X218399480Y-76577551D01*
X218399500Y-76579765D01*
X218399500Y-78275500D01*
X218379815Y-78342539D01*
X218327011Y-78388294D01*
X218275501Y-78399500D01*
X218102130Y-78399500D01*
X218102123Y-78399501D01*
X218042516Y-78405908D01*
X217907671Y-78456202D01*
X217907664Y-78456206D01*
X217792455Y-78542452D01*
X217792452Y-78542455D01*
X217706206Y-78657664D01*
X217706202Y-78657671D01*
X217655908Y-78792517D01*
X217649501Y-78852116D01*
X217649500Y-78852135D01*
X217649500Y-80647870D01*
X217649501Y-80647876D01*
X217655908Y-80707483D01*
X217706202Y-80842328D01*
X217706206Y-80842335D01*
X217792452Y-80957544D01*
X217792455Y-80957547D01*
X217907664Y-81043793D01*
X217907671Y-81043797D01*
X218042517Y-81094091D01*
X218042516Y-81094091D01*
X218049444Y-81094835D01*
X218102127Y-81100500D01*
X219897872Y-81100499D01*
X219957483Y-81094091D01*
X220092331Y-81043796D01*
X220207546Y-80957546D01*
X220276735Y-80865121D01*
X220332667Y-80823252D01*
X220402359Y-80818268D01*
X220463682Y-80851753D01*
X220497166Y-80913077D01*
X220500000Y-80939434D01*
X220500000Y-82429402D01*
X220480315Y-82496441D01*
X220463681Y-82517083D01*
X219484522Y-83496241D01*
X219423199Y-83529726D01*
X219358523Y-83526491D01*
X219316245Y-83512754D01*
X219133183Y-83483760D01*
X219106287Y-83479500D01*
X218893713Y-83479500D01*
X218886339Y-83480668D01*
X218683760Y-83512753D01*
X218481585Y-83578444D01*
X218292179Y-83674951D01*
X218120213Y-83799890D01*
X217969890Y-83950213D01*
X217844951Y-84122179D01*
X217748444Y-84311585D01*
X217682753Y-84513760D01*
X217649500Y-84723713D01*
X217649500Y-84936286D01*
X217677547Y-85113371D01*
X217682754Y-85146243D01*
X217743169Y-85332181D01*
X217743170Y-85332182D01*
X217745165Y-85402023D01*
X217709085Y-85461856D01*
X217646384Y-85492684D01*
X217625239Y-85494500D01*
X209975500Y-85494500D01*
X209975491Y-85494500D01*
X209975490Y-85494501D01*
X209868049Y-85506052D01*
X209868037Y-85506054D01*
X209816527Y-85517260D01*
X209714002Y-85551383D01*
X209713996Y-85551386D01*
X209592962Y-85629171D01*
X209592951Y-85629179D01*
X209540159Y-85674923D01*
X209445933Y-85783664D01*
X209445930Y-85783668D01*
X209386160Y-85914542D01*
X209384616Y-85918685D01*
X209382696Y-85917969D01*
X209349460Y-85969702D01*
X209285908Y-85998735D01*
X209268244Y-86000000D01*
X208624499Y-86000000D01*
X208557460Y-85980315D01*
X208511705Y-85927511D01*
X208500499Y-85876000D01*
X208500499Y-84949998D01*
X208500498Y-84949981D01*
X208489999Y-84847203D01*
X208489998Y-84847200D01*
X208470912Y-84789602D01*
X208434814Y-84680666D01*
X208342712Y-84531344D01*
X208218656Y-84407288D01*
X208076296Y-84319480D01*
X208069336Y-84315187D01*
X208069331Y-84315185D01*
X208050551Y-84308962D01*
X207902797Y-84260001D01*
X207902795Y-84260000D01*
X207800010Y-84249500D01*
X204199998Y-84249500D01*
X204199981Y-84249501D01*
X204097203Y-84260000D01*
X204097200Y-84260001D01*
X203930668Y-84315185D01*
X203930663Y-84315187D01*
X203781342Y-84407289D01*
X203657289Y-84531342D01*
X203565187Y-84680663D01*
X203565185Y-84680668D01*
X203510001Y-84847204D01*
X203510000Y-84847205D01*
X203505823Y-84888102D01*
X203479427Y-84952793D01*
X203422247Y-84992945D01*
X203382465Y-84999500D01*
X201172889Y-84999500D01*
X201105850Y-84979815D01*
X201085208Y-84963181D01*
X199777511Y-83655484D01*
X199766113Y-83647203D01*
X199586434Y-83516657D01*
X199550316Y-83498254D01*
X199375996Y-83409433D01*
X199151368Y-83336446D01*
X198918097Y-83299500D01*
X198918092Y-83299500D01*
X198512230Y-83299500D01*
X198445191Y-83279815D01*
X198424549Y-83263181D01*
X198368657Y-83207289D01*
X198368656Y-83207288D01*
X198228470Y-83120821D01*
X198219336Y-83115187D01*
X198219331Y-83115185D01*
X198217862Y-83114698D01*
X198052797Y-83060001D01*
X198052795Y-83060000D01*
X197950010Y-83049500D01*
X196049998Y-83049500D01*
X196049981Y-83049501D01*
X195947203Y-83060000D01*
X195947200Y-83060001D01*
X195780668Y-83115185D01*
X195780663Y-83115187D01*
X195631342Y-83207289D01*
X195507289Y-83331342D01*
X195415187Y-83480663D01*
X195415185Y-83480668D01*
X195395325Y-83540602D01*
X195360001Y-83647203D01*
X195360001Y-83647204D01*
X195360000Y-83647204D01*
X195349500Y-83749983D01*
X195349500Y-84249902D01*
X195329815Y-84316941D01*
X195313181Y-84337583D01*
X195219480Y-84431284D01*
X195219478Y-84431286D01*
X194736395Y-84914370D01*
X194287584Y-85363181D01*
X194260656Y-85377884D01*
X194234838Y-85394477D01*
X194228637Y-85395368D01*
X194226261Y-85396666D01*
X194199903Y-85399500D01*
X194166667Y-85399500D01*
X194099628Y-85379815D01*
X194078986Y-85363181D01*
X194065692Y-85349887D01*
X194065684Y-85349881D01*
X193926393Y-85267505D01*
X193926390Y-85267504D01*
X193770997Y-85222357D01*
X193770991Y-85222356D01*
X193734697Y-85219500D01*
X193734690Y-85219500D01*
X193265310Y-85219500D01*
X193265302Y-85219500D01*
X193229008Y-85222356D01*
X193229002Y-85222357D01*
X193073609Y-85267504D01*
X193073606Y-85267505D01*
X192934315Y-85349881D01*
X192934311Y-85349884D01*
X192819880Y-85464316D01*
X192817502Y-85467382D01*
X192815030Y-85469166D01*
X192814368Y-85469829D01*
X192814261Y-85469722D01*
X192760854Y-85508282D01*
X192701885Y-85514108D01*
X192565501Y-85494500D01*
X192565500Y-85494500D01*
X185474500Y-85494500D01*
X185407461Y-85474815D01*
X185361706Y-85422011D01*
X185350500Y-85370500D01*
X185350500Y-81829765D01*
X185370185Y-81762726D01*
X185371398Y-81760874D01*
X185371899Y-81760125D01*
X185459394Y-81629179D01*
X185519737Y-81483497D01*
X185550500Y-81328842D01*
X185550500Y-81171158D01*
X185550500Y-81171155D01*
X185550499Y-81171153D01*
X185519738Y-81016510D01*
X185519737Y-81016503D01*
X185495317Y-80957547D01*
X185459397Y-80870827D01*
X185459390Y-80870814D01*
X185371789Y-80739711D01*
X185371786Y-80739707D01*
X185260292Y-80628213D01*
X185260288Y-80628210D01*
X185215889Y-80598543D01*
X192999499Y-80598543D01*
X193037947Y-80791829D01*
X193037950Y-80791839D01*
X193113364Y-80973907D01*
X193113371Y-80973920D01*
X193222860Y-81137781D01*
X193222863Y-81137785D01*
X193362214Y-81277136D01*
X193362218Y-81277139D01*
X193526079Y-81386628D01*
X193526092Y-81386635D01*
X193655952Y-81440424D01*
X193708165Y-81462051D01*
X193708169Y-81462051D01*
X193708170Y-81462052D01*
X193901456Y-81500500D01*
X193901459Y-81500500D01*
X195232465Y-81500500D01*
X195299504Y-81520185D01*
X195345259Y-81572989D01*
X195355823Y-81611898D01*
X195360001Y-81652797D01*
X195360001Y-81652799D01*
X195407380Y-81795777D01*
X195415186Y-81819334D01*
X195507288Y-81968656D01*
X195631344Y-82092712D01*
X195780666Y-82184814D01*
X195947203Y-82239999D01*
X196049991Y-82250500D01*
X197950008Y-82250499D01*
X198052797Y-82239999D01*
X198219334Y-82184814D01*
X198368656Y-82092712D01*
X198492712Y-81968656D01*
X198584814Y-81819334D01*
X198639999Y-81652797D01*
X198650500Y-81550009D01*
X198650499Y-79449992D01*
X198643166Y-79378211D01*
X198639999Y-79347203D01*
X198639998Y-79347200D01*
X198627632Y-79309881D01*
X198584814Y-79180666D01*
X198492712Y-79031344D01*
X198368656Y-78907288D01*
X198219334Y-78815186D01*
X198052797Y-78760001D01*
X198052795Y-78760000D01*
X197950010Y-78749500D01*
X196049998Y-78749500D01*
X196049981Y-78749501D01*
X195947203Y-78760000D01*
X195947200Y-78760001D01*
X195780668Y-78815185D01*
X195780663Y-78815187D01*
X195631342Y-78907289D01*
X195507289Y-79031342D01*
X195415187Y-79180663D01*
X195415185Y-79180668D01*
X195408945Y-79199500D01*
X195372367Y-79309887D01*
X195360001Y-79347204D01*
X195360000Y-79347205D01*
X195355823Y-79388102D01*
X195329427Y-79452793D01*
X195272247Y-79492945D01*
X195232465Y-79499500D01*
X193901457Y-79499500D01*
X193708170Y-79537947D01*
X193708160Y-79537950D01*
X193526092Y-79613364D01*
X193526079Y-79613371D01*
X193362218Y-79722860D01*
X193362214Y-79722863D01*
X193222863Y-79862214D01*
X193222860Y-79862218D01*
X193113371Y-80026079D01*
X193113364Y-80026092D01*
X193037950Y-80208160D01*
X193037947Y-80208170D01*
X192999500Y-80401456D01*
X192999500Y-80401459D01*
X192999500Y-80598541D01*
X192999500Y-80598543D01*
X192999499Y-80598543D01*
X185215889Y-80598543D01*
X185129185Y-80540609D01*
X185129172Y-80540602D01*
X185055116Y-80509928D01*
X184983501Y-80480264D01*
X184983489Y-80480261D01*
X184828845Y-80449500D01*
X184828842Y-80449500D01*
X184671158Y-80449500D01*
X184671155Y-80449500D01*
X184516510Y-80480261D01*
X184516498Y-80480264D01*
X184370827Y-80540602D01*
X184370814Y-80540609D01*
X184239711Y-80628210D01*
X184239707Y-80628213D01*
X184128213Y-80739707D01*
X184128210Y-80739711D01*
X184040609Y-80870814D01*
X184040602Y-80870827D01*
X183980264Y-81016498D01*
X183980261Y-81016510D01*
X183949500Y-81171153D01*
X183949500Y-81328846D01*
X183980261Y-81483489D01*
X183980264Y-81483501D01*
X184040190Y-81628177D01*
X184047659Y-81697646D01*
X184016383Y-81760125D01*
X183956294Y-81795777D01*
X183886469Y-81793283D01*
X183878177Y-81790190D01*
X183733501Y-81730264D01*
X183733489Y-81730261D01*
X183578845Y-81699500D01*
X183578842Y-81699500D01*
X183421158Y-81699500D01*
X183421155Y-81699500D01*
X183266510Y-81730261D01*
X183266498Y-81730264D01*
X183120827Y-81790602D01*
X183120814Y-81790609D01*
X183068891Y-81825304D01*
X183002214Y-81846182D01*
X182934833Y-81827698D01*
X182931109Y-81825304D01*
X182879185Y-81790609D01*
X182879172Y-81790602D01*
X182733501Y-81730264D01*
X182733489Y-81730261D01*
X182578845Y-81699500D01*
X182578842Y-81699500D01*
X182421158Y-81699500D01*
X182421155Y-81699500D01*
X182266510Y-81730261D01*
X182266498Y-81730264D01*
X182120827Y-81790602D01*
X182120814Y-81790609D01*
X181989711Y-81878210D01*
X181989707Y-81878213D01*
X181878213Y-81989707D01*
X181878210Y-81989711D01*
X181790609Y-82120814D01*
X181790602Y-82120827D01*
X181730264Y-82266498D01*
X181730261Y-82266510D01*
X181699500Y-82421153D01*
X181699500Y-82578846D01*
X181730261Y-82733489D01*
X181730264Y-82733501D01*
X181790602Y-82879172D01*
X181790609Y-82879185D01*
X181878602Y-83010874D01*
X181899480Y-83077551D01*
X181899500Y-83079765D01*
X181899500Y-85370500D01*
X181879815Y-85437539D01*
X181827011Y-85483294D01*
X181775500Y-85494500D01*
X176778510Y-85494500D01*
X176755066Y-85496800D01*
X176680256Y-85504141D01*
X176680252Y-85504141D01*
X176680249Y-85504142D01*
X176638940Y-85512328D01*
X176632950Y-85513515D01*
X176538441Y-85542073D01*
X176414600Y-85615312D01*
X176414589Y-85615320D01*
X176360142Y-85659068D01*
X176360133Y-85659076D01*
X176261939Y-85764241D01*
X176261939Y-85764242D01*
X176197354Y-85892805D01*
X176197347Y-85892822D01*
X176189822Y-85915327D01*
X176149892Y-85972663D01*
X176085303Y-85999308D01*
X176072224Y-86000000D01*
X174433296Y-86000000D01*
X174366257Y-85980315D01*
X174320502Y-85927511D01*
X174315642Y-85915159D01*
X174298116Y-85862502D01*
X174298113Y-85862496D01*
X174247450Y-85783664D01*
X174220325Y-85741457D01*
X174205481Y-85724326D01*
X174174576Y-85688659D01*
X174174572Y-85688656D01*
X174174570Y-85688653D01*
X174065836Y-85594433D01*
X174065833Y-85594431D01*
X174065831Y-85594430D01*
X173934965Y-85534664D01*
X173934960Y-85534662D01*
X173934959Y-85534662D01*
X173867920Y-85514977D01*
X173867922Y-85514977D01*
X173867917Y-85514976D01*
X173796221Y-85504668D01*
X173725500Y-85494500D01*
X173674500Y-85494500D01*
X173674499Y-85494500D01*
X173602555Y-85499645D01*
X173590436Y-85501387D01*
X173570905Y-85498577D01*
X173551294Y-85500770D01*
X173537030Y-85493704D01*
X173521278Y-85491439D01*
X173506365Y-85478516D01*
X173488684Y-85469758D01*
X173470977Y-85447848D01*
X173468476Y-85445681D01*
X173466422Y-85442371D01*
X173466213Y-85442022D01*
X173418081Y-85360635D01*
X173416528Y-85359082D01*
X173411521Y-85350723D01*
X173404535Y-85323829D01*
X173394381Y-85297968D01*
X173395874Y-85290484D01*
X173393956Y-85283097D01*
X173402620Y-85256695D01*
X173408059Y-85229450D01*
X173413362Y-85223961D01*
X173415742Y-85216710D01*
X173437302Y-85199185D01*
X173456609Y-85179204D01*
X173464427Y-85177136D01*
X173469960Y-85172640D01*
X173489840Y-85170417D01*
X173517895Y-85163000D01*
X173915686Y-85163000D01*
X173915694Y-85163000D01*
X173952569Y-85160098D01*
X173952571Y-85160097D01*
X173952573Y-85160097D01*
X174000258Y-85146243D01*
X174110398Y-85114244D01*
X174111874Y-85113370D01*
X174113183Y-85113038D01*
X174117557Y-85111146D01*
X174117862Y-85111851D01*
X174179597Y-85096185D01*
X174232229Y-85111639D01*
X174232443Y-85111146D01*
X174236441Y-85112876D01*
X174238125Y-85113370D01*
X174239602Y-85114244D01*
X174281224Y-85126336D01*
X174397426Y-85160097D01*
X174397429Y-85160097D01*
X174397431Y-85160098D01*
X174434306Y-85163000D01*
X174434314Y-85163000D01*
X174865686Y-85163000D01*
X174865694Y-85163000D01*
X174902569Y-85160098D01*
X174902571Y-85160097D01*
X174902573Y-85160097D01*
X174950258Y-85146243D01*
X175060398Y-85114244D01*
X175201865Y-85030581D01*
X175318081Y-84914365D01*
X175401744Y-84772898D01*
X175447598Y-84615069D01*
X175450500Y-84578194D01*
X175450500Y-83421806D01*
X175447598Y-83384931D01*
X175432029Y-83331344D01*
X175401745Y-83227106D01*
X175401744Y-83227103D01*
X175401744Y-83227102D01*
X175318081Y-83085635D01*
X175318079Y-83085633D01*
X175318076Y-83085629D01*
X175201870Y-82969423D01*
X175201862Y-82969417D01*
X175060396Y-82885755D01*
X175060393Y-82885754D01*
X174902573Y-82839902D01*
X174902567Y-82839901D01*
X174865701Y-82837000D01*
X174865694Y-82837000D01*
X174650244Y-82837000D01*
X174583205Y-82817315D01*
X174537450Y-82764511D01*
X174527506Y-82695353D01*
X174528627Y-82688809D01*
X174550499Y-82578846D01*
X174550500Y-82578844D01*
X174550500Y-82421155D01*
X174550499Y-82421153D01*
X174519737Y-82266503D01*
X174519735Y-82266498D01*
X174459397Y-82120827D01*
X174459390Y-82120814D01*
X174371789Y-81989711D01*
X174371786Y-81989707D01*
X174260292Y-81878213D01*
X174260288Y-81878210D01*
X174129185Y-81790609D01*
X174129172Y-81790602D01*
X173983501Y-81730264D01*
X173983489Y-81730261D01*
X173828845Y-81699500D01*
X173828842Y-81699500D01*
X173671158Y-81699500D01*
X173671155Y-81699500D01*
X173516510Y-81730261D01*
X173516498Y-81730264D01*
X173370827Y-81790602D01*
X173370814Y-81790609D01*
X173239711Y-81878210D01*
X173239707Y-81878213D01*
X173128213Y-81989707D01*
X173128210Y-81989711D01*
X173040609Y-82120814D01*
X173040602Y-82120827D01*
X172980264Y-82266498D01*
X172980261Y-82266510D01*
X172949500Y-82421153D01*
X172949500Y-82578846D01*
X172971373Y-82688809D01*
X172965146Y-82758400D01*
X172922283Y-82813578D01*
X172856393Y-82836822D01*
X172849756Y-82837000D01*
X172534298Y-82837000D01*
X172497432Y-82839901D01*
X172497426Y-82839902D01*
X172339606Y-82885754D01*
X172339603Y-82885755D01*
X172198137Y-82969417D01*
X172198133Y-82969420D01*
X172101216Y-83066337D01*
X172039893Y-83099821D01*
X171970201Y-83094837D01*
X171914268Y-83052965D01*
X171910432Y-83047545D01*
X171899763Y-83031578D01*
X171871789Y-82989711D01*
X171871787Y-82989708D01*
X171760292Y-82878213D01*
X171760288Y-82878210D01*
X171629185Y-82790609D01*
X171629172Y-82790602D01*
X171483501Y-82730264D01*
X171483489Y-82730261D01*
X171328845Y-82699500D01*
X171328842Y-82699500D01*
X171171158Y-82699500D01*
X171171155Y-82699500D01*
X171016510Y-82730261D01*
X171016498Y-82730264D01*
X170870827Y-82790602D01*
X170870814Y-82790609D01*
X170739711Y-82878210D01*
X170739707Y-82878213D01*
X170628213Y-82989707D01*
X170628210Y-82989711D01*
X170540609Y-83120814D01*
X170540602Y-83120827D01*
X170480264Y-83266498D01*
X170480261Y-83266508D01*
X170449361Y-83421849D01*
X170440596Y-83438604D01*
X170436577Y-83457083D01*
X170417831Y-83482124D01*
X170416976Y-83483760D01*
X170415426Y-83485338D01*
X170374274Y-83526491D01*
X170338739Y-83562024D01*
X170277418Y-83595509D01*
X170207726Y-83590525D01*
X170187938Y-83581075D01*
X170090254Y-83523305D01*
X170047898Y-83498256D01*
X170047897Y-83498255D01*
X170047896Y-83498255D01*
X170047893Y-83498254D01*
X169890073Y-83452402D01*
X169890067Y-83452401D01*
X169853201Y-83449500D01*
X169853194Y-83449500D01*
X168696806Y-83449500D01*
X168696798Y-83449500D01*
X168659932Y-83452401D01*
X168659926Y-83452402D01*
X168502106Y-83498254D01*
X168502103Y-83498255D01*
X168360637Y-83581917D01*
X168360629Y-83581923D01*
X168244423Y-83698129D01*
X168244414Y-83698140D01*
X168244229Y-83698455D01*
X168244019Y-83698650D01*
X168239639Y-83704298D01*
X168238727Y-83703591D01*
X168193157Y-83746136D01*
X168124415Y-83758637D01*
X168059827Y-83731988D01*
X168035643Y-83704078D01*
X168035361Y-83704298D01*
X168031323Y-83699092D01*
X168030771Y-83698455D01*
X168030585Y-83698140D01*
X168030576Y-83698129D01*
X167914370Y-83581923D01*
X167914362Y-83581917D01*
X167815254Y-83523305D01*
X167772898Y-83498256D01*
X167772897Y-83498255D01*
X167772896Y-83498255D01*
X167772893Y-83498254D01*
X167615073Y-83452402D01*
X167615067Y-83452401D01*
X167578201Y-83449500D01*
X167578194Y-83449500D01*
X166421806Y-83449500D01*
X166421798Y-83449500D01*
X166384932Y-83452401D01*
X166384926Y-83452402D01*
X166227107Y-83498254D01*
X166227096Y-83498258D01*
X166197981Y-83515477D01*
X166130257Y-83532658D01*
X166087411Y-83523305D01*
X165983497Y-83480263D01*
X165983489Y-83480261D01*
X165828845Y-83449500D01*
X165828842Y-83449500D01*
X165671158Y-83449500D01*
X165671155Y-83449500D01*
X165516510Y-83480261D01*
X165516498Y-83480264D01*
X165370827Y-83540602D01*
X165370814Y-83540609D01*
X165239711Y-83628210D01*
X165239707Y-83628213D01*
X165128213Y-83739707D01*
X165128210Y-83739711D01*
X165040609Y-83870814D01*
X165040602Y-83870827D01*
X164980264Y-84016498D01*
X164980261Y-84016510D01*
X164949500Y-84171153D01*
X164949500Y-84328846D01*
X164980261Y-84483489D01*
X164980264Y-84483501D01*
X165040602Y-84629172D01*
X165040609Y-84629185D01*
X165128210Y-84760288D01*
X165128213Y-84760292D01*
X165239707Y-84871786D01*
X165239711Y-84871789D01*
X165370814Y-84959390D01*
X165370827Y-84959397D01*
X165473066Y-85001745D01*
X165516503Y-85019737D01*
X165656564Y-85047597D01*
X165671153Y-85050499D01*
X165671156Y-85050500D01*
X165671158Y-85050500D01*
X165828844Y-85050500D01*
X165828845Y-85050499D01*
X165983497Y-85019737D01*
X166087413Y-84976693D01*
X166156879Y-84969225D01*
X166197983Y-84984523D01*
X166227102Y-85001744D01*
X166268724Y-85013836D01*
X166384926Y-85047597D01*
X166384929Y-85047597D01*
X166384931Y-85047598D01*
X166421806Y-85050500D01*
X166421814Y-85050500D01*
X167578186Y-85050500D01*
X167578194Y-85050500D01*
X167615069Y-85047598D01*
X167615071Y-85047597D01*
X167615073Y-85047597D01*
X167673641Y-85030581D01*
X167772898Y-85001744D01*
X167914365Y-84918081D01*
X167914364Y-84918081D01*
X167921080Y-84914110D01*
X167922155Y-84915928D01*
X167977032Y-84894381D01*
X168045550Y-84908059D01*
X168095796Y-84956609D01*
X168112000Y-85017895D01*
X168112000Y-85382104D01*
X168092315Y-85449143D01*
X168039511Y-85494898D01*
X167970353Y-85504842D01*
X167922002Y-85484330D01*
X167921080Y-85485890D01*
X167825729Y-85429500D01*
X167772898Y-85398256D01*
X167772897Y-85398255D01*
X167772896Y-85398255D01*
X167772893Y-85398254D01*
X167615073Y-85352402D01*
X167615067Y-85352401D01*
X167578201Y-85349500D01*
X167578194Y-85349500D01*
X166421806Y-85349500D01*
X166421798Y-85349500D01*
X166384932Y-85352401D01*
X166384926Y-85352402D01*
X166227106Y-85398254D01*
X166227103Y-85398255D01*
X166085640Y-85481915D01*
X166085635Y-85481919D01*
X166059147Y-85508407D01*
X165997823Y-85541891D01*
X165946335Y-85542151D01*
X165932659Y-85539320D01*
X165922459Y-85534662D01*
X165855420Y-85514977D01*
X165855416Y-85514976D01*
X165723160Y-85495960D01*
X165719441Y-85495191D01*
X165712129Y-85491294D01*
X165681454Y-85480497D01*
X165676399Y-85477507D01*
X165676390Y-85477504D01*
X165520997Y-85432357D01*
X165520991Y-85432356D01*
X165484697Y-85429500D01*
X165484690Y-85429500D01*
X165015310Y-85429500D01*
X165015302Y-85429500D01*
X164979008Y-85432356D01*
X164979002Y-85432357D01*
X164823609Y-85477504D01*
X164816446Y-85480604D01*
X164815947Y-85479453D01*
X164760947Y-85494500D01*
X157942132Y-85494500D01*
X157875093Y-85474815D01*
X157829338Y-85422011D01*
X157819394Y-85352853D01*
X157824201Y-85332182D01*
X157848402Y-85257701D01*
X157875500Y-85086611D01*
X157875500Y-84913389D01*
X157848402Y-84742299D01*
X157794873Y-84577555D01*
X157716232Y-84423212D01*
X157614414Y-84283072D01*
X157491928Y-84160586D01*
X157351788Y-84058768D01*
X157197445Y-83980127D01*
X157032701Y-83926598D01*
X157032699Y-83926597D01*
X157032698Y-83926597D01*
X156901271Y-83905781D01*
X156861611Y-83899500D01*
X156138389Y-83899500D01*
X156098728Y-83905781D01*
X155967302Y-83926597D01*
X155802552Y-83980128D01*
X155648211Y-84058768D01*
X155568256Y-84116859D01*
X155508072Y-84160586D01*
X155508070Y-84160588D01*
X155508069Y-84160588D01*
X155385588Y-84283069D01*
X155385588Y-84283070D01*
X155385586Y-84283072D01*
X155362254Y-84315186D01*
X155283768Y-84423211D01*
X155205128Y-84577552D01*
X155151597Y-84742302D01*
X155134051Y-84853084D01*
X155124500Y-84913389D01*
X155124500Y-85086611D01*
X155151598Y-85257701D01*
X155175799Y-85332182D01*
X155177794Y-85402023D01*
X155141714Y-85461856D01*
X155079013Y-85492684D01*
X155057868Y-85494500D01*
X150624500Y-85494500D01*
X150557461Y-85474815D01*
X150511706Y-85422011D01*
X150500500Y-85370500D01*
X150500500Y-75163389D01*
X155174500Y-75163389D01*
X155174500Y-75336611D01*
X155201598Y-75507701D01*
X155255127Y-75672445D01*
X155333768Y-75826788D01*
X155435586Y-75966928D01*
X155558072Y-76089414D01*
X155558078Y-76089418D01*
X155641023Y-76149683D01*
X155683689Y-76205013D01*
X155689667Y-76274626D01*
X155657061Y-76336421D01*
X155641023Y-76350317D01*
X155558078Y-76410581D01*
X155558069Y-76410588D01*
X155435588Y-76533069D01*
X155435588Y-76533070D01*
X155435586Y-76533072D01*
X155391859Y-76593256D01*
X155333768Y-76673211D01*
X155255128Y-76827552D01*
X155201597Y-76992302D01*
X155183665Y-77105523D01*
X155174500Y-77163389D01*
X155174500Y-77336611D01*
X155201598Y-77507701D01*
X155255127Y-77672445D01*
X155333768Y-77826788D01*
X155435586Y-77966928D01*
X155558072Y-78089414D01*
X155698212Y-78191232D01*
X155852555Y-78269873D01*
X156017299Y-78323402D01*
X156188389Y-78350500D01*
X156188390Y-78350500D01*
X156911610Y-78350500D01*
X156911611Y-78350500D01*
X157082701Y-78323402D01*
X157247445Y-78269873D01*
X157401788Y-78191232D01*
X157541928Y-78089414D01*
X157664414Y-77966928D01*
X157766232Y-77826788D01*
X157844873Y-77672445D01*
X157898402Y-77507701D01*
X157925500Y-77336611D01*
X157925500Y-77163389D01*
X157898402Y-76992299D01*
X157844873Y-76827555D01*
X157766232Y-76673212D01*
X157664414Y-76533072D01*
X157541928Y-76410586D01*
X157492696Y-76374816D01*
X157450032Y-76319488D01*
X157444053Y-76249874D01*
X157476659Y-76188079D01*
X157537498Y-76153722D01*
X157565583Y-76150500D01*
X162329192Y-76150500D01*
X162396231Y-76170185D01*
X162416874Y-76186820D01*
X162448129Y-76218076D01*
X162448133Y-76218079D01*
X162448135Y-76218081D01*
X162589602Y-76301744D01*
X162613779Y-76308768D01*
X162747426Y-76347597D01*
X162747429Y-76347597D01*
X162747431Y-76347598D01*
X162784306Y-76350500D01*
X162784314Y-76350500D01*
X163940686Y-76350500D01*
X163940694Y-76350500D01*
X163940701Y-76350499D01*
X163943132Y-76350404D01*
X163943167Y-76351297D01*
X164008108Y-76364915D01*
X164057883Y-76413948D01*
X164073500Y-76474190D01*
X164073500Y-77985902D01*
X164053815Y-78052941D01*
X164037181Y-78073583D01*
X162967584Y-79143181D01*
X162906261Y-79176666D01*
X162879903Y-79179500D01*
X162765302Y-79179500D01*
X162729008Y-79182356D01*
X162729002Y-79182357D01*
X162573609Y-79227504D01*
X162573606Y-79227505D01*
X162434315Y-79309881D01*
X162434307Y-79309887D01*
X162421014Y-79323181D01*
X162359691Y-79356666D01*
X162333333Y-79359500D01*
X162019901Y-79359500D01*
X161952862Y-79339815D01*
X161951010Y-79338602D01*
X161879184Y-79290609D01*
X161879172Y-79290602D01*
X161733501Y-79230264D01*
X161733489Y-79230261D01*
X161578845Y-79199500D01*
X161578842Y-79199500D01*
X161421158Y-79199500D01*
X161421155Y-79199500D01*
X161266510Y-79230261D01*
X161266498Y-79230264D01*
X161120827Y-79290602D01*
X161120814Y-79290609D01*
X160989711Y-79378210D01*
X160989707Y-79378213D01*
X160878213Y-79489707D01*
X160878210Y-79489711D01*
X160790609Y-79620814D01*
X160790602Y-79620827D01*
X160730264Y-79766498D01*
X160730261Y-79766510D01*
X160699500Y-79921153D01*
X160699500Y-80078846D01*
X160730261Y-80233489D01*
X160730264Y-80233501D01*
X160790602Y-80379172D01*
X160790609Y-80379185D01*
X160878210Y-80510288D01*
X160878213Y-80510292D01*
X160989707Y-80621786D01*
X160989711Y-80621789D01*
X161120814Y-80709390D01*
X161120827Y-80709397D01*
X161266498Y-80769735D01*
X161266503Y-80769737D01*
X161377617Y-80791839D01*
X161421153Y-80800499D01*
X161421156Y-80800500D01*
X161421158Y-80800500D01*
X161578844Y-80800500D01*
X161578845Y-80800499D01*
X161733497Y-80769737D01*
X161879179Y-80709394D01*
X162010289Y-80621789D01*
X162021966Y-80610112D01*
X162035260Y-80596819D01*
X162062187Y-80582115D01*
X162088006Y-80565523D01*
X162094206Y-80564631D01*
X162096583Y-80563334D01*
X162122941Y-80560500D01*
X162333333Y-80560500D01*
X162400372Y-80580185D01*
X162421014Y-80596819D01*
X162434307Y-80610112D01*
X162434311Y-80610115D01*
X162434313Y-80610117D01*
X162573605Y-80692494D01*
X162614587Y-80704400D01*
X162729002Y-80737642D01*
X162729005Y-80737642D01*
X162729007Y-80737643D01*
X162765310Y-80740500D01*
X162765318Y-80740500D01*
X163234682Y-80740500D01*
X163234690Y-80740500D01*
X163270993Y-80737643D01*
X163270995Y-80737642D01*
X163270997Y-80737642D01*
X163311975Y-80725736D01*
X163426395Y-80692494D01*
X163565687Y-80610117D01*
X163680117Y-80495687D01*
X163762494Y-80356395D01*
X163807643Y-80200993D01*
X163810500Y-80164690D01*
X163810500Y-80050097D01*
X163830185Y-79983058D01*
X163846819Y-79962416D01*
X164470633Y-79338602D01*
X165154520Y-78654716D01*
X165233577Y-78517784D01*
X165274501Y-78365057D01*
X165274501Y-78365047D01*
X165275389Y-78358311D01*
X165303658Y-78294416D01*
X165361983Y-78255946D01*
X165398328Y-78250500D01*
X166215686Y-78250500D01*
X166215694Y-78250500D01*
X166252569Y-78247598D01*
X166252571Y-78247597D01*
X166252573Y-78247597D01*
X166294191Y-78235505D01*
X166410398Y-78201744D01*
X166551865Y-78118081D01*
X166668081Y-78001865D01*
X166751744Y-77860398D01*
X166797598Y-77702569D01*
X166800500Y-77665694D01*
X166800500Y-77234306D01*
X166800497Y-77234272D01*
X166800494Y-77234222D01*
X166800496Y-77234212D01*
X166800404Y-77231868D01*
X166800993Y-77231844D01*
X166803352Y-77220616D01*
X166801374Y-77206853D01*
X166810396Y-77187096D01*
X166814862Y-77165845D01*
X166824622Y-77155944D01*
X166830399Y-77143297D01*
X166848668Y-77131555D01*
X166863916Y-77116091D01*
X166878684Y-77112265D01*
X166889177Y-77105523D01*
X166924112Y-77100500D01*
X166925234Y-77100500D01*
X166992273Y-77120185D01*
X166994125Y-77121398D01*
X167125814Y-77209390D01*
X167125827Y-77209397D01*
X167227810Y-77251639D01*
X167271503Y-77269737D01*
X167336147Y-77282595D01*
X167426849Y-77300638D01*
X167488760Y-77333023D01*
X167490339Y-77334574D01*
X168520139Y-78364374D01*
X168520149Y-78364385D01*
X168524479Y-78368715D01*
X168524480Y-78368716D01*
X168636284Y-78480520D01*
X168687500Y-78510089D01*
X168735715Y-78560655D01*
X168749500Y-78617476D01*
X168749500Y-79047870D01*
X168749501Y-79047876D01*
X168755908Y-79107483D01*
X168806202Y-79242328D01*
X168806206Y-79242335D01*
X168892452Y-79357544D01*
X168892455Y-79357547D01*
X169007664Y-79443793D01*
X169007671Y-79443797D01*
X169142517Y-79494091D01*
X169142516Y-79494091D01*
X169149444Y-79494835D01*
X169202127Y-79500500D01*
X171297872Y-79500499D01*
X171357483Y-79494091D01*
X171492331Y-79443796D01*
X171607546Y-79357546D01*
X171693796Y-79242331D01*
X171744091Y-79107483D01*
X171750500Y-79047873D01*
X171750499Y-76952128D01*
X171744091Y-76892517D01*
X171721824Y-76832817D01*
X171693797Y-76757671D01*
X171693793Y-76757664D01*
X171607547Y-76642455D01*
X171607544Y-76642452D01*
X171492335Y-76556206D01*
X171492328Y-76556202D01*
X171357482Y-76505908D01*
X171357483Y-76505908D01*
X171297883Y-76499501D01*
X171297881Y-76499500D01*
X171297873Y-76499500D01*
X171297864Y-76499500D01*
X169202129Y-76499500D01*
X169202123Y-76499501D01*
X169142516Y-76505908D01*
X169007671Y-76556202D01*
X169007664Y-76556206D01*
X168892455Y-76642452D01*
X168808779Y-76754228D01*
X168752845Y-76796098D01*
X168683153Y-76801082D01*
X168621832Y-76767597D01*
X168339574Y-76485339D01*
X168306089Y-76424016D01*
X168305638Y-76421849D01*
X168281747Y-76301744D01*
X168274737Y-76266503D01*
X168242253Y-76188079D01*
X168214397Y-76120827D01*
X168214390Y-76120814D01*
X168126789Y-75989711D01*
X168126786Y-75989707D01*
X168015292Y-75878213D01*
X168015288Y-75878210D01*
X167884185Y-75790609D01*
X167884172Y-75790602D01*
X167738501Y-75730264D01*
X167738489Y-75730261D01*
X167583845Y-75699500D01*
X167583842Y-75699500D01*
X167426158Y-75699500D01*
X167426155Y-75699500D01*
X167271510Y-75730261D01*
X167271498Y-75730264D01*
X167125827Y-75790602D01*
X167125814Y-75790609D01*
X166994125Y-75878602D01*
X166976078Y-75884252D01*
X166960169Y-75894477D01*
X166929207Y-75898928D01*
X166927447Y-75899480D01*
X166925234Y-75899500D01*
X166924112Y-75899500D01*
X166857073Y-75879815D01*
X166811318Y-75827011D01*
X166800913Y-75768152D01*
X166800404Y-75768132D01*
X166800495Y-75765789D01*
X166800494Y-75765778D01*
X166800498Y-75765717D01*
X166800500Y-75765694D01*
X166800500Y-75334306D01*
X166797598Y-75297431D01*
X166751744Y-75139602D01*
X166668081Y-74998135D01*
X166668078Y-74998132D01*
X166668076Y-74998129D01*
X166551870Y-74881923D01*
X166551862Y-74881917D01*
X166410396Y-74798255D01*
X166410393Y-74798254D01*
X166252573Y-74752402D01*
X166252567Y-74752401D01*
X166215701Y-74749500D01*
X166215694Y-74749500D01*
X165059306Y-74749500D01*
X165059298Y-74749500D01*
X165022432Y-74752401D01*
X165022426Y-74752402D01*
X164864606Y-74798254D01*
X164864603Y-74798255D01*
X164723137Y-74881917D01*
X164723129Y-74881923D01*
X164606923Y-74998129D01*
X164606911Y-74998145D01*
X164606721Y-74998467D01*
X164606506Y-74998667D01*
X164602139Y-75004298D01*
X164601229Y-75003592D01*
X164555645Y-75046142D01*
X164486901Y-75058635D01*
X164422316Y-75031980D01*
X164398144Y-75004078D01*
X164397861Y-75004298D01*
X164393810Y-74999076D01*
X164393265Y-74998446D01*
X164393081Y-74998135D01*
X164393080Y-74998134D01*
X164393079Y-74998132D01*
X164276870Y-74881923D01*
X164276862Y-74881917D01*
X164135396Y-74798255D01*
X164135393Y-74798254D01*
X163977573Y-74752402D01*
X163977567Y-74752401D01*
X163940701Y-74749500D01*
X163940694Y-74749500D01*
X162784306Y-74749500D01*
X162784298Y-74749500D01*
X162747432Y-74752401D01*
X162747426Y-74752402D01*
X162589606Y-74798254D01*
X162589603Y-74798255D01*
X162448137Y-74881917D01*
X162448129Y-74881923D01*
X162416874Y-74913180D01*
X162355552Y-74946666D01*
X162329192Y-74949500D01*
X157974587Y-74949500D01*
X157907548Y-74929815D01*
X157861793Y-74877011D01*
X157856657Y-74863820D01*
X157844873Y-74827554D01*
X157780241Y-74700707D01*
X157766232Y-74673212D01*
X157664414Y-74533072D01*
X157541928Y-74410586D01*
X157401788Y-74308768D01*
X157247445Y-74230127D01*
X157082701Y-74176598D01*
X157082699Y-74176597D01*
X157082698Y-74176597D01*
X156951271Y-74155781D01*
X156911611Y-74149500D01*
X156188389Y-74149500D01*
X156148728Y-74155781D01*
X156017302Y-74176597D01*
X155852552Y-74230128D01*
X155698211Y-74308768D01*
X155638282Y-74352310D01*
X155558072Y-74410586D01*
X155558070Y-74410588D01*
X155558069Y-74410588D01*
X155435588Y-74533069D01*
X155435588Y-74533070D01*
X155435586Y-74533072D01*
X155421633Y-74552277D01*
X155333768Y-74673211D01*
X155255128Y-74827552D01*
X155201597Y-74992302D01*
X155184717Y-75098879D01*
X155174500Y-75163389D01*
X150500500Y-75163389D01*
X150500500Y-70629500D01*
X150520185Y-70562461D01*
X150572989Y-70516706D01*
X150624500Y-70505500D01*
X164619591Y-70505500D01*
X164631365Y-70505088D01*
X164654921Y-70504264D01*
X164672218Y-70503052D01*
X164707407Y-70499344D01*
X164746851Y-70487883D01*
X164751905Y-70486531D01*
X164779021Y-70479882D01*
X164801981Y-70474252D01*
X164802238Y-70474190D01*
X164802241Y-70474189D01*
X164802241Y-70474188D01*
X164802245Y-70474188D01*
X164817758Y-70467932D01*
X164829514Y-70463865D01*
X164845574Y-70459200D01*
X164867336Y-70449336D01*
X164867335Y-70449335D01*
X164892810Y-70437789D01*
X164897615Y-70435732D01*
X164935686Y-70420382D01*
X164981379Y-70384264D01*
X165030477Y-70352906D01*
X165055385Y-70324322D01*
X165063790Y-70317527D01*
X165086460Y-70308092D01*
X165107151Y-70294877D01*
X165118219Y-70294876D01*
X165128297Y-70290683D01*
X165151755Y-70294875D01*
X165176349Y-70294874D01*
X165254796Y-70317665D01*
X165290819Y-70320500D01*
X165689180Y-70320499D01*
X165725204Y-70317665D01*
X165879393Y-70272869D01*
X165936882Y-70238869D01*
X166004602Y-70221688D01*
X166063117Y-70238869D01*
X166120607Y-70272869D01*
X166120610Y-70272869D01*
X166120612Y-70272871D01*
X166274791Y-70317664D01*
X166274794Y-70317664D01*
X166274796Y-70317665D01*
X166310819Y-70320500D01*
X166709180Y-70320499D01*
X166745204Y-70317665D01*
X166899393Y-70272869D01*
X167037598Y-70191135D01*
X167082908Y-70145825D01*
X167144231Y-70112339D01*
X167213922Y-70117323D01*
G37*
%TD.AperFunction*%
%TD*%
%TA.AperFunction,Conductor*%
%TO.N,+24V*%
G36*
X229442539Y-51019685D02*
G01*
X229488294Y-51072489D01*
X229499500Y-51124000D01*
X229499500Y-109375500D01*
X229479815Y-109442539D01*
X229427011Y-109488294D01*
X229375500Y-109499500D01*
X150624500Y-109499500D01*
X150557461Y-109479815D01*
X150511706Y-109427011D01*
X150500500Y-109375500D01*
X150500500Y-105666228D01*
X156899500Y-105666228D01*
X156899500Y-105833771D01*
X156932182Y-105998074D01*
X156932184Y-105998082D01*
X156996295Y-106152860D01*
X157089373Y-106292162D01*
X157207837Y-106410626D01*
X157253653Y-106441239D01*
X157347137Y-106503703D01*
X157501918Y-106567816D01*
X157666228Y-106600499D01*
X157666232Y-106600500D01*
X157666233Y-106600500D01*
X157833768Y-106600500D01*
X157833769Y-106600499D01*
X157998082Y-106567816D01*
X158152863Y-106503703D01*
X158292162Y-106410626D01*
X158410626Y-106292162D01*
X158503703Y-106152863D01*
X158567816Y-105998082D01*
X158600500Y-105833767D01*
X158600500Y-105768713D01*
X178649500Y-105768713D01*
X178649500Y-106231286D01*
X178677904Y-106410626D01*
X178682754Y-106441243D01*
X178723880Y-106567816D01*
X178748444Y-106643414D01*
X178844951Y-106832820D01*
X178969890Y-107004786D01*
X179120213Y-107155109D01*
X179292179Y-107280048D01*
X179292181Y-107280049D01*
X179292184Y-107280051D01*
X179481588Y-107376557D01*
X179683757Y-107442246D01*
X179893713Y-107475500D01*
X179893714Y-107475500D01*
X180106286Y-107475500D01*
X180106287Y-107475500D01*
X180316243Y-107442246D01*
X180518412Y-107376557D01*
X180707816Y-107280051D01*
X180729789Y-107264086D01*
X180879786Y-107155109D01*
X180879788Y-107155106D01*
X180879792Y-107155104D01*
X181030104Y-107004792D01*
X181149683Y-106840204D01*
X181205011Y-106797540D01*
X181274624Y-106791561D01*
X181336420Y-106824166D01*
X181350313Y-106840199D01*
X181469892Y-107004786D01*
X181469896Y-107004792D01*
X181620213Y-107155109D01*
X181792179Y-107280048D01*
X181792181Y-107280049D01*
X181792184Y-107280051D01*
X181981588Y-107376557D01*
X182183757Y-107442246D01*
X182393713Y-107475500D01*
X182393714Y-107475500D01*
X182606286Y-107475500D01*
X182606287Y-107475500D01*
X182816243Y-107442246D01*
X183018412Y-107376557D01*
X183207816Y-107280051D01*
X183229789Y-107264086D01*
X183379786Y-107155109D01*
X183379788Y-107155106D01*
X183379792Y-107155104D01*
X183530104Y-107004792D01*
X183649683Y-106840204D01*
X183705011Y-106797540D01*
X183774624Y-106791561D01*
X183836420Y-106824166D01*
X183850313Y-106840199D01*
X183969892Y-107004786D01*
X183969896Y-107004792D01*
X184120213Y-107155109D01*
X184292179Y-107280048D01*
X184292181Y-107280049D01*
X184292184Y-107280051D01*
X184481588Y-107376557D01*
X184683757Y-107442246D01*
X184893713Y-107475500D01*
X184893714Y-107475500D01*
X185106286Y-107475500D01*
X185106287Y-107475500D01*
X185316243Y-107442246D01*
X185518412Y-107376557D01*
X185707816Y-107280051D01*
X185729789Y-107264086D01*
X185879786Y-107155109D01*
X185879788Y-107155106D01*
X185879792Y-107155104D01*
X186030104Y-107004792D01*
X186149683Y-106840204D01*
X186205011Y-106797540D01*
X186274624Y-106791561D01*
X186336420Y-106824166D01*
X186350313Y-106840199D01*
X186469892Y-107004786D01*
X186469896Y-107004792D01*
X186620213Y-107155109D01*
X186792179Y-107280048D01*
X186792181Y-107280049D01*
X186792184Y-107280051D01*
X186981588Y-107376557D01*
X187183757Y-107442246D01*
X187393713Y-107475500D01*
X187393714Y-107475500D01*
X187606286Y-107475500D01*
X187606287Y-107475500D01*
X187816243Y-107442246D01*
X188018412Y-107376557D01*
X188207816Y-107280051D01*
X188229789Y-107264086D01*
X188379786Y-107155109D01*
X188379788Y-107155106D01*
X188379792Y-107155104D01*
X188530104Y-107004792D01*
X188649683Y-106840204D01*
X188705011Y-106797540D01*
X188774624Y-106791561D01*
X188836420Y-106824166D01*
X188850313Y-106840199D01*
X188969892Y-107004786D01*
X188969896Y-107004792D01*
X189120213Y-107155109D01*
X189292179Y-107280048D01*
X189292181Y-107280049D01*
X189292184Y-107280051D01*
X189481588Y-107376557D01*
X189683757Y-107442246D01*
X189893713Y-107475500D01*
X189893714Y-107475500D01*
X190106286Y-107475500D01*
X190106287Y-107475500D01*
X190316243Y-107442246D01*
X190518412Y-107376557D01*
X190707816Y-107280051D01*
X190729789Y-107264086D01*
X190879786Y-107155109D01*
X190879788Y-107155106D01*
X190879792Y-107155104D01*
X191030104Y-107004792D01*
X191149683Y-106840204D01*
X191205011Y-106797540D01*
X191274624Y-106791561D01*
X191336420Y-106824166D01*
X191350313Y-106840199D01*
X191469892Y-107004786D01*
X191469896Y-107004792D01*
X191620213Y-107155109D01*
X191792179Y-107280048D01*
X191792181Y-107280049D01*
X191792184Y-107280051D01*
X191981588Y-107376557D01*
X192183757Y-107442246D01*
X192393713Y-107475500D01*
X192393714Y-107475500D01*
X192606286Y-107475500D01*
X192606287Y-107475500D01*
X192816243Y-107442246D01*
X193018412Y-107376557D01*
X193207816Y-107280051D01*
X193229789Y-107264086D01*
X193379786Y-107155109D01*
X193379788Y-107155106D01*
X193379792Y-107155104D01*
X193530104Y-107004792D01*
X193649683Y-106840204D01*
X193705011Y-106797540D01*
X193774624Y-106791561D01*
X193836420Y-106824166D01*
X193850313Y-106840199D01*
X193969892Y-107004786D01*
X193969896Y-107004792D01*
X194120213Y-107155109D01*
X194292179Y-107280048D01*
X194292181Y-107280049D01*
X194292184Y-107280051D01*
X194481588Y-107376557D01*
X194683757Y-107442246D01*
X194893713Y-107475500D01*
X194893714Y-107475500D01*
X195106286Y-107475500D01*
X195106287Y-107475500D01*
X195316243Y-107442246D01*
X195518412Y-107376557D01*
X195707816Y-107280051D01*
X195729789Y-107264086D01*
X195879786Y-107155109D01*
X195879788Y-107155106D01*
X195879792Y-107155104D01*
X196030104Y-107004792D01*
X196149683Y-106840204D01*
X196205011Y-106797540D01*
X196274624Y-106791561D01*
X196336420Y-106824166D01*
X196350313Y-106840199D01*
X196469892Y-107004786D01*
X196469896Y-107004792D01*
X196620213Y-107155109D01*
X196792179Y-107280048D01*
X196792181Y-107280049D01*
X196792184Y-107280051D01*
X196981588Y-107376557D01*
X197183757Y-107442246D01*
X197393713Y-107475500D01*
X197393714Y-107475500D01*
X197606286Y-107475500D01*
X197606287Y-107475500D01*
X197816243Y-107442246D01*
X198018412Y-107376557D01*
X198207816Y-107280051D01*
X198229789Y-107264086D01*
X198379786Y-107155109D01*
X198379788Y-107155106D01*
X198379792Y-107155104D01*
X198530104Y-107004792D01*
X198649683Y-106840204D01*
X198705011Y-106797540D01*
X198774624Y-106791561D01*
X198836420Y-106824166D01*
X198850313Y-106840199D01*
X198969892Y-107004786D01*
X198969896Y-107004792D01*
X199120213Y-107155109D01*
X199292179Y-107280048D01*
X199292181Y-107280049D01*
X199292184Y-107280051D01*
X199481588Y-107376557D01*
X199683757Y-107442246D01*
X199893713Y-107475500D01*
X199893714Y-107475500D01*
X200106286Y-107475500D01*
X200106287Y-107475500D01*
X200316243Y-107442246D01*
X200518412Y-107376557D01*
X200707816Y-107280051D01*
X200729789Y-107264086D01*
X200879786Y-107155109D01*
X200879788Y-107155106D01*
X200879792Y-107155104D01*
X201030104Y-107004792D01*
X201030106Y-107004788D01*
X201030109Y-107004786D01*
X201155048Y-106832820D01*
X201155047Y-106832820D01*
X201155051Y-106832816D01*
X201251557Y-106643412D01*
X201317246Y-106441243D01*
X201350500Y-106231287D01*
X201350500Y-105768713D01*
X201317246Y-105558757D01*
X201251557Y-105356588D01*
X201155051Y-105167184D01*
X201155049Y-105167181D01*
X201155048Y-105167179D01*
X201030109Y-104995213D01*
X200879786Y-104844890D01*
X200707820Y-104719951D01*
X200518414Y-104623444D01*
X200518413Y-104623443D01*
X200518412Y-104623443D01*
X200316243Y-104557754D01*
X200316241Y-104557753D01*
X200316240Y-104557753D01*
X200142837Y-104530289D01*
X200106287Y-104524500D01*
X199893713Y-104524500D01*
X199857163Y-104530289D01*
X199683760Y-104557753D01*
X199481585Y-104623444D01*
X199292179Y-104719951D01*
X199120213Y-104844890D01*
X198969894Y-104995209D01*
X198969890Y-104995214D01*
X198850318Y-105159793D01*
X198794989Y-105202459D01*
X198725375Y-105208438D01*
X198663580Y-105175833D01*
X198649682Y-105159793D01*
X198530109Y-104995214D01*
X198530105Y-104995209D01*
X198379786Y-104844890D01*
X198207820Y-104719951D01*
X198018414Y-104623444D01*
X198018413Y-104623443D01*
X198018412Y-104623443D01*
X197816243Y-104557754D01*
X197816241Y-104557753D01*
X197816240Y-104557753D01*
X197642837Y-104530289D01*
X197606287Y-104524500D01*
X197393713Y-104524500D01*
X197357163Y-104530289D01*
X197183760Y-104557753D01*
X196981585Y-104623444D01*
X196792179Y-104719951D01*
X196620213Y-104844890D01*
X196469894Y-104995209D01*
X196469890Y-104995214D01*
X196350318Y-105159793D01*
X196294989Y-105202459D01*
X196225375Y-105208438D01*
X196163580Y-105175833D01*
X196149682Y-105159793D01*
X196030109Y-104995214D01*
X196030105Y-104995209D01*
X195879786Y-104844890D01*
X195707820Y-104719951D01*
X195518414Y-104623444D01*
X195518413Y-104623443D01*
X195518412Y-104623443D01*
X195316243Y-104557754D01*
X195316241Y-104557753D01*
X195316240Y-104557753D01*
X195142837Y-104530289D01*
X195106287Y-104524500D01*
X194893713Y-104524500D01*
X194857163Y-104530289D01*
X194683760Y-104557753D01*
X194481585Y-104623444D01*
X194292179Y-104719951D01*
X194120213Y-104844890D01*
X193969894Y-104995209D01*
X193969890Y-104995214D01*
X193850318Y-105159793D01*
X193794989Y-105202459D01*
X193725375Y-105208438D01*
X193663580Y-105175833D01*
X193649682Y-105159793D01*
X193530109Y-104995214D01*
X193530105Y-104995209D01*
X193379786Y-104844890D01*
X193207820Y-104719951D01*
X193018414Y-104623444D01*
X193018413Y-104623443D01*
X193018412Y-104623443D01*
X192816243Y-104557754D01*
X192816241Y-104557753D01*
X192816240Y-104557753D01*
X192642837Y-104530289D01*
X192606287Y-104524500D01*
X192393713Y-104524500D01*
X192357163Y-104530289D01*
X192183760Y-104557753D01*
X191981585Y-104623444D01*
X191792179Y-104719951D01*
X191620213Y-104844890D01*
X191469894Y-104995209D01*
X191469890Y-104995214D01*
X191350318Y-105159793D01*
X191294989Y-105202459D01*
X191225375Y-105208438D01*
X191163580Y-105175833D01*
X191149682Y-105159793D01*
X191030109Y-104995214D01*
X191030105Y-104995209D01*
X190879786Y-104844890D01*
X190707820Y-104719951D01*
X190518414Y-104623444D01*
X190518413Y-104623443D01*
X190518412Y-104623443D01*
X190316243Y-104557754D01*
X190316241Y-104557753D01*
X190316240Y-104557753D01*
X190142837Y-104530289D01*
X190106287Y-104524500D01*
X189893713Y-104524500D01*
X189857163Y-104530289D01*
X189683760Y-104557753D01*
X189481585Y-104623444D01*
X189292179Y-104719951D01*
X189120213Y-104844890D01*
X188969894Y-104995209D01*
X188969890Y-104995214D01*
X188850318Y-105159793D01*
X188794989Y-105202459D01*
X188725375Y-105208438D01*
X188663580Y-105175833D01*
X188649682Y-105159793D01*
X188530109Y-104995214D01*
X188530105Y-104995209D01*
X188379786Y-104844890D01*
X188207820Y-104719951D01*
X188018414Y-104623444D01*
X188018413Y-104623443D01*
X188018412Y-104623443D01*
X187816243Y-104557754D01*
X187816241Y-104557753D01*
X187816240Y-104557753D01*
X187642837Y-104530289D01*
X187606287Y-104524500D01*
X187393713Y-104524500D01*
X187357163Y-104530289D01*
X187183760Y-104557753D01*
X186981585Y-104623444D01*
X186792179Y-104719951D01*
X186620213Y-104844890D01*
X186469894Y-104995209D01*
X186469890Y-104995214D01*
X186350318Y-105159793D01*
X186294989Y-105202459D01*
X186225375Y-105208438D01*
X186163580Y-105175833D01*
X186149682Y-105159793D01*
X186030109Y-104995214D01*
X186030105Y-104995209D01*
X185879786Y-104844890D01*
X185707820Y-104719951D01*
X185518414Y-104623444D01*
X185518413Y-104623443D01*
X185518412Y-104623443D01*
X185316243Y-104557754D01*
X185316241Y-104557753D01*
X185316240Y-104557753D01*
X185142837Y-104530289D01*
X185106287Y-104524500D01*
X184893713Y-104524500D01*
X184857163Y-104530289D01*
X184683760Y-104557753D01*
X184481585Y-104623444D01*
X184292179Y-104719951D01*
X184120213Y-104844890D01*
X183969894Y-104995209D01*
X183969890Y-104995214D01*
X183850318Y-105159793D01*
X183794989Y-105202459D01*
X183725375Y-105208438D01*
X183663580Y-105175833D01*
X183649682Y-105159793D01*
X183530109Y-104995214D01*
X183530105Y-104995209D01*
X183379786Y-104844890D01*
X183207820Y-104719951D01*
X183018414Y-104623444D01*
X183018413Y-104623443D01*
X183018412Y-104623443D01*
X182816243Y-104557754D01*
X182816241Y-104557753D01*
X182816240Y-104557753D01*
X182642837Y-104530289D01*
X182606287Y-104524500D01*
X182393713Y-104524500D01*
X182357163Y-104530289D01*
X182183760Y-104557753D01*
X181981585Y-104623444D01*
X181792179Y-104719951D01*
X181620213Y-104844890D01*
X181469894Y-104995209D01*
X181469890Y-104995214D01*
X181350318Y-105159793D01*
X181294989Y-105202459D01*
X181225375Y-105208438D01*
X181163580Y-105175833D01*
X181149682Y-105159793D01*
X181030109Y-104995214D01*
X181030105Y-104995209D01*
X180879786Y-104844890D01*
X180707820Y-104719951D01*
X180518414Y-104623444D01*
X180518413Y-104623443D01*
X180518412Y-104623443D01*
X180316243Y-104557754D01*
X180316241Y-104557753D01*
X180316240Y-104557753D01*
X180142837Y-104530289D01*
X180106287Y-104524500D01*
X179893713Y-104524500D01*
X179857163Y-104530289D01*
X179683760Y-104557753D01*
X179481585Y-104623444D01*
X179292179Y-104719951D01*
X179120213Y-104844890D01*
X178969890Y-104995213D01*
X178844951Y-105167179D01*
X178748444Y-105356585D01*
X178682753Y-105558760D01*
X178649500Y-105768713D01*
X158600500Y-105768713D01*
X158600500Y-105666233D01*
X158567816Y-105501918D01*
X158503703Y-105347137D01*
X158442842Y-105256052D01*
X158410626Y-105207837D01*
X158292162Y-105089373D01*
X158152860Y-104996295D01*
X157998082Y-104932184D01*
X157998074Y-104932182D01*
X157833771Y-104899500D01*
X157833767Y-104899500D01*
X157666233Y-104899500D01*
X157666228Y-104899500D01*
X157501925Y-104932182D01*
X157501917Y-104932184D01*
X157347139Y-104996295D01*
X157207837Y-105089373D01*
X157089373Y-105207837D01*
X156996295Y-105347139D01*
X156932184Y-105501917D01*
X156932182Y-105501925D01*
X156899500Y-105666228D01*
X150500500Y-105666228D01*
X150500500Y-103666228D01*
X213149500Y-103666228D01*
X213149500Y-103833771D01*
X213182182Y-103998074D01*
X213182184Y-103998082D01*
X213246295Y-104152860D01*
X213339373Y-104292162D01*
X213457837Y-104410626D01*
X213550494Y-104472537D01*
X213597137Y-104503703D01*
X213751918Y-104567816D01*
X213916228Y-104600499D01*
X213916232Y-104600500D01*
X213916233Y-104600500D01*
X214083768Y-104600500D01*
X214083769Y-104600499D01*
X214248082Y-104567816D01*
X214402863Y-104503703D01*
X214542162Y-104410626D01*
X214660626Y-104292162D01*
X214753703Y-104152863D01*
X214817816Y-103998082D01*
X214850500Y-103833767D01*
X214850500Y-103666233D01*
X214817816Y-103501918D01*
X214766782Y-103378711D01*
X221649500Y-103378711D01*
X221649500Y-103621288D01*
X221681161Y-103861785D01*
X221743947Y-104096104D01*
X221825157Y-104292162D01*
X221836776Y-104320212D01*
X221958064Y-104530289D01*
X221958066Y-104530292D01*
X221958067Y-104530293D01*
X222105733Y-104722736D01*
X222105739Y-104722743D01*
X222277256Y-104894260D01*
X222277263Y-104894266D01*
X222326679Y-104932184D01*
X222469711Y-105041936D01*
X222679788Y-105163224D01*
X222903900Y-105256054D01*
X223138211Y-105318838D01*
X223318586Y-105342584D01*
X223378711Y-105350500D01*
X223378712Y-105350500D01*
X223621289Y-105350500D01*
X223669388Y-105344167D01*
X223861789Y-105318838D01*
X224096100Y-105256054D01*
X224320212Y-105163224D01*
X224530289Y-105041936D01*
X224722738Y-104894265D01*
X224894265Y-104722738D01*
X225041936Y-104530289D01*
X225163224Y-104320212D01*
X225256054Y-104096100D01*
X225318838Y-103861789D01*
X225350500Y-103621288D01*
X225350500Y-103378712D01*
X225318838Y-103138211D01*
X225256054Y-102903900D01*
X225254231Y-102899500D01*
X225163226Y-102679794D01*
X225163224Y-102679788D01*
X225041936Y-102469711D01*
X224894265Y-102277262D01*
X224894260Y-102277256D01*
X224722743Y-102105739D01*
X224722736Y-102105733D01*
X224530293Y-101958067D01*
X224530292Y-101958066D01*
X224530289Y-101958064D01*
X224320212Y-101836776D01*
X224320205Y-101836773D01*
X224096104Y-101743947D01*
X223861785Y-101681161D01*
X223621289Y-101649500D01*
X223621288Y-101649500D01*
X223378712Y-101649500D01*
X223378711Y-101649500D01*
X223138214Y-101681161D01*
X222903895Y-101743947D01*
X222679794Y-101836773D01*
X222679785Y-101836777D01*
X222469706Y-101958067D01*
X222277263Y-102105733D01*
X222277256Y-102105739D01*
X222105739Y-102277256D01*
X222105733Y-102277263D01*
X221958067Y-102469706D01*
X221836777Y-102679785D01*
X221836773Y-102679794D01*
X221743947Y-102903895D01*
X221681161Y-103138214D01*
X221649500Y-103378711D01*
X214766782Y-103378711D01*
X214753703Y-103347137D01*
X214722537Y-103300494D01*
X214660626Y-103207837D01*
X214542162Y-103089373D01*
X214402860Y-102996295D01*
X214248082Y-102932184D01*
X214248074Y-102932182D01*
X214083771Y-102899500D01*
X214083767Y-102899500D01*
X213916233Y-102899500D01*
X213916228Y-102899500D01*
X213751925Y-102932182D01*
X213751917Y-102932184D01*
X213597139Y-102996295D01*
X213457837Y-103089373D01*
X213339373Y-103207837D01*
X213246295Y-103347139D01*
X213182184Y-103501917D01*
X213182182Y-103501925D01*
X213149500Y-103666228D01*
X150500500Y-103666228D01*
X150500500Y-97129500D01*
X150520185Y-97062461D01*
X150572989Y-97016706D01*
X150624500Y-97005500D01*
X166425501Y-97005500D01*
X166492540Y-97025185D01*
X166538295Y-97077989D01*
X166549501Y-97129500D01*
X166549501Y-98500018D01*
X166560000Y-98602796D01*
X166560001Y-98602799D01*
X166615185Y-98769331D01*
X166615186Y-98769334D01*
X166707288Y-98918656D01*
X166831344Y-99042712D01*
X166980666Y-99134814D01*
X167147203Y-99189999D01*
X167249991Y-99200500D01*
X168750008Y-99200499D01*
X168852797Y-99189999D01*
X169019334Y-99134814D01*
X169168656Y-99042712D01*
X169292712Y-98918656D01*
X169384814Y-98769334D01*
X169439999Y-98602797D01*
X169450500Y-98500009D01*
X169450500Y-97129500D01*
X169470185Y-97062461D01*
X169522989Y-97016706D01*
X169574500Y-97005500D01*
X182775500Y-97005500D01*
X182842539Y-97025185D01*
X182888294Y-97077989D01*
X182899500Y-97129500D01*
X182899500Y-99420234D01*
X182879815Y-99487273D01*
X182878602Y-99489125D01*
X182790609Y-99620814D01*
X182790602Y-99620827D01*
X182730264Y-99766498D01*
X182730261Y-99766510D01*
X182699500Y-99921153D01*
X182699500Y-100078846D01*
X182730261Y-100233489D01*
X182730264Y-100233501D01*
X182790602Y-100379172D01*
X182790609Y-100379185D01*
X182878210Y-100510288D01*
X182878213Y-100510292D01*
X182989707Y-100621786D01*
X182989711Y-100621789D01*
X183120814Y-100709390D01*
X183120827Y-100709397D01*
X183266498Y-100769735D01*
X183266503Y-100769737D01*
X183421153Y-100800499D01*
X183421156Y-100800500D01*
X183421158Y-100800500D01*
X183578844Y-100800500D01*
X183578845Y-100800499D01*
X183733497Y-100769737D01*
X183879179Y-100709394D01*
X184010289Y-100621789D01*
X184121789Y-100510289D01*
X184209394Y-100379179D01*
X184269737Y-100233497D01*
X184300500Y-100078842D01*
X184300500Y-99921158D01*
X184300500Y-99921155D01*
X184300499Y-99921153D01*
X184269738Y-99766510D01*
X184269737Y-99766503D01*
X184269735Y-99766498D01*
X184209397Y-99620827D01*
X184209390Y-99620814D01*
X184121398Y-99489125D01*
X184100520Y-99422447D01*
X184100500Y-99420234D01*
X184100500Y-98260759D01*
X184120185Y-98193720D01*
X184172989Y-98147965D01*
X184242147Y-98138021D01*
X184293391Y-98157657D01*
X184370821Y-98209394D01*
X184370823Y-98209395D01*
X184370827Y-98209397D01*
X184494828Y-98260759D01*
X184516503Y-98269737D01*
X184671153Y-98300499D01*
X184671156Y-98300500D01*
X184671158Y-98300500D01*
X184828844Y-98300500D01*
X184828845Y-98300499D01*
X184983497Y-98269737D01*
X185129179Y-98209394D01*
X185260289Y-98121789D01*
X185371789Y-98010289D01*
X185459394Y-97879179D01*
X185519737Y-97733497D01*
X185550500Y-97578842D01*
X185550500Y-97421158D01*
X185550500Y-97421155D01*
X185550499Y-97421153D01*
X185519738Y-97266510D01*
X185519737Y-97266503D01*
X185462989Y-97129500D01*
X185459397Y-97120827D01*
X185459390Y-97120814D01*
X185371398Y-96989125D01*
X185350520Y-96922447D01*
X185350500Y-96920234D01*
X185350500Y-96624000D01*
X185370185Y-96556961D01*
X185422989Y-96511206D01*
X185474500Y-96500000D01*
X186916704Y-96500000D01*
X186983743Y-96519685D01*
X187029498Y-96572489D01*
X187034358Y-96584841D01*
X187051883Y-96637497D01*
X187051886Y-96637503D01*
X187129671Y-96758537D01*
X187129679Y-96758548D01*
X187175423Y-96811340D01*
X187175426Y-96811343D01*
X187175430Y-96811347D01*
X187284164Y-96905567D01*
X187284167Y-96905568D01*
X187284168Y-96905569D01*
X187378425Y-96948616D01*
X187415041Y-96965338D01*
X187482080Y-96985023D01*
X187482084Y-96985024D01*
X187624500Y-97005500D01*
X187624503Y-97005500D01*
X220375990Y-97005500D01*
X220376000Y-97005500D01*
X220483456Y-96993947D01*
X220534967Y-96982741D01*
X220577988Y-96968422D01*
X220637497Y-96948616D01*
X220637501Y-96948613D01*
X220637504Y-96948613D01*
X220758543Y-96870825D01*
X220811347Y-96825070D01*
X220905567Y-96716336D01*
X220965338Y-96585459D01*
X220985023Y-96518420D01*
X220985024Y-96518416D01*
X221005500Y-96376000D01*
X221005500Y-86124000D01*
X220993947Y-86016544D01*
X220982741Y-85965033D01*
X220982637Y-85964722D01*
X220948616Y-85862502D01*
X220948613Y-85862496D01*
X220908770Y-85800500D01*
X220870825Y-85741457D01*
X220861347Y-85730519D01*
X220825076Y-85688659D01*
X220825072Y-85688656D01*
X220825070Y-85688653D01*
X220716336Y-85594433D01*
X220716333Y-85594431D01*
X220716331Y-85594430D01*
X220585457Y-85534660D01*
X220581315Y-85533116D01*
X220582017Y-85531232D01*
X220530182Y-85497825D01*
X220501239Y-85434231D01*
X220500000Y-85416743D01*
X220500000Y-83247010D01*
X220519685Y-83179971D01*
X220536316Y-83159332D01*
X220821123Y-82874526D01*
X220857288Y-82834264D01*
X220873922Y-82813622D01*
X220905567Y-82769738D01*
X220965338Y-82638861D01*
X220985023Y-82571822D01*
X220985024Y-82571818D01*
X221005500Y-82429402D01*
X221005500Y-80939434D01*
X221002603Y-80885392D01*
X220999769Y-80859035D01*
X220991116Y-80805634D01*
X220940837Y-80670825D01*
X220940835Y-80670822D01*
X220940832Y-80670814D01*
X220908427Y-80611468D01*
X220907645Y-80609973D01*
X220907352Y-80609499D01*
X220907349Y-80609493D01*
X220821125Y-80494311D01*
X220705945Y-80408088D01*
X220705943Y-80408087D01*
X220644620Y-80374602D01*
X220644614Y-80374599D01*
X220644609Y-80374597D01*
X220580666Y-80350747D01*
X220524732Y-80308876D01*
X220500316Y-80243411D01*
X220500000Y-80234566D01*
X220500000Y-79266377D01*
X220519685Y-79199338D01*
X220572489Y-79153583D01*
X220589053Y-79147404D01*
X220637504Y-79133178D01*
X220758543Y-79055390D01*
X220811347Y-79009635D01*
X220905567Y-78900901D01*
X220965338Y-78770024D01*
X220985023Y-78702985D01*
X220985024Y-78702981D01*
X221005500Y-78560565D01*
X221005500Y-75825500D01*
X221025185Y-75758461D01*
X221077989Y-75712706D01*
X221129500Y-75701500D01*
X224982990Y-75701500D01*
X225050029Y-75721185D01*
X225095784Y-75773989D01*
X225105728Y-75843147D01*
X225076703Y-75906703D01*
X225055875Y-75925818D01*
X224995214Y-75969890D01*
X224995209Y-75969894D01*
X224844890Y-76120213D01*
X224719951Y-76292179D01*
X224623444Y-76481585D01*
X224557753Y-76683760D01*
X224524500Y-76893713D01*
X224524500Y-77106286D01*
X224557753Y-77316239D01*
X224623444Y-77518414D01*
X224719951Y-77707820D01*
X224844890Y-77879786D01*
X224995209Y-78030105D01*
X224995214Y-78030109D01*
X225159793Y-78149682D01*
X225202459Y-78205011D01*
X225208438Y-78274625D01*
X225175833Y-78336420D01*
X225159793Y-78350318D01*
X224995214Y-78469890D01*
X224995209Y-78469894D01*
X224844890Y-78620213D01*
X224719951Y-78792179D01*
X224623444Y-78981585D01*
X224557753Y-79183760D01*
X224524500Y-79393713D01*
X224524500Y-79606286D01*
X224557753Y-79816239D01*
X224623444Y-80018414D01*
X224719951Y-80207820D01*
X224844890Y-80379786D01*
X224995213Y-80530109D01*
X225167179Y-80655048D01*
X225167181Y-80655049D01*
X225167184Y-80655051D01*
X225356588Y-80751557D01*
X225558757Y-80817246D01*
X225768713Y-80850500D01*
X225768714Y-80850500D01*
X226231286Y-80850500D01*
X226231287Y-80850500D01*
X226441243Y-80817246D01*
X226643412Y-80751557D01*
X226832816Y-80655051D01*
X226895522Y-80609493D01*
X227004786Y-80530109D01*
X227004788Y-80530106D01*
X227004792Y-80530104D01*
X227155104Y-80379792D01*
X227155106Y-80379788D01*
X227155109Y-80379786D01*
X227280048Y-80207820D01*
X227280047Y-80207820D01*
X227280051Y-80207816D01*
X227376557Y-80018412D01*
X227442246Y-79816243D01*
X227475500Y-79606287D01*
X227475500Y-79393713D01*
X227442246Y-79183757D01*
X227376557Y-78981588D01*
X227280051Y-78792184D01*
X227280049Y-78792181D01*
X227280048Y-78792179D01*
X227155109Y-78620213D01*
X227004792Y-78469896D01*
X227004784Y-78469890D01*
X226840204Y-78350316D01*
X226797540Y-78294989D01*
X226791561Y-78225376D01*
X226824166Y-78163580D01*
X226840199Y-78149686D01*
X227004792Y-78030104D01*
X227155104Y-77879792D01*
X227155106Y-77879788D01*
X227155109Y-77879786D01*
X227280048Y-77707820D01*
X227280047Y-77707820D01*
X227280051Y-77707816D01*
X227376557Y-77518412D01*
X227442246Y-77316243D01*
X227475500Y-77106287D01*
X227475500Y-76893713D01*
X227442246Y-76683757D01*
X227376557Y-76481588D01*
X227280051Y-76292184D01*
X227280049Y-76292181D01*
X227280048Y-76292179D01*
X227155109Y-76120213D01*
X227004792Y-75969896D01*
X226944123Y-75925818D01*
X226840204Y-75850316D01*
X226797540Y-75794989D01*
X226791561Y-75725376D01*
X226824166Y-75663580D01*
X226840199Y-75649686D01*
X227004792Y-75530104D01*
X227155104Y-75379792D01*
X227155106Y-75379788D01*
X227155109Y-75379786D01*
X227280048Y-75207820D01*
X227280047Y-75207820D01*
X227280051Y-75207816D01*
X227376557Y-75018412D01*
X227442246Y-74816243D01*
X227475500Y-74606287D01*
X227475500Y-74393713D01*
X227442246Y-74183757D01*
X227376557Y-73981588D01*
X227280051Y-73792184D01*
X227280049Y-73792181D01*
X227280048Y-73792179D01*
X227155109Y-73620213D01*
X227004792Y-73469896D01*
X226973183Y-73446931D01*
X226840204Y-73350316D01*
X226797540Y-73294989D01*
X226791561Y-73225376D01*
X226824166Y-73163580D01*
X226840199Y-73149686D01*
X227004792Y-73030104D01*
X227155104Y-72879792D01*
X227155106Y-72879788D01*
X227155109Y-72879786D01*
X227280048Y-72707820D01*
X227280047Y-72707820D01*
X227280051Y-72707816D01*
X227376557Y-72518412D01*
X227442246Y-72316243D01*
X227475500Y-72106287D01*
X227475500Y-71893713D01*
X227442246Y-71683757D01*
X227376557Y-71481588D01*
X227280051Y-71292184D01*
X227280049Y-71292181D01*
X227280048Y-71292179D01*
X227155109Y-71120213D01*
X227004792Y-70969896D01*
X226992315Y-70960831D01*
X226840204Y-70850316D01*
X226797540Y-70794989D01*
X226791561Y-70725376D01*
X226824166Y-70663580D01*
X226840199Y-70649686D01*
X227004792Y-70530104D01*
X227155104Y-70379792D01*
X227155106Y-70379788D01*
X227155109Y-70379786D01*
X227280048Y-70207820D01*
X227280047Y-70207820D01*
X227280051Y-70207816D01*
X227376557Y-70018412D01*
X227442246Y-69816243D01*
X227475500Y-69606287D01*
X227475500Y-69393713D01*
X227442246Y-69183757D01*
X227376557Y-68981588D01*
X227280051Y-68792184D01*
X227280049Y-68792181D01*
X227280048Y-68792179D01*
X227155109Y-68620213D01*
X227004792Y-68469896D01*
X227004784Y-68469890D01*
X226840204Y-68350316D01*
X226797540Y-68294989D01*
X226791561Y-68225376D01*
X226824166Y-68163580D01*
X226840199Y-68149686D01*
X227004792Y-68030104D01*
X227155104Y-67879792D01*
X227155106Y-67879788D01*
X227155109Y-67879786D01*
X227280048Y-67707820D01*
X227280047Y-67707820D01*
X227280051Y-67707816D01*
X227376557Y-67518412D01*
X227442246Y-67316243D01*
X227475500Y-67106287D01*
X227475500Y-66893713D01*
X227442246Y-66683757D01*
X227376557Y-66481588D01*
X227280051Y-66292184D01*
X227280049Y-66292181D01*
X227280048Y-66292179D01*
X227155109Y-66120213D01*
X227004792Y-65969896D01*
X227004784Y-65969890D01*
X226840204Y-65850316D01*
X226797540Y-65794989D01*
X226791561Y-65725376D01*
X226824166Y-65663580D01*
X226840199Y-65649686D01*
X227004792Y-65530104D01*
X227155104Y-65379792D01*
X227155106Y-65379788D01*
X227155109Y-65379786D01*
X227280048Y-65207820D01*
X227280047Y-65207820D01*
X227280051Y-65207816D01*
X227376557Y-65018412D01*
X227442246Y-64816243D01*
X227475500Y-64606287D01*
X227475500Y-64393713D01*
X227442246Y-64183757D01*
X227376557Y-63981588D01*
X227280051Y-63792184D01*
X227280049Y-63792181D01*
X227280048Y-63792179D01*
X227155109Y-63620213D01*
X227004792Y-63469896D01*
X227004784Y-63469890D01*
X226840204Y-63350316D01*
X226797540Y-63294989D01*
X226791561Y-63225376D01*
X226824166Y-63163580D01*
X226840199Y-63149686D01*
X227004792Y-63030104D01*
X227155104Y-62879792D01*
X227155106Y-62879788D01*
X227155109Y-62879786D01*
X227278902Y-62709397D01*
X227280051Y-62707816D01*
X227376557Y-62518412D01*
X227442246Y-62316243D01*
X227475500Y-62106287D01*
X227475500Y-61893713D01*
X227442246Y-61683757D01*
X227376557Y-61481588D01*
X227280051Y-61292184D01*
X227280049Y-61292181D01*
X227280048Y-61292179D01*
X227155109Y-61120213D01*
X227004792Y-60969896D01*
X227004784Y-60969890D01*
X226840204Y-60850316D01*
X226797540Y-60794989D01*
X226791561Y-60725376D01*
X226824166Y-60663580D01*
X226840199Y-60649686D01*
X227004792Y-60530104D01*
X227155104Y-60379792D01*
X227155106Y-60379788D01*
X227155109Y-60379786D01*
X227280048Y-60207820D01*
X227280047Y-60207820D01*
X227280051Y-60207816D01*
X227376557Y-60018412D01*
X227442246Y-59816243D01*
X227475500Y-59606287D01*
X227475500Y-59393713D01*
X227442246Y-59183757D01*
X227376557Y-58981588D01*
X227280051Y-58792184D01*
X227280049Y-58792181D01*
X227280048Y-58792179D01*
X227155109Y-58620213D01*
X227004786Y-58469890D01*
X226832820Y-58344951D01*
X226643414Y-58248444D01*
X226643413Y-58248443D01*
X226643412Y-58248443D01*
X226441243Y-58182754D01*
X226441241Y-58182753D01*
X226441240Y-58182753D01*
X226279957Y-58157208D01*
X226231287Y-58149500D01*
X225768713Y-58149500D01*
X225720042Y-58157208D01*
X225558760Y-58182753D01*
X225356585Y-58248444D01*
X225167179Y-58344951D01*
X224995213Y-58469890D01*
X224844890Y-58620213D01*
X224719951Y-58792179D01*
X224623444Y-58981585D01*
X224557753Y-59183760D01*
X224524500Y-59393713D01*
X224524500Y-59606286D01*
X224557753Y-59816239D01*
X224623444Y-60018414D01*
X224719951Y-60207820D01*
X224844890Y-60379786D01*
X224995209Y-60530105D01*
X224995214Y-60530109D01*
X225159793Y-60649682D01*
X225202459Y-60705011D01*
X225208438Y-60774625D01*
X225175833Y-60836420D01*
X225159793Y-60850318D01*
X224995214Y-60969890D01*
X224995209Y-60969894D01*
X224844890Y-61120213D01*
X224719948Y-61292184D01*
X224719947Y-61292185D01*
X224699765Y-61331795D01*
X224689316Y-61342857D01*
X224682994Y-61356703D01*
X224665812Y-61367744D01*
X224651791Y-61382591D01*
X224636111Y-61386832D01*
X224624216Y-61394477D01*
X224589281Y-61399500D01*
X224579766Y-61399500D01*
X224512727Y-61379815D01*
X224510875Y-61378602D01*
X224379185Y-61290609D01*
X224379172Y-61290602D01*
X224233501Y-61230264D01*
X224233489Y-61230261D01*
X224078845Y-61199500D01*
X224078842Y-61199500D01*
X223921158Y-61199500D01*
X223921155Y-61199500D01*
X223766510Y-61230261D01*
X223766498Y-61230264D01*
X223620827Y-61290602D01*
X223620814Y-61290609D01*
X223489711Y-61378210D01*
X223489707Y-61378213D01*
X223378213Y-61489707D01*
X223378210Y-61489711D01*
X223290609Y-61620814D01*
X223290602Y-61620827D01*
X223230264Y-61766498D01*
X223230261Y-61766510D01*
X223199500Y-61921153D01*
X223199500Y-62078846D01*
X223230261Y-62233489D01*
X223230264Y-62233501D01*
X223290602Y-62379172D01*
X223290609Y-62379185D01*
X223378210Y-62510288D01*
X223378213Y-62510292D01*
X223489707Y-62621786D01*
X223489711Y-62621789D01*
X223620814Y-62709390D01*
X223620827Y-62709397D01*
X223732626Y-62755705D01*
X223766503Y-62769737D01*
X223921153Y-62800499D01*
X223921156Y-62800500D01*
X223921158Y-62800500D01*
X224078844Y-62800500D01*
X224078845Y-62800499D01*
X224233497Y-62769737D01*
X224379179Y-62709394D01*
X224440823Y-62668205D01*
X224510875Y-62621398D01*
X224528921Y-62615747D01*
X224544831Y-62605523D01*
X224575792Y-62601071D01*
X224577553Y-62600520D01*
X224579766Y-62600500D01*
X224589281Y-62600500D01*
X224656320Y-62620185D01*
X224699765Y-62668205D01*
X224719947Y-62707814D01*
X224719948Y-62707815D01*
X224844890Y-62879786D01*
X224995209Y-63030105D01*
X224995214Y-63030109D01*
X225159793Y-63149682D01*
X225202459Y-63205011D01*
X225208438Y-63274625D01*
X225175833Y-63336420D01*
X225159793Y-63350318D01*
X224995214Y-63469890D01*
X224995209Y-63469894D01*
X224844890Y-63620213D01*
X224719951Y-63792179D01*
X224623444Y-63981585D01*
X224557753Y-64183760D01*
X224524500Y-64393713D01*
X224524500Y-64606286D01*
X224557753Y-64816239D01*
X224623444Y-65018414D01*
X224719951Y-65207820D01*
X224844890Y-65379786D01*
X224995209Y-65530105D01*
X224995214Y-65530109D01*
X225159793Y-65649682D01*
X225202459Y-65705011D01*
X225208438Y-65774625D01*
X225175833Y-65836420D01*
X225159793Y-65850318D01*
X224995214Y-65969890D01*
X224995209Y-65969894D01*
X224844890Y-66120213D01*
X224719951Y-66292179D01*
X224623444Y-66481585D01*
X224557753Y-66683760D01*
X224524500Y-66893713D01*
X224524500Y-67106286D01*
X224557753Y-67316239D01*
X224623444Y-67518414D01*
X224719951Y-67707820D01*
X224844890Y-67879786D01*
X224995209Y-68030105D01*
X224995214Y-68030109D01*
X225159793Y-68149682D01*
X225202459Y-68205011D01*
X225208438Y-68274625D01*
X225175833Y-68336420D01*
X225159793Y-68350318D01*
X224995214Y-68469890D01*
X224995209Y-68469894D01*
X224844890Y-68620213D01*
X224719951Y-68792179D01*
X224623444Y-68981585D01*
X224557753Y-69183760D01*
X224524500Y-69393713D01*
X224524500Y-69606287D01*
X224557754Y-69816243D01*
X224577170Y-69876000D01*
X224623444Y-70018414D01*
X224719951Y-70207820D01*
X224844890Y-70379786D01*
X224995209Y-70530105D01*
X224995214Y-70530109D01*
X225159793Y-70649682D01*
X225202459Y-70705011D01*
X225208438Y-70774625D01*
X225175833Y-70836420D01*
X225159793Y-70850318D01*
X224995214Y-70969890D01*
X224995209Y-70969894D01*
X224844890Y-71120213D01*
X224719951Y-71292179D01*
X224623444Y-71481585D01*
X224557753Y-71683760D01*
X224524500Y-71893713D01*
X224524500Y-72106286D01*
X224557753Y-72316239D01*
X224623444Y-72518414D01*
X224719951Y-72707820D01*
X224844890Y-72879786D01*
X224995209Y-73030105D01*
X224995214Y-73030109D01*
X225159793Y-73149682D01*
X225202459Y-73205011D01*
X225208438Y-73274625D01*
X225175833Y-73336420D01*
X225159793Y-73350318D01*
X224995214Y-73469890D01*
X224995209Y-73469894D01*
X224844890Y-73620213D01*
X224719951Y-73792179D01*
X224623444Y-73981585D01*
X224557753Y-74183760D01*
X224524154Y-74395898D01*
X224494225Y-74459033D01*
X224434913Y-74495964D01*
X224401681Y-74500500D01*
X221129500Y-74500500D01*
X221062461Y-74480815D01*
X221016706Y-74428011D01*
X221005500Y-74376500D01*
X221005500Y-73748630D01*
X221005499Y-73748623D01*
X220989798Y-73623614D01*
X220974630Y-73564186D01*
X220928496Y-73446934D01*
X220842271Y-73331753D01*
X220792865Y-73282348D01*
X220792864Y-73282347D01*
X220677681Y-73196124D01*
X220677680Y-73196123D01*
X220581167Y-73160127D01*
X220525233Y-73118257D01*
X220500815Y-73052792D01*
X220500499Y-73043945D01*
X220500499Y-71457038D01*
X220520184Y-71389999D01*
X220572988Y-71344244D01*
X220589556Y-71338063D01*
X220637504Y-71323985D01*
X220758543Y-71246197D01*
X220811347Y-71200442D01*
X220905567Y-71091708D01*
X220965338Y-70960831D01*
X220985023Y-70893792D01*
X220985024Y-70893788D01*
X221005500Y-70751372D01*
X221005500Y-70629500D01*
X220993947Y-70522044D01*
X220982741Y-70470533D01*
X220982637Y-70470222D01*
X220948616Y-70368002D01*
X220948613Y-70367997D01*
X220948613Y-70367996D01*
X220919565Y-70322797D01*
X220899881Y-70255760D01*
X220911087Y-70204248D01*
X220965338Y-70085459D01*
X220985023Y-70018420D01*
X220985024Y-70018416D01*
X221005500Y-69876000D01*
X221005500Y-62917947D01*
X221005500Y-62917936D01*
X221005499Y-62917934D01*
X221002103Y-62859456D01*
X221002102Y-62859436D01*
X220998779Y-62830920D01*
X220988627Y-62773176D01*
X220981751Y-62755702D01*
X220975522Y-62686114D01*
X221007904Y-62624202D01*
X221009459Y-62622618D01*
X221010285Y-62621791D01*
X221010289Y-62621789D01*
X221121789Y-62510289D01*
X221209394Y-62379179D01*
X221269737Y-62233497D01*
X221300500Y-62078842D01*
X221300500Y-61921158D01*
X221300500Y-61921155D01*
X221300499Y-61921153D01*
X221269738Y-61766510D01*
X221269737Y-61766503D01*
X221235463Y-61683757D01*
X221209397Y-61620827D01*
X221209390Y-61620814D01*
X221121789Y-61489711D01*
X221121786Y-61489707D01*
X221007886Y-61375807D01*
X220974401Y-61314484D01*
X220976591Y-61253188D01*
X220983322Y-61230264D01*
X220985023Y-61224472D01*
X220985024Y-61224468D01*
X221005500Y-61082052D01*
X221005500Y-51124000D01*
X221025185Y-51056961D01*
X221077989Y-51011206D01*
X221129500Y-51000000D01*
X229375500Y-51000000D01*
X229442539Y-51019685D01*
G37*
%TD.AperFunction*%
%TD*%
%TA.AperFunction,Conductor*%
%TO.N,GND*%
G36*
X155790078Y-86013516D02*
G01*
X155802550Y-86019871D01*
X155802552Y-86019871D01*
X155802555Y-86019873D01*
X155967299Y-86073402D01*
X156138389Y-86100500D01*
X156138390Y-86100500D01*
X156861610Y-86100500D01*
X156861611Y-86100500D01*
X157032701Y-86073402D01*
X157197445Y-86019873D01*
X157197814Y-86019685D01*
X157209922Y-86013516D01*
X157266218Y-86000000D01*
X164866213Y-86000000D01*
X164900808Y-86004923D01*
X164979007Y-86027643D01*
X165015310Y-86030500D01*
X165015318Y-86030500D01*
X165484682Y-86030500D01*
X165484690Y-86030500D01*
X165520993Y-86027643D01*
X165599191Y-86004923D01*
X165633787Y-86000000D01*
X165713000Y-86000000D01*
X165780039Y-86019685D01*
X165825794Y-86072489D01*
X165837000Y-86124000D01*
X165837000Y-86365701D01*
X165839901Y-86402567D01*
X165839902Y-86402573D01*
X165885754Y-86560393D01*
X165885755Y-86560396D01*
X165885756Y-86560398D01*
X165909472Y-86600500D01*
X165969417Y-86701862D01*
X165969423Y-86701870D01*
X166085629Y-86818076D01*
X166085633Y-86818079D01*
X166085635Y-86818081D01*
X166227102Y-86901744D01*
X166268724Y-86913836D01*
X166384926Y-86947597D01*
X166384929Y-86947597D01*
X166384931Y-86947598D01*
X166421806Y-86950500D01*
X166899903Y-86950500D01*
X166966942Y-86970185D01*
X166987584Y-86986819D01*
X167765139Y-87764374D01*
X167765149Y-87764385D01*
X167769479Y-87768715D01*
X167769480Y-87768716D01*
X167881284Y-87880520D01*
X167919870Y-87902797D01*
X167968095Y-87930639D01*
X167968097Y-87930641D01*
X168006151Y-87952611D01*
X168018215Y-87959577D01*
X168170943Y-88000501D01*
X168170946Y-88000501D01*
X168336653Y-88000501D01*
X168336669Y-88000500D01*
X169817060Y-88000500D01*
X169884099Y-88020185D01*
X169904736Y-88036814D01*
X169989709Y-88121787D01*
X169989712Y-88121790D01*
X170120814Y-88209390D01*
X170120827Y-88209397D01*
X170266498Y-88269735D01*
X170266503Y-88269737D01*
X170421153Y-88300499D01*
X170421156Y-88300500D01*
X170421158Y-88300500D01*
X170578844Y-88300500D01*
X170578845Y-88300499D01*
X170733497Y-88269737D01*
X170879179Y-88209394D01*
X171010289Y-88121789D01*
X171053740Y-88078337D01*
X171115060Y-88044852D01*
X171184752Y-88049835D01*
X171229102Y-88078337D01*
X176540425Y-93389660D01*
X176573910Y-93450983D01*
X176574361Y-93453149D01*
X176605261Y-93608491D01*
X176605264Y-93608501D01*
X176665602Y-93754172D01*
X176665609Y-93754185D01*
X176753210Y-93885288D01*
X176753213Y-93885292D01*
X176864707Y-93996786D01*
X176864711Y-93996789D01*
X176995814Y-94084390D01*
X176995827Y-94084397D01*
X177132795Y-94141130D01*
X177141503Y-94144737D01*
X177296153Y-94175499D01*
X177296156Y-94175500D01*
X177296158Y-94175500D01*
X177453844Y-94175500D01*
X177453845Y-94175499D01*
X177608497Y-94144737D01*
X177754179Y-94084394D01*
X177885289Y-93996789D01*
X177996789Y-93885289D01*
X178084394Y-93754179D01*
X178092255Y-93735202D01*
X178144735Y-93608501D01*
X178144737Y-93608497D01*
X178175500Y-93453842D01*
X178175500Y-93296158D01*
X178175500Y-93296155D01*
X178175499Y-93296153D01*
X178173281Y-93285001D01*
X178144737Y-93141503D01*
X178118266Y-93077595D01*
X178084397Y-92995827D01*
X178084390Y-92995814D01*
X177996789Y-92864711D01*
X177996786Y-92864707D01*
X177885292Y-92753213D01*
X177885288Y-92753210D01*
X177754185Y-92665609D01*
X177754172Y-92665602D01*
X177608501Y-92605264D01*
X177608491Y-92605261D01*
X177453149Y-92574361D01*
X177391238Y-92541976D01*
X177389660Y-92540425D01*
X172498916Y-87649681D01*
X172465431Y-87588358D01*
X172470415Y-87518666D01*
X172512287Y-87462733D01*
X172577751Y-87438316D01*
X172586597Y-87438000D01*
X172965686Y-87438000D01*
X172965694Y-87438000D01*
X173002569Y-87435098D01*
X173002571Y-87435097D01*
X173002573Y-87435097D01*
X173044191Y-87423005D01*
X173160398Y-87389244D01*
X173301865Y-87305581D01*
X173418081Y-87189365D01*
X173501744Y-87047898D01*
X173547598Y-86890069D01*
X173550500Y-86853194D01*
X173550500Y-86124000D01*
X173553050Y-86115314D01*
X173551762Y-86106353D01*
X173562740Y-86082312D01*
X173570185Y-86056961D01*
X173577025Y-86051033D01*
X173580787Y-86042797D01*
X173603021Y-86028507D01*
X173622989Y-86011206D01*
X173633503Y-86008918D01*
X173639565Y-86005023D01*
X173674500Y-86000000D01*
X173725500Y-86000000D01*
X173792539Y-86019685D01*
X173838294Y-86072489D01*
X173849500Y-86124000D01*
X173849500Y-86853201D01*
X173852401Y-86890067D01*
X173852402Y-86890073D01*
X173898254Y-87047893D01*
X173898255Y-87047896D01*
X173981917Y-87189362D01*
X173981923Y-87189370D01*
X174098129Y-87305576D01*
X174098133Y-87305579D01*
X174098135Y-87305581D01*
X174239602Y-87389244D01*
X174281224Y-87401336D01*
X174397426Y-87435097D01*
X174397429Y-87435097D01*
X174397431Y-87435098D01*
X174434306Y-87438000D01*
X174434314Y-87438000D01*
X174865686Y-87438000D01*
X174865694Y-87438000D01*
X174902569Y-87435098D01*
X174902571Y-87435097D01*
X174902573Y-87435097D01*
X174944191Y-87423005D01*
X175060398Y-87389244D01*
X175096712Y-87367767D01*
X175112613Y-87363417D01*
X175124898Y-87355523D01*
X175159833Y-87350500D01*
X175353334Y-87350500D01*
X175420373Y-87370185D01*
X175441016Y-87386820D01*
X175484307Y-87430112D01*
X175484311Y-87430115D01*
X175484313Y-87430117D01*
X175623605Y-87512494D01*
X175644849Y-87518666D01*
X175779002Y-87557642D01*
X175779005Y-87557642D01*
X175779007Y-87557643D01*
X175815310Y-87560500D01*
X175815318Y-87560500D01*
X176224682Y-87560500D01*
X176224690Y-87560500D01*
X176260993Y-87557643D01*
X176260995Y-87557642D01*
X176260997Y-87557642D01*
X176325217Y-87538984D01*
X176416395Y-87512494D01*
X176555687Y-87430117D01*
X176670117Y-87315687D01*
X176752494Y-87176395D01*
X176797643Y-87020993D01*
X176800500Y-86984690D01*
X176800500Y-86515310D01*
X176797643Y-86479007D01*
X176797427Y-86478265D01*
X176752495Y-86323609D01*
X176752494Y-86323606D01*
X176752494Y-86323605D01*
X176671778Y-86187121D01*
X176654595Y-86119397D01*
X176676755Y-86053134D01*
X176731221Y-86009371D01*
X176778510Y-86000000D01*
X181775500Y-86000000D01*
X181842539Y-86019685D01*
X181888294Y-86072489D01*
X181899500Y-86124000D01*
X181899500Y-94420234D01*
X181879815Y-94487273D01*
X181878602Y-94489125D01*
X181790609Y-94620814D01*
X181790602Y-94620827D01*
X181730264Y-94766498D01*
X181730261Y-94766510D01*
X181699500Y-94921153D01*
X181699500Y-95078846D01*
X181730261Y-95233489D01*
X181730264Y-95233501D01*
X181790602Y-95379172D01*
X181790609Y-95379185D01*
X181878210Y-95510288D01*
X181878213Y-95510292D01*
X181989707Y-95621786D01*
X181989711Y-95621789D01*
X182120814Y-95709390D01*
X182120827Y-95709397D01*
X182266498Y-95769735D01*
X182266503Y-95769737D01*
X182396982Y-95795691D01*
X182421153Y-95800499D01*
X182421156Y-95800500D01*
X182421158Y-95800500D01*
X182578844Y-95800500D01*
X182578845Y-95800499D01*
X182733497Y-95769737D01*
X182733509Y-95769731D01*
X182739324Y-95767969D01*
X182740158Y-95770720D01*
X182797359Y-95764497D01*
X182859878Y-95795691D01*
X182895608Y-95855734D01*
X182899500Y-95886555D01*
X182899500Y-96376000D01*
X182879815Y-96443039D01*
X182827011Y-96488794D01*
X182775500Y-96500000D01*
X150624500Y-96500000D01*
X150557461Y-96480315D01*
X150511706Y-96427511D01*
X150500500Y-96376000D01*
X150500500Y-86124000D01*
X150520185Y-86056961D01*
X150572989Y-86011206D01*
X150624500Y-86000000D01*
X155733782Y-86000000D01*
X155790078Y-86013516D01*
G37*
%TD.AperFunction*%
%TA.AperFunction,Conductor*%
G36*
X218304757Y-86003122D02*
G01*
X218314640Y-86002131D01*
X218348047Y-86013514D01*
X218481588Y-86081557D01*
X218683757Y-86147246D01*
X218893713Y-86180500D01*
X218893714Y-86180500D01*
X219106286Y-86180500D01*
X219106287Y-86180500D01*
X219316243Y-86147246D01*
X219518412Y-86081557D01*
X219651952Y-86013514D01*
X219708247Y-86000000D01*
X220376000Y-86000000D01*
X220443039Y-86019685D01*
X220488794Y-86072489D01*
X220500000Y-86124000D01*
X220500000Y-96376000D01*
X220480315Y-96443039D01*
X220427511Y-96488794D01*
X220376000Y-96500000D01*
X187624500Y-96500000D01*
X187557461Y-96480315D01*
X187511706Y-96427511D01*
X187500500Y-96376000D01*
X187500500Y-91524500D01*
X187520185Y-91457461D01*
X187572989Y-91411706D01*
X187624500Y-91400500D01*
X192323543Y-91400500D01*
X192426816Y-91379957D01*
X192426815Y-91379957D01*
X192432306Y-91378865D01*
X192516836Y-91362051D01*
X192582591Y-91334814D01*
X192611224Y-91322953D01*
X192680693Y-91315487D01*
X192743171Y-91346763D01*
X192765403Y-91374393D01*
X192780843Y-91400500D01*
X192831917Y-91486862D01*
X192836702Y-91493031D01*
X192834256Y-91494927D01*
X192860857Y-91543642D01*
X192855873Y-91613334D01*
X192835069Y-91645703D01*
X192836702Y-91646969D01*
X192831917Y-91653137D01*
X192746046Y-91798339D01*
X192694977Y-91846022D01*
X192626235Y-91858526D01*
X192561646Y-91831881D01*
X192551633Y-91822899D01*
X192537603Y-91808869D01*
X192537595Y-91808863D01*
X192399393Y-91727131D01*
X192399388Y-91727129D01*
X192245208Y-91682335D01*
X192245202Y-91682334D01*
X192209181Y-91679500D01*
X191810830Y-91679500D01*
X191810808Y-91679501D01*
X191774794Y-91682335D01*
X191620611Y-91727129D01*
X191620606Y-91727131D01*
X191482404Y-91808863D01*
X191482396Y-91808869D01*
X191368869Y-91922396D01*
X191368863Y-91922404D01*
X191287131Y-92060606D01*
X191287129Y-92060611D01*
X191242335Y-92214791D01*
X191242334Y-92214797D01*
X191239500Y-92250811D01*
X191239500Y-92749169D01*
X191239501Y-92749191D01*
X191242335Y-92785205D01*
X191287129Y-92939388D01*
X191287131Y-92939393D01*
X191368863Y-93077595D01*
X191368869Y-93077603D01*
X191482396Y-93191130D01*
X191482400Y-93191133D01*
X191482402Y-93191135D01*
X191620607Y-93272869D01*
X191661268Y-93284682D01*
X191774791Y-93317664D01*
X191774794Y-93317664D01*
X191774796Y-93317665D01*
X191810819Y-93320500D01*
X192209180Y-93320499D01*
X192245204Y-93317665D01*
X192399393Y-93272869D01*
X192537598Y-93191135D01*
X192591915Y-93136817D01*
X192653236Y-93103334D01*
X192679595Y-93100500D01*
X193705831Y-93100500D01*
X193705847Y-93100501D01*
X193713443Y-93100501D01*
X193871554Y-93100501D01*
X193871557Y-93100501D01*
X194024285Y-93059577D01*
X194074404Y-93030639D01*
X194089185Y-93022106D01*
X194089286Y-93022081D01*
X194151173Y-93005500D01*
X194890686Y-93005500D01*
X194890694Y-93005500D01*
X194927569Y-93002598D01*
X194927571Y-93002597D01*
X194927573Y-93002597D01*
X194969191Y-92990505D01*
X195085398Y-92956744D01*
X195226865Y-92873081D01*
X195343081Y-92756865D01*
X195426744Y-92615398D01*
X195472598Y-92457569D01*
X195475500Y-92420694D01*
X195475500Y-91989306D01*
X195472598Y-91952431D01*
X195468276Y-91937556D01*
X195426745Y-91794606D01*
X195426744Y-91794603D01*
X195426744Y-91794602D01*
X195343081Y-91653135D01*
X195343078Y-91653132D01*
X195338298Y-91646969D01*
X195340750Y-91645066D01*
X195314155Y-91596421D01*
X195319104Y-91526726D01*
X195339940Y-91494304D01*
X195338298Y-91493031D01*
X195343075Y-91486870D01*
X195343081Y-91486865D01*
X195426744Y-91345398D01*
X195472598Y-91187569D01*
X195475500Y-91150694D01*
X195475500Y-90719306D01*
X195472598Y-90682431D01*
X195470006Y-90673511D01*
X195426745Y-90524606D01*
X195426744Y-90524603D01*
X195426744Y-90524602D01*
X195343081Y-90383135D01*
X195343078Y-90383132D01*
X195338298Y-90376969D01*
X195340750Y-90375066D01*
X195314155Y-90326421D01*
X195319104Y-90256726D01*
X195339940Y-90224304D01*
X195338298Y-90223031D01*
X195343075Y-90216870D01*
X195343081Y-90216865D01*
X195426744Y-90075398D01*
X195472598Y-89917569D01*
X195475500Y-89880694D01*
X195475500Y-89449306D01*
X195472598Y-89412431D01*
X195468841Y-89399501D01*
X195426745Y-89254606D01*
X195426744Y-89254603D01*
X195426744Y-89254602D01*
X195343081Y-89113135D01*
X195343078Y-89113132D01*
X195338298Y-89106969D01*
X195340750Y-89105066D01*
X195314155Y-89056421D01*
X195319104Y-88986726D01*
X195339940Y-88954304D01*
X195338298Y-88953031D01*
X195343075Y-88946870D01*
X195343081Y-88946865D01*
X195426744Y-88805398D01*
X195472598Y-88647569D01*
X195475500Y-88610694D01*
X195475500Y-88179306D01*
X195472598Y-88142431D01*
X195466601Y-88121790D01*
X195426745Y-87984606D01*
X195426744Y-87984603D01*
X195426744Y-87984602D01*
X195343081Y-87843135D01*
X195343079Y-87843133D01*
X195343076Y-87843129D01*
X195226870Y-87726923D01*
X195226862Y-87726917D01*
X195085396Y-87643255D01*
X195085393Y-87643254D01*
X194927573Y-87597402D01*
X194927567Y-87597401D01*
X194890701Y-87594500D01*
X194890694Y-87594500D01*
X194339074Y-87594500D01*
X194272035Y-87574815D01*
X194226280Y-87522011D01*
X194216336Y-87452853D01*
X194232342Y-87407379D01*
X194262494Y-87356395D01*
X194307643Y-87200993D01*
X194310500Y-87164690D01*
X194310500Y-86755310D01*
X194308841Y-86734229D01*
X194323206Y-86665852D01*
X194372257Y-86616096D01*
X194432459Y-86600501D01*
X194579054Y-86600501D01*
X194579057Y-86600501D01*
X194731785Y-86559577D01*
X194803424Y-86518216D01*
X194868716Y-86480520D01*
X194980520Y-86368716D01*
X194980520Y-86368714D01*
X194990724Y-86358511D01*
X194990728Y-86358506D01*
X195233610Y-86115623D01*
X195294931Y-86082140D01*
X195364623Y-86087124D01*
X195420556Y-86128996D01*
X195426828Y-86138209D01*
X195507288Y-86268656D01*
X195631344Y-86392712D01*
X195780666Y-86484814D01*
X195947203Y-86539999D01*
X196049991Y-86550500D01*
X197950008Y-86550499D01*
X198052797Y-86539999D01*
X198219334Y-86484814D01*
X198224608Y-86481560D01*
X198253144Y-86473751D01*
X198280862Y-86463413D01*
X198286466Y-86464632D01*
X198291999Y-86463118D01*
X198320228Y-86471976D01*
X198349135Y-86478265D01*
X198355535Y-86483056D01*
X198358663Y-86484038D01*
X198377389Y-86499416D01*
X198535292Y-86657319D01*
X198568777Y-86718642D01*
X198563793Y-86788334D01*
X198535292Y-86832681D01*
X198181485Y-87186487D01*
X198181484Y-87186488D01*
X198042657Y-87377565D01*
X197935433Y-87588003D01*
X197862446Y-87812631D01*
X197825500Y-88045902D01*
X197825500Y-88161725D01*
X197825118Y-88171453D01*
X197824500Y-88179298D01*
X197824500Y-88610701D01*
X197827401Y-88647567D01*
X197827402Y-88647573D01*
X197873254Y-88805393D01*
X197873255Y-88805396D01*
X197956917Y-88946862D01*
X197956923Y-88946870D01*
X198073129Y-89063076D01*
X198073133Y-89063079D01*
X198073135Y-89063081D01*
X198141095Y-89103272D01*
X198178298Y-89137126D01*
X198181481Y-89141508D01*
X198181483Y-89141510D01*
X198348490Y-89308517D01*
X198539566Y-89447343D01*
X198638992Y-89498003D01*
X198750003Y-89554566D01*
X198750005Y-89554566D01*
X198750008Y-89554568D01*
X198865615Y-89592131D01*
X198974631Y-89627553D01*
X199207903Y-89664500D01*
X199207908Y-89664500D01*
X199444097Y-89664500D01*
X199677368Y-89627553D01*
X199901992Y-89554568D01*
X200112434Y-89447343D01*
X200303510Y-89308517D01*
X201575208Y-88036819D01*
X201636531Y-88003334D01*
X201662889Y-88000500D01*
X203454092Y-88000500D01*
X203521131Y-88020185D01*
X203559636Y-88064271D01*
X203561395Y-88063187D01*
X203565185Y-88069332D01*
X203565186Y-88069334D01*
X203657288Y-88218656D01*
X203781344Y-88342712D01*
X203930666Y-88434814D01*
X204097203Y-88489999D01*
X204199991Y-88500500D01*
X207800008Y-88500499D01*
X207902797Y-88489999D01*
X208069334Y-88434814D01*
X208204042Y-88351725D01*
X208271430Y-88333287D01*
X208338094Y-88354209D01*
X208382864Y-88407851D01*
X208391525Y-88477182D01*
X208361329Y-88540190D01*
X208356816Y-88544947D01*
X207223584Y-89678181D01*
X207162261Y-89711666D01*
X207135903Y-89714500D01*
X205169596Y-89714500D01*
X205102557Y-89694815D01*
X205081915Y-89678181D01*
X205077603Y-89673869D01*
X205077595Y-89673863D01*
X204939393Y-89592131D01*
X204939388Y-89592129D01*
X204785208Y-89547335D01*
X204785202Y-89547334D01*
X204749181Y-89544500D01*
X204250830Y-89544500D01*
X204250808Y-89544501D01*
X204214794Y-89547335D01*
X204060611Y-89592129D01*
X204060606Y-89592131D01*
X203922404Y-89673863D01*
X203922396Y-89673869D01*
X203808869Y-89787396D01*
X203808863Y-89787404D01*
X203727131Y-89925606D01*
X203727129Y-89925611D01*
X203682335Y-90079791D01*
X203682334Y-90079797D01*
X203679500Y-90115811D01*
X203679500Y-90514169D01*
X203679501Y-90514191D01*
X203682335Y-90550205D01*
X203727129Y-90704388D01*
X203727132Y-90704395D01*
X203761128Y-90761881D01*
X203778309Y-90829605D01*
X203761128Y-90888119D01*
X203727132Y-90945604D01*
X203727129Y-90945611D01*
X203682335Y-91099791D01*
X203682334Y-91099797D01*
X203679500Y-91135811D01*
X203679500Y-91534169D01*
X203679501Y-91534191D01*
X203682335Y-91570205D01*
X203727129Y-91724388D01*
X203727131Y-91724393D01*
X203784163Y-91820830D01*
X203808865Y-91862598D01*
X203863182Y-91916915D01*
X203896666Y-91978236D01*
X203899500Y-92004595D01*
X203899500Y-92830404D01*
X203890855Y-92859844D01*
X203884332Y-92889831D01*
X203880577Y-92894846D01*
X203879815Y-92897443D01*
X203863181Y-92918085D01*
X203817085Y-92964181D01*
X203755762Y-92997666D01*
X203729404Y-93000500D01*
X202418046Y-93000500D01*
X202351007Y-92980815D01*
X202305252Y-92928011D01*
X202296429Y-92900691D01*
X202269738Y-92766510D01*
X202269737Y-92766503D01*
X202209394Y-92620821D01*
X202209392Y-92620818D01*
X202207746Y-92616844D01*
X202200277Y-92547374D01*
X202215571Y-92506277D01*
X202272869Y-92409393D01*
X202317665Y-92255204D01*
X202320500Y-92219181D01*
X202320499Y-91820820D01*
X202317665Y-91784796D01*
X202272869Y-91630607D01*
X202238869Y-91573117D01*
X202221688Y-91505398D01*
X202238869Y-91446882D01*
X202272869Y-91389393D01*
X202275611Y-91379957D01*
X202317664Y-91235208D01*
X202317665Y-91235202D01*
X202320499Y-91199188D01*
X202320500Y-91199181D01*
X202320499Y-90800820D01*
X202317665Y-90764796D01*
X202272869Y-90610607D01*
X202229839Y-90537847D01*
X202212657Y-90470127D01*
X202229841Y-90411607D01*
X202262494Y-90356395D01*
X202296047Y-90240905D01*
X202307642Y-90200997D01*
X202307643Y-90200991D01*
X202310499Y-90164697D01*
X202310500Y-90164690D01*
X202310500Y-89755310D01*
X202307643Y-89719007D01*
X202305510Y-89711666D01*
X202270781Y-89592129D01*
X202262494Y-89563605D01*
X202180117Y-89424313D01*
X202180115Y-89424311D01*
X202180112Y-89424307D01*
X202065692Y-89309887D01*
X202065684Y-89309881D01*
X201972219Y-89254606D01*
X201926395Y-89227506D01*
X201926394Y-89227505D01*
X201926393Y-89227505D01*
X201926390Y-89227504D01*
X201770997Y-89182357D01*
X201770991Y-89182356D01*
X201734697Y-89179500D01*
X201734690Y-89179500D01*
X201265310Y-89179500D01*
X201265302Y-89179500D01*
X201229008Y-89182356D01*
X201229002Y-89182357D01*
X201073609Y-89227504D01*
X201073606Y-89227505D01*
X200934315Y-89309881D01*
X200934307Y-89309887D01*
X200819887Y-89424307D01*
X200819881Y-89424315D01*
X200737505Y-89563606D01*
X200737504Y-89563609D01*
X200692357Y-89719002D01*
X200692356Y-89719008D01*
X200689500Y-89755302D01*
X200689500Y-90164697D01*
X200692356Y-90200991D01*
X200692357Y-90200997D01*
X200703952Y-90240905D01*
X200703877Y-90267158D01*
X200707614Y-90293147D01*
X200703779Y-90301543D01*
X200703753Y-90310775D01*
X200689494Y-90332822D01*
X200678589Y-90356703D01*
X200670824Y-90361693D01*
X200665811Y-90369445D01*
X200641895Y-90380283D01*
X200619811Y-90394477D01*
X200606291Y-90396420D01*
X200602172Y-90398288D01*
X200584876Y-90399500D01*
X200535809Y-90399500D01*
X200468770Y-90379815D01*
X200448128Y-90363181D01*
X200351870Y-90266923D01*
X200351862Y-90266917D01*
X200267223Y-90216862D01*
X200210398Y-90183256D01*
X200210397Y-90183255D01*
X200210396Y-90183255D01*
X200210393Y-90183254D01*
X200052573Y-90137402D01*
X200052567Y-90137401D01*
X200015701Y-90134500D01*
X200015694Y-90134500D01*
X198409306Y-90134500D01*
X198409298Y-90134500D01*
X198372432Y-90137401D01*
X198372426Y-90137402D01*
X198214606Y-90183254D01*
X198214603Y-90183255D01*
X198073137Y-90266917D01*
X198073129Y-90266923D01*
X197956923Y-90383129D01*
X197956917Y-90383137D01*
X197873255Y-90524603D01*
X197873254Y-90524606D01*
X197827402Y-90682426D01*
X197827401Y-90682432D01*
X197824500Y-90719298D01*
X197824500Y-91150701D01*
X197827401Y-91187567D01*
X197827402Y-91187573D01*
X197873254Y-91345393D01*
X197873255Y-91345396D01*
X197873256Y-91345398D01*
X197905843Y-91400500D01*
X197956917Y-91486862D01*
X197961702Y-91493031D01*
X197959256Y-91494927D01*
X197985857Y-91543642D01*
X197980873Y-91613334D01*
X197960069Y-91645703D01*
X197961702Y-91646969D01*
X197956917Y-91653137D01*
X197873255Y-91794603D01*
X197873254Y-91794606D01*
X197827402Y-91952426D01*
X197827401Y-91952432D01*
X197824500Y-91989298D01*
X197824500Y-92420701D01*
X197827401Y-92457567D01*
X197827402Y-92457573D01*
X197873254Y-92615393D01*
X197873255Y-92615396D01*
X197956917Y-92756862D01*
X197956923Y-92756870D01*
X198073129Y-92873076D01*
X198073133Y-92873079D01*
X198073135Y-92873081D01*
X198214602Y-92956744D01*
X198240200Y-92964181D01*
X198372426Y-93002597D01*
X198372429Y-93002597D01*
X198372431Y-93002598D01*
X198409306Y-93005500D01*
X199112403Y-93005500D01*
X199179442Y-93025185D01*
X199200084Y-93041819D01*
X199846084Y-93687819D01*
X199879569Y-93749142D01*
X199874585Y-93818834D01*
X199832713Y-93874767D01*
X199767249Y-93899184D01*
X199758403Y-93899500D01*
X199538585Y-93899500D01*
X199471546Y-93879815D01*
X199425791Y-93827011D01*
X199420879Y-93814504D01*
X199384814Y-93705666D01*
X199292712Y-93556344D01*
X199168656Y-93432288D01*
X199019334Y-93340186D01*
X198852797Y-93285001D01*
X198852795Y-93285000D01*
X198750010Y-93274500D01*
X198149998Y-93274500D01*
X198149980Y-93274501D01*
X198047203Y-93285000D01*
X198047200Y-93285001D01*
X197880668Y-93340185D01*
X197880663Y-93340187D01*
X197731342Y-93432289D01*
X197607289Y-93556342D01*
X197515187Y-93705663D01*
X197515186Y-93705666D01*
X197460001Y-93872203D01*
X197460001Y-93872204D01*
X197460000Y-93872204D01*
X197449500Y-93974983D01*
X197449500Y-95025001D01*
X197449501Y-95025019D01*
X197460000Y-95127796D01*
X197460001Y-95127799D01*
X197515185Y-95294331D01*
X197515187Y-95294336D01*
X197518989Y-95300500D01*
X197607288Y-95443656D01*
X197731344Y-95567712D01*
X197880666Y-95659814D01*
X198047203Y-95714999D01*
X198149991Y-95725500D01*
X198750008Y-95725499D01*
X198750016Y-95725498D01*
X198750019Y-95725498D01*
X198806302Y-95719748D01*
X198852797Y-95714999D01*
X199019334Y-95659814D01*
X199168656Y-95567712D01*
X199292712Y-95443656D01*
X199384814Y-95294334D01*
X199420879Y-95185494D01*
X199460652Y-95128051D01*
X199525167Y-95101228D01*
X199538585Y-95100500D01*
X200920234Y-95100500D01*
X200987273Y-95120185D01*
X200989125Y-95121398D01*
X201120814Y-95209390D01*
X201120827Y-95209397D01*
X201266498Y-95269735D01*
X201266503Y-95269737D01*
X201390145Y-95294331D01*
X201421153Y-95300499D01*
X201421156Y-95300500D01*
X201421158Y-95300500D01*
X201578844Y-95300500D01*
X201578845Y-95300499D01*
X201733497Y-95269737D01*
X201879179Y-95209394D01*
X202010289Y-95121789D01*
X202121789Y-95010289D01*
X202209394Y-94879179D01*
X202269737Y-94733497D01*
X202300500Y-94578842D01*
X202300500Y-94421158D01*
X202300500Y-94421155D01*
X202300499Y-94421153D01*
X202286285Y-94349691D01*
X202292512Y-94280100D01*
X202335375Y-94224922D01*
X202401265Y-94201678D01*
X202407902Y-94201500D01*
X203990552Y-94201500D01*
X204053672Y-94218767D01*
X204060607Y-94222869D01*
X204101268Y-94234682D01*
X204214791Y-94267664D01*
X204214794Y-94267664D01*
X204214796Y-94267665D01*
X204250819Y-94270500D01*
X204749180Y-94270499D01*
X204785204Y-94267665D01*
X204939393Y-94222869D01*
X205077598Y-94141135D01*
X205191135Y-94027598D01*
X205272869Y-93889393D01*
X205317665Y-93735204D01*
X205320500Y-93699181D01*
X205320499Y-93300820D01*
X205317665Y-93264796D01*
X205272869Y-93110607D01*
X205191135Y-92972402D01*
X205191133Y-92972400D01*
X205191130Y-92972396D01*
X205136819Y-92918085D01*
X205103334Y-92856762D01*
X205100500Y-92830404D01*
X205100500Y-92004595D01*
X205120185Y-91937556D01*
X205136814Y-91916918D01*
X205191135Y-91862598D01*
X205272869Y-91724393D01*
X205317665Y-91570204D01*
X205320500Y-91534181D01*
X205320499Y-91135820D01*
X205317665Y-91099796D01*
X205310198Y-91074094D01*
X205310397Y-91004227D01*
X205348338Y-90945556D01*
X205411976Y-90916712D01*
X205429274Y-90915500D01*
X207349331Y-90915500D01*
X207349347Y-90915501D01*
X207356943Y-90915501D01*
X207515054Y-90915501D01*
X207515057Y-90915501D01*
X207667785Y-90874577D01*
X207723174Y-90842598D01*
X207804716Y-90795520D01*
X207916520Y-90683716D01*
X207916520Y-90683714D01*
X207926724Y-90673511D01*
X207926727Y-90673506D01*
X209731520Y-88868716D01*
X209810577Y-88731784D01*
X209851501Y-88579057D01*
X209851501Y-88420942D01*
X209851501Y-88413347D01*
X209851500Y-88413329D01*
X209851500Y-86124000D01*
X209871185Y-86056961D01*
X209923989Y-86011206D01*
X209975500Y-86000000D01*
X218291753Y-86000000D01*
X218304757Y-86003122D01*
G37*
%TD.AperFunction*%
%TA.AperFunction,Conductor*%
G36*
X192632539Y-86019685D02*
G01*
X192678294Y-86072489D01*
X192689500Y-86124000D01*
X192689500Y-86204697D01*
X192692356Y-86240991D01*
X192692357Y-86240997D01*
X192737504Y-86396391D01*
X192737506Y-86396397D01*
X192749620Y-86416880D01*
X192766801Y-86484604D01*
X192749620Y-86543120D01*
X192737506Y-86563602D01*
X192737504Y-86563608D01*
X192692357Y-86719002D01*
X192692356Y-86719008D01*
X192689500Y-86755302D01*
X192689500Y-87164697D01*
X192692356Y-87200991D01*
X192692357Y-87200997D01*
X192737504Y-87356390D01*
X192737505Y-87356393D01*
X192737506Y-87356395D01*
X192767658Y-87407379D01*
X192819881Y-87495684D01*
X192819887Y-87495692D01*
X192863180Y-87538984D01*
X192877884Y-87565912D01*
X192894477Y-87591731D01*
X192895368Y-87597930D01*
X192896666Y-87600307D01*
X192899500Y-87626666D01*
X192899500Y-87720830D01*
X192899499Y-87720848D01*
X192899499Y-87724192D01*
X192899270Y-87724968D01*
X192898742Y-87734524D01*
X192898741Y-87734533D01*
X192896534Y-87734287D01*
X192879814Y-87791231D01*
X192863180Y-87811873D01*
X192831923Y-87843129D01*
X192831917Y-87843137D01*
X192748255Y-87984603D01*
X192748254Y-87984606D01*
X192702402Y-88142426D01*
X192702401Y-88142432D01*
X192699500Y-88179298D01*
X192699500Y-88607114D01*
X192693868Y-88626292D01*
X192693156Y-88646268D01*
X192684226Y-88659130D01*
X192679815Y-88674153D01*
X192664709Y-88687241D01*
X192653310Y-88703662D01*
X192629354Y-88717877D01*
X192627011Y-88719908D01*
X192622958Y-88721673D01*
X192614834Y-88725038D01*
X192569315Y-88743892D01*
X192486089Y-88778366D01*
X192486079Y-88778371D01*
X192322219Y-88887859D01*
X192263217Y-88946862D01*
X192182861Y-89027218D01*
X192182858Y-89027221D01*
X191846899Y-89363181D01*
X191785576Y-89396666D01*
X191759218Y-89399500D01*
X185974998Y-89399500D01*
X185974980Y-89399501D01*
X185872203Y-89410000D01*
X185872200Y-89410001D01*
X185705668Y-89465185D01*
X185705663Y-89465187D01*
X185606741Y-89526203D01*
X185560758Y-89554566D01*
X185556338Y-89557292D01*
X185551407Y-89561191D01*
X185486611Y-89587329D01*
X185417969Y-89574286D01*
X185367276Y-89526203D01*
X185350500Y-89463922D01*
X185350500Y-86124000D01*
X185370185Y-86056961D01*
X185422989Y-86011206D01*
X185474500Y-86000000D01*
X192565500Y-86000000D01*
X192632539Y-86019685D01*
G37*
%TD.AperFunction*%
%TD*%
%TA.AperFunction,Conductor*%
%TO.N,GND*%
G36*
X165599559Y-51520185D02*
G01*
X165645314Y-51572989D01*
X165655258Y-51642147D01*
X165626233Y-51705703D01*
X165589700Y-51732486D01*
X165590320Y-51733535D01*
X165444315Y-51819881D01*
X165444307Y-51819887D01*
X165329887Y-51934307D01*
X165329881Y-51934315D01*
X165247505Y-52073606D01*
X165247504Y-52073609D01*
X165202357Y-52229002D01*
X165202356Y-52229008D01*
X165199500Y-52265302D01*
X165199500Y-52734697D01*
X165202356Y-52770991D01*
X165202357Y-52770997D01*
X165247504Y-52926390D01*
X165247505Y-52926393D01*
X165311251Y-53034182D01*
X165328434Y-53101906D01*
X165306274Y-53168169D01*
X165269616Y-53202841D01*
X165260073Y-53208728D01*
X165181342Y-53257289D01*
X165057289Y-53381342D01*
X164965187Y-53530663D01*
X164965186Y-53530666D01*
X164910001Y-53697203D01*
X164910001Y-53697204D01*
X164910000Y-53697204D01*
X164899500Y-53799983D01*
X164899500Y-55200001D01*
X164899501Y-55200018D01*
X164910000Y-55302796D01*
X164910001Y-55302799D01*
X164965185Y-55469331D01*
X164965186Y-55469334D01*
X165057288Y-55618656D01*
X165181344Y-55742712D01*
X165330666Y-55834814D01*
X165439505Y-55870879D01*
X165459536Y-55884749D01*
X165481703Y-55894872D01*
X165487751Y-55904284D01*
X165496949Y-55910652D01*
X165506303Y-55933151D01*
X165519477Y-55953650D01*
X165521935Y-55970750D01*
X165523772Y-55975167D01*
X165524500Y-55988585D01*
X165524500Y-56201732D01*
X165504815Y-56268771D01*
X165463623Y-56308463D01*
X165444309Y-56319885D01*
X165329887Y-56434307D01*
X165329881Y-56434315D01*
X165247505Y-56573606D01*
X165247504Y-56573609D01*
X165202357Y-56729002D01*
X165202356Y-56729008D01*
X165199500Y-56765302D01*
X165199500Y-57234697D01*
X165202356Y-57270991D01*
X165202357Y-57270997D01*
X165247504Y-57426390D01*
X165247505Y-57426393D01*
X165247506Y-57426395D01*
X165269339Y-57463312D01*
X165329881Y-57565684D01*
X165329887Y-57565692D01*
X165444307Y-57680112D01*
X165444313Y-57680117D01*
X165463619Y-57691534D01*
X165511303Y-57742601D01*
X165524500Y-57798267D01*
X165524500Y-60420396D01*
X165515062Y-60467844D01*
X165505263Y-60491503D01*
X165505262Y-60491506D01*
X165505260Y-60491511D01*
X165474500Y-60646153D01*
X165474500Y-60803846D01*
X165505261Y-60958489D01*
X165505264Y-60958501D01*
X165565602Y-61104172D01*
X165565609Y-61104185D01*
X165653210Y-61235288D01*
X165653213Y-61235292D01*
X165764707Y-61346786D01*
X165764711Y-61346789D01*
X165895814Y-61434390D01*
X165895827Y-61434397D01*
X166029359Y-61489707D01*
X166041503Y-61494737D01*
X166196153Y-61525499D01*
X166196156Y-61525500D01*
X166196158Y-61525500D01*
X166353844Y-61525500D01*
X166353845Y-61525499D01*
X166508497Y-61494737D01*
X166654179Y-61434394D01*
X166785289Y-61346789D01*
X166787814Y-61344263D01*
X166789464Y-61343362D01*
X166789999Y-61342924D01*
X166790082Y-61343025D01*
X166849133Y-61310776D01*
X166918825Y-61315755D01*
X166974762Y-61357622D01*
X166999183Y-61423085D01*
X166999500Y-61431940D01*
X166999500Y-62127870D01*
X166999501Y-62127876D01*
X167005908Y-62187481D01*
X167018659Y-62221669D01*
X167023642Y-62291361D01*
X167018659Y-62308331D01*
X167005908Y-62342518D01*
X166999501Y-62402116D01*
X166999501Y-62402123D01*
X166999500Y-62402135D01*
X166999500Y-63397870D01*
X166999501Y-63397876D01*
X167005908Y-63457481D01*
X167018659Y-63491669D01*
X167023642Y-63561361D01*
X167018659Y-63578331D01*
X167005908Y-63612518D01*
X166999577Y-63671409D01*
X166999501Y-63672123D01*
X166999500Y-63672135D01*
X166999500Y-64667870D01*
X166999501Y-64667876D01*
X167005908Y-64727481D01*
X167018659Y-64761669D01*
X167023642Y-64831361D01*
X167018659Y-64848331D01*
X167005908Y-64882518D01*
X166999501Y-64942116D01*
X166999501Y-64942123D01*
X166999500Y-64942135D01*
X166999500Y-65937870D01*
X166999501Y-65937876D01*
X167005908Y-65997481D01*
X167018659Y-66031669D01*
X167023642Y-66101361D01*
X167018659Y-66118331D01*
X167005908Y-66152518D01*
X166999501Y-66212116D01*
X166999501Y-66212123D01*
X166999500Y-66212135D01*
X166999500Y-67091062D01*
X166979815Y-67158101D01*
X166927011Y-67203856D01*
X166857853Y-67213800D01*
X166840909Y-67210139D01*
X166745204Y-67182335D01*
X166745201Y-67182334D01*
X166745202Y-67182334D01*
X166709181Y-67179500D01*
X166310830Y-67179500D01*
X166310808Y-67179501D01*
X166274794Y-67182335D01*
X166120611Y-67227129D01*
X166120604Y-67227132D01*
X166063119Y-67261128D01*
X165995395Y-67278309D01*
X165936881Y-67261128D01*
X165879395Y-67227132D01*
X165879388Y-67227129D01*
X165725208Y-67182335D01*
X165725202Y-67182334D01*
X165689181Y-67179500D01*
X165290830Y-67179500D01*
X165290808Y-67179501D01*
X165254799Y-67182334D01*
X165254796Y-67182335D01*
X165222592Y-67191690D01*
X165152725Y-67191491D01*
X165094055Y-67153549D01*
X165065212Y-67089910D01*
X165064000Y-67072614D01*
X165064000Y-61615061D01*
X165064001Y-61615048D01*
X165064001Y-61446945D01*
X165060637Y-61434390D01*
X165023077Y-61294217D01*
X165007438Y-61267129D01*
X164944024Y-61157291D01*
X164944018Y-61157283D01*
X164660460Y-60873726D01*
X164660458Y-60873724D01*
X164640814Y-60854079D01*
X164640811Y-60854074D01*
X164618455Y-60821175D01*
X164618216Y-60821317D01*
X164615960Y-60817503D01*
X164614689Y-60815632D01*
X164614246Y-60814609D01*
X164614244Y-60814602D01*
X164606866Y-60802127D01*
X164530583Y-60673138D01*
X164530576Y-60673129D01*
X164414370Y-60556923D01*
X164414362Y-60556917D01*
X164319571Y-60500858D01*
X164272898Y-60473256D01*
X164272897Y-60473255D01*
X164272896Y-60473255D01*
X164272893Y-60473254D01*
X164115073Y-60427402D01*
X164115067Y-60427401D01*
X164078201Y-60424500D01*
X164078194Y-60424500D01*
X162921806Y-60424500D01*
X162921798Y-60424500D01*
X162884932Y-60427401D01*
X162884926Y-60427402D01*
X162719925Y-60475340D01*
X162706632Y-60475302D01*
X162694176Y-60479948D01*
X162672370Y-60475204D01*
X162650055Y-60475141D01*
X162637371Y-60467590D01*
X162625903Y-60465096D01*
X162597649Y-60443945D01*
X162426429Y-60272726D01*
X162426427Y-60272723D01*
X162297185Y-60143481D01*
X162297184Y-60143480D01*
X162210372Y-60093360D01*
X162210372Y-60093359D01*
X162210368Y-60093358D01*
X162160253Y-60064423D01*
X162007525Y-60023499D01*
X161849411Y-60023499D01*
X161841815Y-60023499D01*
X161841799Y-60023500D01*
X160095500Y-60023500D01*
X160028461Y-60003815D01*
X159982706Y-59951011D01*
X159971500Y-59899500D01*
X159971500Y-57252274D01*
X159971501Y-57252261D01*
X159971501Y-57084160D01*
X159971501Y-57084158D01*
X159930577Y-56931430D01*
X159915464Y-56905255D01*
X159894821Y-56869499D01*
X159894820Y-56869498D01*
X159851521Y-56794501D01*
X159851520Y-56794499D01*
X159739716Y-56682695D01*
X159739715Y-56682694D01*
X159735385Y-56678364D01*
X159735374Y-56678354D01*
X157695375Y-54638355D01*
X157695373Y-54638352D01*
X157576502Y-54519481D01*
X157576501Y-54519480D01*
X157469733Y-54457838D01*
X157469732Y-54457837D01*
X157439568Y-54440422D01*
X157372323Y-54422404D01*
X157286842Y-54399499D01*
X157179594Y-54399499D01*
X157112555Y-54379814D01*
X157091917Y-54363184D01*
X157037598Y-54308865D01*
X156985761Y-54278209D01*
X156899393Y-54227131D01*
X156899388Y-54227129D01*
X156745208Y-54182335D01*
X156745202Y-54182334D01*
X156709181Y-54179500D01*
X156310830Y-54179500D01*
X156310808Y-54179501D01*
X156274794Y-54182335D01*
X156120611Y-54227129D01*
X156120606Y-54227131D01*
X155982404Y-54308863D01*
X155982396Y-54308869D01*
X155868869Y-54422396D01*
X155868863Y-54422404D01*
X155787131Y-54560606D01*
X155787129Y-54560611D01*
X155742335Y-54714791D01*
X155742334Y-54714797D01*
X155739500Y-54750811D01*
X155739500Y-55249169D01*
X155739501Y-55249191D01*
X155742335Y-55285205D01*
X155787129Y-55439388D01*
X155787131Y-55439393D01*
X155868863Y-55577595D01*
X155868869Y-55577603D01*
X155982396Y-55691130D01*
X155982400Y-55691133D01*
X155982402Y-55691135D01*
X156120607Y-55772869D01*
X156145242Y-55780026D01*
X156274791Y-55817664D01*
X156274794Y-55817664D01*
X156274796Y-55817665D01*
X156310819Y-55820500D01*
X156709180Y-55820499D01*
X156745204Y-55817665D01*
X156899393Y-55772869D01*
X156962406Y-55735602D01*
X157030126Y-55718421D01*
X157096389Y-55740580D01*
X157113205Y-55754655D01*
X158734181Y-57375631D01*
X158767666Y-57436954D01*
X158770500Y-57463312D01*
X158770500Y-57875500D01*
X158750815Y-57942539D01*
X158698011Y-57988294D01*
X158646500Y-57999500D01*
X157572129Y-57999500D01*
X157572123Y-57999501D01*
X157512516Y-58005908D01*
X157475942Y-58019550D01*
X157406250Y-58024534D01*
X157344929Y-57991049D01*
X157253367Y-57899487D01*
X157253365Y-57899485D01*
X157187750Y-57861602D01*
X157122136Y-57823719D01*
X157048950Y-57804109D01*
X156975766Y-57784500D01*
X156824234Y-57784500D01*
X156677863Y-57823719D01*
X156546635Y-57899485D01*
X156546632Y-57899487D01*
X156439487Y-58006632D01*
X156439485Y-58006635D01*
X156363719Y-58137863D01*
X156344029Y-58211350D01*
X156324500Y-58284234D01*
X156324500Y-58435766D01*
X156338762Y-58488994D01*
X156363719Y-58582136D01*
X156374322Y-58600500D01*
X156439485Y-58713365D01*
X156439487Y-58713367D01*
X156534761Y-58808641D01*
X156568246Y-58869964D01*
X156563262Y-58939656D01*
X156534761Y-58984003D01*
X156131284Y-59387481D01*
X155881286Y-59637478D01*
X155769481Y-59749282D01*
X155769479Y-59749285D01*
X155719361Y-59836094D01*
X155719359Y-59836096D01*
X155690425Y-59886209D01*
X155690424Y-59886210D01*
X155690423Y-59886215D01*
X155649499Y-60038943D01*
X155649499Y-60038945D01*
X155649499Y-60207046D01*
X155649500Y-60207059D01*
X155649500Y-62295330D01*
X155649499Y-62295348D01*
X155649499Y-62461054D01*
X155649498Y-62461054D01*
X155690423Y-62613785D01*
X155708145Y-62644480D01*
X155708144Y-62644480D01*
X155708145Y-62644481D01*
X155769475Y-62750709D01*
X155769481Y-62750717D01*
X155888349Y-62869585D01*
X155888355Y-62869590D01*
X156534761Y-63515996D01*
X156568246Y-63577319D01*
X156563262Y-63647011D01*
X156534762Y-63691358D01*
X156439485Y-63786635D01*
X156363719Y-63917863D01*
X156324500Y-64064234D01*
X156324500Y-64215765D01*
X156363719Y-64362136D01*
X156385292Y-64399500D01*
X156439485Y-64493365D01*
X156546635Y-64600515D01*
X156677865Y-64676281D01*
X156824234Y-64715500D01*
X156824236Y-64715500D01*
X156975764Y-64715500D01*
X156975766Y-64715500D01*
X157122135Y-64676281D01*
X157253365Y-64600515D01*
X157344931Y-64508948D01*
X157406250Y-64475466D01*
X157475942Y-64480450D01*
X157506296Y-64491771D01*
X157512517Y-64494091D01*
X157572127Y-64500500D01*
X159117872Y-64500499D01*
X159177483Y-64494091D01*
X159312331Y-64443796D01*
X159427546Y-64357546D01*
X159513796Y-64242331D01*
X159564091Y-64107483D01*
X159568741Y-64064234D01*
X159569636Y-64055914D01*
X159596374Y-63991364D01*
X159605235Y-63981499D01*
X159975638Y-63611096D01*
X160036959Y-63577613D01*
X160106651Y-63582597D01*
X160162584Y-63624469D01*
X160170049Y-63635658D01*
X160194416Y-63676861D01*
X160194423Y-63676870D01*
X160310629Y-63793076D01*
X160310633Y-63793079D01*
X160310635Y-63793081D01*
X160452102Y-63876744D01*
X160459241Y-63878818D01*
X160609926Y-63922597D01*
X160609929Y-63922597D01*
X160609931Y-63922598D01*
X160646806Y-63925500D01*
X160646814Y-63925500D01*
X161803186Y-63925500D01*
X161803194Y-63925500D01*
X161840069Y-63922598D01*
X161840071Y-63922597D01*
X161840073Y-63922597D01*
X161914908Y-63900855D01*
X161997898Y-63876744D01*
X162139365Y-63793081D01*
X162255581Y-63676865D01*
X162255767Y-63676549D01*
X162255977Y-63676353D01*
X162260361Y-63670702D01*
X162261272Y-63671409D01*
X162306836Y-63628866D01*
X162375577Y-63616362D01*
X162440167Y-63643006D01*
X162464355Y-63670921D01*
X162464639Y-63670702D01*
X162468679Y-63675911D01*
X162469232Y-63676548D01*
X162469419Y-63676865D01*
X162469421Y-63676867D01*
X162469423Y-63676870D01*
X162585629Y-63793076D01*
X162585633Y-63793079D01*
X162585635Y-63793081D01*
X162727102Y-63876744D01*
X162810097Y-63900856D01*
X162868980Y-63938462D01*
X162898187Y-64001934D01*
X162899500Y-64019932D01*
X162899500Y-67423330D01*
X162899499Y-67423348D01*
X162899499Y-67589054D01*
X162899498Y-67589054D01*
X162929492Y-67700991D01*
X162940423Y-67741785D01*
X162955683Y-67768215D01*
X162998214Y-67841882D01*
X163019479Y-67878715D01*
X163138349Y-67997585D01*
X163138355Y-67997590D01*
X164683181Y-69542416D01*
X164695091Y-69564228D01*
X164710505Y-69583730D01*
X164713130Y-69597264D01*
X164716666Y-69603739D01*
X164718909Y-69618009D01*
X164719500Y-69624045D01*
X164719501Y-69749180D01*
X164722335Y-69785204D01*
X164741874Y-69852457D01*
X164742996Y-69863912D01*
X164738532Y-69887382D01*
X164738464Y-69911274D01*
X164732122Y-69921079D01*
X164729941Y-69932551D01*
X164713495Y-69949882D01*
X164700522Y-69969944D01*
X164689886Y-69974764D01*
X164681849Y-69983235D01*
X164658646Y-69988924D01*
X164636884Y-69998788D01*
X164619587Y-70000000D01*
X150624500Y-70000000D01*
X150557461Y-69980315D01*
X150511706Y-69927511D01*
X150500500Y-69876000D01*
X150500500Y-51624500D01*
X150520185Y-51557461D01*
X150572989Y-51511706D01*
X150624500Y-51500500D01*
X165532520Y-51500500D01*
X165599559Y-51520185D01*
G37*
%TD.AperFunction*%
%TA.AperFunction,Conductor*%
G36*
X206755942Y-52609185D02*
G01*
X206776584Y-52625819D01*
X208873181Y-54722416D01*
X208906666Y-54783739D01*
X208909500Y-54810097D01*
X208909500Y-57070725D01*
X208889815Y-57137764D01*
X208837011Y-57183519D01*
X208767853Y-57193463D01*
X208750906Y-57189802D01*
X208725202Y-57182334D01*
X208689181Y-57179500D01*
X208290830Y-57179500D01*
X208290808Y-57179501D01*
X208254794Y-57182335D01*
X208100611Y-57227129D01*
X208100606Y-57227131D01*
X208091982Y-57232232D01*
X208028861Y-57249500D01*
X207304604Y-57249500D01*
X207257155Y-57240062D01*
X207233497Y-57230263D01*
X207233493Y-57230262D01*
X207233488Y-57230260D01*
X207078845Y-57199500D01*
X207078842Y-57199500D01*
X206921158Y-57199500D01*
X206921155Y-57199500D01*
X206766510Y-57230261D01*
X206766498Y-57230264D01*
X206620827Y-57290602D01*
X206620814Y-57290609D01*
X206489711Y-57378210D01*
X206489707Y-57378213D01*
X206378213Y-57489707D01*
X206378210Y-57489711D01*
X206290609Y-57620814D01*
X206290602Y-57620827D01*
X206230264Y-57766498D01*
X206230261Y-57766510D01*
X206199500Y-57921153D01*
X206199500Y-58078846D01*
X206230261Y-58233489D01*
X206232031Y-58239324D01*
X206229279Y-58240158D01*
X206235503Y-58297359D01*
X206204309Y-58359878D01*
X206144266Y-58395608D01*
X206113445Y-58399500D01*
X202079766Y-58399500D01*
X202012727Y-58379815D01*
X202010875Y-58378602D01*
X201879185Y-58290609D01*
X201879172Y-58290602D01*
X201733501Y-58230264D01*
X201733489Y-58230261D01*
X201578845Y-58199500D01*
X201578842Y-58199500D01*
X201421158Y-58199500D01*
X201421155Y-58199500D01*
X201266510Y-58230261D01*
X201266498Y-58230264D01*
X201120827Y-58290602D01*
X201120814Y-58290609D01*
X200989711Y-58378210D01*
X200989707Y-58378213D01*
X200878213Y-58489707D01*
X200878210Y-58489711D01*
X200790609Y-58620814D01*
X200790602Y-58620827D01*
X200730264Y-58766498D01*
X200730261Y-58766510D01*
X200699500Y-58921153D01*
X200699500Y-59025500D01*
X200679815Y-59092539D01*
X200627011Y-59138294D01*
X200575500Y-59149500D01*
X195050098Y-59149500D01*
X194983059Y-59129815D01*
X194962417Y-59113181D01*
X194868717Y-59019481D01*
X194868716Y-59019480D01*
X194781904Y-58969360D01*
X194781904Y-58969359D01*
X194781900Y-58969358D01*
X194731785Y-58940423D01*
X194579057Y-58899499D01*
X194420943Y-58899499D01*
X194413347Y-58899499D01*
X194413331Y-58899500D01*
X187124499Y-58899500D01*
X187116955Y-58897284D01*
X187109195Y-58898552D01*
X187083905Y-58887580D01*
X187057460Y-58879815D01*
X187052311Y-58873873D01*
X187045098Y-58870744D01*
X187029754Y-58847841D01*
X187011705Y-58827011D01*
X187009599Y-58817755D01*
X187006210Y-58812697D01*
X187001567Y-58782457D01*
X187000522Y-58777864D01*
X187000499Y-58776657D01*
X187000499Y-58592128D01*
X186996221Y-58552334D01*
X186996117Y-58546864D01*
X187003937Y-58518219D01*
X187009211Y-58488994D01*
X187013039Y-58484882D01*
X187014519Y-58479462D01*
X187036587Y-58459590D01*
X187056822Y-58437857D01*
X187062431Y-58436318D01*
X187066441Y-58432708D01*
X187089049Y-58429016D01*
X187120094Y-58420500D01*
X194593331Y-58420500D01*
X194593347Y-58420501D01*
X194600943Y-58420501D01*
X194759054Y-58420501D01*
X194759057Y-58420501D01*
X194911785Y-58379577D01*
X194963879Y-58349500D01*
X195048716Y-58300520D01*
X195160520Y-58188716D01*
X195160520Y-58188714D01*
X195170724Y-58178511D01*
X195170728Y-58178506D01*
X197515478Y-55833755D01*
X197576799Y-55800272D01*
X197641473Y-55803506D01*
X197683757Y-55817246D01*
X197893713Y-55850500D01*
X197893714Y-55850500D01*
X198106286Y-55850500D01*
X198106287Y-55850500D01*
X198316243Y-55817246D01*
X198518412Y-55751557D01*
X198707816Y-55655051D01*
X198730595Y-55638501D01*
X198879786Y-55530109D01*
X198879788Y-55530106D01*
X198879792Y-55530104D01*
X199030104Y-55379792D01*
X199030106Y-55379788D01*
X199030109Y-55379786D01*
X199155048Y-55207820D01*
X199155047Y-55207820D01*
X199155051Y-55207816D01*
X199251557Y-55018412D01*
X199284759Y-54916228D01*
X205649500Y-54916228D01*
X205649500Y-55083771D01*
X205682182Y-55248074D01*
X205682184Y-55248082D01*
X205746295Y-55402860D01*
X205839373Y-55542162D01*
X205957837Y-55660626D01*
X206003499Y-55691136D01*
X206097137Y-55753703D01*
X206097138Y-55753703D01*
X206097139Y-55753704D01*
X206132201Y-55768227D01*
X206251918Y-55817816D01*
X206350792Y-55837483D01*
X206416228Y-55850499D01*
X206416232Y-55850500D01*
X206416233Y-55850500D01*
X206583768Y-55850500D01*
X206583769Y-55850499D01*
X206748082Y-55817816D01*
X206902863Y-55753703D01*
X207042162Y-55660626D01*
X207160626Y-55542162D01*
X207253703Y-55402863D01*
X207317816Y-55248082D01*
X207350500Y-55083767D01*
X207350500Y-54916233D01*
X207317816Y-54751918D01*
X207253703Y-54597137D01*
X207201814Y-54519480D01*
X207160626Y-54457837D01*
X207042162Y-54339373D01*
X206902860Y-54246295D01*
X206748082Y-54182184D01*
X206748074Y-54182182D01*
X206583771Y-54149500D01*
X206583767Y-54149500D01*
X206416233Y-54149500D01*
X206416228Y-54149500D01*
X206251925Y-54182182D01*
X206251917Y-54182184D01*
X206097139Y-54246295D01*
X205957837Y-54339373D01*
X205957836Y-54339375D01*
X205839376Y-54457834D01*
X205839373Y-54457837D01*
X205746295Y-54597139D01*
X205682184Y-54751917D01*
X205682182Y-54751925D01*
X205649500Y-54916228D01*
X199284759Y-54916228D01*
X199317246Y-54816243D01*
X199350500Y-54606287D01*
X199350500Y-54393713D01*
X199317246Y-54183757D01*
X199251557Y-53981588D01*
X199155051Y-53792184D01*
X199155049Y-53792181D01*
X199155048Y-53792179D01*
X199030109Y-53620213D01*
X198879786Y-53469890D01*
X198707820Y-53344951D01*
X198518414Y-53248444D01*
X198518413Y-53248443D01*
X198518412Y-53248443D01*
X198316243Y-53182754D01*
X198316241Y-53182753D01*
X198316240Y-53182753D01*
X198154957Y-53157208D01*
X198106287Y-53149500D01*
X197893713Y-53149500D01*
X197845042Y-53157208D01*
X197683760Y-53182753D01*
X197481585Y-53248444D01*
X197292179Y-53344951D01*
X197120213Y-53469890D01*
X196969890Y-53620213D01*
X196844949Y-53792182D01*
X196840484Y-53800946D01*
X196792509Y-53851742D01*
X196724688Y-53868536D01*
X196658553Y-53845998D01*
X196619516Y-53800946D01*
X196615050Y-53792182D01*
X196490109Y-53620213D01*
X196339786Y-53469890D01*
X196167820Y-53344951D01*
X195978414Y-53248444D01*
X195978413Y-53248443D01*
X195978412Y-53248443D01*
X195776243Y-53182754D01*
X195776241Y-53182753D01*
X195776240Y-53182753D01*
X195614957Y-53157208D01*
X195566287Y-53149500D01*
X195353713Y-53149500D01*
X195305042Y-53157208D01*
X195143760Y-53182753D01*
X194941585Y-53248444D01*
X194752179Y-53344951D01*
X194580213Y-53469890D01*
X194429890Y-53620213D01*
X194304951Y-53792179D01*
X194208444Y-53981585D01*
X194142753Y-54183760D01*
X194118106Y-54339375D01*
X194109500Y-54393713D01*
X194109500Y-54606287D01*
X194114579Y-54638352D01*
X194142754Y-54816244D01*
X194142754Y-54816247D01*
X194156491Y-54858523D01*
X194158486Y-54928364D01*
X194126241Y-54984522D01*
X193197584Y-55913181D01*
X193136261Y-55946666D01*
X193109903Y-55949500D01*
X187120094Y-55949500D01*
X187053055Y-55929815D01*
X187007300Y-55877011D01*
X186996804Y-55812246D01*
X187000500Y-55777873D01*
X187000499Y-54782128D01*
X186994091Y-54722517D01*
X186981340Y-54688332D01*
X186976357Y-54618642D01*
X186981340Y-54601669D01*
X186994091Y-54567483D01*
X187000500Y-54507873D01*
X187000499Y-53512128D01*
X186994091Y-53452517D01*
X186967545Y-53381344D01*
X186943797Y-53317671D01*
X186943793Y-53317664D01*
X186857547Y-53202455D01*
X186857544Y-53202452D01*
X186742335Y-53116206D01*
X186742328Y-53116202D01*
X186607482Y-53065908D01*
X186607483Y-53065908D01*
X186547883Y-53059501D01*
X186547881Y-53059500D01*
X186547873Y-53059500D01*
X186547864Y-53059500D01*
X184952129Y-53059500D01*
X184952123Y-53059501D01*
X184892516Y-53065908D01*
X184757671Y-53116202D01*
X184757664Y-53116206D01*
X184642455Y-53202452D01*
X184642452Y-53202455D01*
X184556206Y-53317664D01*
X184556202Y-53317671D01*
X184505908Y-53452517D01*
X184504040Y-53469896D01*
X184499501Y-53512123D01*
X184499500Y-53512135D01*
X184499500Y-54507870D01*
X184499501Y-54507876D01*
X184505908Y-54567481D01*
X184518659Y-54601669D01*
X184523642Y-54671361D01*
X184518659Y-54688331D01*
X184505908Y-54722518D01*
X184502747Y-54751925D01*
X184499501Y-54782123D01*
X184499500Y-54782135D01*
X184499500Y-55777870D01*
X184499501Y-55777876D01*
X184505908Y-55837481D01*
X184518659Y-55871669D01*
X184523642Y-55941361D01*
X184518659Y-55958331D01*
X184505908Y-55992518D01*
X184499501Y-56052116D01*
X184499501Y-56052123D01*
X184499500Y-56052135D01*
X184499500Y-57047870D01*
X184499501Y-57047876D01*
X184505908Y-57107481D01*
X184518659Y-57141669D01*
X184523642Y-57211361D01*
X184518659Y-57228331D01*
X184505908Y-57262518D01*
X184499501Y-57322116D01*
X184499501Y-57322123D01*
X184499500Y-57322135D01*
X184499500Y-58317870D01*
X184499501Y-58317876D01*
X184505908Y-58377481D01*
X184518659Y-58411669D01*
X184523642Y-58481361D01*
X184518659Y-58498331D01*
X184505908Y-58532518D01*
X184504366Y-58546864D01*
X184499501Y-58592123D01*
X184499500Y-58592135D01*
X184499500Y-59587870D01*
X184499501Y-59587876D01*
X184505908Y-59647481D01*
X184518659Y-59681669D01*
X184523642Y-59751361D01*
X184518659Y-59768331D01*
X184505908Y-59802518D01*
X184499501Y-59862116D01*
X184499501Y-59862123D01*
X184499500Y-59862135D01*
X184499500Y-60857870D01*
X184499501Y-60857876D01*
X184505908Y-60917481D01*
X184518659Y-60951669D01*
X184523642Y-61021361D01*
X184518659Y-61038331D01*
X184505908Y-61072518D01*
X184502504Y-61104185D01*
X184499501Y-61132123D01*
X184499500Y-61132135D01*
X184499500Y-62127870D01*
X184499501Y-62127876D01*
X184505908Y-62187481D01*
X184518659Y-62221669D01*
X184523642Y-62291361D01*
X184518659Y-62308331D01*
X184505908Y-62342518D01*
X184499501Y-62402116D01*
X184499501Y-62402123D01*
X184499500Y-62402135D01*
X184499500Y-63397870D01*
X184499501Y-63397876D01*
X184505908Y-63457481D01*
X184518659Y-63491669D01*
X184523642Y-63561361D01*
X184518659Y-63578331D01*
X184505908Y-63612518D01*
X184499577Y-63671409D01*
X184499501Y-63672123D01*
X184499500Y-63672135D01*
X184499500Y-64667870D01*
X184499501Y-64667876D01*
X184505908Y-64727481D01*
X184518659Y-64761669D01*
X184523642Y-64831361D01*
X184518659Y-64848331D01*
X184505908Y-64882518D01*
X184499501Y-64942116D01*
X184499501Y-64942123D01*
X184499500Y-64942135D01*
X184499500Y-65937870D01*
X184499501Y-65937876D01*
X184505908Y-65997481D01*
X184518659Y-66031669D01*
X184523642Y-66101361D01*
X184518659Y-66118331D01*
X184505908Y-66152518D01*
X184499501Y-66212116D01*
X184499501Y-66212123D01*
X184499500Y-66212135D01*
X184499500Y-67207870D01*
X184499501Y-67207876D01*
X184505908Y-67267481D01*
X184518659Y-67301669D01*
X184523642Y-67371361D01*
X184518659Y-67388331D01*
X184505908Y-67422518D01*
X184499501Y-67482116D01*
X184499501Y-67482123D01*
X184499500Y-67482135D01*
X184499500Y-68477870D01*
X184499501Y-68477876D01*
X184505908Y-68537481D01*
X184518659Y-68571669D01*
X184523642Y-68641361D01*
X184518659Y-68658331D01*
X184505908Y-68692518D01*
X184499501Y-68752116D01*
X184499501Y-68752123D01*
X184499500Y-68752135D01*
X184499500Y-69747870D01*
X184499501Y-69747876D01*
X184505908Y-69807481D01*
X184515302Y-69832666D01*
X184520286Y-69902358D01*
X184486801Y-69963681D01*
X184425478Y-69997166D01*
X184399120Y-70000000D01*
X183789499Y-70000000D01*
X183722460Y-69980315D01*
X183676705Y-69927511D01*
X183665499Y-69876000D01*
X183665499Y-69702129D01*
X183665498Y-69702123D01*
X183665497Y-69702116D01*
X183659091Y-69642517D01*
X183654857Y-69631166D01*
X183608797Y-69507671D01*
X183608793Y-69507664D01*
X183522547Y-69392455D01*
X183522544Y-69392452D01*
X183407335Y-69306206D01*
X183407328Y-69306202D01*
X183272482Y-69255908D01*
X183272483Y-69255908D01*
X183212883Y-69249501D01*
X183212881Y-69249500D01*
X183212873Y-69249500D01*
X183212864Y-69249500D01*
X182217129Y-69249500D01*
X182217123Y-69249501D01*
X182157518Y-69255908D01*
X182123331Y-69268659D01*
X182053639Y-69273642D01*
X182036669Y-69268659D01*
X182002480Y-69255908D01*
X182002482Y-69255908D01*
X181942883Y-69249501D01*
X181942881Y-69249500D01*
X181942873Y-69249500D01*
X181942864Y-69249500D01*
X180947129Y-69249500D01*
X180947123Y-69249501D01*
X180887518Y-69255908D01*
X180853331Y-69268659D01*
X180783639Y-69273642D01*
X180766669Y-69268659D01*
X180732480Y-69255908D01*
X180732482Y-69255908D01*
X180672883Y-69249501D01*
X180672881Y-69249500D01*
X180672873Y-69249500D01*
X180672864Y-69249500D01*
X179677129Y-69249500D01*
X179677123Y-69249501D01*
X179617518Y-69255908D01*
X179583331Y-69268659D01*
X179513639Y-69273642D01*
X179496669Y-69268659D01*
X179462480Y-69255908D01*
X179462482Y-69255908D01*
X179402883Y-69249501D01*
X179402881Y-69249500D01*
X179402873Y-69249500D01*
X179402864Y-69249500D01*
X178407129Y-69249500D01*
X178407123Y-69249501D01*
X178347518Y-69255908D01*
X178313331Y-69268659D01*
X178243639Y-69273642D01*
X178226669Y-69268659D01*
X178192480Y-69255908D01*
X178192482Y-69255908D01*
X178132883Y-69249501D01*
X178132881Y-69249500D01*
X178132873Y-69249500D01*
X178132864Y-69249500D01*
X177137129Y-69249500D01*
X177137123Y-69249501D01*
X177077518Y-69255908D01*
X177043331Y-69268659D01*
X176973639Y-69273642D01*
X176956669Y-69268659D01*
X176922480Y-69255908D01*
X176922482Y-69255908D01*
X176862883Y-69249501D01*
X176862881Y-69249500D01*
X176862873Y-69249500D01*
X176862864Y-69249500D01*
X175867129Y-69249500D01*
X175867123Y-69249501D01*
X175807518Y-69255908D01*
X175773331Y-69268659D01*
X175703639Y-69273642D01*
X175686669Y-69268659D01*
X175652480Y-69255908D01*
X175652482Y-69255908D01*
X175592883Y-69249501D01*
X175592881Y-69249500D01*
X175592873Y-69249500D01*
X175592864Y-69249500D01*
X174597129Y-69249500D01*
X174597123Y-69249501D01*
X174537518Y-69255908D01*
X174503331Y-69268659D01*
X174433639Y-69273642D01*
X174416669Y-69268659D01*
X174382480Y-69255908D01*
X174382482Y-69255908D01*
X174322883Y-69249501D01*
X174322881Y-69249500D01*
X174322873Y-69249500D01*
X174322864Y-69249500D01*
X173327129Y-69249500D01*
X173327123Y-69249501D01*
X173267518Y-69255908D01*
X173233331Y-69268659D01*
X173163639Y-69273642D01*
X173146669Y-69268659D01*
X173112480Y-69255908D01*
X173112482Y-69255908D01*
X173052883Y-69249501D01*
X173052881Y-69249500D01*
X173052873Y-69249500D01*
X173052864Y-69249500D01*
X172057129Y-69249500D01*
X172057123Y-69249501D01*
X171997516Y-69255908D01*
X171862671Y-69306202D01*
X171862664Y-69306206D01*
X171747455Y-69392452D01*
X171747452Y-69392455D01*
X171661206Y-69507664D01*
X171661202Y-69507671D01*
X171610908Y-69642517D01*
X171604636Y-69700858D01*
X171604501Y-69702123D01*
X171604500Y-69702135D01*
X171604500Y-69876000D01*
X171584815Y-69943039D01*
X171532011Y-69988794D01*
X171480500Y-70000000D01*
X171089499Y-70000000D01*
X171022460Y-69980315D01*
X170976705Y-69927511D01*
X170965499Y-69876000D01*
X170965499Y-69702129D01*
X170965498Y-69702123D01*
X170965497Y-69702116D01*
X170959091Y-69642517D01*
X170954857Y-69631166D01*
X170908797Y-69507671D01*
X170908793Y-69507664D01*
X170822547Y-69392455D01*
X170822544Y-69392452D01*
X170707335Y-69306206D01*
X170707328Y-69306202D01*
X170572482Y-69255908D01*
X170572483Y-69255908D01*
X170512883Y-69249501D01*
X170512881Y-69249500D01*
X170512873Y-69249500D01*
X170512865Y-69249500D01*
X169624499Y-69249500D01*
X169557460Y-69229815D01*
X169511705Y-69177011D01*
X169500499Y-69125500D01*
X169500499Y-68752129D01*
X169500498Y-68752123D01*
X169500497Y-68752116D01*
X169494091Y-68692517D01*
X169481340Y-68658332D01*
X169476357Y-68588642D01*
X169481340Y-68571669D01*
X169494091Y-68537483D01*
X169500500Y-68477873D01*
X169500499Y-67482128D01*
X169494091Y-67422517D01*
X169481340Y-67388332D01*
X169476357Y-67318642D01*
X169481340Y-67301669D01*
X169494091Y-67267483D01*
X169500500Y-67207873D01*
X169500499Y-66212128D01*
X169494091Y-66152517D01*
X169481340Y-66118332D01*
X169476357Y-66048642D01*
X169481340Y-66031669D01*
X169494091Y-65997483D01*
X169500500Y-65937873D01*
X169500499Y-64942128D01*
X169494091Y-64882517D01*
X169481340Y-64848332D01*
X169476357Y-64778642D01*
X169481340Y-64761669D01*
X169494091Y-64727483D01*
X169500500Y-64667873D01*
X169500499Y-63672128D01*
X169494091Y-63612517D01*
X169481340Y-63578332D01*
X169476357Y-63508642D01*
X169481340Y-63491669D01*
X169494091Y-63457483D01*
X169500500Y-63397873D01*
X169500499Y-62402128D01*
X169494091Y-62342517D01*
X169481340Y-62308332D01*
X169476357Y-62238642D01*
X169481340Y-62221669D01*
X169494091Y-62187483D01*
X169500500Y-62127873D01*
X169500499Y-61132128D01*
X169494091Y-61072517D01*
X169481340Y-61038332D01*
X169476357Y-60968642D01*
X169481340Y-60951669D01*
X169494091Y-60917483D01*
X169500500Y-60857873D01*
X169500499Y-59862128D01*
X169494091Y-59802517D01*
X169481340Y-59768332D01*
X169476357Y-59698642D01*
X169481340Y-59681669D01*
X169494091Y-59647483D01*
X169500500Y-59587873D01*
X169500499Y-58592128D01*
X169494091Y-58532517D01*
X169481340Y-58498332D01*
X169476357Y-58428642D01*
X169481340Y-58411669D01*
X169494091Y-58377483D01*
X169500500Y-58317873D01*
X169500499Y-57322128D01*
X169494091Y-57262517D01*
X169481340Y-57228332D01*
X169476357Y-57158642D01*
X169481340Y-57141669D01*
X169494091Y-57107483D01*
X169500500Y-57047873D01*
X169500499Y-56052128D01*
X169494091Y-55992517D01*
X169481340Y-55958332D01*
X169479455Y-55931974D01*
X169473839Y-55906154D01*
X169476676Y-55893109D01*
X169476357Y-55888642D01*
X169481340Y-55871669D01*
X169494091Y-55837483D01*
X169494091Y-55837481D01*
X169494617Y-55836072D01*
X169536489Y-55780139D01*
X169548800Y-55772018D01*
X169568716Y-55760520D01*
X169680520Y-55648716D01*
X169680520Y-55648714D01*
X169690724Y-55638511D01*
X169690727Y-55638506D01*
X172703416Y-52625819D01*
X172764739Y-52592334D01*
X172791097Y-52589500D01*
X206688903Y-52589500D01*
X206755942Y-52609185D01*
G37*
%TD.AperFunction*%
%TA.AperFunction,Conductor*%
G36*
X210204809Y-64420185D02*
G01*
X210225451Y-64436819D01*
X211371584Y-65582951D01*
X211376366Y-65586146D01*
X211395160Y-65601570D01*
X211443408Y-65649818D01*
X211476893Y-65711141D01*
X211471909Y-65780833D01*
X211443411Y-65825178D01*
X211424411Y-65844178D01*
X211405409Y-65863180D01*
X211344089Y-65896666D01*
X211317728Y-65899500D01*
X205300098Y-65899500D01*
X205233059Y-65879815D01*
X205212417Y-65863181D01*
X204834573Y-65485337D01*
X204801088Y-65424014D01*
X204800637Y-65421847D01*
X204778408Y-65310097D01*
X204769737Y-65266503D01*
X204769735Y-65266498D01*
X204709397Y-65120827D01*
X204709390Y-65120814D01*
X204621789Y-64989711D01*
X204621786Y-64989707D01*
X204510292Y-64878213D01*
X204510288Y-64878210D01*
X204379185Y-64790609D01*
X204379172Y-64790602D01*
X204233501Y-64730264D01*
X204233489Y-64730261D01*
X204078845Y-64699500D01*
X204078842Y-64699500D01*
X203921158Y-64699500D01*
X203921155Y-64699500D01*
X203766510Y-64730261D01*
X203766498Y-64730264D01*
X203620827Y-64790602D01*
X203620814Y-64790609D01*
X203568891Y-64825304D01*
X203502214Y-64846182D01*
X203434833Y-64827698D01*
X203431109Y-64825304D01*
X203379185Y-64790609D01*
X203379172Y-64790602D01*
X203233501Y-64730264D01*
X203233489Y-64730261D01*
X203078845Y-64699500D01*
X203078842Y-64699500D01*
X202921158Y-64699500D01*
X202921155Y-64699500D01*
X202766510Y-64730261D01*
X202766498Y-64730264D01*
X202620827Y-64790602D01*
X202620814Y-64790609D01*
X202568891Y-64825304D01*
X202502214Y-64846182D01*
X202434833Y-64827698D01*
X202431109Y-64825304D01*
X202379185Y-64790609D01*
X202379172Y-64790602D01*
X202233501Y-64730264D01*
X202233489Y-64730261D01*
X202078845Y-64699500D01*
X202078842Y-64699500D01*
X201921158Y-64699500D01*
X201921155Y-64699500D01*
X201766510Y-64730261D01*
X201766498Y-64730264D01*
X201620827Y-64790602D01*
X201620814Y-64790609D01*
X201489711Y-64878210D01*
X201489707Y-64878213D01*
X201378213Y-64989707D01*
X201378210Y-64989711D01*
X201290609Y-65120814D01*
X201290602Y-65120827D01*
X201230264Y-65266498D01*
X201230261Y-65266510D01*
X201199500Y-65421153D01*
X201199500Y-65578846D01*
X201230261Y-65733489D01*
X201230264Y-65733501D01*
X201290602Y-65879172D01*
X201290609Y-65879185D01*
X201378210Y-66010288D01*
X201378213Y-66010292D01*
X201489707Y-66121786D01*
X201489711Y-66121789D01*
X201620814Y-66209390D01*
X201620827Y-66209397D01*
X201720857Y-66250830D01*
X201766503Y-66269737D01*
X201831147Y-66282595D01*
X201921849Y-66300638D01*
X201983760Y-66333023D01*
X201985339Y-66334574D01*
X205439084Y-69788319D01*
X205472569Y-69849642D01*
X205467585Y-69919334D01*
X205425713Y-69975267D01*
X205360249Y-69999684D01*
X205351403Y-70000000D01*
X196024500Y-70000000D01*
X195957461Y-69980315D01*
X195911706Y-69927511D01*
X195900500Y-69876000D01*
X195900499Y-68941971D01*
X195900499Y-68941964D01*
X195889886Y-68822582D01*
X195838032Y-68641361D01*
X195833910Y-68626954D01*
X195833909Y-68626953D01*
X195833909Y-68626951D01*
X195739698Y-68446593D01*
X195677908Y-68370814D01*
X195611109Y-68288890D01*
X195453409Y-68160304D01*
X195453410Y-68160304D01*
X195453407Y-68160302D01*
X195318729Y-68089952D01*
X195268423Y-68041466D01*
X195252316Y-67973478D01*
X195275523Y-67907575D01*
X195311042Y-67874508D01*
X195443656Y-67792712D01*
X195499549Y-67736819D01*
X195560872Y-67703334D01*
X195587230Y-67700500D01*
X196773920Y-67700500D01*
X196871462Y-67681096D01*
X196918913Y-67671658D01*
X197055495Y-67615084D01*
X197137026Y-67560607D01*
X197178416Y-67532952D01*
X200274549Y-64436819D01*
X200335872Y-64403334D01*
X200362230Y-64400500D01*
X204926082Y-64400500D01*
X204926083Y-64400500D01*
X205073917Y-64400500D01*
X210137770Y-64400500D01*
X210204809Y-64420185D01*
G37*
%TD.AperFunction*%
%TA.AperFunction,Conductor*%
G36*
X218192539Y-64270185D02*
G01*
X218238294Y-64322989D01*
X218249500Y-64374500D01*
X218249500Y-69876000D01*
X218229815Y-69943039D01*
X218177011Y-69988794D01*
X218125500Y-70000000D01*
X207400597Y-70000000D01*
X207333558Y-69980315D01*
X207312916Y-69963681D01*
X207111416Y-69762181D01*
X207077931Y-69700858D01*
X207082915Y-69631166D01*
X207124787Y-69575233D01*
X207190251Y-69550816D01*
X207199097Y-69550500D01*
X207328844Y-69550500D01*
X207328845Y-69550499D01*
X207483497Y-69519737D01*
X207629179Y-69459394D01*
X207760289Y-69371789D01*
X207871789Y-69260289D01*
X207959394Y-69129179D01*
X208019737Y-68983497D01*
X208050500Y-68828842D01*
X208050500Y-68671158D01*
X208050500Y-68671155D01*
X208050499Y-68671153D01*
X208047949Y-68658334D01*
X208019737Y-68516503D01*
X208003735Y-68477870D01*
X207959397Y-68370827D01*
X207959390Y-68370814D01*
X207871789Y-68239711D01*
X207871786Y-68239707D01*
X207760292Y-68128213D01*
X207760288Y-68128210D01*
X207629185Y-68040609D01*
X207629172Y-68040602D01*
X207483501Y-67980264D01*
X207483489Y-67980261D01*
X207328845Y-67949500D01*
X207328842Y-67949500D01*
X207171158Y-67949500D01*
X207171155Y-67949500D01*
X207016510Y-67980261D01*
X207016498Y-67980264D01*
X206870827Y-68040602D01*
X206870814Y-68040609D01*
X206739125Y-68128602D01*
X206721078Y-68134252D01*
X206705169Y-68144477D01*
X206674207Y-68148928D01*
X206672447Y-68149480D01*
X206670234Y-68149500D01*
X206550097Y-68149500D01*
X206483058Y-68129815D01*
X206462416Y-68113181D01*
X205661416Y-67312181D01*
X205627931Y-67250858D01*
X205632915Y-67181166D01*
X205674787Y-67125233D01*
X205740251Y-67100816D01*
X205749097Y-67100500D01*
X211317728Y-67100500D01*
X211384767Y-67120185D01*
X211405410Y-67136820D01*
X211457174Y-67188585D01*
X211457178Y-67188588D01*
X211457180Y-67188590D01*
X211598103Y-67271931D01*
X211598104Y-67271931D01*
X211598107Y-67271933D01*
X211755320Y-67317608D01*
X211755323Y-67317608D01*
X211755325Y-67317609D01*
X211792060Y-67320500D01*
X211792068Y-67320500D01*
X212217932Y-67320500D01*
X212217940Y-67320500D01*
X212254675Y-67317609D01*
X212254677Y-67317608D01*
X212254679Y-67317608D01*
X212411892Y-67271933D01*
X212411892Y-67271932D01*
X212411897Y-67271931D01*
X212426879Y-67263070D01*
X212494601Y-67245887D01*
X212553120Y-67263070D01*
X212568103Y-67271931D01*
X212568105Y-67271931D01*
X212568106Y-67271932D01*
X212568107Y-67271933D01*
X212725320Y-67317608D01*
X212725323Y-67317608D01*
X212725325Y-67317609D01*
X212762060Y-67320500D01*
X212762068Y-67320500D01*
X213187932Y-67320500D01*
X213187940Y-67320500D01*
X213224675Y-67317609D01*
X213224677Y-67317608D01*
X213224679Y-67317608D01*
X213381892Y-67271933D01*
X213381893Y-67271932D01*
X213381897Y-67271931D01*
X213522820Y-67188590D01*
X213574590Y-67136820D01*
X213601518Y-67122115D01*
X213627337Y-67105523D01*
X213633536Y-67104631D01*
X213635913Y-67103334D01*
X213662272Y-67100500D01*
X213820405Y-67100500D01*
X213887444Y-67120185D01*
X213908081Y-67136814D01*
X213962402Y-67191135D01*
X214100607Y-67272869D01*
X214119332Y-67278309D01*
X214254791Y-67317664D01*
X214254794Y-67317664D01*
X214254796Y-67317665D01*
X214290819Y-67320500D01*
X214689180Y-67320499D01*
X214725204Y-67317665D01*
X214879393Y-67272869D01*
X215017598Y-67191135D01*
X215131135Y-67077598D01*
X215212869Y-66939393D01*
X215257665Y-66785204D01*
X215260500Y-66749181D01*
X215260499Y-66250820D01*
X215257665Y-66214796D01*
X215212869Y-66060607D01*
X215131135Y-65922402D01*
X215131133Y-65922400D01*
X215131130Y-65922396D01*
X215058915Y-65850181D01*
X215025430Y-65788858D01*
X215030414Y-65719166D01*
X215058915Y-65674819D01*
X215156130Y-65577603D01*
X215156135Y-65577598D01*
X215237869Y-65439393D01*
X215282665Y-65285204D01*
X215285500Y-65249181D01*
X215285499Y-64750820D01*
X215282665Y-64714796D01*
X215237869Y-64560607D01*
X215219461Y-64529480D01*
X215165136Y-64437621D01*
X215147953Y-64369897D01*
X215170113Y-64303634D01*
X215224580Y-64259871D01*
X215271868Y-64250500D01*
X218125500Y-64250500D01*
X218192539Y-64270185D01*
G37*
%TD.AperFunction*%
%TA.AperFunction,Conductor*%
G36*
X197660097Y-62764779D02*
G01*
X197684505Y-62783740D01*
X198165425Y-63264660D01*
X198198910Y-63325983D01*
X198199361Y-63328149D01*
X198230261Y-63483491D01*
X198230264Y-63483501D01*
X198290602Y-63629172D01*
X198290609Y-63629185D01*
X198378210Y-63760288D01*
X198378213Y-63760292D01*
X198489707Y-63871786D01*
X198489710Y-63871788D01*
X198489711Y-63871789D01*
X198500233Y-63878820D01*
X198545039Y-63932428D01*
X198553749Y-64001753D01*
X198523597Y-64064782D01*
X198519026Y-64069604D01*
X196425451Y-66163181D01*
X196364128Y-66196666D01*
X196337770Y-66199500D01*
X195587230Y-66199500D01*
X195520191Y-66179815D01*
X195499549Y-66163181D01*
X195443657Y-66107289D01*
X195443656Y-66107288D01*
X195348575Y-66048642D01*
X195294336Y-66015187D01*
X195294331Y-66015185D01*
X195279553Y-66010288D01*
X195127797Y-65960001D01*
X195127795Y-65960000D01*
X195025010Y-65949500D01*
X193974998Y-65949500D01*
X193974980Y-65949501D01*
X193872203Y-65960000D01*
X193872200Y-65960001D01*
X193705668Y-66015185D01*
X193705663Y-66015187D01*
X193556342Y-66107289D01*
X193432289Y-66231342D01*
X193340187Y-66380663D01*
X193340186Y-66380666D01*
X193285001Y-66547203D01*
X193285001Y-66547204D01*
X193285000Y-66547204D01*
X193277603Y-66619609D01*
X193251206Y-66684300D01*
X193194025Y-66724451D01*
X193130054Y-66728622D01*
X193033921Y-66709500D01*
X193033918Y-66709500D01*
X192882066Y-66709500D01*
X192847471Y-66704576D01*
X192817929Y-66695993D01*
X192770994Y-66682357D01*
X192770991Y-66682356D01*
X192734697Y-66679500D01*
X192734690Y-66679500D01*
X192265310Y-66679500D01*
X192265302Y-66679500D01*
X192229008Y-66682356D01*
X192229002Y-66682357D01*
X192073609Y-66727504D01*
X192073606Y-66727505D01*
X191934315Y-66809881D01*
X191934307Y-66809887D01*
X191819887Y-66924307D01*
X191819881Y-66924315D01*
X191737505Y-67063606D01*
X191737504Y-67063609D01*
X191692357Y-67219002D01*
X191692356Y-67219008D01*
X191689500Y-67255302D01*
X191689500Y-67664697D01*
X191692356Y-67700991D01*
X191692357Y-67700997D01*
X191737504Y-67856390D01*
X191737507Y-67856397D01*
X191763221Y-67899878D01*
X191780404Y-67967602D01*
X191758244Y-68033864D01*
X191713901Y-68072906D01*
X191546595Y-68160300D01*
X191546593Y-68160302D01*
X191388890Y-68288890D01*
X191260304Y-68446590D01*
X191260302Y-68446593D01*
X191212826Y-68537481D01*
X191166088Y-68626956D01*
X191156744Y-68659613D01*
X191119376Y-68718651D01*
X191056022Y-68748113D01*
X191037529Y-68749500D01*
X188971139Y-68749500D01*
X188908018Y-68732232D01*
X188899393Y-68727131D01*
X188899388Y-68727129D01*
X188745208Y-68682335D01*
X188745202Y-68682334D01*
X188709181Y-68679500D01*
X188310830Y-68679500D01*
X188310808Y-68679501D01*
X188274796Y-68682335D01*
X188249093Y-68689802D01*
X188179223Y-68689601D01*
X188120554Y-68651658D01*
X188091712Y-68588019D01*
X188090500Y-68570725D01*
X188090500Y-65310097D01*
X188110185Y-65243058D01*
X188126819Y-65222416D01*
X190212416Y-63136819D01*
X190273739Y-63103334D01*
X190300097Y-63100500D01*
X196170234Y-63100500D01*
X196237273Y-63120185D01*
X196239125Y-63121398D01*
X196370814Y-63209390D01*
X196370827Y-63209397D01*
X196457284Y-63245208D01*
X196516503Y-63269737D01*
X196662285Y-63298735D01*
X196671153Y-63300499D01*
X196671156Y-63300500D01*
X196671158Y-63300500D01*
X196828844Y-63300500D01*
X196828845Y-63300499D01*
X196983497Y-63269737D01*
X197129179Y-63209394D01*
X197260289Y-63121789D01*
X197371789Y-63010289D01*
X197459394Y-62879179D01*
X197466294Y-62862521D01*
X197482263Y-62823969D01*
X197526104Y-62769565D01*
X197592398Y-62747500D01*
X197660097Y-62764779D01*
G37*
%TD.AperFunction*%
%TA.AperFunction,Conductor*%
G36*
X216526942Y-60370185D02*
G01*
X216547584Y-60386819D01*
X218143181Y-61982416D01*
X218176666Y-62043739D01*
X218179500Y-62070096D01*
X218179500Y-62189168D01*
X218179501Y-62189192D01*
X218182335Y-62225205D01*
X218227129Y-62379388D01*
X218227132Y-62379395D01*
X218261128Y-62436881D01*
X218262833Y-62443602D01*
X218267358Y-62448859D01*
X218271314Y-62477033D01*
X218278309Y-62504605D01*
X218276342Y-62512840D01*
X218277074Y-62518050D01*
X218270997Y-62535223D01*
X218267020Y-62551882D01*
X218264361Y-62557652D01*
X218227131Y-62620607D01*
X218213076Y-62668981D01*
X218209207Y-62677382D01*
X218192075Y-62697021D01*
X218178051Y-62718981D01*
X218169480Y-62722924D01*
X218163278Y-62730035D01*
X218138252Y-62737294D01*
X218114579Y-62748187D01*
X218096582Y-62749500D01*
X213136081Y-62749500D01*
X212991093Y-62778340D01*
X212991083Y-62778343D01*
X212854512Y-62834912D01*
X212854499Y-62834919D01*
X212731585Y-62917048D01*
X212731581Y-62917051D01*
X211867681Y-63780950D01*
X211806358Y-63814435D01*
X211736666Y-63809451D01*
X211692319Y-63780950D01*
X210978420Y-63067051D01*
X210889363Y-63007546D01*
X210855495Y-62984916D01*
X210855488Y-62984912D01*
X210718917Y-62928343D01*
X210718907Y-62928340D01*
X210573920Y-62899500D01*
X210573918Y-62899500D01*
X206866668Y-62899500D01*
X206799629Y-62879815D01*
X206753874Y-62827011D01*
X206743930Y-62757853D01*
X206745042Y-62751351D01*
X206746799Y-62742520D01*
X206746802Y-62742515D01*
X206746801Y-62742515D01*
X206750500Y-62723922D01*
X206750500Y-62304604D01*
X206759939Y-62257151D01*
X206762901Y-62250000D01*
X206769737Y-62233497D01*
X206800500Y-62078842D01*
X206800500Y-61921158D01*
X206800500Y-61921155D01*
X206800499Y-61921153D01*
X206769738Y-61766510D01*
X206769737Y-61766503D01*
X206741312Y-61697878D01*
X206709397Y-61620827D01*
X206709390Y-61620814D01*
X206621789Y-61489711D01*
X206621786Y-61489707D01*
X206510292Y-61378213D01*
X206510288Y-61378210D01*
X206379185Y-61290609D01*
X206379172Y-61290602D01*
X206233501Y-61230264D01*
X206233489Y-61230261D01*
X206078845Y-61199500D01*
X206078842Y-61199500D01*
X205921158Y-61199500D01*
X205921155Y-61199500D01*
X205766510Y-61230261D01*
X205766498Y-61230264D01*
X205620827Y-61290602D01*
X205620814Y-61290609D01*
X205489711Y-61378210D01*
X205489707Y-61378213D01*
X205378213Y-61489707D01*
X205378210Y-61489711D01*
X205290609Y-61620814D01*
X205290602Y-61620827D01*
X205230264Y-61766498D01*
X205230261Y-61766510D01*
X205199500Y-61921153D01*
X205199500Y-62078846D01*
X205230261Y-62233489D01*
X205230263Y-62233497D01*
X205235131Y-62245249D01*
X205242599Y-62314718D01*
X205211323Y-62377197D01*
X205208250Y-62380381D01*
X204725451Y-62863181D01*
X204664128Y-62896666D01*
X204637770Y-62899500D01*
X201003439Y-62899500D01*
X200936400Y-62879815D01*
X200890645Y-62827011D01*
X200880701Y-62757853D01*
X200909726Y-62694297D01*
X200934548Y-62672398D01*
X200965762Y-62651541D01*
X201010289Y-62621789D01*
X201121789Y-62510289D01*
X201209394Y-62379179D01*
X201269737Y-62233497D01*
X201300500Y-62078842D01*
X201300500Y-61921158D01*
X201300500Y-61921155D01*
X201300499Y-61921153D01*
X201269738Y-61766510D01*
X201269737Y-61766503D01*
X201241312Y-61697878D01*
X201209397Y-61620827D01*
X201209390Y-61620814D01*
X201121789Y-61489711D01*
X201121786Y-61489707D01*
X201010292Y-61378213D01*
X201010288Y-61378210D01*
X200879185Y-61290609D01*
X200879172Y-61290602D01*
X200733501Y-61230264D01*
X200733491Y-61230261D01*
X200578149Y-61199361D01*
X200516238Y-61166976D01*
X200514660Y-61165425D01*
X199911416Y-60562181D01*
X199877931Y-60500858D01*
X199882915Y-60431166D01*
X199924787Y-60375233D01*
X199990251Y-60350816D01*
X199999097Y-60350500D01*
X216459903Y-60350500D01*
X216526942Y-60370185D01*
G37*
%TD.AperFunction*%
%TA.AperFunction,Conductor*%
G36*
X162921798Y-62025499D02*
G01*
X162921806Y-62025500D01*
X163739000Y-62025500D01*
X163747685Y-62028050D01*
X163756647Y-62026762D01*
X163780687Y-62037740D01*
X163806039Y-62045185D01*
X163811966Y-62052025D01*
X163820203Y-62055787D01*
X163834492Y-62078021D01*
X163851794Y-62097989D01*
X163854081Y-62108503D01*
X163857977Y-62114565D01*
X163863000Y-62149500D01*
X163863000Y-62200500D01*
X163843315Y-62267539D01*
X163790511Y-62313294D01*
X163739000Y-62324500D01*
X162921806Y-62324500D01*
X162921798Y-62324500D01*
X162919368Y-62324596D01*
X162919333Y-62323723D01*
X162909100Y-62321570D01*
X162895353Y-62323547D01*
X162875583Y-62314518D01*
X162854320Y-62310045D01*
X162844433Y-62300292D01*
X162831797Y-62294522D01*
X162820046Y-62276238D01*
X162804577Y-62260979D01*
X162800756Y-62246221D01*
X162794023Y-62235744D01*
X162789000Y-62200809D01*
X162789000Y-62149190D01*
X162808685Y-62082151D01*
X162861489Y-62036396D01*
X162919337Y-62026182D01*
X162919368Y-62025404D01*
X162921798Y-62025499D01*
G37*
%TD.AperFunction*%
%TA.AperFunction,Conductor*%
G36*
X220443039Y-51019685D02*
G01*
X220488794Y-51072489D01*
X220500000Y-51124000D01*
X220500000Y-61082052D01*
X220480315Y-61149091D01*
X220427511Y-61194846D01*
X220400192Y-61203669D01*
X220266508Y-61230261D01*
X220266498Y-61230264D01*
X220120827Y-61290602D01*
X220120814Y-61290609D01*
X219989125Y-61378602D01*
X219971078Y-61384252D01*
X219955169Y-61394477D01*
X219924207Y-61398928D01*
X219922447Y-61399480D01*
X219920234Y-61399500D01*
X219679596Y-61399500D01*
X219612557Y-61379815D01*
X219591915Y-61363181D01*
X219577603Y-61348869D01*
X219577595Y-61348863D01*
X219439393Y-61267131D01*
X219439388Y-61267129D01*
X219285208Y-61222335D01*
X219285202Y-61222334D01*
X219249188Y-61219500D01*
X219249181Y-61219500D01*
X219130097Y-61219500D01*
X219063058Y-61199815D01*
X219042416Y-61183181D01*
X217291915Y-59432680D01*
X217258430Y-59371357D01*
X217263414Y-59301665D01*
X217291912Y-59257321D01*
X217912417Y-58636819D01*
X217973740Y-58603334D01*
X218000098Y-58600500D01*
X218856613Y-58600500D01*
X218856616Y-58600500D01*
X218927196Y-58594086D01*
X219089606Y-58543478D01*
X219235185Y-58455472D01*
X219355472Y-58335185D01*
X219443478Y-58189606D01*
X219494086Y-58027196D01*
X219500500Y-57956616D01*
X219500500Y-57443384D01*
X219494086Y-57372804D01*
X219443478Y-57210394D01*
X219355472Y-57064815D01*
X219355470Y-57064813D01*
X219355469Y-57064811D01*
X219235188Y-56944530D01*
X219213516Y-56931429D01*
X219089606Y-56856522D01*
X218927196Y-56805914D01*
X218927194Y-56805913D01*
X218927192Y-56805913D01*
X218877778Y-56801423D01*
X218856616Y-56799500D01*
X217143384Y-56799500D01*
X217124145Y-56801248D01*
X217072807Y-56805913D01*
X216910393Y-56856522D01*
X216764811Y-56944530D01*
X216644530Y-57064811D01*
X216556522Y-57210393D01*
X216505913Y-57372807D01*
X216499500Y-57443386D01*
X216499500Y-57956613D01*
X216505913Y-58027192D01*
X216505913Y-58027194D01*
X216505914Y-58027196D01*
X216556522Y-58189606D01*
X216556523Y-58189607D01*
X216558754Y-58196767D01*
X216555802Y-58197686D01*
X216556857Y-58205324D01*
X216564479Y-58225758D01*
X216561542Y-58239256D01*
X216563432Y-58252939D01*
X216554263Y-58272722D01*
X216549628Y-58294032D01*
X216535870Y-58312410D01*
X216534053Y-58316331D01*
X216528477Y-58322286D01*
X216487584Y-58363180D01*
X216426262Y-58396666D01*
X216399902Y-58399500D01*
X213536450Y-58399500D01*
X213469411Y-58379815D01*
X213423656Y-58327011D01*
X213413712Y-58257853D01*
X213430333Y-58211350D01*
X213433976Y-58205324D01*
X213443478Y-58189606D01*
X213494086Y-58027196D01*
X213500500Y-57956616D01*
X213500500Y-57443384D01*
X213494086Y-57372804D01*
X213443478Y-57210394D01*
X213355472Y-57064815D01*
X213355470Y-57064813D01*
X213355469Y-57064811D01*
X213235188Y-56944530D01*
X213213516Y-56931429D01*
X213089606Y-56856522D01*
X212927196Y-56805914D01*
X212927194Y-56805913D01*
X212927192Y-56805913D01*
X212877778Y-56801423D01*
X212856616Y-56799500D01*
X211143384Y-56799500D01*
X211124145Y-56801248D01*
X211072807Y-56805913D01*
X210910393Y-56856522D01*
X210764811Y-56944530D01*
X210764810Y-56944531D01*
X210646161Y-57063181D01*
X210584838Y-57096666D01*
X210558480Y-57099500D01*
X210234500Y-57099500D01*
X210167461Y-57079815D01*
X210121706Y-57027011D01*
X210110500Y-56975500D01*
X210110500Y-54430944D01*
X210110500Y-54430943D01*
X210108211Y-54422402D01*
X210085964Y-54339374D01*
X210069577Y-54278216D01*
X210051148Y-54246295D01*
X209990524Y-54141290D01*
X209990521Y-54141286D01*
X209990520Y-54141284D01*
X209878716Y-54029480D01*
X209878715Y-54029479D01*
X209874385Y-54025149D01*
X209874374Y-54025139D01*
X207476590Y-51627355D01*
X207476588Y-51627352D01*
X207357717Y-51508481D01*
X207357716Y-51508480D01*
X207270904Y-51458360D01*
X207270904Y-51458359D01*
X207270900Y-51458358D01*
X207220785Y-51429423D01*
X207068057Y-51388499D01*
X206909943Y-51388499D01*
X206902347Y-51388499D01*
X206902331Y-51388500D01*
X203068402Y-51388500D01*
X203001363Y-51368815D01*
X202955608Y-51316011D01*
X202945664Y-51246853D01*
X202950287Y-51226752D01*
X202954346Y-51214048D01*
X202966392Y-51193186D01*
X202994295Y-51089048D01*
X202995189Y-51086252D01*
X203013182Y-51059662D01*
X203029894Y-51032246D01*
X203032638Y-51030912D01*
X203034348Y-51028387D01*
X203063858Y-51015747D01*
X203092741Y-51001717D01*
X203097553Y-51001315D01*
X203098574Y-51000878D01*
X203099972Y-51001113D01*
X203113304Y-51000000D01*
X220376000Y-51000000D01*
X220443039Y-51019685D01*
G37*
%TD.AperFunction*%
%TA.AperFunction,Conductor*%
G36*
X170808942Y-52609185D02*
G01*
X170854697Y-52661989D01*
X170864641Y-52731147D01*
X170835616Y-52794703D01*
X170829584Y-52801181D01*
X169712180Y-53918584D01*
X169650857Y-53952069D01*
X169581165Y-53947085D01*
X169525232Y-53905213D01*
X169500815Y-53839749D01*
X169500499Y-53830903D01*
X169500499Y-53512129D01*
X169500498Y-53512123D01*
X169500497Y-53512116D01*
X169494091Y-53452517D01*
X169467545Y-53381344D01*
X169443797Y-53317671D01*
X169443793Y-53317664D01*
X169357547Y-53202455D01*
X169357544Y-53202452D01*
X169242335Y-53116206D01*
X169242328Y-53116202D01*
X169107482Y-53065908D01*
X169107483Y-53065908D01*
X169047883Y-53059501D01*
X169047881Y-53059500D01*
X169047873Y-53059500D01*
X169047864Y-53059500D01*
X167452129Y-53059500D01*
X167452123Y-53059501D01*
X167392516Y-53065908D01*
X167257671Y-53116202D01*
X167257664Y-53116206D01*
X167142457Y-53202451D01*
X167139443Y-53205464D01*
X167138878Y-53206703D01*
X167136994Y-53207913D01*
X167136180Y-53208728D01*
X167136002Y-53208550D01*
X167113057Y-53223296D01*
X167088490Y-53241685D01*
X167082865Y-53242699D01*
X167080100Y-53244477D01*
X167045165Y-53249500D01*
X166966196Y-53249500D01*
X166901100Y-53231039D01*
X166794340Y-53165189D01*
X166794336Y-53165187D01*
X166794334Y-53165186D01*
X166753868Y-53151777D01*
X166736732Y-53139912D01*
X166717301Y-53132380D01*
X166708588Y-53120426D01*
X166696426Y-53112005D01*
X166688425Y-53092760D01*
X166676148Y-53075916D01*
X166675281Y-53061147D01*
X166669603Y-53047489D01*
X166673276Y-53026972D01*
X166672056Y-53006166D01*
X166681010Y-52983783D01*
X166681918Y-52978713D01*
X166684812Y-52973258D01*
X166685454Y-52972116D01*
X166712494Y-52926395D01*
X166713890Y-52921587D01*
X166720016Y-52910703D01*
X166726313Y-52904564D01*
X166740399Y-52883835D01*
X166755520Y-52868716D01*
X166755520Y-52868714D01*
X166765720Y-52858516D01*
X166765726Y-52858507D01*
X166998417Y-52625816D01*
X167059739Y-52592334D01*
X167086097Y-52589500D01*
X170741903Y-52589500D01*
X170808942Y-52609185D01*
G37*
%TD.AperFunction*%
%TD*%
M02*
