%TF.GenerationSoftware,KiCad,Pcbnew,9.0.7*%
%TF.CreationDate,2026-03-13T00:39:54-07:00*%
%TF.ProjectId,Pulse_Box_PCB_v2,50756c73-655f-4426-9f78-5f5043425f76,rev?*%
%TF.SameCoordinates,Original*%
%TF.FileFunction,Soldermask,Bot*%
%TF.FilePolarity,Negative*%
%FSLAX46Y46*%
G04 Gerber Fmt 4.6, Leading zero omitted, Abs format (unit mm)*
G04 Created by KiCad (PCBNEW 9.0.7) date 2026-03-13 00:39:54*
%MOMM*%
%LPD*%
G01*
G04 APERTURE LIST*
G04 Aperture macros list*
%AMRoundRect*
0 Rectangle with rounded corners*
0 $1 Rounding radius*
0 $2 $3 $4 $5 $6 $7 $8 $9 X,Y pos of 4 corners*
0 Add a 4 corners polygon primitive as box body*
4,1,4,$2,$3,$4,$5,$6,$7,$8,$9,$2,$3,0*
0 Add four circle primitives for the rounded corners*
1,1,$1+$1,$2,$3*
1,1,$1+$1,$4,$5*
1,1,$1+$1,$6,$7*
1,1,$1+$1,$8,$9*
0 Add four rect primitives between the rounded corners*
20,1,$1+$1,$2,$3,$4,$5,0*
20,1,$1+$1,$4,$5,$6,$7,0*
20,1,$1+$1,$6,$7,$8,$9,0*
20,1,$1+$1,$8,$9,$2,$3,0*%
G04 Aperture macros list end*
%ADD10R,1.700000X1.700000*%
%ADD11C,1.700000*%
%ADD12RoundRect,0.250000X-0.600000X-0.725000X0.600000X-0.725000X0.600000X0.725000X-0.600000X0.725000X0*%
%ADD13O,1.700000X1.950000*%
%ADD14RoundRect,0.250000X0.725000X-0.600000X0.725000X0.600000X-0.725000X0.600000X-0.725000X-0.600000X0*%
%ADD15O,1.950000X1.700000*%
%ADD16C,3.200000*%
%ADD17RoundRect,0.250000X-0.625000X0.350000X-0.625000X-0.350000X0.625000X-0.350000X0.625000X0.350000X0*%
%ADD18O,1.750000X1.200000*%
%ADD19C,0.650000*%
%ADD20O,2.100000X1.000000*%
%ADD21O,1.600000X1.000000*%
%ADD22RoundRect,0.250000X-1.050000X1.050000X-1.050000X-1.050000X1.050000X-1.050000X1.050000X1.050000X0*%
%ADD23C,2.600000*%
G04 APERTURE END LIST*
D10*
%TO.C,J6*%
X200540000Y-54500000D03*
D11*
X198000000Y-54500000D03*
X195460000Y-54500000D03*
%TD*%
D12*
%TO.C,J2*%
X177500000Y-106000000D03*
D13*
X180000000Y-106000000D03*
X182500000Y-106000000D03*
X185000000Y-106000000D03*
X187500000Y-106000000D03*
X190000000Y-106000000D03*
X192500000Y-106000000D03*
X195000000Y-106000000D03*
X197500000Y-106000000D03*
X200000000Y-106000000D03*
X202500000Y-106000000D03*
%TD*%
D10*
%TO.C,J7*%
X219000000Y-79750000D03*
D11*
X219000000Y-82290000D03*
X219000000Y-84830000D03*
X219000000Y-87370000D03*
%TD*%
D14*
%TO.C,J3*%
X226000000Y-82000000D03*
D15*
X226000000Y-79500000D03*
X226000000Y-77000000D03*
X226000000Y-74500000D03*
X226000000Y-72000000D03*
X226000000Y-69500000D03*
X226000000Y-67000000D03*
X226000000Y-64500000D03*
X226000000Y-62000000D03*
X226000000Y-59500000D03*
X226000000Y-57000000D03*
%TD*%
D16*
%TO.C,H1*%
X223500000Y-36500000D03*
%TD*%
%TO.C,H2*%
X223500000Y-103500000D03*
%TD*%
D17*
%TO.C,J4*%
X156550000Y-73250000D03*
D18*
X156550000Y-75250000D03*
X156550000Y-77250000D03*
%TD*%
D19*
%TO.C,P1*%
X156900000Y-58360000D03*
X156900000Y-64140000D03*
D20*
X157430000Y-56930000D03*
D21*
X153250000Y-56930000D03*
D20*
X157430000Y-65570000D03*
D21*
X153250000Y-65570000D03*
%TD*%
D17*
%TO.C,J5*%
X156500000Y-83000000D03*
D18*
X156500000Y-85000000D03*
X156500000Y-87000000D03*
%TD*%
D22*
%TO.C,J1*%
X155500000Y-94500000D03*
D23*
X155500000Y-99580000D03*
%TD*%
M02*
