%TF.GenerationSoftware,KiCad,Pcbnew,9.0.7*%
%TF.CreationDate,2026-02-25T01:11:13-08:00*%
%TF.ProjectId,Pulse_Box_PCB_v2,50756c73-655f-4426-9f78-5f5043425f76,rev?*%
%TF.SameCoordinates,Original*%
%TF.FileFunction,Soldermask,Top*%
%TF.FilePolarity,Negative*%
%FSLAX46Y46*%
G04 Gerber Fmt 4.6, Leading zero omitted, Abs format (unit mm)*
G04 Created by KiCad (PCBNEW 9.0.7) date 2026-02-25 01:11:13*
%MOMM*%
%LPD*%
G01*
G04 APERTURE LIST*
G04 Aperture macros list*
%AMRoundRect*
0 Rectangle with rounded corners*
0 $1 Rounding radius*
0 $2 $3 $4 $5 $6 $7 $8 $9 X,Y pos of 4 corners*
0 Add a 4 corners polygon primitive as box body*
4,1,4,$2,$3,$4,$5,$6,$7,$8,$9,$2,$3,0*
0 Add four circle primitives for the rounded corners*
1,1,$1+$1,$2,$3*
1,1,$1+$1,$4,$5*
1,1,$1+$1,$6,$7*
1,1,$1+$1,$8,$9*
0 Add four rect primitives between the rounded corners*
20,1,$1+$1,$2,$3,$4,$5,0*
20,1,$1+$1,$4,$5,$6,$7,0*
20,1,$1+$1,$6,$7,$8,$9,0*
20,1,$1+$1,$8,$9,$2,$3,0*%
G04 Aperture macros list end*
%ADD10RoundRect,0.135000X0.185000X-0.135000X0.185000X0.135000X-0.185000X0.135000X-0.185000X-0.135000X0*%
%ADD11R,1.700000X1.700000*%
%ADD12C,1.700000*%
%ADD13C,1.500000*%
%ADD14RoundRect,0.135000X0.135000X0.185000X-0.135000X0.185000X-0.135000X-0.185000X0.135000X-0.185000X0*%
%ADD15RoundRect,0.150000X-0.150000X0.825000X-0.150000X-0.825000X0.150000X-0.825000X0.150000X0.825000X0*%
%ADD16R,2.000000X2.000000*%
%ADD17RoundRect,0.250000X-0.600000X-0.725000X0.600000X-0.725000X0.600000X0.725000X-0.600000X0.725000X0*%
%ADD18O,1.700000X1.950000*%
%ADD19RoundRect,0.250002X1.799998X-1.799998X1.799998X1.799998X-1.799998X1.799998X-1.799998X-1.799998X0*%
%ADD20RoundRect,0.250000X0.475000X-0.250000X0.475000X0.250000X-0.475000X0.250000X-0.475000X-0.250000X0*%
%ADD21RoundRect,0.147500X0.147500X0.172500X-0.147500X0.172500X-0.147500X-0.172500X0.147500X-0.172500X0*%
%ADD22RoundRect,0.135000X-0.135000X-0.185000X0.135000X-0.185000X0.135000X0.185000X-0.135000X0.185000X0*%
%ADD23RoundRect,0.250000X0.725000X-0.600000X0.725000X0.600000X-0.725000X0.600000X-0.725000X-0.600000X0*%
%ADD24O,1.950000X1.700000*%
%ADD25RoundRect,0.200000X-0.800000X0.200000X-0.800000X-0.200000X0.800000X-0.200000X0.800000X0.200000X0*%
%ADD26RoundRect,0.250000X0.650000X-0.325000X0.650000X0.325000X-0.650000X0.325000X-0.650000X-0.325000X0*%
%ADD27RoundRect,0.150000X0.150000X-0.512500X0.150000X0.512500X-0.150000X0.512500X-0.150000X-0.512500X0*%
%ADD28RoundRect,0.225000X-0.225000X-0.250000X0.225000X-0.250000X0.225000X0.250000X-0.225000X0.250000X0*%
%ADD29R,1.500000X0.900000*%
%ADD30R,0.900000X1.500000*%
%ADD31C,0.600000*%
%ADD32R,3.900000X3.900000*%
%ADD33RoundRect,0.150000X0.512500X0.150000X-0.512500X0.150000X-0.512500X-0.150000X0.512500X-0.150000X0*%
%ADD34RoundRect,0.140000X-0.170000X0.140000X-0.170000X-0.140000X0.170000X-0.140000X0.170000X0.140000X0*%
%ADD35RoundRect,0.250000X0.900000X-1.000000X0.900000X1.000000X-0.900000X1.000000X-0.900000X-1.000000X0*%
%ADD36R,2.400000X3.100000*%
%ADD37RoundRect,0.150000X-0.737500X-0.150000X0.737500X-0.150000X0.737500X0.150000X-0.737500X0.150000X0*%
%ADD38RoundRect,0.150000X-0.150000X0.587500X-0.150000X-0.587500X0.150000X-0.587500X0.150000X0.587500X0*%
%ADD39RoundRect,0.140000X-0.140000X-0.170000X0.140000X-0.170000X0.140000X0.170000X-0.140000X0.170000X0*%
%ADD40RoundRect,0.250000X-1.500000X0.250000X-1.500000X-0.250000X1.500000X-0.250000X1.500000X0.250000X0*%
%ADD41RoundRect,0.250001X-1.449999X0.499999X-1.449999X-0.499999X1.449999X-0.499999X1.449999X0.499999X0*%
%ADD42RoundRect,0.140000X0.170000X-0.140000X0.170000X0.140000X-0.170000X0.140000X-0.170000X-0.140000X0*%
%ADD43C,0.650000*%
%ADD44R,1.450000X0.600000*%
%ADD45R,1.450000X0.300000*%
%ADD46O,2.100000X1.000000*%
%ADD47O,1.600000X1.000000*%
%ADD48RoundRect,0.250000X0.700000X-1.950000X0.700000X1.950000X-0.700000X1.950000X-0.700000X-1.950000X0*%
%ADD49RoundRect,0.250000X0.250000X0.475000X-0.250000X0.475000X-0.250000X-0.475000X0.250000X-0.475000X0*%
%ADD50RoundRect,0.250000X-0.412500X-0.650000X0.412500X-0.650000X0.412500X0.650000X-0.412500X0.650000X0*%
%ADD51RoundRect,0.250000X-1.050000X1.050000X-1.050000X-1.050000X1.050000X-1.050000X1.050000X1.050000X0*%
%ADD52C,2.600000*%
G04 APERTURE END LIST*
D10*
%TO.C,R8*%
X179000000Y-73520000D03*
X179000000Y-72500000D03*
%TD*%
%TO.C,R7*%
X221000000Y-63010000D03*
X221000000Y-61990000D03*
%TD*%
%TO.C,R4*%
X204500000Y-94520000D03*
X204500000Y-93500000D03*
%TD*%
%TO.C,R3*%
X204500000Y-91335000D03*
X204500000Y-90315000D03*
%TD*%
D11*
%TO.C,J6*%
X200540000Y-54500000D03*
D12*
X198000000Y-54500000D03*
X195460000Y-54500000D03*
%TD*%
D13*
%TO.C,FID3*%
X206500000Y-55000000D03*
%TD*%
D14*
%TO.C,R12*%
X215510000Y-66500000D03*
X214490000Y-66500000D03*
%TD*%
D15*
%TO.C,U7*%
X219310000Y-90550000D03*
X218040000Y-90550000D03*
X216770000Y-90550000D03*
X215500000Y-90550000D03*
X215500000Y-95500000D03*
X216770000Y-95500000D03*
X218040000Y-95500000D03*
X219310000Y-95500000D03*
%TD*%
D16*
%TO.C,TP3*%
X194500000Y-77000000D03*
%TD*%
D17*
%TO.C,J2*%
X177500000Y-106000000D03*
D18*
X180000000Y-106000000D03*
X182500000Y-106000000D03*
X185000000Y-106000000D03*
X187500000Y-106000000D03*
X190000000Y-106000000D03*
X192500000Y-106000000D03*
X195000000Y-106000000D03*
X197500000Y-106000000D03*
X200000000Y-106000000D03*
X202500000Y-106000000D03*
%TD*%
D19*
%TO.C,L1*%
X206000000Y-86500000D03*
X206000000Y-77000000D03*
%TD*%
D20*
%TO.C,C3*%
X184500000Y-90400000D03*
X184500000Y-88500000D03*
%TD*%
D21*
%TO.C,D3*%
X213000000Y-65000000D03*
X212030000Y-65000000D03*
%TD*%
D22*
%TO.C,R10*%
X208490000Y-58000000D03*
X209510000Y-58000000D03*
%TD*%
D23*
%TO.C,J3*%
X226000000Y-82000000D03*
D24*
X226000000Y-79500000D03*
X226000000Y-77000000D03*
X226000000Y-74500000D03*
X226000000Y-72000000D03*
X226000000Y-69500000D03*
X226000000Y-67000000D03*
X226000000Y-64500000D03*
X226000000Y-62000000D03*
X226000000Y-59500000D03*
X226000000Y-57000000D03*
%TD*%
D22*
%TO.C,R6*%
X216895000Y-97525000D03*
X217915000Y-97525000D03*
%TD*%
D25*
%TO.C,SW2*%
X212000000Y-53500000D03*
X212000000Y-57700000D03*
%TD*%
D13*
%TO.C,FID2*%
X223500000Y-104000000D03*
%TD*%
D20*
%TO.C,C9*%
X201500000Y-73400000D03*
X201500000Y-71500000D03*
%TD*%
D26*
%TO.C,C6*%
X201500000Y-98950000D03*
X201500000Y-96000000D03*
%TD*%
D27*
%TO.C,U4*%
X194050000Y-73550000D03*
X195000000Y-73550000D03*
X195950000Y-73550000D03*
X195950000Y-71275000D03*
X194050000Y-71275000D03*
%TD*%
D28*
%TO.C,C18*%
X164725000Y-52500000D03*
X166275000Y-52500000D03*
%TD*%
D29*
%TO.C,U1*%
X168250000Y-52740000D03*
X168250000Y-54010000D03*
X168250000Y-55280000D03*
X168250000Y-56550000D03*
X168250000Y-57820000D03*
X168250000Y-59090000D03*
X168250000Y-60360000D03*
X168250000Y-61630000D03*
X168250000Y-62900000D03*
X168250000Y-64170000D03*
X168250000Y-65440000D03*
X168250000Y-66710000D03*
X168250000Y-67980000D03*
X168250000Y-69250000D03*
D30*
X170015000Y-70500000D03*
X171285000Y-70500000D03*
X172555000Y-70500000D03*
X173825000Y-70500000D03*
X175095000Y-70500000D03*
X176365000Y-70500000D03*
X177635000Y-70500000D03*
X178905000Y-70500000D03*
X180175000Y-70500000D03*
X181445000Y-70500000D03*
X182715000Y-70500000D03*
X183985000Y-70500000D03*
D29*
X185750000Y-69250000D03*
X185750000Y-67980000D03*
X185750000Y-66710000D03*
X185750000Y-65440000D03*
X185750000Y-64170000D03*
X185750000Y-62900000D03*
X185750000Y-61630000D03*
X185750000Y-60360000D03*
X185750000Y-59090000D03*
X185750000Y-57820000D03*
X185750000Y-56550000D03*
X185750000Y-55280000D03*
X185750000Y-54010000D03*
X185750000Y-52740000D03*
D31*
X174100000Y-59760000D03*
X174100000Y-61160000D03*
X174800000Y-59060000D03*
X174800000Y-60460000D03*
X174800000Y-61860000D03*
X175500000Y-59760000D03*
D32*
X175500000Y-60460000D03*
D31*
X175500000Y-61160000D03*
X176200000Y-59060000D03*
X176200000Y-60460000D03*
X176200000Y-61860000D03*
X176900000Y-59760000D03*
X176900000Y-61160000D03*
%TD*%
D16*
%TO.C,TP5*%
X165500000Y-72500000D03*
%TD*%
D33*
%TO.C,U5*%
X169275000Y-84900000D03*
X169275000Y-83950000D03*
X169275000Y-83000000D03*
X167000000Y-83000000D03*
X167000000Y-83950000D03*
X167000000Y-84900000D03*
%TD*%
D20*
%TO.C,C5*%
X189500000Y-90400000D03*
X189500000Y-88500000D03*
%TD*%
D25*
%TO.C,SW1*%
X218000000Y-53500000D03*
X218000000Y-57700000D03*
%TD*%
D34*
%TO.C,C13*%
X165500000Y-86500000D03*
X165500000Y-87460000D03*
%TD*%
%TO.C,C14*%
X163000000Y-79020000D03*
X163000000Y-79980000D03*
%TD*%
D35*
%TO.C,D1*%
X197000000Y-84800000D03*
X197000000Y-80500000D03*
%TD*%
D36*
%TO.C,U3*%
X196650000Y-90300000D03*
D37*
X194087500Y-88395000D03*
X194087500Y-89665000D03*
X194087500Y-90935000D03*
X194087500Y-92205000D03*
X199212500Y-92205000D03*
X199212500Y-90935000D03*
X199212500Y-89665000D03*
X199212500Y-88395000D03*
%TD*%
D16*
%TO.C,TP2*%
X177500000Y-98000000D03*
%TD*%
D13*
%TO.C,FID1*%
X168000000Y-92000000D03*
%TD*%
D28*
%TO.C,C17*%
X164725000Y-57000000D03*
X166275000Y-57000000D03*
%TD*%
D33*
%TO.C,U2*%
X163500000Y-63125000D03*
X163500000Y-62175000D03*
X163500000Y-61225000D03*
X161225000Y-61225000D03*
X161225000Y-62175000D03*
X161225000Y-63125000D03*
%TD*%
D21*
%TO.C,D4*%
X212975000Y-66500000D03*
X212005000Y-66500000D03*
%TD*%
D34*
%TO.C,C2*%
X160000000Y-104500000D03*
X160000000Y-105460000D03*
%TD*%
D20*
%TO.C,C4*%
X187000000Y-90400000D03*
X187000000Y-88500000D03*
%TD*%
D22*
%TO.C,R1*%
X190990000Y-92500000D03*
X192010000Y-92500000D03*
%TD*%
D16*
%TO.C,TP1*%
X177000000Y-88500000D03*
%TD*%
D14*
%TO.C,R9*%
X188510000Y-69500000D03*
X187490000Y-69500000D03*
%TD*%
D38*
%TO.C,D2*%
X218450000Y-101062500D03*
X216550000Y-101062500D03*
X217500000Y-102937500D03*
%TD*%
D20*
%TO.C,C12*%
X194500000Y-68950000D03*
X194500000Y-67050000D03*
%TD*%
D39*
%TO.C,C15*%
X220905000Y-96025000D03*
X221865000Y-96025000D03*
%TD*%
D40*
%TO.C,J4*%
X158250000Y-70850000D03*
X158250000Y-72850000D03*
X158250000Y-74850000D03*
D41*
X152500000Y-68500000D03*
X152500000Y-77200000D03*
%TD*%
D42*
%TO.C,C7*%
X201500000Y-89960000D03*
X201500000Y-89000000D03*
%TD*%
D43*
%TO.C,P1*%
X156900000Y-58335000D03*
X156900000Y-64115000D03*
D44*
X158345000Y-57975000D03*
X158345000Y-58775000D03*
D45*
X158345000Y-59975000D03*
X158345000Y-60975000D03*
X158345000Y-61475000D03*
X158345000Y-62475000D03*
D44*
X158345000Y-63675000D03*
X158345000Y-64475000D03*
X158345000Y-64475000D03*
X158345000Y-63675000D03*
D45*
X158345000Y-62975000D03*
X158345000Y-61975000D03*
X158345000Y-60475000D03*
X158345000Y-59475000D03*
D44*
X158345000Y-58775000D03*
X158345000Y-57975000D03*
D46*
X157430000Y-56905000D03*
D47*
X153250000Y-56905000D03*
D46*
X157430000Y-65545000D03*
D47*
X153250000Y-65545000D03*
%TD*%
D48*
%TO.C,C1*%
X168000000Y-106700000D03*
X168000000Y-98000000D03*
%TD*%
D40*
%TO.C,J5*%
X158250000Y-82850000D03*
X158250000Y-84850000D03*
X158250000Y-86850000D03*
D41*
X152500000Y-80500000D03*
X152500000Y-89200000D03*
%TD*%
D49*
%TO.C,C11*%
X192000000Y-73275000D03*
X190100000Y-73275000D03*
%TD*%
D50*
%TO.C,C16*%
X163000000Y-54500000D03*
X166125000Y-54500000D03*
%TD*%
D42*
%TO.C,C8*%
X191500000Y-88980000D03*
X191500000Y-88020000D03*
%TD*%
D16*
%TO.C,TP6*%
X212500000Y-89500000D03*
%TD*%
%TO.C,TP4*%
X215500000Y-72000000D03*
%TD*%
D20*
%TO.C,C10*%
X204500000Y-73400000D03*
X204500000Y-71500000D03*
%TD*%
D14*
%TO.C,R11*%
X215535000Y-65000000D03*
X214515000Y-65000000D03*
%TD*%
D51*
%TO.C,J1*%
X155500000Y-94500000D03*
D52*
X155500000Y-99580000D03*
%TD*%
D14*
%TO.C,R13*%
X156510000Y-55000000D03*
X155490000Y-55000000D03*
%TD*%
D10*
%TO.C,R2*%
X201500000Y-92020000D03*
X201500000Y-91000000D03*
%TD*%
D33*
%TO.C,U6*%
X165637500Y-77450000D03*
X165637500Y-76500000D03*
X165637500Y-75550000D03*
X163362500Y-75550000D03*
X163362500Y-77450000D03*
%TD*%
M02*
