M48
; DRILL file {KiCad 9.0.7} date 2026-02-25T01:10:58-0800
; FORMAT={-:-/ absolute / metric / decimal}
; #@! TF.CreationDate,2026-02-25T01:10:58-08:00
; #@! TF.GenerationSoftware,Kicad,Pcbnew,9.0.7
; #@! TF.FileFunction,Plated,1,2,PTH
FMAT,2
METRIC
; #@! TA.AperFunction,Plated,PTH,ViaDrill
T1C0.300
; #@! TA.AperFunction,Plated,PTH,ComponentDrill
T2C0.300
; #@! TA.AperFunction,Plated,PTH,ComponentDrill
T3C0.600
; #@! TA.AperFunction,Plated,PTH,ComponentDrill
T4C0.950
; #@! TA.AperFunction,Plated,PTH,ComponentDrill
T5C1.000
; #@! TA.AperFunction,Plated,PTH,ComponentDrill
T6C1.300
%
G90
G05
T1
X154.5Y-103.5
X154.5Y-104.5
X155.5Y-103.5
X155.5Y-104.5
X156.5Y-103.5
X156.5Y-104.5
X161.5Y-70.5
X161.5Y-71.5
X161.5Y-82.5
X161.5Y-83.5
X162.5Y-70.5
X162.5Y-71.5
X162.5Y-82.5
X162.5Y-83.5
X165.5Y-85.0
X166.275Y-60.725
X170.0Y-53.0
X175.0Y-72.5
X175.5Y-101.5
X175.5Y-102.5
X176.0Y-81.0
X176.0Y-86.5
X176.5Y-101.5
X176.5Y-102.5
X177.5Y-101.5
X177.5Y-102.5
X181.0Y-73.5
X182.5Y-82.0
X182.5Y-84.0
X183.5Y-73.5
X185.5Y-97.5
X185.5Y-98.5
X186.5Y-97.5
X186.5Y-98.5
X188.17Y-64.17
X188.523Y-63.452
X189.0Y-54.0
X189.0Y-62.5
X191.0Y-75.5
X192.0Y-67.5
X194.5Y-59.5
X195.5Y-102.5
X197.5Y-63.0
X198.5Y-76.5
X198.5Y-77.5
X199.5Y-68.0
X199.5Y-76.5
X199.5Y-77.5
X200.5Y-62.0
X201.0Y-65.5
X201.0Y-101.0
X201.5Y-59.0
X201.5Y-93.0
X201.5Y-94.5
X202.0Y-65.5
X203.0Y-65.5
X203.0Y-103.0
X204.0Y-65.5
X206.0Y-62.0
X206.5Y-105.0
X206.5Y-106.0
X206.5Y-107.0
X207.0Y-58.0
X207.5Y-105.0
X207.5Y-106.0
X207.5Y-107.0
X218.5Y-66.5
X218.5Y-76.5
X222.0Y-94.5
X222.0Y-97.5
X223.0Y-79.5
X225.0Y-52.5
X225.0Y-53.5
X225.0Y-85.5
X225.0Y-86.5
X226.0Y-52.5
X226.0Y-53.5
X226.0Y-85.5
X226.0Y-86.5
X227.0Y-52.5
X227.0Y-53.5
X227.0Y-85.5
X227.0Y-86.5
T2
X174.1Y-59.76
X174.1Y-61.16
X174.8Y-59.06
X174.8Y-60.46
X174.8Y-61.86
X175.5Y-59.76
X175.5Y-61.16
X176.2Y-59.06
X176.2Y-60.46
X176.2Y-61.86
X176.9Y-59.76
X176.9Y-61.16
X196.0Y-89.0
X196.0Y-90.3
X196.0Y-91.6
X197.3Y-89.0
X197.3Y-90.3
X197.3Y-91.6
T4
X177.5Y-106.0
X180.0Y-106.0
X182.5Y-106.0
X185.0Y-106.0
X187.5Y-106.0
X190.0Y-106.0
X192.5Y-106.0
X195.0Y-106.0
X197.5Y-106.0
X200.0Y-106.0
X202.5Y-106.0
X226.0Y-57.0
X226.0Y-59.5
X226.0Y-62.0
X226.0Y-64.5
X226.0Y-67.0
X226.0Y-69.5
X226.0Y-72.0
X226.0Y-74.5
X226.0Y-77.0
X226.0Y-79.5
X226.0Y-82.0
T5
X195.46Y-54.5
X198.0Y-54.5
X200.54Y-54.5
T6
X155.5Y-94.5
X155.5Y-99.58
T3
G00X153.55Y-56.905
M15
G01X152.95Y-56.905
M16
G05
G00X153.55Y-65.545
M15
G01X152.95Y-65.545
M16
G05
G00X157.98Y-56.905
M15
G01X156.88Y-56.905
M16
G05
G00X157.98Y-65.545
M15
G01X156.88Y-65.545
M16
G05
M30
