%TF.GenerationSoftware,KiCad,Pcbnew,9.0.7*%
%TF.CreationDate,2026-03-13T00:39:54-07:00*%
%TF.ProjectId,Pulse_Box_PCB_v2,50756c73-655f-4426-9f78-5f5043425f76,rev?*%
%TF.SameCoordinates,Original*%
%TF.FileFunction,Legend,Top*%
%TF.FilePolarity,Positive*%
%FSLAX46Y46*%
G04 Gerber Fmt 4.6, Leading zero omitted, Abs format (unit mm)*
G04 Created by KiCad (PCBNEW 9.0.7) date 2026-03-13 00:39:54*
%MOMM*%
%LPD*%
G01*
G04 APERTURE LIST*
%ADD10C,0.100000*%
%ADD11C,0.400000*%
%ADD12C,0.125000*%
%ADD13C,0.150000*%
%ADD14C,0.120000*%
G04 APERTURE END LIST*
D10*
X170827693Y-89920038D02*
X170732455Y-89872419D01*
X170732455Y-89872419D02*
X170589598Y-89872419D01*
X170589598Y-89872419D02*
X170446741Y-89920038D01*
X170446741Y-89920038D02*
X170351503Y-90015276D01*
X170351503Y-90015276D02*
X170303884Y-90110514D01*
X170303884Y-90110514D02*
X170256265Y-90300990D01*
X170256265Y-90300990D02*
X170256265Y-90443847D01*
X170256265Y-90443847D02*
X170303884Y-90634323D01*
X170303884Y-90634323D02*
X170351503Y-90729561D01*
X170351503Y-90729561D02*
X170446741Y-90824800D01*
X170446741Y-90824800D02*
X170589598Y-90872419D01*
X170589598Y-90872419D02*
X170684836Y-90872419D01*
X170684836Y-90872419D02*
X170827693Y-90824800D01*
X170827693Y-90824800D02*
X170875312Y-90777180D01*
X170875312Y-90777180D02*
X170875312Y-90443847D01*
X170875312Y-90443847D02*
X170684836Y-90443847D01*
X171303884Y-90872419D02*
X171303884Y-89872419D01*
X171303884Y-89872419D02*
X171875312Y-90872419D01*
X171875312Y-90872419D02*
X171875312Y-89872419D01*
X172351503Y-90872419D02*
X172351503Y-89872419D01*
X172351503Y-89872419D02*
X172589598Y-89872419D01*
X172589598Y-89872419D02*
X172732455Y-89920038D01*
X172732455Y-89920038D02*
X172827693Y-90015276D01*
X172827693Y-90015276D02*
X172875312Y-90110514D01*
X172875312Y-90110514D02*
X172922931Y-90300990D01*
X172922931Y-90300990D02*
X172922931Y-90443847D01*
X172922931Y-90443847D02*
X172875312Y-90634323D01*
X172875312Y-90634323D02*
X172827693Y-90729561D01*
X172827693Y-90729561D02*
X172732455Y-90824800D01*
X172732455Y-90824800D02*
X172589598Y-90872419D01*
X172589598Y-90872419D02*
X172351503Y-90872419D01*
X154280074Y-69872419D02*
X153803884Y-69872419D01*
X153803884Y-69872419D02*
X153803884Y-68872419D01*
X154613408Y-69348609D02*
X154946741Y-69348609D01*
X155089598Y-69872419D02*
X154613408Y-69872419D01*
X154613408Y-69872419D02*
X154613408Y-68872419D01*
X154613408Y-68872419D02*
X155089598Y-68872419D01*
X155518170Y-69872419D02*
X155518170Y-68872419D01*
X155518170Y-68872419D02*
X155756265Y-68872419D01*
X155756265Y-68872419D02*
X155899122Y-68920038D01*
X155899122Y-68920038D02*
X155994360Y-69015276D01*
X155994360Y-69015276D02*
X156041979Y-69110514D01*
X156041979Y-69110514D02*
X156089598Y-69300990D01*
X156089598Y-69300990D02*
X156089598Y-69443847D01*
X156089598Y-69443847D02*
X156041979Y-69634323D01*
X156041979Y-69634323D02*
X155994360Y-69729561D01*
X155994360Y-69729561D02*
X155899122Y-69824800D01*
X155899122Y-69824800D02*
X155756265Y-69872419D01*
X155756265Y-69872419D02*
X155518170Y-69872419D01*
X156280075Y-69967657D02*
X157041979Y-69967657D01*
X157280075Y-69872419D02*
X157280075Y-68872419D01*
X157756265Y-69872419D02*
X157756265Y-68872419D01*
X157756265Y-68872419D02*
X158327693Y-69872419D01*
X158327693Y-69872419D02*
X158327693Y-68872419D01*
D11*
X151489347Y-104222533D02*
X153013157Y-104222533D01*
X152251252Y-104984438D02*
X152251252Y-103460628D01*
D12*
X206272712Y-66823500D02*
X206415569Y-66871119D01*
X206415569Y-66871119D02*
X206653664Y-66871119D01*
X206653664Y-66871119D02*
X206748902Y-66823500D01*
X206748902Y-66823500D02*
X206796521Y-66775880D01*
X206796521Y-66775880D02*
X206844140Y-66680642D01*
X206844140Y-66680642D02*
X206844140Y-66585404D01*
X206844140Y-66585404D02*
X206796521Y-66490166D01*
X206796521Y-66490166D02*
X206748902Y-66442547D01*
X206748902Y-66442547D02*
X206653664Y-66394928D01*
X206653664Y-66394928D02*
X206463188Y-66347309D01*
X206463188Y-66347309D02*
X206367950Y-66299690D01*
X206367950Y-66299690D02*
X206320331Y-66252071D01*
X206320331Y-66252071D02*
X206272712Y-66156833D01*
X206272712Y-66156833D02*
X206272712Y-66061595D01*
X206272712Y-66061595D02*
X206320331Y-65966357D01*
X206320331Y-65966357D02*
X206367950Y-65918738D01*
X206367950Y-65918738D02*
X206463188Y-65871119D01*
X206463188Y-65871119D02*
X206701283Y-65871119D01*
X206701283Y-65871119D02*
X206844140Y-65918738D01*
X207129855Y-65871119D02*
X207701283Y-65871119D01*
X207415569Y-66871119D02*
X207415569Y-65871119D01*
X207986998Y-66585404D02*
X208463188Y-66585404D01*
X207891760Y-66871119D02*
X208225093Y-65871119D01*
X208225093Y-65871119D02*
X208558426Y-66871119D01*
X208748903Y-65871119D02*
X209320331Y-65871119D01*
X209034617Y-66871119D02*
X209034617Y-65871119D01*
X209653665Y-65871119D02*
X209653665Y-66680642D01*
X209653665Y-66680642D02*
X209701284Y-66775880D01*
X209701284Y-66775880D02*
X209748903Y-66823500D01*
X209748903Y-66823500D02*
X209844141Y-66871119D01*
X209844141Y-66871119D02*
X210034617Y-66871119D01*
X210034617Y-66871119D02*
X210129855Y-66823500D01*
X210129855Y-66823500D02*
X210177474Y-66775880D01*
X210177474Y-66775880D02*
X210225093Y-66680642D01*
X210225093Y-66680642D02*
X210225093Y-65871119D01*
X210653665Y-66823500D02*
X210796522Y-66871119D01*
X210796522Y-66871119D02*
X211034617Y-66871119D01*
X211034617Y-66871119D02*
X211129855Y-66823500D01*
X211129855Y-66823500D02*
X211177474Y-66775880D01*
X211177474Y-66775880D02*
X211225093Y-66680642D01*
X211225093Y-66680642D02*
X211225093Y-66585404D01*
X211225093Y-66585404D02*
X211177474Y-66490166D01*
X211177474Y-66490166D02*
X211129855Y-66442547D01*
X211129855Y-66442547D02*
X211034617Y-66394928D01*
X211034617Y-66394928D02*
X210844141Y-66347309D01*
X210844141Y-66347309D02*
X210748903Y-66299690D01*
X210748903Y-66299690D02*
X210701284Y-66252071D01*
X210701284Y-66252071D02*
X210653665Y-66156833D01*
X210653665Y-66156833D02*
X210653665Y-66061595D01*
X210653665Y-66061595D02*
X210701284Y-65966357D01*
X210701284Y-65966357D02*
X210748903Y-65918738D01*
X210748903Y-65918738D02*
X210844141Y-65871119D01*
X210844141Y-65871119D02*
X211082236Y-65871119D01*
X211082236Y-65871119D02*
X211225093Y-65918738D01*
D10*
X215780074Y-81872419D02*
X215303884Y-81872419D01*
X215303884Y-81872419D02*
X215256265Y-82348609D01*
X215256265Y-82348609D02*
X215303884Y-82300990D01*
X215303884Y-82300990D02*
X215399122Y-82253371D01*
X215399122Y-82253371D02*
X215637217Y-82253371D01*
X215637217Y-82253371D02*
X215732455Y-82300990D01*
X215732455Y-82300990D02*
X215780074Y-82348609D01*
X215780074Y-82348609D02*
X215827693Y-82443847D01*
X215827693Y-82443847D02*
X215827693Y-82681942D01*
X215827693Y-82681942D02*
X215780074Y-82777180D01*
X215780074Y-82777180D02*
X215732455Y-82824800D01*
X215732455Y-82824800D02*
X215637217Y-82872419D01*
X215637217Y-82872419D02*
X215399122Y-82872419D01*
X215399122Y-82872419D02*
X215303884Y-82824800D01*
X215303884Y-82824800D02*
X215256265Y-82777180D01*
X216113408Y-81872419D02*
X216446741Y-82872419D01*
X216446741Y-82872419D02*
X216780074Y-81872419D01*
X210875312Y-59872419D02*
X210541979Y-59396228D01*
X210303884Y-59872419D02*
X210303884Y-58872419D01*
X210303884Y-58872419D02*
X210684836Y-58872419D01*
X210684836Y-58872419D02*
X210780074Y-58920038D01*
X210780074Y-58920038D02*
X210827693Y-58967657D01*
X210827693Y-58967657D02*
X210875312Y-59062895D01*
X210875312Y-59062895D02*
X210875312Y-59205752D01*
X210875312Y-59205752D02*
X210827693Y-59300990D01*
X210827693Y-59300990D02*
X210780074Y-59348609D01*
X210780074Y-59348609D02*
X210684836Y-59396228D01*
X210684836Y-59396228D02*
X210303884Y-59396228D01*
X211303884Y-59348609D02*
X211637217Y-59348609D01*
X211780074Y-59872419D02*
X211303884Y-59872419D01*
X211303884Y-59872419D02*
X211303884Y-58872419D01*
X211303884Y-58872419D02*
X211780074Y-58872419D01*
X212161027Y-59824800D02*
X212303884Y-59872419D01*
X212303884Y-59872419D02*
X212541979Y-59872419D01*
X212541979Y-59872419D02*
X212637217Y-59824800D01*
X212637217Y-59824800D02*
X212684836Y-59777180D01*
X212684836Y-59777180D02*
X212732455Y-59681942D01*
X212732455Y-59681942D02*
X212732455Y-59586704D01*
X212732455Y-59586704D02*
X212684836Y-59491466D01*
X212684836Y-59491466D02*
X212637217Y-59443847D01*
X212637217Y-59443847D02*
X212541979Y-59396228D01*
X212541979Y-59396228D02*
X212351503Y-59348609D01*
X212351503Y-59348609D02*
X212256265Y-59300990D01*
X212256265Y-59300990D02*
X212208646Y-59253371D01*
X212208646Y-59253371D02*
X212161027Y-59158133D01*
X212161027Y-59158133D02*
X212161027Y-59062895D01*
X212161027Y-59062895D02*
X212208646Y-58967657D01*
X212208646Y-58967657D02*
X212256265Y-58920038D01*
X212256265Y-58920038D02*
X212351503Y-58872419D01*
X212351503Y-58872419D02*
X212589598Y-58872419D01*
X212589598Y-58872419D02*
X212732455Y-58920038D01*
X213161027Y-59348609D02*
X213494360Y-59348609D01*
X213637217Y-59872419D02*
X213161027Y-59872419D01*
X213161027Y-59872419D02*
X213161027Y-58872419D01*
X213161027Y-58872419D02*
X213637217Y-58872419D01*
X213922932Y-58872419D02*
X214494360Y-58872419D01*
X214208646Y-59872419D02*
X214208646Y-58872419D01*
D11*
X209239347Y-96734438D02*
X209239347Y-94734438D01*
X209239347Y-94734438D02*
X210001252Y-94734438D01*
X210001252Y-94734438D02*
X210191728Y-94829676D01*
X210191728Y-94829676D02*
X210286966Y-94924914D01*
X210286966Y-94924914D02*
X210382204Y-95115390D01*
X210382204Y-95115390D02*
X210382204Y-95401104D01*
X210382204Y-95401104D02*
X210286966Y-95591580D01*
X210286966Y-95591580D02*
X210191728Y-95686819D01*
X210191728Y-95686819D02*
X210001252Y-95782057D01*
X210001252Y-95782057D02*
X209239347Y-95782057D01*
X212096490Y-95401104D02*
X212096490Y-96734438D01*
X211239347Y-95401104D02*
X211239347Y-96448723D01*
X211239347Y-96448723D02*
X211334585Y-96639200D01*
X211334585Y-96639200D02*
X211525061Y-96734438D01*
X211525061Y-96734438D02*
X211810776Y-96734438D01*
X211810776Y-96734438D02*
X212001252Y-96639200D01*
X212001252Y-96639200D02*
X212096490Y-96543961D01*
X213334585Y-96734438D02*
X213144109Y-96639200D01*
X213144109Y-96639200D02*
X213048871Y-96448723D01*
X213048871Y-96448723D02*
X213048871Y-94734438D01*
X214001252Y-96639200D02*
X214191728Y-96734438D01*
X214191728Y-96734438D02*
X214572680Y-96734438D01*
X214572680Y-96734438D02*
X214763157Y-96639200D01*
X214763157Y-96639200D02*
X214858395Y-96448723D01*
X214858395Y-96448723D02*
X214858395Y-96353485D01*
X214858395Y-96353485D02*
X214763157Y-96163009D01*
X214763157Y-96163009D02*
X214572680Y-96067771D01*
X214572680Y-96067771D02*
X214286966Y-96067771D01*
X214286966Y-96067771D02*
X214096490Y-95972533D01*
X214096490Y-95972533D02*
X214001252Y-95782057D01*
X214001252Y-95782057D02*
X214001252Y-95686819D01*
X214001252Y-95686819D02*
X214096490Y-95496342D01*
X214096490Y-95496342D02*
X214286966Y-95401104D01*
X214286966Y-95401104D02*
X214572680Y-95401104D01*
X214572680Y-95401104D02*
X214763157Y-95496342D01*
X216477443Y-96639200D02*
X216286967Y-96734438D01*
X216286967Y-96734438D02*
X215906014Y-96734438D01*
X215906014Y-96734438D02*
X215715538Y-96639200D01*
X215715538Y-96639200D02*
X215620300Y-96448723D01*
X215620300Y-96448723D02*
X215620300Y-95686819D01*
X215620300Y-95686819D02*
X215715538Y-95496342D01*
X215715538Y-95496342D02*
X215906014Y-95401104D01*
X215906014Y-95401104D02*
X216286967Y-95401104D01*
X216286967Y-95401104D02*
X216477443Y-95496342D01*
X216477443Y-95496342D02*
X216572681Y-95686819D01*
X216572681Y-95686819D02*
X216572681Y-95877295D01*
X216572681Y-95877295D02*
X215620300Y-96067771D01*
X218096491Y-95686819D02*
X218382205Y-95782057D01*
X218382205Y-95782057D02*
X218477443Y-95877295D01*
X218477443Y-95877295D02*
X218572681Y-96067771D01*
X218572681Y-96067771D02*
X218572681Y-96353485D01*
X218572681Y-96353485D02*
X218477443Y-96543961D01*
X218477443Y-96543961D02*
X218382205Y-96639200D01*
X218382205Y-96639200D02*
X218191729Y-96734438D01*
X218191729Y-96734438D02*
X217429824Y-96734438D01*
X217429824Y-96734438D02*
X217429824Y-94734438D01*
X217429824Y-94734438D02*
X218096491Y-94734438D01*
X218096491Y-94734438D02*
X218286967Y-94829676D01*
X218286967Y-94829676D02*
X218382205Y-94924914D01*
X218382205Y-94924914D02*
X218477443Y-95115390D01*
X218477443Y-95115390D02*
X218477443Y-95305866D01*
X218477443Y-95305866D02*
X218382205Y-95496342D01*
X218382205Y-95496342D02*
X218286967Y-95591580D01*
X218286967Y-95591580D02*
X218096491Y-95686819D01*
X218096491Y-95686819D02*
X217429824Y-95686819D01*
X219715538Y-96734438D02*
X219525062Y-96639200D01*
X219525062Y-96639200D02*
X219429824Y-96543961D01*
X219429824Y-96543961D02*
X219334586Y-96353485D01*
X219334586Y-96353485D02*
X219334586Y-95782057D01*
X219334586Y-95782057D02*
X219429824Y-95591580D01*
X219429824Y-95591580D02*
X219525062Y-95496342D01*
X219525062Y-95496342D02*
X219715538Y-95401104D01*
X219715538Y-95401104D02*
X220001253Y-95401104D01*
X220001253Y-95401104D02*
X220191729Y-95496342D01*
X220191729Y-95496342D02*
X220286967Y-95591580D01*
X220286967Y-95591580D02*
X220382205Y-95782057D01*
X220382205Y-95782057D02*
X220382205Y-96353485D01*
X220382205Y-96353485D02*
X220286967Y-96543961D01*
X220286967Y-96543961D02*
X220191729Y-96639200D01*
X220191729Y-96639200D02*
X220001253Y-96734438D01*
X220001253Y-96734438D02*
X219715538Y-96734438D01*
X221048872Y-96734438D02*
X222096491Y-95401104D01*
X221048872Y-95401104D02*
X222096491Y-96734438D01*
X224191730Y-95401104D02*
X224667920Y-96734438D01*
X224667920Y-96734438D02*
X225144111Y-95401104D01*
X225810778Y-94924914D02*
X225906016Y-94829676D01*
X225906016Y-94829676D02*
X226096492Y-94734438D01*
X226096492Y-94734438D02*
X226572683Y-94734438D01*
X226572683Y-94734438D02*
X226763159Y-94829676D01*
X226763159Y-94829676D02*
X226858397Y-94924914D01*
X226858397Y-94924914D02*
X226953635Y-95115390D01*
X226953635Y-95115390D02*
X226953635Y-95305866D01*
X226953635Y-95305866D02*
X226858397Y-95591580D01*
X226858397Y-95591580D02*
X225715540Y-96734438D01*
X225715540Y-96734438D02*
X226953635Y-96734438D01*
D10*
X187280074Y-81372419D02*
X186803884Y-81372419D01*
X186803884Y-81372419D02*
X186756265Y-81848609D01*
X186756265Y-81848609D02*
X186803884Y-81800990D01*
X186803884Y-81800990D02*
X186899122Y-81753371D01*
X186899122Y-81753371D02*
X187137217Y-81753371D01*
X187137217Y-81753371D02*
X187232455Y-81800990D01*
X187232455Y-81800990D02*
X187280074Y-81848609D01*
X187280074Y-81848609D02*
X187327693Y-81943847D01*
X187327693Y-81943847D02*
X187327693Y-82181942D01*
X187327693Y-82181942D02*
X187280074Y-82277180D01*
X187280074Y-82277180D02*
X187232455Y-82324800D01*
X187232455Y-82324800D02*
X187137217Y-82372419D01*
X187137217Y-82372419D02*
X186899122Y-82372419D01*
X186899122Y-82372419D02*
X186803884Y-82324800D01*
X186803884Y-82324800D02*
X186756265Y-82277180D01*
X187613408Y-81372419D02*
X187946741Y-82372419D01*
X187946741Y-82372419D02*
X188280074Y-81372419D01*
X179756265Y-99467657D02*
X179803884Y-99420038D01*
X179803884Y-99420038D02*
X179899122Y-99372419D01*
X179899122Y-99372419D02*
X180137217Y-99372419D01*
X180137217Y-99372419D02*
X180232455Y-99420038D01*
X180232455Y-99420038D02*
X180280074Y-99467657D01*
X180280074Y-99467657D02*
X180327693Y-99562895D01*
X180327693Y-99562895D02*
X180327693Y-99658133D01*
X180327693Y-99658133D02*
X180280074Y-99800990D01*
X180280074Y-99800990D02*
X179708646Y-100372419D01*
X179708646Y-100372419D02*
X180327693Y-100372419D01*
X181184836Y-99705752D02*
X181184836Y-100372419D01*
X180946741Y-99324800D02*
X180708646Y-100039085D01*
X180708646Y-100039085D02*
X181327693Y-100039085D01*
X181565789Y-99372419D02*
X181899122Y-100372419D01*
X181899122Y-100372419D02*
X182232455Y-99372419D01*
X214506265Y-84467657D02*
X214553884Y-84420038D01*
X214553884Y-84420038D02*
X214649122Y-84372419D01*
X214649122Y-84372419D02*
X214887217Y-84372419D01*
X214887217Y-84372419D02*
X214982455Y-84420038D01*
X214982455Y-84420038D02*
X215030074Y-84467657D01*
X215030074Y-84467657D02*
X215077693Y-84562895D01*
X215077693Y-84562895D02*
X215077693Y-84658133D01*
X215077693Y-84658133D02*
X215030074Y-84800990D01*
X215030074Y-84800990D02*
X214458646Y-85372419D01*
X214458646Y-85372419D02*
X215077693Y-85372419D01*
X215934836Y-84705752D02*
X215934836Y-85372419D01*
X215696741Y-84324800D02*
X215458646Y-85039085D01*
X215458646Y-85039085D02*
X216077693Y-85039085D01*
X216315789Y-84372419D02*
X216649122Y-85372419D01*
X216649122Y-85372419D02*
X216982455Y-84372419D01*
X172553884Y-78622419D02*
X172553884Y-77622419D01*
X172553884Y-77622419D02*
X172934836Y-77622419D01*
X172934836Y-77622419D02*
X173030074Y-77670038D01*
X173030074Y-77670038D02*
X173077693Y-77717657D01*
X173077693Y-77717657D02*
X173125312Y-77812895D01*
X173125312Y-77812895D02*
X173125312Y-77955752D01*
X173125312Y-77955752D02*
X173077693Y-78050990D01*
X173077693Y-78050990D02*
X173030074Y-78098609D01*
X173030074Y-78098609D02*
X172934836Y-78146228D01*
X172934836Y-78146228D02*
X172553884Y-78146228D01*
X173458646Y-77622419D02*
X173696741Y-78622419D01*
X173696741Y-78622419D02*
X173887217Y-77908133D01*
X173887217Y-77908133D02*
X174077693Y-78622419D01*
X174077693Y-78622419D02*
X174315789Y-77622419D01*
X174696741Y-78622419D02*
X174696741Y-77622419D01*
X174696741Y-77622419D02*
X175030074Y-78336704D01*
X175030074Y-78336704D02*
X175363407Y-77622419D01*
X175363407Y-77622419D02*
X175363407Y-78622419D01*
X214577693Y-86920038D02*
X214482455Y-86872419D01*
X214482455Y-86872419D02*
X214339598Y-86872419D01*
X214339598Y-86872419D02*
X214196741Y-86920038D01*
X214196741Y-86920038D02*
X214101503Y-87015276D01*
X214101503Y-87015276D02*
X214053884Y-87110514D01*
X214053884Y-87110514D02*
X214006265Y-87300990D01*
X214006265Y-87300990D02*
X214006265Y-87443847D01*
X214006265Y-87443847D02*
X214053884Y-87634323D01*
X214053884Y-87634323D02*
X214101503Y-87729561D01*
X214101503Y-87729561D02*
X214196741Y-87824800D01*
X214196741Y-87824800D02*
X214339598Y-87872419D01*
X214339598Y-87872419D02*
X214434836Y-87872419D01*
X214434836Y-87872419D02*
X214577693Y-87824800D01*
X214577693Y-87824800D02*
X214625312Y-87777180D01*
X214625312Y-87777180D02*
X214625312Y-87443847D01*
X214625312Y-87443847D02*
X214434836Y-87443847D01*
X215053884Y-87872419D02*
X215053884Y-86872419D01*
X215053884Y-86872419D02*
X215625312Y-87872419D01*
X215625312Y-87872419D02*
X215625312Y-86872419D01*
X216101503Y-87872419D02*
X216101503Y-86872419D01*
X216101503Y-86872419D02*
X216339598Y-86872419D01*
X216339598Y-86872419D02*
X216482455Y-86920038D01*
X216482455Y-86920038D02*
X216577693Y-87015276D01*
X216577693Y-87015276D02*
X216625312Y-87110514D01*
X216625312Y-87110514D02*
X216672931Y-87300990D01*
X216672931Y-87300990D02*
X216672931Y-87443847D01*
X216672931Y-87443847D02*
X216625312Y-87634323D01*
X216625312Y-87634323D02*
X216577693Y-87729561D01*
X216577693Y-87729561D02*
X216482455Y-87824800D01*
X216482455Y-87824800D02*
X216339598Y-87872419D01*
X216339598Y-87872419D02*
X216101503Y-87872419D01*
D12*
X208725093Y-64371119D02*
X209344140Y-64371119D01*
X209344140Y-64371119D02*
X209010807Y-64752071D01*
X209010807Y-64752071D02*
X209153664Y-64752071D01*
X209153664Y-64752071D02*
X209248902Y-64799690D01*
X209248902Y-64799690D02*
X209296521Y-64847309D01*
X209296521Y-64847309D02*
X209344140Y-64942547D01*
X209344140Y-64942547D02*
X209344140Y-65180642D01*
X209344140Y-65180642D02*
X209296521Y-65275880D01*
X209296521Y-65275880D02*
X209248902Y-65323500D01*
X209248902Y-65323500D02*
X209153664Y-65371119D01*
X209153664Y-65371119D02*
X208867950Y-65371119D01*
X208867950Y-65371119D02*
X208772712Y-65323500D01*
X208772712Y-65323500D02*
X208725093Y-65275880D01*
X209677474Y-64704452D02*
X209915569Y-65371119D01*
X209915569Y-65371119D02*
X210153664Y-64704452D01*
X210439379Y-64371119D02*
X211058426Y-64371119D01*
X211058426Y-64371119D02*
X210725093Y-64752071D01*
X210725093Y-64752071D02*
X210867950Y-64752071D01*
X210867950Y-64752071D02*
X210963188Y-64799690D01*
X210963188Y-64799690D02*
X211010807Y-64847309D01*
X211010807Y-64847309D02*
X211058426Y-64942547D01*
X211058426Y-64942547D02*
X211058426Y-65180642D01*
X211058426Y-65180642D02*
X211010807Y-65275880D01*
X211010807Y-65275880D02*
X210963188Y-65323500D01*
X210963188Y-65323500D02*
X210867950Y-65371119D01*
X210867950Y-65371119D02*
X210582236Y-65371119D01*
X210582236Y-65371119D02*
X210486998Y-65323500D01*
X210486998Y-65323500D02*
X210439379Y-65275880D01*
D10*
X153780074Y-90872419D02*
X153303884Y-90872419D01*
X153303884Y-90872419D02*
X153303884Y-89872419D01*
X154113408Y-90348609D02*
X154446741Y-90348609D01*
X154589598Y-90872419D02*
X154113408Y-90872419D01*
X154113408Y-90872419D02*
X154113408Y-89872419D01*
X154113408Y-89872419D02*
X154589598Y-89872419D01*
X155018170Y-90872419D02*
X155018170Y-89872419D01*
X155018170Y-89872419D02*
X155256265Y-89872419D01*
X155256265Y-89872419D02*
X155399122Y-89920038D01*
X155399122Y-89920038D02*
X155494360Y-90015276D01*
X155494360Y-90015276D02*
X155541979Y-90110514D01*
X155541979Y-90110514D02*
X155589598Y-90300990D01*
X155589598Y-90300990D02*
X155589598Y-90443847D01*
X155589598Y-90443847D02*
X155541979Y-90634323D01*
X155541979Y-90634323D02*
X155494360Y-90729561D01*
X155494360Y-90729561D02*
X155399122Y-90824800D01*
X155399122Y-90824800D02*
X155256265Y-90872419D01*
X155256265Y-90872419D02*
X155018170Y-90872419D01*
X155780075Y-90967657D02*
X156541979Y-90967657D01*
X156970551Y-89872419D02*
X157161027Y-89872419D01*
X157161027Y-89872419D02*
X157256265Y-89920038D01*
X157256265Y-89920038D02*
X157351503Y-90015276D01*
X157351503Y-90015276D02*
X157399122Y-90205752D01*
X157399122Y-90205752D02*
X157399122Y-90539085D01*
X157399122Y-90539085D02*
X157351503Y-90729561D01*
X157351503Y-90729561D02*
X157256265Y-90824800D01*
X157256265Y-90824800D02*
X157161027Y-90872419D01*
X157161027Y-90872419D02*
X156970551Y-90872419D01*
X156970551Y-90872419D02*
X156875313Y-90824800D01*
X156875313Y-90824800D02*
X156780075Y-90729561D01*
X156780075Y-90729561D02*
X156732456Y-90539085D01*
X156732456Y-90539085D02*
X156732456Y-90205752D01*
X156732456Y-90205752D02*
X156780075Y-90015276D01*
X156780075Y-90015276D02*
X156875313Y-89920038D01*
X156875313Y-89920038D02*
X156970551Y-89872419D01*
X157827694Y-89872419D02*
X157827694Y-90681942D01*
X157827694Y-90681942D02*
X157875313Y-90777180D01*
X157875313Y-90777180D02*
X157922932Y-90824800D01*
X157922932Y-90824800D02*
X158018170Y-90872419D01*
X158018170Y-90872419D02*
X158208646Y-90872419D01*
X158208646Y-90872419D02*
X158303884Y-90824800D01*
X158303884Y-90824800D02*
X158351503Y-90777180D01*
X158351503Y-90777180D02*
X158399122Y-90681942D01*
X158399122Y-90681942D02*
X158399122Y-89872419D01*
X158732456Y-89872419D02*
X159303884Y-89872419D01*
X159018170Y-90872419D02*
X159018170Y-89872419D01*
X214458646Y-79122419D02*
X215077693Y-79122419D01*
X215077693Y-79122419D02*
X214744360Y-79503371D01*
X214744360Y-79503371D02*
X214887217Y-79503371D01*
X214887217Y-79503371D02*
X214982455Y-79550990D01*
X214982455Y-79550990D02*
X215030074Y-79598609D01*
X215030074Y-79598609D02*
X215077693Y-79693847D01*
X215077693Y-79693847D02*
X215077693Y-79931942D01*
X215077693Y-79931942D02*
X215030074Y-80027180D01*
X215030074Y-80027180D02*
X214982455Y-80074800D01*
X214982455Y-80074800D02*
X214887217Y-80122419D01*
X214887217Y-80122419D02*
X214601503Y-80122419D01*
X214601503Y-80122419D02*
X214506265Y-80074800D01*
X214506265Y-80074800D02*
X214458646Y-80027180D01*
X215411027Y-79455752D02*
X215649122Y-80122419D01*
X215649122Y-80122419D02*
X215887217Y-79455752D01*
X216172932Y-79122419D02*
X216791979Y-79122419D01*
X216791979Y-79122419D02*
X216458646Y-79503371D01*
X216458646Y-79503371D02*
X216601503Y-79503371D01*
X216601503Y-79503371D02*
X216696741Y-79550990D01*
X216696741Y-79550990D02*
X216744360Y-79598609D01*
X216744360Y-79598609D02*
X216791979Y-79693847D01*
X216791979Y-79693847D02*
X216791979Y-79931942D01*
X216791979Y-79931942D02*
X216744360Y-80027180D01*
X216744360Y-80027180D02*
X216696741Y-80074800D01*
X216696741Y-80074800D02*
X216601503Y-80122419D01*
X216601503Y-80122419D02*
X216315789Y-80122419D01*
X216315789Y-80122419D02*
X216220551Y-80074800D01*
X216220551Y-80074800D02*
X216172932Y-80027180D01*
X216637217Y-59348609D02*
X216780074Y-59396228D01*
X216780074Y-59396228D02*
X216827693Y-59443847D01*
X216827693Y-59443847D02*
X216875312Y-59539085D01*
X216875312Y-59539085D02*
X216875312Y-59681942D01*
X216875312Y-59681942D02*
X216827693Y-59777180D01*
X216827693Y-59777180D02*
X216780074Y-59824800D01*
X216780074Y-59824800D02*
X216684836Y-59872419D01*
X216684836Y-59872419D02*
X216303884Y-59872419D01*
X216303884Y-59872419D02*
X216303884Y-58872419D01*
X216303884Y-58872419D02*
X216637217Y-58872419D01*
X216637217Y-58872419D02*
X216732455Y-58920038D01*
X216732455Y-58920038D02*
X216780074Y-58967657D01*
X216780074Y-58967657D02*
X216827693Y-59062895D01*
X216827693Y-59062895D02*
X216827693Y-59158133D01*
X216827693Y-59158133D02*
X216780074Y-59253371D01*
X216780074Y-59253371D02*
X216732455Y-59300990D01*
X216732455Y-59300990D02*
X216637217Y-59348609D01*
X216637217Y-59348609D02*
X216303884Y-59348609D01*
X217494360Y-58872419D02*
X217684836Y-58872419D01*
X217684836Y-58872419D02*
X217780074Y-58920038D01*
X217780074Y-58920038D02*
X217875312Y-59015276D01*
X217875312Y-59015276D02*
X217922931Y-59205752D01*
X217922931Y-59205752D02*
X217922931Y-59539085D01*
X217922931Y-59539085D02*
X217875312Y-59729561D01*
X217875312Y-59729561D02*
X217780074Y-59824800D01*
X217780074Y-59824800D02*
X217684836Y-59872419D01*
X217684836Y-59872419D02*
X217494360Y-59872419D01*
X217494360Y-59872419D02*
X217399122Y-59824800D01*
X217399122Y-59824800D02*
X217303884Y-59729561D01*
X217303884Y-59729561D02*
X217256265Y-59539085D01*
X217256265Y-59539085D02*
X217256265Y-59205752D01*
X217256265Y-59205752D02*
X217303884Y-59015276D01*
X217303884Y-59015276D02*
X217399122Y-58920038D01*
X217399122Y-58920038D02*
X217494360Y-58872419D01*
X218541979Y-58872419D02*
X218732455Y-58872419D01*
X218732455Y-58872419D02*
X218827693Y-58920038D01*
X218827693Y-58920038D02*
X218922931Y-59015276D01*
X218922931Y-59015276D02*
X218970550Y-59205752D01*
X218970550Y-59205752D02*
X218970550Y-59539085D01*
X218970550Y-59539085D02*
X218922931Y-59729561D01*
X218922931Y-59729561D02*
X218827693Y-59824800D01*
X218827693Y-59824800D02*
X218732455Y-59872419D01*
X218732455Y-59872419D02*
X218541979Y-59872419D01*
X218541979Y-59872419D02*
X218446741Y-59824800D01*
X218446741Y-59824800D02*
X218351503Y-59729561D01*
X218351503Y-59729561D02*
X218303884Y-59539085D01*
X218303884Y-59539085D02*
X218303884Y-59205752D01*
X218303884Y-59205752D02*
X218351503Y-59015276D01*
X218351503Y-59015276D02*
X218446741Y-58920038D01*
X218446741Y-58920038D02*
X218541979Y-58872419D01*
X219256265Y-58872419D02*
X219827693Y-58872419D01*
X219541979Y-59872419D02*
X219541979Y-58872419D01*
X214708646Y-71622419D02*
X215327693Y-71622419D01*
X215327693Y-71622419D02*
X214994360Y-72003371D01*
X214994360Y-72003371D02*
X215137217Y-72003371D01*
X215137217Y-72003371D02*
X215232455Y-72050990D01*
X215232455Y-72050990D02*
X215280074Y-72098609D01*
X215280074Y-72098609D02*
X215327693Y-72193847D01*
X215327693Y-72193847D02*
X215327693Y-72431942D01*
X215327693Y-72431942D02*
X215280074Y-72527180D01*
X215280074Y-72527180D02*
X215232455Y-72574800D01*
X215232455Y-72574800D02*
X215137217Y-72622419D01*
X215137217Y-72622419D02*
X214851503Y-72622419D01*
X214851503Y-72622419D02*
X214756265Y-72574800D01*
X214756265Y-72574800D02*
X214708646Y-72527180D01*
X215661027Y-71955752D02*
X215899122Y-72622419D01*
X215899122Y-72622419D02*
X216137217Y-71955752D01*
X216422932Y-71622419D02*
X217041979Y-71622419D01*
X217041979Y-71622419D02*
X216708646Y-72003371D01*
X216708646Y-72003371D02*
X216851503Y-72003371D01*
X216851503Y-72003371D02*
X216946741Y-72050990D01*
X216946741Y-72050990D02*
X216994360Y-72098609D01*
X216994360Y-72098609D02*
X217041979Y-72193847D01*
X217041979Y-72193847D02*
X217041979Y-72431942D01*
X217041979Y-72431942D02*
X216994360Y-72527180D01*
X216994360Y-72527180D02*
X216946741Y-72574800D01*
X216946741Y-72574800D02*
X216851503Y-72622419D01*
X216851503Y-72622419D02*
X216565789Y-72622419D01*
X216565789Y-72622419D02*
X216470551Y-72574800D01*
X216470551Y-72574800D02*
X216422932Y-72527180D01*
D13*
X210333333Y-75454819D02*
X209857143Y-75454819D01*
X209857143Y-75454819D02*
X209857143Y-74454819D01*
X211190476Y-75454819D02*
X210619048Y-75454819D01*
X210904762Y-75454819D02*
X210904762Y-74454819D01*
X210904762Y-74454819D02*
X210809524Y-74597676D01*
X210809524Y-74597676D02*
X210714286Y-74692914D01*
X210714286Y-74692914D02*
X210619048Y-74740533D01*
X162357142Y-52859580D02*
X162309523Y-52907200D01*
X162309523Y-52907200D02*
X162166666Y-52954819D01*
X162166666Y-52954819D02*
X162071428Y-52954819D01*
X162071428Y-52954819D02*
X161928571Y-52907200D01*
X161928571Y-52907200D02*
X161833333Y-52811961D01*
X161833333Y-52811961D02*
X161785714Y-52716723D01*
X161785714Y-52716723D02*
X161738095Y-52526247D01*
X161738095Y-52526247D02*
X161738095Y-52383390D01*
X161738095Y-52383390D02*
X161785714Y-52192914D01*
X161785714Y-52192914D02*
X161833333Y-52097676D01*
X161833333Y-52097676D02*
X161928571Y-52002438D01*
X161928571Y-52002438D02*
X162071428Y-51954819D01*
X162071428Y-51954819D02*
X162166666Y-51954819D01*
X162166666Y-51954819D02*
X162309523Y-52002438D01*
X162309523Y-52002438D02*
X162357142Y-52050057D01*
X163309523Y-52954819D02*
X162738095Y-52954819D01*
X163023809Y-52954819D02*
X163023809Y-51954819D01*
X163023809Y-51954819D02*
X162928571Y-52097676D01*
X162928571Y-52097676D02*
X162833333Y-52192914D01*
X162833333Y-52192914D02*
X162738095Y-52240533D01*
X163880952Y-52383390D02*
X163785714Y-52335771D01*
X163785714Y-52335771D02*
X163738095Y-52288152D01*
X163738095Y-52288152D02*
X163690476Y-52192914D01*
X163690476Y-52192914D02*
X163690476Y-52145295D01*
X163690476Y-52145295D02*
X163738095Y-52050057D01*
X163738095Y-52050057D02*
X163785714Y-52002438D01*
X163785714Y-52002438D02*
X163880952Y-51954819D01*
X163880952Y-51954819D02*
X164071428Y-51954819D01*
X164071428Y-51954819D02*
X164166666Y-52002438D01*
X164166666Y-52002438D02*
X164214285Y-52050057D01*
X164214285Y-52050057D02*
X164261904Y-52145295D01*
X164261904Y-52145295D02*
X164261904Y-52192914D01*
X164261904Y-52192914D02*
X164214285Y-52288152D01*
X164214285Y-52288152D02*
X164166666Y-52335771D01*
X164166666Y-52335771D02*
X164071428Y-52383390D01*
X164071428Y-52383390D02*
X163880952Y-52383390D01*
X163880952Y-52383390D02*
X163785714Y-52431009D01*
X163785714Y-52431009D02*
X163738095Y-52478628D01*
X163738095Y-52478628D02*
X163690476Y-52573866D01*
X163690476Y-52573866D02*
X163690476Y-52764342D01*
X163690476Y-52764342D02*
X163738095Y-52859580D01*
X163738095Y-52859580D02*
X163785714Y-52907200D01*
X163785714Y-52907200D02*
X163880952Y-52954819D01*
X163880952Y-52954819D02*
X164071428Y-52954819D01*
X164071428Y-52954819D02*
X164166666Y-52907200D01*
X164166666Y-52907200D02*
X164214285Y-52859580D01*
X164214285Y-52859580D02*
X164261904Y-52764342D01*
X164261904Y-52764342D02*
X164261904Y-52573866D01*
X164261904Y-52573866D02*
X164214285Y-52478628D01*
X164214285Y-52478628D02*
X164166666Y-52431009D01*
X164166666Y-52431009D02*
X164071428Y-52383390D01*
X203166666Y-53954819D02*
X203166666Y-54669104D01*
X203166666Y-54669104D02*
X203119047Y-54811961D01*
X203119047Y-54811961D02*
X203023809Y-54907200D01*
X203023809Y-54907200D02*
X202880952Y-54954819D01*
X202880952Y-54954819D02*
X202785714Y-54954819D01*
X204071428Y-53954819D02*
X203880952Y-53954819D01*
X203880952Y-53954819D02*
X203785714Y-54002438D01*
X203785714Y-54002438D02*
X203738095Y-54050057D01*
X203738095Y-54050057D02*
X203642857Y-54192914D01*
X203642857Y-54192914D02*
X203595238Y-54383390D01*
X203595238Y-54383390D02*
X203595238Y-54764342D01*
X203595238Y-54764342D02*
X203642857Y-54859580D01*
X203642857Y-54859580D02*
X203690476Y-54907200D01*
X203690476Y-54907200D02*
X203785714Y-54954819D01*
X203785714Y-54954819D02*
X203976190Y-54954819D01*
X203976190Y-54954819D02*
X204071428Y-54907200D01*
X204071428Y-54907200D02*
X204119047Y-54859580D01*
X204119047Y-54859580D02*
X204166666Y-54764342D01*
X204166666Y-54764342D02*
X204166666Y-54526247D01*
X204166666Y-54526247D02*
X204119047Y-54431009D01*
X204119047Y-54431009D02*
X204071428Y-54383390D01*
X204071428Y-54383390D02*
X203976190Y-54335771D01*
X203976190Y-54335771D02*
X203785714Y-54335771D01*
X203785714Y-54335771D02*
X203690476Y-54383390D01*
X203690476Y-54383390D02*
X203642857Y-54431009D01*
X203642857Y-54431009D02*
X203595238Y-54526247D01*
X206666666Y-105954819D02*
X206666666Y-106669104D01*
X206666666Y-106669104D02*
X206619047Y-106811961D01*
X206619047Y-106811961D02*
X206523809Y-106907200D01*
X206523809Y-106907200D02*
X206380952Y-106954819D01*
X206380952Y-106954819D02*
X206285714Y-106954819D01*
X207095238Y-106050057D02*
X207142857Y-106002438D01*
X207142857Y-106002438D02*
X207238095Y-105954819D01*
X207238095Y-105954819D02*
X207476190Y-105954819D01*
X207476190Y-105954819D02*
X207571428Y-106002438D01*
X207571428Y-106002438D02*
X207619047Y-106050057D01*
X207619047Y-106050057D02*
X207666666Y-106145295D01*
X207666666Y-106145295D02*
X207666666Y-106240533D01*
X207666666Y-106240533D02*
X207619047Y-106383390D01*
X207619047Y-106383390D02*
X207047619Y-106954819D01*
X207047619Y-106954819D02*
X207666666Y-106954819D01*
X186859580Y-86666666D02*
X186907200Y-86714285D01*
X186907200Y-86714285D02*
X186954819Y-86857142D01*
X186954819Y-86857142D02*
X186954819Y-86952380D01*
X186954819Y-86952380D02*
X186907200Y-87095237D01*
X186907200Y-87095237D02*
X186811961Y-87190475D01*
X186811961Y-87190475D02*
X186716723Y-87238094D01*
X186716723Y-87238094D02*
X186526247Y-87285713D01*
X186526247Y-87285713D02*
X186383390Y-87285713D01*
X186383390Y-87285713D02*
X186192914Y-87238094D01*
X186192914Y-87238094D02*
X186097676Y-87190475D01*
X186097676Y-87190475D02*
X186002438Y-87095237D01*
X186002438Y-87095237D02*
X185954819Y-86952380D01*
X185954819Y-86952380D02*
X185954819Y-86857142D01*
X185954819Y-86857142D02*
X186002438Y-86714285D01*
X186002438Y-86714285D02*
X186050057Y-86666666D01*
X186050057Y-86285713D02*
X186002438Y-86238094D01*
X186002438Y-86238094D02*
X185954819Y-86142856D01*
X185954819Y-86142856D02*
X185954819Y-85904761D01*
X185954819Y-85904761D02*
X186002438Y-85809523D01*
X186002438Y-85809523D02*
X186050057Y-85761904D01*
X186050057Y-85761904D02*
X186145295Y-85714285D01*
X186145295Y-85714285D02*
X186240533Y-85714285D01*
X186240533Y-85714285D02*
X186383390Y-85761904D01*
X186383390Y-85761904D02*
X186954819Y-86333332D01*
X186954819Y-86333332D02*
X186954819Y-85714285D01*
X216357142Y-62954819D02*
X216023809Y-62478628D01*
X215785714Y-62954819D02*
X215785714Y-61954819D01*
X215785714Y-61954819D02*
X216166666Y-61954819D01*
X216166666Y-61954819D02*
X216261904Y-62002438D01*
X216261904Y-62002438D02*
X216309523Y-62050057D01*
X216309523Y-62050057D02*
X216357142Y-62145295D01*
X216357142Y-62145295D02*
X216357142Y-62288152D01*
X216357142Y-62288152D02*
X216309523Y-62383390D01*
X216309523Y-62383390D02*
X216261904Y-62431009D01*
X216261904Y-62431009D02*
X216166666Y-62478628D01*
X216166666Y-62478628D02*
X215785714Y-62478628D01*
X217309523Y-62954819D02*
X216738095Y-62954819D01*
X217023809Y-62954819D02*
X217023809Y-61954819D01*
X217023809Y-61954819D02*
X216928571Y-62097676D01*
X216928571Y-62097676D02*
X216833333Y-62192914D01*
X216833333Y-62192914D02*
X216738095Y-62240533D01*
X218261904Y-62954819D02*
X217690476Y-62954819D01*
X217976190Y-62954819D02*
X217976190Y-61954819D01*
X217976190Y-61954819D02*
X217880952Y-62097676D01*
X217880952Y-62097676D02*
X217785714Y-62192914D01*
X217785714Y-62192914D02*
X217690476Y-62240533D01*
X163833333Y-68454819D02*
X163500000Y-67978628D01*
X163261905Y-68454819D02*
X163261905Y-67454819D01*
X163261905Y-67454819D02*
X163642857Y-67454819D01*
X163642857Y-67454819D02*
X163738095Y-67502438D01*
X163738095Y-67502438D02*
X163785714Y-67550057D01*
X163785714Y-67550057D02*
X163833333Y-67645295D01*
X163833333Y-67645295D02*
X163833333Y-67788152D01*
X163833333Y-67788152D02*
X163785714Y-67883390D01*
X163785714Y-67883390D02*
X163738095Y-67931009D01*
X163738095Y-67931009D02*
X163642857Y-67978628D01*
X163642857Y-67978628D02*
X163261905Y-67978628D01*
X164690476Y-67454819D02*
X164500000Y-67454819D01*
X164500000Y-67454819D02*
X164404762Y-67502438D01*
X164404762Y-67502438D02*
X164357143Y-67550057D01*
X164357143Y-67550057D02*
X164261905Y-67692914D01*
X164261905Y-67692914D02*
X164214286Y-67883390D01*
X164214286Y-67883390D02*
X164214286Y-68264342D01*
X164214286Y-68264342D02*
X164261905Y-68359580D01*
X164261905Y-68359580D02*
X164309524Y-68407200D01*
X164309524Y-68407200D02*
X164404762Y-68454819D01*
X164404762Y-68454819D02*
X164595238Y-68454819D01*
X164595238Y-68454819D02*
X164690476Y-68407200D01*
X164690476Y-68407200D02*
X164738095Y-68359580D01*
X164738095Y-68359580D02*
X164785714Y-68264342D01*
X164785714Y-68264342D02*
X164785714Y-68026247D01*
X164785714Y-68026247D02*
X164738095Y-67931009D01*
X164738095Y-67931009D02*
X164690476Y-67883390D01*
X164690476Y-67883390D02*
X164595238Y-67835771D01*
X164595238Y-67835771D02*
X164404762Y-67835771D01*
X164404762Y-67835771D02*
X164309524Y-67883390D01*
X164309524Y-67883390D02*
X164261905Y-67931009D01*
X164261905Y-67931009D02*
X164214286Y-68026247D01*
X218666666Y-76824819D02*
X218666666Y-77539104D01*
X218666666Y-77539104D02*
X218619047Y-77681961D01*
X218619047Y-77681961D02*
X218523809Y-77777200D01*
X218523809Y-77777200D02*
X218380952Y-77824819D01*
X218380952Y-77824819D02*
X218285714Y-77824819D01*
X219047619Y-76824819D02*
X219714285Y-76824819D01*
X219714285Y-76824819D02*
X219285714Y-77824819D01*
X206454819Y-90991666D02*
X205978628Y-91324999D01*
X206454819Y-91563094D02*
X205454819Y-91563094D01*
X205454819Y-91563094D02*
X205454819Y-91182142D01*
X205454819Y-91182142D02*
X205502438Y-91086904D01*
X205502438Y-91086904D02*
X205550057Y-91039285D01*
X205550057Y-91039285D02*
X205645295Y-90991666D01*
X205645295Y-90991666D02*
X205788152Y-90991666D01*
X205788152Y-90991666D02*
X205883390Y-91039285D01*
X205883390Y-91039285D02*
X205931009Y-91086904D01*
X205931009Y-91086904D02*
X205978628Y-91182142D01*
X205978628Y-91182142D02*
X205978628Y-91563094D01*
X205454819Y-90658332D02*
X205454819Y-90039285D01*
X205454819Y-90039285D02*
X205835771Y-90372618D01*
X205835771Y-90372618D02*
X205835771Y-90229761D01*
X205835771Y-90229761D02*
X205883390Y-90134523D01*
X205883390Y-90134523D02*
X205931009Y-90086904D01*
X205931009Y-90086904D02*
X206026247Y-90039285D01*
X206026247Y-90039285D02*
X206264342Y-90039285D01*
X206264342Y-90039285D02*
X206359580Y-90086904D01*
X206359580Y-90086904D02*
X206407200Y-90134523D01*
X206407200Y-90134523D02*
X206454819Y-90229761D01*
X206454819Y-90229761D02*
X206454819Y-90515475D01*
X206454819Y-90515475D02*
X206407200Y-90610713D01*
X206407200Y-90610713D02*
X206359580Y-90658332D01*
X208833333Y-57204819D02*
X208500000Y-56728628D01*
X208261905Y-57204819D02*
X208261905Y-56204819D01*
X208261905Y-56204819D02*
X208642857Y-56204819D01*
X208642857Y-56204819D02*
X208738095Y-56252438D01*
X208738095Y-56252438D02*
X208785714Y-56300057D01*
X208785714Y-56300057D02*
X208833333Y-56395295D01*
X208833333Y-56395295D02*
X208833333Y-56538152D01*
X208833333Y-56538152D02*
X208785714Y-56633390D01*
X208785714Y-56633390D02*
X208738095Y-56681009D01*
X208738095Y-56681009D02*
X208642857Y-56728628D01*
X208642857Y-56728628D02*
X208261905Y-56728628D01*
X209166667Y-56204819D02*
X209833333Y-56204819D01*
X209833333Y-56204819D02*
X209404762Y-57204819D01*
X178377142Y-87109580D02*
X178329523Y-87157200D01*
X178329523Y-87157200D02*
X178186666Y-87204819D01*
X178186666Y-87204819D02*
X178091428Y-87204819D01*
X178091428Y-87204819D02*
X177948571Y-87157200D01*
X177948571Y-87157200D02*
X177853333Y-87061961D01*
X177853333Y-87061961D02*
X177805714Y-86966723D01*
X177805714Y-86966723D02*
X177758095Y-86776247D01*
X177758095Y-86776247D02*
X177758095Y-86633390D01*
X177758095Y-86633390D02*
X177805714Y-86442914D01*
X177805714Y-86442914D02*
X177853333Y-86347676D01*
X177853333Y-86347676D02*
X177948571Y-86252438D01*
X177948571Y-86252438D02*
X178091428Y-86204819D01*
X178091428Y-86204819D02*
X178186666Y-86204819D01*
X178186666Y-86204819D02*
X178329523Y-86252438D01*
X178329523Y-86252438D02*
X178377142Y-86300057D01*
X179329523Y-87204819D02*
X178758095Y-87204819D01*
X179043809Y-87204819D02*
X179043809Y-86204819D01*
X179043809Y-86204819D02*
X178948571Y-86347676D01*
X178948571Y-86347676D02*
X178853333Y-86442914D01*
X178853333Y-86442914D02*
X178758095Y-86490533D01*
X179662857Y-86204819D02*
X180281904Y-86204819D01*
X180281904Y-86204819D02*
X179948571Y-86585771D01*
X179948571Y-86585771D02*
X180091428Y-86585771D01*
X180091428Y-86585771D02*
X180186666Y-86633390D01*
X180186666Y-86633390D02*
X180234285Y-86681009D01*
X180234285Y-86681009D02*
X180281904Y-86776247D01*
X180281904Y-86776247D02*
X180281904Y-87014342D01*
X180281904Y-87014342D02*
X180234285Y-87109580D01*
X180234285Y-87109580D02*
X180186666Y-87157200D01*
X180186666Y-87157200D02*
X180091428Y-87204819D01*
X180091428Y-87204819D02*
X179805714Y-87204819D01*
X179805714Y-87204819D02*
X179710476Y-87157200D01*
X179710476Y-87157200D02*
X179662857Y-87109580D01*
X225916666Y-85704819D02*
X225916666Y-86419104D01*
X225916666Y-86419104D02*
X225869047Y-86561961D01*
X225869047Y-86561961D02*
X225773809Y-86657200D01*
X225773809Y-86657200D02*
X225630952Y-86704819D01*
X225630952Y-86704819D02*
X225535714Y-86704819D01*
X226297619Y-85704819D02*
X226916666Y-85704819D01*
X226916666Y-85704819D02*
X226583333Y-86085771D01*
X226583333Y-86085771D02*
X226726190Y-86085771D01*
X226726190Y-86085771D02*
X226821428Y-86133390D01*
X226821428Y-86133390D02*
X226869047Y-86181009D01*
X226869047Y-86181009D02*
X226916666Y-86276247D01*
X226916666Y-86276247D02*
X226916666Y-86514342D01*
X226916666Y-86514342D02*
X226869047Y-86609580D01*
X226869047Y-86609580D02*
X226821428Y-86657200D01*
X226821428Y-86657200D02*
X226726190Y-86704819D01*
X226726190Y-86704819D02*
X226440476Y-86704819D01*
X226440476Y-86704819D02*
X226345238Y-86657200D01*
X226345238Y-86657200D02*
X226297619Y-86609580D01*
X202359580Y-69666666D02*
X202407200Y-69714285D01*
X202407200Y-69714285D02*
X202454819Y-69857142D01*
X202454819Y-69857142D02*
X202454819Y-69952380D01*
X202454819Y-69952380D02*
X202407200Y-70095237D01*
X202407200Y-70095237D02*
X202311961Y-70190475D01*
X202311961Y-70190475D02*
X202216723Y-70238094D01*
X202216723Y-70238094D02*
X202026247Y-70285713D01*
X202026247Y-70285713D02*
X201883390Y-70285713D01*
X201883390Y-70285713D02*
X201692914Y-70238094D01*
X201692914Y-70238094D02*
X201597676Y-70190475D01*
X201597676Y-70190475D02*
X201502438Y-70095237D01*
X201502438Y-70095237D02*
X201454819Y-69952380D01*
X201454819Y-69952380D02*
X201454819Y-69857142D01*
X201454819Y-69857142D02*
X201502438Y-69714285D01*
X201502438Y-69714285D02*
X201550057Y-69666666D01*
X201883390Y-69095237D02*
X201835771Y-69190475D01*
X201835771Y-69190475D02*
X201788152Y-69238094D01*
X201788152Y-69238094D02*
X201692914Y-69285713D01*
X201692914Y-69285713D02*
X201645295Y-69285713D01*
X201645295Y-69285713D02*
X201550057Y-69238094D01*
X201550057Y-69238094D02*
X201502438Y-69190475D01*
X201502438Y-69190475D02*
X201454819Y-69095237D01*
X201454819Y-69095237D02*
X201454819Y-68904761D01*
X201454819Y-68904761D02*
X201502438Y-68809523D01*
X201502438Y-68809523D02*
X201550057Y-68761904D01*
X201550057Y-68761904D02*
X201645295Y-68714285D01*
X201645295Y-68714285D02*
X201692914Y-68714285D01*
X201692914Y-68714285D02*
X201788152Y-68761904D01*
X201788152Y-68761904D02*
X201835771Y-68809523D01*
X201835771Y-68809523D02*
X201883390Y-68904761D01*
X201883390Y-68904761D02*
X201883390Y-69095237D01*
X201883390Y-69095237D02*
X201931009Y-69190475D01*
X201931009Y-69190475D02*
X201978628Y-69238094D01*
X201978628Y-69238094D02*
X202073866Y-69285713D01*
X202073866Y-69285713D02*
X202264342Y-69285713D01*
X202264342Y-69285713D02*
X202359580Y-69238094D01*
X202359580Y-69238094D02*
X202407200Y-69190475D01*
X202407200Y-69190475D02*
X202454819Y-69095237D01*
X202454819Y-69095237D02*
X202454819Y-68904761D01*
X202454819Y-68904761D02*
X202407200Y-68809523D01*
X202407200Y-68809523D02*
X202359580Y-68761904D01*
X202359580Y-68761904D02*
X202264342Y-68714285D01*
X202264342Y-68714285D02*
X202073866Y-68714285D01*
X202073866Y-68714285D02*
X201978628Y-68761904D01*
X201978628Y-68761904D02*
X201931009Y-68809523D01*
X201931009Y-68809523D02*
X201883390Y-68904761D01*
X197333333Y-96859580D02*
X197285714Y-96907200D01*
X197285714Y-96907200D02*
X197142857Y-96954819D01*
X197142857Y-96954819D02*
X197047619Y-96954819D01*
X197047619Y-96954819D02*
X196904762Y-96907200D01*
X196904762Y-96907200D02*
X196809524Y-96811961D01*
X196809524Y-96811961D02*
X196761905Y-96716723D01*
X196761905Y-96716723D02*
X196714286Y-96526247D01*
X196714286Y-96526247D02*
X196714286Y-96383390D01*
X196714286Y-96383390D02*
X196761905Y-96192914D01*
X196761905Y-96192914D02*
X196809524Y-96097676D01*
X196809524Y-96097676D02*
X196904762Y-96002438D01*
X196904762Y-96002438D02*
X197047619Y-95954819D01*
X197047619Y-95954819D02*
X197142857Y-95954819D01*
X197142857Y-95954819D02*
X197285714Y-96002438D01*
X197285714Y-96002438D02*
X197333333Y-96050057D01*
X198238095Y-95954819D02*
X197761905Y-95954819D01*
X197761905Y-95954819D02*
X197714286Y-96431009D01*
X197714286Y-96431009D02*
X197761905Y-96383390D01*
X197761905Y-96383390D02*
X197857143Y-96335771D01*
X197857143Y-96335771D02*
X198095238Y-96335771D01*
X198095238Y-96335771D02*
X198190476Y-96383390D01*
X198190476Y-96383390D02*
X198238095Y-96431009D01*
X198238095Y-96431009D02*
X198285714Y-96526247D01*
X198285714Y-96526247D02*
X198285714Y-96764342D01*
X198285714Y-96764342D02*
X198238095Y-96859580D01*
X198238095Y-96859580D02*
X198190476Y-96907200D01*
X198190476Y-96907200D02*
X198095238Y-96954819D01*
X198095238Y-96954819D02*
X197857143Y-96954819D01*
X197857143Y-96954819D02*
X197761905Y-96907200D01*
X197761905Y-96907200D02*
X197714286Y-96859580D01*
X163833333Y-69964819D02*
X163500000Y-69488628D01*
X163261905Y-69964819D02*
X163261905Y-68964819D01*
X163261905Y-68964819D02*
X163642857Y-68964819D01*
X163642857Y-68964819D02*
X163738095Y-69012438D01*
X163738095Y-69012438D02*
X163785714Y-69060057D01*
X163785714Y-69060057D02*
X163833333Y-69155295D01*
X163833333Y-69155295D02*
X163833333Y-69298152D01*
X163833333Y-69298152D02*
X163785714Y-69393390D01*
X163785714Y-69393390D02*
X163738095Y-69441009D01*
X163738095Y-69441009D02*
X163642857Y-69488628D01*
X163642857Y-69488628D02*
X163261905Y-69488628D01*
X164738095Y-68964819D02*
X164261905Y-68964819D01*
X164261905Y-68964819D02*
X164214286Y-69441009D01*
X164214286Y-69441009D02*
X164261905Y-69393390D01*
X164261905Y-69393390D02*
X164357143Y-69345771D01*
X164357143Y-69345771D02*
X164595238Y-69345771D01*
X164595238Y-69345771D02*
X164690476Y-69393390D01*
X164690476Y-69393390D02*
X164738095Y-69441009D01*
X164738095Y-69441009D02*
X164785714Y-69536247D01*
X164785714Y-69536247D02*
X164785714Y-69774342D01*
X164785714Y-69774342D02*
X164738095Y-69869580D01*
X164738095Y-69869580D02*
X164690476Y-69917200D01*
X164690476Y-69917200D02*
X164595238Y-69964819D01*
X164595238Y-69964819D02*
X164357143Y-69964819D01*
X164357143Y-69964819D02*
X164261905Y-69917200D01*
X164261905Y-69917200D02*
X164214286Y-69869580D01*
X167238095Y-81954819D02*
X167238095Y-82764342D01*
X167238095Y-82764342D02*
X167285714Y-82859580D01*
X167285714Y-82859580D02*
X167333333Y-82907200D01*
X167333333Y-82907200D02*
X167428571Y-82954819D01*
X167428571Y-82954819D02*
X167619047Y-82954819D01*
X167619047Y-82954819D02*
X167714285Y-82907200D01*
X167714285Y-82907200D02*
X167761904Y-82859580D01*
X167761904Y-82859580D02*
X167809523Y-82764342D01*
X167809523Y-82764342D02*
X167809523Y-81954819D01*
X168761904Y-81954819D02*
X168285714Y-81954819D01*
X168285714Y-81954819D02*
X168238095Y-82431009D01*
X168238095Y-82431009D02*
X168285714Y-82383390D01*
X168285714Y-82383390D02*
X168380952Y-82335771D01*
X168380952Y-82335771D02*
X168619047Y-82335771D01*
X168619047Y-82335771D02*
X168714285Y-82383390D01*
X168714285Y-82383390D02*
X168761904Y-82431009D01*
X168761904Y-82431009D02*
X168809523Y-82526247D01*
X168809523Y-82526247D02*
X168809523Y-82764342D01*
X168809523Y-82764342D02*
X168761904Y-82859580D01*
X168761904Y-82859580D02*
X168714285Y-82907200D01*
X168714285Y-82907200D02*
X168619047Y-82954819D01*
X168619047Y-82954819D02*
X168380952Y-82954819D01*
X168380952Y-82954819D02*
X168285714Y-82907200D01*
X168285714Y-82907200D02*
X168238095Y-82859580D01*
X179454819Y-76392857D02*
X178978628Y-76726190D01*
X179454819Y-76964285D02*
X178454819Y-76964285D01*
X178454819Y-76964285D02*
X178454819Y-76583333D01*
X178454819Y-76583333D02*
X178502438Y-76488095D01*
X178502438Y-76488095D02*
X178550057Y-76440476D01*
X178550057Y-76440476D02*
X178645295Y-76392857D01*
X178645295Y-76392857D02*
X178788152Y-76392857D01*
X178788152Y-76392857D02*
X178883390Y-76440476D01*
X178883390Y-76440476D02*
X178931009Y-76488095D01*
X178931009Y-76488095D02*
X178978628Y-76583333D01*
X178978628Y-76583333D02*
X178978628Y-76964285D01*
X179454819Y-75440476D02*
X179454819Y-76011904D01*
X179454819Y-75726190D02*
X178454819Y-75726190D01*
X178454819Y-75726190D02*
X178597676Y-75821428D01*
X178597676Y-75821428D02*
X178692914Y-75916666D01*
X178692914Y-75916666D02*
X178740533Y-76011904D01*
X178550057Y-75059523D02*
X178502438Y-75011904D01*
X178502438Y-75011904D02*
X178454819Y-74916666D01*
X178454819Y-74916666D02*
X178454819Y-74678571D01*
X178454819Y-74678571D02*
X178502438Y-74583333D01*
X178502438Y-74583333D02*
X178550057Y-74535714D01*
X178550057Y-74535714D02*
X178645295Y-74488095D01*
X178645295Y-74488095D02*
X178740533Y-74488095D01*
X178740533Y-74488095D02*
X178883390Y-74535714D01*
X178883390Y-74535714D02*
X179454819Y-75107142D01*
X179454819Y-75107142D02*
X179454819Y-74488095D01*
X191859580Y-86541666D02*
X191907200Y-86589285D01*
X191907200Y-86589285D02*
X191954819Y-86732142D01*
X191954819Y-86732142D02*
X191954819Y-86827380D01*
X191954819Y-86827380D02*
X191907200Y-86970237D01*
X191907200Y-86970237D02*
X191811961Y-87065475D01*
X191811961Y-87065475D02*
X191716723Y-87113094D01*
X191716723Y-87113094D02*
X191526247Y-87160713D01*
X191526247Y-87160713D02*
X191383390Y-87160713D01*
X191383390Y-87160713D02*
X191192914Y-87113094D01*
X191192914Y-87113094D02*
X191097676Y-87065475D01*
X191097676Y-87065475D02*
X191002438Y-86970237D01*
X191002438Y-86970237D02*
X190954819Y-86827380D01*
X190954819Y-86827380D02*
X190954819Y-86732142D01*
X190954819Y-86732142D02*
X191002438Y-86589285D01*
X191002438Y-86589285D02*
X191050057Y-86541666D01*
X191288152Y-85684523D02*
X191954819Y-85684523D01*
X190907200Y-85922618D02*
X191621485Y-86160713D01*
X191621485Y-86160713D02*
X191621485Y-85541666D01*
X162607142Y-86109580D02*
X162559523Y-86157200D01*
X162559523Y-86157200D02*
X162416666Y-86204819D01*
X162416666Y-86204819D02*
X162321428Y-86204819D01*
X162321428Y-86204819D02*
X162178571Y-86157200D01*
X162178571Y-86157200D02*
X162083333Y-86061961D01*
X162083333Y-86061961D02*
X162035714Y-85966723D01*
X162035714Y-85966723D02*
X161988095Y-85776247D01*
X161988095Y-85776247D02*
X161988095Y-85633390D01*
X161988095Y-85633390D02*
X162035714Y-85442914D01*
X162035714Y-85442914D02*
X162083333Y-85347676D01*
X162083333Y-85347676D02*
X162178571Y-85252438D01*
X162178571Y-85252438D02*
X162321428Y-85204819D01*
X162321428Y-85204819D02*
X162416666Y-85204819D01*
X162416666Y-85204819D02*
X162559523Y-85252438D01*
X162559523Y-85252438D02*
X162607142Y-85300057D01*
X163559523Y-86204819D02*
X162988095Y-86204819D01*
X163273809Y-86204819D02*
X163273809Y-85204819D01*
X163273809Y-85204819D02*
X163178571Y-85347676D01*
X163178571Y-85347676D02*
X163083333Y-85442914D01*
X163083333Y-85442914D02*
X162988095Y-85490533D01*
X164416666Y-85538152D02*
X164416666Y-86204819D01*
X164178571Y-85157200D02*
X163940476Y-85871485D01*
X163940476Y-85871485D02*
X164559523Y-85871485D01*
X163359580Y-82642857D02*
X163407200Y-82690476D01*
X163407200Y-82690476D02*
X163454819Y-82833333D01*
X163454819Y-82833333D02*
X163454819Y-82928571D01*
X163454819Y-82928571D02*
X163407200Y-83071428D01*
X163407200Y-83071428D02*
X163311961Y-83166666D01*
X163311961Y-83166666D02*
X163216723Y-83214285D01*
X163216723Y-83214285D02*
X163026247Y-83261904D01*
X163026247Y-83261904D02*
X162883390Y-83261904D01*
X162883390Y-83261904D02*
X162692914Y-83214285D01*
X162692914Y-83214285D02*
X162597676Y-83166666D01*
X162597676Y-83166666D02*
X162502438Y-83071428D01*
X162502438Y-83071428D02*
X162454819Y-82928571D01*
X162454819Y-82928571D02*
X162454819Y-82833333D01*
X162454819Y-82833333D02*
X162502438Y-82690476D01*
X162502438Y-82690476D02*
X162550057Y-82642857D01*
X163454819Y-81690476D02*
X163454819Y-82261904D01*
X163454819Y-81976190D02*
X162454819Y-81976190D01*
X162454819Y-81976190D02*
X162597676Y-82071428D01*
X162597676Y-82071428D02*
X162692914Y-82166666D01*
X162692914Y-82166666D02*
X162740533Y-82261904D01*
X162454819Y-80785714D02*
X162454819Y-81261904D01*
X162454819Y-81261904D02*
X162931009Y-81309523D01*
X162931009Y-81309523D02*
X162883390Y-81261904D01*
X162883390Y-81261904D02*
X162835771Y-81166666D01*
X162835771Y-81166666D02*
X162835771Y-80928571D01*
X162835771Y-80928571D02*
X162883390Y-80833333D01*
X162883390Y-80833333D02*
X162931009Y-80785714D01*
X162931009Y-80785714D02*
X163026247Y-80738095D01*
X163026247Y-80738095D02*
X163264342Y-80738095D01*
X163264342Y-80738095D02*
X163359580Y-80785714D01*
X163359580Y-80785714D02*
X163407200Y-80833333D01*
X163407200Y-80833333D02*
X163454819Y-80928571D01*
X163454819Y-80928571D02*
X163454819Y-81166666D01*
X163454819Y-81166666D02*
X163407200Y-81261904D01*
X163407200Y-81261904D02*
X163359580Y-81309523D01*
X192859580Y-65142857D02*
X192907200Y-65190476D01*
X192907200Y-65190476D02*
X192954819Y-65333333D01*
X192954819Y-65333333D02*
X192954819Y-65428571D01*
X192954819Y-65428571D02*
X192907200Y-65571428D01*
X192907200Y-65571428D02*
X192811961Y-65666666D01*
X192811961Y-65666666D02*
X192716723Y-65714285D01*
X192716723Y-65714285D02*
X192526247Y-65761904D01*
X192526247Y-65761904D02*
X192383390Y-65761904D01*
X192383390Y-65761904D02*
X192192914Y-65714285D01*
X192192914Y-65714285D02*
X192097676Y-65666666D01*
X192097676Y-65666666D02*
X192002438Y-65571428D01*
X192002438Y-65571428D02*
X191954819Y-65428571D01*
X191954819Y-65428571D02*
X191954819Y-65333333D01*
X191954819Y-65333333D02*
X192002438Y-65190476D01*
X192002438Y-65190476D02*
X192050057Y-65142857D01*
X192954819Y-64190476D02*
X192954819Y-64761904D01*
X192954819Y-64476190D02*
X191954819Y-64476190D01*
X191954819Y-64476190D02*
X192097676Y-64571428D01*
X192097676Y-64571428D02*
X192192914Y-64666666D01*
X192192914Y-64666666D02*
X192240533Y-64761904D01*
X192050057Y-63809523D02*
X192002438Y-63761904D01*
X192002438Y-63761904D02*
X191954819Y-63666666D01*
X191954819Y-63666666D02*
X191954819Y-63428571D01*
X191954819Y-63428571D02*
X192002438Y-63333333D01*
X192002438Y-63333333D02*
X192050057Y-63285714D01*
X192050057Y-63285714D02*
X192145295Y-63238095D01*
X192145295Y-63238095D02*
X192240533Y-63238095D01*
X192240533Y-63238095D02*
X192383390Y-63285714D01*
X192383390Y-63285714D02*
X192954819Y-63857142D01*
X192954819Y-63857142D02*
X192954819Y-63238095D01*
X197761905Y-78454819D02*
X197761905Y-77454819D01*
X197761905Y-77454819D02*
X198000000Y-77454819D01*
X198000000Y-77454819D02*
X198142857Y-77502438D01*
X198142857Y-77502438D02*
X198238095Y-77597676D01*
X198238095Y-77597676D02*
X198285714Y-77692914D01*
X198285714Y-77692914D02*
X198333333Y-77883390D01*
X198333333Y-77883390D02*
X198333333Y-78026247D01*
X198333333Y-78026247D02*
X198285714Y-78216723D01*
X198285714Y-78216723D02*
X198238095Y-78311961D01*
X198238095Y-78311961D02*
X198142857Y-78407200D01*
X198142857Y-78407200D02*
X198000000Y-78454819D01*
X198000000Y-78454819D02*
X197761905Y-78454819D01*
X199285714Y-78454819D02*
X198714286Y-78454819D01*
X199000000Y-78454819D02*
X199000000Y-77454819D01*
X199000000Y-77454819D02*
X198904762Y-77597676D01*
X198904762Y-77597676D02*
X198809524Y-77692914D01*
X198809524Y-77692914D02*
X198714286Y-77740533D01*
X192738095Y-93454819D02*
X192738095Y-94264342D01*
X192738095Y-94264342D02*
X192785714Y-94359580D01*
X192785714Y-94359580D02*
X192833333Y-94407200D01*
X192833333Y-94407200D02*
X192928571Y-94454819D01*
X192928571Y-94454819D02*
X193119047Y-94454819D01*
X193119047Y-94454819D02*
X193214285Y-94407200D01*
X193214285Y-94407200D02*
X193261904Y-94359580D01*
X193261904Y-94359580D02*
X193309523Y-94264342D01*
X193309523Y-94264342D02*
X193309523Y-93454819D01*
X193690476Y-93454819D02*
X194309523Y-93454819D01*
X194309523Y-93454819D02*
X193976190Y-93835771D01*
X193976190Y-93835771D02*
X194119047Y-93835771D01*
X194119047Y-93835771D02*
X194214285Y-93883390D01*
X194214285Y-93883390D02*
X194261904Y-93931009D01*
X194261904Y-93931009D02*
X194309523Y-94026247D01*
X194309523Y-94026247D02*
X194309523Y-94264342D01*
X194309523Y-94264342D02*
X194261904Y-94359580D01*
X194261904Y-94359580D02*
X194214285Y-94407200D01*
X194214285Y-94407200D02*
X194119047Y-94454819D01*
X194119047Y-94454819D02*
X193833333Y-94454819D01*
X193833333Y-94454819D02*
X193738095Y-94407200D01*
X193738095Y-94407200D02*
X193690476Y-94359580D01*
X187988095Y-72454819D02*
X187988095Y-73264342D01*
X187988095Y-73264342D02*
X188035714Y-73359580D01*
X188035714Y-73359580D02*
X188083333Y-73407200D01*
X188083333Y-73407200D02*
X188178571Y-73454819D01*
X188178571Y-73454819D02*
X188369047Y-73454819D01*
X188369047Y-73454819D02*
X188464285Y-73407200D01*
X188464285Y-73407200D02*
X188511904Y-73359580D01*
X188511904Y-73359580D02*
X188559523Y-73264342D01*
X188559523Y-73264342D02*
X188559523Y-72454819D01*
X188940476Y-72454819D02*
X189607142Y-72454819D01*
X189607142Y-72454819D02*
X189178571Y-73454819D01*
X162357142Y-57359580D02*
X162309523Y-57407200D01*
X162309523Y-57407200D02*
X162166666Y-57454819D01*
X162166666Y-57454819D02*
X162071428Y-57454819D01*
X162071428Y-57454819D02*
X161928571Y-57407200D01*
X161928571Y-57407200D02*
X161833333Y-57311961D01*
X161833333Y-57311961D02*
X161785714Y-57216723D01*
X161785714Y-57216723D02*
X161738095Y-57026247D01*
X161738095Y-57026247D02*
X161738095Y-56883390D01*
X161738095Y-56883390D02*
X161785714Y-56692914D01*
X161785714Y-56692914D02*
X161833333Y-56597676D01*
X161833333Y-56597676D02*
X161928571Y-56502438D01*
X161928571Y-56502438D02*
X162071428Y-56454819D01*
X162071428Y-56454819D02*
X162166666Y-56454819D01*
X162166666Y-56454819D02*
X162309523Y-56502438D01*
X162309523Y-56502438D02*
X162357142Y-56550057D01*
X163309523Y-57454819D02*
X162738095Y-57454819D01*
X163023809Y-57454819D02*
X163023809Y-56454819D01*
X163023809Y-56454819D02*
X162928571Y-56597676D01*
X162928571Y-56597676D02*
X162833333Y-56692914D01*
X162833333Y-56692914D02*
X162738095Y-56740533D01*
X164166666Y-56454819D02*
X163976190Y-56454819D01*
X163976190Y-56454819D02*
X163880952Y-56502438D01*
X163880952Y-56502438D02*
X163833333Y-56550057D01*
X163833333Y-56550057D02*
X163738095Y-56692914D01*
X163738095Y-56692914D02*
X163690476Y-56883390D01*
X163690476Y-56883390D02*
X163690476Y-57264342D01*
X163690476Y-57264342D02*
X163738095Y-57359580D01*
X163738095Y-57359580D02*
X163785714Y-57407200D01*
X163785714Y-57407200D02*
X163880952Y-57454819D01*
X163880952Y-57454819D02*
X164071428Y-57454819D01*
X164071428Y-57454819D02*
X164166666Y-57407200D01*
X164166666Y-57407200D02*
X164214285Y-57359580D01*
X164214285Y-57359580D02*
X164261904Y-57264342D01*
X164261904Y-57264342D02*
X164261904Y-57026247D01*
X164261904Y-57026247D02*
X164214285Y-56931009D01*
X164214285Y-56931009D02*
X164166666Y-56883390D01*
X164166666Y-56883390D02*
X164071428Y-56835771D01*
X164071428Y-56835771D02*
X163880952Y-56835771D01*
X163880952Y-56835771D02*
X163785714Y-56883390D01*
X163785714Y-56883390D02*
X163738095Y-56931009D01*
X163738095Y-56931009D02*
X163690476Y-57026247D01*
X161600595Y-59079819D02*
X161600595Y-59889342D01*
X161600595Y-59889342D02*
X161648214Y-59984580D01*
X161648214Y-59984580D02*
X161695833Y-60032200D01*
X161695833Y-60032200D02*
X161791071Y-60079819D01*
X161791071Y-60079819D02*
X161981547Y-60079819D01*
X161981547Y-60079819D02*
X162076785Y-60032200D01*
X162076785Y-60032200D02*
X162124404Y-59984580D01*
X162124404Y-59984580D02*
X162172023Y-59889342D01*
X162172023Y-59889342D02*
X162172023Y-59079819D01*
X162600595Y-59175057D02*
X162648214Y-59127438D01*
X162648214Y-59127438D02*
X162743452Y-59079819D01*
X162743452Y-59079819D02*
X162981547Y-59079819D01*
X162981547Y-59079819D02*
X163076785Y-59127438D01*
X163076785Y-59127438D02*
X163124404Y-59175057D01*
X163124404Y-59175057D02*
X163172023Y-59270295D01*
X163172023Y-59270295D02*
X163172023Y-59365533D01*
X163172023Y-59365533D02*
X163124404Y-59508390D01*
X163124404Y-59508390D02*
X162552976Y-60079819D01*
X162552976Y-60079819D02*
X163172023Y-60079819D01*
X189359580Y-86666666D02*
X189407200Y-86714285D01*
X189407200Y-86714285D02*
X189454819Y-86857142D01*
X189454819Y-86857142D02*
X189454819Y-86952380D01*
X189454819Y-86952380D02*
X189407200Y-87095237D01*
X189407200Y-87095237D02*
X189311961Y-87190475D01*
X189311961Y-87190475D02*
X189216723Y-87238094D01*
X189216723Y-87238094D02*
X189026247Y-87285713D01*
X189026247Y-87285713D02*
X188883390Y-87285713D01*
X188883390Y-87285713D02*
X188692914Y-87238094D01*
X188692914Y-87238094D02*
X188597676Y-87190475D01*
X188597676Y-87190475D02*
X188502438Y-87095237D01*
X188502438Y-87095237D02*
X188454819Y-86952380D01*
X188454819Y-86952380D02*
X188454819Y-86857142D01*
X188454819Y-86857142D02*
X188502438Y-86714285D01*
X188502438Y-86714285D02*
X188550057Y-86666666D01*
X188454819Y-86333332D02*
X188454819Y-85714285D01*
X188454819Y-85714285D02*
X188835771Y-86047618D01*
X188835771Y-86047618D02*
X188835771Y-85904761D01*
X188835771Y-85904761D02*
X188883390Y-85809523D01*
X188883390Y-85809523D02*
X188931009Y-85761904D01*
X188931009Y-85761904D02*
X189026247Y-85714285D01*
X189026247Y-85714285D02*
X189264342Y-85714285D01*
X189264342Y-85714285D02*
X189359580Y-85761904D01*
X189359580Y-85761904D02*
X189407200Y-85809523D01*
X189407200Y-85809523D02*
X189454819Y-85904761D01*
X189454819Y-85904761D02*
X189454819Y-86190475D01*
X189454819Y-86190475D02*
X189407200Y-86285713D01*
X189407200Y-86285713D02*
X189359580Y-86333332D01*
X189333333Y-92954819D02*
X189000000Y-92478628D01*
X188761905Y-92954819D02*
X188761905Y-91954819D01*
X188761905Y-91954819D02*
X189142857Y-91954819D01*
X189142857Y-91954819D02*
X189238095Y-92002438D01*
X189238095Y-92002438D02*
X189285714Y-92050057D01*
X189285714Y-92050057D02*
X189333333Y-92145295D01*
X189333333Y-92145295D02*
X189333333Y-92288152D01*
X189333333Y-92288152D02*
X189285714Y-92383390D01*
X189285714Y-92383390D02*
X189238095Y-92431009D01*
X189238095Y-92431009D02*
X189142857Y-92478628D01*
X189142857Y-92478628D02*
X188761905Y-92478628D01*
X190285714Y-92954819D02*
X189714286Y-92954819D01*
X190000000Y-92954819D02*
X190000000Y-91954819D01*
X190000000Y-91954819D02*
X189904762Y-92097676D01*
X189904762Y-92097676D02*
X189809524Y-92192914D01*
X189809524Y-92192914D02*
X189714286Y-92240533D01*
X187833333Y-68704819D02*
X187500000Y-68228628D01*
X187261905Y-68704819D02*
X187261905Y-67704819D01*
X187261905Y-67704819D02*
X187642857Y-67704819D01*
X187642857Y-67704819D02*
X187738095Y-67752438D01*
X187738095Y-67752438D02*
X187785714Y-67800057D01*
X187785714Y-67800057D02*
X187833333Y-67895295D01*
X187833333Y-67895295D02*
X187833333Y-68038152D01*
X187833333Y-68038152D02*
X187785714Y-68133390D01*
X187785714Y-68133390D02*
X187738095Y-68181009D01*
X187738095Y-68181009D02*
X187642857Y-68228628D01*
X187642857Y-68228628D02*
X187261905Y-68228628D01*
X188404762Y-68133390D02*
X188309524Y-68085771D01*
X188309524Y-68085771D02*
X188261905Y-68038152D01*
X188261905Y-68038152D02*
X188214286Y-67942914D01*
X188214286Y-67942914D02*
X188214286Y-67895295D01*
X188214286Y-67895295D02*
X188261905Y-67800057D01*
X188261905Y-67800057D02*
X188309524Y-67752438D01*
X188309524Y-67752438D02*
X188404762Y-67704819D01*
X188404762Y-67704819D02*
X188595238Y-67704819D01*
X188595238Y-67704819D02*
X188690476Y-67752438D01*
X188690476Y-67752438D02*
X188738095Y-67800057D01*
X188738095Y-67800057D02*
X188785714Y-67895295D01*
X188785714Y-67895295D02*
X188785714Y-67942914D01*
X188785714Y-67942914D02*
X188738095Y-68038152D01*
X188738095Y-68038152D02*
X188690476Y-68085771D01*
X188690476Y-68085771D02*
X188595238Y-68133390D01*
X188595238Y-68133390D02*
X188404762Y-68133390D01*
X188404762Y-68133390D02*
X188309524Y-68181009D01*
X188309524Y-68181009D02*
X188261905Y-68228628D01*
X188261905Y-68228628D02*
X188214286Y-68323866D01*
X188214286Y-68323866D02*
X188214286Y-68514342D01*
X188214286Y-68514342D02*
X188261905Y-68609580D01*
X188261905Y-68609580D02*
X188309524Y-68657200D01*
X188309524Y-68657200D02*
X188404762Y-68704819D01*
X188404762Y-68704819D02*
X188595238Y-68704819D01*
X188595238Y-68704819D02*
X188690476Y-68657200D01*
X188690476Y-68657200D02*
X188738095Y-68609580D01*
X188738095Y-68609580D02*
X188785714Y-68514342D01*
X188785714Y-68514342D02*
X188785714Y-68323866D01*
X188785714Y-68323866D02*
X188738095Y-68228628D01*
X188738095Y-68228628D02*
X188690476Y-68181009D01*
X188690476Y-68181009D02*
X188595238Y-68133390D01*
X172988095Y-80954819D02*
X172988095Y-81764342D01*
X172988095Y-81764342D02*
X173035714Y-81859580D01*
X173035714Y-81859580D02*
X173083333Y-81907200D01*
X173083333Y-81907200D02*
X173178571Y-81954819D01*
X173178571Y-81954819D02*
X173369047Y-81954819D01*
X173369047Y-81954819D02*
X173464285Y-81907200D01*
X173464285Y-81907200D02*
X173511904Y-81859580D01*
X173511904Y-81859580D02*
X173559523Y-81764342D01*
X173559523Y-81764342D02*
X173559523Y-80954819D01*
X174464285Y-81288152D02*
X174464285Y-81954819D01*
X174226190Y-80907200D02*
X173988095Y-81621485D01*
X173988095Y-81621485D02*
X174607142Y-81621485D01*
X206454819Y-94176666D02*
X205978628Y-94509999D01*
X206454819Y-94748094D02*
X205454819Y-94748094D01*
X205454819Y-94748094D02*
X205454819Y-94367142D01*
X205454819Y-94367142D02*
X205502438Y-94271904D01*
X205502438Y-94271904D02*
X205550057Y-94224285D01*
X205550057Y-94224285D02*
X205645295Y-94176666D01*
X205645295Y-94176666D02*
X205788152Y-94176666D01*
X205788152Y-94176666D02*
X205883390Y-94224285D01*
X205883390Y-94224285D02*
X205931009Y-94271904D01*
X205931009Y-94271904D02*
X205978628Y-94367142D01*
X205978628Y-94367142D02*
X205978628Y-94748094D01*
X205788152Y-93319523D02*
X206454819Y-93319523D01*
X205407200Y-93557618D02*
X206121485Y-93795713D01*
X206121485Y-93795713D02*
X206121485Y-93176666D01*
X194859580Y-63192857D02*
X194907200Y-63240476D01*
X194907200Y-63240476D02*
X194954819Y-63383333D01*
X194954819Y-63383333D02*
X194954819Y-63478571D01*
X194954819Y-63478571D02*
X194907200Y-63621428D01*
X194907200Y-63621428D02*
X194811961Y-63716666D01*
X194811961Y-63716666D02*
X194716723Y-63764285D01*
X194716723Y-63764285D02*
X194526247Y-63811904D01*
X194526247Y-63811904D02*
X194383390Y-63811904D01*
X194383390Y-63811904D02*
X194192914Y-63764285D01*
X194192914Y-63764285D02*
X194097676Y-63716666D01*
X194097676Y-63716666D02*
X194002438Y-63621428D01*
X194002438Y-63621428D02*
X193954819Y-63478571D01*
X193954819Y-63478571D02*
X193954819Y-63383333D01*
X193954819Y-63383333D02*
X194002438Y-63240476D01*
X194002438Y-63240476D02*
X194050057Y-63192857D01*
X194954819Y-62240476D02*
X194954819Y-62811904D01*
X194954819Y-62526190D02*
X193954819Y-62526190D01*
X193954819Y-62526190D02*
X194097676Y-62621428D01*
X194097676Y-62621428D02*
X194192914Y-62716666D01*
X194192914Y-62716666D02*
X194240533Y-62811904D01*
X194954819Y-61288095D02*
X194954819Y-61859523D01*
X194954819Y-61573809D02*
X193954819Y-61573809D01*
X193954819Y-61573809D02*
X194097676Y-61669047D01*
X194097676Y-61669047D02*
X194192914Y-61764285D01*
X194192914Y-61764285D02*
X194240533Y-61859523D01*
X158904819Y-75583333D02*
X159619104Y-75583333D01*
X159619104Y-75583333D02*
X159761961Y-75630952D01*
X159761961Y-75630952D02*
X159857200Y-75726190D01*
X159857200Y-75726190D02*
X159904819Y-75869047D01*
X159904819Y-75869047D02*
X159904819Y-75964285D01*
X159238152Y-74678571D02*
X159904819Y-74678571D01*
X158857200Y-74916666D02*
X159571485Y-75154761D01*
X159571485Y-75154761D02*
X159571485Y-74535714D01*
X203359580Y-89416666D02*
X203407200Y-89464285D01*
X203407200Y-89464285D02*
X203454819Y-89607142D01*
X203454819Y-89607142D02*
X203454819Y-89702380D01*
X203454819Y-89702380D02*
X203407200Y-89845237D01*
X203407200Y-89845237D02*
X203311961Y-89940475D01*
X203311961Y-89940475D02*
X203216723Y-89988094D01*
X203216723Y-89988094D02*
X203026247Y-90035713D01*
X203026247Y-90035713D02*
X202883390Y-90035713D01*
X202883390Y-90035713D02*
X202692914Y-89988094D01*
X202692914Y-89988094D02*
X202597676Y-89940475D01*
X202597676Y-89940475D02*
X202502438Y-89845237D01*
X202502438Y-89845237D02*
X202454819Y-89702380D01*
X202454819Y-89702380D02*
X202454819Y-89607142D01*
X202454819Y-89607142D02*
X202502438Y-89464285D01*
X202502438Y-89464285D02*
X202550057Y-89416666D01*
X202454819Y-88559523D02*
X202454819Y-88749999D01*
X202454819Y-88749999D02*
X202502438Y-88845237D01*
X202502438Y-88845237D02*
X202550057Y-88892856D01*
X202550057Y-88892856D02*
X202692914Y-88988094D01*
X202692914Y-88988094D02*
X202883390Y-89035713D01*
X202883390Y-89035713D02*
X203264342Y-89035713D01*
X203264342Y-89035713D02*
X203359580Y-88988094D01*
X203359580Y-88988094D02*
X203407200Y-88940475D01*
X203407200Y-88940475D02*
X203454819Y-88845237D01*
X203454819Y-88845237D02*
X203454819Y-88654761D01*
X203454819Y-88654761D02*
X203407200Y-88559523D01*
X203407200Y-88559523D02*
X203359580Y-88511904D01*
X203359580Y-88511904D02*
X203264342Y-88464285D01*
X203264342Y-88464285D02*
X203026247Y-88464285D01*
X203026247Y-88464285D02*
X202931009Y-88511904D01*
X202931009Y-88511904D02*
X202883390Y-88559523D01*
X202883390Y-88559523D02*
X202835771Y-88654761D01*
X202835771Y-88654761D02*
X202835771Y-88845237D01*
X202835771Y-88845237D02*
X202883390Y-88940475D01*
X202883390Y-88940475D02*
X202931009Y-88988094D01*
X202931009Y-88988094D02*
X203026247Y-89035713D01*
X151261905Y-55479819D02*
X151261905Y-54479819D01*
X151261905Y-54479819D02*
X151642857Y-54479819D01*
X151642857Y-54479819D02*
X151738095Y-54527438D01*
X151738095Y-54527438D02*
X151785714Y-54575057D01*
X151785714Y-54575057D02*
X151833333Y-54670295D01*
X151833333Y-54670295D02*
X151833333Y-54813152D01*
X151833333Y-54813152D02*
X151785714Y-54908390D01*
X151785714Y-54908390D02*
X151738095Y-54956009D01*
X151738095Y-54956009D02*
X151642857Y-55003628D01*
X151642857Y-55003628D02*
X151261905Y-55003628D01*
X152785714Y-55479819D02*
X152214286Y-55479819D01*
X152500000Y-55479819D02*
X152500000Y-54479819D01*
X152500000Y-54479819D02*
X152404762Y-54622676D01*
X152404762Y-54622676D02*
X152309524Y-54717914D01*
X152309524Y-54717914D02*
X152214286Y-54765533D01*
X171333333Y-94859580D02*
X171285714Y-94907200D01*
X171285714Y-94907200D02*
X171142857Y-94954819D01*
X171142857Y-94954819D02*
X171047619Y-94954819D01*
X171047619Y-94954819D02*
X170904762Y-94907200D01*
X170904762Y-94907200D02*
X170809524Y-94811961D01*
X170809524Y-94811961D02*
X170761905Y-94716723D01*
X170761905Y-94716723D02*
X170714286Y-94526247D01*
X170714286Y-94526247D02*
X170714286Y-94383390D01*
X170714286Y-94383390D02*
X170761905Y-94192914D01*
X170761905Y-94192914D02*
X170809524Y-94097676D01*
X170809524Y-94097676D02*
X170904762Y-94002438D01*
X170904762Y-94002438D02*
X171047619Y-93954819D01*
X171047619Y-93954819D02*
X171142857Y-93954819D01*
X171142857Y-93954819D02*
X171285714Y-94002438D01*
X171285714Y-94002438D02*
X171333333Y-94050057D01*
X172285714Y-94954819D02*
X171714286Y-94954819D01*
X172000000Y-94954819D02*
X172000000Y-93954819D01*
X172000000Y-93954819D02*
X171904762Y-94097676D01*
X171904762Y-94097676D02*
X171809524Y-94192914D01*
X171809524Y-94192914D02*
X171714286Y-94240533D01*
X158854819Y-85333333D02*
X159569104Y-85333333D01*
X159569104Y-85333333D02*
X159711961Y-85380952D01*
X159711961Y-85380952D02*
X159807200Y-85476190D01*
X159807200Y-85476190D02*
X159854819Y-85619047D01*
X159854819Y-85619047D02*
X159854819Y-85714285D01*
X158854819Y-84380952D02*
X158854819Y-84857142D01*
X158854819Y-84857142D02*
X159331009Y-84904761D01*
X159331009Y-84904761D02*
X159283390Y-84857142D01*
X159283390Y-84857142D02*
X159235771Y-84761904D01*
X159235771Y-84761904D02*
X159235771Y-84523809D01*
X159235771Y-84523809D02*
X159283390Y-84428571D01*
X159283390Y-84428571D02*
X159331009Y-84380952D01*
X159331009Y-84380952D02*
X159426247Y-84333333D01*
X159426247Y-84333333D02*
X159664342Y-84333333D01*
X159664342Y-84333333D02*
X159759580Y-84380952D01*
X159759580Y-84380952D02*
X159807200Y-84428571D01*
X159807200Y-84428571D02*
X159854819Y-84523809D01*
X159854819Y-84523809D02*
X159854819Y-84761904D01*
X159854819Y-84761904D02*
X159807200Y-84857142D01*
X159807200Y-84857142D02*
X159759580Y-84904761D01*
X198859580Y-70642857D02*
X198907200Y-70690476D01*
X198907200Y-70690476D02*
X198954819Y-70833333D01*
X198954819Y-70833333D02*
X198954819Y-70928571D01*
X198954819Y-70928571D02*
X198907200Y-71071428D01*
X198907200Y-71071428D02*
X198811961Y-71166666D01*
X198811961Y-71166666D02*
X198716723Y-71214285D01*
X198716723Y-71214285D02*
X198526247Y-71261904D01*
X198526247Y-71261904D02*
X198383390Y-71261904D01*
X198383390Y-71261904D02*
X198192914Y-71214285D01*
X198192914Y-71214285D02*
X198097676Y-71166666D01*
X198097676Y-71166666D02*
X198002438Y-71071428D01*
X198002438Y-71071428D02*
X197954819Y-70928571D01*
X197954819Y-70928571D02*
X197954819Y-70833333D01*
X197954819Y-70833333D02*
X198002438Y-70690476D01*
X198002438Y-70690476D02*
X198050057Y-70642857D01*
X198954819Y-69690476D02*
X198954819Y-70261904D01*
X198954819Y-69976190D02*
X197954819Y-69976190D01*
X197954819Y-69976190D02*
X198097676Y-70071428D01*
X198097676Y-70071428D02*
X198192914Y-70166666D01*
X198192914Y-70166666D02*
X198240533Y-70261904D01*
X197954819Y-69071428D02*
X197954819Y-68976190D01*
X197954819Y-68976190D02*
X198002438Y-68880952D01*
X198002438Y-68880952D02*
X198050057Y-68833333D01*
X198050057Y-68833333D02*
X198145295Y-68785714D01*
X198145295Y-68785714D02*
X198335771Y-68738095D01*
X198335771Y-68738095D02*
X198573866Y-68738095D01*
X198573866Y-68738095D02*
X198764342Y-68785714D01*
X198764342Y-68785714D02*
X198859580Y-68833333D01*
X198859580Y-68833333D02*
X198907200Y-68880952D01*
X198907200Y-68880952D02*
X198954819Y-68976190D01*
X198954819Y-68976190D02*
X198954819Y-69071428D01*
X198954819Y-69071428D02*
X198907200Y-69166666D01*
X198907200Y-69166666D02*
X198859580Y-69214285D01*
X198859580Y-69214285D02*
X198764342Y-69261904D01*
X198764342Y-69261904D02*
X198573866Y-69309523D01*
X198573866Y-69309523D02*
X198335771Y-69309523D01*
X198335771Y-69309523D02*
X198145295Y-69261904D01*
X198145295Y-69261904D02*
X198050057Y-69214285D01*
X198050057Y-69214285D02*
X198002438Y-69166666D01*
X198002438Y-69166666D02*
X197954819Y-69071428D01*
X159794642Y-54859580D02*
X159747023Y-54907200D01*
X159747023Y-54907200D02*
X159604166Y-54954819D01*
X159604166Y-54954819D02*
X159508928Y-54954819D01*
X159508928Y-54954819D02*
X159366071Y-54907200D01*
X159366071Y-54907200D02*
X159270833Y-54811961D01*
X159270833Y-54811961D02*
X159223214Y-54716723D01*
X159223214Y-54716723D02*
X159175595Y-54526247D01*
X159175595Y-54526247D02*
X159175595Y-54383390D01*
X159175595Y-54383390D02*
X159223214Y-54192914D01*
X159223214Y-54192914D02*
X159270833Y-54097676D01*
X159270833Y-54097676D02*
X159366071Y-54002438D01*
X159366071Y-54002438D02*
X159508928Y-53954819D01*
X159508928Y-53954819D02*
X159604166Y-53954819D01*
X159604166Y-53954819D02*
X159747023Y-54002438D01*
X159747023Y-54002438D02*
X159794642Y-54050057D01*
X160747023Y-54954819D02*
X160175595Y-54954819D01*
X160461309Y-54954819D02*
X160461309Y-53954819D01*
X160461309Y-53954819D02*
X160366071Y-54097676D01*
X160366071Y-54097676D02*
X160270833Y-54192914D01*
X160270833Y-54192914D02*
X160175595Y-54240533D01*
X161080357Y-53954819D02*
X161747023Y-53954819D01*
X161747023Y-53954819D02*
X161318452Y-54954819D01*
X193859580Y-84646666D02*
X193907200Y-84694285D01*
X193907200Y-84694285D02*
X193954819Y-84837142D01*
X193954819Y-84837142D02*
X193954819Y-84932380D01*
X193954819Y-84932380D02*
X193907200Y-85075237D01*
X193907200Y-85075237D02*
X193811961Y-85170475D01*
X193811961Y-85170475D02*
X193716723Y-85218094D01*
X193716723Y-85218094D02*
X193526247Y-85265713D01*
X193526247Y-85265713D02*
X193383390Y-85265713D01*
X193383390Y-85265713D02*
X193192914Y-85218094D01*
X193192914Y-85218094D02*
X193097676Y-85170475D01*
X193097676Y-85170475D02*
X193002438Y-85075237D01*
X193002438Y-85075237D02*
X192954819Y-84932380D01*
X192954819Y-84932380D02*
X192954819Y-84837142D01*
X192954819Y-84837142D02*
X193002438Y-84694285D01*
X193002438Y-84694285D02*
X193050057Y-84646666D01*
X192954819Y-84313332D02*
X192954819Y-83646666D01*
X192954819Y-83646666D02*
X193954819Y-84075237D01*
X204859580Y-69666666D02*
X204907200Y-69714285D01*
X204907200Y-69714285D02*
X204954819Y-69857142D01*
X204954819Y-69857142D02*
X204954819Y-69952380D01*
X204954819Y-69952380D02*
X204907200Y-70095237D01*
X204907200Y-70095237D02*
X204811961Y-70190475D01*
X204811961Y-70190475D02*
X204716723Y-70238094D01*
X204716723Y-70238094D02*
X204526247Y-70285713D01*
X204526247Y-70285713D02*
X204383390Y-70285713D01*
X204383390Y-70285713D02*
X204192914Y-70238094D01*
X204192914Y-70238094D02*
X204097676Y-70190475D01*
X204097676Y-70190475D02*
X204002438Y-70095237D01*
X204002438Y-70095237D02*
X203954819Y-69952380D01*
X203954819Y-69952380D02*
X203954819Y-69857142D01*
X203954819Y-69857142D02*
X204002438Y-69714285D01*
X204002438Y-69714285D02*
X204050057Y-69666666D01*
X204954819Y-69190475D02*
X204954819Y-68999999D01*
X204954819Y-68999999D02*
X204907200Y-68904761D01*
X204907200Y-68904761D02*
X204859580Y-68857142D01*
X204859580Y-68857142D02*
X204716723Y-68761904D01*
X204716723Y-68761904D02*
X204526247Y-68714285D01*
X204526247Y-68714285D02*
X204145295Y-68714285D01*
X204145295Y-68714285D02*
X204050057Y-68761904D01*
X204050057Y-68761904D02*
X204002438Y-68809523D01*
X204002438Y-68809523D02*
X203954819Y-68904761D01*
X203954819Y-68904761D02*
X203954819Y-69095237D01*
X203954819Y-69095237D02*
X204002438Y-69190475D01*
X204002438Y-69190475D02*
X204050057Y-69238094D01*
X204050057Y-69238094D02*
X204145295Y-69285713D01*
X204145295Y-69285713D02*
X204383390Y-69285713D01*
X204383390Y-69285713D02*
X204478628Y-69238094D01*
X204478628Y-69238094D02*
X204526247Y-69190475D01*
X204526247Y-69190475D02*
X204573866Y-69095237D01*
X204573866Y-69095237D02*
X204573866Y-68904761D01*
X204573866Y-68904761D02*
X204526247Y-68809523D01*
X204526247Y-68809523D02*
X204478628Y-68761904D01*
X204478628Y-68761904D02*
X204383390Y-68714285D01*
X161916666Y-92204819D02*
X161916666Y-92919104D01*
X161916666Y-92919104D02*
X161869047Y-93061961D01*
X161869047Y-93061961D02*
X161773809Y-93157200D01*
X161773809Y-93157200D02*
X161630952Y-93204819D01*
X161630952Y-93204819D02*
X161535714Y-93204819D01*
X162916666Y-93204819D02*
X162345238Y-93204819D01*
X162630952Y-93204819D02*
X162630952Y-92204819D01*
X162630952Y-92204819D02*
X162535714Y-92347676D01*
X162535714Y-92347676D02*
X162440476Y-92442914D01*
X162440476Y-92442914D02*
X162345238Y-92490533D01*
X155357142Y-53954819D02*
X155023809Y-53478628D01*
X154785714Y-53954819D02*
X154785714Y-52954819D01*
X154785714Y-52954819D02*
X155166666Y-52954819D01*
X155166666Y-52954819D02*
X155261904Y-53002438D01*
X155261904Y-53002438D02*
X155309523Y-53050057D01*
X155309523Y-53050057D02*
X155357142Y-53145295D01*
X155357142Y-53145295D02*
X155357142Y-53288152D01*
X155357142Y-53288152D02*
X155309523Y-53383390D01*
X155309523Y-53383390D02*
X155261904Y-53431009D01*
X155261904Y-53431009D02*
X155166666Y-53478628D01*
X155166666Y-53478628D02*
X154785714Y-53478628D01*
X156309523Y-53954819D02*
X155738095Y-53954819D01*
X156023809Y-53954819D02*
X156023809Y-52954819D01*
X156023809Y-52954819D02*
X155928571Y-53097676D01*
X155928571Y-53097676D02*
X155833333Y-53192914D01*
X155833333Y-53192914D02*
X155738095Y-53240533D01*
X156642857Y-52954819D02*
X157261904Y-52954819D01*
X157261904Y-52954819D02*
X156928571Y-53335771D01*
X156928571Y-53335771D02*
X157071428Y-53335771D01*
X157071428Y-53335771D02*
X157166666Y-53383390D01*
X157166666Y-53383390D02*
X157214285Y-53431009D01*
X157214285Y-53431009D02*
X157261904Y-53526247D01*
X157261904Y-53526247D02*
X157261904Y-53764342D01*
X157261904Y-53764342D02*
X157214285Y-53859580D01*
X157214285Y-53859580D02*
X157166666Y-53907200D01*
X157166666Y-53907200D02*
X157071428Y-53954819D01*
X157071428Y-53954819D02*
X156785714Y-53954819D01*
X156785714Y-53954819D02*
X156690476Y-53907200D01*
X156690476Y-53907200D02*
X156642857Y-53859580D01*
X203454819Y-91916666D02*
X202978628Y-92249999D01*
X203454819Y-92488094D02*
X202454819Y-92488094D01*
X202454819Y-92488094D02*
X202454819Y-92107142D01*
X202454819Y-92107142D02*
X202502438Y-92011904D01*
X202502438Y-92011904D02*
X202550057Y-91964285D01*
X202550057Y-91964285D02*
X202645295Y-91916666D01*
X202645295Y-91916666D02*
X202788152Y-91916666D01*
X202788152Y-91916666D02*
X202883390Y-91964285D01*
X202883390Y-91964285D02*
X202931009Y-92011904D01*
X202931009Y-92011904D02*
X202978628Y-92107142D01*
X202978628Y-92107142D02*
X202978628Y-92488094D01*
X202550057Y-91535713D02*
X202502438Y-91488094D01*
X202502438Y-91488094D02*
X202454819Y-91392856D01*
X202454819Y-91392856D02*
X202454819Y-91154761D01*
X202454819Y-91154761D02*
X202502438Y-91059523D01*
X202502438Y-91059523D02*
X202550057Y-91011904D01*
X202550057Y-91011904D02*
X202645295Y-90964285D01*
X202645295Y-90964285D02*
X202740533Y-90964285D01*
X202740533Y-90964285D02*
X202883390Y-91011904D01*
X202883390Y-91011904D02*
X203454819Y-91583332D01*
X203454819Y-91583332D02*
X203454819Y-90964285D01*
X163738095Y-73204819D02*
X163738095Y-74014342D01*
X163738095Y-74014342D02*
X163785714Y-74109580D01*
X163785714Y-74109580D02*
X163833333Y-74157200D01*
X163833333Y-74157200D02*
X163928571Y-74204819D01*
X163928571Y-74204819D02*
X164119047Y-74204819D01*
X164119047Y-74204819D02*
X164214285Y-74157200D01*
X164214285Y-74157200D02*
X164261904Y-74109580D01*
X164261904Y-74109580D02*
X164309523Y-74014342D01*
X164309523Y-74014342D02*
X164309523Y-73204819D01*
X165214285Y-73204819D02*
X165023809Y-73204819D01*
X165023809Y-73204819D02*
X164928571Y-73252438D01*
X164928571Y-73252438D02*
X164880952Y-73300057D01*
X164880952Y-73300057D02*
X164785714Y-73442914D01*
X164785714Y-73442914D02*
X164738095Y-73633390D01*
X164738095Y-73633390D02*
X164738095Y-74014342D01*
X164738095Y-74014342D02*
X164785714Y-74109580D01*
X164785714Y-74109580D02*
X164833333Y-74157200D01*
X164833333Y-74157200D02*
X164928571Y-74204819D01*
X164928571Y-74204819D02*
X165119047Y-74204819D01*
X165119047Y-74204819D02*
X165214285Y-74157200D01*
X165214285Y-74157200D02*
X165261904Y-74109580D01*
X165261904Y-74109580D02*
X165309523Y-74014342D01*
X165309523Y-74014342D02*
X165309523Y-73776247D01*
X165309523Y-73776247D02*
X165261904Y-73681009D01*
X165261904Y-73681009D02*
X165214285Y-73633390D01*
X165214285Y-73633390D02*
X165119047Y-73585771D01*
X165119047Y-73585771D02*
X164928571Y-73585771D01*
X164928571Y-73585771D02*
X164833333Y-73633390D01*
X164833333Y-73633390D02*
X164785714Y-73681009D01*
X164785714Y-73681009D02*
X164738095Y-73776247D01*
D14*
%TO.C,L1*%
X200640000Y-87360000D02*
X200640000Y-76140000D01*
X203740000Y-87360000D02*
X200640000Y-87360000D01*
X211360000Y-87360000D02*
X208260000Y-87360000D01*
X200640000Y-76140000D02*
X203740000Y-76140000D01*
X208260000Y-76140000D02*
X211360000Y-76140000D01*
X211360000Y-76140000D02*
X211360000Y-87360000D01*
%TO.C,C18*%
X165392164Y-52140000D02*
X165607836Y-52140000D01*
X165392164Y-52860000D02*
X165607836Y-52860000D01*
%TO.C,J6*%
X194080000Y-53120000D02*
X194080000Y-55880000D01*
X199270000Y-53120000D02*
X194080000Y-53120000D01*
X199270000Y-53120000D02*
X199270000Y-55880000D01*
X199270000Y-55880000D02*
X194080000Y-55880000D01*
X200540000Y-53120000D02*
X201920000Y-53120000D01*
X201920000Y-53120000D02*
X201920000Y-54500000D01*
%TO.C,R10*%
X215153641Y-66120000D02*
X214846359Y-66120000D01*
X215153641Y-66880000D02*
X214846359Y-66880000D01*
%TO.C,TP3*%
X188800000Y-80800000D02*
X191200000Y-80800000D01*
X188800000Y-83200000D02*
X188800000Y-80800000D01*
X191200000Y-80800000D02*
X191200000Y-83200000D01*
X191200000Y-83200000D02*
X188800000Y-83200000D01*
%TO.C,J2*%
X174650000Y-103250000D02*
X174650000Y-104500000D01*
X174950000Y-105800000D02*
X175700000Y-105800000D01*
X175700000Y-105800000D02*
X175700000Y-108750000D01*
X175700000Y-108750000D02*
X190000000Y-108750000D01*
X175900000Y-103250000D02*
X174650000Y-103250000D01*
X204300000Y-105800000D02*
X204300000Y-108750000D01*
X204300000Y-108750000D02*
X190000000Y-108750000D01*
X205050000Y-105800000D02*
X204300000Y-105800000D01*
X174940000Y-103540000D02*
X205060000Y-103540000D01*
X205060000Y-109510000D01*
X174940000Y-109510000D01*
X174940000Y-103540000D01*
X174950000Y-103550000D02*
X176750000Y-103550000D01*
X176750000Y-104300000D01*
X174950000Y-104300000D01*
X174950000Y-103550000D01*
X178250000Y-103550000D02*
X201750000Y-103550000D01*
X201750000Y-104300000D01*
X178250000Y-104300000D01*
X178250000Y-103550000D01*
X203250000Y-103550000D02*
X205050000Y-103550000D01*
X205050000Y-104300000D01*
X203250000Y-104300000D01*
X203250000Y-103550000D01*
%TO.C,C2*%
X185765000Y-89711252D02*
X185765000Y-89188748D01*
X187235000Y-89711252D02*
X187235000Y-89188748D01*
%TO.C,R11*%
X218620000Y-62653641D02*
X218620000Y-62346359D01*
X219380000Y-62653641D02*
X219380000Y-62346359D01*
%TO.C,R6*%
X166153641Y-67620000D02*
X165846359Y-67620000D01*
X166153641Y-68380000D02*
X165846359Y-68380000D01*
D10*
%TO.C,D3*%
X213655000Y-65000000D02*
G75*
G02*
X213555000Y-65000000I-50000J0D01*
G01*
X213555000Y-65000000D02*
G75*
G02*
X213655000Y-65000000I50000J0D01*
G01*
D14*
%TO.C,J7*%
X217620000Y-78370000D02*
X219000000Y-78370000D01*
X217620000Y-79750000D02*
X217620000Y-78370000D01*
X217620000Y-81020000D02*
X217620000Y-88750000D01*
X217620000Y-81020000D02*
X220380000Y-81020000D01*
X217620000Y-88750000D02*
X220380000Y-88750000D01*
X220380000Y-81020000D02*
X220380000Y-88750000D01*
%TO.C,R3*%
X204120000Y-90978641D02*
X204120000Y-90671359D01*
X204880000Y-90978641D02*
X204880000Y-90671359D01*
%TO.C,R7*%
X208846359Y-57620000D02*
X209153641Y-57620000D01*
X208846359Y-58380000D02*
X209153641Y-58380000D01*
%TO.C,C13*%
X176392164Y-86390000D02*
X176607836Y-86390000D01*
X176392164Y-87110000D02*
X176607836Y-87110000D01*
%TO.C,J3*%
X223250000Y-83600000D02*
X223250000Y-84850000D01*
X223250000Y-84850000D02*
X224500000Y-84850000D01*
X225800000Y-54450000D02*
X225800000Y-55200000D01*
X225800000Y-55200000D02*
X228750000Y-55200000D01*
X225800000Y-83800000D02*
X228750000Y-83800000D01*
X225800000Y-84550000D02*
X225800000Y-83800000D01*
X228750000Y-55200000D02*
X228750000Y-69500000D01*
X228750000Y-83800000D02*
X228750000Y-69500000D01*
X223540000Y-84560000D02*
X229510000Y-84560000D01*
X229510000Y-54440000D01*
X223540000Y-54440000D01*
X223540000Y-84560000D01*
X223550000Y-56250000D02*
X224300000Y-56250000D01*
X224300000Y-54450000D01*
X223550000Y-54450000D01*
X223550000Y-56250000D01*
X223550000Y-81250000D02*
X224300000Y-81250000D01*
X224300000Y-57750000D01*
X223550000Y-57750000D01*
X223550000Y-81250000D01*
X223550000Y-84550000D02*
X224300000Y-84550000D01*
X224300000Y-82750000D01*
X223550000Y-82750000D01*
X223550000Y-84550000D01*
%TO.C,SW2*%
X210430000Y-53530000D02*
X210730000Y-53530000D01*
X210430000Y-57670000D02*
X210430000Y-53530000D01*
X210730000Y-57670000D02*
X210430000Y-57670000D01*
X213270000Y-53530000D02*
X213570000Y-53530000D01*
X213570000Y-53530000D02*
X213570000Y-57670000D01*
X213570000Y-57670000D02*
X213270000Y-57670000D01*
%TO.C,C8*%
X201265000Y-72711252D02*
X201265000Y-72188748D01*
X202735000Y-72711252D02*
X202735000Y-72188748D01*
%TO.C,C5*%
X197238748Y-93765000D02*
X197761252Y-93765000D01*
X197238748Y-95235000D02*
X197761252Y-95235000D01*
%TO.C,R5*%
X166153641Y-69120000D02*
X165846359Y-69120000D01*
X166153641Y-69880000D02*
X165846359Y-69880000D01*
%TO.C,U1*%
X167800000Y-69950000D02*
X167800000Y-70950000D01*
X167800000Y-70950000D02*
X169300000Y-70950000D01*
X186200000Y-70950000D02*
X184700000Y-70950000D01*
X186200000Y-70950000D02*
X186200000Y-69950000D01*
X167800000Y-51975000D02*
X167300000Y-51975000D01*
X167800000Y-51475000D01*
X167800000Y-51975000D01*
G36*
X167800000Y-51975000D02*
G01*
X167300000Y-51975000D01*
X167800000Y-51475000D01*
X167800000Y-51975000D01*
G37*
%TO.C,TP5*%
X169050000Y-76800000D02*
X171450000Y-76800000D01*
X169050000Y-79200000D02*
X169050000Y-76800000D01*
X171450000Y-76800000D02*
X171450000Y-79200000D01*
X171450000Y-79200000D02*
X169050000Y-79200000D01*
%TO.C,U5*%
X167227500Y-83640000D02*
X169047500Y-83640000D01*
X167227500Y-83690000D02*
X167227500Y-83640000D01*
X167227500Y-86760000D02*
X167227500Y-86710000D01*
X169047500Y-83640000D02*
X169047500Y-83690000D01*
X169047500Y-86710000D02*
X169047500Y-86760000D01*
X169047500Y-86760000D02*
X167227500Y-86760000D01*
X169827500Y-87040000D02*
X169347500Y-87040000D01*
X169587500Y-86710000D01*
X169827500Y-87040000D01*
G36*
X169827500Y-87040000D02*
G01*
X169347500Y-87040000D01*
X169587500Y-86710000D01*
X169827500Y-87040000D01*
G37*
%TO.C,R12*%
X178620000Y-73163641D02*
X178620000Y-72856359D01*
X179380000Y-73163641D02*
X179380000Y-72856359D01*
%TO.C,C4*%
X190765000Y-89711252D02*
X190765000Y-89188748D01*
X192235000Y-89711252D02*
X192235000Y-89188748D01*
%TO.C,SW1*%
X216430000Y-53530000D02*
X216730000Y-53530000D01*
X216430000Y-57670000D02*
X216430000Y-53530000D01*
X216730000Y-57670000D02*
X216430000Y-57670000D01*
X219270000Y-53530000D02*
X219570000Y-53530000D01*
X219570000Y-53530000D02*
X219570000Y-57670000D01*
X219570000Y-57670000D02*
X219270000Y-57670000D01*
%TO.C,C14*%
X164890000Y-85622164D02*
X164890000Y-85837836D01*
X165610000Y-85622164D02*
X165610000Y-85837836D01*
%TO.C,C15*%
X162640000Y-79372164D02*
X162640000Y-79587836D01*
X163360000Y-79372164D02*
X163360000Y-79587836D01*
%TO.C,C12*%
X192140000Y-67087836D02*
X192140000Y-66872164D01*
X192860000Y-67087836D02*
X192860000Y-66872164D01*
%TO.C,D1*%
X194850000Y-86310000D02*
X194850000Y-80500000D01*
X194850000Y-86310000D02*
X199150000Y-86310000D01*
X199150000Y-86310000D02*
X199150000Y-80500000D01*
%TO.C,U3*%
X194590000Y-87740000D02*
X194915000Y-87740000D01*
X194590000Y-87835000D02*
X194590000Y-87740000D01*
X194590000Y-92860000D02*
X194590000Y-92765000D01*
X194915000Y-92860000D02*
X194590000Y-92860000D01*
X198385000Y-87740000D02*
X198710000Y-87740000D01*
X198710000Y-87740000D02*
X198710000Y-87835000D01*
X198710000Y-92765000D02*
X198710000Y-92860000D01*
X198710000Y-92860000D02*
X198385000Y-92860000D01*
X194050000Y-87830000D02*
X193810000Y-87500000D01*
X194290000Y-87500000D01*
X194050000Y-87830000D01*
G36*
X194050000Y-87830000D02*
G01*
X193810000Y-87500000D01*
X194290000Y-87500000D01*
X194050000Y-87830000D01*
G37*
%TO.C,U7*%
X190090000Y-70740000D02*
X191350000Y-70740000D01*
X190090000Y-74500000D02*
X190090000Y-70740000D01*
X196910000Y-70740000D02*
X195650000Y-70740000D01*
X196910000Y-74500000D02*
X196910000Y-70740000D01*
X190190000Y-75780000D02*
X189860000Y-76020000D01*
X189860000Y-75540000D01*
X190190000Y-75780000D01*
G36*
X190190000Y-75780000D02*
G01*
X189860000Y-76020000D01*
X189860000Y-75540000D01*
X190190000Y-75780000D01*
G37*
%TO.C,TP2*%
X176300000Y-98800000D02*
X178700000Y-98800000D01*
X176300000Y-101200000D02*
X176300000Y-98800000D01*
X178700000Y-98800000D02*
X178700000Y-101200000D01*
X178700000Y-101200000D02*
X176300000Y-101200000D01*
%TO.C,C16*%
X165392164Y-56640000D02*
X165607836Y-56640000D01*
X165392164Y-57360000D02*
X165607836Y-57360000D01*
%TO.C,U2*%
X161452500Y-60615000D02*
X163272500Y-60615000D01*
X161452500Y-60665000D02*
X161452500Y-60615000D01*
X161452500Y-63735000D02*
X161452500Y-63685000D01*
X163272500Y-60615000D02*
X163272500Y-60665000D01*
X163272500Y-63685000D02*
X163272500Y-63735000D01*
X163272500Y-63735000D02*
X161452500Y-63735000D01*
X164052500Y-64015000D02*
X163572500Y-64015000D01*
X163812500Y-63685000D01*
X164052500Y-64015000D01*
G36*
X164052500Y-64015000D02*
G01*
X163572500Y-64015000D01*
X163812500Y-63685000D01*
X164052500Y-64015000D01*
G37*
D10*
%TO.C,D4*%
X213630000Y-66500000D02*
G75*
G02*
X213530000Y-66500000I-50000J0D01*
G01*
X213530000Y-66500000D02*
G75*
G02*
X213630000Y-66500000I50000J0D01*
G01*
D14*
%TO.C,C3*%
X188265000Y-89711252D02*
X188265000Y-89188748D01*
X189735000Y-89711252D02*
X189735000Y-89188748D01*
%TO.C,R1*%
X191346359Y-92120000D02*
X191653641Y-92120000D01*
X191346359Y-92880000D02*
X191653641Y-92880000D01*
%TO.C,TP1*%
X167050000Y-89550000D02*
X169450000Y-89550000D01*
X167050000Y-91950000D02*
X167050000Y-89550000D01*
X169450000Y-89550000D02*
X169450000Y-91950000D01*
X169450000Y-91950000D02*
X167050000Y-91950000D01*
%TO.C,R8*%
X188153641Y-69120000D02*
X187846359Y-69120000D01*
X188153641Y-69880000D02*
X187846359Y-69880000D01*
%TO.C,U4*%
X172140000Y-84227500D02*
X172190000Y-84227500D01*
X172140000Y-86047500D02*
X172140000Y-84227500D01*
X172190000Y-86047500D02*
X172140000Y-86047500D01*
X174090000Y-86047500D02*
X173310000Y-86047500D01*
X175210000Y-84227500D02*
X175260000Y-84227500D01*
X175260000Y-84227500D02*
X175260000Y-86047500D01*
X175260000Y-86047500D02*
X175210000Y-86047500D01*
X175540000Y-83927500D02*
X175210000Y-83687500D01*
X175540000Y-83447500D01*
X175540000Y-83927500D01*
G36*
X175540000Y-83927500D02*
G01*
X175210000Y-83687500D01*
X175540000Y-83447500D01*
X175540000Y-83927500D01*
G37*
%TO.C,R4*%
X204120000Y-94163641D02*
X204120000Y-93856359D01*
X204880000Y-94163641D02*
X204880000Y-93856359D01*
%TO.C,C11*%
X193765000Y-66261252D02*
X193765000Y-65738748D01*
X195235000Y-66261252D02*
X195235000Y-65738748D01*
%TO.C,J4*%
X154250000Y-71800000D02*
X154250000Y-78700000D01*
X154250000Y-74150000D02*
X154750000Y-74150000D01*
X154250000Y-74250000D02*
X154750000Y-74250000D01*
X154250000Y-76150000D02*
X154750000Y-76150000D01*
X154250000Y-76250000D02*
X154750000Y-76250000D01*
X154250000Y-78700000D02*
X157750000Y-78700000D01*
X154750000Y-74150000D02*
X154750000Y-74350000D01*
X154750000Y-74350000D02*
X154250000Y-74350000D01*
X154750000Y-76150000D02*
X154750000Y-76350000D01*
X154750000Y-76350000D02*
X154250000Y-76350000D01*
X155750000Y-71190000D02*
X155750000Y-71800000D01*
X155750000Y-79310000D02*
X155750000Y-78700000D01*
X157050000Y-71190000D02*
X157050000Y-71800000D01*
X157050000Y-79310000D02*
X157050000Y-78700000D01*
X157750000Y-71800000D02*
X154250000Y-71800000D01*
X157750000Y-73750000D02*
X157750000Y-71800000D01*
X157750000Y-76750000D02*
X158360000Y-76750000D01*
X157750000Y-78700000D02*
X157750000Y-76750000D01*
X158360000Y-72950000D02*
X158560000Y-72950000D01*
X158360000Y-73750000D02*
X157750000Y-73750000D01*
X158460000Y-72950000D02*
X158460000Y-72650000D01*
X158560000Y-72650000D02*
X158360000Y-72650000D01*
X158560000Y-72950000D02*
X158560000Y-72650000D01*
X158660000Y-70890000D02*
X157410000Y-70890000D01*
X158660000Y-72140000D02*
X158660000Y-70890000D01*
X158360000Y-71190000D02*
X153640000Y-71190000D01*
X153640000Y-79310000D01*
X158360000Y-79310000D01*
X158360000Y-71190000D01*
%TO.C,C6*%
X201140000Y-89587836D02*
X201140000Y-89372164D01*
X201860000Y-89587836D02*
X201860000Y-89372164D01*
%TO.C,P1*%
X150400000Y-56550000D02*
X150400000Y-65950000D01*
X152300000Y-56550000D02*
X150400000Y-56550000D01*
X152300000Y-65950000D02*
X150400000Y-65950000D01*
X156200000Y-56550000D02*
X154200000Y-56550000D01*
X156200000Y-65950000D02*
X154200000Y-65950000D01*
%TO.C,C1*%
X162740000Y-95590000D02*
X166790000Y-95590000D01*
X162740000Y-105045563D02*
X162740000Y-95590000D01*
X163804437Y-106110000D02*
X162740000Y-105045563D01*
X163804437Y-106110000D02*
X166790000Y-106110000D01*
X164915000Y-106975000D02*
X166165000Y-106975000D01*
X165540000Y-107600000D02*
X165540000Y-106350000D01*
X172195563Y-106110000D02*
X169210000Y-106110000D01*
X172195563Y-106110000D02*
X173260000Y-105045563D01*
X173260000Y-95590000D02*
X169210000Y-95590000D01*
X173260000Y-105045563D02*
X173260000Y-95590000D01*
%TO.C,J5*%
X154200000Y-81550000D02*
X154200000Y-88450000D01*
X154200000Y-83900000D02*
X154700000Y-83900000D01*
X154200000Y-84000000D02*
X154700000Y-84000000D01*
X154200000Y-85900000D02*
X154700000Y-85900000D01*
X154200000Y-86000000D02*
X154700000Y-86000000D01*
X154200000Y-88450000D02*
X157700000Y-88450000D01*
X154700000Y-83900000D02*
X154700000Y-84100000D01*
X154700000Y-84100000D02*
X154200000Y-84100000D01*
X154700000Y-85900000D02*
X154700000Y-86100000D01*
X154700000Y-86100000D02*
X154200000Y-86100000D01*
X155700000Y-80940000D02*
X155700000Y-81550000D01*
X155700000Y-89060000D02*
X155700000Y-88450000D01*
X157000000Y-80940000D02*
X157000000Y-81550000D01*
X157000000Y-89060000D02*
X157000000Y-88450000D01*
X157700000Y-81550000D02*
X154200000Y-81550000D01*
X157700000Y-83500000D02*
X157700000Y-81550000D01*
X157700000Y-86500000D02*
X158310000Y-86500000D01*
X157700000Y-88450000D02*
X157700000Y-86500000D01*
X158310000Y-82700000D02*
X158510000Y-82700000D01*
X158310000Y-83500000D02*
X157700000Y-83500000D01*
X158410000Y-82700000D02*
X158410000Y-82400000D01*
X158510000Y-82400000D02*
X158310000Y-82400000D01*
X158510000Y-82700000D02*
X158510000Y-82400000D01*
X158610000Y-80640000D02*
X157360000Y-80640000D01*
X158610000Y-81890000D02*
X158610000Y-80640000D01*
X158310000Y-80940000D02*
X153590000Y-80940000D01*
X153590000Y-89060000D01*
X158310000Y-89060000D01*
X158310000Y-80940000D01*
%TO.C,C10*%
X197765000Y-73711252D02*
X197765000Y-73188748D01*
X199235000Y-73711252D02*
X199235000Y-73188748D01*
%TO.C,C17*%
X163788748Y-53590000D02*
X165211252Y-53590000D01*
X163788748Y-55410000D02*
X165211252Y-55410000D01*
%TO.C,C7*%
X193140000Y-86587836D02*
X193140000Y-86372164D01*
X193860000Y-86587836D02*
X193860000Y-86372164D01*
%TO.C,TP4*%
X217800000Y-71050000D02*
X220200000Y-71050000D01*
X217800000Y-73450000D02*
X217800000Y-71050000D01*
X220200000Y-71050000D02*
X220200000Y-73450000D01*
X220200000Y-73450000D02*
X217800000Y-73450000D01*
%TO.C,C9*%
X203765000Y-72711252D02*
X203765000Y-72188748D01*
X205235000Y-72711252D02*
X205235000Y-72188748D01*
%TO.C,R9*%
X215178641Y-64620000D02*
X214871359Y-64620000D01*
X215178641Y-65380000D02*
X214871359Y-65380000D01*
%TO.C,J1*%
X150780000Y-91840000D02*
X160820000Y-91840000D01*
X150780000Y-94200000D02*
X150780000Y-91840000D01*
X150780000Y-102240000D02*
X150780000Y-94800000D01*
X151400000Y-91840000D02*
X151400000Y-102240000D01*
X152900000Y-91840000D02*
X152900000Y-102240000D01*
X157800000Y-91840000D02*
X157800000Y-102240000D01*
X160820000Y-91840000D02*
X160820000Y-102240000D01*
X160820000Y-102240000D02*
X150780000Y-102240000D01*
X150780000Y-94500000D02*
X150170000Y-94940000D01*
X150170000Y-94060000D01*
X150780000Y-94500000D01*
G36*
X150780000Y-94500000D02*
G01*
X150170000Y-94940000D01*
X150170000Y-94060000D01*
X150780000Y-94500000D01*
G37*
%TO.C,R13*%
X156153641Y-54620000D02*
X155846359Y-54620000D01*
X156153641Y-55380000D02*
X155846359Y-55380000D01*
%TO.C,R2*%
X201120000Y-91663641D02*
X201120000Y-91356359D01*
X201880000Y-91663641D02*
X201880000Y-91356359D01*
%TO.C,U6*%
X163590000Y-74940000D02*
X165410000Y-74940000D01*
X163590000Y-74990000D02*
X163590000Y-74940000D01*
X163590000Y-76890000D02*
X163590000Y-76110000D01*
X163590000Y-78060000D02*
X163590000Y-78010000D01*
X165410000Y-74940000D02*
X165410000Y-74990000D01*
X165410000Y-78010000D02*
X165410000Y-78060000D01*
X165410000Y-78060000D02*
X163590000Y-78060000D01*
X166190000Y-78340000D02*
X165710000Y-78340000D01*
X165950000Y-78010000D01*
X166190000Y-78340000D01*
G36*
X166190000Y-78340000D02*
G01*
X165710000Y-78340000D01*
X165950000Y-78010000D01*
X166190000Y-78340000D01*
G37*
%TD*%
M02*
