%TF.GenerationSoftware,KiCad,Pcbnew,9.0.7*%
%TF.CreationDate,2026-03-13T00:39:54-07:00*%
%TF.ProjectId,Pulse_Box_PCB_v2,50756c73-655f-4426-9f78-5f5043425f76,rev?*%
%TF.SameCoordinates,Original*%
%TF.FileFunction,Copper,L2,Bot*%
%TF.FilePolarity,Positive*%
%FSLAX46Y46*%
G04 Gerber Fmt 4.6, Leading zero omitted, Abs format (unit mm)*
G04 Created by KiCad (PCBNEW 9.0.7) date 2026-03-13 00:39:54*
%MOMM*%
%LPD*%
G01*
G04 APERTURE LIST*
G04 Aperture macros list*
%AMRoundRect*
0 Rectangle with rounded corners*
0 $1 Rounding radius*
0 $2 $3 $4 $5 $6 $7 $8 $9 X,Y pos of 4 corners*
0 Add a 4 corners polygon primitive as box body*
4,1,4,$2,$3,$4,$5,$6,$7,$8,$9,$2,$3,0*
0 Add four circle primitives for the rounded corners*
1,1,$1+$1,$2,$3*
1,1,$1+$1,$4,$5*
1,1,$1+$1,$6,$7*
1,1,$1+$1,$8,$9*
0 Add four rect primitives between the rounded corners*
20,1,$1+$1,$2,$3,$4,$5,0*
20,1,$1+$1,$4,$5,$6,$7,0*
20,1,$1+$1,$6,$7,$8,$9,0*
20,1,$1+$1,$8,$9,$2,$3,0*%
G04 Aperture macros list end*
%TA.AperFunction,ComponentPad*%
%ADD10R,1.700000X1.700000*%
%TD*%
%TA.AperFunction,ComponentPad*%
%ADD11C,1.700000*%
%TD*%
%TA.AperFunction,ComponentPad*%
%ADD12RoundRect,0.250000X-0.600000X-0.725000X0.600000X-0.725000X0.600000X0.725000X-0.600000X0.725000X0*%
%TD*%
%TA.AperFunction,ComponentPad*%
%ADD13O,1.700000X1.950000*%
%TD*%
%TA.AperFunction,ComponentPad*%
%ADD14RoundRect,0.250000X0.725000X-0.600000X0.725000X0.600000X-0.725000X0.600000X-0.725000X-0.600000X0*%
%TD*%
%TA.AperFunction,ComponentPad*%
%ADD15O,1.950000X1.700000*%
%TD*%
%TA.AperFunction,HeatsinkPad*%
%ADD16C,0.600000*%
%TD*%
%TA.AperFunction,HeatsinkPad*%
%ADD17C,0.500000*%
%TD*%
%TA.AperFunction,HeatsinkPad*%
%ADD18R,1.800000X3.100000*%
%TD*%
%TA.AperFunction,ComponentPad*%
%ADD19RoundRect,0.250000X-0.625000X0.350000X-0.625000X-0.350000X0.625000X-0.350000X0.625000X0.350000X0*%
%TD*%
%TA.AperFunction,ComponentPad*%
%ADD20O,1.750000X1.200000*%
%TD*%
%TA.AperFunction,HeatsinkPad*%
%ADD21O,2.100000X1.000000*%
%TD*%
%TA.AperFunction,HeatsinkPad*%
%ADD22O,1.600000X1.000000*%
%TD*%
%TA.AperFunction,ComponentPad*%
%ADD23RoundRect,0.250000X-1.050000X1.050000X-1.050000X-1.050000X1.050000X-1.050000X1.050000X1.050000X0*%
%TD*%
%TA.AperFunction,ComponentPad*%
%ADD24C,2.600000*%
%TD*%
%TA.AperFunction,ViaPad*%
%ADD25C,0.600000*%
%TD*%
%TA.AperFunction,Conductor*%
%ADD26C,0.200000*%
%TD*%
%TA.AperFunction,Conductor*%
%ADD27C,0.500000*%
%TD*%
G04 APERTURE END LIST*
D10*
%TO.P,J6,1,Pin_1*%
%TO.N,GND*%
X200540000Y-54500000D03*
D11*
%TO.P,J6,2,Pin_2*%
%TO.N,UART0_RX*%
X198000000Y-54500000D03*
%TO.P,J6,3,Pin_3*%
%TO.N,UART0_TX*%
X195460000Y-54500000D03*
%TD*%
D12*
%TO.P,J2,1,Pin_1*%
%TO.N,+24V*%
X177500000Y-106000000D03*
D13*
%TO.P,J2,2,Pin_2*%
%TO.N,GND*%
X180000000Y-106000000D03*
%TO.P,J2,3,Pin_3*%
X182500000Y-106000000D03*
%TO.P,J2,4,Pin_4*%
%TO.N,UART2_TX*%
X185000000Y-106000000D03*
%TO.P,J2,5,Pin_5*%
%TO.N,unconnected-(J2-Pin_5-Pad5)*%
X187500000Y-106000000D03*
%TO.P,J2,6,Pin_6*%
%TO.N,PWM_OUT_N*%
X190000000Y-106000000D03*
%TO.P,J2,7,Pin_7*%
%TO.N,unconnected-(J2-Pin_7-Pad7)*%
X192500000Y-106000000D03*
%TO.P,J2,8,Pin_8*%
%TO.N,UART2_RX*%
X195000000Y-106000000D03*
%TO.P,J2,9,Pin_9*%
%TO.N,N_SENS*%
X197500000Y-106000000D03*
%TO.P,J2,10,Pin_10*%
%TO.N,GND*%
X200000000Y-106000000D03*
%TO.P,J2,11,Pin_11*%
%TO.N,+24V*%
X202500000Y-106000000D03*
%TD*%
D10*
%TO.P,J7,1,Pin_1*%
%TO.N,+3.3V*%
X219000000Y-79750000D03*
D11*
%TO.P,J7,2,Pin_2*%
%TO.N,+5V*%
X219000000Y-82290000D03*
%TO.P,J7,3,Pin_3*%
%TO.N,+24V*%
X219000000Y-84830000D03*
%TO.P,J7,4,Pin_4*%
%TO.N,GND*%
X219000000Y-87370000D03*
%TD*%
D14*
%TO.P,J3,1,Pin_1*%
%TO.N,+24V*%
X226000000Y-82000000D03*
D15*
%TO.P,J3,2,Pin_2*%
%TO.N,GND*%
X226000000Y-79500000D03*
%TO.P,J3,3,Pin_3*%
X226000000Y-77000000D03*
%TO.P,J3,4,Pin_4*%
%TO.N,UART1_TX*%
X226000000Y-74500000D03*
%TO.P,J3,5,Pin_5*%
%TO.N,unconnected-(J3-Pin_5-Pad5)*%
X226000000Y-72000000D03*
%TO.P,J3,6,Pin_6*%
%TO.N,PWM_OUT_E*%
X226000000Y-69500000D03*
%TO.P,J3,7,Pin_7*%
%TO.N,unconnected-(J3-Pin_7-Pad7)*%
X226000000Y-67000000D03*
%TO.P,J3,8,Pin_8*%
%TO.N,UART1_RX*%
X226000000Y-64500000D03*
%TO.P,J3,9,Pin_9*%
%TO.N,E_SENS*%
X226000000Y-62000000D03*
%TO.P,J3,10,Pin_10*%
%TO.N,GND*%
X226000000Y-59500000D03*
%TO.P,J3,11,Pin_11*%
%TO.N,+24V*%
X226000000Y-57000000D03*
%TD*%
D16*
%TO.P,U1,41,GND*%
%TO.N,GND*%
X174100000Y-59760000D03*
X174100000Y-61160000D03*
X174800000Y-59060000D03*
X174800000Y-60460000D03*
X174800000Y-61860000D03*
X175500000Y-59760000D03*
X175500000Y-61160000D03*
X176200000Y-59060000D03*
X176200000Y-60460000D03*
X176200000Y-61860000D03*
X176900000Y-59760000D03*
X176900000Y-61160000D03*
%TD*%
D17*
%TO.P,U3,9,GND*%
%TO.N,GND*%
X196000000Y-89000000D03*
X196000000Y-90300000D03*
X196000000Y-91600000D03*
D18*
X196650000Y-90300000D03*
D17*
X197300000Y-89000000D03*
X197300000Y-90300000D03*
X197300000Y-91600000D03*
%TD*%
D19*
%TO.P,J4,1,Pin_1*%
%TO.N,+5V*%
X156550000Y-73250000D03*
D20*
%TO.P,J4,2,Pin_2*%
%TO.N,PWM_5V*%
X156550000Y-75250000D03*
%TO.P,J4,3,Pin_3*%
%TO.N,GND*%
X156550000Y-77250000D03*
%TD*%
D21*
%TO.P,P1,S1,SHIELD*%
%TO.N,GND*%
X157430000Y-56930000D03*
D22*
X153250000Y-56930000D03*
D21*
X157430000Y-65570000D03*
D22*
X153250000Y-65570000D03*
%TD*%
D19*
%TO.P,J5,1,Pin_1*%
%TO.N,+5V*%
X156500000Y-83000000D03*
D20*
%TO.P,J5,2,Pin_2*%
%TO.N,PWM_DOUT*%
X156500000Y-85000000D03*
%TO.P,J5,3,Pin_3*%
%TO.N,GND*%
X156500000Y-87000000D03*
%TD*%
D23*
%TO.P,J1,1,Pin_1*%
%TO.N,GND*%
X155500000Y-94500000D03*
D24*
%TO.P,J1,2,Pin_2*%
%TO.N,+24V*%
X155500000Y-99580000D03*
%TD*%
D25*
%TO.N,GND*%
X170000000Y-53000000D03*
X182500000Y-67500000D03*
X198500000Y-68000000D03*
X161500000Y-80000000D03*
X171500000Y-93000000D03*
X161179468Y-64475000D03*
X171000000Y-92000000D03*
X186500000Y-87000000D03*
X199500000Y-68000000D03*
X170500000Y-93000000D03*
X189500000Y-54000000D03*
X200500000Y-68000000D03*
X212000000Y-61500000D03*
X172500000Y-67500000D03*
X215000000Y-53000000D03*
X194000000Y-80500000D03*
X189000000Y-87000000D03*
X190250000Y-65750000D03*
X217500000Y-67500000D03*
X191000000Y-73500000D03*
X171250000Y-84750000D03*
X191500000Y-87000000D03*
X199500000Y-67000000D03*
%TO.N,+3.3V*%
X207000000Y-58000000D03*
X206000000Y-62000000D03*
X219000000Y-76000000D03*
X219000000Y-74250000D03*
X166275000Y-60725000D03*
X174750000Y-72250000D03*
%TO.N,UART2_RX*%
X182750000Y-72500000D03*
X184750000Y-81250000D03*
X184750000Y-97500000D03*
%TO.N,Net-(U1-IO0)*%
X201500000Y-59000000D03*
X196750000Y-62500000D03*
%TO.N,UART1_RX*%
X207250000Y-68750000D03*
X199750000Y-62500000D03*
X203000000Y-65500000D03*
%TO.N,UART1_TX*%
X199000000Y-63250000D03*
X202000000Y-65500000D03*
%TO.N,UART2_TX*%
X183500000Y-82500000D03*
X183500000Y-100000000D03*
X181500000Y-72500000D03*
%TO.N,PWM_OUT_E*%
X171250000Y-83500000D03*
%TO.N,PWM_OUT_N*%
X177375000Y-93375000D03*
%TO.N,PWM_DOUT*%
X165750000Y-84250000D03*
%TO.N,PWM_3V3*%
X167505000Y-76500000D03*
X172500000Y-72250000D03*
%TO.N,PWM_SEL*%
X173719669Y-72280331D03*
X173750000Y-82500000D03*
%TO.N,Net-(C5-Pad2)*%
X201500000Y-94500000D03*
X201500000Y-93000000D03*
%TO.N,N_SENS*%
X180000000Y-72500000D03*
X182500000Y-95000000D03*
X182500000Y-82500000D03*
%TO.N,E_SENS*%
X224000000Y-62000000D03*
X220500000Y-62000000D03*
%TO.N,STATUS*%
X204000000Y-65500000D03*
X200500000Y-62000000D03*
%TO.N,Net-(U4-Y)*%
X170500000Y-87500000D03*
X171611765Y-86388235D03*
%TD*%
D26*
%TO.N,+3.3V*%
X219000000Y-76000000D02*
X219000000Y-74250000D01*
D27*
X174750000Y-72250000D02*
X166275000Y-63775000D01*
X207000000Y-58000000D02*
X206000000Y-59000000D01*
X206000000Y-59000000D02*
X206000000Y-62000000D01*
X166275000Y-63775000D02*
X166275000Y-60725000D01*
D26*
%TO.N,UART2_RX*%
X186500000Y-97500000D02*
X195000000Y-106000000D01*
X184750000Y-97500000D02*
X186500000Y-97500000D01*
X184750000Y-81250000D02*
X184750000Y-74500000D01*
X184750000Y-74500000D02*
X182750000Y-72500000D01*
%TO.N,Net-(U1-IO0)*%
X198000000Y-62500000D02*
X201500000Y-59000000D01*
X196750000Y-62500000D02*
X198000000Y-62500000D01*
%TO.N,UART1_RX*%
X199750000Y-62500000D02*
X200000000Y-62500000D01*
X224500000Y-64500000D02*
X226000000Y-64500000D01*
X223250000Y-65750000D02*
X224500000Y-64500000D01*
X200000000Y-62500000D02*
X203000000Y-65500000D01*
X221500000Y-68750000D02*
X223250000Y-67000000D01*
X223250000Y-67000000D02*
X223250000Y-65750000D01*
X207250000Y-68750000D02*
X221500000Y-68750000D01*
%TO.N,UART1_TX*%
X201250000Y-65500000D02*
X202000000Y-65500000D01*
X199000000Y-63250000D02*
X201250000Y-65500000D01*
%TO.N,UART2_TX*%
X183500000Y-100000000D02*
X185000000Y-101500000D01*
X181500000Y-72500000D02*
X183500000Y-74500000D01*
X185000000Y-101500000D02*
X185000000Y-106000000D01*
X183500000Y-74500000D02*
X183500000Y-82500000D01*
%TO.N,PWM_OUT_E*%
X183750000Y-83500000D02*
X197750000Y-69500000D01*
X171250000Y-83500000D02*
X183750000Y-83500000D01*
X197750000Y-69500000D02*
X226000000Y-69500000D01*
%TO.N,PWM_OUT_N*%
X177375000Y-93375000D02*
X177875000Y-93375000D01*
X190000000Y-105500000D02*
X190000000Y-106000000D01*
X177875000Y-93375000D02*
X190000000Y-105500000D01*
%TO.N,PWM_5V*%
X157250000Y-75750000D02*
X156550000Y-75750000D01*
%TO.N,PWM_DOUT*%
X165750000Y-84250000D02*
X165000000Y-85000000D01*
X165000000Y-85000000D02*
X156500000Y-85000000D01*
%TO.N,PWM_3V3*%
X168250000Y-76500000D02*
X167505000Y-76500000D01*
X172500000Y-72250000D02*
X168250000Y-76500000D01*
%TO.N,PWM_SEL*%
X173750000Y-82500000D02*
X173719669Y-82469669D01*
X173719669Y-82469669D02*
X173719669Y-72280331D01*
%TO.N,Net-(C5-Pad2)*%
X201500000Y-93000000D02*
X201500000Y-94500000D01*
%TO.N,N_SENS*%
X184000000Y-96500000D02*
X187000000Y-96500000D01*
X194750000Y-104250000D02*
X195750000Y-104250000D01*
X182500000Y-75000000D02*
X180000000Y-72500000D01*
X187000000Y-96500000D02*
X194750000Y-104250000D01*
X182500000Y-82500000D02*
X182500000Y-75000000D01*
X195750000Y-104250000D02*
X197500000Y-106000000D01*
X182500000Y-95000000D02*
X184000000Y-96500000D01*
%TO.N,E_SENS*%
X224000000Y-62000000D02*
X220500000Y-62000000D01*
%TO.N,STATUS*%
X204000000Y-65500000D02*
X200500000Y-62000000D01*
%TO.N,Net-(U4-Y)*%
X170500000Y-87500000D02*
X171611765Y-86388235D01*
%TD*%
%TA.AperFunction,Conductor*%
%TO.N,GND*%
G36*
X229442539Y-51019685D02*
G01*
X229488294Y-51072489D01*
X229499500Y-51124000D01*
X229499500Y-109375500D01*
X229479815Y-109442539D01*
X229427011Y-109488294D01*
X229375500Y-109499500D01*
X150624500Y-109499500D01*
X150557461Y-109479815D01*
X150511706Y-109427011D01*
X150500500Y-109375500D01*
X150500500Y-105224983D01*
X176149500Y-105224983D01*
X176149500Y-106775001D01*
X176149501Y-106775018D01*
X176160000Y-106877796D01*
X176160001Y-106877799D01*
X176202081Y-107004786D01*
X176215186Y-107044334D01*
X176307288Y-107193656D01*
X176431344Y-107317712D01*
X176580666Y-107409814D01*
X176747203Y-107464999D01*
X176849991Y-107475500D01*
X178150008Y-107475499D01*
X178252797Y-107464999D01*
X178419334Y-107409814D01*
X178568656Y-107317712D01*
X178692712Y-107193656D01*
X178784814Y-107044334D01*
X178839999Y-106877797D01*
X178850500Y-106775009D01*
X178850499Y-105224992D01*
X178839999Y-105122203D01*
X178784814Y-104955666D01*
X178692712Y-104806344D01*
X178568656Y-104682288D01*
X178473253Y-104623443D01*
X178419336Y-104590187D01*
X178419331Y-104590185D01*
X178409577Y-104586953D01*
X178252797Y-104535001D01*
X178252795Y-104535000D01*
X178150010Y-104524500D01*
X176849998Y-104524500D01*
X176849981Y-104524501D01*
X176747203Y-104535000D01*
X176747200Y-104535001D01*
X176580668Y-104590185D01*
X176580663Y-104590187D01*
X176431342Y-104682289D01*
X176307289Y-104806342D01*
X176215187Y-104955663D01*
X176215186Y-104955666D01*
X176160001Y-105122203D01*
X176160001Y-105122204D01*
X176160000Y-105122204D01*
X176149500Y-105224983D01*
X150500500Y-105224983D01*
X150500500Y-99461995D01*
X153699500Y-99461995D01*
X153699500Y-99698004D01*
X153699501Y-99698020D01*
X153730306Y-99932010D01*
X153791394Y-100159993D01*
X153881714Y-100378045D01*
X153881719Y-100378056D01*
X153952677Y-100500957D01*
X153999727Y-100582450D01*
X153999729Y-100582453D01*
X153999730Y-100582454D01*
X154143406Y-100769697D01*
X154143412Y-100769704D01*
X154310295Y-100936587D01*
X154310301Y-100936592D01*
X154497550Y-101080273D01*
X154628918Y-101156118D01*
X154701943Y-101198280D01*
X154701948Y-101198282D01*
X154701951Y-101198284D01*
X154920007Y-101288606D01*
X155147986Y-101349693D01*
X155381989Y-101380500D01*
X155381996Y-101380500D01*
X155618004Y-101380500D01*
X155618011Y-101380500D01*
X155852014Y-101349693D01*
X156079993Y-101288606D01*
X156298049Y-101198284D01*
X156502450Y-101080273D01*
X156689699Y-100936592D01*
X156856592Y-100769699D01*
X157000273Y-100582450D01*
X157118284Y-100378049D01*
X157208606Y-100159993D01*
X157269693Y-99932014D01*
X157300500Y-99698011D01*
X157300500Y-99461989D01*
X157269693Y-99227986D01*
X157208606Y-99000007D01*
X157118284Y-98781951D01*
X157118282Y-98781948D01*
X157118280Y-98781943D01*
X157076118Y-98708918D01*
X157000273Y-98577550D01*
X156856592Y-98390301D01*
X156856587Y-98390295D01*
X156689704Y-98223412D01*
X156689697Y-98223406D01*
X156502454Y-98079730D01*
X156502453Y-98079729D01*
X156502450Y-98079727D01*
X156420957Y-98032677D01*
X156298056Y-97961719D01*
X156298045Y-97961714D01*
X156079993Y-97871394D01*
X155852010Y-97810306D01*
X155618020Y-97779501D01*
X155618017Y-97779500D01*
X155618011Y-97779500D01*
X155381989Y-97779500D01*
X155381983Y-97779500D01*
X155381979Y-97779501D01*
X155147989Y-97810306D01*
X154920006Y-97871394D01*
X154701954Y-97961714D01*
X154701943Y-97961719D01*
X154497545Y-98079730D01*
X154310302Y-98223406D01*
X154310295Y-98223412D01*
X154143412Y-98390295D01*
X154143406Y-98390302D01*
X153999730Y-98577545D01*
X153881719Y-98781943D01*
X153881714Y-98781954D01*
X153791394Y-99000006D01*
X153730306Y-99227989D01*
X153699501Y-99461979D01*
X153699500Y-99461995D01*
X150500500Y-99461995D01*
X150500500Y-93296153D01*
X176574500Y-93296153D01*
X176574500Y-93453846D01*
X176605261Y-93608489D01*
X176605264Y-93608501D01*
X176665602Y-93754172D01*
X176665609Y-93754185D01*
X176753210Y-93885288D01*
X176753213Y-93885292D01*
X176864707Y-93996786D01*
X176864711Y-93996789D01*
X176995814Y-94084390D01*
X176995827Y-94084397D01*
X177085816Y-94121671D01*
X177141503Y-94144737D01*
X177296153Y-94175499D01*
X177296156Y-94175500D01*
X177296158Y-94175500D01*
X177453844Y-94175500D01*
X177453845Y-94175499D01*
X177608497Y-94144737D01*
X177664182Y-94121670D01*
X177733651Y-94114202D01*
X177796130Y-94145477D01*
X177799316Y-94148551D01*
X182921662Y-99270897D01*
X182955147Y-99332220D01*
X182950163Y-99401912D01*
X182921662Y-99446259D01*
X182878213Y-99489707D01*
X182878210Y-99489711D01*
X182790609Y-99620814D01*
X182790602Y-99620827D01*
X182730264Y-99766498D01*
X182730261Y-99766510D01*
X182699500Y-99921153D01*
X182699500Y-100078846D01*
X182730261Y-100233489D01*
X182730264Y-100233501D01*
X182790602Y-100379172D01*
X182790609Y-100379185D01*
X182878210Y-100510288D01*
X182878213Y-100510292D01*
X182989707Y-100621786D01*
X182989711Y-100621789D01*
X183120814Y-100709390D01*
X183120827Y-100709397D01*
X183266406Y-100769697D01*
X183266503Y-100769737D01*
X183331147Y-100782595D01*
X183421849Y-100800638D01*
X183483760Y-100833023D01*
X183485339Y-100834574D01*
X184363181Y-101712416D01*
X184396666Y-101773739D01*
X184399500Y-101800097D01*
X184399500Y-104589281D01*
X184379815Y-104656320D01*
X184331795Y-104699765D01*
X184292185Y-104719947D01*
X184292184Y-104719948D01*
X184120213Y-104844890D01*
X183969890Y-104995213D01*
X183844951Y-105167179D01*
X183748444Y-105356585D01*
X183682753Y-105558760D01*
X183649500Y-105768713D01*
X183649500Y-106231286D01*
X183682753Y-106441239D01*
X183748444Y-106643414D01*
X183844951Y-106832820D01*
X183969890Y-107004786D01*
X184120213Y-107155109D01*
X184292179Y-107280048D01*
X184292181Y-107280049D01*
X184292184Y-107280051D01*
X184481588Y-107376557D01*
X184683757Y-107442246D01*
X184893713Y-107475500D01*
X184893714Y-107475500D01*
X185106286Y-107475500D01*
X185106287Y-107475500D01*
X185316243Y-107442246D01*
X185518412Y-107376557D01*
X185707816Y-107280051D01*
X185729789Y-107264086D01*
X185879786Y-107155109D01*
X185879788Y-107155106D01*
X185879792Y-107155104D01*
X186030104Y-107004792D01*
X186149683Y-106840204D01*
X186205011Y-106797540D01*
X186274624Y-106791561D01*
X186336420Y-106824166D01*
X186350313Y-106840199D01*
X186469892Y-107004786D01*
X186469896Y-107004792D01*
X186620213Y-107155109D01*
X186792179Y-107280048D01*
X186792181Y-107280049D01*
X186792184Y-107280051D01*
X186981588Y-107376557D01*
X187183757Y-107442246D01*
X187393713Y-107475500D01*
X187393714Y-107475500D01*
X187606286Y-107475500D01*
X187606287Y-107475500D01*
X187816243Y-107442246D01*
X188018412Y-107376557D01*
X188207816Y-107280051D01*
X188229789Y-107264086D01*
X188379786Y-107155109D01*
X188379788Y-107155106D01*
X188379792Y-107155104D01*
X188530104Y-107004792D01*
X188649683Y-106840204D01*
X188705011Y-106797540D01*
X188774624Y-106791561D01*
X188836420Y-106824166D01*
X188850313Y-106840199D01*
X188969892Y-107004786D01*
X188969896Y-107004792D01*
X189120213Y-107155109D01*
X189292179Y-107280048D01*
X189292181Y-107280049D01*
X189292184Y-107280051D01*
X189481588Y-107376557D01*
X189683757Y-107442246D01*
X189893713Y-107475500D01*
X189893714Y-107475500D01*
X190106286Y-107475500D01*
X190106287Y-107475500D01*
X190316243Y-107442246D01*
X190518412Y-107376557D01*
X190707816Y-107280051D01*
X190729789Y-107264086D01*
X190879786Y-107155109D01*
X190879788Y-107155106D01*
X190879792Y-107155104D01*
X191030104Y-107004792D01*
X191149683Y-106840204D01*
X191205011Y-106797540D01*
X191274624Y-106791561D01*
X191336420Y-106824166D01*
X191350313Y-106840199D01*
X191469892Y-107004786D01*
X191469896Y-107004792D01*
X191620213Y-107155109D01*
X191792179Y-107280048D01*
X191792181Y-107280049D01*
X191792184Y-107280051D01*
X191981588Y-107376557D01*
X192183757Y-107442246D01*
X192393713Y-107475500D01*
X192393714Y-107475500D01*
X192606286Y-107475500D01*
X192606287Y-107475500D01*
X192816243Y-107442246D01*
X193018412Y-107376557D01*
X193207816Y-107280051D01*
X193229789Y-107264086D01*
X193379786Y-107155109D01*
X193379788Y-107155106D01*
X193379792Y-107155104D01*
X193530104Y-107004792D01*
X193649683Y-106840204D01*
X193705011Y-106797540D01*
X193774624Y-106791561D01*
X193836420Y-106824166D01*
X193850313Y-106840199D01*
X193969892Y-107004786D01*
X193969896Y-107004792D01*
X194120213Y-107155109D01*
X194292179Y-107280048D01*
X194292181Y-107280049D01*
X194292184Y-107280051D01*
X194481588Y-107376557D01*
X194683757Y-107442246D01*
X194893713Y-107475500D01*
X194893714Y-107475500D01*
X195106286Y-107475500D01*
X195106287Y-107475500D01*
X195316243Y-107442246D01*
X195518412Y-107376557D01*
X195707816Y-107280051D01*
X195729789Y-107264086D01*
X195879786Y-107155109D01*
X195879788Y-107155106D01*
X195879792Y-107155104D01*
X196030104Y-107004792D01*
X196149683Y-106840204D01*
X196205011Y-106797540D01*
X196274624Y-106791561D01*
X196336420Y-106824166D01*
X196350313Y-106840199D01*
X196469892Y-107004786D01*
X196469896Y-107004792D01*
X196620213Y-107155109D01*
X196792179Y-107280048D01*
X196792181Y-107280049D01*
X196792184Y-107280051D01*
X196981588Y-107376557D01*
X197183757Y-107442246D01*
X197393713Y-107475500D01*
X197393714Y-107475500D01*
X197606286Y-107475500D01*
X197606287Y-107475500D01*
X197816243Y-107442246D01*
X198018412Y-107376557D01*
X198207816Y-107280051D01*
X198229789Y-107264086D01*
X198379786Y-107155109D01*
X198379788Y-107155106D01*
X198379792Y-107155104D01*
X198530104Y-107004792D01*
X198530106Y-107004788D01*
X198530109Y-107004786D01*
X198655048Y-106832820D01*
X198655047Y-106832820D01*
X198655051Y-106832816D01*
X198751557Y-106643412D01*
X198817246Y-106441243D01*
X198850500Y-106231287D01*
X198850500Y-105768713D01*
X201149500Y-105768713D01*
X201149500Y-106231286D01*
X201182753Y-106441239D01*
X201248444Y-106643414D01*
X201344951Y-106832820D01*
X201469890Y-107004786D01*
X201620213Y-107155109D01*
X201792179Y-107280048D01*
X201792181Y-107280049D01*
X201792184Y-107280051D01*
X201981588Y-107376557D01*
X202183757Y-107442246D01*
X202393713Y-107475500D01*
X202393714Y-107475500D01*
X202606286Y-107475500D01*
X202606287Y-107475500D01*
X202816243Y-107442246D01*
X203018412Y-107376557D01*
X203207816Y-107280051D01*
X203229789Y-107264086D01*
X203379786Y-107155109D01*
X203379788Y-107155106D01*
X203379792Y-107155104D01*
X203530104Y-107004792D01*
X203530106Y-107004788D01*
X203530109Y-107004786D01*
X203655048Y-106832820D01*
X203655047Y-106832820D01*
X203655051Y-106832816D01*
X203751557Y-106643412D01*
X203817246Y-106441243D01*
X203850500Y-106231287D01*
X203850500Y-105768713D01*
X203817246Y-105558757D01*
X203751557Y-105356588D01*
X203655051Y-105167184D01*
X203655049Y-105167181D01*
X203655048Y-105167179D01*
X203530109Y-104995213D01*
X203379786Y-104844890D01*
X203207820Y-104719951D01*
X203018414Y-104623444D01*
X203018413Y-104623443D01*
X203018412Y-104623443D01*
X202816243Y-104557754D01*
X202816241Y-104557753D01*
X202816240Y-104557753D01*
X202642837Y-104530289D01*
X202606287Y-104524500D01*
X202393713Y-104524500D01*
X202357163Y-104530289D01*
X202183760Y-104557753D01*
X201981585Y-104623444D01*
X201792179Y-104719951D01*
X201620213Y-104844890D01*
X201469890Y-104995213D01*
X201344951Y-105167179D01*
X201248444Y-105356585D01*
X201182753Y-105558760D01*
X201149500Y-105768713D01*
X198850500Y-105768713D01*
X198817246Y-105558757D01*
X198751557Y-105356588D01*
X198655051Y-105167184D01*
X198655049Y-105167181D01*
X198655048Y-105167179D01*
X198530109Y-104995213D01*
X198379786Y-104844890D01*
X198207820Y-104719951D01*
X198018414Y-104623444D01*
X198018413Y-104623443D01*
X198018412Y-104623443D01*
X197816243Y-104557754D01*
X197816241Y-104557753D01*
X197816240Y-104557753D01*
X197642837Y-104530289D01*
X197606287Y-104524500D01*
X197393713Y-104524500D01*
X197357163Y-104530289D01*
X197183760Y-104557753D01*
X197183757Y-104557754D01*
X197047129Y-104602147D01*
X196977290Y-104604142D01*
X196921132Y-104571897D01*
X196237590Y-103888355D01*
X196237588Y-103888352D01*
X196118717Y-103769481D01*
X196118716Y-103769480D01*
X196031904Y-103719360D01*
X196031904Y-103719359D01*
X196031900Y-103719358D01*
X195981785Y-103690423D01*
X195829057Y-103649499D01*
X195670943Y-103649499D01*
X195663347Y-103649499D01*
X195663331Y-103649500D01*
X195050097Y-103649500D01*
X195020656Y-103640855D01*
X194990670Y-103634332D01*
X194985654Y-103630577D01*
X194983058Y-103629815D01*
X194962416Y-103613181D01*
X194727946Y-103378711D01*
X221649500Y-103378711D01*
X221649500Y-103621288D01*
X221681161Y-103861785D01*
X221743947Y-104096104D01*
X221834170Y-104313920D01*
X221836776Y-104320212D01*
X221958064Y-104530289D01*
X221958066Y-104530292D01*
X221958067Y-104530293D01*
X222105733Y-104722736D01*
X222105739Y-104722743D01*
X222277256Y-104894260D01*
X222277263Y-104894266D01*
X222357284Y-104955668D01*
X222469711Y-105041936D01*
X222679788Y-105163224D01*
X222903900Y-105256054D01*
X223138211Y-105318838D01*
X223318586Y-105342584D01*
X223378711Y-105350500D01*
X223378712Y-105350500D01*
X223621289Y-105350500D01*
X223669388Y-105344167D01*
X223861789Y-105318838D01*
X224096100Y-105256054D01*
X224320212Y-105163224D01*
X224530289Y-105041936D01*
X224722738Y-104894265D01*
X224894265Y-104722738D01*
X225041936Y-104530289D01*
X225163224Y-104320212D01*
X225256054Y-104096100D01*
X225318838Y-103861789D01*
X225350500Y-103621288D01*
X225350500Y-103378712D01*
X225318838Y-103138211D01*
X225256054Y-102903900D01*
X225163224Y-102679788D01*
X225041936Y-102469711D01*
X224894265Y-102277262D01*
X224894260Y-102277256D01*
X224722743Y-102105739D01*
X224722736Y-102105733D01*
X224530293Y-101958067D01*
X224530292Y-101958066D01*
X224530289Y-101958064D01*
X224320212Y-101836776D01*
X224320205Y-101836773D01*
X224096104Y-101743947D01*
X223861785Y-101681161D01*
X223621289Y-101649500D01*
X223621288Y-101649500D01*
X223378712Y-101649500D01*
X223378711Y-101649500D01*
X223138214Y-101681161D01*
X222903895Y-101743947D01*
X222679794Y-101836773D01*
X222679785Y-101836777D01*
X222469706Y-101958067D01*
X222277263Y-102105733D01*
X222277256Y-102105739D01*
X222105739Y-102277256D01*
X222105733Y-102277263D01*
X221958067Y-102469706D01*
X221836777Y-102679785D01*
X221836773Y-102679794D01*
X221743947Y-102903895D01*
X221681161Y-103138214D01*
X221649500Y-103378711D01*
X194727946Y-103378711D01*
X187487590Y-96138355D01*
X187487588Y-96138352D01*
X187368717Y-96019481D01*
X187368716Y-96019480D01*
X187281904Y-95969360D01*
X187281904Y-95969359D01*
X187281900Y-95969358D01*
X187231785Y-95940423D01*
X187079057Y-95899499D01*
X186920943Y-95899499D01*
X186913347Y-95899499D01*
X186913331Y-95899500D01*
X184300097Y-95899500D01*
X184233058Y-95879815D01*
X184212416Y-95863181D01*
X183334574Y-94985339D01*
X183301089Y-94924016D01*
X183300638Y-94921849D01*
X183269738Y-94766510D01*
X183269737Y-94766503D01*
X183256062Y-94733489D01*
X183209397Y-94620827D01*
X183209390Y-94620814D01*
X183121789Y-94489711D01*
X183121786Y-94489707D01*
X183010292Y-94378213D01*
X183010288Y-94378210D01*
X182879185Y-94290609D01*
X182879172Y-94290602D01*
X182733501Y-94230264D01*
X182733489Y-94230261D01*
X182578845Y-94199500D01*
X182578842Y-94199500D01*
X182421158Y-94199500D01*
X182421155Y-94199500D01*
X182266510Y-94230261D01*
X182266498Y-94230264D01*
X182120827Y-94290602D01*
X182120814Y-94290609D01*
X181989711Y-94378210D01*
X181989707Y-94378213D01*
X181878213Y-94489707D01*
X181878210Y-94489711D01*
X181790609Y-94620814D01*
X181790602Y-94620827D01*
X181730264Y-94766498D01*
X181730261Y-94766510D01*
X181699500Y-94921153D01*
X181699500Y-95078846D01*
X181730261Y-95233489D01*
X181730264Y-95233501D01*
X181790602Y-95379172D01*
X181790609Y-95379185D01*
X181878210Y-95510288D01*
X181878213Y-95510292D01*
X181989707Y-95621786D01*
X181989711Y-95621789D01*
X182120814Y-95709390D01*
X182120827Y-95709397D01*
X182266498Y-95769735D01*
X182266503Y-95769737D01*
X182331147Y-95782595D01*
X182421849Y-95800638D01*
X182483760Y-95833023D01*
X182485339Y-95834574D01*
X183515139Y-96864374D01*
X183515149Y-96864385D01*
X183519479Y-96868715D01*
X183519480Y-96868716D01*
X183631284Y-96980520D01*
X183631286Y-96980521D01*
X183631290Y-96980524D01*
X183768209Y-97059573D01*
X183768216Y-97059577D01*
X183880019Y-97089534D01*
X183899657Y-97094796D01*
X183959314Y-97131162D01*
X183989842Y-97194010D01*
X183982120Y-97262019D01*
X183980264Y-97266498D01*
X183980261Y-97266510D01*
X183949500Y-97421153D01*
X183949500Y-97578846D01*
X183980261Y-97733489D01*
X183980264Y-97733501D01*
X184040602Y-97879172D01*
X184040609Y-97879185D01*
X184128210Y-98010288D01*
X184128213Y-98010292D01*
X184239707Y-98121786D01*
X184239711Y-98121789D01*
X184370814Y-98209390D01*
X184370827Y-98209397D01*
X184516498Y-98269735D01*
X184516503Y-98269737D01*
X184671153Y-98300499D01*
X184671156Y-98300500D01*
X184671158Y-98300500D01*
X184828844Y-98300500D01*
X184828845Y-98300499D01*
X184983497Y-98269737D01*
X185129179Y-98209394D01*
X185129185Y-98209390D01*
X185260875Y-98121398D01*
X185327553Y-98100520D01*
X185329766Y-98100500D01*
X186199903Y-98100500D01*
X186266942Y-98120185D01*
X186287584Y-98136819D01*
X192464685Y-104313920D01*
X192498170Y-104375243D01*
X192493186Y-104444935D01*
X192451314Y-104500868D01*
X192396402Y-104524074D01*
X192183760Y-104557753D01*
X191981585Y-104623444D01*
X191792179Y-104719951D01*
X191620213Y-104844890D01*
X191469894Y-104995209D01*
X191469890Y-104995214D01*
X191350318Y-105159793D01*
X191294989Y-105202459D01*
X191225375Y-105208438D01*
X191163580Y-105175833D01*
X191149682Y-105159793D01*
X191030109Y-104995214D01*
X191030105Y-104995209D01*
X190879786Y-104844890D01*
X190707820Y-104719951D01*
X190518414Y-104623444D01*
X190518413Y-104623443D01*
X190518412Y-104623443D01*
X190316243Y-104557754D01*
X190316241Y-104557753D01*
X190316240Y-104557753D01*
X190142837Y-104530289D01*
X190106287Y-104524500D01*
X189925097Y-104524500D01*
X189858058Y-104504815D01*
X189837416Y-104488181D01*
X178362586Y-93013351D01*
X178351979Y-93002743D01*
X178270389Y-92921153D01*
X200699500Y-92921153D01*
X200699500Y-93078846D01*
X200730261Y-93233489D01*
X200730264Y-93233501D01*
X200790602Y-93379172D01*
X200790609Y-93379185D01*
X200878602Y-93510874D01*
X200899480Y-93577551D01*
X200899500Y-93579765D01*
X200899500Y-93920234D01*
X200879815Y-93987273D01*
X200878602Y-93989125D01*
X200790609Y-94120814D01*
X200790602Y-94120827D01*
X200730264Y-94266498D01*
X200730261Y-94266510D01*
X200699500Y-94421153D01*
X200699500Y-94578846D01*
X200730261Y-94733489D01*
X200730264Y-94733501D01*
X200790602Y-94879172D01*
X200790609Y-94879185D01*
X200878210Y-95010288D01*
X200878213Y-95010292D01*
X200989707Y-95121786D01*
X200989711Y-95121789D01*
X201120814Y-95209390D01*
X201120827Y-95209397D01*
X201266498Y-95269735D01*
X201266503Y-95269737D01*
X201421153Y-95300499D01*
X201421156Y-95300500D01*
X201421158Y-95300500D01*
X201578844Y-95300500D01*
X201578845Y-95300499D01*
X201733497Y-95269737D01*
X201879179Y-95209394D01*
X202010289Y-95121789D01*
X202121789Y-95010289D01*
X202209394Y-94879179D01*
X202269737Y-94733497D01*
X202300500Y-94578842D01*
X202300500Y-94421158D01*
X202300500Y-94421155D01*
X202300499Y-94421153D01*
X202274531Y-94290606D01*
X202269737Y-94266503D01*
X202269735Y-94266498D01*
X202209397Y-94120827D01*
X202209390Y-94120814D01*
X202121398Y-93989125D01*
X202100520Y-93922447D01*
X202100500Y-93920234D01*
X202100500Y-93579765D01*
X202120185Y-93512726D01*
X202121398Y-93510874D01*
X202209390Y-93379185D01*
X202209390Y-93379184D01*
X202209394Y-93379179D01*
X202269737Y-93233497D01*
X202300500Y-93078842D01*
X202300500Y-92921158D01*
X202300500Y-92921155D01*
X202300499Y-92921153D01*
X202285224Y-92844360D01*
X202269737Y-92766503D01*
X202227946Y-92665609D01*
X202209397Y-92620827D01*
X202209390Y-92620814D01*
X202121789Y-92489711D01*
X202121786Y-92489707D01*
X202010292Y-92378213D01*
X202010288Y-92378210D01*
X201879185Y-92290609D01*
X201879172Y-92290602D01*
X201733501Y-92230264D01*
X201733489Y-92230261D01*
X201578845Y-92199500D01*
X201578842Y-92199500D01*
X201421158Y-92199500D01*
X201421155Y-92199500D01*
X201266510Y-92230261D01*
X201266498Y-92230264D01*
X201120827Y-92290602D01*
X201120814Y-92290609D01*
X200989711Y-92378210D01*
X200989707Y-92378213D01*
X200878213Y-92489707D01*
X200878210Y-92489711D01*
X200790609Y-92620814D01*
X200790602Y-92620827D01*
X200730264Y-92766498D01*
X200730261Y-92766510D01*
X200699500Y-92921153D01*
X178270389Y-92921153D01*
X178243717Y-92894481D01*
X178243716Y-92894480D01*
X178156904Y-92844360D01*
X178156904Y-92844359D01*
X178156900Y-92844358D01*
X178106785Y-92815423D01*
X177954054Y-92774498D01*
X177945997Y-92773438D01*
X177946188Y-92771981D01*
X177887725Y-92754814D01*
X177885873Y-92753601D01*
X177754185Y-92665609D01*
X177754172Y-92665602D01*
X177608501Y-92605264D01*
X177608489Y-92605261D01*
X177453845Y-92574500D01*
X177453842Y-92574500D01*
X177296158Y-92574500D01*
X177296155Y-92574500D01*
X177141510Y-92605261D01*
X177141498Y-92605264D01*
X176995827Y-92665602D01*
X176995814Y-92665609D01*
X176864711Y-92753210D01*
X176864707Y-92753213D01*
X176753213Y-92864707D01*
X176753210Y-92864711D01*
X176665609Y-92995814D01*
X176665602Y-92995827D01*
X176605264Y-93141498D01*
X176605261Y-93141510D01*
X176574500Y-93296153D01*
X150500500Y-93296153D01*
X150500500Y-87421153D01*
X169699500Y-87421153D01*
X169699500Y-87578846D01*
X169730261Y-87733489D01*
X169730264Y-87733501D01*
X169790602Y-87879172D01*
X169790609Y-87879185D01*
X169878210Y-88010288D01*
X169878213Y-88010292D01*
X169989707Y-88121786D01*
X169989711Y-88121789D01*
X170120814Y-88209390D01*
X170120827Y-88209397D01*
X170266498Y-88269735D01*
X170266503Y-88269737D01*
X170421153Y-88300499D01*
X170421156Y-88300500D01*
X170421158Y-88300500D01*
X170578844Y-88300500D01*
X170578845Y-88300499D01*
X170733497Y-88269737D01*
X170879179Y-88209394D01*
X171010289Y-88121789D01*
X171121789Y-88010289D01*
X171209394Y-87879179D01*
X171269737Y-87733497D01*
X171289113Y-87636085D01*
X171300638Y-87578150D01*
X171333023Y-87516239D01*
X171334518Y-87514716D01*
X171626427Y-87222807D01*
X171687748Y-87189324D01*
X171689915Y-87188873D01*
X171747850Y-87177348D01*
X171845262Y-87157972D01*
X171990944Y-87097629D01*
X172122054Y-87010024D01*
X172233554Y-86898524D01*
X172321159Y-86767414D01*
X172381502Y-86621732D01*
X172412265Y-86467077D01*
X172412265Y-86309393D01*
X172412265Y-86309390D01*
X172412264Y-86309388D01*
X172381503Y-86154745D01*
X172381503Y-86154743D01*
X172381502Y-86154738D01*
X172325639Y-86019871D01*
X172321162Y-86009062D01*
X172321155Y-86009049D01*
X172233554Y-85877946D01*
X172233551Y-85877942D01*
X172122057Y-85766448D01*
X172122053Y-85766445D01*
X171990950Y-85678844D01*
X171990937Y-85678837D01*
X171845266Y-85618499D01*
X171845254Y-85618496D01*
X171690610Y-85587735D01*
X171690607Y-85587735D01*
X171532923Y-85587735D01*
X171532920Y-85587735D01*
X171378275Y-85618496D01*
X171378263Y-85618499D01*
X171232592Y-85678837D01*
X171232579Y-85678844D01*
X171101476Y-85766445D01*
X171101472Y-85766448D01*
X170989978Y-85877942D01*
X170989975Y-85877946D01*
X170902374Y-86009049D01*
X170902367Y-86009062D01*
X170842029Y-86154733D01*
X170842026Y-86154743D01*
X170811126Y-86310085D01*
X170778741Y-86371996D01*
X170777190Y-86373574D01*
X170485339Y-86665425D01*
X170424016Y-86698910D01*
X170421850Y-86699361D01*
X170266508Y-86730261D01*
X170266498Y-86730264D01*
X170120827Y-86790602D01*
X170120814Y-86790609D01*
X169989711Y-86878210D01*
X169989707Y-86878213D01*
X169878213Y-86989707D01*
X169878210Y-86989711D01*
X169790609Y-87120814D01*
X169790602Y-87120827D01*
X169730264Y-87266498D01*
X169730261Y-87266510D01*
X169699500Y-87421153D01*
X150500500Y-87421153D01*
X150500500Y-82599983D01*
X155124500Y-82599983D01*
X155124500Y-83400001D01*
X155124501Y-83400019D01*
X155135000Y-83502796D01*
X155135001Y-83502799D01*
X155190185Y-83669331D01*
X155190187Y-83669336D01*
X155225069Y-83725888D01*
X155282288Y-83818656D01*
X155406344Y-83942712D01*
X155467639Y-83980519D01*
X155470543Y-83982310D01*
X155517268Y-84034258D01*
X155528489Y-84103221D01*
X155500646Y-84167303D01*
X155493128Y-84175530D01*
X155385585Y-84283073D01*
X155283768Y-84423211D01*
X155205128Y-84577552D01*
X155151597Y-84742302D01*
X155148748Y-84760292D01*
X155124500Y-84913389D01*
X155124500Y-85086611D01*
X155151598Y-85257701D01*
X155205127Y-85422445D01*
X155283768Y-85576788D01*
X155385586Y-85716928D01*
X155508072Y-85839414D01*
X155648212Y-85941232D01*
X155802555Y-86019873D01*
X155967299Y-86073402D01*
X156138389Y-86100500D01*
X156138390Y-86100500D01*
X156861610Y-86100500D01*
X156861611Y-86100500D01*
X157032701Y-86073402D01*
X157197445Y-86019873D01*
X157351788Y-85941232D01*
X157491928Y-85839414D01*
X157614414Y-85716928D01*
X157661868Y-85651613D01*
X157717197Y-85608949D01*
X157762185Y-85600500D01*
X164913331Y-85600500D01*
X164913347Y-85600501D01*
X164920943Y-85600501D01*
X165079054Y-85600501D01*
X165079057Y-85600501D01*
X165231785Y-85559577D01*
X165281904Y-85530639D01*
X165368716Y-85480520D01*
X165480520Y-85368716D01*
X165480520Y-85368714D01*
X165490728Y-85358507D01*
X165490729Y-85358504D01*
X165764661Y-85084572D01*
X165825983Y-85051089D01*
X165828150Y-85050638D01*
X165886085Y-85039113D01*
X165983497Y-85019737D01*
X166129179Y-84959394D01*
X166260289Y-84871789D01*
X166371789Y-84760289D01*
X166459394Y-84629179D01*
X166519737Y-84483497D01*
X166550500Y-84328842D01*
X166550500Y-84171158D01*
X166550500Y-84171155D01*
X166550499Y-84171153D01*
X166523379Y-84034814D01*
X166519737Y-84016503D01*
X166505574Y-83982310D01*
X166459397Y-83870827D01*
X166459390Y-83870814D01*
X166371789Y-83739711D01*
X166371786Y-83739707D01*
X166260292Y-83628213D01*
X166260288Y-83628210D01*
X166129185Y-83540609D01*
X166129172Y-83540602D01*
X165983501Y-83480264D01*
X165983489Y-83480261D01*
X165828845Y-83449500D01*
X165828842Y-83449500D01*
X165671158Y-83449500D01*
X165671155Y-83449500D01*
X165516510Y-83480261D01*
X165516498Y-83480264D01*
X165370827Y-83540602D01*
X165370814Y-83540609D01*
X165239711Y-83628210D01*
X165239707Y-83628213D01*
X165128213Y-83739707D01*
X165128210Y-83739711D01*
X165040609Y-83870814D01*
X165040602Y-83870827D01*
X164980264Y-84016498D01*
X164980261Y-84016508D01*
X164949361Y-84171850D01*
X164940595Y-84188607D01*
X164936576Y-84207084D01*
X164917831Y-84232125D01*
X164916976Y-84233761D01*
X164915426Y-84235339D01*
X164787582Y-84363182D01*
X164726262Y-84396666D01*
X164699903Y-84399500D01*
X157762185Y-84399500D01*
X157695146Y-84379815D01*
X157661867Y-84348386D01*
X157614414Y-84283072D01*
X157506872Y-84175530D01*
X157473387Y-84114207D01*
X157478371Y-84044515D01*
X157520243Y-83988582D01*
X157529457Y-83982310D01*
X157532361Y-83980519D01*
X157593656Y-83942712D01*
X157717712Y-83818656D01*
X157809814Y-83669334D01*
X157864999Y-83502797D01*
X157875500Y-83400009D01*
X157875499Y-82599992D01*
X157864999Y-82497203D01*
X157809814Y-82330666D01*
X157717712Y-82181344D01*
X157593656Y-82057288D01*
X157458230Y-81973757D01*
X157444336Y-81965187D01*
X157444331Y-81965185D01*
X157426855Y-81959394D01*
X157277797Y-81910001D01*
X157277795Y-81910000D01*
X157175010Y-81899500D01*
X155824998Y-81899500D01*
X155824981Y-81899501D01*
X155722203Y-81910000D01*
X155722200Y-81910001D01*
X155555668Y-81965185D01*
X155555663Y-81965187D01*
X155406342Y-82057289D01*
X155282289Y-82181342D01*
X155190187Y-82330663D01*
X155190186Y-82330666D01*
X155135001Y-82497203D01*
X155135001Y-82497204D01*
X155135000Y-82497204D01*
X155124500Y-82599983D01*
X150500500Y-82599983D01*
X150500500Y-72849983D01*
X155174500Y-72849983D01*
X155174500Y-73650001D01*
X155174501Y-73650019D01*
X155185000Y-73752796D01*
X155185001Y-73752799D01*
X155224108Y-73870814D01*
X155240186Y-73919334D01*
X155332288Y-74068656D01*
X155456344Y-74192712D01*
X155520543Y-74232310D01*
X155567268Y-74284258D01*
X155578489Y-74353221D01*
X155550646Y-74417303D01*
X155543128Y-74425530D01*
X155435585Y-74533073D01*
X155333768Y-74673211D01*
X155320254Y-74699735D01*
X155255127Y-74827555D01*
X155203458Y-74986572D01*
X155201597Y-74992302D01*
X155174500Y-75163389D01*
X155174500Y-75336610D01*
X155201597Y-75507697D01*
X155201597Y-75507699D01*
X155201598Y-75507701D01*
X155255127Y-75672445D01*
X155333768Y-75826788D01*
X155435586Y-75966928D01*
X155558072Y-76089414D01*
X155698212Y-76191232D01*
X155852555Y-76269873D01*
X156017299Y-76323402D01*
X156188389Y-76350500D01*
X156188390Y-76350500D01*
X157329055Y-76350500D01*
X157329057Y-76350500D01*
X157481784Y-76309577D01*
X157618716Y-76230520D01*
X157730520Y-76118716D01*
X157809577Y-75981784D01*
X157850500Y-75829057D01*
X157850500Y-75674766D01*
X157856569Y-75636448D01*
X157862302Y-75618800D01*
X157898402Y-75507701D01*
X157925500Y-75336611D01*
X157925500Y-75163389D01*
X157898402Y-74992299D01*
X157844873Y-74827555D01*
X157766232Y-74673212D01*
X157664414Y-74533072D01*
X157556872Y-74425530D01*
X157523387Y-74364207D01*
X157528371Y-74294515D01*
X157570243Y-74238582D01*
X157579457Y-74232310D01*
X157643656Y-74192712D01*
X157767712Y-74068656D01*
X157859814Y-73919334D01*
X157914999Y-73752797D01*
X157925500Y-73650009D01*
X157925499Y-72849992D01*
X157914999Y-72747203D01*
X157859814Y-72580666D01*
X157767712Y-72431344D01*
X157643656Y-72307288D01*
X157524446Y-72233759D01*
X157494336Y-72215187D01*
X157494331Y-72215185D01*
X157452320Y-72201264D01*
X157327797Y-72160001D01*
X157327795Y-72160000D01*
X157225010Y-72149500D01*
X155874998Y-72149500D01*
X155874981Y-72149501D01*
X155772203Y-72160000D01*
X155772200Y-72160001D01*
X155605668Y-72215185D01*
X155605663Y-72215187D01*
X155456342Y-72307289D01*
X155332289Y-72431342D01*
X155240187Y-72580663D01*
X155240186Y-72580666D01*
X155185001Y-72747203D01*
X155185001Y-72747204D01*
X155185000Y-72747204D01*
X155174500Y-72849983D01*
X150500500Y-72849983D01*
X150500500Y-64064234D01*
X156324500Y-64064234D01*
X156324500Y-64215765D01*
X156363719Y-64362136D01*
X156401602Y-64427750D01*
X156439485Y-64493365D01*
X156546635Y-64600515D01*
X156677865Y-64676281D01*
X156824234Y-64715500D01*
X156824236Y-64715500D01*
X156975764Y-64715500D01*
X156975766Y-64715500D01*
X157122135Y-64676281D01*
X157253365Y-64600515D01*
X157360515Y-64493365D01*
X157436281Y-64362135D01*
X157475500Y-64215766D01*
X157475500Y-64064234D01*
X157436281Y-63917865D01*
X157360515Y-63786635D01*
X157253365Y-63679485D01*
X157187750Y-63641602D01*
X157122136Y-63603719D01*
X157048950Y-63584109D01*
X156975766Y-63564500D01*
X156824234Y-63564500D01*
X156677863Y-63603719D01*
X156546635Y-63679485D01*
X156546632Y-63679487D01*
X156439487Y-63786632D01*
X156439485Y-63786635D01*
X156363719Y-63917863D01*
X156324500Y-64064234D01*
X150500500Y-64064234D01*
X150500500Y-60646153D01*
X165474500Y-60646153D01*
X165474500Y-60803846D01*
X165505261Y-60958489D01*
X165505263Y-60958497D01*
X165515061Y-60982151D01*
X165524500Y-61029604D01*
X165524500Y-63848918D01*
X165524500Y-63848920D01*
X165524499Y-63848920D01*
X165553340Y-63993907D01*
X165553343Y-63993917D01*
X165609914Y-64130492D01*
X165642812Y-64179727D01*
X165642813Y-64179730D01*
X165692046Y-64253414D01*
X165692052Y-64253421D01*
X172676869Y-71238238D01*
X172710354Y-71299561D01*
X172705370Y-71369253D01*
X172663498Y-71425186D01*
X172598034Y-71449603D01*
X172584934Y-71449427D01*
X172584934Y-71449500D01*
X172421155Y-71449500D01*
X172266510Y-71480261D01*
X172266498Y-71480264D01*
X172120827Y-71540602D01*
X172120814Y-71540609D01*
X171989711Y-71628210D01*
X171989707Y-71628213D01*
X171878213Y-71739707D01*
X171878210Y-71739711D01*
X171790609Y-71870814D01*
X171790602Y-71870827D01*
X171730264Y-72016498D01*
X171730261Y-72016508D01*
X171699362Y-72171848D01*
X171666977Y-72233759D01*
X171665426Y-72235337D01*
X168091601Y-75809162D01*
X168030278Y-75842647D01*
X167960586Y-75837663D01*
X167935032Y-75824585D01*
X167884179Y-75790606D01*
X167884172Y-75790602D01*
X167738501Y-75730264D01*
X167738489Y-75730261D01*
X167583845Y-75699500D01*
X167583842Y-75699500D01*
X167426158Y-75699500D01*
X167426155Y-75699500D01*
X167271510Y-75730261D01*
X167271498Y-75730264D01*
X167125827Y-75790602D01*
X167125814Y-75790609D01*
X166994711Y-75878210D01*
X166994707Y-75878213D01*
X166883213Y-75989707D01*
X166883210Y-75989711D01*
X166795609Y-76120814D01*
X166795602Y-76120827D01*
X166735264Y-76266498D01*
X166735261Y-76266510D01*
X166704500Y-76421153D01*
X166704500Y-76578846D01*
X166735261Y-76733489D01*
X166735264Y-76733501D01*
X166795602Y-76879172D01*
X166795609Y-76879185D01*
X166883210Y-77010288D01*
X166883213Y-77010292D01*
X166994707Y-77121786D01*
X166994711Y-77121789D01*
X167125814Y-77209390D01*
X167125827Y-77209397D01*
X167271498Y-77269735D01*
X167271503Y-77269737D01*
X167426153Y-77300499D01*
X167426156Y-77300500D01*
X167426158Y-77300500D01*
X167583844Y-77300500D01*
X167583845Y-77300499D01*
X167738497Y-77269737D01*
X167884179Y-77209394D01*
X167884185Y-77209390D01*
X168015875Y-77121398D01*
X168033921Y-77115747D01*
X168049831Y-77105523D01*
X168080792Y-77101071D01*
X168082553Y-77100520D01*
X168084766Y-77100500D01*
X168163331Y-77100500D01*
X168163347Y-77100501D01*
X168170943Y-77100501D01*
X168329054Y-77100501D01*
X168329057Y-77100501D01*
X168481785Y-77059577D01*
X168531904Y-77030639D01*
X168618716Y-76980520D01*
X168730520Y-76868716D01*
X168730520Y-76868714D01*
X168740728Y-76858507D01*
X168740729Y-76858504D01*
X172514664Y-73084571D01*
X172575985Y-73051088D01*
X172578152Y-73050637D01*
X172578841Y-73050500D01*
X172578842Y-73050500D01*
X172733497Y-73019737D01*
X172879179Y-72959394D01*
X172926277Y-72927923D01*
X172992954Y-72907045D01*
X173060334Y-72925529D01*
X173107025Y-72977507D01*
X173119169Y-73031025D01*
X173119169Y-81965627D01*
X173099484Y-82032666D01*
X173098271Y-82034518D01*
X173040609Y-82120814D01*
X173040602Y-82120827D01*
X172980264Y-82266498D01*
X172980261Y-82266510D01*
X172949500Y-82421153D01*
X172949500Y-82578846D01*
X172980261Y-82733489D01*
X172982031Y-82739324D01*
X172979279Y-82740158D01*
X172985503Y-82797359D01*
X172954309Y-82859878D01*
X172894266Y-82895608D01*
X172863445Y-82899500D01*
X171829766Y-82899500D01*
X171762727Y-82879815D01*
X171760875Y-82878602D01*
X171629185Y-82790609D01*
X171629172Y-82790602D01*
X171483501Y-82730264D01*
X171483489Y-82730261D01*
X171328845Y-82699500D01*
X171328842Y-82699500D01*
X171171158Y-82699500D01*
X171171155Y-82699500D01*
X171016510Y-82730261D01*
X171016498Y-82730264D01*
X170870827Y-82790602D01*
X170870814Y-82790609D01*
X170739711Y-82878210D01*
X170739707Y-82878213D01*
X170628213Y-82989707D01*
X170628210Y-82989711D01*
X170540609Y-83120814D01*
X170540602Y-83120827D01*
X170480264Y-83266498D01*
X170480261Y-83266510D01*
X170449500Y-83421153D01*
X170449500Y-83578846D01*
X170480261Y-83733489D01*
X170480264Y-83733501D01*
X170540602Y-83879172D01*
X170540609Y-83879185D01*
X170628210Y-84010288D01*
X170628213Y-84010292D01*
X170739707Y-84121786D01*
X170739711Y-84121789D01*
X170870814Y-84209390D01*
X170870827Y-84209397D01*
X171016498Y-84269735D01*
X171016503Y-84269737D01*
X171171153Y-84300499D01*
X171171156Y-84300500D01*
X171171158Y-84300500D01*
X171328844Y-84300500D01*
X171328845Y-84300499D01*
X171483497Y-84269737D01*
X171629179Y-84209394D01*
X171685368Y-84171850D01*
X171760875Y-84121398D01*
X171827553Y-84100520D01*
X171829766Y-84100500D01*
X183663331Y-84100500D01*
X183663347Y-84100501D01*
X183670943Y-84100501D01*
X183829054Y-84100501D01*
X183829057Y-84100501D01*
X183981785Y-84059577D01*
X184031904Y-84030639D01*
X184118716Y-83980520D01*
X184230520Y-83868716D01*
X184230520Y-83868714D01*
X184240728Y-83858507D01*
X184240729Y-83858504D01*
X189247099Y-78852135D01*
X217649500Y-78852135D01*
X217649500Y-80647870D01*
X217649501Y-80647876D01*
X217655908Y-80707483D01*
X217706202Y-80842328D01*
X217706206Y-80842335D01*
X217792452Y-80957544D01*
X217792455Y-80957547D01*
X217907664Y-81043793D01*
X217907671Y-81043797D01*
X218039082Y-81092810D01*
X218095016Y-81134681D01*
X218119433Y-81200145D01*
X218104582Y-81268418D01*
X218083431Y-81296673D01*
X217969889Y-81410215D01*
X217844951Y-81582179D01*
X217748444Y-81771585D01*
X217682753Y-81973760D01*
X217659462Y-82120814D01*
X217649500Y-82183713D01*
X217649500Y-82396287D01*
X217653439Y-82421155D01*
X217681763Y-82599991D01*
X217682754Y-82606243D01*
X217742658Y-82790609D01*
X217748444Y-82808414D01*
X217844951Y-82997820D01*
X217969890Y-83169786D01*
X218120213Y-83320109D01*
X218292182Y-83445050D01*
X218300946Y-83449516D01*
X218351742Y-83497491D01*
X218368536Y-83565312D01*
X218345998Y-83631447D01*
X218300946Y-83670484D01*
X218292182Y-83674949D01*
X218120213Y-83799890D01*
X217969890Y-83950213D01*
X217844951Y-84122179D01*
X217748444Y-84311585D01*
X217682753Y-84513760D01*
X217649500Y-84723713D01*
X217649500Y-84936286D01*
X217682753Y-85146239D01*
X217748444Y-85348414D01*
X217844951Y-85537820D01*
X217969890Y-85709786D01*
X218120213Y-85860109D01*
X218292179Y-85985048D01*
X218292181Y-85985049D01*
X218292184Y-85985051D01*
X218481588Y-86081557D01*
X218683757Y-86147246D01*
X218893713Y-86180500D01*
X218893714Y-86180500D01*
X219106286Y-86180500D01*
X219106287Y-86180500D01*
X219316243Y-86147246D01*
X219518412Y-86081557D01*
X219707816Y-85985051D01*
X219768128Y-85941232D01*
X219879786Y-85860109D01*
X219879788Y-85860106D01*
X219879792Y-85860104D01*
X220030104Y-85709792D01*
X220030106Y-85709788D01*
X220030109Y-85709786D01*
X220155048Y-85537820D01*
X220155047Y-85537820D01*
X220155051Y-85537816D01*
X220251557Y-85348412D01*
X220317246Y-85146243D01*
X220350500Y-84936287D01*
X220350500Y-84723713D01*
X220317246Y-84513757D01*
X220251557Y-84311588D01*
X220155051Y-84122184D01*
X220155049Y-84122181D01*
X220155048Y-84122179D01*
X220030109Y-83950213D01*
X219879786Y-83799890D01*
X219707820Y-83674951D01*
X219707115Y-83674591D01*
X219699054Y-83670485D01*
X219648259Y-83622512D01*
X219631463Y-83554692D01*
X219653999Y-83488556D01*
X219699054Y-83449515D01*
X219707816Y-83445051D01*
X219769802Y-83400016D01*
X219879786Y-83320109D01*
X219879788Y-83320106D01*
X219879792Y-83320104D01*
X220030104Y-83169792D01*
X220030106Y-83169788D01*
X220030109Y-83169786D01*
X220155048Y-82997820D01*
X220155047Y-82997820D01*
X220155051Y-82997816D01*
X220251557Y-82808412D01*
X220317246Y-82606243D01*
X220350500Y-82396287D01*
X220350500Y-82183713D01*
X220317246Y-81973757D01*
X220251557Y-81771588D01*
X220155051Y-81582184D01*
X220141622Y-81563700D01*
X220042110Y-81426732D01*
X220042107Y-81426729D01*
X220030104Y-81410208D01*
X219969879Y-81349983D01*
X224524500Y-81349983D01*
X224524500Y-82650001D01*
X224524501Y-82650018D01*
X224535000Y-82752796D01*
X224535001Y-82752799D01*
X224559593Y-82827011D01*
X224590186Y-82919334D01*
X224682288Y-83068656D01*
X224806344Y-83192712D01*
X224955666Y-83284814D01*
X225122203Y-83339999D01*
X225224991Y-83350500D01*
X226775008Y-83350499D01*
X226877797Y-83339999D01*
X227044334Y-83284814D01*
X227193656Y-83192712D01*
X227317712Y-83068656D01*
X227409814Y-82919334D01*
X227464999Y-82752797D01*
X227475500Y-82650009D01*
X227475499Y-81349992D01*
X227464999Y-81247203D01*
X227409814Y-81080666D01*
X227317712Y-80931344D01*
X227193656Y-80807288D01*
X227083142Y-80739123D01*
X227044336Y-80715187D01*
X227044331Y-80715185D01*
X227021085Y-80707482D01*
X226877797Y-80660001D01*
X226877795Y-80660000D01*
X226775010Y-80649500D01*
X225224998Y-80649500D01*
X225224981Y-80649501D01*
X225122203Y-80660000D01*
X225122200Y-80660001D01*
X224955668Y-80715185D01*
X224955663Y-80715187D01*
X224806342Y-80807289D01*
X224682289Y-80931342D01*
X224590187Y-81080663D01*
X224590185Y-81080668D01*
X224580984Y-81108435D01*
X224535001Y-81247203D01*
X224535001Y-81247204D01*
X224535000Y-81247204D01*
X224524500Y-81349983D01*
X219969879Y-81349983D01*
X219915769Y-81295873D01*
X219915042Y-81295120D01*
X219899317Y-81265079D01*
X219883084Y-81235350D01*
X219883164Y-81234220D01*
X219882640Y-81233218D01*
X219885649Y-81199472D01*
X219888068Y-81165658D01*
X219888746Y-81164751D01*
X219888847Y-81163625D01*
X219909635Y-81136847D01*
X219929940Y-81109725D01*
X219931246Y-81109011D01*
X219931694Y-81108435D01*
X219933415Y-81107827D01*
X219960915Y-81092810D01*
X220092331Y-81043796D01*
X220207546Y-80957546D01*
X220293796Y-80842331D01*
X220344091Y-80707483D01*
X220350500Y-80647873D01*
X220350499Y-78852128D01*
X220344091Y-78792517D01*
X220293796Y-78657669D01*
X220293795Y-78657668D01*
X220293793Y-78657664D01*
X220207547Y-78542455D01*
X220207544Y-78542452D01*
X220092335Y-78456206D01*
X220092328Y-78456202D01*
X219957482Y-78405908D01*
X219957483Y-78405908D01*
X219897883Y-78399501D01*
X219897881Y-78399500D01*
X219897873Y-78399500D01*
X219897864Y-78399500D01*
X218102129Y-78399500D01*
X218102123Y-78399501D01*
X218042516Y-78405908D01*
X217907671Y-78456202D01*
X217907664Y-78456206D01*
X217792455Y-78542452D01*
X217792452Y-78542455D01*
X217706206Y-78657664D01*
X217706202Y-78657671D01*
X217655908Y-78792517D01*
X217649501Y-78852116D01*
X217649501Y-78852123D01*
X217649500Y-78852135D01*
X189247099Y-78852135D01*
X193928082Y-74171153D01*
X218199500Y-74171153D01*
X218199500Y-74328846D01*
X218230261Y-74483489D01*
X218230264Y-74483501D01*
X218290602Y-74629172D01*
X218290609Y-74629185D01*
X218378602Y-74760874D01*
X218399480Y-74827551D01*
X218399500Y-74829765D01*
X218399500Y-75420234D01*
X218379815Y-75487273D01*
X218378602Y-75489125D01*
X218290609Y-75620814D01*
X218290602Y-75620827D01*
X218230264Y-75766498D01*
X218230261Y-75766510D01*
X218199500Y-75921153D01*
X218199500Y-76078846D01*
X218230261Y-76233489D01*
X218230264Y-76233501D01*
X218290602Y-76379172D01*
X218290609Y-76379185D01*
X218378210Y-76510288D01*
X218378213Y-76510292D01*
X218489707Y-76621786D01*
X218489711Y-76621789D01*
X218620814Y-76709390D01*
X218620827Y-76709397D01*
X218766498Y-76769735D01*
X218766503Y-76769737D01*
X218921153Y-76800499D01*
X218921156Y-76800500D01*
X218921158Y-76800500D01*
X219078844Y-76800500D01*
X219078845Y-76800499D01*
X219233497Y-76769737D01*
X219379179Y-76709394D01*
X219510289Y-76621789D01*
X219621789Y-76510289D01*
X219709394Y-76379179D01*
X219769737Y-76233497D01*
X219800500Y-76078842D01*
X219800500Y-75921158D01*
X219800500Y-75921155D01*
X219800499Y-75921153D01*
X219784883Y-75842647D01*
X219769737Y-75766503D01*
X219763545Y-75751555D01*
X219709397Y-75620827D01*
X219709390Y-75620814D01*
X219621398Y-75489125D01*
X219600520Y-75422447D01*
X219600500Y-75420234D01*
X219600500Y-74829765D01*
X219620185Y-74762726D01*
X219621398Y-74760874D01*
X219709390Y-74629185D01*
X219709390Y-74629184D01*
X219709394Y-74629179D01*
X219769737Y-74483497D01*
X219800500Y-74328842D01*
X219800500Y-74171158D01*
X219800500Y-74171155D01*
X219800499Y-74171153D01*
X219792569Y-74131285D01*
X219769737Y-74016503D01*
X219755274Y-73981585D01*
X219709397Y-73870827D01*
X219709390Y-73870814D01*
X219621789Y-73739711D01*
X219621786Y-73739707D01*
X219510292Y-73628213D01*
X219510288Y-73628210D01*
X219379185Y-73540609D01*
X219379172Y-73540602D01*
X219233501Y-73480264D01*
X219233489Y-73480261D01*
X219078845Y-73449500D01*
X219078842Y-73449500D01*
X218921158Y-73449500D01*
X218921155Y-73449500D01*
X218766510Y-73480261D01*
X218766498Y-73480264D01*
X218620827Y-73540602D01*
X218620814Y-73540609D01*
X218489711Y-73628210D01*
X218489707Y-73628213D01*
X218378213Y-73739707D01*
X218378210Y-73739711D01*
X218290609Y-73870814D01*
X218290602Y-73870827D01*
X218230264Y-74016498D01*
X218230261Y-74016510D01*
X218199500Y-74171153D01*
X193928082Y-74171153D01*
X197962416Y-70136819D01*
X198023739Y-70103334D01*
X198050097Y-70100500D01*
X224589281Y-70100500D01*
X224656320Y-70120185D01*
X224699765Y-70168205D01*
X224719947Y-70207814D01*
X224719948Y-70207815D01*
X224844890Y-70379786D01*
X224995209Y-70530105D01*
X224995214Y-70530109D01*
X225159793Y-70649682D01*
X225202459Y-70705011D01*
X225208438Y-70774625D01*
X225175833Y-70836420D01*
X225159793Y-70850318D01*
X224995214Y-70969890D01*
X224995209Y-70969894D01*
X224844890Y-71120213D01*
X224719951Y-71292179D01*
X224623444Y-71481585D01*
X224557753Y-71683760D01*
X224540830Y-71790609D01*
X224524500Y-71893713D01*
X224524500Y-72106287D01*
X224533007Y-72160000D01*
X224556335Y-72307289D01*
X224557754Y-72316243D01*
X224612098Y-72483497D01*
X224623444Y-72518414D01*
X224719951Y-72707820D01*
X224844890Y-72879786D01*
X224995209Y-73030105D01*
X224995214Y-73030109D01*
X225159793Y-73149682D01*
X225202459Y-73205011D01*
X225208438Y-73274625D01*
X225175833Y-73336420D01*
X225159793Y-73350318D01*
X224995214Y-73469890D01*
X224995209Y-73469894D01*
X224844890Y-73620213D01*
X224719951Y-73792179D01*
X224623444Y-73981585D01*
X224557754Y-74183757D01*
X224524500Y-74393713D01*
X224524500Y-74606286D01*
X224552263Y-74781578D01*
X224557754Y-74816243D01*
X224614959Y-74992302D01*
X224623444Y-75018414D01*
X224719951Y-75207820D01*
X224844890Y-75379786D01*
X224995213Y-75530109D01*
X225167179Y-75655048D01*
X225167181Y-75655049D01*
X225167184Y-75655051D01*
X225356588Y-75751557D01*
X225558757Y-75817246D01*
X225768713Y-75850500D01*
X225768714Y-75850500D01*
X226231286Y-75850500D01*
X226231287Y-75850500D01*
X226441243Y-75817246D01*
X226643412Y-75751557D01*
X226832816Y-75655051D01*
X226879940Y-75620814D01*
X227004786Y-75530109D01*
X227004788Y-75530106D01*
X227004792Y-75530104D01*
X227155104Y-75379792D01*
X227155106Y-75379788D01*
X227155109Y-75379786D01*
X227280048Y-75207820D01*
X227280047Y-75207820D01*
X227280051Y-75207816D01*
X227376557Y-75018412D01*
X227442246Y-74816243D01*
X227475500Y-74606287D01*
X227475500Y-74393713D01*
X227442246Y-74183757D01*
X227376557Y-73981588D01*
X227280051Y-73792184D01*
X227280049Y-73792181D01*
X227280048Y-73792179D01*
X227155109Y-73620213D01*
X227004792Y-73469896D01*
X226976719Y-73449500D01*
X226840204Y-73350316D01*
X226797540Y-73294989D01*
X226791561Y-73225376D01*
X226824166Y-73163580D01*
X226840199Y-73149686D01*
X227004792Y-73030104D01*
X227155104Y-72879792D01*
X227155106Y-72879788D01*
X227155109Y-72879786D01*
X227280048Y-72707820D01*
X227280047Y-72707820D01*
X227280051Y-72707816D01*
X227376557Y-72518412D01*
X227442246Y-72316243D01*
X227475500Y-72106287D01*
X227475500Y-71893713D01*
X227442246Y-71683757D01*
X227376557Y-71481588D01*
X227280051Y-71292184D01*
X227280049Y-71292181D01*
X227280048Y-71292179D01*
X227155109Y-71120213D01*
X227004792Y-70969896D01*
X227004784Y-70969890D01*
X226840204Y-70850316D01*
X226797540Y-70794989D01*
X226791561Y-70725376D01*
X226824166Y-70663580D01*
X226840199Y-70649686D01*
X227004792Y-70530104D01*
X227155104Y-70379792D01*
X227155106Y-70379788D01*
X227155109Y-70379786D01*
X227280048Y-70207820D01*
X227280047Y-70207820D01*
X227280051Y-70207816D01*
X227376557Y-70018412D01*
X227442246Y-69816243D01*
X227475500Y-69606287D01*
X227475500Y-69393713D01*
X227442246Y-69183757D01*
X227376557Y-68981588D01*
X227280051Y-68792184D01*
X227280049Y-68792181D01*
X227280048Y-68792179D01*
X227155109Y-68620213D01*
X227004792Y-68469896D01*
X227004784Y-68469890D01*
X226840204Y-68350316D01*
X226797540Y-68294989D01*
X226791561Y-68225376D01*
X226824166Y-68163580D01*
X226840199Y-68149686D01*
X227004792Y-68030104D01*
X227155104Y-67879792D01*
X227155106Y-67879788D01*
X227155109Y-67879786D01*
X227280048Y-67707820D01*
X227280047Y-67707820D01*
X227280051Y-67707816D01*
X227376557Y-67518412D01*
X227442246Y-67316243D01*
X227475500Y-67106287D01*
X227475500Y-66893713D01*
X227442246Y-66683757D01*
X227376557Y-66481588D01*
X227280051Y-66292184D01*
X227280049Y-66292181D01*
X227280048Y-66292179D01*
X227155109Y-66120213D01*
X227004792Y-65969896D01*
X226994495Y-65962415D01*
X226840204Y-65850316D01*
X226797540Y-65794989D01*
X226791561Y-65725376D01*
X226824166Y-65663580D01*
X226840199Y-65649686D01*
X227004792Y-65530104D01*
X227155104Y-65379792D01*
X227155106Y-65379788D01*
X227155109Y-65379786D01*
X227280048Y-65207820D01*
X227280047Y-65207820D01*
X227280051Y-65207816D01*
X227376557Y-65018412D01*
X227442246Y-64816243D01*
X227475500Y-64606287D01*
X227475500Y-64393713D01*
X227442246Y-64183757D01*
X227376557Y-63981588D01*
X227280051Y-63792184D01*
X227280049Y-63792181D01*
X227280048Y-63792179D01*
X227155109Y-63620213D01*
X227004792Y-63469896D01*
X226926164Y-63412770D01*
X226840204Y-63350316D01*
X226797540Y-63294989D01*
X226791561Y-63225376D01*
X226824166Y-63163580D01*
X226840199Y-63149686D01*
X227004792Y-63030104D01*
X227155104Y-62879792D01*
X227155106Y-62879788D01*
X227155109Y-62879786D01*
X227278902Y-62709397D01*
X227280051Y-62707816D01*
X227376557Y-62518412D01*
X227442246Y-62316243D01*
X227475500Y-62106287D01*
X227475500Y-61893713D01*
X227442246Y-61683757D01*
X227376557Y-61481588D01*
X227280051Y-61292184D01*
X227280049Y-61292181D01*
X227280048Y-61292179D01*
X227155109Y-61120213D01*
X227004786Y-60969890D01*
X226832820Y-60844951D01*
X226643414Y-60748444D01*
X226643413Y-60748443D01*
X226643412Y-60748443D01*
X226441243Y-60682754D01*
X226441241Y-60682753D01*
X226441240Y-60682753D01*
X226279957Y-60657208D01*
X226231287Y-60649500D01*
X225768713Y-60649500D01*
X225720042Y-60657208D01*
X225558760Y-60682753D01*
X225356585Y-60748444D01*
X225167179Y-60844951D01*
X224995213Y-60969890D01*
X224844890Y-61120213D01*
X224719951Y-61292179D01*
X224697206Y-61336820D01*
X224649232Y-61387616D01*
X224581411Y-61404411D01*
X224515276Y-61381874D01*
X224511717Y-61379164D01*
X224379185Y-61290609D01*
X224379172Y-61290602D01*
X224233501Y-61230264D01*
X224233489Y-61230261D01*
X224078845Y-61199500D01*
X224078842Y-61199500D01*
X223921158Y-61199500D01*
X223921155Y-61199500D01*
X223766510Y-61230261D01*
X223766498Y-61230264D01*
X223620827Y-61290602D01*
X223620814Y-61290609D01*
X223489125Y-61378602D01*
X223422447Y-61399480D01*
X223420234Y-61399500D01*
X221079766Y-61399500D01*
X221012727Y-61379815D01*
X221010875Y-61378602D01*
X220879185Y-61290609D01*
X220879172Y-61290602D01*
X220733501Y-61230264D01*
X220733489Y-61230261D01*
X220578845Y-61199500D01*
X220578842Y-61199500D01*
X220421158Y-61199500D01*
X220421155Y-61199500D01*
X220266510Y-61230261D01*
X220266498Y-61230264D01*
X220120827Y-61290602D01*
X220120814Y-61290609D01*
X219989711Y-61378210D01*
X219989707Y-61378213D01*
X219878213Y-61489707D01*
X219878210Y-61489711D01*
X219790609Y-61620814D01*
X219790602Y-61620827D01*
X219730264Y-61766498D01*
X219730261Y-61766510D01*
X219699500Y-61921153D01*
X219699500Y-62078846D01*
X219730261Y-62233489D01*
X219730264Y-62233501D01*
X219790602Y-62379172D01*
X219790609Y-62379185D01*
X219878210Y-62510288D01*
X219878213Y-62510292D01*
X219989707Y-62621786D01*
X219989711Y-62621789D01*
X220120814Y-62709390D01*
X220120827Y-62709397D01*
X220266498Y-62769735D01*
X220266503Y-62769737D01*
X220421153Y-62800499D01*
X220421156Y-62800500D01*
X220421158Y-62800500D01*
X220578844Y-62800500D01*
X220578845Y-62800499D01*
X220733497Y-62769737D01*
X220879179Y-62709394D01*
X220948346Y-62663178D01*
X221010875Y-62621398D01*
X221077553Y-62600520D01*
X221079766Y-62600500D01*
X223420234Y-62600500D01*
X223487273Y-62620185D01*
X223489125Y-62621398D01*
X223620814Y-62709390D01*
X223620827Y-62709397D01*
X223766498Y-62769735D01*
X223766503Y-62769737D01*
X223921153Y-62800499D01*
X223921156Y-62800500D01*
X223921158Y-62800500D01*
X224078844Y-62800500D01*
X224078845Y-62800499D01*
X224233497Y-62769737D01*
X224379179Y-62709394D01*
X224448346Y-62663178D01*
X224515354Y-62618405D01*
X224516461Y-62620062D01*
X224572311Y-62596314D01*
X224641184Y-62608075D01*
X224692765Y-62655205D01*
X224697204Y-62663178D01*
X224719949Y-62707817D01*
X224844890Y-62879786D01*
X224995209Y-63030105D01*
X224995214Y-63030109D01*
X225159793Y-63149682D01*
X225202459Y-63205011D01*
X225208438Y-63274625D01*
X225175833Y-63336420D01*
X225159793Y-63350318D01*
X224995214Y-63469890D01*
X224995209Y-63469894D01*
X224844890Y-63620213D01*
X224719948Y-63792184D01*
X224719947Y-63792185D01*
X224699765Y-63831795D01*
X224689316Y-63842857D01*
X224682994Y-63856703D01*
X224665812Y-63867744D01*
X224651791Y-63882591D01*
X224636111Y-63886832D01*
X224624216Y-63894477D01*
X224589281Y-63899500D01*
X224586669Y-63899500D01*
X224586653Y-63899499D01*
X224579057Y-63899499D01*
X224420943Y-63899499D01*
X224341010Y-63920917D01*
X224268216Y-63940422D01*
X224235355Y-63959395D01*
X224235354Y-63959394D01*
X224131287Y-64019477D01*
X224131282Y-64019481D01*
X222769481Y-65381282D01*
X222769479Y-65381285D01*
X222719361Y-65468094D01*
X222719359Y-65468096D01*
X222690425Y-65518209D01*
X222690424Y-65518210D01*
X222687237Y-65530104D01*
X222649499Y-65670943D01*
X222649499Y-65670945D01*
X222649499Y-65839046D01*
X222649500Y-65839059D01*
X222649500Y-66699902D01*
X222629815Y-66766941D01*
X222613181Y-66787583D01*
X221287584Y-68113181D01*
X221226261Y-68146666D01*
X221199903Y-68149500D01*
X207829766Y-68149500D01*
X207762727Y-68129815D01*
X207760875Y-68128602D01*
X207629185Y-68040609D01*
X207629172Y-68040602D01*
X207483501Y-67980264D01*
X207483489Y-67980261D01*
X207328845Y-67949500D01*
X207328842Y-67949500D01*
X207171158Y-67949500D01*
X207171155Y-67949500D01*
X207016510Y-67980261D01*
X207016498Y-67980264D01*
X206870827Y-68040602D01*
X206870814Y-68040609D01*
X206739711Y-68128210D01*
X206739707Y-68128213D01*
X206628213Y-68239707D01*
X206628210Y-68239711D01*
X206540609Y-68370814D01*
X206540602Y-68370827D01*
X206480264Y-68516498D01*
X206480261Y-68516510D01*
X206449500Y-68671153D01*
X206449500Y-68775500D01*
X206429815Y-68842539D01*
X206377011Y-68888294D01*
X206325500Y-68899500D01*
X197836669Y-68899500D01*
X197836653Y-68899499D01*
X197829057Y-68899499D01*
X197670943Y-68899499D01*
X197563587Y-68928265D01*
X197518210Y-68940424D01*
X197518209Y-68940425D01*
X197468096Y-68969359D01*
X197468095Y-68969360D01*
X197424689Y-68994420D01*
X197381285Y-69019479D01*
X197381282Y-69019481D01*
X197269478Y-69131286D01*
X185594491Y-80806272D01*
X185576001Y-80816368D01*
X185560325Y-80830449D01*
X185545948Y-80832778D01*
X185533168Y-80839757D01*
X185512153Y-80838254D01*
X185491355Y-80841624D01*
X185478003Y-80835811D01*
X185463476Y-80834773D01*
X185446608Y-80822145D01*
X185427291Y-80813737D01*
X185410696Y-80795261D01*
X185407543Y-80792901D01*
X185403707Y-80787480D01*
X185371397Y-80739123D01*
X185350520Y-80672445D01*
X185350500Y-80670234D01*
X185350500Y-74420945D01*
X185350500Y-74420943D01*
X185320443Y-74308768D01*
X185309577Y-74268215D01*
X185260815Y-74183757D01*
X185230520Y-74131284D01*
X185118716Y-74019480D01*
X185114385Y-74015149D01*
X185114374Y-74015139D01*
X183584574Y-72485339D01*
X183551089Y-72424016D01*
X183550638Y-72421849D01*
X183519738Y-72266510D01*
X183519737Y-72266503D01*
X183500000Y-72218853D01*
X183459397Y-72120827D01*
X183459390Y-72120814D01*
X183371789Y-71989711D01*
X183371786Y-71989707D01*
X183260292Y-71878213D01*
X183260288Y-71878210D01*
X183129185Y-71790609D01*
X183129172Y-71790602D01*
X182983501Y-71730264D01*
X182983489Y-71730261D01*
X182828845Y-71699500D01*
X182828842Y-71699500D01*
X182671158Y-71699500D01*
X182671155Y-71699500D01*
X182516510Y-71730261D01*
X182516498Y-71730264D01*
X182370827Y-71790602D01*
X182370814Y-71790609D01*
X182239711Y-71878210D01*
X182239707Y-71878213D01*
X182212681Y-71905240D01*
X182151358Y-71938725D01*
X182081666Y-71933741D01*
X182037319Y-71905240D01*
X182010292Y-71878213D01*
X182010288Y-71878210D01*
X181879185Y-71790609D01*
X181879172Y-71790602D01*
X181733501Y-71730264D01*
X181733489Y-71730261D01*
X181578845Y-71699500D01*
X181578842Y-71699500D01*
X181421158Y-71699500D01*
X181421155Y-71699500D01*
X181266510Y-71730261D01*
X181266498Y-71730264D01*
X181120827Y-71790602D01*
X181120814Y-71790609D01*
X180989711Y-71878210D01*
X180989707Y-71878213D01*
X180878213Y-71989707D01*
X180853102Y-72027289D01*
X180799489Y-72072093D01*
X180730164Y-72080800D01*
X180667137Y-72050645D01*
X180646898Y-72027289D01*
X180638833Y-72015219D01*
X180621789Y-71989711D01*
X180621788Y-71989710D01*
X180621786Y-71989707D01*
X180510292Y-71878213D01*
X180510288Y-71878210D01*
X180379185Y-71790609D01*
X180379172Y-71790602D01*
X180233501Y-71730264D01*
X180233489Y-71730261D01*
X180078845Y-71699500D01*
X180078842Y-71699500D01*
X179921158Y-71699500D01*
X179921155Y-71699500D01*
X179766510Y-71730261D01*
X179766498Y-71730264D01*
X179620827Y-71790602D01*
X179620814Y-71790609D01*
X179489711Y-71878210D01*
X179489707Y-71878213D01*
X179378213Y-71989707D01*
X179378210Y-71989711D01*
X179290609Y-72120814D01*
X179290602Y-72120827D01*
X179230264Y-72266498D01*
X179230261Y-72266510D01*
X179199500Y-72421153D01*
X179199500Y-72578846D01*
X179230261Y-72733489D01*
X179230264Y-72733501D01*
X179290602Y-72879172D01*
X179290609Y-72879185D01*
X179378210Y-73010288D01*
X179378213Y-73010292D01*
X179489707Y-73121786D01*
X179489711Y-73121789D01*
X179620814Y-73209390D01*
X179620827Y-73209397D01*
X179718853Y-73250000D01*
X179766503Y-73269737D01*
X179831147Y-73282595D01*
X179921849Y-73300638D01*
X179983760Y-73333023D01*
X179985339Y-73334574D01*
X181863181Y-75212416D01*
X181896666Y-75273739D01*
X181899500Y-75300097D01*
X181899500Y-81920234D01*
X181879815Y-81987273D01*
X181878602Y-81989125D01*
X181790609Y-82120814D01*
X181790602Y-82120827D01*
X181730264Y-82266498D01*
X181730261Y-82266510D01*
X181699500Y-82421153D01*
X181699500Y-82578846D01*
X181730261Y-82733489D01*
X181732031Y-82739324D01*
X181729279Y-82740158D01*
X181735503Y-82797359D01*
X181704309Y-82859878D01*
X181644266Y-82895608D01*
X181613445Y-82899500D01*
X174636555Y-82899500D01*
X174569516Y-82879815D01*
X174523761Y-82827011D01*
X174513817Y-82757853D01*
X174518840Y-82739588D01*
X174517969Y-82739324D01*
X174519731Y-82733509D01*
X174519737Y-82733497D01*
X174550500Y-82578842D01*
X174550500Y-82421158D01*
X174550500Y-82421155D01*
X174550499Y-82421153D01*
X174519738Y-82266510D01*
X174519737Y-82266503D01*
X174485445Y-82183713D01*
X174459397Y-82120827D01*
X174459390Y-82120814D01*
X174371789Y-81989711D01*
X174371786Y-81989707D01*
X174356488Y-81974409D01*
X174323003Y-81913086D01*
X174320169Y-81886728D01*
X174320169Y-73123991D01*
X174339854Y-73056952D01*
X174392658Y-73011197D01*
X174461816Y-73001253D01*
X174491617Y-73009429D01*
X174516503Y-73019737D01*
X174671153Y-73050499D01*
X174671156Y-73050500D01*
X174671158Y-73050500D01*
X174828844Y-73050500D01*
X174828845Y-73050499D01*
X174983497Y-73019737D01*
X175129179Y-72959394D01*
X175260289Y-72871789D01*
X175371789Y-72760289D01*
X175459394Y-72629179D01*
X175519737Y-72483497D01*
X175550500Y-72328842D01*
X175550500Y-72171158D01*
X175550500Y-72171155D01*
X175550499Y-72171153D01*
X175548281Y-72160001D01*
X175519737Y-72016503D01*
X175510630Y-71994516D01*
X175459397Y-71870827D01*
X175459390Y-71870814D01*
X175371789Y-71739711D01*
X175371786Y-71739707D01*
X175260292Y-71628213D01*
X175260288Y-71628210D01*
X175129185Y-71540609D01*
X175129175Y-71540604D01*
X175105523Y-71530807D01*
X175065295Y-71503927D01*
X167061819Y-63500451D01*
X167028334Y-63439128D01*
X167025500Y-63412770D01*
X167025500Y-62421153D01*
X195949500Y-62421153D01*
X195949500Y-62578846D01*
X195980261Y-62733489D01*
X195980264Y-62733501D01*
X196040602Y-62879172D01*
X196040609Y-62879185D01*
X196128210Y-63010288D01*
X196128213Y-63010292D01*
X196239707Y-63121786D01*
X196239711Y-63121789D01*
X196370814Y-63209390D01*
X196370827Y-63209397D01*
X196468853Y-63250000D01*
X196516503Y-63269737D01*
X196643453Y-63294989D01*
X196671153Y-63300499D01*
X196671156Y-63300500D01*
X196671158Y-63300500D01*
X196828844Y-63300500D01*
X196828845Y-63300499D01*
X196983497Y-63269737D01*
X197129179Y-63209394D01*
X197183642Y-63173003D01*
X197260875Y-63121398D01*
X197327553Y-63100520D01*
X197329766Y-63100500D01*
X197913332Y-63100500D01*
X197920939Y-63100500D01*
X197920943Y-63100501D01*
X198075501Y-63100501D01*
X198142540Y-63120186D01*
X198188295Y-63172990D01*
X198188296Y-63173003D01*
X198199500Y-63224501D01*
X198199500Y-63328846D01*
X198230261Y-63483489D01*
X198230264Y-63483501D01*
X198290602Y-63629172D01*
X198290609Y-63629185D01*
X198378210Y-63760288D01*
X198378213Y-63760292D01*
X198489707Y-63871786D01*
X198489711Y-63871789D01*
X198620814Y-63959390D01*
X198620827Y-63959397D01*
X198765885Y-64019481D01*
X198766503Y-64019737D01*
X198831147Y-64032595D01*
X198921849Y-64050638D01*
X198983760Y-64083023D01*
X198985338Y-64084573D01*
X200881284Y-65980520D01*
X200881286Y-65980521D01*
X200881290Y-65980524D01*
X201001794Y-66050096D01*
X201018216Y-66059577D01*
X201170943Y-66100501D01*
X201170945Y-66100501D01*
X201336654Y-66100501D01*
X201336670Y-66100500D01*
X201420234Y-66100500D01*
X201487273Y-66120185D01*
X201489125Y-66121398D01*
X201620814Y-66209390D01*
X201620827Y-66209397D01*
X201766498Y-66269735D01*
X201766503Y-66269737D01*
X201879326Y-66292179D01*
X201921153Y-66300499D01*
X201921156Y-66300500D01*
X201921158Y-66300500D01*
X202078844Y-66300500D01*
X202078845Y-66300499D01*
X202233497Y-66269737D01*
X202379179Y-66209394D01*
X202431110Y-66174694D01*
X202497785Y-66153816D01*
X202565165Y-66172300D01*
X202568863Y-66174676D01*
X202620821Y-66209394D01*
X202620823Y-66209395D01*
X202620825Y-66209396D01*
X202766498Y-66269735D01*
X202766503Y-66269737D01*
X202879326Y-66292179D01*
X202921153Y-66300499D01*
X202921156Y-66300500D01*
X202921158Y-66300500D01*
X203078844Y-66300500D01*
X203078845Y-66300499D01*
X203233497Y-66269737D01*
X203379179Y-66209394D01*
X203431110Y-66174694D01*
X203497785Y-66153816D01*
X203565165Y-66172300D01*
X203568863Y-66174676D01*
X203620821Y-66209394D01*
X203620823Y-66209395D01*
X203620825Y-66209396D01*
X203766498Y-66269735D01*
X203766503Y-66269737D01*
X203879326Y-66292179D01*
X203921153Y-66300499D01*
X203921156Y-66300500D01*
X203921158Y-66300500D01*
X204078844Y-66300500D01*
X204078845Y-66300499D01*
X204233497Y-66269737D01*
X204379179Y-66209394D01*
X204510289Y-66121789D01*
X204621789Y-66010289D01*
X204709394Y-65879179D01*
X204769737Y-65733497D01*
X204800500Y-65578842D01*
X204800500Y-65421158D01*
X204800500Y-65421155D01*
X204800499Y-65421153D01*
X204792569Y-65381285D01*
X204769737Y-65266503D01*
X204761946Y-65247694D01*
X204709397Y-65120827D01*
X204709390Y-65120814D01*
X204621789Y-64989711D01*
X204621786Y-64989707D01*
X204510292Y-64878213D01*
X204510288Y-64878210D01*
X204379185Y-64790609D01*
X204379172Y-64790602D01*
X204233501Y-64730264D01*
X204233491Y-64730261D01*
X204078149Y-64699361D01*
X204016238Y-64666976D01*
X204014660Y-64665425D01*
X201334574Y-61985339D01*
X201301089Y-61924016D01*
X201300638Y-61921849D01*
X201300500Y-61921153D01*
X205199500Y-61921153D01*
X205199500Y-62078846D01*
X205230261Y-62233489D01*
X205230264Y-62233501D01*
X205290602Y-62379172D01*
X205290609Y-62379185D01*
X205378210Y-62510288D01*
X205378213Y-62510292D01*
X205489707Y-62621786D01*
X205489711Y-62621789D01*
X205620814Y-62709390D01*
X205620827Y-62709397D01*
X205766498Y-62769735D01*
X205766503Y-62769737D01*
X205921153Y-62800499D01*
X205921156Y-62800500D01*
X205921158Y-62800500D01*
X206078844Y-62800500D01*
X206078845Y-62800499D01*
X206233497Y-62769737D01*
X206379179Y-62709394D01*
X206510289Y-62621789D01*
X206621789Y-62510289D01*
X206709394Y-62379179D01*
X206769737Y-62233497D01*
X206800500Y-62078842D01*
X206800500Y-61921158D01*
X206800500Y-61921155D01*
X206800499Y-61921153D01*
X206769739Y-61766511D01*
X206769738Y-61766508D01*
X206769737Y-61766503D01*
X206759937Y-61742844D01*
X206750500Y-61695396D01*
X206750500Y-59362229D01*
X206770185Y-59295190D01*
X206786819Y-59274548D01*
X206982525Y-59078842D01*
X207315297Y-58746069D01*
X207355522Y-58719192D01*
X207379179Y-58709394D01*
X207510289Y-58621789D01*
X207621789Y-58510289D01*
X207709394Y-58379179D01*
X207769737Y-58233497D01*
X207800500Y-58078842D01*
X207800500Y-57921158D01*
X207800500Y-57921155D01*
X207800499Y-57921153D01*
X207792272Y-57879792D01*
X207769737Y-57766503D01*
X207719194Y-57644480D01*
X207709397Y-57620827D01*
X207709390Y-57620814D01*
X207621789Y-57489711D01*
X207621786Y-57489707D01*
X207510292Y-57378213D01*
X207510288Y-57378210D01*
X207379185Y-57290609D01*
X207379172Y-57290602D01*
X207233501Y-57230264D01*
X207233489Y-57230261D01*
X207078845Y-57199500D01*
X207078842Y-57199500D01*
X206921158Y-57199500D01*
X206921155Y-57199500D01*
X206766510Y-57230261D01*
X206766498Y-57230264D01*
X206620827Y-57290602D01*
X206620814Y-57290609D01*
X206489711Y-57378210D01*
X206489707Y-57378213D01*
X206378213Y-57489707D01*
X206378207Y-57489715D01*
X206290607Y-57620818D01*
X206290606Y-57620819D01*
X206280805Y-57644480D01*
X206253927Y-57684703D01*
X205417047Y-58521584D01*
X205417045Y-58521586D01*
X205380381Y-58576462D01*
X205380379Y-58576465D01*
X205334919Y-58644499D01*
X205334912Y-58644511D01*
X205278343Y-58781082D01*
X205278340Y-58781092D01*
X205249500Y-58926079D01*
X205249500Y-61695396D01*
X205240062Y-61742844D01*
X205230265Y-61766498D01*
X205230262Y-61766506D01*
X205230260Y-61766511D01*
X205199500Y-61921153D01*
X201300500Y-61921153D01*
X201274531Y-61790606D01*
X201269737Y-61766503D01*
X201269735Y-61766498D01*
X201209397Y-61620827D01*
X201209390Y-61620814D01*
X201121789Y-61489711D01*
X201121786Y-61489707D01*
X201010292Y-61378213D01*
X201010288Y-61378210D01*
X200879185Y-61290609D01*
X200879172Y-61290602D01*
X200733501Y-61230264D01*
X200733489Y-61230261D01*
X200578845Y-61199500D01*
X200578842Y-61199500D01*
X200449096Y-61199500D01*
X200382057Y-61179815D01*
X200336302Y-61127011D01*
X200326358Y-61057853D01*
X200355383Y-60994297D01*
X200361415Y-60987819D01*
X200545392Y-60803842D01*
X201514662Y-59834572D01*
X201575983Y-59801089D01*
X201578150Y-59800638D01*
X201636085Y-59789113D01*
X201733497Y-59769737D01*
X201879179Y-59709394D01*
X202010289Y-59621789D01*
X202121789Y-59510289D01*
X202209394Y-59379179D01*
X202269737Y-59233497D01*
X202300500Y-59078842D01*
X202300500Y-58921158D01*
X202300500Y-58921155D01*
X202300499Y-58921153D01*
X202295551Y-58896280D01*
X202269737Y-58766503D01*
X202247727Y-58713365D01*
X202209397Y-58620827D01*
X202209390Y-58620814D01*
X202121789Y-58489711D01*
X202121786Y-58489707D01*
X202010292Y-58378213D01*
X202010288Y-58378210D01*
X201879185Y-58290609D01*
X201879172Y-58290602D01*
X201733501Y-58230264D01*
X201733489Y-58230261D01*
X201578845Y-58199500D01*
X201578842Y-58199500D01*
X201421158Y-58199500D01*
X201421155Y-58199500D01*
X201266510Y-58230261D01*
X201266498Y-58230264D01*
X201120827Y-58290602D01*
X201120814Y-58290609D01*
X200989711Y-58378210D01*
X200989707Y-58378213D01*
X200878213Y-58489707D01*
X200878210Y-58489711D01*
X200790609Y-58620814D01*
X200790602Y-58620827D01*
X200730264Y-58766498D01*
X200730261Y-58766508D01*
X200699361Y-58921850D01*
X200666976Y-58983761D01*
X200665425Y-58985339D01*
X197787584Y-61863181D01*
X197726261Y-61896666D01*
X197699903Y-61899500D01*
X197329766Y-61899500D01*
X197262727Y-61879815D01*
X197260875Y-61878602D01*
X197129185Y-61790609D01*
X197129172Y-61790602D01*
X196983501Y-61730264D01*
X196983489Y-61730261D01*
X196828845Y-61699500D01*
X196828842Y-61699500D01*
X196671158Y-61699500D01*
X196671155Y-61699500D01*
X196516510Y-61730261D01*
X196516498Y-61730264D01*
X196370827Y-61790602D01*
X196370814Y-61790609D01*
X196239711Y-61878210D01*
X196239707Y-61878213D01*
X196128213Y-61989707D01*
X196128210Y-61989711D01*
X196040609Y-62120814D01*
X196040602Y-62120827D01*
X195980264Y-62266498D01*
X195980261Y-62266510D01*
X195949500Y-62421153D01*
X167025500Y-62421153D01*
X167025500Y-61029604D01*
X167034939Y-60982151D01*
X167040015Y-60969896D01*
X167044737Y-60958497D01*
X167075500Y-60803842D01*
X167075500Y-60646158D01*
X167075500Y-60646155D01*
X167075499Y-60646153D01*
X167044738Y-60491510D01*
X167044737Y-60491503D01*
X167044735Y-60491498D01*
X166984397Y-60345827D01*
X166984390Y-60345814D01*
X166896789Y-60214711D01*
X166896786Y-60214707D01*
X166785292Y-60103213D01*
X166785288Y-60103210D01*
X166654185Y-60015609D01*
X166654172Y-60015602D01*
X166508501Y-59955264D01*
X166508489Y-59955261D01*
X166353845Y-59924500D01*
X166353842Y-59924500D01*
X166196158Y-59924500D01*
X166196155Y-59924500D01*
X166041510Y-59955261D01*
X166041498Y-59955264D01*
X165895827Y-60015602D01*
X165895814Y-60015609D01*
X165764711Y-60103210D01*
X165764707Y-60103213D01*
X165653213Y-60214707D01*
X165653210Y-60214711D01*
X165565609Y-60345814D01*
X165565602Y-60345827D01*
X165505264Y-60491498D01*
X165505261Y-60491510D01*
X165474500Y-60646153D01*
X150500500Y-60646153D01*
X150500500Y-58284234D01*
X156324500Y-58284234D01*
X156324500Y-58435765D01*
X156363719Y-58582136D01*
X156386613Y-58621789D01*
X156439485Y-58713365D01*
X156546635Y-58820515D01*
X156677865Y-58896281D01*
X156824234Y-58935500D01*
X156824236Y-58935500D01*
X156975764Y-58935500D01*
X156975766Y-58935500D01*
X157122135Y-58896281D01*
X157253365Y-58820515D01*
X157360515Y-58713365D01*
X157436281Y-58582135D01*
X157475500Y-58435766D01*
X157475500Y-58284234D01*
X157436281Y-58137865D01*
X157360515Y-58006635D01*
X157253365Y-57899485D01*
X157187750Y-57861602D01*
X157122136Y-57823719D01*
X157048950Y-57804109D01*
X156975766Y-57784500D01*
X156824234Y-57784500D01*
X156677863Y-57823719D01*
X156546635Y-57899485D01*
X156546632Y-57899487D01*
X156439487Y-58006632D01*
X156439485Y-58006635D01*
X156363719Y-58137863D01*
X156324500Y-58284234D01*
X150500500Y-58284234D01*
X150500500Y-56893713D01*
X224524500Y-56893713D01*
X224524500Y-57106287D01*
X224557754Y-57316243D01*
X224614117Y-57489711D01*
X224623444Y-57518414D01*
X224719951Y-57707820D01*
X224844890Y-57879786D01*
X224995213Y-58030109D01*
X225167179Y-58155048D01*
X225167181Y-58155049D01*
X225167184Y-58155051D01*
X225356588Y-58251557D01*
X225558757Y-58317246D01*
X225768713Y-58350500D01*
X225768714Y-58350500D01*
X226231286Y-58350500D01*
X226231287Y-58350500D01*
X226441243Y-58317246D01*
X226643412Y-58251557D01*
X226832816Y-58155051D01*
X226937707Y-58078844D01*
X227004786Y-58030109D01*
X227004788Y-58030106D01*
X227004792Y-58030104D01*
X227155104Y-57879792D01*
X227155106Y-57879788D01*
X227155109Y-57879786D01*
X227280048Y-57707820D01*
X227280047Y-57707820D01*
X227280051Y-57707816D01*
X227376557Y-57518412D01*
X227442246Y-57316243D01*
X227475500Y-57106287D01*
X227475500Y-56893713D01*
X227442246Y-56683757D01*
X227376557Y-56481588D01*
X227280051Y-56292184D01*
X227280049Y-56292181D01*
X227280048Y-56292179D01*
X227155109Y-56120213D01*
X227004786Y-55969890D01*
X226832820Y-55844951D01*
X226643414Y-55748444D01*
X226643413Y-55748443D01*
X226643412Y-55748443D01*
X226441243Y-55682754D01*
X226441241Y-55682753D01*
X226441240Y-55682753D01*
X226266315Y-55655048D01*
X226231287Y-55649500D01*
X225768713Y-55649500D01*
X225733685Y-55655048D01*
X225558760Y-55682753D01*
X225356585Y-55748444D01*
X225167179Y-55844951D01*
X224995213Y-55969890D01*
X224844890Y-56120213D01*
X224719951Y-56292179D01*
X224623444Y-56481585D01*
X224557753Y-56683760D01*
X224524500Y-56893713D01*
X150500500Y-56893713D01*
X150500500Y-54393713D01*
X194109500Y-54393713D01*
X194109500Y-54606286D01*
X194142753Y-54816239D01*
X194208444Y-55018414D01*
X194304951Y-55207820D01*
X194429890Y-55379786D01*
X194580213Y-55530109D01*
X194752179Y-55655048D01*
X194752181Y-55655049D01*
X194752184Y-55655051D01*
X194941588Y-55751557D01*
X195143757Y-55817246D01*
X195353713Y-55850500D01*
X195353714Y-55850500D01*
X195566286Y-55850500D01*
X195566287Y-55850500D01*
X195776243Y-55817246D01*
X195978412Y-55751557D01*
X196167816Y-55655051D01*
X196189789Y-55639086D01*
X196339786Y-55530109D01*
X196339788Y-55530106D01*
X196339792Y-55530104D01*
X196490104Y-55379792D01*
X196490106Y-55379788D01*
X196490109Y-55379786D01*
X196615048Y-55207820D01*
X196615047Y-55207820D01*
X196615051Y-55207816D01*
X196619514Y-55199054D01*
X196667488Y-55148259D01*
X196735308Y-55131463D01*
X196801444Y-55153999D01*
X196840486Y-55199056D01*
X196844951Y-55207820D01*
X196969890Y-55379786D01*
X197120213Y-55530109D01*
X197292179Y-55655048D01*
X197292181Y-55655049D01*
X197292184Y-55655051D01*
X197481588Y-55751557D01*
X197683757Y-55817246D01*
X197893713Y-55850500D01*
X197893714Y-55850500D01*
X198106286Y-55850500D01*
X198106287Y-55850500D01*
X198316243Y-55817246D01*
X198518412Y-55751557D01*
X198707816Y-55655051D01*
X198729789Y-55639086D01*
X198879786Y-55530109D01*
X198879788Y-55530106D01*
X198879792Y-55530104D01*
X199030104Y-55379792D01*
X199030106Y-55379788D01*
X199030109Y-55379786D01*
X199155048Y-55207820D01*
X199155047Y-55207820D01*
X199155051Y-55207816D01*
X199251557Y-55018412D01*
X199317246Y-54816243D01*
X199350500Y-54606287D01*
X199350500Y-54393713D01*
X199317246Y-54183757D01*
X199251557Y-53981588D01*
X199155051Y-53792184D01*
X199155049Y-53792181D01*
X199155048Y-53792179D01*
X199030109Y-53620213D01*
X198879786Y-53469890D01*
X198707820Y-53344951D01*
X198518414Y-53248444D01*
X198518413Y-53248443D01*
X198518412Y-53248443D01*
X198316243Y-53182754D01*
X198316241Y-53182753D01*
X198316240Y-53182753D01*
X198154957Y-53157208D01*
X198106287Y-53149500D01*
X197893713Y-53149500D01*
X197845042Y-53157208D01*
X197683760Y-53182753D01*
X197481585Y-53248444D01*
X197292179Y-53344951D01*
X197120213Y-53469890D01*
X196969890Y-53620213D01*
X196844949Y-53792182D01*
X196840484Y-53800946D01*
X196792509Y-53851742D01*
X196724688Y-53868536D01*
X196658553Y-53845998D01*
X196619516Y-53800946D01*
X196615050Y-53792182D01*
X196490109Y-53620213D01*
X196339786Y-53469890D01*
X196167820Y-53344951D01*
X195978414Y-53248444D01*
X195978413Y-53248443D01*
X195978412Y-53248443D01*
X195776243Y-53182754D01*
X195776241Y-53182753D01*
X195776240Y-53182753D01*
X195614957Y-53157208D01*
X195566287Y-53149500D01*
X195353713Y-53149500D01*
X195305042Y-53157208D01*
X195143760Y-53182753D01*
X194941585Y-53248444D01*
X194752179Y-53344951D01*
X194580213Y-53469890D01*
X194429890Y-53620213D01*
X194304951Y-53792179D01*
X194208444Y-53981585D01*
X194142753Y-54183760D01*
X194109500Y-54393713D01*
X150500500Y-54393713D01*
X150500500Y-51624500D01*
X150520185Y-51557461D01*
X150572989Y-51511706D01*
X150624500Y-51500500D01*
X202565890Y-51500500D01*
X202565892Y-51500500D01*
X202693186Y-51466392D01*
X202807314Y-51400500D01*
X202900500Y-51307314D01*
X202966392Y-51193186D01*
X202993529Y-51091905D01*
X203029894Y-51032246D01*
X203092741Y-51001717D01*
X203113304Y-51000000D01*
X229375500Y-51000000D01*
X229442539Y-51019685D01*
G37*
%TD.AperFunction*%
%TD*%
M02*
