%TF.GenerationSoftware,KiCad,Pcbnew,9.0.7*%
%TF.CreationDate,2026-02-25T01:11:13-08:00*%
%TF.ProjectId,Pulse_Box_PCB_v2,50756c73-655f-4426-9f78-5f5043425f76,rev?*%
%TF.SameCoordinates,Original*%
%TF.FileFunction,Copper,L2,Bot*%
%TF.FilePolarity,Positive*%
%FSLAX46Y46*%
G04 Gerber Fmt 4.6, Leading zero omitted, Abs format (unit mm)*
G04 Created by KiCad (PCBNEW 9.0.7) date 2026-02-25 01:11:13*
%MOMM*%
%LPD*%
G01*
G04 APERTURE LIST*
G04 Aperture macros list*
%AMRoundRect*
0 Rectangle with rounded corners*
0 $1 Rounding radius*
0 $2 $3 $4 $5 $6 $7 $8 $9 X,Y pos of 4 corners*
0 Add a 4 corners polygon primitive as box body*
4,1,4,$2,$3,$4,$5,$6,$7,$8,$9,$2,$3,0*
0 Add four circle primitives for the rounded corners*
1,1,$1+$1,$2,$3*
1,1,$1+$1,$4,$5*
1,1,$1+$1,$6,$7*
1,1,$1+$1,$8,$9*
0 Add four rect primitives between the rounded corners*
20,1,$1+$1,$2,$3,$4,$5,0*
20,1,$1+$1,$4,$5,$6,$7,0*
20,1,$1+$1,$6,$7,$8,$9,0*
20,1,$1+$1,$8,$9,$2,$3,0*%
G04 Aperture macros list end*
%TA.AperFunction,ComponentPad*%
%ADD10R,1.700000X1.700000*%
%TD*%
%TA.AperFunction,ComponentPad*%
%ADD11C,1.700000*%
%TD*%
%TA.AperFunction,ComponentPad*%
%ADD12RoundRect,0.250000X-0.600000X-0.725000X0.600000X-0.725000X0.600000X0.725000X-0.600000X0.725000X0*%
%TD*%
%TA.AperFunction,ComponentPad*%
%ADD13O,1.700000X1.950000*%
%TD*%
%TA.AperFunction,ComponentPad*%
%ADD14RoundRect,0.250000X0.725000X-0.600000X0.725000X0.600000X-0.725000X0.600000X-0.725000X-0.600000X0*%
%TD*%
%TA.AperFunction,ComponentPad*%
%ADD15O,1.950000X1.700000*%
%TD*%
%TA.AperFunction,HeatsinkPad*%
%ADD16C,0.600000*%
%TD*%
%TA.AperFunction,HeatsinkPad*%
%ADD17C,0.500000*%
%TD*%
%TA.AperFunction,HeatsinkPad*%
%ADD18R,1.800000X3.100000*%
%TD*%
%TA.AperFunction,HeatsinkPad*%
%ADD19O,2.100000X1.000000*%
%TD*%
%TA.AperFunction,HeatsinkPad*%
%ADD20O,1.600000X1.000000*%
%TD*%
%TA.AperFunction,ComponentPad*%
%ADD21RoundRect,0.250000X-1.050000X1.050000X-1.050000X-1.050000X1.050000X-1.050000X1.050000X1.050000X0*%
%TD*%
%TA.AperFunction,ComponentPad*%
%ADD22C,2.600000*%
%TD*%
%TA.AperFunction,ViaPad*%
%ADD23C,0.600000*%
%TD*%
%TA.AperFunction,Conductor*%
%ADD24C,0.200000*%
%TD*%
G04 APERTURE END LIST*
D10*
%TO.P,J6,1,Pin_1*%
%TO.N,GND*%
X200540000Y-54500000D03*
D11*
%TO.P,J6,2,Pin_2*%
%TO.N,UART0_RX*%
X198000000Y-54500000D03*
%TO.P,J6,3,Pin_3*%
%TO.N,UART0_TX*%
X195460000Y-54500000D03*
%TD*%
D12*
%TO.P,J2,1,Pin_1*%
%TO.N,+24V*%
X177500000Y-106000000D03*
D13*
%TO.P,J2,2,Pin_2*%
%TO.N,GND*%
X180000000Y-106000000D03*
%TO.P,J2,3,Pin_3*%
X182500000Y-106000000D03*
%TO.P,J2,4,Pin_4*%
%TO.N,485A*%
X185000000Y-106000000D03*
%TO.P,J2,5,Pin_5*%
%TO.N,485B*%
X187500000Y-106000000D03*
%TO.P,J2,6,Pin_6*%
%TO.N,PWM_OUT_S*%
X190000000Y-106000000D03*
%TO.P,J2,7,Pin_7*%
%TO.N,485B*%
X192500000Y-106000000D03*
%TO.P,J2,8,Pin_8*%
%TO.N,485A*%
X195000000Y-106000000D03*
%TO.P,J2,9,Pin_9*%
%TO.N,S_SENS*%
X197500000Y-106000000D03*
%TO.P,J2,10,Pin_10*%
%TO.N,GND*%
X200000000Y-106000000D03*
%TO.P,J2,11,Pin_11*%
%TO.N,+24V*%
X202500000Y-106000000D03*
%TD*%
D14*
%TO.P,J3,1,Pin_1*%
%TO.N,+24V*%
X226000000Y-82000000D03*
D15*
%TO.P,J3,2,Pin_2*%
%TO.N,GND*%
X226000000Y-79500000D03*
%TO.P,J3,3,Pin_3*%
X226000000Y-77000000D03*
%TO.P,J3,4,Pin_4*%
%TO.N,485A*%
X226000000Y-74500000D03*
%TO.P,J3,5,Pin_5*%
%TO.N,485B*%
X226000000Y-72000000D03*
%TO.P,J3,6,Pin_6*%
%TO.N,PWM_OUT_E*%
X226000000Y-69500000D03*
%TO.P,J3,7,Pin_7*%
%TO.N,485B*%
X226000000Y-67000000D03*
%TO.P,J3,8,Pin_8*%
%TO.N,485A*%
X226000000Y-64500000D03*
%TO.P,J3,9,Pin_9*%
%TO.N,E_SENS*%
X226000000Y-62000000D03*
%TO.P,J3,10,Pin_10*%
%TO.N,GND*%
X226000000Y-59500000D03*
%TO.P,J3,11,Pin_11*%
%TO.N,+24V*%
X226000000Y-57000000D03*
%TD*%
D16*
%TO.P,U1,41,GND*%
%TO.N,GND*%
X174100000Y-59760000D03*
X174100000Y-61160000D03*
X174800000Y-59060000D03*
X174800000Y-60460000D03*
X174800000Y-61860000D03*
X175500000Y-59760000D03*
X175500000Y-61160000D03*
X176200000Y-59060000D03*
X176200000Y-60460000D03*
X176200000Y-61860000D03*
X176900000Y-59760000D03*
X176900000Y-61160000D03*
%TD*%
D17*
%TO.P,U3,9,GND*%
%TO.N,GND*%
X196000000Y-89000000D03*
X196000000Y-90300000D03*
X196000000Y-91600000D03*
D18*
X196650000Y-90300000D03*
D17*
X197300000Y-89000000D03*
X197300000Y-90300000D03*
X197300000Y-91600000D03*
%TD*%
D19*
%TO.P,P1,S1,SHIELD*%
%TO.N,GND*%
X157430000Y-56905000D03*
D20*
X153250000Y-56905000D03*
D19*
X157430000Y-65545000D03*
D20*
X153250000Y-65545000D03*
%TD*%
D21*
%TO.P,J1,1,Pin_1*%
%TO.N,GND*%
X155500000Y-94500000D03*
D22*
%TO.P,J1,2,Pin_2*%
%TO.N,+24V*%
X155500000Y-99580000D03*
%TD*%
D23*
%TO.N,+3.3V*%
X183500000Y-73500000D03*
X181000000Y-73500000D03*
%TO.N,GND*%
X201000000Y-101000000D03*
X170000000Y-53000000D03*
X203000000Y-103000000D03*
X199500000Y-68000000D03*
X218500000Y-66500000D03*
X218500000Y-76500000D03*
X192000000Y-67500000D03*
X223000000Y-79500000D03*
X176000000Y-86500000D03*
X176000000Y-81000000D03*
%TO.N,+3.3V*%
X207000000Y-58000000D03*
X206000000Y-62000000D03*
X166275000Y-60725000D03*
X175000000Y-72500000D03*
%TO.N,+5V*%
X199500000Y-77500000D03*
X165500000Y-85000000D03*
X161500000Y-82500000D03*
X161500000Y-71500000D03*
X199500000Y-76500000D03*
X162500000Y-70500000D03*
X161500000Y-70500000D03*
X162500000Y-71500000D03*
X198500000Y-77500000D03*
X161500000Y-83500000D03*
X198500000Y-76500000D03*
X162500000Y-83500000D03*
X162500000Y-82500000D03*
%TO.N,+24V*%
X186500000Y-97500000D03*
X227000000Y-52500000D03*
X206500000Y-105000000D03*
X227000000Y-53500000D03*
X176500000Y-101500000D03*
X177500000Y-101500000D03*
X227000000Y-86500000D03*
X156500000Y-103500000D03*
X207500000Y-105000000D03*
X176500000Y-102500000D03*
X156500000Y-104500000D03*
X175500000Y-101500000D03*
X155500000Y-103500000D03*
X226000000Y-86500000D03*
X154500000Y-104500000D03*
X226000000Y-53500000D03*
X207500000Y-106000000D03*
X175500000Y-102500000D03*
X177500000Y-102500000D03*
X225000000Y-86500000D03*
X185500000Y-97500000D03*
X207500000Y-107000000D03*
X206500000Y-107000000D03*
X185500000Y-98500000D03*
X226000000Y-85500000D03*
X206500000Y-106000000D03*
X225000000Y-53500000D03*
X225000000Y-52500000D03*
X226000000Y-52500000D03*
X154500000Y-103500000D03*
X225000000Y-85500000D03*
X155500000Y-104500000D03*
X227000000Y-85500000D03*
X186500000Y-98500000D03*
%TO.N,485B*%
X222000000Y-94500000D03*
X222000000Y-97500000D03*
%TO.N,Net-(U1-IO0)*%
X201500000Y-59000000D03*
X197500000Y-63000000D03*
%TO.N,UART1_RX*%
X189000000Y-62500000D03*
X203000000Y-65500000D03*
%TO.N,UART1_TX*%
X188170000Y-64170000D03*
X201000000Y-65500000D03*
%TO.N,485_DE*%
X188523481Y-63452327D03*
X202000000Y-65500000D03*
%TO.N,PWM_OUT_E*%
X191000000Y-75500000D03*
%TO.N,Net-(C6-Pad2)*%
X201500000Y-94500000D03*
X201500000Y-93000000D03*
%TO.N,S_SENS*%
X195500000Y-102500000D03*
X182500000Y-84000000D03*
X182500000Y-82000000D03*
%TO.N,E_SENS*%
X194500000Y-59500000D03*
X189000000Y-54000000D03*
%TO.N,STATUS*%
X204000000Y-65500000D03*
X200500000Y-62000000D03*
%TD*%
D24*
%TO.N,+3.3V*%
X183500000Y-73500000D02*
X181000000Y-73500000D01*
%TO.N,GND*%
X176000000Y-81000000D02*
X176000000Y-86500000D01*
X221500000Y-79500000D02*
X218500000Y-76500000D01*
X203000000Y-103000000D02*
X201000000Y-101000000D01*
X223000000Y-79500000D02*
X221500000Y-79500000D01*
%TO.N,+3.3V*%
X166275000Y-60725000D02*
X166275000Y-63775000D01*
X207000000Y-58000000D02*
X206000000Y-59000000D01*
X166275000Y-63775000D02*
X175000000Y-72500000D01*
X206000000Y-59000000D02*
X206000000Y-62000000D01*
%TO.N,485B*%
X222000000Y-97500000D02*
X222000000Y-94500000D01*
%TO.N,Net-(U1-IO0)*%
X201500000Y-59000000D02*
X197500000Y-63000000D01*
%TO.N,UART1_RX*%
X190101000Y-63601000D02*
X201101000Y-63601000D01*
X201101000Y-63601000D02*
X203000000Y-65500000D01*
X189000000Y-62500000D02*
X190101000Y-63601000D01*
%TO.N,UART1_TX*%
X188170000Y-64170000D02*
X189500000Y-65500000D01*
X189500000Y-65500000D02*
X201000000Y-65500000D01*
%TO.N,485_DE*%
X188583701Y-63452327D02*
X189631374Y-64500000D01*
X189631374Y-64500000D02*
X201000000Y-64500000D01*
X188523481Y-63452327D02*
X188583701Y-63452327D01*
X201000000Y-64500000D02*
X202000000Y-65500000D01*
%TO.N,PWM_OUT_E*%
X191000000Y-75500000D02*
X197000000Y-69500000D01*
X197000000Y-69500000D02*
X226000000Y-69500000D01*
%TO.N,Net-(C6-Pad2)*%
X201500000Y-93000000D02*
X201500000Y-94500000D01*
%TO.N,S_SENS*%
X197500000Y-104500000D02*
X197500000Y-106000000D01*
X182500000Y-82000000D02*
X182500000Y-84000000D01*
X195500000Y-102500000D02*
X197500000Y-104500000D01*
%TO.N,E_SENS*%
X194272000Y-59272000D02*
X194500000Y-59500000D01*
X194272000Y-59272000D02*
X189000000Y-54000000D01*
%TO.N,STATUS*%
X204000000Y-65500000D02*
X200500000Y-62000000D01*
%TD*%
%TA.AperFunction,Conductor*%
%TO.N,GND*%
G36*
X222443039Y-86019685D02*
G01*
X222488794Y-86072489D01*
X222500000Y-86124000D01*
X222500000Y-93655072D01*
X222480315Y-93722111D01*
X222427511Y-93767866D01*
X222358353Y-93777810D01*
X222328548Y-93769634D01*
X222319471Y-93765874D01*
X222233497Y-93730263D01*
X222233492Y-93730262D01*
X222233489Y-93730261D01*
X222078845Y-93699500D01*
X222078842Y-93699500D01*
X221921158Y-93699500D01*
X221921155Y-93699500D01*
X221766510Y-93730261D01*
X221766498Y-93730264D01*
X221620827Y-93790602D01*
X221620814Y-93790609D01*
X221489711Y-93878210D01*
X221489707Y-93878213D01*
X221378213Y-93989707D01*
X221378210Y-93989711D01*
X221290609Y-94120814D01*
X221290602Y-94120827D01*
X221230264Y-94266498D01*
X221230261Y-94266510D01*
X221199500Y-94421153D01*
X221199500Y-94578846D01*
X221230261Y-94733489D01*
X221230264Y-94733501D01*
X221290602Y-94879172D01*
X221290609Y-94879185D01*
X221378602Y-95010874D01*
X221399480Y-95077551D01*
X221399500Y-95079765D01*
X221399500Y-96376000D01*
X221379815Y-96443039D01*
X221327011Y-96488794D01*
X221275500Y-96500000D01*
X150624500Y-96500000D01*
X150557461Y-96480315D01*
X150511706Y-96427511D01*
X150500500Y-96376000D01*
X150500500Y-92921153D01*
X200699500Y-92921153D01*
X200699500Y-93078846D01*
X200730261Y-93233489D01*
X200730264Y-93233501D01*
X200790602Y-93379172D01*
X200790609Y-93379185D01*
X200878602Y-93510874D01*
X200899480Y-93577551D01*
X200899500Y-93579765D01*
X200899500Y-93920234D01*
X200879815Y-93987273D01*
X200878602Y-93989125D01*
X200790609Y-94120814D01*
X200790602Y-94120827D01*
X200730264Y-94266498D01*
X200730261Y-94266510D01*
X200699500Y-94421153D01*
X200699500Y-94578846D01*
X200730261Y-94733489D01*
X200730264Y-94733501D01*
X200790602Y-94879172D01*
X200790609Y-94879185D01*
X200878210Y-95010288D01*
X200878213Y-95010292D01*
X200989707Y-95121786D01*
X200989711Y-95121789D01*
X201120814Y-95209390D01*
X201120827Y-95209397D01*
X201266498Y-95269735D01*
X201266503Y-95269737D01*
X201421153Y-95300499D01*
X201421156Y-95300500D01*
X201421158Y-95300500D01*
X201578844Y-95300500D01*
X201578845Y-95300499D01*
X201733497Y-95269737D01*
X201879179Y-95209394D01*
X202010289Y-95121789D01*
X202121789Y-95010289D01*
X202209394Y-94879179D01*
X202269737Y-94733497D01*
X202300500Y-94578842D01*
X202300500Y-94421158D01*
X202300500Y-94421155D01*
X202300499Y-94421153D01*
X202269738Y-94266510D01*
X202269737Y-94266503D01*
X202269735Y-94266498D01*
X202209397Y-94120827D01*
X202209390Y-94120814D01*
X202121398Y-93989125D01*
X202100520Y-93922447D01*
X202100500Y-93920234D01*
X202100500Y-93579765D01*
X202120185Y-93512726D01*
X202121398Y-93510874D01*
X202209390Y-93379185D01*
X202209390Y-93379184D01*
X202209394Y-93379179D01*
X202269737Y-93233497D01*
X202300500Y-93078842D01*
X202300500Y-92921158D01*
X202300500Y-92921155D01*
X202300499Y-92921153D01*
X202269738Y-92766510D01*
X202269737Y-92766503D01*
X202269735Y-92766498D01*
X202209397Y-92620827D01*
X202209390Y-92620814D01*
X202121789Y-92489711D01*
X202121786Y-92489707D01*
X202010292Y-92378213D01*
X202010288Y-92378210D01*
X201879185Y-92290609D01*
X201879172Y-92290602D01*
X201733501Y-92230264D01*
X201733489Y-92230261D01*
X201578845Y-92199500D01*
X201578842Y-92199500D01*
X201421158Y-92199500D01*
X201421155Y-92199500D01*
X201266510Y-92230261D01*
X201266498Y-92230264D01*
X201120827Y-92290602D01*
X201120814Y-92290609D01*
X200989711Y-92378210D01*
X200989707Y-92378213D01*
X200878213Y-92489707D01*
X200878210Y-92489711D01*
X200790609Y-92620814D01*
X200790602Y-92620827D01*
X200730264Y-92766498D01*
X200730261Y-92766510D01*
X200699500Y-92921153D01*
X150500500Y-92921153D01*
X150500500Y-86124000D01*
X150520185Y-86056961D01*
X150572989Y-86011206D01*
X150624500Y-86000000D01*
X222376000Y-86000000D01*
X222443039Y-86019685D01*
G37*
%TD.AperFunction*%
%TD*%
%TA.AperFunction,Conductor*%
%TO.N,+24V*%
G36*
X229442539Y-51520185D02*
G01*
X229488294Y-51572989D01*
X229499500Y-51624500D01*
X229499500Y-96500000D01*
X222600500Y-96500000D01*
X222600500Y-95079765D01*
X222620185Y-95012726D01*
X222621398Y-95010874D01*
X222709390Y-94879185D01*
X222709390Y-94879184D01*
X222709394Y-94879179D01*
X222769737Y-94733497D01*
X222800500Y-94578842D01*
X222800500Y-94421158D01*
X222800500Y-94421155D01*
X222800499Y-94421153D01*
X222799066Y-94413947D01*
X222769737Y-94266503D01*
X222765456Y-94256169D01*
X222757985Y-94186704D01*
X222789257Y-94124224D01*
X222798817Y-94114999D01*
X222811347Y-94104142D01*
X222905567Y-93995408D01*
X222965338Y-93864531D01*
X222985023Y-93797492D01*
X222985024Y-93797488D01*
X223005500Y-93655072D01*
X223005500Y-86124000D01*
X222993947Y-86016544D01*
X222982741Y-85965033D01*
X222982637Y-85964722D01*
X222948616Y-85862502D01*
X222948613Y-85862497D01*
X222948613Y-85862496D01*
X222919565Y-85817297D01*
X222899881Y-85750260D01*
X222911087Y-85698748D01*
X222965338Y-85579959D01*
X222985023Y-85512920D01*
X222985024Y-85512916D01*
X223005500Y-85370500D01*
X223005500Y-80416853D01*
X223025185Y-80349814D01*
X223077989Y-80304059D01*
X223105309Y-80295236D01*
X223172389Y-80281892D01*
X223233497Y-80269737D01*
X223379179Y-80209394D01*
X223510289Y-80121789D01*
X223621789Y-80010289D01*
X223709394Y-79879179D01*
X223769737Y-79733497D01*
X223800500Y-79578842D01*
X223800500Y-79421158D01*
X223800500Y-79421155D01*
X223800499Y-79421153D01*
X223769738Y-79266510D01*
X223769737Y-79266503D01*
X223713728Y-79131284D01*
X223709397Y-79120827D01*
X223709390Y-79120814D01*
X223621789Y-78989711D01*
X223621786Y-78989707D01*
X223510292Y-78878213D01*
X223510288Y-78878210D01*
X223379185Y-78790609D01*
X223379172Y-78790602D01*
X223233501Y-78730264D01*
X223233491Y-78730261D01*
X223105308Y-78704763D01*
X223043397Y-78672377D01*
X223008823Y-78611661D01*
X223005500Y-78583146D01*
X223005500Y-70224500D01*
X223025185Y-70157461D01*
X223077989Y-70111706D01*
X223129500Y-70100500D01*
X224589281Y-70100500D01*
X224656320Y-70120185D01*
X224699765Y-70168205D01*
X224719947Y-70207814D01*
X224719948Y-70207815D01*
X224844890Y-70379786D01*
X224995209Y-70530105D01*
X224995214Y-70530109D01*
X225159793Y-70649682D01*
X225202459Y-70705011D01*
X225208438Y-70774625D01*
X225175833Y-70836420D01*
X225159793Y-70850318D01*
X224995214Y-70969890D01*
X224995209Y-70969894D01*
X224844890Y-71120213D01*
X224719951Y-71292179D01*
X224623444Y-71481585D01*
X224557753Y-71683760D01*
X224524500Y-71893713D01*
X224524500Y-72106286D01*
X224557073Y-72311947D01*
X224557754Y-72316243D01*
X224563433Y-72333722D01*
X224623444Y-72518414D01*
X224719951Y-72707820D01*
X224844890Y-72879786D01*
X224995209Y-73030105D01*
X224995214Y-73030109D01*
X225159793Y-73149682D01*
X225202459Y-73205011D01*
X225208438Y-73274625D01*
X225175833Y-73336420D01*
X225159793Y-73350318D01*
X224995214Y-73469890D01*
X224995209Y-73469894D01*
X224844890Y-73620213D01*
X224719951Y-73792179D01*
X224623444Y-73981585D01*
X224557753Y-74183760D01*
X224524500Y-74393713D01*
X224524500Y-74606286D01*
X224557753Y-74816239D01*
X224623444Y-75018414D01*
X224719951Y-75207820D01*
X224844890Y-75379786D01*
X224995209Y-75530105D01*
X224995214Y-75530109D01*
X225159793Y-75649682D01*
X225202459Y-75705011D01*
X225208438Y-75774625D01*
X225175833Y-75836420D01*
X225159793Y-75850318D01*
X224995214Y-75969890D01*
X224995209Y-75969894D01*
X224844890Y-76120213D01*
X224719951Y-76292179D01*
X224623444Y-76481585D01*
X224557753Y-76683760D01*
X224524500Y-76893713D01*
X224524500Y-77106286D01*
X224557753Y-77316239D01*
X224623444Y-77518414D01*
X224719951Y-77707820D01*
X224844890Y-77879786D01*
X224995209Y-78030105D01*
X224995214Y-78030109D01*
X225159793Y-78149682D01*
X225202459Y-78205011D01*
X225208438Y-78274625D01*
X225175833Y-78336420D01*
X225159793Y-78350318D01*
X224995214Y-78469890D01*
X224995209Y-78469894D01*
X224844890Y-78620213D01*
X224719951Y-78792179D01*
X224623444Y-78981585D01*
X224557753Y-79183760D01*
X224544649Y-79266498D01*
X224524500Y-79393713D01*
X224524500Y-79606287D01*
X224557754Y-79816243D01*
X224620803Y-80010288D01*
X224623444Y-80018414D01*
X224719951Y-80207820D01*
X224844890Y-80379786D01*
X224995213Y-80530109D01*
X225167179Y-80655048D01*
X225167181Y-80655049D01*
X225167184Y-80655051D01*
X225356588Y-80751557D01*
X225558757Y-80817246D01*
X225768713Y-80850500D01*
X225768714Y-80850500D01*
X226231286Y-80850500D01*
X226231287Y-80850500D01*
X226441243Y-80817246D01*
X226643412Y-80751557D01*
X226832816Y-80655051D01*
X226854789Y-80639086D01*
X227004786Y-80530109D01*
X227004788Y-80530106D01*
X227004792Y-80530104D01*
X227155104Y-80379792D01*
X227155106Y-80379788D01*
X227155109Y-80379786D01*
X227278902Y-80209397D01*
X227280051Y-80207816D01*
X227376557Y-80018412D01*
X227442246Y-79816243D01*
X227475500Y-79606287D01*
X227475500Y-79393713D01*
X227442246Y-79183757D01*
X227376557Y-78981588D01*
X227280051Y-78792184D01*
X227280049Y-78792181D01*
X227280048Y-78792179D01*
X227155109Y-78620213D01*
X227004792Y-78469896D01*
X227004784Y-78469890D01*
X226840204Y-78350316D01*
X226797540Y-78294989D01*
X226791561Y-78225376D01*
X226824166Y-78163580D01*
X226840199Y-78149686D01*
X227004792Y-78030104D01*
X227155104Y-77879792D01*
X227155106Y-77879788D01*
X227155109Y-77879786D01*
X227280048Y-77707820D01*
X227280047Y-77707820D01*
X227280051Y-77707816D01*
X227376557Y-77518412D01*
X227442246Y-77316243D01*
X227475500Y-77106287D01*
X227475500Y-76893713D01*
X227442246Y-76683757D01*
X227376557Y-76481588D01*
X227280051Y-76292184D01*
X227280049Y-76292181D01*
X227280048Y-76292179D01*
X227155109Y-76120213D01*
X227004792Y-75969896D01*
X227004784Y-75969890D01*
X226840204Y-75850316D01*
X226797540Y-75794989D01*
X226791561Y-75725376D01*
X226824166Y-75663580D01*
X226840199Y-75649686D01*
X227004792Y-75530104D01*
X227155104Y-75379792D01*
X227155106Y-75379788D01*
X227155109Y-75379786D01*
X227280048Y-75207820D01*
X227280047Y-75207820D01*
X227280051Y-75207816D01*
X227376557Y-75018412D01*
X227442246Y-74816243D01*
X227475500Y-74606287D01*
X227475500Y-74393713D01*
X227442246Y-74183757D01*
X227376557Y-73981588D01*
X227280051Y-73792184D01*
X227280049Y-73792181D01*
X227280048Y-73792179D01*
X227155109Y-73620213D01*
X227004792Y-73469896D01*
X226927784Y-73413947D01*
X226840204Y-73350316D01*
X226797540Y-73294989D01*
X226791561Y-73225376D01*
X226824166Y-73163580D01*
X226840199Y-73149686D01*
X227004792Y-73030104D01*
X227155104Y-72879792D01*
X227155106Y-72879788D01*
X227155109Y-72879786D01*
X227280048Y-72707820D01*
X227280047Y-72707820D01*
X227280051Y-72707816D01*
X227376557Y-72518412D01*
X227442246Y-72316243D01*
X227475500Y-72106287D01*
X227475500Y-71893713D01*
X227442246Y-71683757D01*
X227376557Y-71481588D01*
X227280051Y-71292184D01*
X227280049Y-71292181D01*
X227280048Y-71292179D01*
X227155109Y-71120213D01*
X227004792Y-70969896D01*
X227004784Y-70969890D01*
X226840204Y-70850316D01*
X226797540Y-70794989D01*
X226791561Y-70725376D01*
X226824166Y-70663580D01*
X226840199Y-70649686D01*
X227004792Y-70530104D01*
X227155104Y-70379792D01*
X227155106Y-70379788D01*
X227155109Y-70379786D01*
X227280048Y-70207820D01*
X227280047Y-70207820D01*
X227280051Y-70207816D01*
X227376557Y-70018412D01*
X227442246Y-69816243D01*
X227475500Y-69606287D01*
X227475500Y-69393713D01*
X227442246Y-69183757D01*
X227376557Y-68981588D01*
X227280051Y-68792184D01*
X227280049Y-68792181D01*
X227280048Y-68792179D01*
X227155109Y-68620213D01*
X227004792Y-68469896D01*
X227004784Y-68469890D01*
X226840204Y-68350316D01*
X226797540Y-68294989D01*
X226791561Y-68225376D01*
X226824166Y-68163580D01*
X226840199Y-68149686D01*
X227004792Y-68030104D01*
X227155104Y-67879792D01*
X227155106Y-67879788D01*
X227155109Y-67879786D01*
X227280048Y-67707820D01*
X227280047Y-67707820D01*
X227280051Y-67707816D01*
X227376557Y-67518412D01*
X227442246Y-67316243D01*
X227475500Y-67106287D01*
X227475500Y-66893713D01*
X227442246Y-66683757D01*
X227376557Y-66481588D01*
X227280051Y-66292184D01*
X227280049Y-66292181D01*
X227280048Y-66292179D01*
X227155109Y-66120213D01*
X227004792Y-65969896D01*
X227004784Y-65969890D01*
X226840204Y-65850316D01*
X226797540Y-65794989D01*
X226791561Y-65725376D01*
X226824166Y-65663580D01*
X226840199Y-65649686D01*
X227004792Y-65530104D01*
X227155104Y-65379792D01*
X227155106Y-65379788D01*
X227155109Y-65379786D01*
X227280048Y-65207820D01*
X227280047Y-65207820D01*
X227280051Y-65207816D01*
X227376557Y-65018412D01*
X227442246Y-64816243D01*
X227475500Y-64606287D01*
X227475500Y-64393713D01*
X227442246Y-64183757D01*
X227376557Y-63981588D01*
X227280051Y-63792184D01*
X227280049Y-63792181D01*
X227280048Y-63792179D01*
X227155109Y-63620213D01*
X227004792Y-63469896D01*
X226999207Y-63465838D01*
X226840204Y-63350316D01*
X226797540Y-63294989D01*
X226791561Y-63225376D01*
X226824166Y-63163580D01*
X226840199Y-63149686D01*
X227004792Y-63030104D01*
X227155104Y-62879792D01*
X227155106Y-62879788D01*
X227155109Y-62879786D01*
X227280048Y-62707820D01*
X227280047Y-62707820D01*
X227280051Y-62707816D01*
X227376557Y-62518412D01*
X227442246Y-62316243D01*
X227475500Y-62106287D01*
X227475500Y-61893713D01*
X227442246Y-61683757D01*
X227376557Y-61481588D01*
X227280051Y-61292184D01*
X227280049Y-61292181D01*
X227280048Y-61292179D01*
X227155109Y-61120213D01*
X227004792Y-60969896D01*
X226984332Y-60955031D01*
X226840204Y-60850316D01*
X226797540Y-60794989D01*
X226791561Y-60725376D01*
X226824166Y-60663580D01*
X226840199Y-60649686D01*
X227004792Y-60530104D01*
X227155104Y-60379792D01*
X227155106Y-60379788D01*
X227155109Y-60379786D01*
X227280048Y-60207820D01*
X227280047Y-60207820D01*
X227280051Y-60207816D01*
X227376557Y-60018412D01*
X227442246Y-59816243D01*
X227475500Y-59606287D01*
X227475500Y-59393713D01*
X227442246Y-59183757D01*
X227376557Y-58981588D01*
X227280051Y-58792184D01*
X227280049Y-58792181D01*
X227280048Y-58792179D01*
X227155109Y-58620213D01*
X227004786Y-58469890D01*
X226832820Y-58344951D01*
X226643414Y-58248444D01*
X226643413Y-58248443D01*
X226643412Y-58248443D01*
X226441243Y-58182754D01*
X226441241Y-58182753D01*
X226441240Y-58182753D01*
X226273273Y-58156150D01*
X226231287Y-58149500D01*
X225768713Y-58149500D01*
X225726727Y-58156150D01*
X225558760Y-58182753D01*
X225356585Y-58248444D01*
X225167179Y-58344951D01*
X224995213Y-58469890D01*
X224844890Y-58620213D01*
X224719951Y-58792179D01*
X224623444Y-58981585D01*
X224557753Y-59183760D01*
X224524500Y-59393713D01*
X224524500Y-59606286D01*
X224557753Y-59816239D01*
X224623444Y-60018414D01*
X224719951Y-60207820D01*
X224844890Y-60379786D01*
X224995209Y-60530105D01*
X224995214Y-60530109D01*
X225159793Y-60649682D01*
X225202459Y-60705011D01*
X225208438Y-60774625D01*
X225175833Y-60836420D01*
X225159793Y-60850318D01*
X224995214Y-60969890D01*
X224995209Y-60969894D01*
X224844890Y-61120213D01*
X224719951Y-61292179D01*
X224623444Y-61481585D01*
X224557753Y-61683760D01*
X224524500Y-61893713D01*
X224524500Y-62106286D01*
X224557073Y-62311948D01*
X224557754Y-62316243D01*
X224623140Y-62517480D01*
X224623444Y-62518414D01*
X224719951Y-62707820D01*
X224844890Y-62879786D01*
X224995209Y-63030105D01*
X224995214Y-63030109D01*
X225159793Y-63149682D01*
X225202459Y-63205011D01*
X225208438Y-63274625D01*
X225175833Y-63336420D01*
X225159793Y-63350318D01*
X224995214Y-63469890D01*
X224995209Y-63469894D01*
X224844890Y-63620213D01*
X224719951Y-63792179D01*
X224623444Y-63981585D01*
X224557753Y-64183760D01*
X224524500Y-64393713D01*
X224524500Y-64606286D01*
X224557753Y-64816239D01*
X224623444Y-65018414D01*
X224719951Y-65207820D01*
X224844890Y-65379786D01*
X224995209Y-65530105D01*
X224995214Y-65530109D01*
X225159793Y-65649682D01*
X225202459Y-65705011D01*
X225208438Y-65774625D01*
X225175833Y-65836420D01*
X225159793Y-65850318D01*
X224995214Y-65969890D01*
X224995209Y-65969894D01*
X224844890Y-66120213D01*
X224719951Y-66292179D01*
X224623444Y-66481585D01*
X224557753Y-66683760D01*
X224524500Y-66893713D01*
X224524500Y-67106286D01*
X224557753Y-67316239D01*
X224623444Y-67518414D01*
X224719951Y-67707820D01*
X224844890Y-67879786D01*
X224995209Y-68030105D01*
X224995214Y-68030109D01*
X225159793Y-68149682D01*
X225202459Y-68205011D01*
X225208438Y-68274625D01*
X225175833Y-68336420D01*
X225159793Y-68350318D01*
X224995214Y-68469890D01*
X224995209Y-68469894D01*
X224844890Y-68620213D01*
X224719948Y-68792184D01*
X224719947Y-68792185D01*
X224699765Y-68831795D01*
X224651791Y-68882591D01*
X224589281Y-68899500D01*
X223129500Y-68899500D01*
X223062461Y-68879815D01*
X223016706Y-68827011D01*
X223005500Y-68775500D01*
X223005500Y-51624500D01*
X223025185Y-51557461D01*
X223077989Y-51511706D01*
X223129500Y-51500500D01*
X229375500Y-51500500D01*
X229442539Y-51520185D01*
G37*
%TD.AperFunction*%
%TD*%
%TA.AperFunction,Conductor*%
%TO.N,+5V*%
G36*
X171423012Y-69788093D02*
G01*
X171467358Y-69816593D01*
X174165425Y-72514660D01*
X174198910Y-72575983D01*
X174199361Y-72578149D01*
X174230261Y-72733491D01*
X174230264Y-72733501D01*
X174290602Y-72879172D01*
X174290609Y-72879185D01*
X174378210Y-73010288D01*
X174378213Y-73010292D01*
X174489707Y-73121786D01*
X174489711Y-73121789D01*
X174620814Y-73209390D01*
X174620827Y-73209397D01*
X174758683Y-73266498D01*
X174766503Y-73269737D01*
X174921153Y-73300499D01*
X174921156Y-73300500D01*
X174921158Y-73300500D01*
X175078844Y-73300500D01*
X175078845Y-73300499D01*
X175089179Y-73298443D01*
X175114287Y-73293450D01*
X175114292Y-73293449D01*
X175199800Y-73276439D01*
X175233497Y-73269737D01*
X175379179Y-73209394D01*
X175510289Y-73121789D01*
X175621789Y-73010289D01*
X175709394Y-72879179D01*
X175769737Y-72733497D01*
X175800500Y-72578842D01*
X175800500Y-72421158D01*
X175800500Y-72421155D01*
X175800499Y-72421153D01*
X175769738Y-72266510D01*
X175769737Y-72266503D01*
X175769735Y-72266498D01*
X175709397Y-72120827D01*
X175709390Y-72120814D01*
X175621789Y-71989711D01*
X175621786Y-71989707D01*
X175510292Y-71878213D01*
X175510288Y-71878210D01*
X175379185Y-71790609D01*
X175379172Y-71790602D01*
X175233501Y-71730264D01*
X175233491Y-71730261D01*
X175078149Y-71699361D01*
X175016238Y-71666976D01*
X175014660Y-71665425D01*
X173566416Y-70217181D01*
X173532931Y-70155858D01*
X173537915Y-70086166D01*
X173579787Y-70030233D01*
X173645251Y-70005816D01*
X173654097Y-70005500D01*
X195345903Y-70005500D01*
X195412942Y-70025185D01*
X195458697Y-70077989D01*
X195468641Y-70147147D01*
X195439616Y-70210703D01*
X195433584Y-70217181D01*
X190985339Y-74665425D01*
X190924016Y-74698910D01*
X190921850Y-74699361D01*
X190766508Y-74730261D01*
X190766498Y-74730264D01*
X190620827Y-74790602D01*
X190620814Y-74790609D01*
X190489711Y-74878210D01*
X190489707Y-74878213D01*
X190378213Y-74989707D01*
X190378210Y-74989711D01*
X190290609Y-75120814D01*
X190290602Y-75120827D01*
X190230264Y-75266498D01*
X190230261Y-75266510D01*
X190199500Y-75421153D01*
X190199500Y-75578846D01*
X190230261Y-75733489D01*
X190230264Y-75733501D01*
X190290602Y-75879172D01*
X190290609Y-75879185D01*
X190378210Y-76010288D01*
X190378213Y-76010292D01*
X190489707Y-76121786D01*
X190489711Y-76121789D01*
X190620814Y-76209390D01*
X190620827Y-76209397D01*
X190758683Y-76266498D01*
X190766503Y-76269737D01*
X190921153Y-76300499D01*
X190921156Y-76300500D01*
X190921158Y-76300500D01*
X191078844Y-76300500D01*
X191078845Y-76300499D01*
X191233497Y-76269737D01*
X191379179Y-76209394D01*
X191510289Y-76121789D01*
X191621789Y-76010289D01*
X191709394Y-75879179D01*
X191769737Y-75733497D01*
X191789113Y-75636085D01*
X191800638Y-75578150D01*
X191833023Y-75516239D01*
X191834518Y-75514716D01*
X197212416Y-70136819D01*
X197273739Y-70103334D01*
X197300097Y-70100500D01*
X222376000Y-70100500D01*
X222443039Y-70120185D01*
X222488794Y-70172989D01*
X222500000Y-70224500D01*
X222500000Y-78775500D01*
X222480315Y-78842539D01*
X222427511Y-78888294D01*
X222376000Y-78899500D01*
X221800098Y-78899500D01*
X221733059Y-78879815D01*
X221712417Y-78863181D01*
X219334573Y-76485337D01*
X219301088Y-76424014D01*
X219300637Y-76421847D01*
X219269738Y-76266510D01*
X219269737Y-76266503D01*
X219209794Y-76121786D01*
X219209397Y-76120827D01*
X219209390Y-76120814D01*
X219121789Y-75989711D01*
X219121786Y-75989707D01*
X219010292Y-75878213D01*
X219010288Y-75878210D01*
X218879185Y-75790609D01*
X218879172Y-75790602D01*
X218733501Y-75730264D01*
X218733489Y-75730261D01*
X218578845Y-75699500D01*
X218578842Y-75699500D01*
X218421158Y-75699500D01*
X218421155Y-75699500D01*
X218266510Y-75730261D01*
X218266498Y-75730264D01*
X218120827Y-75790602D01*
X218120814Y-75790609D01*
X217989711Y-75878210D01*
X217989707Y-75878213D01*
X217878213Y-75989707D01*
X217878210Y-75989711D01*
X217790609Y-76120814D01*
X217790602Y-76120827D01*
X217730264Y-76266498D01*
X217730261Y-76266510D01*
X217699500Y-76421153D01*
X217699500Y-76578846D01*
X217730261Y-76733489D01*
X217730264Y-76733501D01*
X217790602Y-76879172D01*
X217790609Y-76879185D01*
X217878210Y-77010288D01*
X217878213Y-77010292D01*
X217989707Y-77121786D01*
X217989711Y-77121789D01*
X218120814Y-77209390D01*
X218120827Y-77209397D01*
X218266498Y-77269735D01*
X218266503Y-77269737D01*
X218331147Y-77282595D01*
X218421849Y-77300638D01*
X218483760Y-77333023D01*
X218485338Y-77334573D01*
X221131284Y-79980520D01*
X221131286Y-79980521D01*
X221131290Y-79980524D01*
X221268209Y-80059573D01*
X221268216Y-80059577D01*
X221420943Y-80100501D01*
X221420945Y-80100501D01*
X221586654Y-80100501D01*
X221586670Y-80100500D01*
X222376000Y-80100500D01*
X222443039Y-80120185D01*
X222488794Y-80172989D01*
X222500000Y-80224500D01*
X222500000Y-85370500D01*
X222480315Y-85437539D01*
X222427511Y-85483294D01*
X222376000Y-85494500D01*
X176724500Y-85494500D01*
X176657461Y-85474815D01*
X176611706Y-85422011D01*
X176600500Y-85370500D01*
X176600500Y-81921153D01*
X181699500Y-81921153D01*
X181699500Y-82078846D01*
X181730261Y-82233489D01*
X181730264Y-82233501D01*
X181790602Y-82379172D01*
X181790609Y-82379185D01*
X181878602Y-82510874D01*
X181899480Y-82577551D01*
X181899500Y-82579765D01*
X181899500Y-83420234D01*
X181879815Y-83487273D01*
X181878602Y-83489125D01*
X181790609Y-83620814D01*
X181790602Y-83620827D01*
X181730264Y-83766498D01*
X181730261Y-83766510D01*
X181699500Y-83921153D01*
X181699500Y-84078846D01*
X181730261Y-84233489D01*
X181730264Y-84233501D01*
X181790602Y-84379172D01*
X181790609Y-84379185D01*
X181878210Y-84510288D01*
X181878213Y-84510292D01*
X181989707Y-84621786D01*
X181989711Y-84621789D01*
X182120814Y-84709390D01*
X182120827Y-84709397D01*
X182266498Y-84769735D01*
X182266503Y-84769737D01*
X182421153Y-84800499D01*
X182421156Y-84800500D01*
X182421158Y-84800500D01*
X182578844Y-84800500D01*
X182578845Y-84800499D01*
X182733497Y-84769737D01*
X182879179Y-84709394D01*
X183010289Y-84621789D01*
X183121789Y-84510289D01*
X183209394Y-84379179D01*
X183269737Y-84233497D01*
X183300500Y-84078842D01*
X183300500Y-83921158D01*
X183300500Y-83921155D01*
X183300499Y-83921153D01*
X183269738Y-83766510D01*
X183269737Y-83766503D01*
X183269735Y-83766498D01*
X183209397Y-83620827D01*
X183209390Y-83620814D01*
X183121398Y-83489125D01*
X183100520Y-83422447D01*
X183100500Y-83420234D01*
X183100500Y-82579765D01*
X183120185Y-82512726D01*
X183121398Y-82510874D01*
X183209390Y-82379185D01*
X183209390Y-82379184D01*
X183209394Y-82379179D01*
X183269737Y-82233497D01*
X183300500Y-82078842D01*
X183300500Y-81921158D01*
X183300500Y-81921155D01*
X183300499Y-81921153D01*
X183269738Y-81766510D01*
X183269737Y-81766503D01*
X183269735Y-81766498D01*
X183209397Y-81620827D01*
X183209390Y-81620814D01*
X183121789Y-81489711D01*
X183121786Y-81489707D01*
X183010292Y-81378213D01*
X183010288Y-81378210D01*
X182879185Y-81290609D01*
X182879172Y-81290602D01*
X182733501Y-81230264D01*
X182733489Y-81230261D01*
X182578845Y-81199500D01*
X182578842Y-81199500D01*
X182421158Y-81199500D01*
X182421155Y-81199500D01*
X182266510Y-81230261D01*
X182266498Y-81230264D01*
X182120827Y-81290602D01*
X182120814Y-81290609D01*
X181989711Y-81378210D01*
X181989707Y-81378213D01*
X181878213Y-81489707D01*
X181878210Y-81489711D01*
X181790609Y-81620814D01*
X181790602Y-81620827D01*
X181730264Y-81766498D01*
X181730261Y-81766510D01*
X181699500Y-81921153D01*
X176600500Y-81921153D01*
X176600500Y-81579765D01*
X176620185Y-81512726D01*
X176621398Y-81510874D01*
X176709390Y-81379185D01*
X176709390Y-81379184D01*
X176709394Y-81379179D01*
X176769737Y-81233497D01*
X176800500Y-81078842D01*
X176800500Y-80921158D01*
X176800500Y-80921155D01*
X176800499Y-80921153D01*
X176769738Y-80766510D01*
X176769737Y-80766503D01*
X176769735Y-80766498D01*
X176709397Y-80620827D01*
X176709390Y-80620814D01*
X176621789Y-80489711D01*
X176621786Y-80489707D01*
X176510292Y-80378213D01*
X176510288Y-80378210D01*
X176379185Y-80290609D01*
X176379172Y-80290602D01*
X176233501Y-80230264D01*
X176233489Y-80230261D01*
X176078845Y-80199500D01*
X176078842Y-80199500D01*
X175921158Y-80199500D01*
X175921155Y-80199500D01*
X175766510Y-80230261D01*
X175766498Y-80230264D01*
X175620827Y-80290602D01*
X175620814Y-80290609D01*
X175489711Y-80378210D01*
X175489707Y-80378213D01*
X175378213Y-80489707D01*
X175378210Y-80489711D01*
X175290609Y-80620814D01*
X175290602Y-80620827D01*
X175230264Y-80766498D01*
X175230261Y-80766510D01*
X175199500Y-80921153D01*
X175199500Y-81078846D01*
X175230261Y-81233489D01*
X175230264Y-81233501D01*
X175290602Y-81379172D01*
X175290609Y-81379185D01*
X175378602Y-81510874D01*
X175399480Y-81577551D01*
X175399500Y-81579765D01*
X175399500Y-85370500D01*
X175379815Y-85437539D01*
X175327011Y-85483294D01*
X175275500Y-85494500D01*
X150624500Y-85494500D01*
X150557461Y-85474815D01*
X150511706Y-85422011D01*
X150500500Y-85370500D01*
X150500500Y-73421153D01*
X180199500Y-73421153D01*
X180199500Y-73578846D01*
X180230261Y-73733489D01*
X180230264Y-73733501D01*
X180290602Y-73879172D01*
X180290609Y-73879185D01*
X180378210Y-74010288D01*
X180378213Y-74010292D01*
X180489707Y-74121786D01*
X180489711Y-74121789D01*
X180620814Y-74209390D01*
X180620827Y-74209397D01*
X180766498Y-74269735D01*
X180766503Y-74269737D01*
X180921153Y-74300499D01*
X180921156Y-74300500D01*
X180921158Y-74300500D01*
X181078844Y-74300500D01*
X181078845Y-74300499D01*
X181233497Y-74269737D01*
X181379179Y-74209394D01*
X181379185Y-74209390D01*
X181510875Y-74121398D01*
X181577553Y-74100520D01*
X181579766Y-74100500D01*
X182920234Y-74100500D01*
X182987273Y-74120185D01*
X182989125Y-74121398D01*
X183120814Y-74209390D01*
X183120827Y-74209397D01*
X183266498Y-74269735D01*
X183266503Y-74269737D01*
X183421153Y-74300499D01*
X183421156Y-74300500D01*
X183421158Y-74300500D01*
X183578844Y-74300500D01*
X183578845Y-74300499D01*
X183733497Y-74269737D01*
X183879179Y-74209394D01*
X184010289Y-74121789D01*
X184121789Y-74010289D01*
X184209394Y-73879179D01*
X184269737Y-73733497D01*
X184300500Y-73578842D01*
X184300500Y-73421158D01*
X184300500Y-73421155D01*
X184300499Y-73421153D01*
X184269738Y-73266510D01*
X184269737Y-73266503D01*
X184209794Y-73121786D01*
X184209397Y-73120827D01*
X184209390Y-73120814D01*
X184121789Y-72989711D01*
X184121786Y-72989707D01*
X184010292Y-72878213D01*
X184010288Y-72878210D01*
X183879185Y-72790609D01*
X183879172Y-72790602D01*
X183733501Y-72730264D01*
X183733489Y-72730261D01*
X183578845Y-72699500D01*
X183578842Y-72699500D01*
X183421158Y-72699500D01*
X183421155Y-72699500D01*
X183266510Y-72730261D01*
X183266498Y-72730264D01*
X183120827Y-72790602D01*
X183120814Y-72790609D01*
X182989125Y-72878602D01*
X182922447Y-72899480D01*
X182920234Y-72899500D01*
X181579766Y-72899500D01*
X181512727Y-72879815D01*
X181510875Y-72878602D01*
X181379185Y-72790609D01*
X181379172Y-72790602D01*
X181233501Y-72730264D01*
X181233489Y-72730261D01*
X181078845Y-72699500D01*
X181078842Y-72699500D01*
X180921158Y-72699500D01*
X180921155Y-72699500D01*
X180766510Y-72730261D01*
X180766498Y-72730264D01*
X180620827Y-72790602D01*
X180620814Y-72790609D01*
X180489711Y-72878210D01*
X180489707Y-72878213D01*
X180378213Y-72989707D01*
X180378210Y-72989711D01*
X180290609Y-73120814D01*
X180290602Y-73120827D01*
X180230264Y-73266498D01*
X180230261Y-73266510D01*
X180199500Y-73421153D01*
X150500500Y-73421153D01*
X150500500Y-70129500D01*
X150520185Y-70062461D01*
X150572989Y-70016706D01*
X150624500Y-70005500D01*
X170851422Y-70005500D01*
X170869404Y-70005179D01*
X170869414Y-70005178D01*
X170869449Y-70005178D01*
X170878295Y-70004862D01*
X170896312Y-70003896D01*
X171036904Y-69973312D01*
X171102368Y-69948895D01*
X171228643Y-69879944D01*
X171291998Y-69816589D01*
X171353321Y-69783107D01*
X171423012Y-69788093D01*
G37*
%TD.AperFunction*%
%TD*%
%TA.AperFunction,Conductor*%
%TO.N,GND*%
G36*
X222443039Y-51520185D02*
G01*
X222488794Y-51572989D01*
X222500000Y-51624500D01*
X222500000Y-68775500D01*
X222480315Y-68842539D01*
X222427511Y-68888294D01*
X222376000Y-68899500D01*
X196920940Y-68899500D01*
X196880019Y-68910464D01*
X196880019Y-68910465D01*
X196842751Y-68920451D01*
X196768214Y-68940423D01*
X196768209Y-68940426D01*
X196631290Y-69019475D01*
X196631282Y-69019481D01*
X196187083Y-69463681D01*
X196125760Y-69497166D01*
X196099402Y-69500000D01*
X172900597Y-69500000D01*
X172833558Y-69480315D01*
X172812916Y-69463681D01*
X167440388Y-64091153D01*
X187369500Y-64091153D01*
X187369500Y-64248846D01*
X187400261Y-64403489D01*
X187400264Y-64403501D01*
X187460602Y-64549172D01*
X187460609Y-64549185D01*
X187548210Y-64680288D01*
X187548213Y-64680292D01*
X187659707Y-64791786D01*
X187659711Y-64791789D01*
X187790814Y-64879390D01*
X187790827Y-64879397D01*
X187936498Y-64939735D01*
X187936503Y-64939737D01*
X188001147Y-64952595D01*
X188091849Y-64970638D01*
X188153760Y-65003023D01*
X188155339Y-65004574D01*
X189015139Y-65864374D01*
X189015149Y-65864385D01*
X189019479Y-65868715D01*
X189019480Y-65868716D01*
X189131284Y-65980520D01*
X189182845Y-66010288D01*
X189218095Y-66030639D01*
X189218097Y-66030641D01*
X189256151Y-66052611D01*
X189268215Y-66059577D01*
X189420943Y-66100501D01*
X189420946Y-66100501D01*
X189586653Y-66100501D01*
X189586669Y-66100500D01*
X200420234Y-66100500D01*
X200487273Y-66120185D01*
X200489125Y-66121398D01*
X200620814Y-66209390D01*
X200620827Y-66209397D01*
X200766498Y-66269735D01*
X200766503Y-66269737D01*
X200921153Y-66300499D01*
X200921156Y-66300500D01*
X200921158Y-66300500D01*
X201078844Y-66300500D01*
X201078845Y-66300499D01*
X201233497Y-66269737D01*
X201379179Y-66209394D01*
X201431110Y-66174694D01*
X201497785Y-66153816D01*
X201565165Y-66172300D01*
X201568863Y-66174676D01*
X201620821Y-66209394D01*
X201620823Y-66209395D01*
X201620825Y-66209396D01*
X201766498Y-66269735D01*
X201766503Y-66269737D01*
X201921153Y-66300499D01*
X201921156Y-66300500D01*
X201921158Y-66300500D01*
X202078844Y-66300500D01*
X202078845Y-66300499D01*
X202233497Y-66269737D01*
X202379179Y-66209394D01*
X202431110Y-66174694D01*
X202497785Y-66153816D01*
X202565165Y-66172300D01*
X202568863Y-66174676D01*
X202620821Y-66209394D01*
X202620823Y-66209395D01*
X202620825Y-66209396D01*
X202766498Y-66269735D01*
X202766503Y-66269737D01*
X202921153Y-66300499D01*
X202921156Y-66300500D01*
X202921158Y-66300500D01*
X203078844Y-66300500D01*
X203078845Y-66300499D01*
X203233497Y-66269737D01*
X203379179Y-66209394D01*
X203431110Y-66174694D01*
X203497785Y-66153816D01*
X203565165Y-66172300D01*
X203568863Y-66174676D01*
X203620821Y-66209394D01*
X203620823Y-66209395D01*
X203620825Y-66209396D01*
X203766498Y-66269735D01*
X203766503Y-66269737D01*
X203921153Y-66300499D01*
X203921156Y-66300500D01*
X203921158Y-66300500D01*
X204078844Y-66300500D01*
X204078845Y-66300499D01*
X204233497Y-66269737D01*
X204379179Y-66209394D01*
X204510289Y-66121789D01*
X204621789Y-66010289D01*
X204709394Y-65879179D01*
X204769737Y-65733497D01*
X204800500Y-65578842D01*
X204800500Y-65421158D01*
X204800500Y-65421155D01*
X204800499Y-65421153D01*
X204769738Y-65266510D01*
X204769737Y-65266503D01*
X204769735Y-65266498D01*
X204709397Y-65120827D01*
X204709390Y-65120814D01*
X204621789Y-64989711D01*
X204621786Y-64989707D01*
X204510292Y-64878213D01*
X204510288Y-64878210D01*
X204379185Y-64790609D01*
X204379172Y-64790602D01*
X204233501Y-64730264D01*
X204233491Y-64730261D01*
X204078149Y-64699361D01*
X204016238Y-64666976D01*
X204014660Y-64665425D01*
X201334574Y-61985339D01*
X201301089Y-61924016D01*
X201300638Y-61921849D01*
X201300500Y-61921153D01*
X205199500Y-61921153D01*
X205199500Y-62078846D01*
X205230261Y-62233489D01*
X205230264Y-62233501D01*
X205290602Y-62379172D01*
X205290609Y-62379185D01*
X205378210Y-62510288D01*
X205378213Y-62510292D01*
X205489707Y-62621786D01*
X205489711Y-62621789D01*
X205620814Y-62709390D01*
X205620827Y-62709397D01*
X205747677Y-62761939D01*
X205766503Y-62769737D01*
X205895001Y-62795297D01*
X205921153Y-62800499D01*
X205921156Y-62800500D01*
X205921158Y-62800500D01*
X206078844Y-62800500D01*
X206078845Y-62800499D01*
X206233497Y-62769737D01*
X206379179Y-62709394D01*
X206510289Y-62621789D01*
X206621789Y-62510289D01*
X206709394Y-62379179D01*
X206769737Y-62233497D01*
X206800500Y-62078842D01*
X206800500Y-61921158D01*
X206800500Y-61921155D01*
X206800499Y-61921153D01*
X206774531Y-61790606D01*
X206769737Y-61766503D01*
X206769735Y-61766498D01*
X206709397Y-61620827D01*
X206709390Y-61620814D01*
X206621398Y-61489125D01*
X206600520Y-61422447D01*
X206600500Y-61420234D01*
X206600500Y-59300097D01*
X206620185Y-59233058D01*
X206636819Y-59212416D01*
X206770393Y-59078842D01*
X207014665Y-58834570D01*
X207075984Y-58801088D01*
X207078151Y-58800637D01*
X207078840Y-58800500D01*
X207078842Y-58800500D01*
X207233497Y-58769737D01*
X207379179Y-58709394D01*
X207510289Y-58621789D01*
X207621789Y-58510289D01*
X207709394Y-58379179D01*
X207769737Y-58233497D01*
X207800500Y-58078842D01*
X207800500Y-57921158D01*
X207800500Y-57921155D01*
X207800499Y-57921153D01*
X207769738Y-57766510D01*
X207769738Y-57766508D01*
X207769737Y-57766503D01*
X207766836Y-57759500D01*
X207709397Y-57620827D01*
X207709390Y-57620814D01*
X207621789Y-57489711D01*
X207621786Y-57489707D01*
X207510292Y-57378213D01*
X207510288Y-57378210D01*
X207379185Y-57290609D01*
X207379172Y-57290602D01*
X207233501Y-57230264D01*
X207233489Y-57230261D01*
X207078845Y-57199500D01*
X207078842Y-57199500D01*
X206921158Y-57199500D01*
X206921155Y-57199500D01*
X206766510Y-57230261D01*
X206766498Y-57230264D01*
X206620827Y-57290602D01*
X206620814Y-57290609D01*
X206489711Y-57378210D01*
X206489707Y-57378213D01*
X206378213Y-57489707D01*
X206378210Y-57489711D01*
X206290609Y-57620814D01*
X206290602Y-57620827D01*
X206230264Y-57766498D01*
X206230261Y-57766508D01*
X206199362Y-57921848D01*
X206166977Y-57983759D01*
X206165426Y-57985337D01*
X205631286Y-58519478D01*
X205519481Y-58631282D01*
X205519479Y-58631284D01*
X205499769Y-58665425D01*
X205480096Y-58699500D01*
X205474386Y-58709390D01*
X205441409Y-58766508D01*
X205440423Y-58768215D01*
X205399499Y-58920943D01*
X205399499Y-58920945D01*
X205399499Y-59089046D01*
X205399500Y-59089059D01*
X205399500Y-61420234D01*
X205379815Y-61487273D01*
X205378602Y-61489125D01*
X205290609Y-61620814D01*
X205290602Y-61620827D01*
X205230264Y-61766498D01*
X205230261Y-61766510D01*
X205199500Y-61921153D01*
X201300500Y-61921153D01*
X201274531Y-61790606D01*
X201269737Y-61766503D01*
X201269735Y-61766498D01*
X201209397Y-61620827D01*
X201209390Y-61620814D01*
X201121789Y-61489711D01*
X201121786Y-61489707D01*
X201010292Y-61378213D01*
X201010288Y-61378210D01*
X200879185Y-61290609D01*
X200879172Y-61290602D01*
X200733501Y-61230264D01*
X200733489Y-61230261D01*
X200578845Y-61199500D01*
X200578842Y-61199500D01*
X200449097Y-61199500D01*
X200382058Y-61179815D01*
X200336303Y-61127011D01*
X200326359Y-61057853D01*
X200355384Y-60994297D01*
X200361416Y-60987819D01*
X200857737Y-60491498D01*
X201514662Y-59834572D01*
X201575983Y-59801089D01*
X201578150Y-59800638D01*
X201636085Y-59789113D01*
X201733497Y-59769737D01*
X201879179Y-59709394D01*
X202010289Y-59621789D01*
X202121789Y-59510289D01*
X202209394Y-59379179D01*
X202269737Y-59233497D01*
X202300500Y-59078842D01*
X202300500Y-58921158D01*
X202300500Y-58921155D01*
X202300499Y-58921153D01*
X202290579Y-58871281D01*
X202269737Y-58766503D01*
X202269735Y-58766498D01*
X202209397Y-58620827D01*
X202209390Y-58620814D01*
X202121789Y-58489711D01*
X202121786Y-58489707D01*
X202010292Y-58378213D01*
X202010288Y-58378210D01*
X201879185Y-58290609D01*
X201879172Y-58290602D01*
X201733501Y-58230264D01*
X201733489Y-58230261D01*
X201578845Y-58199500D01*
X201578842Y-58199500D01*
X201421158Y-58199500D01*
X201421155Y-58199500D01*
X201266510Y-58230261D01*
X201266498Y-58230264D01*
X201120827Y-58290602D01*
X201120814Y-58290609D01*
X200989711Y-58378210D01*
X200989707Y-58378213D01*
X200878213Y-58489707D01*
X200878210Y-58489711D01*
X200790609Y-58620814D01*
X200790602Y-58620827D01*
X200730264Y-58766498D01*
X200730261Y-58766508D01*
X200699361Y-58921850D01*
X200666976Y-58983761D01*
X200665425Y-58985339D01*
X197485339Y-62165425D01*
X197424016Y-62198910D01*
X197421850Y-62199361D01*
X197266508Y-62230261D01*
X197266498Y-62230264D01*
X197120827Y-62290602D01*
X197120814Y-62290609D01*
X196989711Y-62378210D01*
X196989707Y-62378213D01*
X196878213Y-62489707D01*
X196878210Y-62489711D01*
X196790609Y-62620814D01*
X196790602Y-62620827D01*
X196730264Y-62766498D01*
X196730261Y-62766510D01*
X196703571Y-62900691D01*
X196671186Y-62962602D01*
X196610471Y-62997176D01*
X196581954Y-63000500D01*
X190401097Y-63000500D01*
X190334058Y-62980815D01*
X190313416Y-62964181D01*
X189834574Y-62485339D01*
X189801089Y-62424016D01*
X189800638Y-62421849D01*
X189774531Y-62290606D01*
X189769737Y-62266503D01*
X189756062Y-62233489D01*
X189709397Y-62120827D01*
X189709390Y-62120814D01*
X189621789Y-61989711D01*
X189621786Y-61989707D01*
X189510292Y-61878213D01*
X189510288Y-61878210D01*
X189379185Y-61790609D01*
X189379172Y-61790602D01*
X189233501Y-61730264D01*
X189233489Y-61730261D01*
X189078845Y-61699500D01*
X189078842Y-61699500D01*
X188921158Y-61699500D01*
X188921155Y-61699500D01*
X188766510Y-61730261D01*
X188766498Y-61730264D01*
X188620827Y-61790602D01*
X188620814Y-61790609D01*
X188489711Y-61878210D01*
X188489707Y-61878213D01*
X188378213Y-61989707D01*
X188378210Y-61989711D01*
X188290609Y-62120814D01*
X188290602Y-62120827D01*
X188230264Y-62266498D01*
X188230261Y-62266510D01*
X188199500Y-62421153D01*
X188199500Y-62578840D01*
X188205757Y-62610298D01*
X188199528Y-62679889D01*
X188156665Y-62735066D01*
X188147757Y-62740623D01*
X188013192Y-62830537D01*
X188013188Y-62830540D01*
X187901694Y-62942034D01*
X187901691Y-62942038D01*
X187814090Y-63073141D01*
X187814083Y-63073154D01*
X187753745Y-63218825D01*
X187753742Y-63218837D01*
X187722981Y-63373480D01*
X187722981Y-63439655D01*
X187703296Y-63506694D01*
X187667875Y-63542755D01*
X187659712Y-63548209D01*
X187659707Y-63548213D01*
X187548213Y-63659707D01*
X187548210Y-63659711D01*
X187460609Y-63790814D01*
X187460602Y-63790827D01*
X187400264Y-63936498D01*
X187400261Y-63936510D01*
X187369500Y-64091153D01*
X167440388Y-64091153D01*
X166911819Y-63562584D01*
X166878334Y-63501261D01*
X166875500Y-63474903D01*
X166875500Y-61304765D01*
X166895185Y-61237726D01*
X166896398Y-61235874D01*
X166900147Y-61230264D01*
X166984394Y-61104179D01*
X167044737Y-60958497D01*
X167075500Y-60803842D01*
X167075500Y-60646158D01*
X167075500Y-60646155D01*
X167075499Y-60646153D01*
X167044738Y-60491510D01*
X167044737Y-60491503D01*
X167044735Y-60491498D01*
X166984397Y-60345827D01*
X166984390Y-60345814D01*
X166896789Y-60214711D01*
X166896786Y-60214707D01*
X166785292Y-60103213D01*
X166785288Y-60103210D01*
X166654185Y-60015609D01*
X166654172Y-60015602D01*
X166508501Y-59955264D01*
X166508489Y-59955261D01*
X166353845Y-59924500D01*
X166353842Y-59924500D01*
X166196158Y-59924500D01*
X166196155Y-59924500D01*
X166041510Y-59955261D01*
X166041498Y-59955264D01*
X165895827Y-60015602D01*
X165895814Y-60015609D01*
X165764711Y-60103210D01*
X165764707Y-60103213D01*
X165653213Y-60214707D01*
X165653210Y-60214711D01*
X165565609Y-60345814D01*
X165565602Y-60345827D01*
X165505264Y-60491498D01*
X165505261Y-60491510D01*
X165474500Y-60646153D01*
X165474500Y-60803846D01*
X165505261Y-60958489D01*
X165505264Y-60958501D01*
X165565602Y-61104172D01*
X165565609Y-61104185D01*
X165653602Y-61235874D01*
X165674480Y-61302551D01*
X165674500Y-61304765D01*
X165674500Y-63688330D01*
X165674499Y-63688348D01*
X165674499Y-63854054D01*
X165674498Y-63854054D01*
X165674499Y-63854057D01*
X165715423Y-64006785D01*
X165715424Y-64006786D01*
X165728128Y-64028792D01*
X165728129Y-64028793D01*
X165794475Y-64143709D01*
X165794481Y-64143717D01*
X165913349Y-64262585D01*
X165913355Y-64262590D01*
X170939084Y-69288319D01*
X170972569Y-69349642D01*
X170967585Y-69419334D01*
X170925713Y-69475267D01*
X170860249Y-69499684D01*
X170851403Y-69500000D01*
X150624500Y-69500000D01*
X150557461Y-69480315D01*
X150511706Y-69427511D01*
X150500500Y-69376000D01*
X150500500Y-64039234D01*
X156324500Y-64039234D01*
X156324500Y-64190765D01*
X156363719Y-64337136D01*
X156401602Y-64402750D01*
X156439485Y-64468365D01*
X156546635Y-64575515D01*
X156677865Y-64651281D01*
X156824234Y-64690500D01*
X156824236Y-64690500D01*
X156975764Y-64690500D01*
X156975766Y-64690500D01*
X157122135Y-64651281D01*
X157253365Y-64575515D01*
X157360515Y-64468365D01*
X157436281Y-64337135D01*
X157475500Y-64190766D01*
X157475500Y-64039234D01*
X157436281Y-63892865D01*
X157360515Y-63761635D01*
X157253365Y-63654485D01*
X157187750Y-63616602D01*
X157122136Y-63578719D01*
X157048950Y-63559109D01*
X156975766Y-63539500D01*
X156824234Y-63539500D01*
X156677863Y-63578719D01*
X156546635Y-63654485D01*
X156546632Y-63654487D01*
X156439487Y-63761632D01*
X156439485Y-63761635D01*
X156363719Y-63892863D01*
X156324500Y-64039234D01*
X150500500Y-64039234D01*
X150500500Y-58259234D01*
X156324500Y-58259234D01*
X156324500Y-58410765D01*
X156363719Y-58557136D01*
X156400484Y-58620814D01*
X156439485Y-58688365D01*
X156546635Y-58795515D01*
X156677865Y-58871281D01*
X156824234Y-58910500D01*
X156824236Y-58910500D01*
X156975764Y-58910500D01*
X156975766Y-58910500D01*
X157122135Y-58871281D01*
X157253365Y-58795515D01*
X157360515Y-58688365D01*
X157436281Y-58557135D01*
X157475500Y-58410766D01*
X157475500Y-58259234D01*
X157436281Y-58112865D01*
X157360515Y-57981635D01*
X157253365Y-57874485D01*
X157187750Y-57836602D01*
X157122136Y-57798719D01*
X157048950Y-57779109D01*
X156975766Y-57759500D01*
X156824234Y-57759500D01*
X156677863Y-57798719D01*
X156546635Y-57874485D01*
X156546632Y-57874487D01*
X156439487Y-57981632D01*
X156439485Y-57981635D01*
X156363719Y-58112863D01*
X156324500Y-58259234D01*
X150500500Y-58259234D01*
X150500500Y-53921153D01*
X188199500Y-53921153D01*
X188199500Y-54078846D01*
X188230261Y-54233489D01*
X188230264Y-54233501D01*
X188290602Y-54379172D01*
X188290609Y-54379185D01*
X188378210Y-54510288D01*
X188378213Y-54510292D01*
X188489707Y-54621786D01*
X188489711Y-54621789D01*
X188620814Y-54709390D01*
X188620827Y-54709397D01*
X188766498Y-54769735D01*
X188766503Y-54769737D01*
X188831147Y-54782595D01*
X188921849Y-54800638D01*
X188983760Y-54833023D01*
X188985339Y-54834574D01*
X193665425Y-59514660D01*
X193698910Y-59575983D01*
X193699361Y-59578149D01*
X193730261Y-59733491D01*
X193730264Y-59733501D01*
X193790602Y-59879172D01*
X193790609Y-59879185D01*
X193878210Y-60010288D01*
X193878213Y-60010292D01*
X193989707Y-60121786D01*
X193989711Y-60121789D01*
X194120814Y-60209390D01*
X194120827Y-60209397D01*
X194266498Y-60269735D01*
X194266503Y-60269737D01*
X194421153Y-60300499D01*
X194421156Y-60300500D01*
X194421158Y-60300500D01*
X194578844Y-60300500D01*
X194578845Y-60300499D01*
X194733497Y-60269737D01*
X194879179Y-60209394D01*
X195010289Y-60121789D01*
X195121789Y-60010289D01*
X195209394Y-59879179D01*
X195269737Y-59733497D01*
X195300500Y-59578842D01*
X195300500Y-59421158D01*
X195300500Y-59421155D01*
X195300499Y-59421153D01*
X195269738Y-59266510D01*
X195269737Y-59266503D01*
X195247334Y-59212416D01*
X195209397Y-59120827D01*
X195209390Y-59120814D01*
X195121789Y-58989711D01*
X195121786Y-58989707D01*
X195010292Y-58878213D01*
X195010288Y-58878210D01*
X194879185Y-58790609D01*
X194879172Y-58790602D01*
X194733501Y-58730264D01*
X194733491Y-58730261D01*
X194578149Y-58699361D01*
X194516238Y-58666976D01*
X194514660Y-58665425D01*
X190242948Y-54393713D01*
X194109500Y-54393713D01*
X194109500Y-54606286D01*
X194142753Y-54816239D01*
X194208444Y-55018414D01*
X194304951Y-55207820D01*
X194429890Y-55379786D01*
X194580213Y-55530109D01*
X194752179Y-55655048D01*
X194752181Y-55655049D01*
X194752184Y-55655051D01*
X194941588Y-55751557D01*
X195143757Y-55817246D01*
X195353713Y-55850500D01*
X195353714Y-55850500D01*
X195566286Y-55850500D01*
X195566287Y-55850500D01*
X195776243Y-55817246D01*
X195978412Y-55751557D01*
X196167816Y-55655051D01*
X196189789Y-55639086D01*
X196339786Y-55530109D01*
X196339788Y-55530106D01*
X196339792Y-55530104D01*
X196490104Y-55379792D01*
X196490106Y-55379788D01*
X196490109Y-55379786D01*
X196615048Y-55207820D01*
X196615047Y-55207820D01*
X196615051Y-55207816D01*
X196619514Y-55199054D01*
X196667488Y-55148259D01*
X196735308Y-55131463D01*
X196801444Y-55153999D01*
X196840486Y-55199056D01*
X196844951Y-55207820D01*
X196969890Y-55379786D01*
X197120213Y-55530109D01*
X197292179Y-55655048D01*
X197292181Y-55655049D01*
X197292184Y-55655051D01*
X197481588Y-55751557D01*
X197683757Y-55817246D01*
X197893713Y-55850500D01*
X197893714Y-55850500D01*
X198106286Y-55850500D01*
X198106287Y-55850500D01*
X198316243Y-55817246D01*
X198518412Y-55751557D01*
X198707816Y-55655051D01*
X198729789Y-55639086D01*
X198879786Y-55530109D01*
X198879788Y-55530106D01*
X198879792Y-55530104D01*
X199030104Y-55379792D01*
X199030106Y-55379788D01*
X199030109Y-55379786D01*
X199155048Y-55207820D01*
X199155047Y-55207820D01*
X199155051Y-55207816D01*
X199251557Y-55018412D01*
X199317246Y-54816243D01*
X199350500Y-54606287D01*
X199350500Y-54393713D01*
X199317246Y-54183757D01*
X199251557Y-53981588D01*
X199155051Y-53792184D01*
X199155049Y-53792181D01*
X199155048Y-53792179D01*
X199030109Y-53620213D01*
X198879786Y-53469890D01*
X198707820Y-53344951D01*
X198518414Y-53248444D01*
X198518413Y-53248443D01*
X198518412Y-53248443D01*
X198316243Y-53182754D01*
X198316241Y-53182753D01*
X198316240Y-53182753D01*
X198154957Y-53157208D01*
X198106287Y-53149500D01*
X197893713Y-53149500D01*
X197845042Y-53157208D01*
X197683760Y-53182753D01*
X197481585Y-53248444D01*
X197292179Y-53344951D01*
X197120213Y-53469890D01*
X196969890Y-53620213D01*
X196844949Y-53792182D01*
X196840484Y-53800946D01*
X196792509Y-53851742D01*
X196724688Y-53868536D01*
X196658553Y-53845998D01*
X196619516Y-53800946D01*
X196615050Y-53792182D01*
X196490109Y-53620213D01*
X196339786Y-53469890D01*
X196167820Y-53344951D01*
X195978414Y-53248444D01*
X195978413Y-53248443D01*
X195978412Y-53248443D01*
X195776243Y-53182754D01*
X195776241Y-53182753D01*
X195776240Y-53182753D01*
X195614957Y-53157208D01*
X195566287Y-53149500D01*
X195353713Y-53149500D01*
X195305042Y-53157208D01*
X195143760Y-53182753D01*
X194941585Y-53248444D01*
X194752179Y-53344951D01*
X194580213Y-53469890D01*
X194429890Y-53620213D01*
X194304951Y-53792179D01*
X194208444Y-53981585D01*
X194142753Y-54183760D01*
X194109500Y-54393713D01*
X190242948Y-54393713D01*
X189834574Y-53985339D01*
X189801089Y-53924016D01*
X189800638Y-53921849D01*
X189769738Y-53766510D01*
X189769737Y-53766503D01*
X189769735Y-53766498D01*
X189709397Y-53620827D01*
X189709390Y-53620814D01*
X189621789Y-53489711D01*
X189621786Y-53489707D01*
X189510292Y-53378213D01*
X189510288Y-53378210D01*
X189379185Y-53290609D01*
X189379172Y-53290602D01*
X189233501Y-53230264D01*
X189233489Y-53230261D01*
X189078845Y-53199500D01*
X189078842Y-53199500D01*
X188921158Y-53199500D01*
X188921155Y-53199500D01*
X188766510Y-53230261D01*
X188766498Y-53230264D01*
X188620827Y-53290602D01*
X188620814Y-53290609D01*
X188489711Y-53378210D01*
X188489707Y-53378213D01*
X188378213Y-53489707D01*
X188378210Y-53489711D01*
X188290609Y-53620814D01*
X188290602Y-53620827D01*
X188230264Y-53766498D01*
X188230261Y-53766510D01*
X188199500Y-53921153D01*
X150500500Y-53921153D01*
X150500500Y-51624500D01*
X150520185Y-51557461D01*
X150572989Y-51511706D01*
X150624500Y-51500500D01*
X222376000Y-51500500D01*
X222443039Y-51520185D01*
G37*
%TD.AperFunction*%
%TD*%
%TA.AperFunction,Conductor*%
%TO.N,+24V*%
G36*
X229499500Y-109375500D02*
G01*
X229479815Y-109442539D01*
X229427011Y-109488294D01*
X229375500Y-109499500D01*
X150624500Y-109499500D01*
X150557461Y-109479815D01*
X150511706Y-109427011D01*
X150500500Y-109375500D01*
X150500500Y-105768713D01*
X178649500Y-105768713D01*
X178649500Y-106231286D01*
X178682753Y-106441239D01*
X178748444Y-106643414D01*
X178844951Y-106832820D01*
X178969890Y-107004786D01*
X179120213Y-107155109D01*
X179292179Y-107280048D01*
X179292181Y-107280049D01*
X179292184Y-107280051D01*
X179481588Y-107376557D01*
X179683757Y-107442246D01*
X179893713Y-107475500D01*
X179893714Y-107475500D01*
X180106286Y-107475500D01*
X180106287Y-107475500D01*
X180316243Y-107442246D01*
X180518412Y-107376557D01*
X180707816Y-107280051D01*
X180729789Y-107264086D01*
X180879786Y-107155109D01*
X180879788Y-107155106D01*
X180879792Y-107155104D01*
X181030104Y-107004792D01*
X181149683Y-106840204D01*
X181205011Y-106797540D01*
X181274624Y-106791561D01*
X181336420Y-106824166D01*
X181350313Y-106840199D01*
X181469892Y-107004786D01*
X181469896Y-107004792D01*
X181620213Y-107155109D01*
X181792179Y-107280048D01*
X181792181Y-107280049D01*
X181792184Y-107280051D01*
X181981588Y-107376557D01*
X182183757Y-107442246D01*
X182393713Y-107475500D01*
X182393714Y-107475500D01*
X182606286Y-107475500D01*
X182606287Y-107475500D01*
X182816243Y-107442246D01*
X183018412Y-107376557D01*
X183207816Y-107280051D01*
X183229789Y-107264086D01*
X183379786Y-107155109D01*
X183379788Y-107155106D01*
X183379792Y-107155104D01*
X183530104Y-107004792D01*
X183649683Y-106840204D01*
X183705011Y-106797540D01*
X183774624Y-106791561D01*
X183836420Y-106824166D01*
X183850313Y-106840199D01*
X183969892Y-107004786D01*
X183969896Y-107004792D01*
X184120213Y-107155109D01*
X184292179Y-107280048D01*
X184292181Y-107280049D01*
X184292184Y-107280051D01*
X184481588Y-107376557D01*
X184683757Y-107442246D01*
X184893713Y-107475500D01*
X184893714Y-107475500D01*
X185106286Y-107475500D01*
X185106287Y-107475500D01*
X185316243Y-107442246D01*
X185518412Y-107376557D01*
X185707816Y-107280051D01*
X185729789Y-107264086D01*
X185879786Y-107155109D01*
X185879788Y-107155106D01*
X185879792Y-107155104D01*
X186030104Y-107004792D01*
X186149683Y-106840204D01*
X186205011Y-106797540D01*
X186274624Y-106791561D01*
X186336420Y-106824166D01*
X186350313Y-106840199D01*
X186469892Y-107004786D01*
X186469896Y-107004792D01*
X186620213Y-107155109D01*
X186792179Y-107280048D01*
X186792181Y-107280049D01*
X186792184Y-107280051D01*
X186981588Y-107376557D01*
X187183757Y-107442246D01*
X187393713Y-107475500D01*
X187393714Y-107475500D01*
X187606286Y-107475500D01*
X187606287Y-107475500D01*
X187816243Y-107442246D01*
X188018412Y-107376557D01*
X188207816Y-107280051D01*
X188229789Y-107264086D01*
X188379786Y-107155109D01*
X188379788Y-107155106D01*
X188379792Y-107155104D01*
X188530104Y-107004792D01*
X188649683Y-106840204D01*
X188705011Y-106797540D01*
X188774624Y-106791561D01*
X188836420Y-106824166D01*
X188850313Y-106840199D01*
X188969892Y-107004786D01*
X188969896Y-107004792D01*
X189120213Y-107155109D01*
X189292179Y-107280048D01*
X189292181Y-107280049D01*
X189292184Y-107280051D01*
X189481588Y-107376557D01*
X189683757Y-107442246D01*
X189893713Y-107475500D01*
X189893714Y-107475500D01*
X190106286Y-107475500D01*
X190106287Y-107475500D01*
X190316243Y-107442246D01*
X190518412Y-107376557D01*
X190707816Y-107280051D01*
X190729789Y-107264086D01*
X190879786Y-107155109D01*
X190879788Y-107155106D01*
X190879792Y-107155104D01*
X191030104Y-107004792D01*
X191149683Y-106840204D01*
X191205011Y-106797540D01*
X191274624Y-106791561D01*
X191336420Y-106824166D01*
X191350313Y-106840199D01*
X191469892Y-107004786D01*
X191469896Y-107004792D01*
X191620213Y-107155109D01*
X191792179Y-107280048D01*
X191792181Y-107280049D01*
X191792184Y-107280051D01*
X191981588Y-107376557D01*
X192183757Y-107442246D01*
X192393713Y-107475500D01*
X192393714Y-107475500D01*
X192606286Y-107475500D01*
X192606287Y-107475500D01*
X192816243Y-107442246D01*
X193018412Y-107376557D01*
X193207816Y-107280051D01*
X193229789Y-107264086D01*
X193379786Y-107155109D01*
X193379788Y-107155106D01*
X193379792Y-107155104D01*
X193530104Y-107004792D01*
X193649683Y-106840204D01*
X193705011Y-106797540D01*
X193774624Y-106791561D01*
X193836420Y-106824166D01*
X193850313Y-106840199D01*
X193969892Y-107004786D01*
X193969896Y-107004792D01*
X194120213Y-107155109D01*
X194292179Y-107280048D01*
X194292181Y-107280049D01*
X194292184Y-107280051D01*
X194481588Y-107376557D01*
X194683757Y-107442246D01*
X194893713Y-107475500D01*
X194893714Y-107475500D01*
X195106286Y-107475500D01*
X195106287Y-107475500D01*
X195316243Y-107442246D01*
X195518412Y-107376557D01*
X195707816Y-107280051D01*
X195729789Y-107264086D01*
X195879786Y-107155109D01*
X195879788Y-107155106D01*
X195879792Y-107155104D01*
X196030104Y-107004792D01*
X196149683Y-106840204D01*
X196205011Y-106797540D01*
X196274624Y-106791561D01*
X196336420Y-106824166D01*
X196350313Y-106840199D01*
X196469892Y-107004786D01*
X196469896Y-107004792D01*
X196620213Y-107155109D01*
X196792179Y-107280048D01*
X196792181Y-107280049D01*
X196792184Y-107280051D01*
X196981588Y-107376557D01*
X197183757Y-107442246D01*
X197393713Y-107475500D01*
X197393714Y-107475500D01*
X197606286Y-107475500D01*
X197606287Y-107475500D01*
X197816243Y-107442246D01*
X198018412Y-107376557D01*
X198207816Y-107280051D01*
X198229789Y-107264086D01*
X198379786Y-107155109D01*
X198379788Y-107155106D01*
X198379792Y-107155104D01*
X198530104Y-107004792D01*
X198649683Y-106840204D01*
X198705011Y-106797540D01*
X198774624Y-106791561D01*
X198836420Y-106824166D01*
X198850313Y-106840199D01*
X198969892Y-107004786D01*
X198969896Y-107004792D01*
X199120213Y-107155109D01*
X199292179Y-107280048D01*
X199292181Y-107280049D01*
X199292184Y-107280051D01*
X199481588Y-107376557D01*
X199683757Y-107442246D01*
X199893713Y-107475500D01*
X199893714Y-107475500D01*
X200106286Y-107475500D01*
X200106287Y-107475500D01*
X200316243Y-107442246D01*
X200518412Y-107376557D01*
X200707816Y-107280051D01*
X200729789Y-107264086D01*
X200879786Y-107155109D01*
X200879788Y-107155106D01*
X200879792Y-107155104D01*
X201030104Y-107004792D01*
X201030106Y-107004788D01*
X201030109Y-107004786D01*
X201155048Y-106832820D01*
X201155047Y-106832820D01*
X201155051Y-106832816D01*
X201251557Y-106643412D01*
X201317246Y-106441243D01*
X201350500Y-106231287D01*
X201350500Y-105768713D01*
X201317246Y-105558757D01*
X201251557Y-105356588D01*
X201155051Y-105167184D01*
X201155049Y-105167181D01*
X201155048Y-105167179D01*
X201030109Y-104995213D01*
X200879786Y-104844890D01*
X200707820Y-104719951D01*
X200518414Y-104623444D01*
X200518413Y-104623443D01*
X200518412Y-104623443D01*
X200316243Y-104557754D01*
X200316241Y-104557753D01*
X200316240Y-104557753D01*
X200154957Y-104532208D01*
X200106287Y-104524500D01*
X199893713Y-104524500D01*
X199845042Y-104532208D01*
X199683760Y-104557753D01*
X199481585Y-104623444D01*
X199292179Y-104719951D01*
X199120213Y-104844890D01*
X198969894Y-104995209D01*
X198969890Y-104995214D01*
X198850318Y-105159793D01*
X198794989Y-105202459D01*
X198725375Y-105208438D01*
X198663580Y-105175833D01*
X198649682Y-105159793D01*
X198530109Y-104995214D01*
X198530105Y-104995209D01*
X198379786Y-104844890D01*
X198207815Y-104719948D01*
X198207814Y-104719947D01*
X198168205Y-104699765D01*
X198117409Y-104651791D01*
X198100500Y-104589281D01*
X198100500Y-104420945D01*
X198100500Y-104420943D01*
X198059577Y-104268216D01*
X198059577Y-104268215D01*
X198059577Y-104268214D01*
X198030639Y-104218095D01*
X198030637Y-104218092D01*
X197980520Y-104131284D01*
X197868716Y-104019480D01*
X197868715Y-104019479D01*
X197864385Y-104015149D01*
X197864374Y-104015139D01*
X196334574Y-102485339D01*
X196301089Y-102424016D01*
X196300638Y-102421849D01*
X196274531Y-102290606D01*
X196269737Y-102266503D01*
X196269735Y-102266498D01*
X196209397Y-102120827D01*
X196209390Y-102120814D01*
X196121789Y-101989711D01*
X196121786Y-101989707D01*
X196010292Y-101878213D01*
X196010288Y-101878210D01*
X195879185Y-101790609D01*
X195879172Y-101790602D01*
X195733501Y-101730264D01*
X195733489Y-101730261D01*
X195578845Y-101699500D01*
X195578842Y-101699500D01*
X195421158Y-101699500D01*
X195421155Y-101699500D01*
X195266510Y-101730261D01*
X195266498Y-101730264D01*
X195120827Y-101790602D01*
X195120814Y-101790609D01*
X194989711Y-101878210D01*
X194989707Y-101878213D01*
X194878213Y-101989707D01*
X194878210Y-101989711D01*
X194790609Y-102120814D01*
X194790602Y-102120827D01*
X194730264Y-102266498D01*
X194730261Y-102266510D01*
X194699500Y-102421153D01*
X194699500Y-102578846D01*
X194730261Y-102733489D01*
X194730264Y-102733501D01*
X194790602Y-102879172D01*
X194790609Y-102879185D01*
X194878210Y-103010288D01*
X194878213Y-103010292D01*
X194989707Y-103121786D01*
X194989711Y-103121789D01*
X195120814Y-103209390D01*
X195120827Y-103209397D01*
X195266498Y-103269735D01*
X195266503Y-103269737D01*
X195331147Y-103282595D01*
X195421849Y-103300638D01*
X195483760Y-103333023D01*
X195485339Y-103334574D01*
X196735005Y-104584240D01*
X196768490Y-104645563D01*
X196763506Y-104715255D01*
X196721634Y-104771188D01*
X196720210Y-104772239D01*
X196620209Y-104844894D01*
X196469894Y-104995209D01*
X196469890Y-104995214D01*
X196350318Y-105159793D01*
X196294989Y-105202459D01*
X196225375Y-105208438D01*
X196163580Y-105175833D01*
X196149682Y-105159793D01*
X196030109Y-104995214D01*
X196030105Y-104995209D01*
X195879786Y-104844890D01*
X195707820Y-104719951D01*
X195518414Y-104623444D01*
X195518413Y-104623443D01*
X195518412Y-104623443D01*
X195316243Y-104557754D01*
X195316241Y-104557753D01*
X195316240Y-104557753D01*
X195154957Y-104532208D01*
X195106287Y-104524500D01*
X194893713Y-104524500D01*
X194845042Y-104532208D01*
X194683760Y-104557753D01*
X194481585Y-104623444D01*
X194292179Y-104719951D01*
X194120213Y-104844890D01*
X193969894Y-104995209D01*
X193969890Y-104995214D01*
X193850318Y-105159793D01*
X193794989Y-105202459D01*
X193725375Y-105208438D01*
X193663580Y-105175833D01*
X193649682Y-105159793D01*
X193530109Y-104995214D01*
X193530105Y-104995209D01*
X193379786Y-104844890D01*
X193207820Y-104719951D01*
X193018414Y-104623444D01*
X193018413Y-104623443D01*
X193018412Y-104623443D01*
X192816243Y-104557754D01*
X192816241Y-104557753D01*
X192816240Y-104557753D01*
X192654957Y-104532208D01*
X192606287Y-104524500D01*
X192393713Y-104524500D01*
X192345042Y-104532208D01*
X192183760Y-104557753D01*
X191981585Y-104623444D01*
X191792179Y-104719951D01*
X191620213Y-104844890D01*
X191469894Y-104995209D01*
X191469890Y-104995214D01*
X191350318Y-105159793D01*
X191294989Y-105202459D01*
X191225375Y-105208438D01*
X191163580Y-105175833D01*
X191149682Y-105159793D01*
X191030109Y-104995214D01*
X191030105Y-104995209D01*
X190879786Y-104844890D01*
X190707820Y-104719951D01*
X190518414Y-104623444D01*
X190518413Y-104623443D01*
X190518412Y-104623443D01*
X190316243Y-104557754D01*
X190316241Y-104557753D01*
X190316240Y-104557753D01*
X190154957Y-104532208D01*
X190106287Y-104524500D01*
X189893713Y-104524500D01*
X189845042Y-104532208D01*
X189683760Y-104557753D01*
X189481585Y-104623444D01*
X189292179Y-104719951D01*
X189120213Y-104844890D01*
X188969894Y-104995209D01*
X188969890Y-104995214D01*
X188850318Y-105159793D01*
X188794989Y-105202459D01*
X188725375Y-105208438D01*
X188663580Y-105175833D01*
X188649682Y-105159793D01*
X188530109Y-104995214D01*
X188530105Y-104995209D01*
X188379786Y-104844890D01*
X188207820Y-104719951D01*
X188018414Y-104623444D01*
X188018413Y-104623443D01*
X188018412Y-104623443D01*
X187816243Y-104557754D01*
X187816241Y-104557753D01*
X187816240Y-104557753D01*
X187654957Y-104532208D01*
X187606287Y-104524500D01*
X187393713Y-104524500D01*
X187345042Y-104532208D01*
X187183760Y-104557753D01*
X186981585Y-104623444D01*
X186792179Y-104719951D01*
X186620213Y-104844890D01*
X186469894Y-104995209D01*
X186469890Y-104995214D01*
X186350318Y-105159793D01*
X186294989Y-105202459D01*
X186225375Y-105208438D01*
X186163580Y-105175833D01*
X186149682Y-105159793D01*
X186030109Y-104995214D01*
X186030105Y-104995209D01*
X185879786Y-104844890D01*
X185707820Y-104719951D01*
X185518414Y-104623444D01*
X185518413Y-104623443D01*
X185518412Y-104623443D01*
X185316243Y-104557754D01*
X185316241Y-104557753D01*
X185316240Y-104557753D01*
X185154957Y-104532208D01*
X185106287Y-104524500D01*
X184893713Y-104524500D01*
X184845042Y-104532208D01*
X184683760Y-104557753D01*
X184481585Y-104623444D01*
X184292179Y-104719951D01*
X184120213Y-104844890D01*
X183969894Y-104995209D01*
X183969890Y-104995214D01*
X183850318Y-105159793D01*
X183794989Y-105202459D01*
X183725375Y-105208438D01*
X183663580Y-105175833D01*
X183649682Y-105159793D01*
X183530109Y-104995214D01*
X183530105Y-104995209D01*
X183379786Y-104844890D01*
X183207820Y-104719951D01*
X183018414Y-104623444D01*
X183018413Y-104623443D01*
X183018412Y-104623443D01*
X182816243Y-104557754D01*
X182816241Y-104557753D01*
X182816240Y-104557753D01*
X182654957Y-104532208D01*
X182606287Y-104524500D01*
X182393713Y-104524500D01*
X182345042Y-104532208D01*
X182183760Y-104557753D01*
X181981585Y-104623444D01*
X181792179Y-104719951D01*
X181620213Y-104844890D01*
X181469894Y-104995209D01*
X181469890Y-104995214D01*
X181350318Y-105159793D01*
X181294989Y-105202459D01*
X181225375Y-105208438D01*
X181163580Y-105175833D01*
X181149682Y-105159793D01*
X181030109Y-104995214D01*
X181030105Y-104995209D01*
X180879786Y-104844890D01*
X180707820Y-104719951D01*
X180518414Y-104623444D01*
X180518413Y-104623443D01*
X180518412Y-104623443D01*
X180316243Y-104557754D01*
X180316241Y-104557753D01*
X180316240Y-104557753D01*
X180154957Y-104532208D01*
X180106287Y-104524500D01*
X179893713Y-104524500D01*
X179845042Y-104532208D01*
X179683760Y-104557753D01*
X179481585Y-104623444D01*
X179292179Y-104719951D01*
X179120213Y-104844890D01*
X178969890Y-104995213D01*
X178844951Y-105167179D01*
X178748444Y-105356585D01*
X178682753Y-105558760D01*
X178649500Y-105768713D01*
X150500500Y-105768713D01*
X150500500Y-100921153D01*
X200199500Y-100921153D01*
X200199500Y-101078846D01*
X200230261Y-101233489D01*
X200230264Y-101233501D01*
X200290602Y-101379172D01*
X200290609Y-101379185D01*
X200378210Y-101510288D01*
X200378213Y-101510292D01*
X200489707Y-101621786D01*
X200489711Y-101621789D01*
X200620814Y-101709390D01*
X200620827Y-101709397D01*
X200766498Y-101769735D01*
X200766503Y-101769737D01*
X200831147Y-101782595D01*
X200921849Y-101800638D01*
X200983760Y-101833023D01*
X200985339Y-101834574D01*
X202165425Y-103014660D01*
X202198910Y-103075983D01*
X202199361Y-103078149D01*
X202230261Y-103233491D01*
X202230264Y-103233501D01*
X202290602Y-103379172D01*
X202290609Y-103379185D01*
X202378210Y-103510288D01*
X202378213Y-103510292D01*
X202489707Y-103621786D01*
X202489711Y-103621789D01*
X202620814Y-103709390D01*
X202620827Y-103709397D01*
X202766498Y-103769735D01*
X202766503Y-103769737D01*
X202921153Y-103800499D01*
X202921156Y-103800500D01*
X202921158Y-103800500D01*
X203078844Y-103800500D01*
X203078845Y-103800499D01*
X203233497Y-103769737D01*
X203379179Y-103709394D01*
X203510289Y-103621789D01*
X203621789Y-103510289D01*
X203709394Y-103379179D01*
X203769737Y-103233497D01*
X203800500Y-103078842D01*
X203800500Y-102921158D01*
X203800500Y-102921155D01*
X203800499Y-102921153D01*
X203769738Y-102766510D01*
X203769737Y-102766503D01*
X203756062Y-102733489D01*
X203709397Y-102620827D01*
X203709390Y-102620814D01*
X203621789Y-102489711D01*
X203621786Y-102489707D01*
X203510292Y-102378213D01*
X203510288Y-102378210D01*
X203379185Y-102290609D01*
X203379172Y-102290602D01*
X203233501Y-102230264D01*
X203233491Y-102230261D01*
X203078149Y-102199361D01*
X203016238Y-102166976D01*
X203014660Y-102165425D01*
X201834574Y-100985339D01*
X201801089Y-100924016D01*
X201800638Y-100921849D01*
X201769738Y-100766510D01*
X201769737Y-100766503D01*
X201769735Y-100766498D01*
X201709397Y-100620827D01*
X201709390Y-100620814D01*
X201621789Y-100489711D01*
X201621786Y-100489707D01*
X201510292Y-100378213D01*
X201510288Y-100378210D01*
X201379185Y-100290609D01*
X201379172Y-100290602D01*
X201233501Y-100230264D01*
X201233489Y-100230261D01*
X201078845Y-100199500D01*
X201078842Y-100199500D01*
X200921158Y-100199500D01*
X200921155Y-100199500D01*
X200766510Y-100230261D01*
X200766498Y-100230264D01*
X200620827Y-100290602D01*
X200620814Y-100290609D01*
X200489711Y-100378210D01*
X200489707Y-100378213D01*
X200378213Y-100489707D01*
X200378210Y-100489711D01*
X200290609Y-100620814D01*
X200290602Y-100620827D01*
X200230264Y-100766498D01*
X200230261Y-100766510D01*
X200199500Y-100921153D01*
X150500500Y-100921153D01*
X150500500Y-97129500D01*
X150520185Y-97062461D01*
X150572989Y-97016706D01*
X150624500Y-97005500D01*
X221152795Y-97005500D01*
X221219834Y-97025185D01*
X221265589Y-97077989D01*
X221275533Y-97147147D01*
X221267356Y-97176953D01*
X221230263Y-97266502D01*
X221230261Y-97266510D01*
X221199500Y-97421153D01*
X221199500Y-97578846D01*
X221230261Y-97733489D01*
X221230264Y-97733501D01*
X221290602Y-97879172D01*
X221290609Y-97879185D01*
X221378210Y-98010288D01*
X221378213Y-98010292D01*
X221489707Y-98121786D01*
X221489711Y-98121789D01*
X221620814Y-98209390D01*
X221620827Y-98209397D01*
X221766498Y-98269735D01*
X221766503Y-98269737D01*
X221921153Y-98300499D01*
X221921156Y-98300500D01*
X221921158Y-98300500D01*
X222078844Y-98300500D01*
X222078845Y-98300499D01*
X222233497Y-98269737D01*
X222379179Y-98209394D01*
X222510289Y-98121789D01*
X222621789Y-98010289D01*
X222709394Y-97879179D01*
X222769737Y-97733497D01*
X222800500Y-97578842D01*
X222800500Y-97421158D01*
X222800500Y-97421155D01*
X222800499Y-97421153D01*
X222769738Y-97266510D01*
X222769737Y-97266503D01*
X222769735Y-97266498D01*
X222709397Y-97120827D01*
X222709390Y-97120814D01*
X222621398Y-96989125D01*
X222600520Y-96922447D01*
X222600500Y-96920234D01*
X222600500Y-96500000D01*
X229499500Y-96500000D01*
X229499500Y-109375500D01*
G37*
%TD.AperFunction*%
%TD*%
M02*
