M48
; DRILL file {KiCad 9.0.7} date 2026-03-13T01:16:00-0700
; FORMAT={-:-/ absolute / metric / decimal}
; #@! TF.CreationDate,2026-03-13T01:16:00-07:00
; #@! TF.GenerationSoftware,Kicad,Pcbnew,9.0.7
; #@! TF.FileFunction,Plated,1,2,PTH
FMAT,2
METRIC
; #@! TA.AperFunction,Plated,PTH,ViaDrill
T1C0.300
; #@! TA.AperFunction,Plated,PTH,ComponentDrill
T2C0.300
; #@! TA.AperFunction,Plated,PTH,ComponentDrill
T3C0.650
; #@! TA.AperFunction,Plated,PTH,ComponentDrill
T4C0.750
; #@! TA.AperFunction,Plated,PTH,ComponentDrill
T5C0.950
; #@! TA.AperFunction,Plated,PTH,ComponentDrill
T6C1.000
%
G90
G05
T1
X158.25Y-85.0
X158.5Y-89.25
X158.5Y-91.75
X163.75Y-113.5
X164.25Y-114.25
X164.75Y-113.5
X173.25Y-76.5
X173.25Y-79.04
X174.25Y-103.0
X174.5Y-93.0
X174.5Y-95.25
X177.0Y-64.25
X177.25Y-90.5
X177.25Y-92.75
X177.5Y-65.0
X177.5Y-117.5
X177.5Y-119.5
X178.0Y-64.25
X178.0Y-88.5
X181.485Y-83.515
X182.0Y-80.25
X182.5Y-58.75
X183.05Y-89.55
X183.5Y-93.0
X185.0Y-58.75
X185.0Y-79.0
X185.5Y-92.5
X185.5Y-117.5
X185.75Y-77.75
X186.75Y-115.25
X188.5Y-90.0
X190.0Y-58.75
X190.0Y-102.0
X190.6Y-122.4
X194.25Y-75.25
X195.0Y-58.75
X195.0Y-107.0
X195.25Y-88.5
X195.25Y-106.25
X195.75Y-76.75
X195.95Y-106.95
X197.0Y-106.0
X197.0Y-119.25
X197.0Y-122.75
X197.6Y-105.0
X198.0Y-90.5
X198.5Y-92.4
X198.5Y-96.5
X201.0Y-106.5
X203.5Y-84.5
X205.0Y-88.5
X205.0Y-94.5
X205.25Y-91.0
X206.5Y-87.5
X208.2Y-103.7
X208.769Y-91.769
X210.25Y-84.75
X212.5Y-95.0
X213.0Y-88.5
X214.25Y-65.0
X214.75Y-66.0
X215.25Y-65.0
X220.75Y-85.5
X221.0Y-91.0
X221.25Y-93.75
X222.75Y-84.75
T2
X172.162Y-113.605
X172.162Y-114.905
X172.162Y-116.205
X173.463Y-113.605
X173.463Y-114.905
X173.463Y-116.205
T3
X167.25Y-63.5
X167.25Y-64.77
X167.25Y-66.04
X167.25Y-67.31
X167.25Y-68.58
X168.52Y-63.5
X168.52Y-64.77
X168.52Y-66.04
X168.52Y-67.31
X168.52Y-68.58
T4
X207.5Y-117.5
X209.5Y-117.5
X211.5Y-117.5
X217.0Y-109.25
X217.0Y-111.25
X217.0Y-113.25
T5
X154.025Y-77.5
X154.025Y-80.0
X154.025Y-82.5
X154.025Y-85.0
X154.025Y-87.5
X154.025Y-90.0
X154.025Y-92.5
X154.025Y-95.0
X154.025Y-97.5
X154.025Y-100.0
X154.025Y-102.5
X177.5Y-54.0
X177.5Y-126.0
X180.0Y-54.0
X180.0Y-126.0
X182.5Y-54.0
X182.5Y-126.0
X185.0Y-54.0
X185.0Y-126.0
X187.5Y-54.0
X187.5Y-126.0
X190.0Y-54.0
X190.0Y-126.0
X192.5Y-54.0
X192.5Y-126.0
X195.0Y-54.0
X195.0Y-126.0
X197.5Y-54.0
X197.5Y-126.0
X200.0Y-54.0
X200.0Y-126.0
X202.5Y-54.0
X202.5Y-126.0
X226.0Y-77.5
X226.0Y-80.0
X226.0Y-82.5
X226.0Y-85.0
X226.0Y-87.5
X226.0Y-90.0
X226.0Y-92.5
X226.0Y-95.0
X226.0Y-97.5
X226.0Y-100.0
X226.0Y-102.5
T6
X168.0Y-76.5
X168.0Y-79.04
X168.0Y-81.58
X168.0Y-88.0
X168.0Y-90.54
X168.0Y-93.08
X168.0Y-95.62
M30
