%TF.GenerationSoftware,KiCad,Pcbnew,9.0.7*%
%TF.CreationDate,2026-03-13T01:16:04-07:00*%
%TF.ProjectId,Pulse_Box_Panel_v1,50756c73-655f-4426-9f78-5f50616e656c,rev?*%
%TF.SameCoordinates,Original*%
%TF.FileFunction,Soldermask,Bot*%
%TF.FilePolarity,Negative*%
%FSLAX46Y46*%
G04 Gerber Fmt 4.6, Leading zero omitted, Abs format (unit mm)*
G04 Created by KiCad (PCBNEW 9.0.7) date 2026-03-13 01:16:04*
%MOMM*%
%LPD*%
G01*
G04 APERTURE LIST*
G04 Aperture macros list*
%AMRoundRect*
0 Rectangle with rounded corners*
0 $1 Rounding radius*
0 $2 $3 $4 $5 $6 $7 $8 $9 X,Y pos of 4 corners*
0 Add a 4 corners polygon primitive as box body*
4,1,4,$2,$3,$4,$5,$6,$7,$8,$9,$2,$3,0*
0 Add four circle primitives for the rounded corners*
1,1,$1+$1,$2,$3*
1,1,$1+$1,$4,$5*
1,1,$1+$1,$6,$7*
1,1,$1+$1,$8,$9*
0 Add four rect primitives between the rounded corners*
20,1,$1+$1,$2,$3,$4,$5,0*
20,1,$1+$1,$4,$5,$6,$7,0*
20,1,$1+$1,$6,$7,$8,$9,0*
20,1,$1+$1,$8,$9,$2,$3,0*%
G04 Aperture macros list end*
%ADD10RoundRect,0.250000X-0.350000X-0.625000X0.350000X-0.625000X0.350000X0.625000X-0.350000X0.625000X0*%
%ADD11O,1.200000X1.750000*%
%ADD12RoundRect,0.250000X0.625000X-0.350000X0.625000X0.350000X-0.625000X0.350000X-0.625000X-0.350000X0*%
%ADD13O,1.750000X1.200000*%
%ADD14R,1.000000X1.000000*%
%ADD15C,1.000000*%
%ADD16R,1.700000X1.700000*%
%ADD17C,1.700000*%
%ADD18RoundRect,0.250000X0.600000X0.725000X-0.600000X0.725000X-0.600000X-0.725000X0.600000X-0.725000X0*%
%ADD19O,1.700000X1.950000*%
%ADD20RoundRect,0.250000X0.725000X-0.600000X0.725000X0.600000X-0.725000X0.600000X-0.725000X-0.600000X0*%
%ADD21O,1.950000X1.700000*%
%ADD22C,3.200000*%
%ADD23RoundRect,0.250000X-0.725000X0.600000X-0.725000X-0.600000X0.725000X-0.600000X0.725000X0.600000X0*%
%ADD24RoundRect,0.250000X-0.600000X-0.725000X0.600000X-0.725000X0.600000X0.725000X-0.600000X0.725000X0*%
G04 APERTURE END LIST*
D10*
%TO.C,J5*%
X207500000Y-117500000D03*
D11*
X209500000Y-117500000D03*
X211500000Y-117500000D03*
%TD*%
D12*
%TO.C,J6*%
X217000000Y-113250000D03*
D13*
X217000000Y-111250000D03*
X217000000Y-109250000D03*
%TD*%
D14*
%TO.C,J9*%
X167250000Y-63500000D03*
D15*
X168520000Y-63500000D03*
X167250000Y-64770000D03*
X168520000Y-64770000D03*
X167250000Y-66040000D03*
X168520000Y-66040000D03*
X167250000Y-67310000D03*
X168520000Y-67310000D03*
X167250000Y-68580000D03*
X168520000Y-68580000D03*
%TD*%
D16*
%TO.C,J7*%
X168000000Y-88000000D03*
D17*
X168000000Y-90540000D03*
X168000000Y-93080000D03*
X168000000Y-95620000D03*
%TD*%
D16*
%TO.C,J8*%
X168000000Y-76500000D03*
D17*
X168000000Y-79040000D03*
X168000000Y-81580000D03*
%TD*%
D18*
%TO.C,J4*%
X202500000Y-54000000D03*
D19*
X200000000Y-54000000D03*
X197500000Y-54000000D03*
X195000000Y-54000000D03*
X192500000Y-54000000D03*
X190000000Y-54000000D03*
X187500000Y-54000000D03*
X185000000Y-54000000D03*
X182500000Y-54000000D03*
X180000000Y-54000000D03*
X177500000Y-54000000D03*
%TD*%
D20*
%TO.C,J3*%
X226000000Y-102500000D03*
D21*
X226000000Y-100000000D03*
X226000000Y-97500000D03*
X226000000Y-95000000D03*
X226000000Y-92500000D03*
X226000000Y-90000000D03*
X226000000Y-87500000D03*
X226000000Y-85000000D03*
X226000000Y-82500000D03*
X226000000Y-80000000D03*
X226000000Y-77500000D03*
%TD*%
D22*
%TO.C,H1*%
X156500000Y-56500000D03*
%TD*%
D23*
%TO.C,J1*%
X154025000Y-77500000D03*
D21*
X154025000Y-80000000D03*
X154025000Y-82500000D03*
X154025000Y-85000000D03*
X154025000Y-87500000D03*
X154025000Y-90000000D03*
X154025000Y-92500000D03*
X154025000Y-95000000D03*
X154025000Y-97500000D03*
X154025000Y-100000000D03*
X154025000Y-102500000D03*
%TD*%
D24*
%TO.C,J2*%
X177500000Y-126000000D03*
D19*
X180000000Y-126000000D03*
X182500000Y-126000000D03*
X185000000Y-126000000D03*
X187500000Y-126000000D03*
X190000000Y-126000000D03*
X192500000Y-126000000D03*
X195000000Y-126000000D03*
X197500000Y-126000000D03*
X200000000Y-126000000D03*
X202500000Y-126000000D03*
%TD*%
D22*
%TO.C,H2*%
X223500000Y-56500000D03*
%TD*%
%TO.C,H3*%
X223500000Y-123500000D03*
%TD*%
%TO.C,H4*%
X156500000Y-123500000D03*
%TD*%
M02*
