%TF.GenerationSoftware,KiCad,Pcbnew,9.0.7*%
%TF.CreationDate,2026-03-13T01:16:04-07:00*%
%TF.ProjectId,Pulse_Box_Panel_v1,50756c73-655f-4426-9f78-5f50616e656c,rev?*%
%TF.SameCoordinates,Original*%
%TF.FileFunction,Legend,Top*%
%TF.FilePolarity,Positive*%
%FSLAX46Y46*%
G04 Gerber Fmt 4.6, Leading zero omitted, Abs format (unit mm)*
G04 Created by KiCad (PCBNEW 9.0.7) date 2026-03-13 01:16:04*
%MOMM*%
%LPD*%
G01*
G04 APERTURE LIST*
%ADD10C,0.100000*%
%ADD11C,0.375000*%
%ADD12C,0.150000*%
%ADD13C,0.120000*%
G04 APERTURE END LIST*
D10*
X171756265Y-82704800D02*
X171899122Y-82752419D01*
X171899122Y-82752419D02*
X172137217Y-82752419D01*
X172137217Y-82752419D02*
X172232455Y-82704800D01*
X172232455Y-82704800D02*
X172280074Y-82657180D01*
X172280074Y-82657180D02*
X172327693Y-82561942D01*
X172327693Y-82561942D02*
X172327693Y-82466704D01*
X172327693Y-82466704D02*
X172280074Y-82371466D01*
X172280074Y-82371466D02*
X172232455Y-82323847D01*
X172232455Y-82323847D02*
X172137217Y-82276228D01*
X172137217Y-82276228D02*
X171946741Y-82228609D01*
X171946741Y-82228609D02*
X171851503Y-82180990D01*
X171851503Y-82180990D02*
X171803884Y-82133371D01*
X171803884Y-82133371D02*
X171756265Y-82038133D01*
X171756265Y-82038133D02*
X171756265Y-81942895D01*
X171756265Y-81942895D02*
X171803884Y-81847657D01*
X171803884Y-81847657D02*
X171851503Y-81800038D01*
X171851503Y-81800038D02*
X171946741Y-81752419D01*
X171946741Y-81752419D02*
X172184836Y-81752419D01*
X172184836Y-81752419D02*
X172327693Y-81800038D01*
X172613408Y-81752419D02*
X173184836Y-81752419D01*
X172899122Y-82752419D02*
X172899122Y-81752419D01*
X173470551Y-82704800D02*
X173613408Y-82752419D01*
X173613408Y-82752419D02*
X173851503Y-82752419D01*
X173851503Y-82752419D02*
X173946741Y-82704800D01*
X173946741Y-82704800D02*
X173994360Y-82657180D01*
X173994360Y-82657180D02*
X174041979Y-82561942D01*
X174041979Y-82561942D02*
X174041979Y-82466704D01*
X174041979Y-82466704D02*
X173994360Y-82371466D01*
X173994360Y-82371466D02*
X173946741Y-82323847D01*
X173946741Y-82323847D02*
X173851503Y-82276228D01*
X173851503Y-82276228D02*
X173661027Y-82228609D01*
X173661027Y-82228609D02*
X173565789Y-82180990D01*
X173565789Y-82180990D02*
X173518170Y-82133371D01*
X173518170Y-82133371D02*
X173470551Y-82038133D01*
X173470551Y-82038133D02*
X173470551Y-81942895D01*
X173470551Y-81942895D02*
X173518170Y-81847657D01*
X173518170Y-81847657D02*
X173565789Y-81800038D01*
X173565789Y-81800038D02*
X173661027Y-81752419D01*
X173661027Y-81752419D02*
X173899122Y-81752419D01*
X173899122Y-81752419D02*
X174041979Y-81800038D01*
X163458646Y-89872419D02*
X164077693Y-89872419D01*
X164077693Y-89872419D02*
X163744360Y-90253371D01*
X163744360Y-90253371D02*
X163887217Y-90253371D01*
X163887217Y-90253371D02*
X163982455Y-90300990D01*
X163982455Y-90300990D02*
X164030074Y-90348609D01*
X164030074Y-90348609D02*
X164077693Y-90443847D01*
X164077693Y-90443847D02*
X164077693Y-90681942D01*
X164077693Y-90681942D02*
X164030074Y-90777180D01*
X164030074Y-90777180D02*
X163982455Y-90824800D01*
X163982455Y-90824800D02*
X163887217Y-90872419D01*
X163887217Y-90872419D02*
X163601503Y-90872419D01*
X163601503Y-90872419D02*
X163506265Y-90824800D01*
X163506265Y-90824800D02*
X163458646Y-90777180D01*
X164411027Y-90205752D02*
X164649122Y-90872419D01*
X164649122Y-90872419D02*
X164887217Y-90205752D01*
X165172932Y-89872419D02*
X165791979Y-89872419D01*
X165791979Y-89872419D02*
X165458646Y-90253371D01*
X165458646Y-90253371D02*
X165601503Y-90253371D01*
X165601503Y-90253371D02*
X165696741Y-90300990D01*
X165696741Y-90300990D02*
X165744360Y-90348609D01*
X165744360Y-90348609D02*
X165791979Y-90443847D01*
X165791979Y-90443847D02*
X165791979Y-90681942D01*
X165791979Y-90681942D02*
X165744360Y-90777180D01*
X165744360Y-90777180D02*
X165696741Y-90824800D01*
X165696741Y-90824800D02*
X165601503Y-90872419D01*
X165601503Y-90872419D02*
X165315789Y-90872419D01*
X165315789Y-90872419D02*
X165220551Y-90824800D01*
X165220551Y-90824800D02*
X165172932Y-90777180D01*
X164625312Y-79372419D02*
X164291979Y-78896228D01*
X164053884Y-79372419D02*
X164053884Y-78372419D01*
X164053884Y-78372419D02*
X164434836Y-78372419D01*
X164434836Y-78372419D02*
X164530074Y-78420038D01*
X164530074Y-78420038D02*
X164577693Y-78467657D01*
X164577693Y-78467657D02*
X164625312Y-78562895D01*
X164625312Y-78562895D02*
X164625312Y-78705752D01*
X164625312Y-78705752D02*
X164577693Y-78800990D01*
X164577693Y-78800990D02*
X164530074Y-78848609D01*
X164530074Y-78848609D02*
X164434836Y-78896228D01*
X164434836Y-78896228D02*
X164053884Y-78896228D01*
X164958646Y-78372419D02*
X165625312Y-79372419D01*
X165625312Y-78372419D02*
X164958646Y-79372419D01*
X163827693Y-87420038D02*
X163732455Y-87372419D01*
X163732455Y-87372419D02*
X163589598Y-87372419D01*
X163589598Y-87372419D02*
X163446741Y-87420038D01*
X163446741Y-87420038D02*
X163351503Y-87515276D01*
X163351503Y-87515276D02*
X163303884Y-87610514D01*
X163303884Y-87610514D02*
X163256265Y-87800990D01*
X163256265Y-87800990D02*
X163256265Y-87943847D01*
X163256265Y-87943847D02*
X163303884Y-88134323D01*
X163303884Y-88134323D02*
X163351503Y-88229561D01*
X163351503Y-88229561D02*
X163446741Y-88324800D01*
X163446741Y-88324800D02*
X163589598Y-88372419D01*
X163589598Y-88372419D02*
X163684836Y-88372419D01*
X163684836Y-88372419D02*
X163827693Y-88324800D01*
X163827693Y-88324800D02*
X163875312Y-88277180D01*
X163875312Y-88277180D02*
X163875312Y-87943847D01*
X163875312Y-87943847D02*
X163684836Y-87943847D01*
X164303884Y-88372419D02*
X164303884Y-87372419D01*
X164303884Y-87372419D02*
X164875312Y-88372419D01*
X164875312Y-88372419D02*
X164875312Y-87372419D01*
X165351503Y-88372419D02*
X165351503Y-87372419D01*
X165351503Y-87372419D02*
X165589598Y-87372419D01*
X165589598Y-87372419D02*
X165732455Y-87420038D01*
X165732455Y-87420038D02*
X165827693Y-87515276D01*
X165827693Y-87515276D02*
X165875312Y-87610514D01*
X165875312Y-87610514D02*
X165922931Y-87800990D01*
X165922931Y-87800990D02*
X165922931Y-87943847D01*
X165922931Y-87943847D02*
X165875312Y-88134323D01*
X165875312Y-88134323D02*
X165827693Y-88229561D01*
X165827693Y-88229561D02*
X165732455Y-88324800D01*
X165732455Y-88324800D02*
X165589598Y-88372419D01*
X165589598Y-88372419D02*
X165351503Y-88372419D01*
X163911027Y-75872419D02*
X164482455Y-75872419D01*
X164196741Y-76872419D02*
X164196741Y-75872419D01*
X164720551Y-75872419D02*
X165387217Y-76872419D01*
X165387217Y-75872419D02*
X164720551Y-76872419D01*
X207280074Y-122122419D02*
X206803884Y-122122419D01*
X206803884Y-122122419D02*
X206803884Y-121122419D01*
X207613408Y-121598609D02*
X207946741Y-121598609D01*
X208089598Y-122122419D02*
X207613408Y-122122419D01*
X207613408Y-122122419D02*
X207613408Y-121122419D01*
X207613408Y-121122419D02*
X208089598Y-121122419D01*
X208518170Y-122122419D02*
X208518170Y-121122419D01*
X208518170Y-121122419D02*
X208756265Y-121122419D01*
X208756265Y-121122419D02*
X208899122Y-121170038D01*
X208899122Y-121170038D02*
X208994360Y-121265276D01*
X208994360Y-121265276D02*
X209041979Y-121360514D01*
X209041979Y-121360514D02*
X209089598Y-121550990D01*
X209089598Y-121550990D02*
X209089598Y-121693847D01*
X209089598Y-121693847D02*
X209041979Y-121884323D01*
X209041979Y-121884323D02*
X208994360Y-121979561D01*
X208994360Y-121979561D02*
X208899122Y-122074800D01*
X208899122Y-122074800D02*
X208756265Y-122122419D01*
X208756265Y-122122419D02*
X208518170Y-122122419D01*
X210470551Y-121122419D02*
X210661027Y-121122419D01*
X210661027Y-121122419D02*
X210756265Y-121170038D01*
X210756265Y-121170038D02*
X210851503Y-121265276D01*
X210851503Y-121265276D02*
X210899122Y-121455752D01*
X210899122Y-121455752D02*
X210899122Y-121789085D01*
X210899122Y-121789085D02*
X210851503Y-121979561D01*
X210851503Y-121979561D02*
X210756265Y-122074800D01*
X210756265Y-122074800D02*
X210661027Y-122122419D01*
X210661027Y-122122419D02*
X210470551Y-122122419D01*
X210470551Y-122122419D02*
X210375313Y-122074800D01*
X210375313Y-122074800D02*
X210280075Y-121979561D01*
X210280075Y-121979561D02*
X210232456Y-121789085D01*
X210232456Y-121789085D02*
X210232456Y-121455752D01*
X210232456Y-121455752D02*
X210280075Y-121265276D01*
X210280075Y-121265276D02*
X210375313Y-121170038D01*
X210375313Y-121170038D02*
X210470551Y-121122419D01*
X211327694Y-121122419D02*
X211327694Y-121931942D01*
X211327694Y-121931942D02*
X211375313Y-122027180D01*
X211375313Y-122027180D02*
X211422932Y-122074800D01*
X211422932Y-122074800D02*
X211518170Y-122122419D01*
X211518170Y-122122419D02*
X211708646Y-122122419D01*
X211708646Y-122122419D02*
X211803884Y-122074800D01*
X211803884Y-122074800D02*
X211851503Y-122027180D01*
X211851503Y-122027180D02*
X211899122Y-121931942D01*
X211899122Y-121931942D02*
X211899122Y-121122419D01*
X212232456Y-121122419D02*
X212803884Y-121122419D01*
X212518170Y-122122419D02*
X212518170Y-121122419D01*
X163506265Y-95217657D02*
X163553884Y-95170038D01*
X163553884Y-95170038D02*
X163649122Y-95122419D01*
X163649122Y-95122419D02*
X163887217Y-95122419D01*
X163887217Y-95122419D02*
X163982455Y-95170038D01*
X163982455Y-95170038D02*
X164030074Y-95217657D01*
X164030074Y-95217657D02*
X164077693Y-95312895D01*
X164077693Y-95312895D02*
X164077693Y-95408133D01*
X164077693Y-95408133D02*
X164030074Y-95550990D01*
X164030074Y-95550990D02*
X163458646Y-96122419D01*
X163458646Y-96122419D02*
X164077693Y-96122419D01*
X164934836Y-95455752D02*
X164934836Y-96122419D01*
X164696741Y-95074800D02*
X164458646Y-95789085D01*
X164458646Y-95789085D02*
X165077693Y-95789085D01*
X165315789Y-95122419D02*
X165649122Y-96122419D01*
X165649122Y-96122419D02*
X165982455Y-95122419D01*
X171303884Y-80872419D02*
X171303884Y-79872419D01*
X171303884Y-79872419D02*
X171684836Y-79872419D01*
X171684836Y-79872419D02*
X171780074Y-79920038D01*
X171780074Y-79920038D02*
X171827693Y-79967657D01*
X171827693Y-79967657D02*
X171875312Y-80062895D01*
X171875312Y-80062895D02*
X171875312Y-80205752D01*
X171875312Y-80205752D02*
X171827693Y-80300990D01*
X171827693Y-80300990D02*
X171780074Y-80348609D01*
X171780074Y-80348609D02*
X171684836Y-80396228D01*
X171684836Y-80396228D02*
X171303884Y-80396228D01*
X172208646Y-79872419D02*
X172446741Y-80872419D01*
X172446741Y-80872419D02*
X172637217Y-80158133D01*
X172637217Y-80158133D02*
X172827693Y-80872419D01*
X172827693Y-80872419D02*
X173065789Y-79872419D01*
X174018169Y-80872419D02*
X173684836Y-80396228D01*
X173446741Y-80872419D02*
X173446741Y-79872419D01*
X173446741Y-79872419D02*
X173827693Y-79872419D01*
X173827693Y-79872419D02*
X173922931Y-79920038D01*
X173922931Y-79920038D02*
X173970550Y-79967657D01*
X173970550Y-79967657D02*
X174018169Y-80062895D01*
X174018169Y-80062895D02*
X174018169Y-80205752D01*
X174018169Y-80205752D02*
X173970550Y-80300990D01*
X173970550Y-80300990D02*
X173922931Y-80348609D01*
X173922931Y-80348609D02*
X173827693Y-80396228D01*
X173827693Y-80396228D02*
X173446741Y-80396228D01*
X162776265Y-66574800D02*
X162919122Y-66622419D01*
X162919122Y-66622419D02*
X163157217Y-66622419D01*
X163157217Y-66622419D02*
X163252455Y-66574800D01*
X163252455Y-66574800D02*
X163300074Y-66527180D01*
X163300074Y-66527180D02*
X163347693Y-66431942D01*
X163347693Y-66431942D02*
X163347693Y-66336704D01*
X163347693Y-66336704D02*
X163300074Y-66241466D01*
X163300074Y-66241466D02*
X163252455Y-66193847D01*
X163252455Y-66193847D02*
X163157217Y-66146228D01*
X163157217Y-66146228D02*
X162966741Y-66098609D01*
X162966741Y-66098609D02*
X162871503Y-66050990D01*
X162871503Y-66050990D02*
X162823884Y-66003371D01*
X162823884Y-66003371D02*
X162776265Y-65908133D01*
X162776265Y-65908133D02*
X162776265Y-65812895D01*
X162776265Y-65812895D02*
X162823884Y-65717657D01*
X162823884Y-65717657D02*
X162871503Y-65670038D01*
X162871503Y-65670038D02*
X162966741Y-65622419D01*
X162966741Y-65622419D02*
X163204836Y-65622419D01*
X163204836Y-65622419D02*
X163347693Y-65670038D01*
X163681027Y-65622419D02*
X163919122Y-66622419D01*
X163919122Y-66622419D02*
X164109598Y-65908133D01*
X164109598Y-65908133D02*
X164300074Y-66622419D01*
X164300074Y-66622419D02*
X164538170Y-65622419D01*
X164919122Y-66622419D02*
X164919122Y-65622419D01*
X164919122Y-65622419D02*
X165157217Y-65622419D01*
X165157217Y-65622419D02*
X165300074Y-65670038D01*
X165300074Y-65670038D02*
X165395312Y-65765276D01*
X165395312Y-65765276D02*
X165442931Y-65860514D01*
X165442931Y-65860514D02*
X165490550Y-66050990D01*
X165490550Y-66050990D02*
X165490550Y-66193847D01*
X165490550Y-66193847D02*
X165442931Y-66384323D01*
X165442931Y-66384323D02*
X165395312Y-66479561D01*
X165395312Y-66479561D02*
X165300074Y-66574800D01*
X165300074Y-66574800D02*
X165157217Y-66622419D01*
X165157217Y-66622419D02*
X164919122Y-66622419D01*
X163827693Y-81170038D02*
X163732455Y-81122419D01*
X163732455Y-81122419D02*
X163589598Y-81122419D01*
X163589598Y-81122419D02*
X163446741Y-81170038D01*
X163446741Y-81170038D02*
X163351503Y-81265276D01*
X163351503Y-81265276D02*
X163303884Y-81360514D01*
X163303884Y-81360514D02*
X163256265Y-81550990D01*
X163256265Y-81550990D02*
X163256265Y-81693847D01*
X163256265Y-81693847D02*
X163303884Y-81884323D01*
X163303884Y-81884323D02*
X163351503Y-81979561D01*
X163351503Y-81979561D02*
X163446741Y-82074800D01*
X163446741Y-82074800D02*
X163589598Y-82122419D01*
X163589598Y-82122419D02*
X163684836Y-82122419D01*
X163684836Y-82122419D02*
X163827693Y-82074800D01*
X163827693Y-82074800D02*
X163875312Y-82027180D01*
X163875312Y-82027180D02*
X163875312Y-81693847D01*
X163875312Y-81693847D02*
X163684836Y-81693847D01*
X164303884Y-82122419D02*
X164303884Y-81122419D01*
X164303884Y-81122419D02*
X164875312Y-82122419D01*
X164875312Y-82122419D02*
X164875312Y-81122419D01*
X165351503Y-82122419D02*
X165351503Y-81122419D01*
X165351503Y-81122419D02*
X165589598Y-81122419D01*
X165589598Y-81122419D02*
X165732455Y-81170038D01*
X165732455Y-81170038D02*
X165827693Y-81265276D01*
X165827693Y-81265276D02*
X165875312Y-81360514D01*
X165875312Y-81360514D02*
X165922931Y-81550990D01*
X165922931Y-81550990D02*
X165922931Y-81693847D01*
X165922931Y-81693847D02*
X165875312Y-81884323D01*
X165875312Y-81884323D02*
X165827693Y-81979561D01*
X165827693Y-81979561D02*
X165732455Y-82074800D01*
X165732455Y-82074800D02*
X165589598Y-82122419D01*
X165589598Y-82122419D02*
X165351503Y-82122419D01*
X164780074Y-92622419D02*
X164303884Y-92622419D01*
X164303884Y-92622419D02*
X164256265Y-93098609D01*
X164256265Y-93098609D02*
X164303884Y-93050990D01*
X164303884Y-93050990D02*
X164399122Y-93003371D01*
X164399122Y-93003371D02*
X164637217Y-93003371D01*
X164637217Y-93003371D02*
X164732455Y-93050990D01*
X164732455Y-93050990D02*
X164780074Y-93098609D01*
X164780074Y-93098609D02*
X164827693Y-93193847D01*
X164827693Y-93193847D02*
X164827693Y-93431942D01*
X164827693Y-93431942D02*
X164780074Y-93527180D01*
X164780074Y-93527180D02*
X164732455Y-93574800D01*
X164732455Y-93574800D02*
X164637217Y-93622419D01*
X164637217Y-93622419D02*
X164399122Y-93622419D01*
X164399122Y-93622419D02*
X164303884Y-93574800D01*
X164303884Y-93574800D02*
X164256265Y-93527180D01*
X165113408Y-92622419D02*
X165446741Y-93622419D01*
X165446741Y-93622419D02*
X165780074Y-92622419D01*
D11*
X182972900Y-69735738D02*
X182972900Y-67735738D01*
X182972900Y-67735738D02*
X183734805Y-67735738D01*
X183734805Y-67735738D02*
X183925281Y-67830976D01*
X183925281Y-67830976D02*
X184020519Y-67926214D01*
X184020519Y-67926214D02*
X184115757Y-68116690D01*
X184115757Y-68116690D02*
X184115757Y-68402404D01*
X184115757Y-68402404D02*
X184020519Y-68592880D01*
X184020519Y-68592880D02*
X183925281Y-68688119D01*
X183925281Y-68688119D02*
X183734805Y-68783357D01*
X183734805Y-68783357D02*
X182972900Y-68783357D01*
X185830043Y-68402404D02*
X185830043Y-69735738D01*
X184972900Y-68402404D02*
X184972900Y-69450023D01*
X184972900Y-69450023D02*
X185068138Y-69640500D01*
X185068138Y-69640500D02*
X185258614Y-69735738D01*
X185258614Y-69735738D02*
X185544329Y-69735738D01*
X185544329Y-69735738D02*
X185734805Y-69640500D01*
X185734805Y-69640500D02*
X185830043Y-69545261D01*
X187068138Y-69735738D02*
X186877662Y-69640500D01*
X186877662Y-69640500D02*
X186782424Y-69450023D01*
X186782424Y-69450023D02*
X186782424Y-67735738D01*
X187734805Y-69640500D02*
X187925281Y-69735738D01*
X187925281Y-69735738D02*
X188306233Y-69735738D01*
X188306233Y-69735738D02*
X188496710Y-69640500D01*
X188496710Y-69640500D02*
X188591948Y-69450023D01*
X188591948Y-69450023D02*
X188591948Y-69354785D01*
X188591948Y-69354785D02*
X188496710Y-69164309D01*
X188496710Y-69164309D02*
X188306233Y-69069071D01*
X188306233Y-69069071D02*
X188020519Y-69069071D01*
X188020519Y-69069071D02*
X187830043Y-68973833D01*
X187830043Y-68973833D02*
X187734805Y-68783357D01*
X187734805Y-68783357D02*
X187734805Y-68688119D01*
X187734805Y-68688119D02*
X187830043Y-68497642D01*
X187830043Y-68497642D02*
X188020519Y-68402404D01*
X188020519Y-68402404D02*
X188306233Y-68402404D01*
X188306233Y-68402404D02*
X188496710Y-68497642D01*
X190210996Y-69640500D02*
X190020520Y-69735738D01*
X190020520Y-69735738D02*
X189639567Y-69735738D01*
X189639567Y-69735738D02*
X189449091Y-69640500D01*
X189449091Y-69640500D02*
X189353853Y-69450023D01*
X189353853Y-69450023D02*
X189353853Y-68688119D01*
X189353853Y-68688119D02*
X189449091Y-68497642D01*
X189449091Y-68497642D02*
X189639567Y-68402404D01*
X189639567Y-68402404D02*
X190020520Y-68402404D01*
X190020520Y-68402404D02*
X190210996Y-68497642D01*
X190210996Y-68497642D02*
X190306234Y-68688119D01*
X190306234Y-68688119D02*
X190306234Y-68878595D01*
X190306234Y-68878595D02*
X189353853Y-69069071D01*
X191830044Y-68688119D02*
X192115758Y-68783357D01*
X192115758Y-68783357D02*
X192210996Y-68878595D01*
X192210996Y-68878595D02*
X192306234Y-69069071D01*
X192306234Y-69069071D02*
X192306234Y-69354785D01*
X192306234Y-69354785D02*
X192210996Y-69545261D01*
X192210996Y-69545261D02*
X192115758Y-69640500D01*
X192115758Y-69640500D02*
X191925282Y-69735738D01*
X191925282Y-69735738D02*
X191163377Y-69735738D01*
X191163377Y-69735738D02*
X191163377Y-67735738D01*
X191163377Y-67735738D02*
X191830044Y-67735738D01*
X191830044Y-67735738D02*
X192020520Y-67830976D01*
X192020520Y-67830976D02*
X192115758Y-67926214D01*
X192115758Y-67926214D02*
X192210996Y-68116690D01*
X192210996Y-68116690D02*
X192210996Y-68307166D01*
X192210996Y-68307166D02*
X192115758Y-68497642D01*
X192115758Y-68497642D02*
X192020520Y-68592880D01*
X192020520Y-68592880D02*
X191830044Y-68688119D01*
X191830044Y-68688119D02*
X191163377Y-68688119D01*
X193449091Y-69735738D02*
X193258615Y-69640500D01*
X193258615Y-69640500D02*
X193163377Y-69545261D01*
X193163377Y-69545261D02*
X193068139Y-69354785D01*
X193068139Y-69354785D02*
X193068139Y-68783357D01*
X193068139Y-68783357D02*
X193163377Y-68592880D01*
X193163377Y-68592880D02*
X193258615Y-68497642D01*
X193258615Y-68497642D02*
X193449091Y-68402404D01*
X193449091Y-68402404D02*
X193734806Y-68402404D01*
X193734806Y-68402404D02*
X193925282Y-68497642D01*
X193925282Y-68497642D02*
X194020520Y-68592880D01*
X194020520Y-68592880D02*
X194115758Y-68783357D01*
X194115758Y-68783357D02*
X194115758Y-69354785D01*
X194115758Y-69354785D02*
X194020520Y-69545261D01*
X194020520Y-69545261D02*
X193925282Y-69640500D01*
X193925282Y-69640500D02*
X193734806Y-69735738D01*
X193734806Y-69735738D02*
X193449091Y-69735738D01*
X194782425Y-69735738D02*
X195830044Y-68402404D01*
X194782425Y-68402404D02*
X195830044Y-69735738D01*
X198115759Y-69735738D02*
X198115759Y-67735738D01*
X198115759Y-67735738D02*
X198877664Y-67735738D01*
X198877664Y-67735738D02*
X199068140Y-67830976D01*
X199068140Y-67830976D02*
X199163378Y-67926214D01*
X199163378Y-67926214D02*
X199258616Y-68116690D01*
X199258616Y-68116690D02*
X199258616Y-68402404D01*
X199258616Y-68402404D02*
X199163378Y-68592880D01*
X199163378Y-68592880D02*
X199068140Y-68688119D01*
X199068140Y-68688119D02*
X198877664Y-68783357D01*
X198877664Y-68783357D02*
X198115759Y-68783357D01*
X200972902Y-69735738D02*
X200972902Y-68688119D01*
X200972902Y-68688119D02*
X200877664Y-68497642D01*
X200877664Y-68497642D02*
X200687188Y-68402404D01*
X200687188Y-68402404D02*
X200306235Y-68402404D01*
X200306235Y-68402404D02*
X200115759Y-68497642D01*
X200972902Y-69640500D02*
X200782426Y-69735738D01*
X200782426Y-69735738D02*
X200306235Y-69735738D01*
X200306235Y-69735738D02*
X200115759Y-69640500D01*
X200115759Y-69640500D02*
X200020521Y-69450023D01*
X200020521Y-69450023D02*
X200020521Y-69259547D01*
X200020521Y-69259547D02*
X200115759Y-69069071D01*
X200115759Y-69069071D02*
X200306235Y-68973833D01*
X200306235Y-68973833D02*
X200782426Y-68973833D01*
X200782426Y-68973833D02*
X200972902Y-68878595D01*
X201925283Y-68402404D02*
X201925283Y-69735738D01*
X201925283Y-68592880D02*
X202020521Y-68497642D01*
X202020521Y-68497642D02*
X202210997Y-68402404D01*
X202210997Y-68402404D02*
X202496712Y-68402404D01*
X202496712Y-68402404D02*
X202687188Y-68497642D01*
X202687188Y-68497642D02*
X202782426Y-68688119D01*
X202782426Y-68688119D02*
X202782426Y-69735738D01*
X204496712Y-69640500D02*
X204306236Y-69735738D01*
X204306236Y-69735738D02*
X203925283Y-69735738D01*
X203925283Y-69735738D02*
X203734807Y-69640500D01*
X203734807Y-69640500D02*
X203639569Y-69450023D01*
X203639569Y-69450023D02*
X203639569Y-68688119D01*
X203639569Y-68688119D02*
X203734807Y-68497642D01*
X203734807Y-68497642D02*
X203925283Y-68402404D01*
X203925283Y-68402404D02*
X204306236Y-68402404D01*
X204306236Y-68402404D02*
X204496712Y-68497642D01*
X204496712Y-68497642D02*
X204591950Y-68688119D01*
X204591950Y-68688119D02*
X204591950Y-68878595D01*
X204591950Y-68878595D02*
X203639569Y-69069071D01*
X205734807Y-69735738D02*
X205544331Y-69640500D01*
X205544331Y-69640500D02*
X205449093Y-69450023D01*
X205449093Y-69450023D02*
X205449093Y-67735738D01*
X207830046Y-68402404D02*
X208306236Y-69735738D01*
X208306236Y-69735738D02*
X208782427Y-68402404D01*
X210591951Y-69735738D02*
X209449094Y-69735738D01*
X210020522Y-69735738D02*
X210020522Y-67735738D01*
X210020522Y-67735738D02*
X209830046Y-68021452D01*
X209830046Y-68021452D02*
X209639570Y-68211928D01*
X209639570Y-68211928D02*
X209449094Y-68307166D01*
D10*
X221872419Y-112969925D02*
X221872419Y-113446115D01*
X221872419Y-113446115D02*
X220872419Y-113446115D01*
X221348609Y-112636591D02*
X221348609Y-112303258D01*
X221872419Y-112160401D02*
X221872419Y-112636591D01*
X221872419Y-112636591D02*
X220872419Y-112636591D01*
X220872419Y-112636591D02*
X220872419Y-112160401D01*
X221872419Y-111731829D02*
X220872419Y-111731829D01*
X220872419Y-111731829D02*
X220872419Y-111493734D01*
X220872419Y-111493734D02*
X220920038Y-111350877D01*
X220920038Y-111350877D02*
X221015276Y-111255639D01*
X221015276Y-111255639D02*
X221110514Y-111208020D01*
X221110514Y-111208020D02*
X221300990Y-111160401D01*
X221300990Y-111160401D02*
X221443847Y-111160401D01*
X221443847Y-111160401D02*
X221634323Y-111208020D01*
X221634323Y-111208020D02*
X221729561Y-111255639D01*
X221729561Y-111255639D02*
X221824800Y-111350877D01*
X221824800Y-111350877D02*
X221872419Y-111493734D01*
X221872419Y-111493734D02*
X221872419Y-111731829D01*
X221872419Y-109969924D02*
X220872419Y-109969924D01*
X221872419Y-109493734D02*
X220872419Y-109493734D01*
X220872419Y-109493734D02*
X221872419Y-108922306D01*
X221872419Y-108922306D02*
X220872419Y-108922306D01*
D12*
X202738095Y-87454819D02*
X202738095Y-88264342D01*
X202738095Y-88264342D02*
X202785714Y-88359580D01*
X202785714Y-88359580D02*
X202833333Y-88407200D01*
X202833333Y-88407200D02*
X202928571Y-88454819D01*
X202928571Y-88454819D02*
X203119047Y-88454819D01*
X203119047Y-88454819D02*
X203214285Y-88407200D01*
X203214285Y-88407200D02*
X203261904Y-88359580D01*
X203261904Y-88359580D02*
X203309523Y-88264342D01*
X203309523Y-88264342D02*
X203309523Y-87454819D01*
X204214285Y-87788152D02*
X204214285Y-88454819D01*
X203976190Y-87407200D02*
X203738095Y-88121485D01*
X203738095Y-88121485D02*
X204357142Y-88121485D01*
X190738095Y-81454819D02*
X190738095Y-82264342D01*
X190738095Y-82264342D02*
X190785714Y-82359580D01*
X190785714Y-82359580D02*
X190833333Y-82407200D01*
X190833333Y-82407200D02*
X190928571Y-82454819D01*
X190928571Y-82454819D02*
X191119047Y-82454819D01*
X191119047Y-82454819D02*
X191214285Y-82407200D01*
X191214285Y-82407200D02*
X191261904Y-82359580D01*
X191261904Y-82359580D02*
X191309523Y-82264342D01*
X191309523Y-82264342D02*
X191309523Y-81454819D01*
X192309523Y-82454819D02*
X191738095Y-82454819D01*
X192023809Y-82454819D02*
X192023809Y-81454819D01*
X192023809Y-81454819D02*
X191928571Y-81597676D01*
X191928571Y-81597676D02*
X191833333Y-81692914D01*
X191833333Y-81692914D02*
X191738095Y-81740533D01*
X167609580Y-120566666D02*
X167657200Y-120614285D01*
X167657200Y-120614285D02*
X167704819Y-120757142D01*
X167704819Y-120757142D02*
X167704819Y-120852380D01*
X167704819Y-120852380D02*
X167657200Y-120995237D01*
X167657200Y-120995237D02*
X167561961Y-121090475D01*
X167561961Y-121090475D02*
X167466723Y-121138094D01*
X167466723Y-121138094D02*
X167276247Y-121185713D01*
X167276247Y-121185713D02*
X167133390Y-121185713D01*
X167133390Y-121185713D02*
X166942914Y-121138094D01*
X166942914Y-121138094D02*
X166847676Y-121090475D01*
X166847676Y-121090475D02*
X166752438Y-120995237D01*
X166752438Y-120995237D02*
X166704819Y-120852380D01*
X166704819Y-120852380D02*
X166704819Y-120757142D01*
X166704819Y-120757142D02*
X166752438Y-120614285D01*
X166752438Y-120614285D02*
X166800057Y-120566666D01*
X166704819Y-120233332D02*
X166704819Y-119614285D01*
X166704819Y-119614285D02*
X167085771Y-119947618D01*
X167085771Y-119947618D02*
X167085771Y-119804761D01*
X167085771Y-119804761D02*
X167133390Y-119709523D01*
X167133390Y-119709523D02*
X167181009Y-119661904D01*
X167181009Y-119661904D02*
X167276247Y-119614285D01*
X167276247Y-119614285D02*
X167514342Y-119614285D01*
X167514342Y-119614285D02*
X167609580Y-119661904D01*
X167609580Y-119661904D02*
X167657200Y-119709523D01*
X167657200Y-119709523D02*
X167704819Y-119804761D01*
X167704819Y-119804761D02*
X167704819Y-120090475D01*
X167704819Y-120090475D02*
X167657200Y-120185713D01*
X167657200Y-120185713D02*
X167609580Y-120233332D01*
X163109580Y-120566666D02*
X163157200Y-120614285D01*
X163157200Y-120614285D02*
X163204819Y-120757142D01*
X163204819Y-120757142D02*
X163204819Y-120852380D01*
X163204819Y-120852380D02*
X163157200Y-120995237D01*
X163157200Y-120995237D02*
X163061961Y-121090475D01*
X163061961Y-121090475D02*
X162966723Y-121138094D01*
X162966723Y-121138094D02*
X162776247Y-121185713D01*
X162776247Y-121185713D02*
X162633390Y-121185713D01*
X162633390Y-121185713D02*
X162442914Y-121138094D01*
X162442914Y-121138094D02*
X162347676Y-121090475D01*
X162347676Y-121090475D02*
X162252438Y-120995237D01*
X162252438Y-120995237D02*
X162204819Y-120852380D01*
X162204819Y-120852380D02*
X162204819Y-120757142D01*
X162204819Y-120757142D02*
X162252438Y-120614285D01*
X162252438Y-120614285D02*
X162300057Y-120566666D01*
X163204819Y-119614285D02*
X163204819Y-120185713D01*
X163204819Y-119899999D02*
X162204819Y-119899999D01*
X162204819Y-119899999D02*
X162347676Y-119995237D01*
X162347676Y-119995237D02*
X162442914Y-120090475D01*
X162442914Y-120090475D02*
X162490533Y-120185713D01*
X197833333Y-108859580D02*
X197785714Y-108907200D01*
X197785714Y-108907200D02*
X197642857Y-108954819D01*
X197642857Y-108954819D02*
X197547619Y-108954819D01*
X197547619Y-108954819D02*
X197404762Y-108907200D01*
X197404762Y-108907200D02*
X197309524Y-108811961D01*
X197309524Y-108811961D02*
X197261905Y-108716723D01*
X197261905Y-108716723D02*
X197214286Y-108526247D01*
X197214286Y-108526247D02*
X197214286Y-108383390D01*
X197214286Y-108383390D02*
X197261905Y-108192914D01*
X197261905Y-108192914D02*
X197309524Y-108097676D01*
X197309524Y-108097676D02*
X197404762Y-108002438D01*
X197404762Y-108002438D02*
X197547619Y-107954819D01*
X197547619Y-107954819D02*
X197642857Y-107954819D01*
X197642857Y-107954819D02*
X197785714Y-108002438D01*
X197785714Y-108002438D02*
X197833333Y-108050057D01*
X198404762Y-108383390D02*
X198309524Y-108335771D01*
X198309524Y-108335771D02*
X198261905Y-108288152D01*
X198261905Y-108288152D02*
X198214286Y-108192914D01*
X198214286Y-108192914D02*
X198214286Y-108145295D01*
X198214286Y-108145295D02*
X198261905Y-108050057D01*
X198261905Y-108050057D02*
X198309524Y-108002438D01*
X198309524Y-108002438D02*
X198404762Y-107954819D01*
X198404762Y-107954819D02*
X198595238Y-107954819D01*
X198595238Y-107954819D02*
X198690476Y-108002438D01*
X198690476Y-108002438D02*
X198738095Y-108050057D01*
X198738095Y-108050057D02*
X198785714Y-108145295D01*
X198785714Y-108145295D02*
X198785714Y-108192914D01*
X198785714Y-108192914D02*
X198738095Y-108288152D01*
X198738095Y-108288152D02*
X198690476Y-108335771D01*
X198690476Y-108335771D02*
X198595238Y-108383390D01*
X198595238Y-108383390D02*
X198404762Y-108383390D01*
X198404762Y-108383390D02*
X198309524Y-108431009D01*
X198309524Y-108431009D02*
X198261905Y-108478628D01*
X198261905Y-108478628D02*
X198214286Y-108573866D01*
X198214286Y-108573866D02*
X198214286Y-108764342D01*
X198214286Y-108764342D02*
X198261905Y-108859580D01*
X198261905Y-108859580D02*
X198309524Y-108907200D01*
X198309524Y-108907200D02*
X198404762Y-108954819D01*
X198404762Y-108954819D02*
X198595238Y-108954819D01*
X198595238Y-108954819D02*
X198690476Y-108907200D01*
X198690476Y-108907200D02*
X198738095Y-108859580D01*
X198738095Y-108859580D02*
X198785714Y-108764342D01*
X198785714Y-108764342D02*
X198785714Y-108573866D01*
X198785714Y-108573866D02*
X198738095Y-108478628D01*
X198738095Y-108478628D02*
X198690476Y-108431009D01*
X198690476Y-108431009D02*
X198595238Y-108383390D01*
X205666666Y-113704819D02*
X205666666Y-114419104D01*
X205666666Y-114419104D02*
X205619047Y-114561961D01*
X205619047Y-114561961D02*
X205523809Y-114657200D01*
X205523809Y-114657200D02*
X205380952Y-114704819D01*
X205380952Y-114704819D02*
X205285714Y-114704819D01*
X206619047Y-113704819D02*
X206142857Y-113704819D01*
X206142857Y-113704819D02*
X206095238Y-114181009D01*
X206095238Y-114181009D02*
X206142857Y-114133390D01*
X206142857Y-114133390D02*
X206238095Y-114085771D01*
X206238095Y-114085771D02*
X206476190Y-114085771D01*
X206476190Y-114085771D02*
X206571428Y-114133390D01*
X206571428Y-114133390D02*
X206619047Y-114181009D01*
X206619047Y-114181009D02*
X206666666Y-114276247D01*
X206666666Y-114276247D02*
X206666666Y-114514342D01*
X206666666Y-114514342D02*
X206619047Y-114609580D01*
X206619047Y-114609580D02*
X206571428Y-114657200D01*
X206571428Y-114657200D02*
X206476190Y-114704819D01*
X206476190Y-114704819D02*
X206238095Y-114704819D01*
X206238095Y-114704819D02*
X206142857Y-114657200D01*
X206142857Y-114657200D02*
X206095238Y-114609580D01*
X215166666Y-105204819D02*
X215166666Y-105919104D01*
X215166666Y-105919104D02*
X215119047Y-106061961D01*
X215119047Y-106061961D02*
X215023809Y-106157200D01*
X215023809Y-106157200D02*
X214880952Y-106204819D01*
X214880952Y-106204819D02*
X214785714Y-106204819D01*
X216071428Y-105204819D02*
X215880952Y-105204819D01*
X215880952Y-105204819D02*
X215785714Y-105252438D01*
X215785714Y-105252438D02*
X215738095Y-105300057D01*
X215738095Y-105300057D02*
X215642857Y-105442914D01*
X215642857Y-105442914D02*
X215595238Y-105633390D01*
X215595238Y-105633390D02*
X215595238Y-106014342D01*
X215595238Y-106014342D02*
X215642857Y-106109580D01*
X215642857Y-106109580D02*
X215690476Y-106157200D01*
X215690476Y-106157200D02*
X215785714Y-106204819D01*
X215785714Y-106204819D02*
X215976190Y-106204819D01*
X215976190Y-106204819D02*
X216071428Y-106157200D01*
X216071428Y-106157200D02*
X216119047Y-106109580D01*
X216119047Y-106109580D02*
X216166666Y-106014342D01*
X216166666Y-106014342D02*
X216166666Y-105776247D01*
X216166666Y-105776247D02*
X216119047Y-105681009D01*
X216119047Y-105681009D02*
X216071428Y-105633390D01*
X216071428Y-105633390D02*
X215976190Y-105585771D01*
X215976190Y-105585771D02*
X215785714Y-105585771D01*
X215785714Y-105585771D02*
X215690476Y-105633390D01*
X215690476Y-105633390D02*
X215642857Y-105681009D01*
X215642857Y-105681009D02*
X215595238Y-105776247D01*
X177083333Y-100859580D02*
X177035714Y-100907200D01*
X177035714Y-100907200D02*
X176892857Y-100954819D01*
X176892857Y-100954819D02*
X176797619Y-100954819D01*
X176797619Y-100954819D02*
X176654762Y-100907200D01*
X176654762Y-100907200D02*
X176559524Y-100811961D01*
X176559524Y-100811961D02*
X176511905Y-100716723D01*
X176511905Y-100716723D02*
X176464286Y-100526247D01*
X176464286Y-100526247D02*
X176464286Y-100383390D01*
X176464286Y-100383390D02*
X176511905Y-100192914D01*
X176511905Y-100192914D02*
X176559524Y-100097676D01*
X176559524Y-100097676D02*
X176654762Y-100002438D01*
X176654762Y-100002438D02*
X176797619Y-99954819D01*
X176797619Y-99954819D02*
X176892857Y-99954819D01*
X176892857Y-99954819D02*
X177035714Y-100002438D01*
X177035714Y-100002438D02*
X177083333Y-100050057D01*
X177559524Y-100954819D02*
X177750000Y-100954819D01*
X177750000Y-100954819D02*
X177845238Y-100907200D01*
X177845238Y-100907200D02*
X177892857Y-100859580D01*
X177892857Y-100859580D02*
X177988095Y-100716723D01*
X177988095Y-100716723D02*
X178035714Y-100526247D01*
X178035714Y-100526247D02*
X178035714Y-100145295D01*
X178035714Y-100145295D02*
X177988095Y-100050057D01*
X177988095Y-100050057D02*
X177940476Y-100002438D01*
X177940476Y-100002438D02*
X177845238Y-99954819D01*
X177845238Y-99954819D02*
X177654762Y-99954819D01*
X177654762Y-99954819D02*
X177559524Y-100002438D01*
X177559524Y-100002438D02*
X177511905Y-100050057D01*
X177511905Y-100050057D02*
X177464286Y-100145295D01*
X177464286Y-100145295D02*
X177464286Y-100383390D01*
X177464286Y-100383390D02*
X177511905Y-100478628D01*
X177511905Y-100478628D02*
X177559524Y-100526247D01*
X177559524Y-100526247D02*
X177654762Y-100573866D01*
X177654762Y-100573866D02*
X177845238Y-100573866D01*
X177845238Y-100573866D02*
X177940476Y-100526247D01*
X177940476Y-100526247D02*
X177988095Y-100478628D01*
X177988095Y-100478628D02*
X178035714Y-100383390D01*
X184704819Y-119166666D02*
X184228628Y-119499999D01*
X184704819Y-119738094D02*
X183704819Y-119738094D01*
X183704819Y-119738094D02*
X183704819Y-119357142D01*
X183704819Y-119357142D02*
X183752438Y-119261904D01*
X183752438Y-119261904D02*
X183800057Y-119214285D01*
X183800057Y-119214285D02*
X183895295Y-119166666D01*
X183895295Y-119166666D02*
X184038152Y-119166666D01*
X184038152Y-119166666D02*
X184133390Y-119214285D01*
X184133390Y-119214285D02*
X184181009Y-119261904D01*
X184181009Y-119261904D02*
X184228628Y-119357142D01*
X184228628Y-119357142D02*
X184228628Y-119738094D01*
X184038152Y-118309523D02*
X184704819Y-118309523D01*
X183657200Y-118547618D02*
X184371485Y-118785713D01*
X184371485Y-118785713D02*
X184371485Y-118166666D01*
X189357142Y-101359580D02*
X189309523Y-101407200D01*
X189309523Y-101407200D02*
X189166666Y-101454819D01*
X189166666Y-101454819D02*
X189071428Y-101454819D01*
X189071428Y-101454819D02*
X188928571Y-101407200D01*
X188928571Y-101407200D02*
X188833333Y-101311961D01*
X188833333Y-101311961D02*
X188785714Y-101216723D01*
X188785714Y-101216723D02*
X188738095Y-101026247D01*
X188738095Y-101026247D02*
X188738095Y-100883390D01*
X188738095Y-100883390D02*
X188785714Y-100692914D01*
X188785714Y-100692914D02*
X188833333Y-100597676D01*
X188833333Y-100597676D02*
X188928571Y-100502438D01*
X188928571Y-100502438D02*
X189071428Y-100454819D01*
X189071428Y-100454819D02*
X189166666Y-100454819D01*
X189166666Y-100454819D02*
X189309523Y-100502438D01*
X189309523Y-100502438D02*
X189357142Y-100550057D01*
X190309523Y-101454819D02*
X189738095Y-101454819D01*
X190023809Y-101454819D02*
X190023809Y-100454819D01*
X190023809Y-100454819D02*
X189928571Y-100597676D01*
X189928571Y-100597676D02*
X189833333Y-100692914D01*
X189833333Y-100692914D02*
X189738095Y-100740533D01*
X191166666Y-100788152D02*
X191166666Y-101454819D01*
X190928571Y-100407200D02*
X190690476Y-101121485D01*
X190690476Y-101121485D02*
X191309523Y-101121485D01*
X182333333Y-103454819D02*
X181857143Y-103454819D01*
X181857143Y-103454819D02*
X181857143Y-102454819D01*
X183190476Y-103454819D02*
X182619048Y-103454819D01*
X182904762Y-103454819D02*
X182904762Y-102454819D01*
X182904762Y-102454819D02*
X182809524Y-102597676D01*
X182809524Y-102597676D02*
X182714286Y-102692914D01*
X182714286Y-102692914D02*
X182619048Y-102740533D01*
X165359580Y-120566666D02*
X165407200Y-120614285D01*
X165407200Y-120614285D02*
X165454819Y-120757142D01*
X165454819Y-120757142D02*
X165454819Y-120852380D01*
X165454819Y-120852380D02*
X165407200Y-120995237D01*
X165407200Y-120995237D02*
X165311961Y-121090475D01*
X165311961Y-121090475D02*
X165216723Y-121138094D01*
X165216723Y-121138094D02*
X165026247Y-121185713D01*
X165026247Y-121185713D02*
X164883390Y-121185713D01*
X164883390Y-121185713D02*
X164692914Y-121138094D01*
X164692914Y-121138094D02*
X164597676Y-121090475D01*
X164597676Y-121090475D02*
X164502438Y-120995237D01*
X164502438Y-120995237D02*
X164454819Y-120852380D01*
X164454819Y-120852380D02*
X164454819Y-120757142D01*
X164454819Y-120757142D02*
X164502438Y-120614285D01*
X164502438Y-120614285D02*
X164550057Y-120566666D01*
X164550057Y-120185713D02*
X164502438Y-120138094D01*
X164502438Y-120138094D02*
X164454819Y-120042856D01*
X164454819Y-120042856D02*
X164454819Y-119804761D01*
X164454819Y-119804761D02*
X164502438Y-119709523D01*
X164502438Y-119709523D02*
X164550057Y-119661904D01*
X164550057Y-119661904D02*
X164645295Y-119614285D01*
X164645295Y-119614285D02*
X164740533Y-119614285D01*
X164740533Y-119614285D02*
X164883390Y-119661904D01*
X164883390Y-119661904D02*
X165454819Y-120233332D01*
X165454819Y-120233332D02*
X165454819Y-119614285D01*
X181638095Y-96434819D02*
X181638095Y-97244342D01*
X181638095Y-97244342D02*
X181685714Y-97339580D01*
X181685714Y-97339580D02*
X181733333Y-97387200D01*
X181733333Y-97387200D02*
X181828571Y-97434819D01*
X181828571Y-97434819D02*
X182019047Y-97434819D01*
X182019047Y-97434819D02*
X182114285Y-97387200D01*
X182114285Y-97387200D02*
X182161904Y-97339580D01*
X182161904Y-97339580D02*
X182209523Y-97244342D01*
X182209523Y-97244342D02*
X182209523Y-96434819D01*
X182590476Y-96434819D02*
X183209523Y-96434819D01*
X183209523Y-96434819D02*
X182876190Y-96815771D01*
X182876190Y-96815771D02*
X183019047Y-96815771D01*
X183019047Y-96815771D02*
X183114285Y-96863390D01*
X183114285Y-96863390D02*
X183161904Y-96911009D01*
X183161904Y-96911009D02*
X183209523Y-97006247D01*
X183209523Y-97006247D02*
X183209523Y-97244342D01*
X183209523Y-97244342D02*
X183161904Y-97339580D01*
X183161904Y-97339580D02*
X183114285Y-97387200D01*
X183114285Y-97387200D02*
X183019047Y-97434819D01*
X183019047Y-97434819D02*
X182733333Y-97434819D01*
X182733333Y-97434819D02*
X182638095Y-97387200D01*
X182638095Y-97387200D02*
X182590476Y-97339580D01*
X174083333Y-121609580D02*
X174035714Y-121657200D01*
X174035714Y-121657200D02*
X173892857Y-121704819D01*
X173892857Y-121704819D02*
X173797619Y-121704819D01*
X173797619Y-121704819D02*
X173654762Y-121657200D01*
X173654762Y-121657200D02*
X173559524Y-121561961D01*
X173559524Y-121561961D02*
X173511905Y-121466723D01*
X173511905Y-121466723D02*
X173464286Y-121276247D01*
X173464286Y-121276247D02*
X173464286Y-121133390D01*
X173464286Y-121133390D02*
X173511905Y-120942914D01*
X173511905Y-120942914D02*
X173559524Y-120847676D01*
X173559524Y-120847676D02*
X173654762Y-120752438D01*
X173654762Y-120752438D02*
X173797619Y-120704819D01*
X173797619Y-120704819D02*
X173892857Y-120704819D01*
X173892857Y-120704819D02*
X174035714Y-120752438D01*
X174035714Y-120752438D02*
X174083333Y-120800057D01*
X174940476Y-121038152D02*
X174940476Y-121704819D01*
X174702381Y-120657200D02*
X174464286Y-121371485D01*
X174464286Y-121371485D02*
X175083333Y-121371485D01*
X167551666Y-61209819D02*
X167551666Y-61924104D01*
X167551666Y-61924104D02*
X167504047Y-62066961D01*
X167504047Y-62066961D02*
X167408809Y-62162200D01*
X167408809Y-62162200D02*
X167265952Y-62209819D01*
X167265952Y-62209819D02*
X167170714Y-62209819D01*
X168075476Y-62209819D02*
X168265952Y-62209819D01*
X168265952Y-62209819D02*
X168361190Y-62162200D01*
X168361190Y-62162200D02*
X168408809Y-62114580D01*
X168408809Y-62114580D02*
X168504047Y-61971723D01*
X168504047Y-61971723D02*
X168551666Y-61781247D01*
X168551666Y-61781247D02*
X168551666Y-61400295D01*
X168551666Y-61400295D02*
X168504047Y-61305057D01*
X168504047Y-61305057D02*
X168456428Y-61257438D01*
X168456428Y-61257438D02*
X168361190Y-61209819D01*
X168361190Y-61209819D02*
X168170714Y-61209819D01*
X168170714Y-61209819D02*
X168075476Y-61257438D01*
X168075476Y-61257438D02*
X168027857Y-61305057D01*
X168027857Y-61305057D02*
X167980238Y-61400295D01*
X167980238Y-61400295D02*
X167980238Y-61638390D01*
X167980238Y-61638390D02*
X168027857Y-61733628D01*
X168027857Y-61733628D02*
X168075476Y-61781247D01*
X168075476Y-61781247D02*
X168170714Y-61828866D01*
X168170714Y-61828866D02*
X168361190Y-61828866D01*
X168361190Y-61828866D02*
X168456428Y-61781247D01*
X168456428Y-61781247D02*
X168504047Y-61733628D01*
X168504047Y-61733628D02*
X168551666Y-61638390D01*
X187859580Y-97642857D02*
X187907200Y-97690476D01*
X187907200Y-97690476D02*
X187954819Y-97833333D01*
X187954819Y-97833333D02*
X187954819Y-97928571D01*
X187954819Y-97928571D02*
X187907200Y-98071428D01*
X187907200Y-98071428D02*
X187811961Y-98166666D01*
X187811961Y-98166666D02*
X187716723Y-98214285D01*
X187716723Y-98214285D02*
X187526247Y-98261904D01*
X187526247Y-98261904D02*
X187383390Y-98261904D01*
X187383390Y-98261904D02*
X187192914Y-98214285D01*
X187192914Y-98214285D02*
X187097676Y-98166666D01*
X187097676Y-98166666D02*
X187002438Y-98071428D01*
X187002438Y-98071428D02*
X186954819Y-97928571D01*
X186954819Y-97928571D02*
X186954819Y-97833333D01*
X186954819Y-97833333D02*
X187002438Y-97690476D01*
X187002438Y-97690476D02*
X187050057Y-97642857D01*
X187954819Y-96690476D02*
X187954819Y-97261904D01*
X187954819Y-96976190D02*
X186954819Y-96976190D01*
X186954819Y-96976190D02*
X187097676Y-97071428D01*
X187097676Y-97071428D02*
X187192914Y-97166666D01*
X187192914Y-97166666D02*
X187240533Y-97261904D01*
X187050057Y-96309523D02*
X187002438Y-96261904D01*
X187002438Y-96261904D02*
X186954819Y-96166666D01*
X186954819Y-96166666D02*
X186954819Y-95928571D01*
X186954819Y-95928571D02*
X187002438Y-95833333D01*
X187002438Y-95833333D02*
X187050057Y-95785714D01*
X187050057Y-95785714D02*
X187145295Y-95738095D01*
X187145295Y-95738095D02*
X187240533Y-95738095D01*
X187240533Y-95738095D02*
X187383390Y-95785714D01*
X187383390Y-95785714D02*
X187954819Y-96357142D01*
X187954819Y-96357142D02*
X187954819Y-95738095D01*
X185859580Y-99392857D02*
X185907200Y-99440476D01*
X185907200Y-99440476D02*
X185954819Y-99583333D01*
X185954819Y-99583333D02*
X185954819Y-99678571D01*
X185954819Y-99678571D02*
X185907200Y-99821428D01*
X185907200Y-99821428D02*
X185811961Y-99916666D01*
X185811961Y-99916666D02*
X185716723Y-99964285D01*
X185716723Y-99964285D02*
X185526247Y-100011904D01*
X185526247Y-100011904D02*
X185383390Y-100011904D01*
X185383390Y-100011904D02*
X185192914Y-99964285D01*
X185192914Y-99964285D02*
X185097676Y-99916666D01*
X185097676Y-99916666D02*
X185002438Y-99821428D01*
X185002438Y-99821428D02*
X184954819Y-99678571D01*
X184954819Y-99678571D02*
X184954819Y-99583333D01*
X184954819Y-99583333D02*
X185002438Y-99440476D01*
X185002438Y-99440476D02*
X185050057Y-99392857D01*
X185954819Y-98440476D02*
X185954819Y-99011904D01*
X185954819Y-98726190D02*
X184954819Y-98726190D01*
X184954819Y-98726190D02*
X185097676Y-98821428D01*
X185097676Y-98821428D02*
X185192914Y-98916666D01*
X185192914Y-98916666D02*
X185240533Y-99011904D01*
X185954819Y-97488095D02*
X185954819Y-98059523D01*
X185954819Y-97773809D02*
X184954819Y-97773809D01*
X184954819Y-97773809D02*
X185097676Y-97869047D01*
X185097676Y-97869047D02*
X185192914Y-97964285D01*
X185192914Y-97964285D02*
X185240533Y-98059523D01*
X167666666Y-85074819D02*
X167666666Y-85789104D01*
X167666666Y-85789104D02*
X167619047Y-85931961D01*
X167619047Y-85931961D02*
X167523809Y-86027200D01*
X167523809Y-86027200D02*
X167380952Y-86074819D01*
X167380952Y-86074819D02*
X167285714Y-86074819D01*
X168047619Y-85074819D02*
X168714285Y-85074819D01*
X168714285Y-85074819D02*
X168285714Y-86074819D01*
X160107142Y-105359580D02*
X160059523Y-105407200D01*
X160059523Y-105407200D02*
X159916666Y-105454819D01*
X159916666Y-105454819D02*
X159821428Y-105454819D01*
X159821428Y-105454819D02*
X159678571Y-105407200D01*
X159678571Y-105407200D02*
X159583333Y-105311961D01*
X159583333Y-105311961D02*
X159535714Y-105216723D01*
X159535714Y-105216723D02*
X159488095Y-105026247D01*
X159488095Y-105026247D02*
X159488095Y-104883390D01*
X159488095Y-104883390D02*
X159535714Y-104692914D01*
X159535714Y-104692914D02*
X159583333Y-104597676D01*
X159583333Y-104597676D02*
X159678571Y-104502438D01*
X159678571Y-104502438D02*
X159821428Y-104454819D01*
X159821428Y-104454819D02*
X159916666Y-104454819D01*
X159916666Y-104454819D02*
X160059523Y-104502438D01*
X160059523Y-104502438D02*
X160107142Y-104550057D01*
X161059523Y-105454819D02*
X160488095Y-105454819D01*
X160773809Y-105454819D02*
X160773809Y-104454819D01*
X160773809Y-104454819D02*
X160678571Y-104597676D01*
X160678571Y-104597676D02*
X160583333Y-104692914D01*
X160583333Y-104692914D02*
X160488095Y-104740533D01*
X161535714Y-105454819D02*
X161726190Y-105454819D01*
X161726190Y-105454819D02*
X161821428Y-105407200D01*
X161821428Y-105407200D02*
X161869047Y-105359580D01*
X161869047Y-105359580D02*
X161964285Y-105216723D01*
X161964285Y-105216723D02*
X162011904Y-105026247D01*
X162011904Y-105026247D02*
X162011904Y-104645295D01*
X162011904Y-104645295D02*
X161964285Y-104550057D01*
X161964285Y-104550057D02*
X161916666Y-104502438D01*
X161916666Y-104502438D02*
X161821428Y-104454819D01*
X161821428Y-104454819D02*
X161630952Y-104454819D01*
X161630952Y-104454819D02*
X161535714Y-104502438D01*
X161535714Y-104502438D02*
X161488095Y-104550057D01*
X161488095Y-104550057D02*
X161440476Y-104645295D01*
X161440476Y-104645295D02*
X161440476Y-104883390D01*
X161440476Y-104883390D02*
X161488095Y-104978628D01*
X161488095Y-104978628D02*
X161535714Y-105026247D01*
X161535714Y-105026247D02*
X161630952Y-105073866D01*
X161630952Y-105073866D02*
X161821428Y-105073866D01*
X161821428Y-105073866D02*
X161916666Y-105026247D01*
X161916666Y-105026247D02*
X161964285Y-104978628D01*
X161964285Y-104978628D02*
X162011904Y-104883390D01*
X209988095Y-87454819D02*
X209988095Y-88264342D01*
X209988095Y-88264342D02*
X210035714Y-88359580D01*
X210035714Y-88359580D02*
X210083333Y-88407200D01*
X210083333Y-88407200D02*
X210178571Y-88454819D01*
X210178571Y-88454819D02*
X210369047Y-88454819D01*
X210369047Y-88454819D02*
X210464285Y-88407200D01*
X210464285Y-88407200D02*
X210511904Y-88359580D01*
X210511904Y-88359580D02*
X210559523Y-88264342D01*
X210559523Y-88264342D02*
X210559523Y-87454819D01*
X211511904Y-87454819D02*
X211035714Y-87454819D01*
X211035714Y-87454819D02*
X210988095Y-87931009D01*
X210988095Y-87931009D02*
X211035714Y-87883390D01*
X211035714Y-87883390D02*
X211130952Y-87835771D01*
X211130952Y-87835771D02*
X211369047Y-87835771D01*
X211369047Y-87835771D02*
X211464285Y-87883390D01*
X211464285Y-87883390D02*
X211511904Y-87931009D01*
X211511904Y-87931009D02*
X211559523Y-88026247D01*
X211559523Y-88026247D02*
X211559523Y-88264342D01*
X211559523Y-88264342D02*
X211511904Y-88359580D01*
X211511904Y-88359580D02*
X211464285Y-88407200D01*
X211464285Y-88407200D02*
X211369047Y-88454819D01*
X211369047Y-88454819D02*
X211130952Y-88454819D01*
X211130952Y-88454819D02*
X211035714Y-88407200D01*
X211035714Y-88407200D02*
X210988095Y-88359580D01*
X183109580Y-80102857D02*
X183157200Y-80150476D01*
X183157200Y-80150476D02*
X183204819Y-80293333D01*
X183204819Y-80293333D02*
X183204819Y-80388571D01*
X183204819Y-80388571D02*
X183157200Y-80531428D01*
X183157200Y-80531428D02*
X183061961Y-80626666D01*
X183061961Y-80626666D02*
X182966723Y-80674285D01*
X182966723Y-80674285D02*
X182776247Y-80721904D01*
X182776247Y-80721904D02*
X182633390Y-80721904D01*
X182633390Y-80721904D02*
X182442914Y-80674285D01*
X182442914Y-80674285D02*
X182347676Y-80626666D01*
X182347676Y-80626666D02*
X182252438Y-80531428D01*
X182252438Y-80531428D02*
X182204819Y-80388571D01*
X182204819Y-80388571D02*
X182204819Y-80293333D01*
X182204819Y-80293333D02*
X182252438Y-80150476D01*
X182252438Y-80150476D02*
X182300057Y-80102857D01*
X183204819Y-79150476D02*
X183204819Y-79721904D01*
X183204819Y-79436190D02*
X182204819Y-79436190D01*
X182204819Y-79436190D02*
X182347676Y-79531428D01*
X182347676Y-79531428D02*
X182442914Y-79626666D01*
X182442914Y-79626666D02*
X182490533Y-79721904D01*
X182204819Y-78293333D02*
X182204819Y-78483809D01*
X182204819Y-78483809D02*
X182252438Y-78579047D01*
X182252438Y-78579047D02*
X182300057Y-78626666D01*
X182300057Y-78626666D02*
X182442914Y-78721904D01*
X182442914Y-78721904D02*
X182633390Y-78769523D01*
X182633390Y-78769523D02*
X183014342Y-78769523D01*
X183014342Y-78769523D02*
X183109580Y-78721904D01*
X183109580Y-78721904D02*
X183157200Y-78674285D01*
X183157200Y-78674285D02*
X183204819Y-78579047D01*
X183204819Y-78579047D02*
X183204819Y-78388571D01*
X183204819Y-78388571D02*
X183157200Y-78293333D01*
X183157200Y-78293333D02*
X183109580Y-78245714D01*
X183109580Y-78245714D02*
X183014342Y-78198095D01*
X183014342Y-78198095D02*
X182776247Y-78198095D01*
X182776247Y-78198095D02*
X182681009Y-78245714D01*
X182681009Y-78245714D02*
X182633390Y-78293333D01*
X182633390Y-78293333D02*
X182585771Y-78388571D01*
X182585771Y-78388571D02*
X182585771Y-78579047D01*
X182585771Y-78579047D02*
X182633390Y-78674285D01*
X182633390Y-78674285D02*
X182681009Y-78721904D01*
X182681009Y-78721904D02*
X182776247Y-78769523D01*
X197783333Y-111359580D02*
X197735714Y-111407200D01*
X197735714Y-111407200D02*
X197592857Y-111454819D01*
X197592857Y-111454819D02*
X197497619Y-111454819D01*
X197497619Y-111454819D02*
X197354762Y-111407200D01*
X197354762Y-111407200D02*
X197259524Y-111311961D01*
X197259524Y-111311961D02*
X197211905Y-111216723D01*
X197211905Y-111216723D02*
X197164286Y-111026247D01*
X197164286Y-111026247D02*
X197164286Y-110883390D01*
X197164286Y-110883390D02*
X197211905Y-110692914D01*
X197211905Y-110692914D02*
X197259524Y-110597676D01*
X197259524Y-110597676D02*
X197354762Y-110502438D01*
X197354762Y-110502438D02*
X197497619Y-110454819D01*
X197497619Y-110454819D02*
X197592857Y-110454819D01*
X197592857Y-110454819D02*
X197735714Y-110502438D01*
X197735714Y-110502438D02*
X197783333Y-110550057D01*
X198116667Y-110454819D02*
X198783333Y-110454819D01*
X198783333Y-110454819D02*
X198354762Y-111454819D01*
X207107142Y-63609580D02*
X207059523Y-63657200D01*
X207059523Y-63657200D02*
X206916666Y-63704819D01*
X206916666Y-63704819D02*
X206821428Y-63704819D01*
X206821428Y-63704819D02*
X206678571Y-63657200D01*
X206678571Y-63657200D02*
X206583333Y-63561961D01*
X206583333Y-63561961D02*
X206535714Y-63466723D01*
X206535714Y-63466723D02*
X206488095Y-63276247D01*
X206488095Y-63276247D02*
X206488095Y-63133390D01*
X206488095Y-63133390D02*
X206535714Y-62942914D01*
X206535714Y-62942914D02*
X206583333Y-62847676D01*
X206583333Y-62847676D02*
X206678571Y-62752438D01*
X206678571Y-62752438D02*
X206821428Y-62704819D01*
X206821428Y-62704819D02*
X206916666Y-62704819D01*
X206916666Y-62704819D02*
X207059523Y-62752438D01*
X207059523Y-62752438D02*
X207107142Y-62800057D01*
X208059523Y-63704819D02*
X207488095Y-63704819D01*
X207773809Y-63704819D02*
X207773809Y-62704819D01*
X207773809Y-62704819D02*
X207678571Y-62847676D01*
X207678571Y-62847676D02*
X207583333Y-62942914D01*
X207583333Y-62942914D02*
X207488095Y-62990533D01*
X208392857Y-62704819D02*
X209059523Y-62704819D01*
X209059523Y-62704819D02*
X208630952Y-63704819D01*
X167238095Y-112454819D02*
X167238095Y-113264342D01*
X167238095Y-113264342D02*
X167285714Y-113359580D01*
X167285714Y-113359580D02*
X167333333Y-113407200D01*
X167333333Y-113407200D02*
X167428571Y-113454819D01*
X167428571Y-113454819D02*
X167619047Y-113454819D01*
X167619047Y-113454819D02*
X167714285Y-113407200D01*
X167714285Y-113407200D02*
X167761904Y-113359580D01*
X167761904Y-113359580D02*
X167809523Y-113264342D01*
X167809523Y-113264342D02*
X167809523Y-112454819D01*
X168238095Y-112550057D02*
X168285714Y-112502438D01*
X168285714Y-112502438D02*
X168380952Y-112454819D01*
X168380952Y-112454819D02*
X168619047Y-112454819D01*
X168619047Y-112454819D02*
X168714285Y-112502438D01*
X168714285Y-112502438D02*
X168761904Y-112550057D01*
X168761904Y-112550057D02*
X168809523Y-112645295D01*
X168809523Y-112645295D02*
X168809523Y-112740533D01*
X168809523Y-112740533D02*
X168761904Y-112883390D01*
X168761904Y-112883390D02*
X168190476Y-113454819D01*
X168190476Y-113454819D02*
X168809523Y-113454819D01*
X189359580Y-97662857D02*
X189407200Y-97710476D01*
X189407200Y-97710476D02*
X189454819Y-97853333D01*
X189454819Y-97853333D02*
X189454819Y-97948571D01*
X189454819Y-97948571D02*
X189407200Y-98091428D01*
X189407200Y-98091428D02*
X189311961Y-98186666D01*
X189311961Y-98186666D02*
X189216723Y-98234285D01*
X189216723Y-98234285D02*
X189026247Y-98281904D01*
X189026247Y-98281904D02*
X188883390Y-98281904D01*
X188883390Y-98281904D02*
X188692914Y-98234285D01*
X188692914Y-98234285D02*
X188597676Y-98186666D01*
X188597676Y-98186666D02*
X188502438Y-98091428D01*
X188502438Y-98091428D02*
X188454819Y-97948571D01*
X188454819Y-97948571D02*
X188454819Y-97853333D01*
X188454819Y-97853333D02*
X188502438Y-97710476D01*
X188502438Y-97710476D02*
X188550057Y-97662857D01*
X189454819Y-96710476D02*
X189454819Y-97281904D01*
X189454819Y-96996190D02*
X188454819Y-96996190D01*
X188454819Y-96996190D02*
X188597676Y-97091428D01*
X188597676Y-97091428D02*
X188692914Y-97186666D01*
X188692914Y-97186666D02*
X188740533Y-97281904D01*
X188454819Y-96377142D02*
X188454819Y-95758095D01*
X188454819Y-95758095D02*
X188835771Y-96091428D01*
X188835771Y-96091428D02*
X188835771Y-95948571D01*
X188835771Y-95948571D02*
X188883390Y-95853333D01*
X188883390Y-95853333D02*
X188931009Y-95805714D01*
X188931009Y-95805714D02*
X189026247Y-95758095D01*
X189026247Y-95758095D02*
X189264342Y-95758095D01*
X189264342Y-95758095D02*
X189359580Y-95805714D01*
X189359580Y-95805714D02*
X189407200Y-95853333D01*
X189407200Y-95853333D02*
X189454819Y-95948571D01*
X189454819Y-95948571D02*
X189454819Y-96234285D01*
X189454819Y-96234285D02*
X189407200Y-96329523D01*
X189407200Y-96329523D02*
X189359580Y-96377142D01*
X173627142Y-94359580D02*
X173579523Y-94407200D01*
X173579523Y-94407200D02*
X173436666Y-94454819D01*
X173436666Y-94454819D02*
X173341428Y-94454819D01*
X173341428Y-94454819D02*
X173198571Y-94407200D01*
X173198571Y-94407200D02*
X173103333Y-94311961D01*
X173103333Y-94311961D02*
X173055714Y-94216723D01*
X173055714Y-94216723D02*
X173008095Y-94026247D01*
X173008095Y-94026247D02*
X173008095Y-93883390D01*
X173008095Y-93883390D02*
X173055714Y-93692914D01*
X173055714Y-93692914D02*
X173103333Y-93597676D01*
X173103333Y-93597676D02*
X173198571Y-93502438D01*
X173198571Y-93502438D02*
X173341428Y-93454819D01*
X173341428Y-93454819D02*
X173436666Y-93454819D01*
X173436666Y-93454819D02*
X173579523Y-93502438D01*
X173579523Y-93502438D02*
X173627142Y-93550057D01*
X174579523Y-94454819D02*
X174008095Y-94454819D01*
X174293809Y-94454819D02*
X174293809Y-93454819D01*
X174293809Y-93454819D02*
X174198571Y-93597676D01*
X174198571Y-93597676D02*
X174103333Y-93692914D01*
X174103333Y-93692914D02*
X174008095Y-93740533D01*
X175198571Y-93454819D02*
X175293809Y-93454819D01*
X175293809Y-93454819D02*
X175389047Y-93502438D01*
X175389047Y-93502438D02*
X175436666Y-93550057D01*
X175436666Y-93550057D02*
X175484285Y-93645295D01*
X175484285Y-93645295D02*
X175531904Y-93835771D01*
X175531904Y-93835771D02*
X175531904Y-94073866D01*
X175531904Y-94073866D02*
X175484285Y-94264342D01*
X175484285Y-94264342D02*
X175436666Y-94359580D01*
X175436666Y-94359580D02*
X175389047Y-94407200D01*
X175389047Y-94407200D02*
X175293809Y-94454819D01*
X175293809Y-94454819D02*
X175198571Y-94454819D01*
X175198571Y-94454819D02*
X175103333Y-94407200D01*
X175103333Y-94407200D02*
X175055714Y-94359580D01*
X175055714Y-94359580D02*
X175008095Y-94264342D01*
X175008095Y-94264342D02*
X174960476Y-94073866D01*
X174960476Y-94073866D02*
X174960476Y-93835771D01*
X174960476Y-93835771D02*
X175008095Y-93645295D01*
X175008095Y-93645295D02*
X175055714Y-93550057D01*
X175055714Y-93550057D02*
X175103333Y-93502438D01*
X175103333Y-93502438D02*
X175198571Y-93454819D01*
X167666666Y-73574819D02*
X167666666Y-74289104D01*
X167666666Y-74289104D02*
X167619047Y-74431961D01*
X167619047Y-74431961D02*
X167523809Y-74527200D01*
X167523809Y-74527200D02*
X167380952Y-74574819D01*
X167380952Y-74574819D02*
X167285714Y-74574819D01*
X168285714Y-74003390D02*
X168190476Y-73955771D01*
X168190476Y-73955771D02*
X168142857Y-73908152D01*
X168142857Y-73908152D02*
X168095238Y-73812914D01*
X168095238Y-73812914D02*
X168095238Y-73765295D01*
X168095238Y-73765295D02*
X168142857Y-73670057D01*
X168142857Y-73670057D02*
X168190476Y-73622438D01*
X168190476Y-73622438D02*
X168285714Y-73574819D01*
X168285714Y-73574819D02*
X168476190Y-73574819D01*
X168476190Y-73574819D02*
X168571428Y-73622438D01*
X168571428Y-73622438D02*
X168619047Y-73670057D01*
X168619047Y-73670057D02*
X168666666Y-73765295D01*
X168666666Y-73765295D02*
X168666666Y-73812914D01*
X168666666Y-73812914D02*
X168619047Y-73908152D01*
X168619047Y-73908152D02*
X168571428Y-73955771D01*
X168571428Y-73955771D02*
X168476190Y-74003390D01*
X168476190Y-74003390D02*
X168285714Y-74003390D01*
X168285714Y-74003390D02*
X168190476Y-74051009D01*
X168190476Y-74051009D02*
X168142857Y-74098628D01*
X168142857Y-74098628D02*
X168095238Y-74193866D01*
X168095238Y-74193866D02*
X168095238Y-74384342D01*
X168095238Y-74384342D02*
X168142857Y-74479580D01*
X168142857Y-74479580D02*
X168190476Y-74527200D01*
X168190476Y-74527200D02*
X168285714Y-74574819D01*
X168285714Y-74574819D02*
X168476190Y-74574819D01*
X168476190Y-74574819D02*
X168571428Y-74527200D01*
X168571428Y-74527200D02*
X168619047Y-74479580D01*
X168619047Y-74479580D02*
X168666666Y-74384342D01*
X168666666Y-74384342D02*
X168666666Y-74193866D01*
X168666666Y-74193866D02*
X168619047Y-74098628D01*
X168619047Y-74098628D02*
X168571428Y-74051009D01*
X168571428Y-74051009D02*
X168476190Y-74003390D01*
X215607142Y-72109580D02*
X215559523Y-72157200D01*
X215559523Y-72157200D02*
X215416666Y-72204819D01*
X215416666Y-72204819D02*
X215321428Y-72204819D01*
X215321428Y-72204819D02*
X215178571Y-72157200D01*
X215178571Y-72157200D02*
X215083333Y-72061961D01*
X215083333Y-72061961D02*
X215035714Y-71966723D01*
X215035714Y-71966723D02*
X214988095Y-71776247D01*
X214988095Y-71776247D02*
X214988095Y-71633390D01*
X214988095Y-71633390D02*
X215035714Y-71442914D01*
X215035714Y-71442914D02*
X215083333Y-71347676D01*
X215083333Y-71347676D02*
X215178571Y-71252438D01*
X215178571Y-71252438D02*
X215321428Y-71204819D01*
X215321428Y-71204819D02*
X215416666Y-71204819D01*
X215416666Y-71204819D02*
X215559523Y-71252438D01*
X215559523Y-71252438D02*
X215607142Y-71300057D01*
X216559523Y-72204819D02*
X215988095Y-72204819D01*
X216273809Y-72204819D02*
X216273809Y-71204819D01*
X216273809Y-71204819D02*
X216178571Y-71347676D01*
X216178571Y-71347676D02*
X216083333Y-71442914D01*
X216083333Y-71442914D02*
X215988095Y-71490533D01*
X217130952Y-71633390D02*
X217035714Y-71585771D01*
X217035714Y-71585771D02*
X216988095Y-71538152D01*
X216988095Y-71538152D02*
X216940476Y-71442914D01*
X216940476Y-71442914D02*
X216940476Y-71395295D01*
X216940476Y-71395295D02*
X216988095Y-71300057D01*
X216988095Y-71300057D02*
X217035714Y-71252438D01*
X217035714Y-71252438D02*
X217130952Y-71204819D01*
X217130952Y-71204819D02*
X217321428Y-71204819D01*
X217321428Y-71204819D02*
X217416666Y-71252438D01*
X217416666Y-71252438D02*
X217464285Y-71300057D01*
X217464285Y-71300057D02*
X217511904Y-71395295D01*
X217511904Y-71395295D02*
X217511904Y-71442914D01*
X217511904Y-71442914D02*
X217464285Y-71538152D01*
X217464285Y-71538152D02*
X217416666Y-71585771D01*
X217416666Y-71585771D02*
X217321428Y-71633390D01*
X217321428Y-71633390D02*
X217130952Y-71633390D01*
X217130952Y-71633390D02*
X217035714Y-71681009D01*
X217035714Y-71681009D02*
X216988095Y-71728628D01*
X216988095Y-71728628D02*
X216940476Y-71823866D01*
X216940476Y-71823866D02*
X216940476Y-72014342D01*
X216940476Y-72014342D02*
X216988095Y-72109580D01*
X216988095Y-72109580D02*
X217035714Y-72157200D01*
X217035714Y-72157200D02*
X217130952Y-72204819D01*
X217130952Y-72204819D02*
X217321428Y-72204819D01*
X217321428Y-72204819D02*
X217416666Y-72157200D01*
X217416666Y-72157200D02*
X217464285Y-72109580D01*
X217464285Y-72109580D02*
X217511904Y-72014342D01*
X217511904Y-72014342D02*
X217511904Y-71823866D01*
X217511904Y-71823866D02*
X217464285Y-71728628D01*
X217464285Y-71728628D02*
X217416666Y-71681009D01*
X217416666Y-71681009D02*
X217321428Y-71633390D01*
X172666666Y-53204819D02*
X172666666Y-53919104D01*
X172666666Y-53919104D02*
X172619047Y-54061961D01*
X172619047Y-54061961D02*
X172523809Y-54157200D01*
X172523809Y-54157200D02*
X172380952Y-54204819D01*
X172380952Y-54204819D02*
X172285714Y-54204819D01*
X173571428Y-53538152D02*
X173571428Y-54204819D01*
X173333333Y-53157200D02*
X173095238Y-53871485D01*
X173095238Y-53871485D02*
X173714285Y-53871485D01*
X179359580Y-113916666D02*
X179407200Y-113964285D01*
X179407200Y-113964285D02*
X179454819Y-114107142D01*
X179454819Y-114107142D02*
X179454819Y-114202380D01*
X179454819Y-114202380D02*
X179407200Y-114345237D01*
X179407200Y-114345237D02*
X179311961Y-114440475D01*
X179311961Y-114440475D02*
X179216723Y-114488094D01*
X179216723Y-114488094D02*
X179026247Y-114535713D01*
X179026247Y-114535713D02*
X178883390Y-114535713D01*
X178883390Y-114535713D02*
X178692914Y-114488094D01*
X178692914Y-114488094D02*
X178597676Y-114440475D01*
X178597676Y-114440475D02*
X178502438Y-114345237D01*
X178502438Y-114345237D02*
X178454819Y-114202380D01*
X178454819Y-114202380D02*
X178454819Y-114107142D01*
X178454819Y-114107142D02*
X178502438Y-113964285D01*
X178502438Y-113964285D02*
X178550057Y-113916666D01*
X178454819Y-113011904D02*
X178454819Y-113488094D01*
X178454819Y-113488094D02*
X178931009Y-113535713D01*
X178931009Y-113535713D02*
X178883390Y-113488094D01*
X178883390Y-113488094D02*
X178835771Y-113392856D01*
X178835771Y-113392856D02*
X178835771Y-113154761D01*
X178835771Y-113154761D02*
X178883390Y-113059523D01*
X178883390Y-113059523D02*
X178931009Y-113011904D01*
X178931009Y-113011904D02*
X179026247Y-112964285D01*
X179026247Y-112964285D02*
X179264342Y-112964285D01*
X179264342Y-112964285D02*
X179359580Y-113011904D01*
X179359580Y-113011904D02*
X179407200Y-113059523D01*
X179407200Y-113059523D02*
X179454819Y-113154761D01*
X179454819Y-113154761D02*
X179454819Y-113392856D01*
X179454819Y-113392856D02*
X179407200Y-113488094D01*
X179407200Y-113488094D02*
X179359580Y-113535713D01*
X170109580Y-108646666D02*
X170157200Y-108694285D01*
X170157200Y-108694285D02*
X170204819Y-108837142D01*
X170204819Y-108837142D02*
X170204819Y-108932380D01*
X170204819Y-108932380D02*
X170157200Y-109075237D01*
X170157200Y-109075237D02*
X170061961Y-109170475D01*
X170061961Y-109170475D02*
X169966723Y-109218094D01*
X169966723Y-109218094D02*
X169776247Y-109265713D01*
X169776247Y-109265713D02*
X169633390Y-109265713D01*
X169633390Y-109265713D02*
X169442914Y-109218094D01*
X169442914Y-109218094D02*
X169347676Y-109170475D01*
X169347676Y-109170475D02*
X169252438Y-109075237D01*
X169252438Y-109075237D02*
X169204819Y-108932380D01*
X169204819Y-108932380D02*
X169204819Y-108837142D01*
X169204819Y-108837142D02*
X169252438Y-108694285D01*
X169252438Y-108694285D02*
X169300057Y-108646666D01*
X169204819Y-107789523D02*
X169204819Y-107979999D01*
X169204819Y-107979999D02*
X169252438Y-108075237D01*
X169252438Y-108075237D02*
X169300057Y-108122856D01*
X169300057Y-108122856D02*
X169442914Y-108218094D01*
X169442914Y-108218094D02*
X169633390Y-108265713D01*
X169633390Y-108265713D02*
X170014342Y-108265713D01*
X170014342Y-108265713D02*
X170109580Y-108218094D01*
X170109580Y-108218094D02*
X170157200Y-108170475D01*
X170157200Y-108170475D02*
X170204819Y-108075237D01*
X170204819Y-108075237D02*
X170204819Y-107884761D01*
X170204819Y-107884761D02*
X170157200Y-107789523D01*
X170157200Y-107789523D02*
X170109580Y-107741904D01*
X170109580Y-107741904D02*
X170014342Y-107694285D01*
X170014342Y-107694285D02*
X169776247Y-107694285D01*
X169776247Y-107694285D02*
X169681009Y-107741904D01*
X169681009Y-107741904D02*
X169633390Y-107789523D01*
X169633390Y-107789523D02*
X169585771Y-107884761D01*
X169585771Y-107884761D02*
X169585771Y-108075237D01*
X169585771Y-108075237D02*
X169633390Y-108170475D01*
X169633390Y-108170475D02*
X169681009Y-108218094D01*
X169681009Y-108218094D02*
X169776247Y-108265713D01*
X172011905Y-103454819D02*
X172011905Y-102454819D01*
X172011905Y-102454819D02*
X172250000Y-102454819D01*
X172250000Y-102454819D02*
X172392857Y-102502438D01*
X172392857Y-102502438D02*
X172488095Y-102597676D01*
X172488095Y-102597676D02*
X172535714Y-102692914D01*
X172535714Y-102692914D02*
X172583333Y-102883390D01*
X172583333Y-102883390D02*
X172583333Y-103026247D01*
X172583333Y-103026247D02*
X172535714Y-103216723D01*
X172535714Y-103216723D02*
X172488095Y-103311961D01*
X172488095Y-103311961D02*
X172392857Y-103407200D01*
X172392857Y-103407200D02*
X172250000Y-103454819D01*
X172250000Y-103454819D02*
X172011905Y-103454819D01*
X173535714Y-103454819D02*
X172964286Y-103454819D01*
X173250000Y-103454819D02*
X173250000Y-102454819D01*
X173250000Y-102454819D02*
X173154762Y-102597676D01*
X173154762Y-102597676D02*
X173059524Y-102692914D01*
X173059524Y-102692914D02*
X172964286Y-102740533D01*
X225916666Y-106954819D02*
X225916666Y-107669104D01*
X225916666Y-107669104D02*
X225869047Y-107811961D01*
X225869047Y-107811961D02*
X225773809Y-107907200D01*
X225773809Y-107907200D02*
X225630952Y-107954819D01*
X225630952Y-107954819D02*
X225535714Y-107954819D01*
X226297619Y-106954819D02*
X226916666Y-106954819D01*
X226916666Y-106954819D02*
X226583333Y-107335771D01*
X226583333Y-107335771D02*
X226726190Y-107335771D01*
X226726190Y-107335771D02*
X226821428Y-107383390D01*
X226821428Y-107383390D02*
X226869047Y-107431009D01*
X226869047Y-107431009D02*
X226916666Y-107526247D01*
X226916666Y-107526247D02*
X226916666Y-107764342D01*
X226916666Y-107764342D02*
X226869047Y-107859580D01*
X226869047Y-107859580D02*
X226821428Y-107907200D01*
X226821428Y-107907200D02*
X226726190Y-107954819D01*
X226726190Y-107954819D02*
X226440476Y-107954819D01*
X226440476Y-107954819D02*
X226345238Y-107907200D01*
X226345238Y-107907200D02*
X226297619Y-107859580D01*
X153166666Y-72954819D02*
X153166666Y-73669104D01*
X153166666Y-73669104D02*
X153119047Y-73811961D01*
X153119047Y-73811961D02*
X153023809Y-73907200D01*
X153023809Y-73907200D02*
X152880952Y-73954819D01*
X152880952Y-73954819D02*
X152785714Y-73954819D01*
X154166666Y-73954819D02*
X153595238Y-73954819D01*
X153880952Y-73954819D02*
X153880952Y-72954819D01*
X153880952Y-72954819D02*
X153785714Y-73097676D01*
X153785714Y-73097676D02*
X153690476Y-73192914D01*
X153690476Y-73192914D02*
X153595238Y-73240533D01*
X172416666Y-126204819D02*
X172416666Y-126919104D01*
X172416666Y-126919104D02*
X172369047Y-127061961D01*
X172369047Y-127061961D02*
X172273809Y-127157200D01*
X172273809Y-127157200D02*
X172130952Y-127204819D01*
X172130952Y-127204819D02*
X172035714Y-127204819D01*
X172845238Y-126300057D02*
X172892857Y-126252438D01*
X172892857Y-126252438D02*
X172988095Y-126204819D01*
X172988095Y-126204819D02*
X173226190Y-126204819D01*
X173226190Y-126204819D02*
X173321428Y-126252438D01*
X173321428Y-126252438D02*
X173369047Y-126300057D01*
X173369047Y-126300057D02*
X173416666Y-126395295D01*
X173416666Y-126395295D02*
X173416666Y-126490533D01*
X173416666Y-126490533D02*
X173369047Y-126633390D01*
X173369047Y-126633390D02*
X172797619Y-127204819D01*
X172797619Y-127204819D02*
X173416666Y-127204819D01*
X179454819Y-116416666D02*
X178978628Y-116749999D01*
X179454819Y-116988094D02*
X178454819Y-116988094D01*
X178454819Y-116988094D02*
X178454819Y-116607142D01*
X178454819Y-116607142D02*
X178502438Y-116511904D01*
X178502438Y-116511904D02*
X178550057Y-116464285D01*
X178550057Y-116464285D02*
X178645295Y-116416666D01*
X178645295Y-116416666D02*
X178788152Y-116416666D01*
X178788152Y-116416666D02*
X178883390Y-116464285D01*
X178883390Y-116464285D02*
X178931009Y-116511904D01*
X178931009Y-116511904D02*
X178978628Y-116607142D01*
X178978628Y-116607142D02*
X178978628Y-116988094D01*
X178550057Y-116035713D02*
X178502438Y-115988094D01*
X178502438Y-115988094D02*
X178454819Y-115892856D01*
X178454819Y-115892856D02*
X178454819Y-115654761D01*
X178454819Y-115654761D02*
X178502438Y-115559523D01*
X178502438Y-115559523D02*
X178550057Y-115511904D01*
X178550057Y-115511904D02*
X178645295Y-115464285D01*
X178645295Y-115464285D02*
X178740533Y-115464285D01*
X178740533Y-115464285D02*
X178883390Y-115511904D01*
X178883390Y-115511904D02*
X179454819Y-116083332D01*
X179454819Y-116083332D02*
X179454819Y-115464285D01*
X192857142Y-101359580D02*
X192809523Y-101407200D01*
X192809523Y-101407200D02*
X192666666Y-101454819D01*
X192666666Y-101454819D02*
X192571428Y-101454819D01*
X192571428Y-101454819D02*
X192428571Y-101407200D01*
X192428571Y-101407200D02*
X192333333Y-101311961D01*
X192333333Y-101311961D02*
X192285714Y-101216723D01*
X192285714Y-101216723D02*
X192238095Y-101026247D01*
X192238095Y-101026247D02*
X192238095Y-100883390D01*
X192238095Y-100883390D02*
X192285714Y-100692914D01*
X192285714Y-100692914D02*
X192333333Y-100597676D01*
X192333333Y-100597676D02*
X192428571Y-100502438D01*
X192428571Y-100502438D02*
X192571428Y-100454819D01*
X192571428Y-100454819D02*
X192666666Y-100454819D01*
X192666666Y-100454819D02*
X192809523Y-100502438D01*
X192809523Y-100502438D02*
X192857142Y-100550057D01*
X193809523Y-101454819D02*
X193238095Y-101454819D01*
X193523809Y-101454819D02*
X193523809Y-100454819D01*
X193523809Y-100454819D02*
X193428571Y-100597676D01*
X193428571Y-100597676D02*
X193333333Y-100692914D01*
X193333333Y-100692914D02*
X193238095Y-100740533D01*
X194714285Y-100454819D02*
X194238095Y-100454819D01*
X194238095Y-100454819D02*
X194190476Y-100931009D01*
X194190476Y-100931009D02*
X194238095Y-100883390D01*
X194238095Y-100883390D02*
X194333333Y-100835771D01*
X194333333Y-100835771D02*
X194571428Y-100835771D01*
X194571428Y-100835771D02*
X194666666Y-100883390D01*
X194666666Y-100883390D02*
X194714285Y-100931009D01*
X194714285Y-100931009D02*
X194761904Y-101026247D01*
X194761904Y-101026247D02*
X194761904Y-101264342D01*
X194761904Y-101264342D02*
X194714285Y-101359580D01*
X194714285Y-101359580D02*
X194666666Y-101407200D01*
X194666666Y-101407200D02*
X194571428Y-101454819D01*
X194571428Y-101454819D02*
X194333333Y-101454819D01*
X194333333Y-101454819D02*
X194238095Y-101407200D01*
X194238095Y-101407200D02*
X194190476Y-101359580D01*
X194478628Y-96476190D02*
X194954819Y-96476190D01*
X193954819Y-96809523D02*
X194478628Y-96476190D01*
X194478628Y-96476190D02*
X193954819Y-96142857D01*
X194954819Y-95285714D02*
X194954819Y-95857142D01*
X194954819Y-95571428D02*
X193954819Y-95571428D01*
X193954819Y-95571428D02*
X194097676Y-95666666D01*
X194097676Y-95666666D02*
X194192914Y-95761904D01*
X194192914Y-95761904D02*
X194240533Y-95857142D01*
X170694819Y-120926666D02*
X170218628Y-121259999D01*
X170694819Y-121498094D02*
X169694819Y-121498094D01*
X169694819Y-121498094D02*
X169694819Y-121117142D01*
X169694819Y-121117142D02*
X169742438Y-121021904D01*
X169742438Y-121021904D02*
X169790057Y-120974285D01*
X169790057Y-120974285D02*
X169885295Y-120926666D01*
X169885295Y-120926666D02*
X170028152Y-120926666D01*
X170028152Y-120926666D02*
X170123390Y-120974285D01*
X170123390Y-120974285D02*
X170171009Y-121021904D01*
X170171009Y-121021904D02*
X170218628Y-121117142D01*
X170218628Y-121117142D02*
X170218628Y-121498094D01*
X170694819Y-119974285D02*
X170694819Y-120545713D01*
X170694819Y-120259999D02*
X169694819Y-120259999D01*
X169694819Y-120259999D02*
X169837676Y-120355237D01*
X169837676Y-120355237D02*
X169932914Y-120450475D01*
X169932914Y-120450475D02*
X169980533Y-120545713D01*
X184704819Y-116666666D02*
X184228628Y-116999999D01*
X184704819Y-117238094D02*
X183704819Y-117238094D01*
X183704819Y-117238094D02*
X183704819Y-116857142D01*
X183704819Y-116857142D02*
X183752438Y-116761904D01*
X183752438Y-116761904D02*
X183800057Y-116714285D01*
X183800057Y-116714285D02*
X183895295Y-116666666D01*
X183895295Y-116666666D02*
X184038152Y-116666666D01*
X184038152Y-116666666D02*
X184133390Y-116714285D01*
X184133390Y-116714285D02*
X184181009Y-116761904D01*
X184181009Y-116761904D02*
X184228628Y-116857142D01*
X184228628Y-116857142D02*
X184228628Y-117238094D01*
X183704819Y-116333332D02*
X183704819Y-115714285D01*
X183704819Y-115714285D02*
X184085771Y-116047618D01*
X184085771Y-116047618D02*
X184085771Y-115904761D01*
X184085771Y-115904761D02*
X184133390Y-115809523D01*
X184133390Y-115809523D02*
X184181009Y-115761904D01*
X184181009Y-115761904D02*
X184276247Y-115714285D01*
X184276247Y-115714285D02*
X184514342Y-115714285D01*
X184514342Y-115714285D02*
X184609580Y-115761904D01*
X184609580Y-115761904D02*
X184657200Y-115809523D01*
X184657200Y-115809523D02*
X184704819Y-115904761D01*
X184704819Y-115904761D02*
X184704819Y-116190475D01*
X184704819Y-116190475D02*
X184657200Y-116285713D01*
X184657200Y-116285713D02*
X184609580Y-116333332D01*
D13*
%TO.C,U4*%
X199140000Y-95172500D02*
X199140000Y-90552500D01*
X204610000Y-90552500D02*
X204610000Y-95172500D01*
X199835000Y-97052500D02*
X199355000Y-97052500D01*
X199595000Y-96722500D01*
X199835000Y-97052500D01*
G36*
X199835000Y-97052500D02*
G01*
X199355000Y-97052500D01*
X199595000Y-96722500D01*
X199835000Y-97052500D01*
G37*
%TO.C,U1*%
X185640000Y-84552500D02*
X186090000Y-84552500D01*
X185640000Y-85002500D02*
X185640000Y-84552500D01*
X185640000Y-91772500D02*
X185640000Y-91322500D01*
X186090000Y-91772500D02*
X185640000Y-91772500D01*
X192410000Y-84552500D02*
X192860000Y-84552500D01*
X192860000Y-84552500D02*
X192860000Y-85002500D01*
X192860000Y-91322500D02*
X192860000Y-91772500D01*
X192860000Y-91772500D02*
X192410000Y-91772500D01*
X186090000Y-92412500D02*
X185620000Y-92752500D01*
X185620000Y-92072500D01*
X186090000Y-92412500D01*
G36*
X186090000Y-92412500D02*
G01*
X185620000Y-92752500D01*
X185620000Y-92072500D01*
X186090000Y-92412500D01*
G37*
%TO.C,C3*%
X166515000Y-117188748D02*
X166515000Y-117711252D01*
X167985000Y-117188748D02*
X167985000Y-117711252D01*
%TO.C,C1*%
X162015000Y-117188748D02*
X162015000Y-117711252D01*
X163485000Y-117188748D02*
X163485000Y-117711252D01*
%TO.C,C8*%
X194738748Y-107765000D02*
X195261252Y-107765000D01*
X194738748Y-109235000D02*
X195261252Y-109235000D01*
%TO.C,J5*%
X205140000Y-115390000D02*
X205140000Y-116640000D01*
X205440000Y-117000000D02*
X206050000Y-117000000D01*
X205440000Y-118300000D02*
X206050000Y-118300000D01*
X206050000Y-116300000D02*
X206050000Y-119800000D01*
X206050000Y-119800000D02*
X212950000Y-119800000D01*
X206390000Y-115390000D02*
X205140000Y-115390000D01*
X206900000Y-115490000D02*
X206900000Y-115690000D01*
X207200000Y-115490000D02*
X206900000Y-115490000D01*
X207200000Y-115590000D02*
X206900000Y-115590000D01*
X207200000Y-115690000D02*
X207200000Y-115490000D01*
X208000000Y-115690000D02*
X208000000Y-116300000D01*
X208000000Y-116300000D02*
X206050000Y-116300000D01*
X208400000Y-119300000D02*
X208600000Y-119300000D01*
X208400000Y-119800000D02*
X208400000Y-119300000D01*
X208500000Y-119800000D02*
X208500000Y-119300000D01*
X208600000Y-119300000D02*
X208600000Y-119800000D01*
X210400000Y-119300000D02*
X210600000Y-119300000D01*
X210400000Y-119800000D02*
X210400000Y-119300000D01*
X210500000Y-119800000D02*
X210500000Y-119300000D01*
X210600000Y-119300000D02*
X210600000Y-119800000D01*
X211000000Y-116300000D02*
X211000000Y-115690000D01*
X212950000Y-116300000D02*
X211000000Y-116300000D01*
X212950000Y-119800000D02*
X212950000Y-116300000D01*
X213560000Y-117000000D02*
X212950000Y-117000000D01*
X213560000Y-118300000D02*
X212950000Y-118300000D01*
X205440000Y-115690000D02*
X213560000Y-115690000D01*
X213560000Y-120410000D01*
X205440000Y-120410000D01*
X205440000Y-115690000D01*
%TO.C,J6*%
X214890000Y-114360000D02*
X214890000Y-115610000D01*
X214890000Y-115610000D02*
X216140000Y-115610000D01*
X214990000Y-113550000D02*
X214990000Y-113850000D01*
X214990000Y-113850000D02*
X215190000Y-113850000D01*
X215090000Y-113550000D02*
X215090000Y-113850000D01*
X215190000Y-112750000D02*
X215800000Y-112750000D01*
X215190000Y-113550000D02*
X214990000Y-113550000D01*
X215800000Y-107800000D02*
X215800000Y-109750000D01*
X215800000Y-109750000D02*
X215190000Y-109750000D01*
X215800000Y-112750000D02*
X215800000Y-114700000D01*
X215800000Y-114700000D02*
X219300000Y-114700000D01*
X216500000Y-107190000D02*
X216500000Y-107800000D01*
X216500000Y-115310000D02*
X216500000Y-114700000D01*
X217800000Y-107190000D02*
X217800000Y-107800000D01*
X217800000Y-115310000D02*
X217800000Y-114700000D01*
X218800000Y-110150000D02*
X219300000Y-110150000D01*
X218800000Y-110350000D02*
X218800000Y-110150000D01*
X218800000Y-112150000D02*
X219300000Y-112150000D01*
X218800000Y-112350000D02*
X218800000Y-112150000D01*
X219300000Y-107800000D02*
X215800000Y-107800000D01*
X219300000Y-110250000D02*
X218800000Y-110250000D01*
X219300000Y-110350000D02*
X218800000Y-110350000D01*
X219300000Y-112250000D02*
X218800000Y-112250000D01*
X219300000Y-112350000D02*
X218800000Y-112350000D01*
X219300000Y-114700000D02*
X219300000Y-107800000D01*
X215190000Y-115310000D02*
X219910000Y-115310000D01*
X219910000Y-107190000D01*
X215190000Y-107190000D01*
X215190000Y-115310000D01*
%TO.C,C9*%
X178765000Y-100188748D02*
X178765000Y-100711252D01*
X180235000Y-100188748D02*
X180235000Y-100711252D01*
%TO.C,R4*%
X182370000Y-119163641D02*
X182370000Y-118856359D01*
X183130000Y-119163641D02*
X183130000Y-118856359D01*
%TO.C,C14*%
X189892164Y-99140000D02*
X190107836Y-99140000D01*
X189892164Y-99860000D02*
X190107836Y-99860000D01*
%TO.C,L1*%
X180265000Y-104140000D02*
X191485000Y-104140000D01*
X180265000Y-107240000D02*
X180265000Y-104140000D01*
X180265000Y-114860000D02*
X180265000Y-111760000D01*
X191485000Y-104140000D02*
X191485000Y-107240000D01*
X191485000Y-111760000D02*
X191485000Y-114860000D01*
X191485000Y-114860000D02*
X180265000Y-114860000D01*
%TO.C,C2*%
X164265000Y-117188748D02*
X164265000Y-117711252D01*
X165735000Y-117188748D02*
X165735000Y-117711252D01*
%TO.C,U3*%
X177890000Y-94727500D02*
X177940000Y-94727500D01*
X177890000Y-96547500D02*
X177890000Y-94727500D01*
X177940000Y-96547500D02*
X177890000Y-96547500D01*
X179060000Y-94727500D02*
X179840000Y-94727500D01*
X180960000Y-94727500D02*
X181010000Y-94727500D01*
X181010000Y-94727500D02*
X181010000Y-96547500D01*
X181010000Y-96547500D02*
X180960000Y-96547500D01*
X177940000Y-97087500D02*
X177610000Y-97327500D01*
X177610000Y-96847500D01*
X177940000Y-97087500D01*
G36*
X177940000Y-97087500D02*
G01*
X177610000Y-97327500D01*
X177610000Y-96847500D01*
X177940000Y-97087500D01*
G37*
%TO.C,R11*%
X175346359Y-80120000D02*
X175653641Y-80120000D01*
X175346359Y-80880000D02*
X175653641Y-80880000D01*
%TO.C,C4*%
X173988748Y-118765000D02*
X174511252Y-118765000D01*
X173988748Y-120235000D02*
X174511252Y-120235000D01*
%TO.C,J9*%
X166070000Y-62690000D02*
X167250000Y-62690000D01*
X166070000Y-63500000D02*
X166070000Y-62690000D01*
X166070000Y-64310000D02*
X166070000Y-69325000D01*
X166070000Y-64310000D02*
X166583292Y-64310000D01*
X166070000Y-69325000D02*
X166932077Y-69325000D01*
X167567923Y-69325000D02*
X168202077Y-69325000D01*
X168837923Y-62755000D02*
X169700000Y-62755000D01*
X168837923Y-69325000D02*
X169700000Y-69325000D01*
X169700000Y-62755000D02*
X169700000Y-69325000D01*
%TO.C,C12*%
X187140000Y-94412164D02*
X187140000Y-94627836D01*
X187860000Y-94412164D02*
X187860000Y-94627836D01*
%TO.C,C11*%
X184765000Y-95238748D02*
X184765000Y-95761252D01*
X186235000Y-95238748D02*
X186235000Y-95761252D01*
%TO.C,J7*%
X166620000Y-86620000D02*
X168000000Y-86620000D01*
X166620000Y-88000000D02*
X166620000Y-86620000D01*
X166620000Y-89270000D02*
X166620000Y-97000000D01*
X166620000Y-89270000D02*
X169380000Y-89270000D01*
X166620000Y-97000000D02*
X169380000Y-97000000D01*
X169380000Y-89270000D02*
X169380000Y-97000000D01*
%TO.C,C19*%
X153340000Y-107304437D02*
X153340000Y-109190000D01*
X153340000Y-107304437D02*
X154404437Y-106240000D01*
X153340000Y-113695563D02*
X153340000Y-111810000D01*
X153340000Y-113695563D02*
X154404437Y-114760000D01*
X154404437Y-106240000D02*
X161860000Y-106240000D01*
X154404437Y-114760000D02*
X161860000Y-114760000D01*
X161860000Y-106240000D02*
X161860000Y-109190000D01*
X161860000Y-114760000D02*
X161860000Y-111810000D01*
%TO.C,U5*%
X206340000Y-95172500D02*
X206340000Y-90552500D01*
X211810000Y-90552500D02*
X211810000Y-95172500D01*
X207035000Y-97052500D02*
X206555000Y-97052500D01*
X206795000Y-96722500D01*
X207035000Y-97052500D01*
G36*
X207035000Y-97052500D02*
G01*
X206555000Y-97052500D01*
X206795000Y-96722500D01*
X207035000Y-97052500D01*
G37*
%TO.C,C16*%
X182390000Y-81872164D02*
X182390000Y-82087836D01*
X183110000Y-81872164D02*
X183110000Y-82087836D01*
%TO.C,C7*%
X194738748Y-110265000D02*
X195261252Y-110265000D01*
X194738748Y-111735000D02*
X195261252Y-111735000D01*
%TO.C,R12*%
X175346359Y-82120000D02*
X175653641Y-82120000D01*
X175346359Y-82880000D02*
X175653641Y-82880000D01*
D10*
%TO.C,D3*%
X176945000Y-80500000D02*
G75*
G02*
X176845000Y-80500000I-50000J0D01*
G01*
X176845000Y-80500000D02*
G75*
G02*
X176945000Y-80500000I50000J0D01*
G01*
D13*
%TO.C,C17*%
X206990000Y-54304437D02*
X206990000Y-61760000D01*
X206990000Y-61760000D02*
X209940000Y-61760000D01*
X208054437Y-53240000D02*
X206990000Y-54304437D01*
X208054437Y-53240000D02*
X209940000Y-53240000D01*
X214445563Y-53240000D02*
X212560000Y-53240000D01*
X214445563Y-53240000D02*
X215510000Y-54304437D01*
X215510000Y-54304437D02*
X215510000Y-61760000D01*
X215510000Y-61760000D02*
X212560000Y-61760000D01*
%TO.C,U2*%
X170752500Y-112345000D02*
X171077500Y-112345000D01*
X170752500Y-112440000D02*
X170752500Y-112345000D01*
X170752500Y-117465000D02*
X170752500Y-117370000D01*
X171077500Y-117465000D02*
X170752500Y-117465000D01*
X174547500Y-112345000D02*
X174872500Y-112345000D01*
X174872500Y-112345000D02*
X174872500Y-112440000D01*
X174872500Y-117370000D02*
X174872500Y-117465000D01*
X174872500Y-117465000D02*
X174547500Y-117465000D01*
X170212500Y-112435000D02*
X169972500Y-112105000D01*
X170452500Y-112105000D01*
X170212500Y-112435000D01*
G36*
X170212500Y-112435000D02*
G01*
X169972500Y-112105000D01*
X170452500Y-112105000D01*
X170212500Y-112435000D01*
G37*
%TO.C,C13*%
X188640000Y-94412164D02*
X188640000Y-94627836D01*
X189360000Y-94412164D02*
X189360000Y-94627836D01*
%TO.C,C10*%
X176857836Y-93640000D02*
X176642164Y-93640000D01*
X176857836Y-94360000D02*
X176642164Y-94360000D01*
%TO.C,J8*%
X166620000Y-75120000D02*
X168000000Y-75120000D01*
X166620000Y-76500000D02*
X166620000Y-75120000D01*
X166620000Y-77770000D02*
X166620000Y-82960000D01*
X166620000Y-77770000D02*
X169380000Y-77770000D01*
X166620000Y-82960000D02*
X169380000Y-82960000D01*
X169380000Y-77770000D02*
X169380000Y-82960000D01*
%TO.C,C18*%
X218490000Y-64490000D02*
X218490000Y-67440000D01*
X218490000Y-73010000D02*
X218490000Y-70060000D01*
X225945563Y-64490000D02*
X218490000Y-64490000D01*
X225945563Y-73010000D02*
X218490000Y-73010000D01*
X227010000Y-65554437D02*
X225945563Y-64490000D01*
X227010000Y-65554437D02*
X227010000Y-67440000D01*
X227010000Y-71945563D02*
X225945563Y-73010000D01*
X227010000Y-71945563D02*
X227010000Y-70060000D01*
%TO.C,J4*%
X174950000Y-54200000D02*
X175700000Y-54200000D01*
X175700000Y-51250000D02*
X190000000Y-51250000D01*
X175700000Y-54200000D02*
X175700000Y-51250000D01*
X204100000Y-56750000D02*
X205350000Y-56750000D01*
X204300000Y-51250000D02*
X190000000Y-51250000D01*
X204300000Y-54200000D02*
X204300000Y-51250000D01*
X205050000Y-54200000D02*
X204300000Y-54200000D01*
X205350000Y-56750000D02*
X205350000Y-55500000D01*
X176750000Y-56450000D02*
X174950000Y-56450000D01*
X174950000Y-55700000D01*
X176750000Y-55700000D01*
X176750000Y-56450000D01*
X201750000Y-56450000D02*
X178250000Y-56450000D01*
X178250000Y-55700000D01*
X201750000Y-55700000D01*
X201750000Y-56450000D01*
X205050000Y-56450000D02*
X203250000Y-56450000D01*
X203250000Y-55700000D01*
X205050000Y-55700000D01*
X205050000Y-56450000D01*
X205060000Y-56460000D02*
X174940000Y-56460000D01*
X174940000Y-50490000D01*
X205060000Y-50490000D01*
X205060000Y-56460000D01*
%TO.C,C5*%
X177390000Y-114087836D02*
X177390000Y-113872164D01*
X178110000Y-114087836D02*
X178110000Y-113872164D01*
%TO.C,C6*%
X169390000Y-110587836D02*
X169390000Y-110372164D01*
X170110000Y-110587836D02*
X170110000Y-110372164D01*
%TO.C,D1*%
X172100000Y-111310000D02*
X172100000Y-105500000D01*
X172100000Y-111310000D02*
X176400000Y-111310000D01*
X176400000Y-111310000D02*
X176400000Y-105500000D01*
%TO.C,J3*%
X223250000Y-104100000D02*
X223250000Y-105350000D01*
X223250000Y-105350000D02*
X224500000Y-105350000D01*
X225800000Y-74950000D02*
X225800000Y-75700000D01*
X225800000Y-75700000D02*
X228750000Y-75700000D01*
X225800000Y-104300000D02*
X228750000Y-104300000D01*
X225800000Y-105050000D02*
X225800000Y-104300000D01*
X228750000Y-75700000D02*
X228750000Y-90000000D01*
X228750000Y-104300000D02*
X228750000Y-90000000D01*
X223540000Y-105060000D02*
X229510000Y-105060000D01*
X229510000Y-74940000D01*
X223540000Y-74940000D01*
X223540000Y-105060000D01*
X223550000Y-76750000D02*
X224300000Y-76750000D01*
X224300000Y-74950000D01*
X223550000Y-74950000D01*
X223550000Y-76750000D01*
X223550000Y-101750000D02*
X224300000Y-101750000D01*
X224300000Y-78250000D01*
X223550000Y-78250000D01*
X223550000Y-101750000D01*
X223550000Y-105050000D02*
X224300000Y-105050000D01*
X224300000Y-103250000D01*
X223550000Y-103250000D01*
X223550000Y-105050000D01*
%TO.C,J1*%
X151275000Y-75700000D02*
X151275000Y-90000000D01*
X151275000Y-104300000D02*
X151275000Y-90000000D01*
X154225000Y-74950000D02*
X154225000Y-75700000D01*
X154225000Y-75700000D02*
X151275000Y-75700000D01*
X154225000Y-104300000D02*
X151275000Y-104300000D01*
X154225000Y-105050000D02*
X154225000Y-104300000D01*
X156775000Y-74650000D02*
X155525000Y-74650000D01*
X156775000Y-75900000D02*
X156775000Y-74650000D01*
X156475000Y-74950000D02*
X155725000Y-74950000D01*
X155725000Y-76750000D01*
X156475000Y-76750000D01*
X156475000Y-74950000D01*
X156475000Y-78250000D02*
X155725000Y-78250000D01*
X155725000Y-101750000D01*
X156475000Y-101750000D01*
X156475000Y-78250000D01*
X156475000Y-103250000D02*
X155725000Y-103250000D01*
X155725000Y-105050000D01*
X156475000Y-105050000D01*
X156475000Y-103250000D01*
X156485000Y-74940000D02*
X150515000Y-74940000D01*
X150515000Y-105060000D01*
X156485000Y-105060000D01*
X156485000Y-74940000D01*
%TO.C,J2*%
X174650000Y-123250000D02*
X174650000Y-124500000D01*
X174950000Y-125800000D02*
X175700000Y-125800000D01*
X175700000Y-125800000D02*
X175700000Y-128750000D01*
X175700000Y-128750000D02*
X190000000Y-128750000D01*
X175900000Y-123250000D02*
X174650000Y-123250000D01*
X204300000Y-125800000D02*
X204300000Y-128750000D01*
X204300000Y-128750000D02*
X190000000Y-128750000D01*
X205050000Y-125800000D02*
X204300000Y-125800000D01*
X174940000Y-123540000D02*
X205060000Y-123540000D01*
X205060000Y-129510000D01*
X174940000Y-129510000D01*
X174940000Y-123540000D01*
X174950000Y-123550000D02*
X176750000Y-123550000D01*
X176750000Y-124300000D01*
X174950000Y-124300000D01*
X174950000Y-123550000D01*
X178250000Y-123550000D02*
X201750000Y-123550000D01*
X201750000Y-124300000D01*
X178250000Y-124300000D01*
X178250000Y-123550000D01*
X203250000Y-123550000D02*
X205050000Y-123550000D01*
X205050000Y-124300000D01*
X203250000Y-124300000D01*
X203250000Y-123550000D01*
%TO.C,R2*%
X177370000Y-116163641D02*
X177370000Y-115856359D01*
X178130000Y-116163641D02*
X178130000Y-115856359D01*
%TO.C,C15*%
X193607836Y-99140000D02*
X193392164Y-99140000D01*
X193607836Y-99860000D02*
X193392164Y-99860000D01*
%TO.C,Y1*%
X190140000Y-94040000D02*
X190140000Y-98160000D01*
X193560000Y-94040000D02*
X190140000Y-94040000D01*
%TO.C,R1*%
X169870000Y-118913641D02*
X169870000Y-118606359D01*
X170630000Y-118913641D02*
X170630000Y-118606359D01*
%TO.C,R3*%
X182370000Y-116663641D02*
X182370000Y-116356359D01*
X183130000Y-116663641D02*
X183130000Y-116356359D01*
D10*
%TO.C,D4*%
X176955000Y-82500000D02*
G75*
G02*
X176855000Y-82500000I-50000J0D01*
G01*
X176855000Y-82500000D02*
G75*
G02*
X176955000Y-82500000I50000J0D01*
G01*
%TD*%
M02*
