%TF.GenerationSoftware,KiCad,Pcbnew,9.0.7*%
%TF.CreationDate,2026-02-15T00:10:14-08:00*%
%TF.ProjectId,Pulse_Box_PCB,50756c73-655f-4426-9f78-5f5043422e6b,rev?*%
%TF.SameCoordinates,Original*%
%TF.FileFunction,Copper,L1,Top*%
%TF.FilePolarity,Positive*%
%FSLAX46Y46*%
G04 Gerber Fmt 4.6, Leading zero omitted, Abs format (unit mm)*
G04 Created by KiCad (PCBNEW 9.0.7) date 2026-02-15 00:10:14*
%MOMM*%
%LPD*%
G01*
G04 APERTURE LIST*
G04 Aperture macros list*
%AMRoundRect*
0 Rectangle with rounded corners*
0 $1 Rounding radius*
0 $2 $3 $4 $5 $6 $7 $8 $9 X,Y pos of 4 corners*
0 Add a 4 corners polygon primitive as box body*
4,1,4,$2,$3,$4,$5,$6,$7,$8,$9,$2,$3,0*
0 Add four circle primitives for the rounded corners*
1,1,$1+$1,$2,$3*
1,1,$1+$1,$4,$5*
1,1,$1+$1,$6,$7*
1,1,$1+$1,$8,$9*
0 Add four rect primitives between the rounded corners*
20,1,$1+$1,$2,$3,$4,$5,0*
20,1,$1+$1,$4,$5,$6,$7,0*
20,1,$1+$1,$6,$7,$8,$9,0*
20,1,$1+$1,$8,$9,$2,$3,0*%
%AMFreePoly0*
4,1,13,0.750000,1.250000,1.250000,1.250000,1.250000,-1.250000,0.750000,-1.250000,0.750000,-2.300000,-0.750000,-2.300000,-0.750000,-1.250000,-1.250000,-1.250000,-1.250000,1.250000,-0.750000,1.250000,-0.750000,2.300000,0.750000,2.300000,0.750000,1.250000,0.750000,1.250000,$1*%
G04 Aperture macros list end*
%TA.AperFunction,ComponentPad*%
%ADD10R,1.700000X1.700000*%
%TD*%
%TA.AperFunction,ComponentPad*%
%ADD11C,1.700000*%
%TD*%
%TA.AperFunction,ComponentPad*%
%ADD12O,2.200000X4.400000*%
%TD*%
%TA.AperFunction,ComponentPad*%
%ADD13O,2.000000X4.000000*%
%TD*%
%TA.AperFunction,ComponentPad*%
%ADD14O,4.000000X2.000000*%
%TD*%
%TA.AperFunction,SMDPad,CuDef*%
%ADD15R,0.700000X1.825000*%
%TD*%
%TA.AperFunction,SMDPad,CuDef*%
%ADD16R,1.500000X2.000000*%
%TD*%
%TA.AperFunction,SMDPad,CuDef*%
%ADD17R,2.000000X1.350000*%
%TD*%
%TA.AperFunction,HeatsinkPad*%
%ADD18O,1.700000X1.350000*%
%TD*%
%TA.AperFunction,HeatsinkPad*%
%ADD19O,1.500000X1.100000*%
%TD*%
%TA.AperFunction,SMDPad,CuDef*%
%ADD20R,2.500000X1.430000*%
%TD*%
%TA.AperFunction,SMDPad,CuDef*%
%ADD21R,1.650000X0.400000*%
%TD*%
%TA.AperFunction,SMDPad,CuDef*%
%ADD22RoundRect,0.250000X0.450000X0.350000X-0.450000X0.350000X-0.450000X-0.350000X0.450000X-0.350000X0*%
%TD*%
%TA.AperFunction,ComponentPad*%
%ADD23C,1.000000*%
%TD*%
%TA.AperFunction,ComponentPad*%
%ADD24R,1.000000X1.000000*%
%TD*%
%TA.AperFunction,SMDPad,CuDef*%
%ADD25RoundRect,0.150000X0.150000X-0.512500X0.150000X0.512500X-0.150000X0.512500X-0.150000X-0.512500X0*%
%TD*%
%TA.AperFunction,SMDPad,CuDef*%
%ADD26RoundRect,0.135000X0.135000X0.185000X-0.135000X0.185000X-0.135000X-0.185000X0.135000X-0.185000X0*%
%TD*%
%TA.AperFunction,SMDPad,CuDef*%
%ADD27RoundRect,0.250000X0.325000X1.100000X-0.325000X1.100000X-0.325000X-1.100000X0.325000X-1.100000X0*%
%TD*%
%TA.AperFunction,SMDPad,CuDef*%
%ADD28RoundRect,0.250000X-0.250000X-0.475000X0.250000X-0.475000X0.250000X0.475000X-0.250000X0.475000X0*%
%TD*%
%TA.AperFunction,SMDPad,CuDef*%
%ADD29RoundRect,0.250000X0.475000X-0.250000X0.475000X0.250000X-0.475000X0.250000X-0.475000X-0.250000X0*%
%TD*%
%TA.AperFunction,SMDPad,CuDef*%
%ADD30RoundRect,0.135000X-0.135000X-0.185000X0.135000X-0.185000X0.135000X0.185000X-0.135000X0.185000X0*%
%TD*%
%TA.AperFunction,SMDPad,CuDef*%
%ADD31RoundRect,0.050000X-0.200000X0.650000X-0.200000X-0.650000X0.200000X-0.650000X0.200000X0.650000X0*%
%TD*%
%TA.AperFunction,SMDPad,CuDef*%
%ADD32RoundRect,0.050050X-0.124950X0.299950X-0.124950X-0.299950X0.124950X-0.299950X0.124950X0.299950X0*%
%TD*%
%TA.AperFunction,ComponentPad*%
%ADD33C,0.500000*%
%TD*%
%TA.AperFunction,SMDPad,CuDef*%
%ADD34FreePoly0,270.000000*%
%TD*%
%TA.AperFunction,SMDPad,CuDef*%
%ADD35RoundRect,0.250000X0.250000X0.475000X-0.250000X0.475000X-0.250000X-0.475000X0.250000X-0.475000X0*%
%TD*%
%TA.AperFunction,SMDPad,CuDef*%
%ADD36RoundRect,0.250000X-0.475000X0.250000X-0.475000X-0.250000X0.475000X-0.250000X0.475000X0.250000X0*%
%TD*%
%TA.AperFunction,SMDPad,CuDef*%
%ADD37RoundRect,0.140000X-0.140000X-0.170000X0.140000X-0.170000X0.140000X0.170000X-0.140000X0.170000X0*%
%TD*%
%TA.AperFunction,SMDPad,CuDef*%
%ADD38RoundRect,0.140000X0.140000X0.170000X-0.140000X0.170000X-0.140000X-0.170000X0.140000X-0.170000X0*%
%TD*%
%TA.AperFunction,SMDPad,CuDef*%
%ADD39RoundRect,0.140000X0.170000X-0.140000X0.170000X0.140000X-0.170000X0.140000X-0.170000X-0.140000X0*%
%TD*%
%TA.AperFunction,SMDPad,CuDef*%
%ADD40RoundRect,0.140000X-0.170000X0.140000X-0.170000X-0.140000X0.170000X-0.140000X0.170000X0.140000X0*%
%TD*%
%TA.AperFunction,SMDPad,CuDef*%
%ADD41RoundRect,0.225000X-0.250000X0.225000X-0.250000X-0.225000X0.250000X-0.225000X0.250000X0.225000X0*%
%TD*%
%TA.AperFunction,SMDPad,CuDef*%
%ADD42RoundRect,0.225000X-0.225000X-0.250000X0.225000X-0.250000X0.225000X0.250000X-0.225000X0.250000X0*%
%TD*%
%TA.AperFunction,SMDPad,CuDef*%
%ADD43RoundRect,0.075000X-0.075000X-0.725000X0.075000X-0.725000X0.075000X0.725000X-0.075000X0.725000X0*%
%TD*%
%TA.AperFunction,SMDPad,CuDef*%
%ADD44RoundRect,0.075000X-0.725000X-0.075000X0.725000X-0.075000X0.725000X0.075000X-0.725000X0.075000X0*%
%TD*%
%TA.AperFunction,SMDPad,CuDef*%
%ADD45RoundRect,0.150000X-0.150000X0.512500X-0.150000X-0.512500X0.150000X-0.512500X0.150000X0.512500X0*%
%TD*%
%TA.AperFunction,ViaPad*%
%ADD46C,0.600000*%
%TD*%
%TA.AperFunction,Conductor*%
%ADD47C,1.500000*%
%TD*%
%TA.AperFunction,Conductor*%
%ADD48C,0.200000*%
%TD*%
G04 APERTURE END LIST*
D10*
%TO.P,J4,1,Pin_1*%
%TO.N,GND*%
X94500000Y-94000000D03*
D11*
%TO.P,J4,2,Pin_2*%
%TO.N,Net-(J4-Pin_2)*%
X94500000Y-96540000D03*
%TO.P,J4,3,Pin_3*%
%TO.N,+24V*%
X94500000Y-99080000D03*
%TD*%
D12*
%TO.P,J1,1*%
%TO.N,+24V*%
X117500000Y-92000000D03*
D13*
%TO.P,J1,2*%
%TO.N,GND*%
X123500000Y-92000000D03*
D14*
%TO.P,J1,3*%
%TO.N,N/C*%
X120500000Y-87300000D03*
%TD*%
D15*
%TO.P,J3,6,Shield*%
%TO.N,GND*%
X127435000Y-55025000D03*
D16*
X126115000Y-55125000D03*
D17*
X128185000Y-55275000D03*
D18*
X129115000Y-55295000D03*
D19*
X126115000Y-55605000D03*
D20*
X129385000Y-57065000D03*
X129385000Y-58985000D03*
D19*
X126115000Y-60445000D03*
D18*
X129115000Y-60755000D03*
D17*
X128185000Y-60755000D03*
D16*
X126135000Y-60875000D03*
D15*
X127435000Y-60975000D03*
D21*
%TO.P,J3,5,GND*%
X126235000Y-56725000D03*
%TO.P,J3,4,ID*%
X126235000Y-57375000D03*
%TO.P,J3,3,D+*%
%TO.N,Net-(J3-D+)*%
X126235000Y-58025000D03*
%TO.P,J3,2,D-*%
%TO.N,Net-(J3-D-)*%
X126235000Y-58675000D03*
%TO.P,J3,1,VBUS*%
%TO.N,Net-(J3-VBUS)*%
X126235000Y-59325000D03*
%TD*%
D22*
%TO.P,Y1,1,1*%
%TO.N,Net-(U1-PH0)*%
X97600000Y-64000000D03*
%TO.P,Y1,2,G*%
%TO.N,GND*%
X95400000Y-64000000D03*
%TO.P,Y1,3,3*%
%TO.N,Net-(U1-PH1)*%
X95400000Y-65700000D03*
%TO.P,Y1,4,G*%
%TO.N,GND*%
X97600000Y-65700000D03*
%TD*%
D23*
%TO.P,J2,10,GND*%
%TO.N,GND*%
X128500000Y-74310000D03*
%TO.P,J2,9,RESET*%
%TO.N,Net-(J2-RESET)*%
X127230000Y-74310000D03*
%TO.P,J2,8,GND*%
%TO.N,GND*%
X128500000Y-73040000D03*
%TO.P,J2,7,SWO*%
%TO.N,Net-(J2-SWO)*%
X127230000Y-73040000D03*
%TO.P,J2,6,NC*%
%TO.N,unconnected-(J2-NC-Pad6)*%
X128500000Y-71770000D03*
%TO.P,J2,5,SWDCLK*%
%TO.N,Net-(J2-SWDCLK)*%
X127230000Y-71770000D03*
%TO.P,J2,4,NC*%
%TO.N,unconnected-(J2-NC-Pad4)*%
X128500000Y-70500000D03*
%TO.P,J2,3,SWDIO*%
%TO.N,Net-(J2-SWDIO)*%
X127230000Y-70500000D03*
%TO.P,J2,2,UART_TX*%
%TO.N,Net-(J2-UART_TX)*%
X128500000Y-69230000D03*
D24*
%TO.P,J2,1,UART_RX*%
%TO.N,Net-(J2-UART_RX)*%
X127230000Y-69230000D03*
%TD*%
D25*
%TO.P,U3,5,VOUT*%
%TO.N,+3.3V*%
X95050000Y-79362500D03*
%TO.P,U3,4,NC*%
%TO.N,unconnected-(U3-NC-Pad4)*%
X96950000Y-79362500D03*
%TO.P,U3,3,EN*%
%TO.N,+5V*%
X96950000Y-81637500D03*
%TO.P,U3,2,GND*%
%TO.N,GND*%
X96000000Y-81637500D03*
%TO.P,U3,1,VIN*%
%TO.N,+5V*%
X95050000Y-81637500D03*
%TD*%
D26*
%TO.P,R3,1*%
%TO.N,Net-(U4-V5V)*%
X108000000Y-88300000D03*
%TO.P,R3,2*%
%TO.N,Net-(U4-PGOOD)*%
X106980000Y-88300000D03*
%TD*%
D27*
%TO.P,C4,1*%
%TO.N,+5V*%
X104475000Y-93300000D03*
%TO.P,C4,2*%
%TO.N,GND*%
X101525000Y-93300000D03*
%TD*%
D26*
%TO.P,R4,2*%
%TO.N,Net-(U4-EN)*%
X109490000Y-88300000D03*
%TO.P,R4,1*%
%TO.N,+24V*%
X110510000Y-88300000D03*
%TD*%
D28*
%TO.P,C2,2*%
%TO.N,GND*%
X114450000Y-93800000D03*
%TO.P,C2,1*%
%TO.N,+24V*%
X112550000Y-93800000D03*
%TD*%
D29*
%TO.P,C1,1*%
%TO.N,+24V*%
X113500000Y-89450000D03*
%TO.P,C1,2*%
%TO.N,GND*%
X113500000Y-87550000D03*
%TD*%
D27*
%TO.P,C3,2*%
%TO.N,GND*%
X101525000Y-89800000D03*
%TO.P,C3,1*%
%TO.N,+5V*%
X104475000Y-89800000D03*
%TD*%
D30*
%TO.P,R1,1*%
%TO.N,+5V*%
X105990000Y-95800000D03*
%TO.P,R1,2*%
%TO.N,Net-(U4-FB)*%
X107010000Y-95800000D03*
%TD*%
%TO.P,R2,1*%
%TO.N,Net-(U4-FB)*%
X107990000Y-95800000D03*
%TO.P,R2,2*%
%TO.N,GND*%
X109010000Y-95800000D03*
%TD*%
D31*
%TO.P,U4,1,VIN*%
%TO.N,+24V*%
X110670000Y-90175000D03*
D32*
%TO.P,U4,2,EN*%
%TO.N,Net-(U4-EN)*%
X109695000Y-89825000D03*
%TO.P,U4,3,PGND*%
%TO.N,GND*%
X109045000Y-89825000D03*
%TO.P,U4,4,DNC*%
%TO.N,unconnected-(U4-DNC-Pad4)*%
X108395000Y-89825000D03*
%TO.P,U4,5,DNC*%
%TO.N,unconnected-(U4-DNC-Pad5)*%
X107745000Y-89825000D03*
%TO.P,U4,6,PGOOD*%
%TO.N,Net-(U4-PGOOD)*%
X107095000Y-89825000D03*
D31*
%TO.P,U4,7,VOUT*%
%TO.N,+5V*%
X106370000Y-90175000D03*
%TO.P,U4,8,VOUT*%
X106370000Y-94175000D03*
D32*
%TO.P,U4,9,FB*%
%TO.N,Net-(U4-FB)*%
X107095000Y-94525000D03*
%TO.P,U4,10,PGND*%
%TO.N,GND*%
X107745000Y-94525000D03*
%TO.P,U4,11,PGND*%
X108395000Y-94525000D03*
%TO.P,U4,12,AGND*%
X109045000Y-94525000D03*
%TO.P,U4,13,V5V*%
%TO.N,Net-(U4-V5V)*%
X109695000Y-94525000D03*
D31*
%TO.P,U4,14,VIN*%
%TO.N,+24V*%
X110670000Y-94175000D03*
D33*
%TO.P,U4,15,PGND*%
%TO.N,GND*%
X109475000Y-91225000D03*
X108525000Y-91225000D03*
X107575000Y-91225000D03*
X110425000Y-92175000D03*
X109475000Y-92175000D03*
X108525000Y-92175000D03*
D34*
X108525000Y-92175000D03*
D33*
X107575000Y-92175000D03*
X106625000Y-92175000D03*
X109475000Y-93125000D03*
X108525000Y-93125000D03*
X107575000Y-93125000D03*
%TD*%
D35*
%TO.P,C6,2*%
%TO.N,GND*%
X93000000Y-76000000D03*
%TO.P,C6,1*%
%TO.N,+3.3V*%
X94900000Y-76000000D03*
%TD*%
%TO.P,C5,2*%
%TO.N,GND*%
X95050000Y-84500000D03*
%TO.P,C5,1*%
%TO.N,+5V*%
X96950000Y-84500000D03*
%TD*%
D36*
%TO.P,C22,1*%
%TO.N,Net-(J3-VBUS)*%
X126000000Y-63000000D03*
%TO.P,C22,2*%
%TO.N,GND*%
X126000000Y-64900000D03*
%TD*%
D37*
%TO.P,C20,1*%
%TO.N,GND*%
X97520000Y-70341176D03*
%TO.P,C20,2*%
%TO.N,+3.3V*%
X98480000Y-70341176D03*
%TD*%
%TO.P,C15,1*%
%TO.N,GND*%
X97520000Y-62000000D03*
%TO.P,C15,2*%
%TO.N,+3.3V*%
X98480000Y-62000000D03*
%TD*%
D38*
%TO.P,C21,2*%
%TO.N,GND*%
X97540000Y-71841176D03*
%TO.P,C21,1*%
%TO.N,+3.3V*%
X98500000Y-71841176D03*
%TD*%
D39*
%TO.P,C16,2*%
%TO.N,GND*%
X93000000Y-62020000D03*
%TO.P,C16,1*%
%TO.N,Net-(U1-PH0)*%
X93000000Y-62980000D03*
%TD*%
D37*
%TO.P,C14,2*%
%TO.N,+3.3V*%
X98480000Y-61000000D03*
%TO.P,C14,1*%
%TO.N,GND*%
X97520000Y-61000000D03*
%TD*%
D39*
%TO.P,C17,2*%
%TO.N,Net-(U1-PH1)*%
X93000000Y-67000000D03*
%TO.P,C17,1*%
%TO.N,GND*%
X93000000Y-67960000D03*
%TD*%
D40*
%TO.P,C8,2*%
%TO.N,GND*%
X103000000Y-76321176D03*
%TO.P,C8,1*%
%TO.N,+3.3V*%
X103000000Y-75361176D03*
%TD*%
D39*
%TO.P,C12,2*%
%TO.N,GND*%
X116500000Y-57520000D03*
%TO.P,C12,1*%
%TO.N,+3.3V*%
X116500000Y-58480000D03*
%TD*%
D40*
%TO.P,C10,2*%
%TO.N,GND*%
X114000000Y-76321176D03*
%TO.P,C10,1*%
%TO.N,+3.3V*%
X114000000Y-75361176D03*
%TD*%
D38*
%TO.P,C19,2*%
%TO.N,GND*%
X97520000Y-68841176D03*
%TO.P,C19,1*%
%TO.N,+3.3V*%
X98480000Y-68841176D03*
%TD*%
%TO.P,C18,2*%
%TO.N,GND*%
X97520000Y-67500000D03*
%TO.P,C18,1*%
%TO.N,Net-(J2-RESET)*%
X98480000Y-67500000D03*
%TD*%
D41*
%TO.P,C9,2*%
%TO.N,GND*%
X112500000Y-77116176D03*
%TO.P,C9,1*%
%TO.N,Net-(U1-VCAP_1)*%
X112500000Y-75566176D03*
%TD*%
D42*
%TO.P,C11,2*%
%TO.N,GND*%
X119275000Y-60841176D03*
%TO.P,C11,1*%
%TO.N,Net-(U1-VCAP_2)*%
X117725000Y-60841176D03*
%TD*%
D43*
%TO.P,U1,100,VDD*%
%TO.N,+3.3V*%
X102000000Y-58166176D03*
%TO.P,U1,99,VSS*%
%TO.N,GND*%
X102500000Y-58166176D03*
%TO.P,U1,98,PE1*%
%TO.N,unconnected-(U1-PE1-Pad98)*%
X103000000Y-58166176D03*
%TO.P,U1,97,PE0*%
%TO.N,unconnected-(U1-PE0-Pad97)*%
X103500000Y-58166176D03*
%TO.P,U1,96,PB9*%
%TO.N,unconnected-(U1-PB9-Pad96)*%
X104000000Y-58166176D03*
%TO.P,U1,95,PB8*%
%TO.N,unconnected-(U1-PB8-Pad95)*%
X104500000Y-58166176D03*
%TO.P,U1,94,BOOT0*%
%TO.N,GND*%
X105000000Y-58166176D03*
%TO.P,U1,93,PB7*%
%TO.N,unconnected-(U1-PB7-Pad93)*%
X105500000Y-58166176D03*
%TO.P,U1,92,PB6*%
%TO.N,unconnected-(U1-PB6-Pad92)*%
X106000000Y-58166176D03*
%TO.P,U1,91,PB5*%
%TO.N,unconnected-(U1-PB5-Pad91)*%
X106500000Y-58166176D03*
%TO.P,U1,90,PB4*%
%TO.N,unconnected-(U1-PB4-Pad90)*%
X107000000Y-58166176D03*
%TO.P,U1,89,PB3*%
%TO.N,Net-(J2-SWO)*%
X107500000Y-58166176D03*
%TO.P,U1,88,PD7*%
%TO.N,unconnected-(U1-PD7-Pad88)*%
X108000000Y-58166176D03*
%TO.P,U1,87,PD6*%
%TO.N,unconnected-(U1-PD6-Pad87)*%
X108500000Y-58166176D03*
%TO.P,U1,86,PD5*%
%TO.N,unconnected-(U1-PD5-Pad86)*%
X109000000Y-58166176D03*
%TO.P,U1,85,PD4*%
%TO.N,unconnected-(U1-PD4-Pad85)*%
X109500000Y-58166176D03*
%TO.P,U1,84,PD3*%
%TO.N,unconnected-(U1-PD3-Pad84)*%
X110000000Y-58166176D03*
%TO.P,U1,83,PD2*%
%TO.N,unconnected-(U1-PD2-Pad83)*%
X110500000Y-58166176D03*
%TO.P,U1,82,PD1*%
%TO.N,unconnected-(U1-PD1-Pad82)*%
X111000000Y-58166176D03*
%TO.P,U1,81,PD0*%
%TO.N,unconnected-(U1-PD0-Pad81)*%
X111500000Y-58166176D03*
%TO.P,U1,80,PC12*%
%TO.N,unconnected-(U1-PC12-Pad80)*%
X112000000Y-58166176D03*
%TO.P,U1,79,PC11*%
%TO.N,Net-(J2-UART_RX)*%
X112500000Y-58166176D03*
%TO.P,U1,78,PC10*%
%TO.N,Net-(J2-UART_TX)*%
X113000000Y-58166176D03*
%TO.P,U1,77,PA15*%
%TO.N,unconnected-(U1-PA15-Pad77)*%
X113500000Y-58166176D03*
%TO.P,U1,76,PA14*%
%TO.N,Net-(J2-SWDCLK)*%
X114000000Y-58166176D03*
D44*
%TO.P,U1,75,VDD*%
%TO.N,+3.3V*%
X115675000Y-59841176D03*
%TO.P,U1,74,VSS*%
%TO.N,GND*%
X115675000Y-60341176D03*
%TO.P,U1,73,VCAP_2*%
%TO.N,Net-(U1-VCAP_2)*%
X115675000Y-60841176D03*
%TO.P,U1,72,PA13*%
%TO.N,Net-(J2-SWDIO)*%
X115675000Y-61341176D03*
%TO.P,U1,71,PA12*%
%TO.N,Net-(J3-D+)*%
X115675000Y-61841176D03*
%TO.P,U1,70,PA11*%
%TO.N,Net-(J3-D-)*%
X115675000Y-62341176D03*
%TO.P,U1,69,PA10*%
%TO.N,unconnected-(U1-PA10-Pad69)*%
X115675000Y-62841176D03*
%TO.P,U1,68,PA9*%
%TO.N,Net-(J3-VBUS)*%
X115675000Y-63341176D03*
%TO.P,U1,67,PA8*%
%TO.N,unconnected-(U1-PA8-Pad67)*%
X115675000Y-63841176D03*
%TO.P,U1,66,PC9*%
%TO.N,unconnected-(U1-PC9-Pad66)*%
X115675000Y-64341176D03*
%TO.P,U1,65,PC8*%
%TO.N,unconnected-(U1-PC8-Pad65)*%
X115675000Y-64841176D03*
%TO.P,U1,64,PC7*%
%TO.N,unconnected-(U1-PC7-Pad64)*%
X115675000Y-65341176D03*
%TO.P,U1,63,PC6*%
%TO.N,unconnected-(U1-PC6-Pad63)*%
X115675000Y-65841176D03*
%TO.P,U1,62,PD15*%
%TO.N,unconnected-(U1-PD15-Pad62)*%
X115675000Y-66341176D03*
%TO.P,U1,61,PD14*%
%TO.N,unconnected-(U1-PD14-Pad61)*%
X115675000Y-66841176D03*
%TO.P,U1,60,PD13*%
%TO.N,unconnected-(U1-PD13-Pad60)*%
X115675000Y-67341176D03*
%TO.P,U1,59,PD12*%
%TO.N,unconnected-(U1-PD12-Pad59)*%
X115675000Y-67841176D03*
%TO.P,U1,58,PD11*%
%TO.N,unconnected-(U1-PD11-Pad58)*%
X115675000Y-68341176D03*
%TO.P,U1,57,PD10*%
%TO.N,unconnected-(U1-PD10-Pad57)*%
X115675000Y-68841176D03*
%TO.P,U1,56,PD9*%
%TO.N,unconnected-(U1-PD9-Pad56)*%
X115675000Y-69341176D03*
%TO.P,U1,55,PD8*%
%TO.N,unconnected-(U1-PD8-Pad55)*%
X115675000Y-69841176D03*
%TO.P,U1,54,PB15*%
%TO.N,unconnected-(U1-PB15-Pad54)*%
X115675000Y-70341176D03*
%TO.P,U1,53,PB14*%
%TO.N,unconnected-(U1-PB14-Pad53)*%
X115675000Y-70841176D03*
%TO.P,U1,52,PB13*%
%TO.N,unconnected-(U1-PB13-Pad52)*%
X115675000Y-71341176D03*
%TO.P,U1,51,PB12*%
%TO.N,unconnected-(U1-PB12-Pad51)*%
X115675000Y-71841176D03*
D43*
%TO.P,U1,50,VDD*%
%TO.N,+3.3V*%
X114000000Y-73516176D03*
%TO.P,U1,49,VCAP_1*%
%TO.N,Net-(U1-VCAP_1)*%
X113500000Y-73516176D03*
%TO.P,U1,48,PB11*%
%TO.N,unconnected-(U1-PB11-Pad48)*%
X113000000Y-73516176D03*
%TO.P,U1,47,PB10*%
%TO.N,unconnected-(U1-PB10-Pad47)*%
X112500000Y-73516176D03*
%TO.P,U1,46,PE15*%
%TO.N,unconnected-(U1-PE15-Pad46)*%
X112000000Y-73516176D03*
%TO.P,U1,45,PE14*%
%TO.N,unconnected-(U1-PE14-Pad45)*%
X111500000Y-73516176D03*
%TO.P,U1,44,PE13*%
%TO.N,unconnected-(U1-PE13-Pad44)*%
X111000000Y-73516176D03*
%TO.P,U1,43,PE12*%
%TO.N,unconnected-(U1-PE12-Pad43)*%
X110500000Y-73516176D03*
%TO.P,U1,42,PE11*%
%TO.N,unconnected-(U1-PE11-Pad42)*%
X110000000Y-73516176D03*
%TO.P,U1,41,PE10*%
%TO.N,unconnected-(U1-PE10-Pad41)*%
X109500000Y-73516176D03*
%TO.P,U1,40,PE9*%
%TO.N,unconnected-(U1-PE9-Pad40)*%
X109000000Y-73516176D03*
%TO.P,U1,39,PE8*%
%TO.N,unconnected-(U1-PE8-Pad39)*%
X108500000Y-73516176D03*
%TO.P,U1,38,PE7*%
%TO.N,unconnected-(U1-PE7-Pad38)*%
X108000000Y-73516176D03*
%TO.P,U1,37,PB2*%
%TO.N,unconnected-(U1-PB2-Pad37)*%
X107500000Y-73516176D03*
%TO.P,U1,36,PB1*%
%TO.N,unconnected-(U1-PB1-Pad36)*%
X107000000Y-73516176D03*
%TO.P,U1,35,PB0*%
%TO.N,unconnected-(U1-PB0-Pad35)*%
X106500000Y-73516176D03*
%TO.P,U1,34,PC5*%
%TO.N,unconnected-(U1-PC5-Pad34)*%
X106000000Y-73516176D03*
%TO.P,U1,33,PC4*%
%TO.N,unconnected-(U1-PC4-Pad33)*%
X105500000Y-73516176D03*
%TO.P,U1,32,PA7*%
%TO.N,Net-(U1-PA7)*%
X105000000Y-73516176D03*
%TO.P,U1,31,PA6*%
%TO.N,unconnected-(U1-PA6-Pad31)*%
X104500000Y-73516176D03*
%TO.P,U1,30,PA5*%
%TO.N,unconnected-(U1-PA5-Pad30)*%
X104000000Y-73516176D03*
%TO.P,U1,29,PA4*%
%TO.N,unconnected-(U1-PA4-Pad29)*%
X103500000Y-73516176D03*
%TO.P,U1,28,VDD*%
%TO.N,+3.3V*%
X103000000Y-73516176D03*
%TO.P,U1,27,VSS*%
%TO.N,GND*%
X102500000Y-73516176D03*
%TO.P,U1,26,PA3*%
%TO.N,unconnected-(U1-PA3-Pad26)*%
X102000000Y-73516176D03*
D44*
%TO.P,U1,25,PA2*%
%TO.N,unconnected-(U1-PA2-Pad25)*%
X100325000Y-71841176D03*
%TO.P,U1,24,PA1*%
%TO.N,unconnected-(U1-PA1-Pad24)*%
X100325000Y-71341176D03*
%TO.P,U1,23,PA0*%
%TO.N,unconnected-(U1-PA0-Pad23)*%
X100325000Y-70841176D03*
%TO.P,U1,22,VDDA*%
%TO.N,+3.3V*%
X100325000Y-70341176D03*
%TO.P,U1,21,VREF+*%
X100325000Y-69841176D03*
%TO.P,U1,20,VSSA*%
%TO.N,GND*%
X100325000Y-69341176D03*
%TO.P,U1,19,VDD*%
%TO.N,+3.3V*%
X100325000Y-68841176D03*
%TO.P,U1,18,PC3*%
%TO.N,unconnected-(U1-PC3-Pad18)*%
X100325000Y-68341176D03*
%TO.P,U1,17,PC2*%
%TO.N,unconnected-(U1-PC2-Pad17)*%
X100325000Y-67841176D03*
%TO.P,U1,16,PC1*%
%TO.N,unconnected-(U1-PC1-Pad16)*%
X100325000Y-67341176D03*
%TO.P,U1,15,PC0*%
%TO.N,unconnected-(U1-PC0-Pad15)*%
X100325000Y-66841176D03*
%TO.P,U1,14,NRST*%
%TO.N,Net-(J2-RESET)*%
X100325000Y-66341176D03*
%TO.P,U1,13,PH1*%
%TO.N,Net-(U1-PH1)*%
X100325000Y-65841176D03*
%TO.P,U1,12,PH0*%
%TO.N,Net-(U1-PH0)*%
X100325000Y-65341176D03*
%TO.P,U1,11,VDD*%
%TO.N,+3.3V*%
X100325000Y-64841176D03*
%TO.P,U1,10,VSS*%
%TO.N,GND*%
X100325000Y-64341176D03*
%TO.P,U1,9,PC15*%
%TO.N,unconnected-(U1-PC15-Pad9)*%
X100325000Y-63841176D03*
%TO.P,U1,8,PC14*%
%TO.N,unconnected-(U1-PC14-Pad8)*%
X100325000Y-63341176D03*
%TO.P,U1,7,PC13*%
%TO.N,unconnected-(U1-PC13-Pad7)*%
X100325000Y-62841176D03*
%TO.P,U1,6,VBAT*%
%TO.N,+3.3V*%
X100325000Y-62341176D03*
%TO.P,U1,5,PE6*%
%TO.N,unconnected-(U1-PE6-Pad5)*%
X100325000Y-61841176D03*
%TO.P,U1,4,PE5*%
%TO.N,unconnected-(U1-PE5-Pad4)*%
X100325000Y-61341176D03*
%TO.P,U1,3,PE4*%
%TO.N,unconnected-(U1-PE4-Pad3)*%
X100325000Y-60841176D03*
%TO.P,U1,2,PE3*%
%TO.N,unconnected-(U1-PE3-Pad2)*%
X100325000Y-60341176D03*
%TO.P,U1,1,PE2*%
%TO.N,unconnected-(U1-PE2-Pad1)*%
X100325000Y-59841176D03*
%TD*%
D45*
%TO.P,U2,5,VCC*%
%TO.N,+5V*%
X107450000Y-78616176D03*
%TO.P,U2,4,Y*%
%TO.N,Net-(J4-Pin_2)*%
X105550000Y-78616176D03*
%TO.P,U2,3,GND*%
%TO.N,GND*%
X105550000Y-76341176D03*
%TO.P,U2,2,A*%
%TO.N,Net-(U1-PA7)*%
X106500000Y-76341176D03*
%TO.P,U2,1,NC*%
%TO.N,unconnected-(U2-NC-Pad1)*%
X107450000Y-76341176D03*
%TD*%
D40*
%TO.P,C7,2*%
%TO.N,GND*%
X107500000Y-81460000D03*
%TO.P,C7,1*%
%TO.N,+5V*%
X107500000Y-80500000D03*
%TD*%
D39*
%TO.P,C13,2*%
%TO.N,GND*%
X102000000Y-55361176D03*
%TO.P,C13,1*%
%TO.N,+3.3V*%
X102000000Y-56321176D03*
%TD*%
D46*
%TO.N,GND*%
X93000000Y-65500000D03*
%TO.N,+3.3V*%
X94439000Y-59561000D03*
X94439000Y-69362626D03*
%TO.N,GND*%
X96000000Y-62000000D03*
%TO.N,Net-(J2-RESET)*%
X106500000Y-66500000D03*
X118000000Y-71500000D03*
%TO.N,Net-(J2-SWO)*%
X107500000Y-64500000D03*
X118000000Y-69500000D03*
%TO.N,Net-(J2-SWDCLK)*%
X114000000Y-60000000D03*
X118000000Y-68000000D03*
%TO.N,Net-(J2-SWDIO)*%
X114000000Y-61341176D03*
%TO.N,+3.3V*%
X118000000Y-73500000D03*
X121000000Y-59500000D03*
%TO.N,Net-(J2-SWDIO)*%
X118000000Y-66500000D03*
%TO.N,Net-(J2-UART_TX)*%
X113500000Y-64000000D03*
X119000000Y-64000000D03*
%TO.N,Net-(J2-UART_RX)*%
X113000000Y-65000000D03*
X118500000Y-65000000D03*
%TO.N,GND*%
X128500000Y-78000000D03*
X104000000Y-71000000D03*
X102500000Y-62000000D03*
X106500000Y-84500000D03*
X97000000Y-73500000D03*
X102000000Y-82000000D03*
X96000000Y-68000000D03*
X100500000Y-75000000D03*
%TO.N,Net-(U4-V5V)*%
X111500000Y-96000000D03*
X111000000Y-86000000D03*
%TO.N,+3.3V*%
X110500000Y-79500000D03*
X101500000Y-79500000D03*
%TO.N,Net-(J4-Pin_2)*%
X99500000Y-93000000D03*
X103000000Y-85000000D03*
%TD*%
D47*
%TO.N,+24V*%
X112370000Y-99080000D02*
X94500000Y-99080000D01*
X117500000Y-92000000D02*
X117500000Y-93950000D01*
X117500000Y-93950000D02*
X112370000Y-99080000D01*
D48*
%TO.N,Net-(J4-Pin_2)*%
X95960000Y-96540000D02*
X94500000Y-96540000D01*
X99500000Y-93000000D02*
X95960000Y-96540000D01*
%TO.N,GND*%
X105000000Y-59500000D02*
X102500000Y-62000000D01*
X105000000Y-58166176D02*
X105000000Y-59500000D01*
%TO.N,+24V*%
X117500000Y-91500000D02*
X117500000Y-92000000D01*
X115450000Y-89450000D02*
X117500000Y-91500000D01*
X114350000Y-92000000D02*
X117500000Y-92000000D01*
X112550000Y-93800000D02*
X114350000Y-92000000D01*
%TO.N,Net-(J3-VBUS)*%
X125064000Y-59594000D02*
X125333000Y-59325000D01*
X125333000Y-59325000D02*
X126235000Y-59325000D01*
X126000000Y-63000000D02*
X125064000Y-62064000D01*
X125064000Y-62064000D02*
X125064000Y-59594000D01*
X121316824Y-63341176D02*
X115675000Y-63341176D01*
X125333000Y-59325000D02*
X121316824Y-63341176D01*
%TO.N,Net-(J3-D-)*%
X121658824Y-62341176D02*
X115675000Y-62341176D01*
X125325000Y-58675000D02*
X121658824Y-62341176D01*
X126235000Y-58675000D02*
X125325000Y-58675000D01*
%TO.N,Net-(J3-D+)*%
X121393824Y-61841176D02*
X115675000Y-61841176D01*
X125210000Y-58025000D02*
X121393824Y-61841176D01*
X126235000Y-58025000D02*
X125210000Y-58025000D01*
%TO.N,GND*%
X94500000Y-64000000D02*
X93000000Y-65500000D01*
X95400000Y-64000000D02*
X94500000Y-64000000D01*
%TO.N,Net-(U1-PH0)*%
X93000000Y-62980000D02*
X96580000Y-62980000D01*
X96580000Y-62980000D02*
X97600000Y-64000000D01*
%TO.N,Net-(U1-PH1)*%
X94100000Y-67000000D02*
X95400000Y-65700000D01*
X93000000Y-67000000D02*
X94100000Y-67000000D01*
%TO.N,+3.3V*%
X94538187Y-69461813D02*
X94439000Y-69362626D01*
%TO.N,GND*%
X97600000Y-65700000D02*
X95900000Y-64000000D01*
X95900000Y-64000000D02*
X95400000Y-64000000D01*
X97520000Y-62000000D02*
X96000000Y-62000000D01*
X97000000Y-61000000D02*
X96000000Y-62000000D01*
X97520000Y-61000000D02*
X97000000Y-61000000D01*
%TO.N,Net-(U1-PH0)*%
X98941176Y-65341176D02*
X100325000Y-65341176D01*
X97600000Y-64000000D02*
X98941176Y-65341176D01*
%TO.N,Net-(U1-PH1)*%
X98664252Y-66601000D02*
X99424076Y-65841176D01*
X99424076Y-65841176D02*
X100325000Y-65841176D01*
X96301000Y-66601000D02*
X98664252Y-66601000D01*
X95400000Y-65700000D02*
X96301000Y-66601000D01*
%TO.N,Net-(J2-SWDIO)*%
X114000000Y-61341176D02*
X115675000Y-61341176D01*
%TO.N,Net-(J2-RESET)*%
X106341176Y-66341176D02*
X100325000Y-66341176D01*
X106500000Y-66500000D02*
X106341176Y-66341176D01*
X127230000Y-74310000D02*
X120810000Y-74310000D01*
X120810000Y-74310000D02*
X118000000Y-71500000D01*
%TO.N,Net-(J2-SWO)*%
X107500000Y-64500000D02*
X107500000Y-58166176D01*
X121540000Y-73040000D02*
X118000000Y-69500000D01*
X127230000Y-73040000D02*
X121540000Y-73040000D01*
%TO.N,Net-(J2-SWDCLK)*%
X114000000Y-60000000D02*
X114000000Y-58166176D01*
X121770000Y-71770000D02*
X118000000Y-68000000D01*
X127230000Y-71770000D02*
X121770000Y-71770000D01*
%TO.N,Net-(J2-SWDIO)*%
X114841176Y-61341176D02*
X115675000Y-61341176D01*
%TO.N,+3.3V*%
X119980000Y-58480000D02*
X116500000Y-58480000D01*
X121000000Y-59500000D02*
X119980000Y-58480000D01*
X117983824Y-73516176D02*
X118000000Y-73500000D01*
X114000000Y-73516176D02*
X117983824Y-73516176D01*
%TO.N,Net-(J2-SWDIO)*%
X122000000Y-70500000D02*
X118000000Y-66500000D01*
X127230000Y-70500000D02*
X122000000Y-70500000D01*
%TO.N,Net-(J2-UART_TX)*%
X113000000Y-63500000D02*
X113000000Y-58166176D01*
X113500000Y-64000000D02*
X113000000Y-63500000D01*
X123000000Y-68000000D02*
X119000000Y-64000000D01*
X127977106Y-68000000D02*
X123000000Y-68000000D01*
X128500000Y-68522894D02*
X127977106Y-68000000D01*
X128500000Y-69230000D02*
X128500000Y-68522894D01*
%TO.N,Net-(J2-UART_RX)*%
X112500000Y-64500000D02*
X112500000Y-58166176D01*
X113000000Y-65000000D02*
X112500000Y-64500000D01*
X122730000Y-69230000D02*
X118500000Y-65000000D01*
X127230000Y-69230000D02*
X122730000Y-69230000D01*
%TO.N,GND*%
X128500000Y-73000000D02*
X128500000Y-78000000D01*
X128500000Y-73040000D02*
X128500000Y-73000000D01*
%TO.N,Net-(J2-RESET)*%
X99491176Y-66341176D02*
X100325000Y-66341176D01*
X98500000Y-67332352D02*
X99491176Y-66341176D01*
X98500000Y-67341176D02*
X98500000Y-67332352D01*
X98480000Y-67341176D02*
X98500000Y-67341176D01*
%TO.N,GND*%
X102341176Y-69341176D02*
X104000000Y-71000000D01*
X100325000Y-69341176D02*
X102341176Y-69341176D01*
X102500000Y-72500000D02*
X104000000Y-71000000D01*
X102500000Y-73516176D02*
X102500000Y-72500000D01*
%TO.N,+3.3V*%
X100430588Y-78430588D02*
X101500000Y-79500000D01*
X100430588Y-77930588D02*
X100430588Y-78430588D01*
X100430588Y-77930588D02*
X103000000Y-75361176D01*
X97500000Y-75000000D02*
X100430588Y-77930588D01*
X97500000Y-75000000D02*
X98500000Y-74000000D01*
X96500000Y-76000000D02*
X97500000Y-75000000D01*
X94900000Y-76000000D02*
X96500000Y-76000000D01*
X98500000Y-74000000D02*
X98500000Y-71841176D01*
%TO.N,+5V*%
X95050000Y-82299999D02*
X95050000Y-81637500D01*
X96950000Y-83000000D02*
X95750001Y-83000000D01*
X96950000Y-83000000D02*
X96950000Y-84500000D01*
X95750001Y-83000000D02*
X95050000Y-82299999D01*
X97600000Y-85150000D02*
X96950000Y-84500000D01*
X99825000Y-85150000D02*
X97600000Y-85150000D01*
X104475000Y-89800000D02*
X99825000Y-85150000D01*
X96950000Y-81637500D02*
X96950000Y-83000000D01*
%TO.N,+3.3V*%
X95050000Y-76150000D02*
X94900000Y-76000000D01*
X95050000Y-79362500D02*
X95050000Y-76150000D01*
%TO.N,GND*%
X109045000Y-90705000D02*
X108525000Y-91225000D01*
X109045000Y-89825000D02*
X109045000Y-90705000D01*
X102500000Y-62000000D02*
X102500000Y-63000000D01*
X101158824Y-64341176D02*
X100325000Y-64341176D01*
X102500000Y-58166176D02*
X102500000Y-62000000D01*
X102500000Y-63000000D02*
X101158824Y-64341176D01*
X96000000Y-68000000D02*
X96841176Y-68841176D01*
%TO.N,+3.3V*%
X98480000Y-61841176D02*
X98480000Y-62841176D01*
X98480000Y-57122352D02*
X98480000Y-61841176D01*
X97678824Y-56321176D02*
X98480000Y-57122352D01*
X94439000Y-59561000D02*
X97678824Y-56321176D01*
X94900000Y-69823626D02*
X94538187Y-69461813D01*
X97678824Y-56321176D02*
X102000000Y-56321176D01*
X100325000Y-69841176D02*
X100325000Y-70341176D01*
%TO.N,GND*%
X96841176Y-68841176D02*
X97520000Y-68841176D01*
%TO.N,+3.3V*%
X97591000Y-69730176D02*
X98480000Y-68841176D01*
X94993450Y-69730176D02*
X97591000Y-69730176D01*
X94900000Y-69823626D02*
X94993450Y-69730176D01*
X94900000Y-76000000D02*
X94900000Y-69823626D01*
%TO.N,+24V*%
X112550000Y-90400000D02*
X112550000Y-93800000D01*
X113500000Y-89450000D02*
X112550000Y-90400000D01*
X111395000Y-89450000D02*
X110670000Y-90175000D01*
X113500000Y-89450000D02*
X111395000Y-89450000D01*
X115450000Y-89450000D02*
X113500000Y-89450000D01*
X118000000Y-91500000D02*
X117500000Y-91500000D01*
%TO.N,GND*%
X116658824Y-60341176D02*
X117500000Y-59500000D01*
X115675000Y-60341176D02*
X116658824Y-60341176D01*
%TO.N,+3.3V*%
X116500000Y-59016176D02*
X115675000Y-59841176D01*
X116500000Y-58480000D02*
X116500000Y-59016176D01*
%TO.N,Net-(U4-V5V)*%
X109695000Y-94874999D02*
X109695000Y-94525000D01*
X110820001Y-96000000D02*
X109695000Y-94874999D01*
X111500000Y-96000000D02*
X110820001Y-96000000D01*
X110300000Y-86000000D02*
X111000000Y-86000000D01*
X108000000Y-88300000D02*
X110300000Y-86000000D01*
%TO.N,+3.3V*%
X113389000Y-75972176D02*
X114000000Y-75361176D01*
X111758726Y-79500000D02*
X113389000Y-77869726D01*
X110500000Y-79500000D02*
X111758726Y-79500000D01*
X113389000Y-77869726D02*
X113389000Y-75972176D01*
X98480000Y-70341176D02*
X100325000Y-70341176D01*
%TO.N,+5V*%
X109500000Y-81550000D02*
X107450000Y-79500000D01*
X109500000Y-84775000D02*
X109500000Y-81550000D01*
X104475000Y-89800000D02*
X109500000Y-84775000D01*
X107450000Y-79500000D02*
X107450000Y-78616176D01*
X104475000Y-93300000D02*
X104475000Y-89800000D01*
%TO.N,Net-(J4-Pin_2)*%
X105550000Y-82450000D02*
X103000000Y-85000000D01*
X105550000Y-78616176D02*
X105550000Y-82450000D01*
%TO.N,+5V*%
X106370000Y-95430000D02*
X106370000Y-94175000D01*
X105495000Y-93300000D02*
X106370000Y-94175000D01*
%TO.N,Net-(U4-FB)*%
X107010000Y-94610000D02*
X107095000Y-94525000D01*
%TO.N,Net-(U4-EN)*%
X109695000Y-88505000D02*
X109695000Y-89825000D01*
%TO.N,+5V*%
X105990000Y-95800000D02*
X106000000Y-95800000D01*
%TO.N,Net-(U4-FB)*%
X107990000Y-95800000D02*
X107095000Y-94905000D01*
X107095000Y-94905000D02*
X107095000Y-94525000D01*
%TO.N,+5V*%
X104475000Y-89800000D02*
X105995000Y-89800000D01*
%TO.N,Net-(U4-PGOOD)*%
X106980000Y-88300000D02*
X107000000Y-88300000D01*
%TO.N,Net-(U4-FB)*%
X107010000Y-95800000D02*
X107010000Y-94610000D01*
%TO.N,+24V*%
X110510000Y-88300000D02*
X110500000Y-88300000D01*
%TO.N,+5V*%
X105995000Y-89800000D02*
X106370000Y-90175000D01*
%TO.N,+24V*%
X112550000Y-93800000D02*
X111045000Y-93800000D01*
X110500000Y-88300000D02*
X110670000Y-88470000D01*
%TO.N,+5V*%
X106000000Y-95800000D02*
X106370000Y-95430000D01*
%TO.N,+24V*%
X118000000Y-91500000D02*
X117200000Y-92300000D01*
%TO.N,Net-(U4-EN)*%
X109490000Y-88300000D02*
X109695000Y-88505000D01*
%TO.N,+24V*%
X110670000Y-88470000D02*
X110670000Y-90175000D01*
%TO.N,Net-(U4-PGOOD)*%
X107000000Y-88300000D02*
X107095000Y-88395000D01*
%TO.N,+24V*%
X111045000Y-93800000D02*
X110670000Y-94175000D01*
%TO.N,Net-(U4-PGOOD)*%
X107095000Y-88395000D02*
X107095000Y-89825000D01*
%TO.N,+5V*%
X104475000Y-93300000D02*
X105495000Y-93300000D01*
X107450000Y-80450000D02*
X107500000Y-80500000D01*
X107450000Y-78616176D02*
X107450000Y-80450000D01*
%TO.N,Net-(U1-VCAP_2)*%
X117725000Y-60841176D02*
X115675000Y-60841176D01*
%TO.N,Net-(U1-PA7)*%
X106500000Y-75850000D02*
X105000000Y-74350000D01*
X105000000Y-74350000D02*
X105000000Y-73516176D01*
X106500000Y-76341176D02*
X106500000Y-75850000D01*
%TO.N,+5V*%
X107500000Y-78666176D02*
X107450000Y-78616176D01*
%TO.N,+3.3V*%
X114000000Y-75361176D02*
X114000000Y-73516176D01*
%TO.N,Net-(U1-VCAP_1)*%
X112508824Y-75341176D02*
X113500000Y-74350000D01*
X112500000Y-75341176D02*
X112508824Y-75341176D01*
X113500000Y-74350000D02*
X113500000Y-73516176D01*
X112500000Y-75566176D02*
X112500000Y-75341176D01*
%TO.N,+3.3V*%
X103000000Y-75361176D02*
X103000000Y-73516176D01*
X99491176Y-70341176D02*
X100325000Y-70341176D01*
X98500000Y-71332352D02*
X99491176Y-70341176D01*
X98500000Y-71841176D02*
X98500000Y-71332352D01*
X99491176Y-64841176D02*
X100325000Y-64841176D01*
X99000000Y-63341176D02*
X99000000Y-64350000D01*
X98480000Y-62841176D02*
X98500000Y-62841176D01*
X98500000Y-62841176D02*
X99000000Y-63341176D01*
X99000000Y-64350000D02*
X99491176Y-64841176D01*
X99000000Y-62341176D02*
X100325000Y-62341176D01*
X98500000Y-61841176D02*
X99000000Y-62341176D01*
X98480000Y-61841176D02*
X98500000Y-61841176D01*
X98480000Y-68841176D02*
X100325000Y-68841176D01*
X102000000Y-56321176D02*
X102000000Y-58166176D01*
%TO.N,GND*%
X102500000Y-73516176D02*
X102500000Y-74500000D01*
X102500000Y-74500000D02*
X102000000Y-75000000D01*
X102000000Y-75000000D02*
X100500000Y-75000000D01*
%TD*%
%TA.AperFunction,Conductor*%
%TO.N,GND*%
G36*
X130942539Y-53520185D02*
G01*
X130988294Y-53572989D01*
X130999500Y-53624500D01*
X130999500Y-102375500D01*
X130979815Y-102442539D01*
X130927011Y-102488294D01*
X130875500Y-102499500D01*
X92124500Y-102499500D01*
X92057461Y-102479815D01*
X92011706Y-102427011D01*
X92000500Y-102375500D01*
X92000500Y-67447479D01*
X92020185Y-67380440D01*
X92072989Y-67334685D01*
X92142147Y-67324741D01*
X92205703Y-67353766D01*
X92232486Y-67390300D01*
X92233535Y-67389680D01*
X92319881Y-67535684D01*
X92319887Y-67535692D01*
X92434307Y-67650112D01*
X92434311Y-67650115D01*
X92434313Y-67650117D01*
X92573605Y-67732494D01*
X92581164Y-67734690D01*
X92729002Y-67777642D01*
X92729005Y-67777642D01*
X92729007Y-67777643D01*
X92765310Y-67780500D01*
X92765318Y-67780500D01*
X93234682Y-67780500D01*
X93234690Y-67780500D01*
X93270993Y-67777643D01*
X93270995Y-67777642D01*
X93270997Y-67777642D01*
X93311975Y-67765736D01*
X93426395Y-67732494D01*
X93565687Y-67650117D01*
X93565692Y-67650112D01*
X93578986Y-67636819D01*
X93640309Y-67603334D01*
X93666667Y-67600500D01*
X94013331Y-67600500D01*
X94013347Y-67600501D01*
X94020943Y-67600501D01*
X94179054Y-67600501D01*
X94179057Y-67600501D01*
X94331785Y-67559577D01*
X94401233Y-67519481D01*
X94468716Y-67480520D01*
X94580520Y-67368716D01*
X94580520Y-67368714D01*
X94590724Y-67358511D01*
X94590728Y-67358506D01*
X95112416Y-66836818D01*
X95173739Y-66803333D01*
X95200097Y-66800499D01*
X95599902Y-66800499D01*
X95629342Y-66809143D01*
X95659329Y-66815667D01*
X95664344Y-66819421D01*
X95666941Y-66820184D01*
X95687583Y-66836818D01*
X95816139Y-66965374D01*
X95816149Y-66965385D01*
X95820479Y-66969715D01*
X95820480Y-66969716D01*
X95932284Y-67081520D01*
X95932286Y-67081521D01*
X95932290Y-67081524D01*
X96045523Y-67146898D01*
X96069216Y-67160577D01*
X96181019Y-67190534D01*
X96221942Y-67201500D01*
X96221943Y-67201500D01*
X97575500Y-67201500D01*
X97642539Y-67221185D01*
X97688294Y-67273989D01*
X97699500Y-67325500D01*
X97699500Y-67734697D01*
X97702356Y-67770991D01*
X97702357Y-67770997D01*
X97747504Y-67926390D01*
X97747505Y-67926393D01*
X97829881Y-68065684D01*
X97829887Y-68065692D01*
X97847102Y-68082907D01*
X97880587Y-68144230D01*
X97875603Y-68213922D01*
X97847102Y-68258269D01*
X97829887Y-68275483D01*
X97829881Y-68275491D01*
X97747505Y-68414782D01*
X97747504Y-68414785D01*
X97702357Y-68570178D01*
X97702356Y-68570184D01*
X97699500Y-68606478D01*
X97699500Y-68721079D01*
X97679815Y-68788118D01*
X97663181Y-68808760D01*
X97378584Y-69093357D01*
X97317261Y-69126842D01*
X97290903Y-69129676D01*
X95291818Y-69129676D01*
X95224779Y-69109991D01*
X95179024Y-69057187D01*
X95177257Y-69053128D01*
X95148397Y-68983453D01*
X95148390Y-68983440D01*
X95060789Y-68852337D01*
X95060786Y-68852333D01*
X94949292Y-68740839D01*
X94949288Y-68740836D01*
X94818185Y-68653235D01*
X94818172Y-68653228D01*
X94672501Y-68592890D01*
X94672489Y-68592887D01*
X94517845Y-68562126D01*
X94517842Y-68562126D01*
X94360158Y-68562126D01*
X94360155Y-68562126D01*
X94205510Y-68592887D01*
X94205498Y-68592890D01*
X94059827Y-68653228D01*
X94059814Y-68653235D01*
X93928711Y-68740836D01*
X93928707Y-68740839D01*
X93817213Y-68852333D01*
X93817210Y-68852337D01*
X93729609Y-68983440D01*
X93729602Y-68983453D01*
X93669264Y-69129124D01*
X93669261Y-69129136D01*
X93638500Y-69283779D01*
X93638500Y-69441472D01*
X93669261Y-69596115D01*
X93669264Y-69596127D01*
X93729602Y-69741798D01*
X93729609Y-69741811D01*
X93817210Y-69872914D01*
X93817213Y-69872918D01*
X93928707Y-69984412D01*
X93928711Y-69984415D01*
X94059814Y-70072016D01*
X94059827Y-70072023D01*
X94146398Y-70107881D01*
X94205503Y-70132363D01*
X94205506Y-70132363D01*
X94211338Y-70134133D01*
X94210492Y-70136920D01*
X94261379Y-70163377D01*
X94296105Y-70224006D01*
X94299500Y-70252824D01*
X94299500Y-74790201D01*
X94279815Y-74857240D01*
X94240598Y-74895739D01*
X94181344Y-74932287D01*
X94057289Y-75056342D01*
X93965187Y-75205663D01*
X93965185Y-75205668D01*
X93957738Y-75228142D01*
X93910001Y-75372203D01*
X93910001Y-75372204D01*
X93910000Y-75372204D01*
X93899500Y-75474983D01*
X93899500Y-76525001D01*
X93899501Y-76525019D01*
X93910000Y-76627796D01*
X93910001Y-76627799D01*
X93965185Y-76794331D01*
X93965186Y-76794334D01*
X94057288Y-76943656D01*
X94181344Y-77067712D01*
X94330666Y-77159814D01*
X94364500Y-77171025D01*
X94421947Y-77210796D01*
X94448772Y-77275311D01*
X94449500Y-77288732D01*
X94449500Y-78329191D01*
X94429815Y-78396230D01*
X94413181Y-78416872D01*
X94381923Y-78448129D01*
X94381917Y-78448137D01*
X94298255Y-78589603D01*
X94298254Y-78589606D01*
X94252402Y-78747426D01*
X94252401Y-78747432D01*
X94249500Y-78784298D01*
X94249500Y-79940701D01*
X94252401Y-79977567D01*
X94252402Y-79977573D01*
X94298254Y-80135393D01*
X94298255Y-80135396D01*
X94381917Y-80276862D01*
X94381923Y-80276870D01*
X94498129Y-80393076D01*
X94498140Y-80393085D01*
X94498455Y-80393271D01*
X94498650Y-80393480D01*
X94504298Y-80397861D01*
X94503591Y-80398772D01*
X94546136Y-80444343D01*
X94558637Y-80513085D01*
X94531988Y-80577673D01*
X94504078Y-80601856D01*
X94504298Y-80602139D01*
X94499092Y-80606176D01*
X94498455Y-80606729D01*
X94498140Y-80606914D01*
X94498129Y-80606923D01*
X94381923Y-80723129D01*
X94381917Y-80723137D01*
X94298255Y-80864603D01*
X94298254Y-80864606D01*
X94252402Y-81022426D01*
X94252401Y-81022432D01*
X94249500Y-81059298D01*
X94249500Y-82215701D01*
X94252401Y-82252567D01*
X94252402Y-82252573D01*
X94298254Y-82410393D01*
X94298255Y-82410396D01*
X94381917Y-82551862D01*
X94381923Y-82551870D01*
X94498129Y-82668076D01*
X94498138Y-82668083D01*
X94639593Y-82751739D01*
X94639595Y-82751739D01*
X94639602Y-82751744D01*
X94639609Y-82751746D01*
X94640632Y-82752189D01*
X94642504Y-82753461D01*
X94646317Y-82755716D01*
X94646175Y-82755955D01*
X94646599Y-82756243D01*
X94650821Y-82757162D01*
X94679047Y-82778291D01*
X94679074Y-82778309D01*
X94681284Y-82780519D01*
X94681286Y-82780520D01*
X94688351Y-82787585D01*
X94688352Y-82787587D01*
X94688355Y-82787589D01*
X95265140Y-83364374D01*
X95265150Y-83364385D01*
X95269480Y-83368715D01*
X95269481Y-83368716D01*
X95381285Y-83480520D01*
X95468096Y-83530639D01*
X95468098Y-83530641D01*
X95506152Y-83552611D01*
X95518216Y-83559577D01*
X95670944Y-83600501D01*
X95670947Y-83600501D01*
X95836654Y-83600501D01*
X95836670Y-83600500D01*
X95878315Y-83600500D01*
X95945354Y-83620185D01*
X95991109Y-83672989D01*
X96001053Y-83742147D01*
X95996022Y-83763497D01*
X95960001Y-83872203D01*
X95960001Y-83872204D01*
X95960000Y-83872204D01*
X95949500Y-83974983D01*
X95949500Y-85025001D01*
X95949501Y-85025019D01*
X95960000Y-85127796D01*
X95960001Y-85127799D01*
X96015185Y-85294331D01*
X96015187Y-85294336D01*
X96050069Y-85350888D01*
X96107288Y-85443656D01*
X96231344Y-85567712D01*
X96380666Y-85659814D01*
X96547203Y-85714999D01*
X96649991Y-85725500D01*
X97250008Y-85725499D01*
X97352797Y-85714999D01*
X97352800Y-85714997D01*
X97355932Y-85714678D01*
X97400624Y-85718260D01*
X97520943Y-85750501D01*
X97520946Y-85750501D01*
X97686653Y-85750501D01*
X97686669Y-85750500D01*
X99524903Y-85750500D01*
X99591942Y-85770185D01*
X99612584Y-85786819D01*
X103363181Y-89537416D01*
X103396666Y-89598739D01*
X103399500Y-89625097D01*
X103399500Y-90950001D01*
X103399501Y-90950018D01*
X103410000Y-91052796D01*
X103410001Y-91052799D01*
X103465185Y-91219331D01*
X103465187Y-91219336D01*
X103557289Y-91368657D01*
X103650951Y-91462319D01*
X103684436Y-91523642D01*
X103679452Y-91593334D01*
X103650951Y-91637681D01*
X103557289Y-91731342D01*
X103465187Y-91880663D01*
X103465185Y-91880668D01*
X103455286Y-91910542D01*
X103410001Y-92047203D01*
X103410001Y-92047204D01*
X103410000Y-92047204D01*
X103399500Y-92149983D01*
X103399500Y-94450001D01*
X103399501Y-94450018D01*
X103410000Y-94552796D01*
X103410001Y-94552799D01*
X103460854Y-94706260D01*
X103465186Y-94719334D01*
X103557288Y-94868656D01*
X103681344Y-94992712D01*
X103830666Y-95084814D01*
X103997203Y-95139999D01*
X104099991Y-95150500D01*
X104850008Y-95150499D01*
X104850016Y-95150498D01*
X104850019Y-95150498D01*
X104906302Y-95144748D01*
X104952797Y-95139999D01*
X105119334Y-95084814D01*
X105181383Y-95046541D01*
X105248775Y-95028101D01*
X105315439Y-95049023D01*
X105360208Y-95102665D01*
X105368870Y-95171996D01*
X105350489Y-95214299D01*
X105352836Y-95215687D01*
X105267131Y-95360606D01*
X105267129Y-95360611D01*
X105222335Y-95514791D01*
X105222334Y-95514797D01*
X105219500Y-95550811D01*
X105219500Y-96049169D01*
X105219501Y-96049191D01*
X105222335Y-96085205D01*
X105267129Y-96239388D01*
X105267131Y-96239393D01*
X105348863Y-96377595D01*
X105348869Y-96377603D01*
X105462396Y-96491130D01*
X105462400Y-96491133D01*
X105462402Y-96491135D01*
X105600607Y-96572869D01*
X105600614Y-96572871D01*
X105754791Y-96617664D01*
X105754794Y-96617664D01*
X105754796Y-96617665D01*
X105790819Y-96620500D01*
X106189180Y-96620499D01*
X106225204Y-96617665D01*
X106379393Y-96572869D01*
X106436882Y-96538869D01*
X106504602Y-96521688D01*
X106563117Y-96538869D01*
X106620607Y-96572869D01*
X106620610Y-96572869D01*
X106620612Y-96572871D01*
X106774791Y-96617664D01*
X106774794Y-96617664D01*
X106774796Y-96617665D01*
X106810819Y-96620500D01*
X107209180Y-96620499D01*
X107245204Y-96617665D01*
X107399393Y-96572869D01*
X107436879Y-96550699D01*
X107504602Y-96533516D01*
X107563120Y-96550699D01*
X107600607Y-96572869D01*
X107600614Y-96572871D01*
X107754791Y-96617664D01*
X107754794Y-96617664D01*
X107754796Y-96617665D01*
X107790819Y-96620500D01*
X108189180Y-96620499D01*
X108225204Y-96617665D01*
X108379393Y-96572869D01*
X108517598Y-96491135D01*
X108631135Y-96377598D01*
X108712869Y-96239393D01*
X108757665Y-96085204D01*
X108760500Y-96049181D01*
X108760499Y-95550820D01*
X108757665Y-95514796D01*
X108712869Y-95360607D01*
X108631135Y-95222402D01*
X108631133Y-95222400D01*
X108631130Y-95222396D01*
X108517603Y-95108869D01*
X108517595Y-95108863D01*
X108379393Y-95027131D01*
X108379388Y-95027129D01*
X108225208Y-94982335D01*
X108225202Y-94982334D01*
X108189188Y-94979500D01*
X108189181Y-94979500D01*
X108070097Y-94979500D01*
X108040656Y-94970855D01*
X108010670Y-94964332D01*
X108005654Y-94960577D01*
X108003058Y-94959815D01*
X107982416Y-94943181D01*
X107806818Y-94767583D01*
X107773333Y-94706260D01*
X107770499Y-94679902D01*
X107770499Y-94181956D01*
X107770499Y-94181950D01*
X107759875Y-94093474D01*
X107759872Y-94093468D01*
X107757927Y-94085768D01*
X107760937Y-94085006D01*
X107755969Y-94029888D01*
X107788314Y-93967956D01*
X107849007Y-93933342D01*
X107877602Y-93930000D01*
X108912398Y-93930000D01*
X108979437Y-93949685D01*
X109025192Y-94002489D01*
X109035136Y-94071647D01*
X109031436Y-94085601D01*
X109032074Y-94085763D01*
X109030124Y-94093474D01*
X109019500Y-94181948D01*
X109019500Y-94868043D01*
X109030125Y-94956526D01*
X109030126Y-94956529D01*
X109085644Y-95097313D01*
X109085647Y-95097319D01*
X109177088Y-95217904D01*
X109177092Y-95217908D01*
X109218252Y-95249120D01*
X109231000Y-95260235D01*
X109326284Y-95355519D01*
X109326286Y-95355520D01*
X110451285Y-96480520D01*
X110451287Y-96480521D01*
X110451291Y-96480524D01*
X110552353Y-96538871D01*
X110588217Y-96559577D01*
X110740944Y-96600501D01*
X110740946Y-96600501D01*
X110906655Y-96600501D01*
X110906671Y-96600500D01*
X110920234Y-96600500D01*
X110987273Y-96620185D01*
X110989125Y-96621398D01*
X111120814Y-96709390D01*
X111120827Y-96709397D01*
X111266498Y-96769735D01*
X111266503Y-96769737D01*
X111421153Y-96800499D01*
X111421156Y-96800500D01*
X111421158Y-96800500D01*
X111578844Y-96800500D01*
X111578845Y-96800499D01*
X111733497Y-96769737D01*
X111879179Y-96709394D01*
X112010289Y-96621789D01*
X112121789Y-96510289D01*
X112209394Y-96379179D01*
X112269737Y-96233497D01*
X112300500Y-96078842D01*
X112300500Y-95921158D01*
X112300500Y-95921155D01*
X112300499Y-95921153D01*
X112269738Y-95766510D01*
X112269737Y-95766503D01*
X112225709Y-95660208D01*
X112209397Y-95620827D01*
X112209390Y-95620814D01*
X112121789Y-95489711D01*
X112121786Y-95489707D01*
X112010292Y-95378213D01*
X112010288Y-95378210D01*
X111879185Y-95290609D01*
X111879172Y-95290602D01*
X111733501Y-95230264D01*
X111733489Y-95230261D01*
X111578845Y-95199500D01*
X111578842Y-95199500D01*
X111496268Y-95199500D01*
X111429229Y-95179815D01*
X111383474Y-95127011D01*
X111373530Y-95057853D01*
X111380913Y-95030010D01*
X111381666Y-95028101D01*
X111409877Y-94956564D01*
X111420500Y-94868102D01*
X111420500Y-94715936D01*
X111440185Y-94648897D01*
X111492989Y-94603142D01*
X111562147Y-94593198D01*
X111625703Y-94622223D01*
X111650039Y-94650840D01*
X111699644Y-94731264D01*
X111707288Y-94743656D01*
X111831344Y-94867712D01*
X111980666Y-94959814D01*
X112147203Y-95014999D01*
X112249991Y-95025500D01*
X112850008Y-95025499D01*
X112850016Y-95025498D01*
X112850019Y-95025498D01*
X112906302Y-95019748D01*
X112952797Y-95014999D01*
X113119334Y-94959814D01*
X113268656Y-94867712D01*
X113392712Y-94743656D01*
X113484814Y-94594334D01*
X113539999Y-94427797D01*
X113550500Y-94325009D01*
X113550499Y-93700095D01*
X113570183Y-93633057D01*
X113586813Y-93612420D01*
X114562416Y-92636819D01*
X114623739Y-92603334D01*
X114650097Y-92600500D01*
X115775500Y-92600500D01*
X115842539Y-92620185D01*
X115888294Y-92672989D01*
X115899500Y-92724500D01*
X115899500Y-93225962D01*
X115903650Y-93252164D01*
X115938910Y-93474786D01*
X115938910Y-93474789D01*
X115981110Y-93604665D01*
X115983105Y-93674506D01*
X115950860Y-93730664D01*
X111888345Y-97793181D01*
X111827022Y-97826666D01*
X111800664Y-97829500D01*
X95404397Y-97829500D01*
X95337358Y-97809815D01*
X95291603Y-97757011D01*
X95281659Y-97687853D01*
X95310684Y-97624297D01*
X95331512Y-97605181D01*
X95379792Y-97570104D01*
X95530104Y-97419792D01*
X95530106Y-97419788D01*
X95530109Y-97419786D01*
X95588661Y-97339193D01*
X95655051Y-97247816D01*
X95655349Y-97247230D01*
X95675235Y-97208205D01*
X95685683Y-97197142D01*
X95692006Y-97183297D01*
X95709187Y-97172255D01*
X95723209Y-97157409D01*
X95738888Y-97153167D01*
X95750784Y-97145523D01*
X95785719Y-97140500D01*
X95873331Y-97140500D01*
X95873347Y-97140501D01*
X95880943Y-97140501D01*
X96039054Y-97140501D01*
X96039057Y-97140501D01*
X96191785Y-97099577D01*
X96241904Y-97070639D01*
X96328716Y-97020520D01*
X96440520Y-96908716D01*
X96440520Y-96908714D01*
X96450728Y-96898507D01*
X96450729Y-96898504D01*
X99514662Y-93834572D01*
X99575983Y-93801089D01*
X99578150Y-93800638D01*
X99636085Y-93789113D01*
X99733497Y-93769737D01*
X99846166Y-93723067D01*
X99879172Y-93709397D01*
X99879172Y-93709396D01*
X99879179Y-93709394D01*
X100010289Y-93621789D01*
X100121789Y-93510289D01*
X100209394Y-93379179D01*
X100269737Y-93233497D01*
X100300500Y-93078842D01*
X100300500Y-92921158D01*
X100300500Y-92921155D01*
X100300499Y-92921153D01*
X100269737Y-92766503D01*
X100269735Y-92766498D01*
X100209397Y-92620827D01*
X100209390Y-92620814D01*
X100121789Y-92489711D01*
X100121786Y-92489707D01*
X100010292Y-92378213D01*
X100010288Y-92378210D01*
X99879185Y-92290609D01*
X99879172Y-92290602D01*
X99733501Y-92230264D01*
X99733489Y-92230261D01*
X99578845Y-92199500D01*
X99578842Y-92199500D01*
X99421158Y-92199500D01*
X99421155Y-92199500D01*
X99266510Y-92230261D01*
X99266498Y-92230264D01*
X99120827Y-92290602D01*
X99120814Y-92290609D01*
X98989711Y-92378210D01*
X98989707Y-92378213D01*
X98878213Y-92489707D01*
X98878210Y-92489711D01*
X98790609Y-92620814D01*
X98790602Y-92620827D01*
X98730264Y-92766498D01*
X98730261Y-92766508D01*
X98699361Y-92921850D01*
X98666976Y-92983761D01*
X98665425Y-92985339D01*
X95826527Y-95824237D01*
X95765204Y-95857722D01*
X95695512Y-95852738D01*
X95639579Y-95810866D01*
X95638528Y-95809441D01*
X95530109Y-95660213D01*
X95379786Y-95509890D01*
X95207820Y-95384951D01*
X95018414Y-95288444D01*
X95018413Y-95288443D01*
X95018412Y-95288443D01*
X94816243Y-95222754D01*
X94816241Y-95222753D01*
X94816240Y-95222753D01*
X94654957Y-95197208D01*
X94606287Y-95189500D01*
X94393713Y-95189500D01*
X94345042Y-95197208D01*
X94183760Y-95222753D01*
X93981585Y-95288444D01*
X93792179Y-95384951D01*
X93620213Y-95509890D01*
X93469890Y-95660213D01*
X93344951Y-95832179D01*
X93248444Y-96021585D01*
X93182753Y-96223760D01*
X93158137Y-96379179D01*
X93149500Y-96433713D01*
X93149500Y-96646287D01*
X93182754Y-96856243D01*
X93196486Y-96898507D01*
X93248444Y-97058414D01*
X93344951Y-97247820D01*
X93469890Y-97419786D01*
X93620213Y-97570109D01*
X93792182Y-97695050D01*
X93800946Y-97699516D01*
X93851742Y-97747491D01*
X93868536Y-97815312D01*
X93845998Y-97881447D01*
X93800946Y-97920484D01*
X93792182Y-97924949D01*
X93620213Y-98049890D01*
X93469890Y-98200213D01*
X93344951Y-98372179D01*
X93248444Y-98561585D01*
X93182753Y-98763760D01*
X93149500Y-98973713D01*
X93149500Y-99186286D01*
X93182753Y-99396239D01*
X93248444Y-99598414D01*
X93344951Y-99787820D01*
X93469890Y-99959786D01*
X93620213Y-100110109D01*
X93792179Y-100235048D01*
X93792181Y-100235049D01*
X93792184Y-100235051D01*
X93981588Y-100331557D01*
X94183757Y-100397246D01*
X94393713Y-100430500D01*
X94393714Y-100430500D01*
X94606286Y-100430500D01*
X94606287Y-100430500D01*
X94816243Y-100397246D01*
X94947226Y-100354686D01*
X95002988Y-100336569D01*
X95041306Y-100330500D01*
X112468422Y-100330500D01*
X112662826Y-100299709D01*
X112850026Y-100238884D01*
X113025405Y-100149524D01*
X113184646Y-100033828D01*
X118453829Y-94764645D01*
X118569524Y-94605405D01*
X118658884Y-94430026D01*
X118719709Y-94242826D01*
X118735037Y-94146039D01*
X118757189Y-94092559D01*
X118868870Y-93938845D01*
X118983241Y-93714379D01*
X119061090Y-93474785D01*
X119100500Y-93225962D01*
X119100500Y-90774038D01*
X119061090Y-90525215D01*
X118983241Y-90285621D01*
X118983239Y-90285618D01*
X118983239Y-90285616D01*
X118923644Y-90168656D01*
X118868870Y-90061155D01*
X118849952Y-90035117D01*
X118720798Y-89857350D01*
X118720794Y-89857345D01*
X118542654Y-89679205D01*
X118542649Y-89679201D01*
X118338848Y-89531132D01*
X118338847Y-89531131D01*
X118338845Y-89531130D01*
X118268747Y-89495413D01*
X118114383Y-89416760D01*
X117874785Y-89338910D01*
X117625962Y-89299500D01*
X117374038Y-89299500D01*
X117249626Y-89319205D01*
X117125214Y-89338910D01*
X116885616Y-89416760D01*
X116661155Y-89531129D01*
X116584202Y-89587039D01*
X116518395Y-89610518D01*
X116450341Y-89594692D01*
X116423636Y-89574401D01*
X115937590Y-89088355D01*
X115937588Y-89088352D01*
X115818717Y-88969481D01*
X115818709Y-88969475D01*
X115699241Y-88900501D01*
X115699238Y-88900500D01*
X115681785Y-88890423D01*
X115529057Y-88849499D01*
X115370943Y-88849499D01*
X115363347Y-88849499D01*
X115363331Y-88849500D01*
X114709798Y-88849500D01*
X114642759Y-88829815D01*
X114604259Y-88790597D01*
X114595878Y-88777009D01*
X114567712Y-88731344D01*
X114443656Y-88607288D01*
X114294334Y-88515186D01*
X114127797Y-88460001D01*
X114127795Y-88460000D01*
X114025010Y-88449500D01*
X112974998Y-88449500D01*
X112974980Y-88449501D01*
X112872203Y-88460000D01*
X112872200Y-88460001D01*
X112705668Y-88515185D01*
X112705663Y-88515187D01*
X112556342Y-88607289D01*
X112432289Y-88731342D01*
X112432288Y-88731344D01*
X112404129Y-88776998D01*
X112395741Y-88790597D01*
X112343793Y-88837321D01*
X112290202Y-88849500D01*
X111481668Y-88849500D01*
X111474060Y-88849499D01*
X111474057Y-88849499D01*
X111394499Y-88849499D01*
X111327459Y-88829814D01*
X111281705Y-88777009D01*
X111281703Y-88776998D01*
X111270500Y-88725499D01*
X111270500Y-88627513D01*
X111275424Y-88592916D01*
X111277665Y-88585204D01*
X111280500Y-88549181D01*
X111280499Y-88050820D01*
X111277665Y-88014796D01*
X111232869Y-87860607D01*
X111151135Y-87722402D01*
X111151133Y-87722400D01*
X111151130Y-87722396D01*
X111037603Y-87608869D01*
X111037595Y-87608863D01*
X110899393Y-87527131D01*
X110899388Y-87527129D01*
X110745208Y-87482335D01*
X110745202Y-87482334D01*
X110709181Y-87479500D01*
X110310830Y-87479500D01*
X110310808Y-87479501D01*
X110274794Y-87482335D01*
X110120611Y-87527129D01*
X110120604Y-87527132D01*
X110063119Y-87561128D01*
X110052349Y-87563860D01*
X110043461Y-87570529D01*
X110019083Y-87572299D01*
X109995395Y-87578309D01*
X109983038Y-87574917D01*
X109973775Y-87575590D01*
X109946402Y-87564860D01*
X109940693Y-87563293D01*
X109938762Y-87562241D01*
X109879393Y-87527131D01*
X109868462Y-87523955D01*
X109856659Y-87517527D01*
X109841055Y-87501957D01*
X109822481Y-87490094D01*
X109816808Y-87477764D01*
X109807199Y-87468176D01*
X109802489Y-87446642D01*
X109793278Y-87426620D01*
X109795172Y-87413180D01*
X109792272Y-87399919D01*
X109799952Y-87379257D01*
X109803028Y-87357434D01*
X109813906Y-87341718D01*
X109816617Y-87334428D01*
X109821478Y-87330780D01*
X109828282Y-87320951D01*
X109967331Y-87181902D01*
X117999500Y-87181902D01*
X117999500Y-87418097D01*
X118036446Y-87651368D01*
X118109433Y-87875996D01*
X118180155Y-88014794D01*
X118216657Y-88086433D01*
X118355483Y-88277510D01*
X118522490Y-88444517D01*
X118713567Y-88583343D01*
X118800256Y-88627513D01*
X118924003Y-88690566D01*
X118924005Y-88690566D01*
X118924008Y-88690568D01*
X119031514Y-88725499D01*
X119148631Y-88763553D01*
X119381903Y-88800500D01*
X119381908Y-88800500D01*
X121618097Y-88800500D01*
X121851368Y-88763553D01*
X122075992Y-88690568D01*
X122286433Y-88583343D01*
X122477510Y-88444517D01*
X122644517Y-88277510D01*
X122783343Y-88086433D01*
X122890568Y-87875992D01*
X122963553Y-87651368D01*
X122971933Y-87598457D01*
X123000500Y-87418097D01*
X123000500Y-87181902D01*
X122963553Y-86948631D01*
X122915422Y-86800500D01*
X122890568Y-86724008D01*
X122890566Y-86724005D01*
X122890566Y-86724003D01*
X122783342Y-86513566D01*
X122644517Y-86322490D01*
X122477510Y-86155483D01*
X122286433Y-86016657D01*
X122075996Y-85909433D01*
X121851368Y-85836446D01*
X121618097Y-85799500D01*
X121618092Y-85799500D01*
X119381908Y-85799500D01*
X119381903Y-85799500D01*
X119148631Y-85836446D01*
X118924003Y-85909433D01*
X118713566Y-86016657D01*
X118627977Y-86078842D01*
X118522490Y-86155483D01*
X118522488Y-86155485D01*
X118522487Y-86155485D01*
X118355485Y-86322487D01*
X118355485Y-86322488D01*
X118355483Y-86322490D01*
X118314301Y-86379172D01*
X118216657Y-86513566D01*
X118109433Y-86724003D01*
X118036446Y-86948631D01*
X117999500Y-87181902D01*
X109967331Y-87181902D01*
X110440374Y-86708859D01*
X110501695Y-86675376D01*
X110571387Y-86680360D01*
X110596945Y-86693441D01*
X110620812Y-86709389D01*
X110620827Y-86709397D01*
X110766498Y-86769735D01*
X110766503Y-86769737D01*
X110921153Y-86800499D01*
X110921156Y-86800500D01*
X110921158Y-86800500D01*
X111078844Y-86800500D01*
X111078845Y-86800499D01*
X111233497Y-86769737D01*
X111379179Y-86709394D01*
X111510289Y-86621789D01*
X111621789Y-86510289D01*
X111709394Y-86379179D01*
X111769737Y-86233497D01*
X111800500Y-86078842D01*
X111800500Y-85921158D01*
X111800500Y-85921155D01*
X111800499Y-85921153D01*
X111783650Y-85836447D01*
X111769737Y-85766503D01*
X111763109Y-85750501D01*
X111709397Y-85620827D01*
X111709390Y-85620814D01*
X111621789Y-85489711D01*
X111621786Y-85489707D01*
X111510292Y-85378213D01*
X111510288Y-85378210D01*
X111379185Y-85290609D01*
X111379172Y-85290602D01*
X111233501Y-85230264D01*
X111233489Y-85230261D01*
X111078845Y-85199500D01*
X111078842Y-85199500D01*
X110921158Y-85199500D01*
X110921155Y-85199500D01*
X110766510Y-85230261D01*
X110766498Y-85230264D01*
X110620827Y-85290602D01*
X110620814Y-85290609D01*
X110489125Y-85378602D01*
X110422447Y-85399480D01*
X110420234Y-85399500D01*
X110379057Y-85399500D01*
X110220942Y-85399500D01*
X110068215Y-85440423D01*
X110068214Y-85440423D01*
X110068212Y-85440424D01*
X110068209Y-85440425D01*
X110018096Y-85469359D01*
X110018093Y-85469361D01*
X109974388Y-85494593D01*
X109906488Y-85511064D01*
X109840461Y-85488211D01*
X109797272Y-85433289D01*
X109790631Y-85363736D01*
X109822649Y-85301634D01*
X109824667Y-85299566D01*
X109858506Y-85265728D01*
X109858511Y-85265724D01*
X109868714Y-85255520D01*
X109868716Y-85255520D01*
X109980520Y-85143716D01*
X110049054Y-85025011D01*
X110049055Y-85025010D01*
X110053324Y-85017614D01*
X110059577Y-85006785D01*
X110100500Y-84854057D01*
X110100500Y-84695943D01*
X110100500Y-81639060D01*
X110100501Y-81639047D01*
X110100501Y-81470945D01*
X110100501Y-81470943D01*
X110059577Y-81318215D01*
X109980520Y-81181284D01*
X108250573Y-79451338D01*
X108217089Y-79390016D01*
X108219179Y-79329062D01*
X108237352Y-79266510D01*
X108247598Y-79231245D01*
X108250500Y-79194370D01*
X108250500Y-78037982D01*
X108247598Y-78001107D01*
X108232396Y-77948783D01*
X108201745Y-77843282D01*
X108201744Y-77843279D01*
X108201744Y-77843278D01*
X108118081Y-77701811D01*
X108118079Y-77701809D01*
X108118076Y-77701805D01*
X108001870Y-77585599D01*
X108001867Y-77585597D01*
X108001865Y-77585595D01*
X108001549Y-77585408D01*
X108001353Y-77585198D01*
X107995702Y-77580815D01*
X107996409Y-77579903D01*
X107953866Y-77534340D01*
X107941362Y-77465599D01*
X107968006Y-77401009D01*
X107995921Y-77376820D01*
X107995702Y-77376537D01*
X108000911Y-77372496D01*
X108001550Y-77371943D01*
X108001865Y-77371757D01*
X108118081Y-77255541D01*
X108201744Y-77114074D01*
X108247598Y-76956245D01*
X108250500Y-76919370D01*
X108250500Y-75762982D01*
X108247598Y-75726107D01*
X108201744Y-75568278D01*
X108118081Y-75426811D01*
X108118079Y-75426809D01*
X108118076Y-75426805D01*
X108001870Y-75310599D01*
X108001862Y-75310593D01*
X107890934Y-75244991D01*
X107860398Y-75226932D01*
X107860397Y-75226931D01*
X107860396Y-75226931D01*
X107860393Y-75226930D01*
X107702573Y-75181078D01*
X107702567Y-75181077D01*
X107665701Y-75178176D01*
X107665694Y-75178176D01*
X107234306Y-75178176D01*
X107234298Y-75178176D01*
X107197432Y-75181077D01*
X107197426Y-75181078D01*
X107039606Y-75226930D01*
X107039605Y-75226930D01*
X107039602Y-75226932D01*
X107038118Y-75227809D01*
X107036804Y-75228142D01*
X107032446Y-75230029D01*
X107032141Y-75229325D01*
X106970396Y-75244991D01*
X106917766Y-75229537D01*
X106917554Y-75230029D01*
X106913573Y-75228306D01*
X106911881Y-75227809D01*
X106910398Y-75226932D01*
X106910394Y-75226931D01*
X106910393Y-75226930D01*
X106752573Y-75181078D01*
X106752568Y-75181077D01*
X106719742Y-75178494D01*
X106706859Y-75173583D01*
X106693076Y-75173414D01*
X106670022Y-75159543D01*
X106654454Y-75153609D01*
X106649902Y-75147436D01*
X106641792Y-75142557D01*
X106527592Y-75028357D01*
X106494107Y-74967034D01*
X106499091Y-74897342D01*
X106540963Y-74841409D01*
X106606427Y-74816992D01*
X106609646Y-74816876D01*
X106612698Y-74816676D01*
X106612720Y-74816676D01*
X106725236Y-74801863D01*
X106725236Y-74801862D01*
X106733295Y-74800802D01*
X106733698Y-74803865D01*
X106766302Y-74803865D01*
X106766705Y-74800802D01*
X106774763Y-74801862D01*
X106774764Y-74801863D01*
X106887280Y-74816676D01*
X106887287Y-74816676D01*
X107112713Y-74816676D01*
X107112720Y-74816676D01*
X107225236Y-74801863D01*
X107225236Y-74801862D01*
X107233295Y-74800802D01*
X107233698Y-74803865D01*
X107266302Y-74803865D01*
X107266705Y-74800802D01*
X107274763Y-74801862D01*
X107274764Y-74801863D01*
X107387280Y-74816676D01*
X107387287Y-74816676D01*
X107612713Y-74816676D01*
X107612720Y-74816676D01*
X107725236Y-74801863D01*
X107725236Y-74801862D01*
X107733295Y-74800802D01*
X107733698Y-74803865D01*
X107766302Y-74803865D01*
X107766705Y-74800802D01*
X107774763Y-74801862D01*
X107774764Y-74801863D01*
X107887280Y-74816676D01*
X107887287Y-74816676D01*
X108112713Y-74816676D01*
X108112720Y-74816676D01*
X108225236Y-74801863D01*
X108225236Y-74801862D01*
X108233295Y-74800802D01*
X108233698Y-74803865D01*
X108266302Y-74803865D01*
X108266705Y-74800802D01*
X108274763Y-74801862D01*
X108274764Y-74801863D01*
X108387280Y-74816676D01*
X108387287Y-74816676D01*
X108612713Y-74816676D01*
X108612720Y-74816676D01*
X108725236Y-74801863D01*
X108725236Y-74801862D01*
X108733295Y-74800802D01*
X108733698Y-74803865D01*
X108766302Y-74803865D01*
X108766705Y-74800802D01*
X108774763Y-74801862D01*
X108774764Y-74801863D01*
X108887280Y-74816676D01*
X108887287Y-74816676D01*
X109112713Y-74816676D01*
X109112720Y-74816676D01*
X109225236Y-74801863D01*
X109225236Y-74801862D01*
X109233295Y-74800802D01*
X109233698Y-74803865D01*
X109266302Y-74803865D01*
X109266705Y-74800802D01*
X109274763Y-74801862D01*
X109274764Y-74801863D01*
X109387280Y-74816676D01*
X109387287Y-74816676D01*
X109612713Y-74816676D01*
X109612720Y-74816676D01*
X109725236Y-74801863D01*
X109725236Y-74801862D01*
X109733295Y-74800802D01*
X109733698Y-74803865D01*
X109766302Y-74803865D01*
X109766705Y-74800802D01*
X109774763Y-74801862D01*
X109774764Y-74801863D01*
X109887280Y-74816676D01*
X109887287Y-74816676D01*
X110112713Y-74816676D01*
X110112720Y-74816676D01*
X110225236Y-74801863D01*
X110225236Y-74801862D01*
X110233295Y-74800802D01*
X110233698Y-74803865D01*
X110266302Y-74803865D01*
X110266705Y-74800802D01*
X110274763Y-74801862D01*
X110274764Y-74801863D01*
X110387280Y-74816676D01*
X110387287Y-74816676D01*
X110612713Y-74816676D01*
X110612720Y-74816676D01*
X110725236Y-74801863D01*
X110725236Y-74801862D01*
X110733295Y-74800802D01*
X110733698Y-74803865D01*
X110766302Y-74803865D01*
X110766705Y-74800802D01*
X110774763Y-74801862D01*
X110774764Y-74801863D01*
X110887280Y-74816676D01*
X110887287Y-74816676D01*
X111112713Y-74816676D01*
X111112720Y-74816676D01*
X111225236Y-74801863D01*
X111225236Y-74801862D01*
X111233295Y-74800802D01*
X111233496Y-74802330D01*
X111258486Y-74799892D01*
X111272291Y-74800838D01*
X111274764Y-74801863D01*
X111387280Y-74816676D01*
X111503175Y-74816676D01*
X111507417Y-74816967D01*
X111536363Y-74827667D01*
X111565970Y-74836361D01*
X111568839Y-74839672D01*
X111572952Y-74841193D01*
X111591522Y-74865849D01*
X111611725Y-74889165D01*
X111612348Y-74893502D01*
X111614986Y-74897004D01*
X111617276Y-74927776D01*
X111621669Y-74958323D01*
X111619911Y-74963171D01*
X111620173Y-74966681D01*
X111615548Y-74975209D01*
X111604470Y-75005773D01*
X111587998Y-75032476D01*
X111587996Y-75032481D01*
X111534651Y-75193466D01*
X111524500Y-75292823D01*
X111524500Y-75839513D01*
X111524501Y-75839531D01*
X111534650Y-75938883D01*
X111534651Y-75938886D01*
X111587996Y-76099870D01*
X111588001Y-76099881D01*
X111677029Y-76244216D01*
X111677032Y-76244220D01*
X111796955Y-76364143D01*
X111796959Y-76364146D01*
X111941294Y-76453174D01*
X111941297Y-76453175D01*
X111941303Y-76453179D01*
X112102292Y-76506525D01*
X112201655Y-76516676D01*
X112664500Y-76516675D01*
X112731539Y-76536359D01*
X112777294Y-76589163D01*
X112788500Y-76640675D01*
X112788500Y-77569628D01*
X112768815Y-77636667D01*
X112752181Y-77657309D01*
X111546310Y-78863181D01*
X111484987Y-78896666D01*
X111458629Y-78899500D01*
X111079766Y-78899500D01*
X111012727Y-78879815D01*
X111010875Y-78878602D01*
X110879185Y-78790609D01*
X110879172Y-78790602D01*
X110733501Y-78730264D01*
X110733489Y-78730261D01*
X110578845Y-78699500D01*
X110578842Y-78699500D01*
X110421158Y-78699500D01*
X110421155Y-78699500D01*
X110266510Y-78730261D01*
X110266498Y-78730264D01*
X110120827Y-78790602D01*
X110120814Y-78790609D01*
X109989711Y-78878210D01*
X109989707Y-78878213D01*
X109878213Y-78989707D01*
X109878210Y-78989711D01*
X109790609Y-79120814D01*
X109790602Y-79120827D01*
X109730264Y-79266498D01*
X109730261Y-79266510D01*
X109699500Y-79421153D01*
X109699500Y-79578846D01*
X109730261Y-79733489D01*
X109730264Y-79733501D01*
X109790602Y-79879172D01*
X109790609Y-79879185D01*
X109878210Y-80010288D01*
X109878213Y-80010292D01*
X109989707Y-80121786D01*
X109989711Y-80121789D01*
X110120814Y-80209390D01*
X110120827Y-80209397D01*
X110266498Y-80269735D01*
X110266503Y-80269737D01*
X110421153Y-80300499D01*
X110421156Y-80300500D01*
X110421158Y-80300500D01*
X110578844Y-80300500D01*
X110578845Y-80300499D01*
X110733497Y-80269737D01*
X110879179Y-80209394D01*
X110989925Y-80135396D01*
X111010875Y-80121398D01*
X111077553Y-80100520D01*
X111079766Y-80100500D01*
X111672057Y-80100500D01*
X111672073Y-80100501D01*
X111679669Y-80100501D01*
X111837780Y-80100501D01*
X111837783Y-80100501D01*
X111990511Y-80059577D01*
X112040630Y-80030639D01*
X112127442Y-79980520D01*
X112239246Y-79868716D01*
X112239246Y-79868714D01*
X112249454Y-79858507D01*
X112249455Y-79858504D01*
X113869520Y-78238442D01*
X113948577Y-78101510D01*
X113989501Y-77948783D01*
X113989501Y-77790668D01*
X113989501Y-77783073D01*
X113989500Y-77783055D01*
X113989500Y-76272273D01*
X113998144Y-76242832D01*
X114004668Y-76212846D01*
X114008422Y-76207830D01*
X114009185Y-76205234D01*
X114025819Y-76184592D01*
X114032416Y-76177995D01*
X114093739Y-76144510D01*
X114120097Y-76141676D01*
X114234682Y-76141676D01*
X114234690Y-76141676D01*
X114270993Y-76138819D01*
X114270995Y-76138818D01*
X114270997Y-76138818D01*
X114311975Y-76126912D01*
X114426395Y-76093670D01*
X114565687Y-76011293D01*
X114680117Y-75896863D01*
X114762494Y-75757571D01*
X114807643Y-75602169D01*
X114810500Y-75565866D01*
X114810500Y-75156486D01*
X114807643Y-75120183D01*
X114798200Y-75087681D01*
X114765524Y-74975209D01*
X114762494Y-74964781D01*
X114680117Y-74825489D01*
X114680115Y-74825487D01*
X114680112Y-74825483D01*
X114636819Y-74782190D01*
X114622115Y-74755262D01*
X114605523Y-74729444D01*
X114604631Y-74723243D01*
X114603334Y-74720867D01*
X114600500Y-74694509D01*
X114600500Y-74501025D01*
X114609939Y-74453572D01*
X114635687Y-74391412D01*
X114650500Y-74278896D01*
X114650500Y-74240676D01*
X114670185Y-74173637D01*
X114722989Y-74127882D01*
X114774500Y-74116676D01*
X117444443Y-74116676D01*
X117511482Y-74136361D01*
X117513334Y-74137574D01*
X117620814Y-74209390D01*
X117620827Y-74209397D01*
X117766498Y-74269735D01*
X117766503Y-74269737D01*
X117921153Y-74300499D01*
X117921156Y-74300500D01*
X117921158Y-74300500D01*
X118078844Y-74300500D01*
X118078845Y-74300499D01*
X118233497Y-74269737D01*
X118379179Y-74209394D01*
X118510289Y-74121789D01*
X118621789Y-74010289D01*
X118709394Y-73879179D01*
X118769737Y-73733497D01*
X118800500Y-73578842D01*
X118800500Y-73449097D01*
X118820185Y-73382058D01*
X118872989Y-73336303D01*
X118942147Y-73326359D01*
X119005703Y-73355384D01*
X119012181Y-73361416D01*
X120325139Y-74674374D01*
X120325149Y-74674385D01*
X120329479Y-74678715D01*
X120329480Y-74678716D01*
X120441284Y-74790520D01*
X120441286Y-74790521D01*
X120441290Y-74790524D01*
X120501848Y-74825487D01*
X120501852Y-74825488D01*
X120501853Y-74825489D01*
X120529053Y-74841193D01*
X120578212Y-74869576D01*
X120578214Y-74869576D01*
X120578215Y-74869577D01*
X120730943Y-74910500D01*
X120889057Y-74910500D01*
X126364216Y-74910500D01*
X126431255Y-74930185D01*
X126451897Y-74946819D01*
X126592214Y-75087136D01*
X126592218Y-75087139D01*
X126756079Y-75196628D01*
X126756092Y-75196635D01*
X126921473Y-75265137D01*
X126938165Y-75272051D01*
X126938169Y-75272051D01*
X126938170Y-75272052D01*
X127131456Y-75310500D01*
X127131459Y-75310500D01*
X127328543Y-75310500D01*
X127458582Y-75284632D01*
X127521835Y-75272051D01*
X127703914Y-75196632D01*
X127867782Y-75087139D01*
X128007139Y-74947782D01*
X128116632Y-74783914D01*
X128192051Y-74601835D01*
X128230500Y-74408541D01*
X128230500Y-74211459D01*
X128230500Y-74211456D01*
X128192052Y-74018170D01*
X128192051Y-74018169D01*
X128192051Y-74018165D01*
X128188788Y-74010288D01*
X128116635Y-73836092D01*
X128116633Y-73836088D01*
X128116632Y-73836086D01*
X128084223Y-73787583D01*
X128055029Y-73743891D01*
X128034151Y-73677214D01*
X128052635Y-73609834D01*
X128055029Y-73606109D01*
X128067872Y-73586887D01*
X128116632Y-73513914D01*
X128192051Y-73331835D01*
X128230500Y-73138541D01*
X128230500Y-72941459D01*
X128224255Y-72910064D01*
X128230481Y-72840474D01*
X128273344Y-72785296D01*
X128339233Y-72762050D01*
X128370062Y-72764254D01*
X128388276Y-72767877D01*
X128401458Y-72770500D01*
X128401459Y-72770500D01*
X128598543Y-72770500D01*
X128728582Y-72744632D01*
X128791835Y-72732051D01*
X128973914Y-72656632D01*
X129137782Y-72547139D01*
X129277139Y-72407782D01*
X129386632Y-72243914D01*
X129398329Y-72215676D01*
X129437217Y-72121789D01*
X129462051Y-72061835D01*
X129498384Y-71879179D01*
X129500500Y-71868543D01*
X129500500Y-71671456D01*
X129462052Y-71478170D01*
X129462051Y-71478169D01*
X129462051Y-71478165D01*
X129452002Y-71453905D01*
X129386635Y-71296092D01*
X129386633Y-71296088D01*
X129386632Y-71296086D01*
X129372866Y-71275484D01*
X129325029Y-71203891D01*
X129304151Y-71137214D01*
X129322635Y-71069834D01*
X129325029Y-71066109D01*
X129354974Y-71021293D01*
X129386632Y-70973914D01*
X129462051Y-70791835D01*
X129485338Y-70674767D01*
X129500500Y-70598543D01*
X129500500Y-70401456D01*
X129462052Y-70208170D01*
X129462051Y-70208169D01*
X129462051Y-70208165D01*
X129462049Y-70208160D01*
X129386635Y-70026092D01*
X129386633Y-70026088D01*
X129386632Y-70026086D01*
X129325029Y-69933891D01*
X129304151Y-69867214D01*
X129322635Y-69799834D01*
X129325029Y-69796109D01*
X129361314Y-69741805D01*
X129386632Y-69703914D01*
X129462051Y-69521835D01*
X129483881Y-69412091D01*
X129500500Y-69328543D01*
X129500500Y-69131456D01*
X129462052Y-68938170D01*
X129462051Y-68938169D01*
X129462051Y-68938165D01*
X129437218Y-68878213D01*
X129386635Y-68756092D01*
X129386628Y-68756079D01*
X129277139Y-68592218D01*
X129277136Y-68592214D01*
X129137787Y-68452865D01*
X129137782Y-68452861D01*
X129134121Y-68450415D01*
X129089315Y-68396804D01*
X129083237Y-68379413D01*
X129059577Y-68291109D01*
X128980520Y-68154178D01*
X128457627Y-67631285D01*
X128457626Y-67631284D01*
X128345822Y-67519480D01*
X128259010Y-67469360D01*
X128259010Y-67469359D01*
X128259006Y-67469358D01*
X128208891Y-67440423D01*
X128056163Y-67399499D01*
X127898049Y-67399499D01*
X127890453Y-67399499D01*
X127890437Y-67399500D01*
X123300097Y-67399500D01*
X123233058Y-67379815D01*
X123212416Y-67363181D01*
X120002592Y-64153357D01*
X119969107Y-64092034D01*
X119974091Y-64022342D01*
X120015963Y-63966409D01*
X120081427Y-63941992D01*
X120090273Y-63941676D01*
X121230155Y-63941676D01*
X121230171Y-63941677D01*
X121237767Y-63941677D01*
X121395878Y-63941677D01*
X121395881Y-63941677D01*
X121548609Y-63900753D01*
X121604098Y-63868716D01*
X121685540Y-63821696D01*
X121797344Y-63709892D01*
X121797344Y-63709890D01*
X121807548Y-63699687D01*
X121807551Y-63699682D01*
X124251821Y-61255413D01*
X124313142Y-61221930D01*
X124382834Y-61226914D01*
X124438767Y-61268786D01*
X124463184Y-61334250D01*
X124463500Y-61343096D01*
X124463500Y-61977330D01*
X124463499Y-61977348D01*
X124463499Y-62143054D01*
X124463498Y-62143054D01*
X124468224Y-62160692D01*
X124504423Y-62295785D01*
X124504424Y-62295786D01*
X124519382Y-62321696D01*
X124519383Y-62321697D01*
X124583475Y-62432709D01*
X124583481Y-62432717D01*
X124702349Y-62551585D01*
X124702355Y-62551590D01*
X124739902Y-62589137D01*
X124773387Y-62650460D01*
X124775580Y-62689414D01*
X124774500Y-62699986D01*
X124774500Y-63300001D01*
X124774501Y-63300019D01*
X124785000Y-63402796D01*
X124785001Y-63402799D01*
X124840185Y-63569331D01*
X124840187Y-63569336D01*
X124848821Y-63583334D01*
X124932288Y-63718656D01*
X125056344Y-63842712D01*
X125205666Y-63934814D01*
X125372203Y-63989999D01*
X125474991Y-64000500D01*
X126525008Y-64000499D01*
X126525016Y-64000498D01*
X126525019Y-64000498D01*
X126586701Y-63994197D01*
X126627797Y-63989999D01*
X126794334Y-63934814D01*
X126943656Y-63842712D01*
X127067712Y-63718656D01*
X127159814Y-63569334D01*
X127214999Y-63402797D01*
X127225500Y-63300009D01*
X127225499Y-62699992D01*
X127224418Y-62689414D01*
X127214999Y-62597203D01*
X127214998Y-62597200D01*
X127204796Y-62566412D01*
X127159814Y-62430666D01*
X127067712Y-62281344D01*
X126943656Y-62157288D01*
X126810041Y-62074874D01*
X126794336Y-62065187D01*
X126794331Y-62065185D01*
X126792862Y-62064698D01*
X126627797Y-62010001D01*
X126627795Y-62010000D01*
X126525016Y-61999500D01*
X126525009Y-61999500D01*
X125900097Y-61999500D01*
X125870656Y-61990855D01*
X125840670Y-61984332D01*
X125835654Y-61980577D01*
X125833058Y-61979815D01*
X125812416Y-61963181D01*
X125700819Y-61851584D01*
X125667334Y-61790261D01*
X125664500Y-61763903D01*
X125664500Y-60149499D01*
X125684185Y-60082460D01*
X125736989Y-60036705D01*
X125788500Y-60025499D01*
X127107871Y-60025499D01*
X127107872Y-60025499D01*
X127167483Y-60019091D01*
X127302331Y-59968796D01*
X127417546Y-59882546D01*
X127503796Y-59767331D01*
X127554091Y-59632483D01*
X127560500Y-59572873D01*
X127560499Y-59077128D01*
X127554091Y-59017517D01*
X127554089Y-59017513D01*
X127553632Y-59013255D01*
X127553632Y-58986745D01*
X127554089Y-58982486D01*
X127554091Y-58982483D01*
X127560500Y-58922873D01*
X127560499Y-58427128D01*
X127554091Y-58367517D01*
X127554089Y-58367513D01*
X127553632Y-58363255D01*
X127553632Y-58336745D01*
X127554089Y-58332486D01*
X127554091Y-58332483D01*
X127560500Y-58272873D01*
X127560499Y-57777128D01*
X127554091Y-57717517D01*
X127548436Y-57702356D01*
X127503797Y-57582671D01*
X127503793Y-57582664D01*
X127417547Y-57467455D01*
X127417544Y-57467452D01*
X127302335Y-57381206D01*
X127302328Y-57381202D01*
X127167482Y-57330908D01*
X127167483Y-57330908D01*
X127107883Y-57324501D01*
X127107881Y-57324500D01*
X127107873Y-57324500D01*
X127107864Y-57324500D01*
X125362129Y-57324500D01*
X125362123Y-57324501D01*
X125302516Y-57330908D01*
X125167671Y-57381202D01*
X125167668Y-57381203D01*
X125117199Y-57418985D01*
X125086311Y-57435867D01*
X125080731Y-57437952D01*
X124978215Y-57465423D01*
X124933797Y-57491068D01*
X124924872Y-57496220D01*
X124924871Y-57496221D01*
X124841285Y-57544479D01*
X124841282Y-57544481D01*
X124729480Y-57656284D01*
X124729478Y-57656286D01*
X122938457Y-59447308D01*
X121181408Y-61204357D01*
X121120085Y-61237842D01*
X121093727Y-61240676D01*
X118799500Y-61240676D01*
X118732461Y-61220991D01*
X118686706Y-61168187D01*
X118675500Y-61116676D01*
X118675499Y-60542838D01*
X118675498Y-60542820D01*
X118665349Y-60443468D01*
X118665348Y-60443465D01*
X118662313Y-60434307D01*
X118612003Y-60282479D01*
X118611999Y-60282473D01*
X118611998Y-60282470D01*
X118522970Y-60138135D01*
X118522967Y-60138131D01*
X118403044Y-60018208D01*
X118403040Y-60018205D01*
X118258705Y-59929177D01*
X118258699Y-59929174D01*
X118258697Y-59929173D01*
X118258694Y-59929172D01*
X118097709Y-59875827D01*
X117998346Y-59865676D01*
X117451662Y-59865676D01*
X117451644Y-59865677D01*
X117352292Y-59875826D01*
X117352289Y-59875827D01*
X117191305Y-59929172D01*
X117191300Y-59929174D01*
X117173471Y-59940172D01*
X117164595Y-59945646D01*
X117097205Y-59964086D01*
X117030541Y-59943164D01*
X116985771Y-59889522D01*
X116975500Y-59840107D01*
X116975500Y-59728462D01*
X116975499Y-59728448D01*
X116963834Y-59639846D01*
X116960687Y-59615940D01*
X116930529Y-59543134D01*
X116923061Y-59473667D01*
X116941878Y-59426958D01*
X116948701Y-59416709D01*
X116980520Y-59384892D01*
X117047883Y-59268215D01*
X117059577Y-59247961D01*
X117079821Y-59172406D01*
X117116186Y-59112746D01*
X117179033Y-59082217D01*
X117199596Y-59080500D01*
X119679903Y-59080500D01*
X119746942Y-59100185D01*
X119767584Y-59116819D01*
X120165425Y-59514660D01*
X120198910Y-59575983D01*
X120199361Y-59578149D01*
X120230261Y-59733491D01*
X120230264Y-59733501D01*
X120290602Y-59879172D01*
X120290609Y-59879185D01*
X120378210Y-60010288D01*
X120378213Y-60010292D01*
X120489707Y-60121786D01*
X120489711Y-60121789D01*
X120620814Y-60209390D01*
X120620827Y-60209397D01*
X120766498Y-60269735D01*
X120766503Y-60269737D01*
X120921153Y-60300499D01*
X120921156Y-60300500D01*
X120921158Y-60300500D01*
X121078844Y-60300500D01*
X121078845Y-60300499D01*
X121233497Y-60269737D01*
X121379179Y-60209394D01*
X121510289Y-60121789D01*
X121621789Y-60010289D01*
X121709394Y-59879179D01*
X121710783Y-59875827D01*
X121725578Y-59840107D01*
X121769737Y-59733497D01*
X121800500Y-59578842D01*
X121800500Y-59421158D01*
X121800500Y-59421155D01*
X121800499Y-59421153D01*
X121787484Y-59355725D01*
X121769737Y-59266503D01*
X121748162Y-59214416D01*
X121709397Y-59120827D01*
X121709390Y-59120814D01*
X121621789Y-58989711D01*
X121621786Y-58989707D01*
X121510292Y-58878213D01*
X121510288Y-58878210D01*
X121379185Y-58790609D01*
X121379172Y-58790602D01*
X121233501Y-58730264D01*
X121233491Y-58730261D01*
X121078149Y-58699361D01*
X121016238Y-58666976D01*
X121014660Y-58665425D01*
X120467590Y-58118355D01*
X120467588Y-58118352D01*
X120348717Y-57999481D01*
X120348716Y-57999480D01*
X120253163Y-57944313D01*
X120253162Y-57944312D01*
X120211783Y-57920422D01*
X120155881Y-57905443D01*
X120059057Y-57879499D01*
X119900943Y-57879499D01*
X119893347Y-57879499D01*
X119893331Y-57879500D01*
X117166667Y-57879500D01*
X117099628Y-57859815D01*
X117078986Y-57843181D01*
X117065692Y-57829887D01*
X117065684Y-57829881D01*
X116926393Y-57747505D01*
X116926390Y-57747504D01*
X116770997Y-57702357D01*
X116770991Y-57702356D01*
X116734697Y-57699500D01*
X116734690Y-57699500D01*
X116265310Y-57699500D01*
X116265302Y-57699500D01*
X116229008Y-57702356D01*
X116229002Y-57702357D01*
X116073609Y-57747504D01*
X116073606Y-57747505D01*
X115934315Y-57829881D01*
X115934307Y-57829887D01*
X115819887Y-57944307D01*
X115819881Y-57944315D01*
X115737505Y-58083606D01*
X115737504Y-58083609D01*
X115692357Y-58239002D01*
X115692356Y-58239008D01*
X115689500Y-58275302D01*
X115689500Y-58684697D01*
X115692356Y-58720991D01*
X115692357Y-58720997D01*
X115728986Y-58847072D01*
X115728787Y-58916941D01*
X115697591Y-58969348D01*
X115512582Y-59154358D01*
X115451262Y-59187842D01*
X115424903Y-59190676D01*
X114912272Y-59190676D01*
X114799764Y-59205489D01*
X114799757Y-59205491D01*
X114796235Y-59206950D01*
X114793025Y-59207294D01*
X114791913Y-59207593D01*
X114791866Y-59207419D01*
X114726766Y-59214416D01*
X114664288Y-59183138D01*
X114628638Y-59123047D01*
X114631135Y-59053222D01*
X114634227Y-59044936D01*
X114635687Y-59041412D01*
X114650500Y-58928896D01*
X114650500Y-57403456D01*
X114635687Y-57290940D01*
X114577698Y-57150943D01*
X114485451Y-57030725D01*
X114365233Y-56938478D01*
X114365229Y-56938476D01*
X114249998Y-56890746D01*
X114225236Y-56880489D01*
X114210698Y-56878575D01*
X114112727Y-56865676D01*
X114112720Y-56865676D01*
X113887280Y-56865676D01*
X113887272Y-56865676D01*
X113800393Y-56877114D01*
X113774764Y-56880489D01*
X113774762Y-56880489D01*
X113766708Y-56881550D01*
X113766316Y-56878575D01*
X113733684Y-56878575D01*
X113733292Y-56881550D01*
X113725237Y-56880489D01*
X113725236Y-56880489D01*
X113696271Y-56876675D01*
X113612727Y-56865676D01*
X113612720Y-56865676D01*
X113387280Y-56865676D01*
X113387272Y-56865676D01*
X113300393Y-56877114D01*
X113274764Y-56880489D01*
X113274762Y-56880489D01*
X113266708Y-56881550D01*
X113266316Y-56878575D01*
X113233684Y-56878575D01*
X113233292Y-56881550D01*
X113225237Y-56880489D01*
X113225236Y-56880489D01*
X113196271Y-56876675D01*
X113112727Y-56865676D01*
X113112720Y-56865676D01*
X112887280Y-56865676D01*
X112887272Y-56865676D01*
X112800393Y-56877114D01*
X112774764Y-56880489D01*
X112774762Y-56880489D01*
X112766708Y-56881550D01*
X112766316Y-56878575D01*
X112733684Y-56878575D01*
X112733292Y-56881550D01*
X112725237Y-56880489D01*
X112725236Y-56880489D01*
X112696271Y-56876675D01*
X112612727Y-56865676D01*
X112612720Y-56865676D01*
X112387280Y-56865676D01*
X112387272Y-56865676D01*
X112300393Y-56877114D01*
X112274764Y-56880489D01*
X112274762Y-56880489D01*
X112266708Y-56881550D01*
X112266316Y-56878575D01*
X112233684Y-56878575D01*
X112233292Y-56881550D01*
X112225237Y-56880489D01*
X112225236Y-56880489D01*
X112196271Y-56876675D01*
X112112727Y-56865676D01*
X112112720Y-56865676D01*
X111887280Y-56865676D01*
X111887272Y-56865676D01*
X111800393Y-56877114D01*
X111774764Y-56880489D01*
X111774762Y-56880489D01*
X111766708Y-56881550D01*
X111766316Y-56878575D01*
X111733684Y-56878575D01*
X111733292Y-56881550D01*
X111725237Y-56880489D01*
X111725236Y-56880489D01*
X111696271Y-56876675D01*
X111612727Y-56865676D01*
X111612720Y-56865676D01*
X111387280Y-56865676D01*
X111387272Y-56865676D01*
X111300393Y-56877114D01*
X111274764Y-56880489D01*
X111274762Y-56880489D01*
X111266708Y-56881550D01*
X111266316Y-56878575D01*
X111233684Y-56878575D01*
X111233292Y-56881550D01*
X111225237Y-56880489D01*
X111225236Y-56880489D01*
X111196271Y-56876675D01*
X111112727Y-56865676D01*
X111112720Y-56865676D01*
X110887280Y-56865676D01*
X110887272Y-56865676D01*
X110800393Y-56877114D01*
X110774764Y-56880489D01*
X110774762Y-56880489D01*
X110766708Y-56881550D01*
X110766316Y-56878575D01*
X110733684Y-56878575D01*
X110733292Y-56881550D01*
X110725237Y-56880489D01*
X110725236Y-56880489D01*
X110696271Y-56876675D01*
X110612727Y-56865676D01*
X110612720Y-56865676D01*
X110387280Y-56865676D01*
X110387272Y-56865676D01*
X110300393Y-56877114D01*
X110274764Y-56880489D01*
X110274762Y-56880489D01*
X110266708Y-56881550D01*
X110266316Y-56878575D01*
X110233684Y-56878575D01*
X110233292Y-56881550D01*
X110225237Y-56880489D01*
X110225236Y-56880489D01*
X110196271Y-56876675D01*
X110112727Y-56865676D01*
X110112720Y-56865676D01*
X109887280Y-56865676D01*
X109887272Y-56865676D01*
X109800393Y-56877114D01*
X109774764Y-56880489D01*
X109774762Y-56880489D01*
X109766708Y-56881550D01*
X109766316Y-56878575D01*
X109733684Y-56878575D01*
X109733292Y-56881550D01*
X109725237Y-56880489D01*
X109725236Y-56880489D01*
X109696271Y-56876675D01*
X109612727Y-56865676D01*
X109612720Y-56865676D01*
X109387280Y-56865676D01*
X109387272Y-56865676D01*
X109300393Y-56877114D01*
X109274764Y-56880489D01*
X109274762Y-56880489D01*
X109266708Y-56881550D01*
X109266316Y-56878575D01*
X109233684Y-56878575D01*
X109233292Y-56881550D01*
X109225237Y-56880489D01*
X109225236Y-56880489D01*
X109196271Y-56876675D01*
X109112727Y-56865676D01*
X109112720Y-56865676D01*
X108887280Y-56865676D01*
X108887272Y-56865676D01*
X108800393Y-56877114D01*
X108774764Y-56880489D01*
X108774762Y-56880489D01*
X108766708Y-56881550D01*
X108766316Y-56878575D01*
X108733684Y-56878575D01*
X108733292Y-56881550D01*
X108725237Y-56880489D01*
X108725236Y-56880489D01*
X108696271Y-56876675D01*
X108612727Y-56865676D01*
X108612720Y-56865676D01*
X108387280Y-56865676D01*
X108387272Y-56865676D01*
X108300393Y-56877114D01*
X108274764Y-56880489D01*
X108274762Y-56880489D01*
X108266708Y-56881550D01*
X108266316Y-56878575D01*
X108233684Y-56878575D01*
X108233292Y-56881550D01*
X108225237Y-56880489D01*
X108225236Y-56880489D01*
X108196271Y-56876675D01*
X108112727Y-56865676D01*
X108112720Y-56865676D01*
X107887280Y-56865676D01*
X107887272Y-56865676D01*
X107800393Y-56877114D01*
X107774764Y-56880489D01*
X107774762Y-56880489D01*
X107766708Y-56881550D01*
X107766316Y-56878575D01*
X107733684Y-56878575D01*
X107733292Y-56881550D01*
X107725237Y-56880489D01*
X107725236Y-56880489D01*
X107696271Y-56876675D01*
X107612727Y-56865676D01*
X107612720Y-56865676D01*
X107387280Y-56865676D01*
X107387272Y-56865676D01*
X107300393Y-56877114D01*
X107274764Y-56880489D01*
X107274762Y-56880489D01*
X107266708Y-56881550D01*
X107266316Y-56878575D01*
X107233684Y-56878575D01*
X107233292Y-56881550D01*
X107225237Y-56880489D01*
X107225236Y-56880489D01*
X107196271Y-56876675D01*
X107112727Y-56865676D01*
X107112720Y-56865676D01*
X106887280Y-56865676D01*
X106887272Y-56865676D01*
X106800393Y-56877114D01*
X106774764Y-56880489D01*
X106774762Y-56880489D01*
X106766708Y-56881550D01*
X106766316Y-56878575D01*
X106733684Y-56878575D01*
X106733292Y-56881550D01*
X106725237Y-56880489D01*
X106725236Y-56880489D01*
X106696271Y-56876675D01*
X106612727Y-56865676D01*
X106612720Y-56865676D01*
X106387280Y-56865676D01*
X106387272Y-56865676D01*
X106300393Y-56877114D01*
X106274764Y-56880489D01*
X106274762Y-56880489D01*
X106266708Y-56881550D01*
X106266316Y-56878575D01*
X106233684Y-56878575D01*
X106233292Y-56881550D01*
X106225237Y-56880489D01*
X106225236Y-56880489D01*
X106196271Y-56876675D01*
X106112727Y-56865676D01*
X106112720Y-56865676D01*
X105887280Y-56865676D01*
X105887272Y-56865676D01*
X105800393Y-56877114D01*
X105774764Y-56880489D01*
X105774762Y-56880489D01*
X105766708Y-56881550D01*
X105766316Y-56878575D01*
X105733684Y-56878575D01*
X105733292Y-56881550D01*
X105725237Y-56880489D01*
X105725236Y-56880489D01*
X105696271Y-56876675D01*
X105612727Y-56865676D01*
X105612720Y-56865676D01*
X105387280Y-56865676D01*
X105387272Y-56865676D01*
X105274764Y-56880489D01*
X105274763Y-56880489D01*
X105134769Y-56938476D01*
X105109291Y-56958026D01*
X105075485Y-56983966D01*
X105010317Y-57009160D01*
X104941873Y-56995122D01*
X104924517Y-56983969D01*
X104865233Y-56938478D01*
X104865232Y-56938477D01*
X104865230Y-56938476D01*
X104727797Y-56881550D01*
X104725236Y-56880489D01*
X104710698Y-56878575D01*
X104612727Y-56865676D01*
X104612720Y-56865676D01*
X104387280Y-56865676D01*
X104387272Y-56865676D01*
X104300393Y-56877114D01*
X104274764Y-56880489D01*
X104274762Y-56880489D01*
X104266708Y-56881550D01*
X104266316Y-56878575D01*
X104233684Y-56878575D01*
X104233292Y-56881550D01*
X104225237Y-56880489D01*
X104225236Y-56880489D01*
X104196271Y-56876675D01*
X104112727Y-56865676D01*
X104112720Y-56865676D01*
X103887280Y-56865676D01*
X103887272Y-56865676D01*
X103800393Y-56877114D01*
X103774764Y-56880489D01*
X103774762Y-56880489D01*
X103766708Y-56881550D01*
X103766316Y-56878575D01*
X103733684Y-56878575D01*
X103733292Y-56881550D01*
X103725237Y-56880489D01*
X103725236Y-56880489D01*
X103696271Y-56876675D01*
X103612727Y-56865676D01*
X103612720Y-56865676D01*
X103387280Y-56865676D01*
X103387272Y-56865676D01*
X103300393Y-56877114D01*
X103274764Y-56880489D01*
X103274762Y-56880489D01*
X103266708Y-56881550D01*
X103266316Y-56878575D01*
X103233684Y-56878575D01*
X103233292Y-56881550D01*
X103225237Y-56880489D01*
X103225236Y-56880489D01*
X103196271Y-56876675D01*
X103112727Y-56865676D01*
X103112720Y-56865676D01*
X102887280Y-56865676D01*
X102884618Y-56865676D01*
X102817579Y-56845991D01*
X102771824Y-56793187D01*
X102761880Y-56724029D01*
X102765542Y-56707081D01*
X102807642Y-56562173D01*
X102807643Y-56562167D01*
X102810499Y-56525873D01*
X102810500Y-56525866D01*
X102810500Y-56116486D01*
X102807643Y-56080183D01*
X102762494Y-55924781D01*
X102680117Y-55785489D01*
X102680115Y-55785487D01*
X102680112Y-55785483D01*
X102565692Y-55671063D01*
X102565684Y-55671057D01*
X102426393Y-55588681D01*
X102426390Y-55588680D01*
X102270997Y-55543533D01*
X102270991Y-55543532D01*
X102234697Y-55540676D01*
X102234690Y-55540676D01*
X101765310Y-55540676D01*
X101765302Y-55540676D01*
X101729008Y-55543532D01*
X101729002Y-55543533D01*
X101573609Y-55588680D01*
X101573606Y-55588681D01*
X101434315Y-55671057D01*
X101434307Y-55671063D01*
X101421014Y-55684357D01*
X101359691Y-55717842D01*
X101333333Y-55720676D01*
X97765493Y-55720676D01*
X97765477Y-55720675D01*
X97757881Y-55720675D01*
X97599767Y-55720675D01*
X97519834Y-55742093D01*
X97447040Y-55761598D01*
X97405659Y-55785490D01*
X97405658Y-55785489D01*
X97310111Y-55840653D01*
X97310106Y-55840657D01*
X94424339Y-58726425D01*
X94363016Y-58759910D01*
X94360850Y-58760361D01*
X94205508Y-58791261D01*
X94205498Y-58791264D01*
X94059827Y-58851602D01*
X94059814Y-58851609D01*
X93928711Y-58939210D01*
X93928707Y-58939213D01*
X93817213Y-59050707D01*
X93817210Y-59050711D01*
X93729609Y-59181814D01*
X93729602Y-59181827D01*
X93669264Y-59327498D01*
X93669261Y-59327510D01*
X93638500Y-59482153D01*
X93638500Y-59639846D01*
X93669261Y-59794489D01*
X93669264Y-59794501D01*
X93729602Y-59940172D01*
X93729609Y-59940185D01*
X93817210Y-60071288D01*
X93817213Y-60071292D01*
X93928707Y-60182786D01*
X93928711Y-60182789D01*
X94059814Y-60270390D01*
X94059827Y-60270397D01*
X94205498Y-60330735D01*
X94205503Y-60330737D01*
X94360153Y-60361499D01*
X94360156Y-60361500D01*
X94360158Y-60361500D01*
X94517844Y-60361500D01*
X94517845Y-60361499D01*
X94672497Y-60330737D01*
X94818179Y-60270394D01*
X94949289Y-60182789D01*
X95060789Y-60071289D01*
X95148394Y-59940179D01*
X95208737Y-59794497D01*
X95228113Y-59697085D01*
X95239638Y-59639150D01*
X95272023Y-59577239D01*
X95273518Y-59575716D01*
X97591143Y-57258092D01*
X97599088Y-57253753D01*
X97604514Y-57246506D01*
X97629273Y-57237271D01*
X97652466Y-57224607D01*
X97661495Y-57225252D01*
X97669978Y-57222089D01*
X97695798Y-57227705D01*
X97722158Y-57229591D01*
X97731211Y-57235409D01*
X97738251Y-57236941D01*
X97766505Y-57258092D01*
X97843181Y-57334768D01*
X97876666Y-57396091D01*
X97879500Y-57422449D01*
X97879500Y-60333333D01*
X97859815Y-60400372D01*
X97843181Y-60421014D01*
X97829887Y-60434307D01*
X97829881Y-60434315D01*
X97747505Y-60573606D01*
X97747504Y-60573609D01*
X97702357Y-60729002D01*
X97702356Y-60729008D01*
X97699500Y-60765302D01*
X97699500Y-61234697D01*
X97702356Y-61270991D01*
X97702357Y-61270997D01*
X97747505Y-61426394D01*
X97753708Y-61436884D01*
X97770887Y-61504608D01*
X97753708Y-61563116D01*
X97747505Y-61573605D01*
X97702357Y-61729002D01*
X97702356Y-61729008D01*
X97699500Y-61765302D01*
X97699500Y-62234697D01*
X97702356Y-62270991D01*
X97702357Y-62270997D01*
X97747504Y-62426390D01*
X97747505Y-62426393D01*
X97747506Y-62426395D01*
X97829883Y-62565687D01*
X97843180Y-62578984D01*
X97857887Y-62605917D01*
X97874477Y-62631731D01*
X97875368Y-62637928D01*
X97876666Y-62640305D01*
X97879500Y-62666666D01*
X97879500Y-62775500D01*
X97859815Y-62842539D01*
X97807011Y-62888294D01*
X97755500Y-62899500D01*
X97400097Y-62899500D01*
X97333058Y-62879815D01*
X97312416Y-62863181D01*
X97067590Y-62618355D01*
X97067588Y-62618352D01*
X96948717Y-62499481D01*
X96948716Y-62499480D01*
X96853163Y-62444313D01*
X96853162Y-62444312D01*
X96811783Y-62420422D01*
X96755881Y-62405443D01*
X96659057Y-62379499D01*
X96500943Y-62379499D01*
X96493347Y-62379499D01*
X96493331Y-62379500D01*
X93666667Y-62379500D01*
X93599628Y-62359815D01*
X93578986Y-62343181D01*
X93565692Y-62329887D01*
X93565684Y-62329881D01*
X93426393Y-62247505D01*
X93426390Y-62247504D01*
X93270997Y-62202357D01*
X93270991Y-62202356D01*
X93234697Y-62199500D01*
X93234690Y-62199500D01*
X92765310Y-62199500D01*
X92765302Y-62199500D01*
X92729008Y-62202356D01*
X92729002Y-62202357D01*
X92573609Y-62247504D01*
X92573606Y-62247505D01*
X92434315Y-62329881D01*
X92434307Y-62329887D01*
X92319887Y-62444307D01*
X92319881Y-62444315D01*
X92260621Y-62544520D01*
X92242670Y-62574874D01*
X92233535Y-62590320D01*
X92231960Y-62589389D01*
X92193605Y-62635479D01*
X92126971Y-62656495D01*
X92059553Y-62638151D01*
X92012755Y-62586269D01*
X92000500Y-62532520D01*
X92000500Y-53624500D01*
X92020185Y-53557461D01*
X92072989Y-53511706D01*
X92124500Y-53500500D01*
X130875500Y-53500500D01*
X130942539Y-53520185D01*
G37*
%TD.AperFunction*%
%TA.AperFunction,Conductor*%
G36*
X109022611Y-90467854D02*
G01*
X109042828Y-90466533D01*
X109056433Y-90474016D01*
X109071421Y-90476747D01*
X109085772Y-90490154D01*
X109103409Y-90499855D01*
X110514096Y-91910542D01*
X110547581Y-91971865D01*
X110542597Y-92041557D01*
X110527374Y-92065242D01*
X110509968Y-92047836D01*
X110454837Y-92025000D01*
X110395163Y-92025000D01*
X110340032Y-92047836D01*
X110297836Y-92090032D01*
X110275000Y-92145163D01*
X110275000Y-92204837D01*
X110297836Y-92259968D01*
X110340032Y-92302164D01*
X110395163Y-92325000D01*
X110454837Y-92325000D01*
X110509968Y-92302164D01*
X110526083Y-92286048D01*
X110547581Y-92325419D01*
X110542597Y-92395111D01*
X110514096Y-92439458D01*
X109095365Y-93858189D01*
X109068437Y-93872892D01*
X109042619Y-93889485D01*
X109036418Y-93890376D01*
X109034042Y-93891674D01*
X109007684Y-93894508D01*
X108992316Y-93894508D01*
X108925277Y-93874823D01*
X108904635Y-93858189D01*
X108525000Y-93478554D01*
X108145365Y-93858189D01*
X108118437Y-93872892D01*
X108092619Y-93889485D01*
X108086418Y-93890376D01*
X108084042Y-93891674D01*
X108057684Y-93894508D01*
X108042316Y-93894508D01*
X107975277Y-93874823D01*
X107954635Y-93858189D01*
X107191609Y-93095163D01*
X107425000Y-93095163D01*
X107425000Y-93154837D01*
X107447836Y-93209968D01*
X107490032Y-93252164D01*
X107545163Y-93275000D01*
X107604837Y-93275000D01*
X107659968Y-93252164D01*
X107702164Y-93209968D01*
X107725000Y-93154837D01*
X107725000Y-93125000D01*
X107928554Y-93125000D01*
X108050000Y-93246446D01*
X108171446Y-93125000D01*
X108141609Y-93095163D01*
X108375000Y-93095163D01*
X108375000Y-93154837D01*
X108397836Y-93209968D01*
X108440032Y-93252164D01*
X108495163Y-93275000D01*
X108554837Y-93275000D01*
X108609968Y-93252164D01*
X108652164Y-93209968D01*
X108675000Y-93154837D01*
X108675000Y-93125000D01*
X108878554Y-93125000D01*
X109000000Y-93246446D01*
X109121446Y-93125000D01*
X109091609Y-93095163D01*
X109325000Y-93095163D01*
X109325000Y-93154837D01*
X109347836Y-93209968D01*
X109390032Y-93252164D01*
X109445163Y-93275000D01*
X109504837Y-93275000D01*
X109559968Y-93252164D01*
X109602164Y-93209968D01*
X109625000Y-93154837D01*
X109625000Y-93095163D01*
X109602164Y-93040032D01*
X109559968Y-92997836D01*
X109504837Y-92975000D01*
X109445163Y-92975000D01*
X109390032Y-92997836D01*
X109347836Y-93040032D01*
X109325000Y-93095163D01*
X109091609Y-93095163D01*
X109000000Y-93003554D01*
X108878554Y-93125000D01*
X108675000Y-93125000D01*
X108675000Y-93095163D01*
X108652164Y-93040032D01*
X108609968Y-92997836D01*
X108554837Y-92975000D01*
X108495163Y-92975000D01*
X108440032Y-92997836D01*
X108397836Y-93040032D01*
X108375000Y-93095163D01*
X108141609Y-93095163D01*
X108050000Y-93003554D01*
X107928554Y-93125000D01*
X107725000Y-93125000D01*
X107725000Y-93095163D01*
X107702164Y-93040032D01*
X107659968Y-92997836D01*
X107604837Y-92975000D01*
X107545163Y-92975000D01*
X107490032Y-92997836D01*
X107447836Y-93040032D01*
X107425000Y-93095163D01*
X107191609Y-93095163D01*
X106746446Y-92650000D01*
X107453554Y-92650000D01*
X107575000Y-92771446D01*
X107696446Y-92650000D01*
X108403554Y-92650000D01*
X108525000Y-92771446D01*
X108646446Y-92650000D01*
X109353554Y-92650000D01*
X109475000Y-92771446D01*
X109596446Y-92650000D01*
X109475000Y-92528554D01*
X109353554Y-92650000D01*
X108646446Y-92650000D01*
X108525000Y-92528554D01*
X108403554Y-92650000D01*
X107696446Y-92650000D01*
X107575000Y-92528554D01*
X107453554Y-92650000D01*
X106746446Y-92650000D01*
X106535904Y-92439458D01*
X106502419Y-92378135D01*
X106507403Y-92308443D01*
X106522625Y-92284757D01*
X106540032Y-92302164D01*
X106595163Y-92325000D01*
X106654837Y-92325000D01*
X106709968Y-92302164D01*
X106752164Y-92259968D01*
X106775000Y-92204837D01*
X106775000Y-92175000D01*
X106978554Y-92175000D01*
X107100000Y-92296446D01*
X107221446Y-92175000D01*
X107191609Y-92145163D01*
X107425000Y-92145163D01*
X107425000Y-92204837D01*
X107447836Y-92259968D01*
X107490032Y-92302164D01*
X107545163Y-92325000D01*
X107604837Y-92325000D01*
X107659968Y-92302164D01*
X107702164Y-92259968D01*
X107725000Y-92204837D01*
X107725000Y-92175000D01*
X107928554Y-92175000D01*
X108050000Y-92296446D01*
X108171446Y-92175000D01*
X108141609Y-92145163D01*
X108375000Y-92145163D01*
X108375000Y-92204837D01*
X108397836Y-92259968D01*
X108440032Y-92302164D01*
X108495163Y-92325000D01*
X108554837Y-92325000D01*
X108609968Y-92302164D01*
X108652164Y-92259968D01*
X108675000Y-92204837D01*
X108675000Y-92175000D01*
X108878554Y-92175000D01*
X109000000Y-92296446D01*
X109121446Y-92175000D01*
X109091609Y-92145163D01*
X109325000Y-92145163D01*
X109325000Y-92204837D01*
X109347836Y-92259968D01*
X109390032Y-92302164D01*
X109445163Y-92325000D01*
X109504837Y-92325000D01*
X109559968Y-92302164D01*
X109602164Y-92259968D01*
X109625000Y-92204837D01*
X109625000Y-92175000D01*
X109828554Y-92175000D01*
X109950000Y-92296446D01*
X110071446Y-92175000D01*
X109950000Y-92053554D01*
X109828554Y-92175000D01*
X109625000Y-92175000D01*
X109625000Y-92145163D01*
X109602164Y-92090032D01*
X109559968Y-92047836D01*
X109504837Y-92025000D01*
X109445163Y-92025000D01*
X109390032Y-92047836D01*
X109347836Y-92090032D01*
X109325000Y-92145163D01*
X109091609Y-92145163D01*
X109000000Y-92053554D01*
X108878554Y-92175000D01*
X108675000Y-92175000D01*
X108675000Y-92145163D01*
X108652164Y-92090032D01*
X108609968Y-92047836D01*
X108554837Y-92025000D01*
X108495163Y-92025000D01*
X108440032Y-92047836D01*
X108397836Y-92090032D01*
X108375000Y-92145163D01*
X108141609Y-92145163D01*
X108050000Y-92053554D01*
X107928554Y-92175000D01*
X107725000Y-92175000D01*
X107725000Y-92145163D01*
X107702164Y-92090032D01*
X107659968Y-92047836D01*
X107604837Y-92025000D01*
X107545163Y-92025000D01*
X107490032Y-92047836D01*
X107447836Y-92090032D01*
X107425000Y-92145163D01*
X107191609Y-92145163D01*
X107100000Y-92053554D01*
X106978554Y-92175000D01*
X106775000Y-92175000D01*
X106775000Y-92145163D01*
X106752164Y-92090032D01*
X106709968Y-92047836D01*
X106654837Y-92025000D01*
X106595163Y-92025000D01*
X106540032Y-92047836D01*
X106523916Y-92063951D01*
X106502419Y-92024581D01*
X106507403Y-91954889D01*
X106535904Y-91910542D01*
X106746446Y-91700000D01*
X107453554Y-91700000D01*
X107575000Y-91821446D01*
X107696446Y-91700000D01*
X108403554Y-91700000D01*
X108525000Y-91821446D01*
X108646446Y-91700000D01*
X109353554Y-91700000D01*
X109475000Y-91821446D01*
X109596446Y-91700000D01*
X109475000Y-91578554D01*
X109353554Y-91700000D01*
X108646446Y-91700000D01*
X108525000Y-91578554D01*
X108403554Y-91700000D01*
X107696446Y-91700000D01*
X107575000Y-91578554D01*
X107453554Y-91700000D01*
X106746446Y-91700000D01*
X107251283Y-91195163D01*
X107425000Y-91195163D01*
X107425000Y-91254837D01*
X107447836Y-91309968D01*
X107490032Y-91352164D01*
X107545163Y-91375000D01*
X107604837Y-91375000D01*
X107659968Y-91352164D01*
X107702164Y-91309968D01*
X107725000Y-91254837D01*
X107725000Y-91225000D01*
X107928554Y-91225000D01*
X108050000Y-91346446D01*
X108171446Y-91225000D01*
X108141609Y-91195163D01*
X108375000Y-91195163D01*
X108375000Y-91254837D01*
X108397836Y-91309968D01*
X108440032Y-91352164D01*
X108495163Y-91375000D01*
X108554837Y-91375000D01*
X108609968Y-91352164D01*
X108652164Y-91309968D01*
X108675000Y-91254837D01*
X108675000Y-91225000D01*
X108878554Y-91225000D01*
X109000000Y-91346446D01*
X109121446Y-91225000D01*
X109091609Y-91195163D01*
X109325000Y-91195163D01*
X109325000Y-91254837D01*
X109347836Y-91309968D01*
X109390032Y-91352164D01*
X109445163Y-91375000D01*
X109504837Y-91375000D01*
X109559968Y-91352164D01*
X109602164Y-91309968D01*
X109625000Y-91254837D01*
X109625000Y-91195163D01*
X109602164Y-91140032D01*
X109559968Y-91097836D01*
X109504837Y-91075000D01*
X109445163Y-91075000D01*
X109390032Y-91097836D01*
X109347836Y-91140032D01*
X109325000Y-91195163D01*
X109091609Y-91195163D01*
X109000000Y-91103554D01*
X108878554Y-91225000D01*
X108675000Y-91225000D01*
X108675000Y-91195163D01*
X108652164Y-91140032D01*
X108609968Y-91097836D01*
X108554837Y-91075000D01*
X108495163Y-91075000D01*
X108440032Y-91097836D01*
X108397836Y-91140032D01*
X108375000Y-91195163D01*
X108141609Y-91195163D01*
X108050000Y-91103554D01*
X107928554Y-91225000D01*
X107725000Y-91225000D01*
X107725000Y-91195163D01*
X107702164Y-91140032D01*
X107659968Y-91097836D01*
X107604837Y-91075000D01*
X107545163Y-91075000D01*
X107490032Y-91097836D01*
X107447836Y-91140032D01*
X107425000Y-91195163D01*
X107251283Y-91195163D01*
X107398223Y-91048223D01*
X107734627Y-90711818D01*
X107755584Y-90700374D01*
X107774078Y-90685263D01*
X107788667Y-90682309D01*
X107795950Y-90678333D01*
X107808215Y-90676302D01*
X107815232Y-90675499D01*
X107913050Y-90675499D01*
X108001526Y-90664875D01*
X108039696Y-90649822D01*
X108055907Y-90647968D01*
X108074898Y-90651261D01*
X108094094Y-90649528D01*
X108115482Y-90655808D01*
X108138474Y-90664875D01*
X108226949Y-90675500D01*
X108277691Y-90675499D01*
X108344729Y-90695182D01*
X108365372Y-90711818D01*
X108524999Y-90871445D01*
X108768324Y-90628119D01*
X108778364Y-90619116D01*
X108788786Y-90610746D01*
X108792317Y-90609354D01*
X108912908Y-90517908D01*
X108926166Y-90500423D01*
X108938086Y-90490852D01*
X108956816Y-90483131D01*
X108973107Y-90471091D01*
X108988459Y-90470087D01*
X109002683Y-90464224D01*
X109022611Y-90467854D01*
G37*
%TD.AperFunction*%
%TA.AperFunction,Conductor*%
G36*
X104274763Y-74801862D02*
G01*
X104274764Y-74801863D01*
X104387280Y-74816676D01*
X104387287Y-74816676D01*
X104566079Y-74816676D01*
X104633118Y-74836361D01*
X104653760Y-74852995D01*
X105663181Y-75862416D01*
X105696666Y-75923739D01*
X105699500Y-75950097D01*
X105699500Y-76919377D01*
X105702401Y-76956243D01*
X105702402Y-76956249D01*
X105748254Y-77114069D01*
X105748255Y-77114072D01*
X105748256Y-77114074D01*
X105775307Y-77159815D01*
X105835890Y-77262256D01*
X105834071Y-77263331D01*
X105855619Y-77318208D01*
X105841941Y-77386726D01*
X105793391Y-77436972D01*
X105732105Y-77453176D01*
X105334298Y-77453176D01*
X105297432Y-77456077D01*
X105297426Y-77456078D01*
X105139606Y-77501930D01*
X105139603Y-77501931D01*
X104998137Y-77585593D01*
X104998129Y-77585599D01*
X104881923Y-77701805D01*
X104881917Y-77701813D01*
X104798255Y-77843279D01*
X104798254Y-77843282D01*
X104752402Y-78001102D01*
X104752401Y-78001108D01*
X104749500Y-78037974D01*
X104749500Y-79194377D01*
X104752401Y-79231243D01*
X104752402Y-79231249D01*
X104798254Y-79389069D01*
X104798255Y-79389072D01*
X104881917Y-79530538D01*
X104881923Y-79530546D01*
X104913180Y-79561802D01*
X104946666Y-79623124D01*
X104949500Y-79649484D01*
X104949500Y-82149902D01*
X104929815Y-82216941D01*
X104913181Y-82237583D01*
X102985339Y-84165425D01*
X102924016Y-84198910D01*
X102921850Y-84199361D01*
X102766508Y-84230261D01*
X102766498Y-84230264D01*
X102620827Y-84290602D01*
X102620814Y-84290609D01*
X102489711Y-84378210D01*
X102489707Y-84378213D01*
X102378213Y-84489707D01*
X102378210Y-84489711D01*
X102290609Y-84620814D01*
X102290602Y-84620827D01*
X102230264Y-84766498D01*
X102230261Y-84766510D01*
X102199500Y-84921153D01*
X102199500Y-85078846D01*
X102230261Y-85233489D01*
X102230264Y-85233501D01*
X102290602Y-85379172D01*
X102290609Y-85379185D01*
X102378210Y-85510288D01*
X102378213Y-85510292D01*
X102489707Y-85621786D01*
X102489711Y-85621789D01*
X102620814Y-85709390D01*
X102620827Y-85709397D01*
X102758683Y-85766498D01*
X102766503Y-85769737D01*
X102916131Y-85799500D01*
X102921153Y-85800499D01*
X102921156Y-85800500D01*
X102921158Y-85800500D01*
X103078844Y-85800500D01*
X103078845Y-85800499D01*
X103233497Y-85769737D01*
X103379179Y-85709394D01*
X103510289Y-85621789D01*
X103621789Y-85510289D01*
X103709394Y-85379179D01*
X103769737Y-85233497D01*
X103790762Y-85127796D01*
X103800638Y-85078150D01*
X103833023Y-85016239D01*
X103834517Y-85014717D01*
X106030520Y-82818716D01*
X106109577Y-82681784D01*
X106150501Y-82529057D01*
X106150501Y-82370942D01*
X106150501Y-82363347D01*
X106150500Y-82363329D01*
X106150500Y-79649484D01*
X106170185Y-79582445D01*
X106186820Y-79561802D01*
X106218076Y-79530546D01*
X106218081Y-79530541D01*
X106301744Y-79389074D01*
X106347598Y-79231245D01*
X106350500Y-79194370D01*
X106350500Y-78037982D01*
X106347598Y-78001107D01*
X106332396Y-77948783D01*
X106301745Y-77843282D01*
X106301744Y-77843279D01*
X106301744Y-77843278D01*
X106218081Y-77701811D01*
X106214110Y-77695096D01*
X106215928Y-77694020D01*
X106194381Y-77639144D01*
X106208059Y-77570626D01*
X106256609Y-77520380D01*
X106317895Y-77504176D01*
X106682105Y-77504176D01*
X106749144Y-77523861D01*
X106794899Y-77576665D01*
X106804843Y-77645823D01*
X106784328Y-77694172D01*
X106785890Y-77695096D01*
X106698255Y-77843279D01*
X106698254Y-77843282D01*
X106652402Y-78001102D01*
X106652401Y-78001108D01*
X106649500Y-78037974D01*
X106649500Y-79194377D01*
X106652401Y-79231243D01*
X106652402Y-79231249D01*
X106698254Y-79389069D01*
X106698255Y-79389072D01*
X106781917Y-79530538D01*
X106781923Y-79530546D01*
X106813180Y-79561802D01*
X106827885Y-79588732D01*
X106844477Y-79614549D01*
X106845368Y-79620747D01*
X106846666Y-79623124D01*
X106849500Y-79649484D01*
X106849500Y-79883675D01*
X106829815Y-79950714D01*
X106823483Y-79959670D01*
X106819885Y-79964308D01*
X106737505Y-80103606D01*
X106737504Y-80103609D01*
X106692357Y-80259002D01*
X106692356Y-80259008D01*
X106689500Y-80295302D01*
X106689500Y-80704697D01*
X106692356Y-80740991D01*
X106692357Y-80740997D01*
X106737504Y-80896390D01*
X106737505Y-80896393D01*
X106819881Y-81035684D01*
X106819887Y-81035692D01*
X106934307Y-81150112D01*
X106934311Y-81150115D01*
X106934313Y-81150117D01*
X107073605Y-81232494D01*
X107114587Y-81244400D01*
X107229002Y-81277642D01*
X107229005Y-81277642D01*
X107229007Y-81277643D01*
X107265310Y-81280500D01*
X107265318Y-81280500D01*
X107734682Y-81280500D01*
X107734690Y-81280500D01*
X107770993Y-81277643D01*
X107770995Y-81277642D01*
X107770997Y-81277642D01*
X107811975Y-81265736D01*
X107926395Y-81232494D01*
X108065687Y-81150117D01*
X108070601Y-81145202D01*
X108131920Y-81111716D01*
X108201612Y-81116697D01*
X108245965Y-81145200D01*
X108863181Y-81762416D01*
X108896666Y-81823739D01*
X108899500Y-81850097D01*
X108899500Y-84474902D01*
X108879815Y-84541941D01*
X108863181Y-84562583D01*
X105368798Y-88056965D01*
X105307475Y-88090450D01*
X105237783Y-88085466D01*
X105216027Y-88074826D01*
X105119334Y-88015186D01*
X104952797Y-87960001D01*
X104952795Y-87960000D01*
X104850010Y-87949500D01*
X104099998Y-87949500D01*
X104099980Y-87949501D01*
X103997203Y-87960000D01*
X103997200Y-87960001D01*
X103830668Y-88015185D01*
X103830659Y-88015189D01*
X103733977Y-88074823D01*
X103666584Y-88093263D01*
X103599921Y-88072340D01*
X103581200Y-88056965D01*
X100312590Y-84788355D01*
X100312588Y-84788352D01*
X100193717Y-84669481D01*
X100193716Y-84669480D01*
X100106904Y-84619360D01*
X100106904Y-84619359D01*
X100106900Y-84619358D01*
X100056785Y-84590423D01*
X99904057Y-84549499D01*
X99745943Y-84549499D01*
X99738347Y-84549499D01*
X99738331Y-84549500D01*
X98074500Y-84549500D01*
X98007461Y-84529815D01*
X97961706Y-84477011D01*
X97950500Y-84425500D01*
X97950499Y-83974998D01*
X97950498Y-83974980D01*
X97939999Y-83872203D01*
X97939998Y-83872200D01*
X97884814Y-83705666D01*
X97792712Y-83556344D01*
X97668656Y-83432288D01*
X97668655Y-83432287D01*
X97609402Y-83395739D01*
X97562678Y-83343791D01*
X97550500Y-83290201D01*
X97550500Y-82670808D01*
X97570185Y-82603769D01*
X97586820Y-82583126D01*
X97618076Y-82551870D01*
X97618081Y-82551865D01*
X97701744Y-82410398D01*
X97747598Y-82252569D01*
X97750500Y-82215694D01*
X97750500Y-81059306D01*
X97747598Y-81022431D01*
X97701744Y-80864602D01*
X97618081Y-80723135D01*
X97618079Y-80723133D01*
X97618076Y-80723129D01*
X97501870Y-80606923D01*
X97501867Y-80606921D01*
X97501865Y-80606919D01*
X97501549Y-80606732D01*
X97501353Y-80606522D01*
X97495702Y-80602139D01*
X97496409Y-80601227D01*
X97453866Y-80555664D01*
X97441362Y-80486923D01*
X97468006Y-80422333D01*
X97495921Y-80398144D01*
X97495702Y-80397861D01*
X97500911Y-80393820D01*
X97501550Y-80393267D01*
X97501865Y-80393081D01*
X97618081Y-80276865D01*
X97701744Y-80135398D01*
X97747598Y-79977569D01*
X97750500Y-79940694D01*
X97750500Y-78784306D01*
X97747598Y-78747431D01*
X97742610Y-78730264D01*
X97701745Y-78589606D01*
X97701744Y-78589603D01*
X97701744Y-78589602D01*
X97618081Y-78448135D01*
X97618079Y-78448133D01*
X97618076Y-78448129D01*
X97501870Y-78331923D01*
X97501862Y-78331917D01*
X97360396Y-78248255D01*
X97360393Y-78248254D01*
X97202573Y-78202402D01*
X97202567Y-78202401D01*
X97165701Y-78199500D01*
X97165694Y-78199500D01*
X96734306Y-78199500D01*
X96734298Y-78199500D01*
X96697432Y-78202401D01*
X96697426Y-78202402D01*
X96539606Y-78248254D01*
X96539603Y-78248255D01*
X96398137Y-78331917D01*
X96398129Y-78331923D01*
X96281923Y-78448129D01*
X96281917Y-78448137D01*
X96198255Y-78589603D01*
X96198254Y-78589606D01*
X96152402Y-78747426D01*
X96152401Y-78747432D01*
X96149500Y-78784298D01*
X96149500Y-79940701D01*
X96152401Y-79977567D01*
X96152402Y-79977573D01*
X96198254Y-80135393D01*
X96198255Y-80135396D01*
X96281917Y-80276862D01*
X96281923Y-80276870D01*
X96398129Y-80393076D01*
X96398140Y-80393085D01*
X96398455Y-80393271D01*
X96398650Y-80393480D01*
X96404298Y-80397861D01*
X96403591Y-80398772D01*
X96446136Y-80444343D01*
X96458637Y-80513085D01*
X96431988Y-80577673D01*
X96404078Y-80601856D01*
X96404298Y-80602139D01*
X96399092Y-80606176D01*
X96398455Y-80606729D01*
X96398140Y-80606914D01*
X96398129Y-80606923D01*
X96281923Y-80723129D01*
X96281917Y-80723137D01*
X96198255Y-80864603D01*
X96198254Y-80864606D01*
X96152402Y-81022426D01*
X96152401Y-81022432D01*
X96149500Y-81059298D01*
X96149500Y-82215701D01*
X96151709Y-82243765D01*
X96137344Y-82312142D01*
X96088293Y-82361899D01*
X96020127Y-82377237D01*
X95954490Y-82353288D01*
X95940410Y-82341174D01*
X95886819Y-82287583D01*
X95853334Y-82226260D01*
X95850500Y-82199902D01*
X95850500Y-81059313D01*
X95850499Y-81059298D01*
X95848641Y-81035692D01*
X95847598Y-81022431D01*
X95801744Y-80864602D01*
X95718081Y-80723135D01*
X95718079Y-80723133D01*
X95718076Y-80723129D01*
X95601870Y-80606923D01*
X95601867Y-80606921D01*
X95601865Y-80606919D01*
X95601549Y-80606732D01*
X95601353Y-80606522D01*
X95595702Y-80602139D01*
X95596409Y-80601227D01*
X95553866Y-80555664D01*
X95541362Y-80486923D01*
X95568006Y-80422333D01*
X95595921Y-80398144D01*
X95595702Y-80397861D01*
X95600911Y-80393820D01*
X95601550Y-80393267D01*
X95601865Y-80393081D01*
X95718081Y-80276865D01*
X95801744Y-80135398D01*
X95847598Y-79977569D01*
X95850500Y-79940694D01*
X95850500Y-78784306D01*
X95847598Y-78747431D01*
X95842610Y-78730264D01*
X95801745Y-78589606D01*
X95801744Y-78589603D01*
X95801744Y-78589602D01*
X95718081Y-78448135D01*
X95718079Y-78448133D01*
X95718076Y-78448129D01*
X95686819Y-78416872D01*
X95653334Y-78355549D01*
X95650500Y-78329191D01*
X95650500Y-77087230D01*
X95670185Y-77020191D01*
X95686819Y-76999549D01*
X95692696Y-76993672D01*
X95742712Y-76943656D01*
X95834814Y-76794334D01*
X95870879Y-76685494D01*
X95910652Y-76628051D01*
X95975167Y-76601228D01*
X95988585Y-76600500D01*
X96413331Y-76600500D01*
X96413347Y-76600501D01*
X96420943Y-76600501D01*
X96579054Y-76600501D01*
X96579057Y-76600501D01*
X96731785Y-76559577D01*
X96806093Y-76516675D01*
X96868716Y-76480520D01*
X96980520Y-76368716D01*
X96980520Y-76368714D01*
X96990724Y-76358511D01*
X96990727Y-76358506D01*
X97412322Y-75936912D01*
X97473641Y-75903430D01*
X97543333Y-75908414D01*
X97587680Y-75936915D01*
X99793769Y-78143004D01*
X99808472Y-78169931D01*
X99825065Y-78195750D01*
X99825956Y-78201950D01*
X99827254Y-78204327D01*
X99830088Y-78230685D01*
X99830088Y-78343918D01*
X99830087Y-78343936D01*
X99830087Y-78509642D01*
X99830086Y-78509642D01*
X99871011Y-78662373D01*
X99889983Y-78695233D01*
X99889982Y-78695233D01*
X99889983Y-78695234D01*
X99950063Y-78799297D01*
X99950069Y-78799305D01*
X100068937Y-78918173D01*
X100068943Y-78918178D01*
X100665425Y-79514660D01*
X100698910Y-79575983D01*
X100699361Y-79578149D01*
X100730261Y-79733491D01*
X100730264Y-79733501D01*
X100790602Y-79879172D01*
X100790609Y-79879185D01*
X100878210Y-80010288D01*
X100878213Y-80010292D01*
X100989707Y-80121786D01*
X100989711Y-80121789D01*
X101120814Y-80209390D01*
X101120827Y-80209397D01*
X101266498Y-80269735D01*
X101266503Y-80269737D01*
X101421153Y-80300499D01*
X101421156Y-80300500D01*
X101421158Y-80300500D01*
X101578844Y-80300500D01*
X101578845Y-80300499D01*
X101733497Y-80269737D01*
X101879179Y-80209394D01*
X102010289Y-80121789D01*
X102121789Y-80010289D01*
X102209394Y-79879179D01*
X102269737Y-79733497D01*
X102300500Y-79578842D01*
X102300500Y-79421158D01*
X102300500Y-79421155D01*
X102300499Y-79421153D01*
X102269738Y-79266510D01*
X102269737Y-79266503D01*
X102269735Y-79266498D01*
X102209397Y-79120827D01*
X102209390Y-79120814D01*
X102121789Y-78989711D01*
X102121786Y-78989707D01*
X102010292Y-78878213D01*
X102010288Y-78878210D01*
X101879185Y-78790609D01*
X101879172Y-78790602D01*
X101733501Y-78730264D01*
X101733491Y-78730261D01*
X101578149Y-78699361D01*
X101516238Y-78666976D01*
X101514660Y-78665425D01*
X101117504Y-78268269D01*
X101084019Y-78206946D01*
X101089003Y-78137254D01*
X101117504Y-78092907D01*
X103032416Y-76177995D01*
X103093739Y-76144510D01*
X103120097Y-76141676D01*
X103234682Y-76141676D01*
X103234690Y-76141676D01*
X103270993Y-76138819D01*
X103270995Y-76138818D01*
X103270997Y-76138818D01*
X103311975Y-76126912D01*
X103426395Y-76093670D01*
X103565687Y-76011293D01*
X103680117Y-75896863D01*
X103762494Y-75757571D01*
X103807643Y-75602169D01*
X103810500Y-75565866D01*
X103810500Y-75156486D01*
X103807643Y-75120183D01*
X103798200Y-75087681D01*
X103765542Y-74975271D01*
X103765741Y-74905402D01*
X103803683Y-74846732D01*
X103867321Y-74817888D01*
X103884618Y-74816676D01*
X104112713Y-74816676D01*
X104112720Y-74816676D01*
X104225236Y-74801863D01*
X104225236Y-74801862D01*
X104233295Y-74800802D01*
X104233698Y-74803865D01*
X104266302Y-74803865D01*
X104266705Y-74800802D01*
X104274763Y-74801862D01*
G37*
%TD.AperFunction*%
%TA.AperFunction,Conductor*%
G36*
X99299987Y-72411370D02*
G01*
X99309767Y-72418874D01*
X99309768Y-72418874D01*
X99309769Y-72418875D01*
X99330270Y-72427366D01*
X99449764Y-72476863D01*
X99562280Y-72491676D01*
X99562287Y-72491676D01*
X101087713Y-72491676D01*
X101087720Y-72491676D01*
X101200236Y-72476863D01*
X101203754Y-72475405D01*
X101206961Y-72475060D01*
X101208087Y-72474759D01*
X101208134Y-72474934D01*
X101273220Y-72467933D01*
X101335701Y-72499204D01*
X101371357Y-72559290D01*
X101368868Y-72629116D01*
X101365774Y-72637411D01*
X101364315Y-72640933D01*
X101364313Y-72640940D01*
X101349500Y-72753448D01*
X101349500Y-74278903D01*
X101361324Y-74368709D01*
X101364313Y-74391412D01*
X101422302Y-74531409D01*
X101514549Y-74651627D01*
X101634767Y-74743874D01*
X101774764Y-74801863D01*
X101881586Y-74815926D01*
X101887264Y-74816674D01*
X101887280Y-74816676D01*
X101887287Y-74816676D01*
X102115382Y-74816676D01*
X102182421Y-74836361D01*
X102228176Y-74889165D01*
X102238120Y-74958323D01*
X102234458Y-74975271D01*
X102192357Y-75120178D01*
X102192356Y-75120184D01*
X102189500Y-75156478D01*
X102189500Y-75271079D01*
X102169815Y-75338118D01*
X102153181Y-75358760D01*
X100518269Y-76993672D01*
X100456946Y-77027157D01*
X100387254Y-77022173D01*
X100342907Y-76993672D01*
X98436916Y-75087681D01*
X98403431Y-75026358D01*
X98408415Y-74956666D01*
X98436916Y-74912319D01*
X98654726Y-74694509D01*
X98980520Y-74368716D01*
X99059577Y-74231784D01*
X99100501Y-74079057D01*
X99100501Y-73920942D01*
X99100501Y-73913347D01*
X99100500Y-73913329D01*
X99100500Y-72509744D01*
X99120185Y-72442705D01*
X99172989Y-72396950D01*
X99242147Y-72387006D01*
X99299987Y-72411370D01*
G37*
%TD.AperFunction*%
%TA.AperFunction,Conductor*%
G36*
X97504347Y-70330677D02*
G01*
X97575500Y-70330677D01*
X97642539Y-70350362D01*
X97688294Y-70403166D01*
X97699500Y-70454677D01*
X97699500Y-70575873D01*
X97702356Y-70612167D01*
X97702357Y-70612173D01*
X97747504Y-70767566D01*
X97747505Y-70767569D01*
X97747506Y-70767571D01*
X97761129Y-70790606D01*
X97829881Y-70906860D01*
X97829887Y-70906868D01*
X97907374Y-70984355D01*
X97913126Y-70994890D01*
X97922384Y-71002534D01*
X97929561Y-71024988D01*
X97940859Y-71045678D01*
X97940534Y-71059314D01*
X97943658Y-71069087D01*
X97939467Y-71104131D01*
X97918134Y-71183743D01*
X97886043Y-71239327D01*
X97849887Y-71275484D01*
X97849879Y-71275494D01*
X97767505Y-71414782D01*
X97767504Y-71414785D01*
X97722357Y-71570178D01*
X97722356Y-71570184D01*
X97719500Y-71606478D01*
X97719500Y-72075873D01*
X97722356Y-72112167D01*
X97722357Y-72112173D01*
X97767504Y-72267566D01*
X97767505Y-72267569D01*
X97838139Y-72387006D01*
X97849883Y-72406863D01*
X97863180Y-72420160D01*
X97896666Y-72481481D01*
X97899500Y-72507842D01*
X97899500Y-73699902D01*
X97879815Y-73766941D01*
X97863181Y-73787583D01*
X97131286Y-74519478D01*
X97131284Y-74519480D01*
X96692442Y-74958323D01*
X96287584Y-75363181D01*
X96260656Y-75377884D01*
X96234838Y-75394477D01*
X96228637Y-75395368D01*
X96226261Y-75396666D01*
X96199903Y-75399500D01*
X95988585Y-75399500D01*
X95921546Y-75379815D01*
X95875791Y-75327011D01*
X95870879Y-75314504D01*
X95869583Y-75310593D01*
X95834814Y-75205666D01*
X95742712Y-75056344D01*
X95618656Y-74932288D01*
X95618655Y-74932287D01*
X95559402Y-74895739D01*
X95512678Y-74843791D01*
X95500500Y-74790201D01*
X95500500Y-70454676D01*
X95520185Y-70387637D01*
X95572989Y-70341882D01*
X95624500Y-70330676D01*
X97504331Y-70330676D01*
X97504347Y-70330677D01*
G37*
%TD.AperFunction*%
%TA.AperFunction,Conductor*%
G36*
X105016963Y-59328787D02*
G01*
X105044713Y-59331104D01*
X105054180Y-59336420D01*
X105058127Y-59337230D01*
X105075482Y-59348382D01*
X105134767Y-59393874D01*
X105274764Y-59451863D01*
X105381586Y-59465926D01*
X105387264Y-59466674D01*
X105387280Y-59466676D01*
X105387287Y-59466676D01*
X105612713Y-59466676D01*
X105612720Y-59466676D01*
X105725236Y-59451863D01*
X105725236Y-59451862D01*
X105733295Y-59450802D01*
X105733698Y-59453865D01*
X105766302Y-59453865D01*
X105766705Y-59450802D01*
X105774763Y-59451862D01*
X105774764Y-59451863D01*
X105887280Y-59466676D01*
X105887287Y-59466676D01*
X106112713Y-59466676D01*
X106112720Y-59466676D01*
X106225236Y-59451863D01*
X106225236Y-59451862D01*
X106233295Y-59450802D01*
X106233698Y-59453865D01*
X106266302Y-59453865D01*
X106266705Y-59450802D01*
X106274763Y-59451862D01*
X106274764Y-59451863D01*
X106387280Y-59466676D01*
X106387287Y-59466676D01*
X106612713Y-59466676D01*
X106612720Y-59466676D01*
X106725236Y-59451863D01*
X106725237Y-59451862D01*
X106731096Y-59451091D01*
X106731228Y-59451030D01*
X106731463Y-59451043D01*
X106733295Y-59450802D01*
X106733340Y-59451147D01*
X106747533Y-59451936D01*
X106766521Y-59450706D01*
X106774589Y-59451790D01*
X106774764Y-59451863D01*
X106792023Y-59454135D01*
X106823841Y-59468314D01*
X106855579Y-59482354D01*
X106855676Y-59482502D01*
X106855840Y-59482575D01*
X106874955Y-59511728D01*
X106894052Y-59540678D01*
X106894085Y-59540904D01*
X106894152Y-59541005D01*
X106894155Y-59541367D01*
X106899500Y-59577029D01*
X106899500Y-63920234D01*
X106879815Y-63987273D01*
X106878602Y-63989125D01*
X106790609Y-64120814D01*
X106790602Y-64120827D01*
X106730264Y-64266498D01*
X106730261Y-64266510D01*
X106699500Y-64421153D01*
X106699500Y-64578846D01*
X106730261Y-64733489D01*
X106730264Y-64733501D01*
X106790602Y-64879172D01*
X106790609Y-64879185D01*
X106878210Y-65010288D01*
X106878213Y-65010292D01*
X106989707Y-65121786D01*
X106989711Y-65121789D01*
X107120814Y-65209390D01*
X107120827Y-65209397D01*
X107266498Y-65269735D01*
X107266503Y-65269737D01*
X107418544Y-65299980D01*
X107421153Y-65300499D01*
X107421156Y-65300500D01*
X107421158Y-65300500D01*
X107578844Y-65300500D01*
X107578845Y-65300499D01*
X107733497Y-65269737D01*
X107879179Y-65209394D01*
X108010289Y-65121789D01*
X108121789Y-65010289D01*
X108209394Y-64879179D01*
X108213728Y-64868717D01*
X108248056Y-64785840D01*
X108269737Y-64733497D01*
X108300500Y-64578842D01*
X108300500Y-64421158D01*
X108300500Y-64421155D01*
X108300499Y-64421153D01*
X108287484Y-64355725D01*
X108269737Y-64266503D01*
X108253978Y-64228456D01*
X108209397Y-64120827D01*
X108209390Y-64120814D01*
X108121398Y-63989125D01*
X108100520Y-63922447D01*
X108100500Y-63920234D01*
X108100500Y-59577029D01*
X108100666Y-59576461D01*
X108100505Y-59575892D01*
X108110502Y-59542965D01*
X108120185Y-59509990D01*
X108120631Y-59509602D01*
X108120804Y-59509036D01*
X108147035Y-59486723D01*
X108172989Y-59464235D01*
X108173724Y-59464022D01*
X108174025Y-59463767D01*
X108200144Y-59456395D01*
X108207973Y-59454135D01*
X108225236Y-59451863D01*
X108225410Y-59451790D01*
X108233479Y-59450706D01*
X108254104Y-59453865D01*
X108266302Y-59453865D01*
X108266705Y-59450802D01*
X108274763Y-59451862D01*
X108274764Y-59451863D01*
X108387280Y-59466676D01*
X108387287Y-59466676D01*
X108612713Y-59466676D01*
X108612720Y-59466676D01*
X108725236Y-59451863D01*
X108725236Y-59451862D01*
X108733295Y-59450802D01*
X108733698Y-59453865D01*
X108766302Y-59453865D01*
X108766705Y-59450802D01*
X108774763Y-59451862D01*
X108774764Y-59451863D01*
X108887280Y-59466676D01*
X108887287Y-59466676D01*
X109112713Y-59466676D01*
X109112720Y-59466676D01*
X109225236Y-59451863D01*
X109225236Y-59451862D01*
X109233295Y-59450802D01*
X109233698Y-59453865D01*
X109266302Y-59453865D01*
X109266705Y-59450802D01*
X109274763Y-59451862D01*
X109274764Y-59451863D01*
X109387280Y-59466676D01*
X109387287Y-59466676D01*
X109612713Y-59466676D01*
X109612720Y-59466676D01*
X109725236Y-59451863D01*
X109725236Y-59451862D01*
X109733295Y-59450802D01*
X109733698Y-59453865D01*
X109766302Y-59453865D01*
X109766705Y-59450802D01*
X109774763Y-59451862D01*
X109774764Y-59451863D01*
X109887280Y-59466676D01*
X109887287Y-59466676D01*
X110112713Y-59466676D01*
X110112720Y-59466676D01*
X110225236Y-59451863D01*
X110225236Y-59451862D01*
X110233295Y-59450802D01*
X110233698Y-59453865D01*
X110266302Y-59453865D01*
X110266705Y-59450802D01*
X110274763Y-59451862D01*
X110274764Y-59451863D01*
X110387280Y-59466676D01*
X110387287Y-59466676D01*
X110612713Y-59466676D01*
X110612720Y-59466676D01*
X110725236Y-59451863D01*
X110725236Y-59451862D01*
X110733295Y-59450802D01*
X110733698Y-59453865D01*
X110766302Y-59453865D01*
X110766705Y-59450802D01*
X110774763Y-59451862D01*
X110774764Y-59451863D01*
X110887280Y-59466676D01*
X110887287Y-59466676D01*
X111112713Y-59466676D01*
X111112720Y-59466676D01*
X111225236Y-59451863D01*
X111225236Y-59451862D01*
X111233295Y-59450802D01*
X111233698Y-59453865D01*
X111266302Y-59453865D01*
X111266705Y-59450802D01*
X111274763Y-59451862D01*
X111274764Y-59451863D01*
X111387280Y-59466676D01*
X111387287Y-59466676D01*
X111612713Y-59466676D01*
X111612720Y-59466676D01*
X111725236Y-59451863D01*
X111725237Y-59451862D01*
X111731096Y-59451091D01*
X111731228Y-59451030D01*
X111731463Y-59451043D01*
X111733295Y-59450802D01*
X111733340Y-59451147D01*
X111747533Y-59451936D01*
X111766521Y-59450706D01*
X111774589Y-59451790D01*
X111774764Y-59451863D01*
X111792023Y-59454135D01*
X111823841Y-59468314D01*
X111855579Y-59482354D01*
X111855676Y-59482502D01*
X111855840Y-59482575D01*
X111874955Y-59511728D01*
X111894052Y-59540678D01*
X111894085Y-59540904D01*
X111894152Y-59541005D01*
X111894155Y-59541367D01*
X111899500Y-59577029D01*
X111899500Y-64413330D01*
X111899499Y-64413348D01*
X111899499Y-64579054D01*
X111899498Y-64579054D01*
X111922578Y-64665187D01*
X111940423Y-64731785D01*
X111955148Y-64757289D01*
X111957935Y-64762115D01*
X111957936Y-64762119D01*
X112019475Y-64868709D01*
X112019479Y-64868714D01*
X112019480Y-64868716D01*
X112131284Y-64980520D01*
X112131285Y-64980521D01*
X112161056Y-65010292D01*
X112165425Y-65014660D01*
X112198911Y-65075983D01*
X112199362Y-65078151D01*
X112230261Y-65233491D01*
X112230264Y-65233501D01*
X112290602Y-65379172D01*
X112290609Y-65379185D01*
X112378210Y-65510288D01*
X112378213Y-65510292D01*
X112489707Y-65621786D01*
X112489711Y-65621789D01*
X112620814Y-65709390D01*
X112620827Y-65709397D01*
X112706654Y-65744947D01*
X112766503Y-65769737D01*
X112882468Y-65792804D01*
X112921153Y-65800499D01*
X112921156Y-65800500D01*
X112921158Y-65800500D01*
X113078844Y-65800500D01*
X113078845Y-65800499D01*
X113233497Y-65769737D01*
X113351181Y-65720991D01*
X113379172Y-65709397D01*
X113379172Y-65709396D01*
X113379179Y-65709394D01*
X113510289Y-65621789D01*
X113621789Y-65510289D01*
X113709394Y-65379179D01*
X113769737Y-65233497D01*
X113800500Y-65078842D01*
X113800500Y-64921158D01*
X113800500Y-64921155D01*
X113787426Y-64855431D01*
X113793653Y-64785840D01*
X113836515Y-64730662D01*
X113861589Y-64716679D01*
X113879179Y-64709394D01*
X114010289Y-64621789D01*
X114121789Y-64510289D01*
X114135539Y-64489711D01*
X114156068Y-64458988D01*
X114176017Y-64442314D01*
X114193261Y-64422844D01*
X114202397Y-64420268D01*
X114209680Y-64414182D01*
X114235479Y-64410941D01*
X114260510Y-64403885D01*
X114269588Y-64406657D01*
X114279005Y-64405475D01*
X114302461Y-64416697D01*
X114327332Y-64424293D01*
X114333469Y-64431532D01*
X114342032Y-64435629D01*
X114355699Y-64457754D01*
X114372514Y-64477588D01*
X114376329Y-64491151D01*
X114378752Y-64495072D01*
X114382091Y-64511558D01*
X114389313Y-64566412D01*
X114389402Y-64566628D01*
X114390495Y-64574856D01*
X114387399Y-64594853D01*
X114387399Y-64607492D01*
X114390374Y-64607884D01*
X114389313Y-64615938D01*
X114389313Y-64615940D01*
X114388670Y-64620827D01*
X114374500Y-64728448D01*
X114374500Y-64953903D01*
X114390374Y-65074468D01*
X114387399Y-65074859D01*
X114387399Y-65107492D01*
X114390374Y-65107884D01*
X114389313Y-65115938D01*
X114389313Y-65115940D01*
X114388543Y-65121789D01*
X114374500Y-65228448D01*
X114374500Y-65453903D01*
X114390374Y-65574468D01*
X114387399Y-65574859D01*
X114387399Y-65607492D01*
X114390374Y-65607884D01*
X114389313Y-65615938D01*
X114389313Y-65615940D01*
X114386005Y-65641068D01*
X114374500Y-65728448D01*
X114374500Y-65953903D01*
X114390374Y-66074468D01*
X114387399Y-66074859D01*
X114387399Y-66107492D01*
X114390374Y-66107884D01*
X114389313Y-66115938D01*
X114389313Y-66115940D01*
X114388670Y-66120827D01*
X114374500Y-66228448D01*
X114374500Y-66453903D01*
X114390374Y-66574468D01*
X114387399Y-66574859D01*
X114387399Y-66607492D01*
X114390374Y-66607884D01*
X114374500Y-66728448D01*
X114374500Y-66953903D01*
X114385499Y-67037447D01*
X114387040Y-67049150D01*
X114390374Y-67074468D01*
X114387399Y-67074859D01*
X114387399Y-67107492D01*
X114390374Y-67107884D01*
X114389313Y-67115938D01*
X114389313Y-67115940D01*
X114388543Y-67121789D01*
X114374500Y-67228448D01*
X114374500Y-67453903D01*
X114390374Y-67574468D01*
X114387399Y-67574859D01*
X114387399Y-67607492D01*
X114390374Y-67607884D01*
X114389313Y-67615938D01*
X114389313Y-67615940D01*
X114388670Y-67620827D01*
X114374500Y-67728448D01*
X114374500Y-67953903D01*
X114385499Y-68037447D01*
X114389218Y-68065692D01*
X114390374Y-68074468D01*
X114387399Y-68074859D01*
X114387399Y-68107492D01*
X114390374Y-68107884D01*
X114374500Y-68228448D01*
X114374500Y-68453903D01*
X114390374Y-68574468D01*
X114387399Y-68574859D01*
X114387399Y-68607492D01*
X114390374Y-68607884D01*
X114389313Y-68615938D01*
X114389313Y-68615940D01*
X114388543Y-68621789D01*
X114374500Y-68728448D01*
X114374500Y-68953903D01*
X114390374Y-69074468D01*
X114387399Y-69074859D01*
X114387399Y-69107492D01*
X114390374Y-69107884D01*
X114389313Y-69115938D01*
X114389313Y-69115940D01*
X114388670Y-69120827D01*
X114374500Y-69228448D01*
X114374500Y-69453903D01*
X114390374Y-69574468D01*
X114387399Y-69574859D01*
X114387399Y-69607492D01*
X114390374Y-69607884D01*
X114374500Y-69728448D01*
X114374500Y-69953903D01*
X114390374Y-70074468D01*
X114387399Y-70074859D01*
X114387399Y-70107492D01*
X114390374Y-70107884D01*
X114389313Y-70115938D01*
X114389313Y-70115940D01*
X114388543Y-70121789D01*
X114374500Y-70228448D01*
X114374500Y-70453903D01*
X114390374Y-70574468D01*
X114387399Y-70574859D01*
X114387399Y-70607492D01*
X114390374Y-70607884D01*
X114374500Y-70728448D01*
X114374500Y-70953903D01*
X114390374Y-71074468D01*
X114387399Y-71074859D01*
X114387399Y-71107492D01*
X114390374Y-71107884D01*
X114389313Y-71115938D01*
X114389313Y-71115940D01*
X114388670Y-71120827D01*
X114374500Y-71228448D01*
X114374500Y-71453903D01*
X114390374Y-71574468D01*
X114387399Y-71574859D01*
X114387399Y-71607492D01*
X114390374Y-71607884D01*
X114374500Y-71728448D01*
X114374500Y-71953903D01*
X114387461Y-72052347D01*
X114388710Y-72061835D01*
X114389313Y-72066411D01*
X114390773Y-72069936D01*
X114391118Y-72073148D01*
X114391417Y-72074263D01*
X114391243Y-72074309D01*
X114398240Y-72139405D01*
X114366965Y-72201884D01*
X114306875Y-72237536D01*
X114237050Y-72235041D01*
X114228763Y-72231950D01*
X114225236Y-72230489D01*
X114210698Y-72228575D01*
X114112727Y-72215676D01*
X114112720Y-72215676D01*
X113887280Y-72215676D01*
X113887272Y-72215676D01*
X113800393Y-72227114D01*
X113774764Y-72230489D01*
X113774762Y-72230489D01*
X113766708Y-72231550D01*
X113766316Y-72228575D01*
X113733684Y-72228575D01*
X113733292Y-72231550D01*
X113725237Y-72230489D01*
X113725236Y-72230489D01*
X113696271Y-72226675D01*
X113612727Y-72215676D01*
X113612720Y-72215676D01*
X113387280Y-72215676D01*
X113387272Y-72215676D01*
X113300393Y-72227114D01*
X113274764Y-72230489D01*
X113274762Y-72230489D01*
X113266708Y-72231550D01*
X113266316Y-72228575D01*
X113233684Y-72228575D01*
X113233292Y-72231550D01*
X113225237Y-72230489D01*
X113225236Y-72230489D01*
X113196271Y-72226675D01*
X113112727Y-72215676D01*
X113112720Y-72215676D01*
X112887280Y-72215676D01*
X112887272Y-72215676D01*
X112800393Y-72227114D01*
X112774764Y-72230489D01*
X112774762Y-72230489D01*
X112766708Y-72231550D01*
X112766316Y-72228575D01*
X112733684Y-72228575D01*
X112733292Y-72231550D01*
X112725237Y-72230489D01*
X112725236Y-72230489D01*
X112696271Y-72226675D01*
X112612727Y-72215676D01*
X112612720Y-72215676D01*
X112387280Y-72215676D01*
X112387272Y-72215676D01*
X112300393Y-72227114D01*
X112274764Y-72230489D01*
X112274762Y-72230489D01*
X112266708Y-72231550D01*
X112266316Y-72228575D01*
X112233684Y-72228575D01*
X112233292Y-72231550D01*
X112225237Y-72230489D01*
X112225236Y-72230489D01*
X112196271Y-72226675D01*
X112112727Y-72215676D01*
X112112720Y-72215676D01*
X111887280Y-72215676D01*
X111887272Y-72215676D01*
X111800393Y-72227114D01*
X111774764Y-72230489D01*
X111774762Y-72230489D01*
X111766708Y-72231550D01*
X111766316Y-72228575D01*
X111733684Y-72228575D01*
X111733292Y-72231550D01*
X111725237Y-72230489D01*
X111725236Y-72230489D01*
X111696271Y-72226675D01*
X111612727Y-72215676D01*
X111612720Y-72215676D01*
X111387280Y-72215676D01*
X111387272Y-72215676D01*
X111300393Y-72227114D01*
X111274764Y-72230489D01*
X111274762Y-72230489D01*
X111266708Y-72231550D01*
X111266316Y-72228575D01*
X111233684Y-72228575D01*
X111233292Y-72231550D01*
X111225237Y-72230489D01*
X111225236Y-72230489D01*
X111196271Y-72226675D01*
X111112727Y-72215676D01*
X111112720Y-72215676D01*
X110887280Y-72215676D01*
X110887272Y-72215676D01*
X110800393Y-72227114D01*
X110774764Y-72230489D01*
X110774762Y-72230489D01*
X110766708Y-72231550D01*
X110766316Y-72228575D01*
X110733684Y-72228575D01*
X110733292Y-72231550D01*
X110725237Y-72230489D01*
X110725236Y-72230489D01*
X110696271Y-72226675D01*
X110612727Y-72215676D01*
X110612720Y-72215676D01*
X110387280Y-72215676D01*
X110387272Y-72215676D01*
X110300393Y-72227114D01*
X110274764Y-72230489D01*
X110274762Y-72230489D01*
X110266708Y-72231550D01*
X110266316Y-72228575D01*
X110233684Y-72228575D01*
X110233292Y-72231550D01*
X110225237Y-72230489D01*
X110225236Y-72230489D01*
X110196271Y-72226675D01*
X110112727Y-72215676D01*
X110112720Y-72215676D01*
X109887280Y-72215676D01*
X109887272Y-72215676D01*
X109800393Y-72227114D01*
X109774764Y-72230489D01*
X109774762Y-72230489D01*
X109766708Y-72231550D01*
X109766316Y-72228575D01*
X109733684Y-72228575D01*
X109733292Y-72231550D01*
X109725237Y-72230489D01*
X109725236Y-72230489D01*
X109696271Y-72226675D01*
X109612727Y-72215676D01*
X109612720Y-72215676D01*
X109387280Y-72215676D01*
X109387272Y-72215676D01*
X109300393Y-72227114D01*
X109274764Y-72230489D01*
X109274762Y-72230489D01*
X109266708Y-72231550D01*
X109266316Y-72228575D01*
X109233684Y-72228575D01*
X109233292Y-72231550D01*
X109225237Y-72230489D01*
X109225236Y-72230489D01*
X109196271Y-72226675D01*
X109112727Y-72215676D01*
X109112720Y-72215676D01*
X108887280Y-72215676D01*
X108887272Y-72215676D01*
X108800393Y-72227114D01*
X108774764Y-72230489D01*
X108774762Y-72230489D01*
X108766708Y-72231550D01*
X108766316Y-72228575D01*
X108733684Y-72228575D01*
X108733292Y-72231550D01*
X108725237Y-72230489D01*
X108725236Y-72230489D01*
X108696271Y-72226675D01*
X108612727Y-72215676D01*
X108612720Y-72215676D01*
X108387280Y-72215676D01*
X108387272Y-72215676D01*
X108300393Y-72227114D01*
X108274764Y-72230489D01*
X108274762Y-72230489D01*
X108266708Y-72231550D01*
X108266316Y-72228575D01*
X108233684Y-72228575D01*
X108233292Y-72231550D01*
X108225237Y-72230489D01*
X108225236Y-72230489D01*
X108196271Y-72226675D01*
X108112727Y-72215676D01*
X108112720Y-72215676D01*
X107887280Y-72215676D01*
X107887272Y-72215676D01*
X107800393Y-72227114D01*
X107774764Y-72230489D01*
X107774762Y-72230489D01*
X107766708Y-72231550D01*
X107766316Y-72228575D01*
X107733684Y-72228575D01*
X107733292Y-72231550D01*
X107725237Y-72230489D01*
X107725236Y-72230489D01*
X107696271Y-72226675D01*
X107612727Y-72215676D01*
X107612720Y-72215676D01*
X107387280Y-72215676D01*
X107387272Y-72215676D01*
X107300393Y-72227114D01*
X107274764Y-72230489D01*
X107274762Y-72230489D01*
X107266708Y-72231550D01*
X107266316Y-72228575D01*
X107233684Y-72228575D01*
X107233292Y-72231550D01*
X107225237Y-72230489D01*
X107225236Y-72230489D01*
X107196271Y-72226675D01*
X107112727Y-72215676D01*
X107112720Y-72215676D01*
X106887280Y-72215676D01*
X106887272Y-72215676D01*
X106800393Y-72227114D01*
X106774764Y-72230489D01*
X106774762Y-72230489D01*
X106766708Y-72231550D01*
X106766316Y-72228575D01*
X106733684Y-72228575D01*
X106733292Y-72231550D01*
X106725237Y-72230489D01*
X106725236Y-72230489D01*
X106696271Y-72226675D01*
X106612727Y-72215676D01*
X106612720Y-72215676D01*
X106387280Y-72215676D01*
X106387272Y-72215676D01*
X106300393Y-72227114D01*
X106274764Y-72230489D01*
X106274762Y-72230489D01*
X106266708Y-72231550D01*
X106266316Y-72228575D01*
X106233684Y-72228575D01*
X106233292Y-72231550D01*
X106225237Y-72230489D01*
X106225236Y-72230489D01*
X106196271Y-72226675D01*
X106112727Y-72215676D01*
X106112720Y-72215676D01*
X105887280Y-72215676D01*
X105887272Y-72215676D01*
X105800393Y-72227114D01*
X105774764Y-72230489D01*
X105774762Y-72230489D01*
X105766708Y-72231550D01*
X105766316Y-72228575D01*
X105733684Y-72228575D01*
X105733292Y-72231550D01*
X105725237Y-72230489D01*
X105725236Y-72230489D01*
X105696271Y-72226675D01*
X105612727Y-72215676D01*
X105612720Y-72215676D01*
X105387280Y-72215676D01*
X105387272Y-72215676D01*
X105300393Y-72227114D01*
X105274764Y-72230489D01*
X105274762Y-72230489D01*
X105266708Y-72231550D01*
X105266316Y-72228575D01*
X105233684Y-72228575D01*
X105233292Y-72231550D01*
X105225237Y-72230489D01*
X105225236Y-72230489D01*
X105196271Y-72226675D01*
X105112727Y-72215676D01*
X105112720Y-72215676D01*
X104887280Y-72215676D01*
X104887272Y-72215676D01*
X104800393Y-72227114D01*
X104774764Y-72230489D01*
X104774762Y-72230489D01*
X104766708Y-72231550D01*
X104766316Y-72228575D01*
X104733684Y-72228575D01*
X104733292Y-72231550D01*
X104725237Y-72230489D01*
X104725236Y-72230489D01*
X104696271Y-72226675D01*
X104612727Y-72215676D01*
X104612720Y-72215676D01*
X104387280Y-72215676D01*
X104387272Y-72215676D01*
X104300393Y-72227114D01*
X104274764Y-72230489D01*
X104274762Y-72230489D01*
X104266708Y-72231550D01*
X104266316Y-72228575D01*
X104233684Y-72228575D01*
X104233292Y-72231550D01*
X104225237Y-72230489D01*
X104225236Y-72230489D01*
X104196271Y-72226675D01*
X104112727Y-72215676D01*
X104112720Y-72215676D01*
X103887280Y-72215676D01*
X103887272Y-72215676D01*
X103800393Y-72227114D01*
X103774764Y-72230489D01*
X103774762Y-72230489D01*
X103766708Y-72231550D01*
X103766316Y-72228575D01*
X103733684Y-72228575D01*
X103733292Y-72231550D01*
X103725237Y-72230489D01*
X103725236Y-72230489D01*
X103696271Y-72226675D01*
X103612727Y-72215676D01*
X103612720Y-72215676D01*
X103387280Y-72215676D01*
X103387272Y-72215676D01*
X103300393Y-72227114D01*
X103274764Y-72230489D01*
X103274762Y-72230489D01*
X103266708Y-72231550D01*
X103266316Y-72228575D01*
X103233684Y-72228575D01*
X103233292Y-72231550D01*
X103225237Y-72230489D01*
X103225236Y-72230489D01*
X103196271Y-72226675D01*
X103112727Y-72215676D01*
X103112720Y-72215676D01*
X102887280Y-72215676D01*
X102887272Y-72215676D01*
X102774764Y-72230489D01*
X102774763Y-72230489D01*
X102634769Y-72288476D01*
X102618920Y-72300638D01*
X102575485Y-72333966D01*
X102510317Y-72359160D01*
X102441873Y-72345122D01*
X102424517Y-72333969D01*
X102365233Y-72288478D01*
X102365232Y-72288477D01*
X102365230Y-72288476D01*
X102257661Y-72243920D01*
X102225236Y-72230489D01*
X102210698Y-72228575D01*
X102112727Y-72215676D01*
X102112720Y-72215676D01*
X101887280Y-72215676D01*
X101887272Y-72215676D01*
X101774764Y-72230489D01*
X101774757Y-72230491D01*
X101771235Y-72231950D01*
X101768025Y-72232294D01*
X101766913Y-72232593D01*
X101766866Y-72232419D01*
X101701766Y-72239416D01*
X101639288Y-72208138D01*
X101603638Y-72148047D01*
X101606135Y-72078222D01*
X101609227Y-72069936D01*
X101610687Y-72066412D01*
X101625500Y-71953896D01*
X101625500Y-71728456D01*
X101610687Y-71615940D01*
X101610686Y-71615939D01*
X101609626Y-71607881D01*
X101612689Y-71607477D01*
X101612689Y-71574874D01*
X101609626Y-71574471D01*
X101622304Y-71478170D01*
X101625500Y-71453896D01*
X101625500Y-71228456D01*
X101610687Y-71115940D01*
X101610686Y-71115939D01*
X101609626Y-71107881D01*
X101612689Y-71107477D01*
X101612689Y-71074874D01*
X101609626Y-71074471D01*
X101611621Y-71059314D01*
X101625500Y-70953896D01*
X101625500Y-70728456D01*
X101610687Y-70615940D01*
X101610686Y-70615939D01*
X101609626Y-70607881D01*
X101612689Y-70607477D01*
X101612689Y-70574874D01*
X101609626Y-70574471D01*
X101610687Y-70566412D01*
X101625500Y-70453896D01*
X101625500Y-70228456D01*
X101610687Y-70115940D01*
X101610686Y-70115939D01*
X101609626Y-70107881D01*
X101612689Y-70107477D01*
X101612689Y-70074874D01*
X101609626Y-70074471D01*
X101615996Y-70026086D01*
X101625500Y-69953896D01*
X101625500Y-69728456D01*
X101610687Y-69615940D01*
X101552698Y-69475943D01*
X101507209Y-69416661D01*
X101482016Y-69351493D01*
X101496054Y-69283049D01*
X101507206Y-69265693D01*
X101552698Y-69206409D01*
X101610687Y-69066412D01*
X101625500Y-68953896D01*
X101625500Y-68728456D01*
X101610687Y-68615940D01*
X101610686Y-68615939D01*
X101609626Y-68607881D01*
X101612689Y-68607477D01*
X101612689Y-68574874D01*
X101609626Y-68574471D01*
X101618075Y-68510292D01*
X101625500Y-68453896D01*
X101625500Y-68228456D01*
X101610687Y-68115940D01*
X101610686Y-68115939D01*
X101609626Y-68107881D01*
X101612689Y-68107477D01*
X101612689Y-68074874D01*
X101609626Y-68074471D01*
X101610783Y-68065684D01*
X101625500Y-67953896D01*
X101625500Y-67728456D01*
X101610687Y-67615940D01*
X101610686Y-67615939D01*
X101609626Y-67607881D01*
X101612689Y-67607477D01*
X101612689Y-67574874D01*
X101609626Y-67574471D01*
X101614732Y-67535684D01*
X101625500Y-67453896D01*
X101625500Y-67228456D01*
X101610687Y-67115940D01*
X101610685Y-67115936D01*
X101609914Y-67110075D01*
X101609853Y-67109943D01*
X101609866Y-67109705D01*
X101609626Y-67107881D01*
X101609970Y-67107835D01*
X101610760Y-67093628D01*
X101609531Y-67074650D01*
X101610615Y-67066584D01*
X101610687Y-67066412D01*
X101612960Y-67049150D01*
X101627076Y-67017477D01*
X101641182Y-66985593D01*
X101641331Y-66985494D01*
X101641404Y-66985332D01*
X101670478Y-66966269D01*
X101699507Y-66947123D01*
X101699733Y-66947089D01*
X101699834Y-66947023D01*
X101700196Y-66947019D01*
X101735854Y-66941676D01*
X105766086Y-66941676D01*
X105833125Y-66961361D01*
X105869189Y-66996787D01*
X105878209Y-67010287D01*
X105878213Y-67010292D01*
X105989707Y-67121786D01*
X105989711Y-67121789D01*
X106120814Y-67209390D01*
X106120827Y-67209397D01*
X106197108Y-67240993D01*
X106266503Y-67269737D01*
X106371418Y-67290606D01*
X106421153Y-67300499D01*
X106421156Y-67300500D01*
X106421158Y-67300500D01*
X106578844Y-67300500D01*
X106578845Y-67300499D01*
X106733497Y-67269737D01*
X106879179Y-67209394D01*
X107010289Y-67121789D01*
X107121789Y-67010289D01*
X107209394Y-66879179D01*
X107269737Y-66733497D01*
X107300500Y-66578842D01*
X107300500Y-66421158D01*
X107300500Y-66421155D01*
X107300499Y-66421153D01*
X107297518Y-66406169D01*
X107269737Y-66266503D01*
X107250268Y-66219500D01*
X107209397Y-66120827D01*
X107209390Y-66120814D01*
X107121789Y-65989711D01*
X107121786Y-65989707D01*
X107010292Y-65878213D01*
X107010288Y-65878210D01*
X106879185Y-65790609D01*
X106879172Y-65790602D01*
X106733501Y-65730264D01*
X106733489Y-65730261D01*
X106578845Y-65699500D01*
X106578842Y-65699500D01*
X106421158Y-65699500D01*
X106421155Y-65699500D01*
X106266510Y-65730261D01*
X106266502Y-65730263D01*
X106264152Y-65731237D01*
X106261658Y-65731733D01*
X106260676Y-65732031D01*
X106260646Y-65731934D01*
X106216699Y-65740676D01*
X101735854Y-65740676D01*
X101735289Y-65740510D01*
X101734722Y-65740671D01*
X101701779Y-65730670D01*
X101668815Y-65720991D01*
X101668429Y-65720546D01*
X101667865Y-65720375D01*
X101645551Y-65694143D01*
X101623060Y-65668187D01*
X101622848Y-65667454D01*
X101622594Y-65667155D01*
X101615231Y-65641068D01*
X101612960Y-65633202D01*
X101612940Y-65633054D01*
X101610687Y-65615940D01*
X101610615Y-65615767D01*
X101609531Y-65607702D01*
X101612689Y-65587077D01*
X101612689Y-65574874D01*
X101609626Y-65574471D01*
X101610687Y-65566412D01*
X101625500Y-65453896D01*
X101625500Y-65228456D01*
X101610687Y-65115940D01*
X101610686Y-65115939D01*
X101609626Y-65107881D01*
X101612689Y-65107477D01*
X101612689Y-65074874D01*
X101609626Y-65074471D01*
X101614847Y-65034812D01*
X101625500Y-64953896D01*
X101625500Y-64728456D01*
X101610687Y-64615940D01*
X101558399Y-64489707D01*
X101552699Y-64475945D01*
X101552698Y-64475944D01*
X101552698Y-64475943D01*
X101507209Y-64416661D01*
X101482016Y-64351493D01*
X101496054Y-64283049D01*
X101507206Y-64265693D01*
X101552698Y-64206409D01*
X101610687Y-64066412D01*
X101625500Y-63953896D01*
X101625500Y-63728456D01*
X101610687Y-63615940D01*
X101610686Y-63615939D01*
X101609626Y-63607881D01*
X101612689Y-63607477D01*
X101612689Y-63574874D01*
X101609626Y-63574471D01*
X101620784Y-63489715D01*
X101625500Y-63453896D01*
X101625500Y-63228456D01*
X101610687Y-63115940D01*
X101610686Y-63115939D01*
X101609626Y-63107881D01*
X101612689Y-63107477D01*
X101612689Y-63074874D01*
X101609626Y-63074471D01*
X101610687Y-63066412D01*
X101625500Y-62953896D01*
X101625500Y-62728456D01*
X101610687Y-62615940D01*
X101610686Y-62615939D01*
X101609626Y-62607881D01*
X101612689Y-62607477D01*
X101612689Y-62574874D01*
X101609626Y-62574471D01*
X101615149Y-62532520D01*
X101625500Y-62453896D01*
X101625500Y-62228456D01*
X101610687Y-62115940D01*
X101610686Y-62115939D01*
X101609626Y-62107881D01*
X101612689Y-62107477D01*
X101612689Y-62074874D01*
X101609626Y-62074471D01*
X101610848Y-62065186D01*
X101625500Y-61953896D01*
X101625500Y-61728456D01*
X101610687Y-61615940D01*
X101610686Y-61615939D01*
X101609626Y-61607881D01*
X101612689Y-61607477D01*
X101612689Y-61574874D01*
X101609626Y-61574471D01*
X101611121Y-61563116D01*
X101625500Y-61453896D01*
X101625500Y-61228456D01*
X101610687Y-61115940D01*
X101610686Y-61115939D01*
X101609626Y-61107881D01*
X101612689Y-61107477D01*
X101612689Y-61074874D01*
X101609626Y-61074471D01*
X101613672Y-61043735D01*
X101625500Y-60953896D01*
X101625500Y-60728456D01*
X101610687Y-60615940D01*
X101610686Y-60615939D01*
X101609626Y-60607881D01*
X101612689Y-60607477D01*
X101612689Y-60574874D01*
X101609626Y-60574471D01*
X101610687Y-60566412D01*
X101625500Y-60453896D01*
X101625500Y-60228456D01*
X101610687Y-60115940D01*
X101610686Y-60115939D01*
X101609626Y-60107881D01*
X101612689Y-60107477D01*
X101612689Y-60074874D01*
X101609626Y-60074471D01*
X101617033Y-60018208D01*
X101625500Y-59953896D01*
X101625500Y-59728456D01*
X101610687Y-59615940D01*
X101609227Y-59612416D01*
X101608882Y-59609206D01*
X101608583Y-59608089D01*
X101608757Y-59608042D01*
X101601758Y-59542951D01*
X101633030Y-59480471D01*
X101693118Y-59444817D01*
X101762944Y-59447308D01*
X101771220Y-59450395D01*
X101774764Y-59451863D01*
X101865184Y-59463767D01*
X101887264Y-59466674D01*
X101887280Y-59466676D01*
X101887287Y-59466676D01*
X102112713Y-59466676D01*
X102112720Y-59466676D01*
X102225236Y-59451863D01*
X102365233Y-59393874D01*
X102424514Y-59348385D01*
X102489683Y-59323192D01*
X102558127Y-59337230D01*
X102575482Y-59348382D01*
X102634767Y-59393874D01*
X102774764Y-59451863D01*
X102881586Y-59465926D01*
X102887264Y-59466674D01*
X102887280Y-59466676D01*
X102887287Y-59466676D01*
X103112713Y-59466676D01*
X103112720Y-59466676D01*
X103225236Y-59451863D01*
X103225236Y-59451862D01*
X103233295Y-59450802D01*
X103233698Y-59453865D01*
X103266302Y-59453865D01*
X103266705Y-59450802D01*
X103274763Y-59451862D01*
X103274764Y-59451863D01*
X103387280Y-59466676D01*
X103387287Y-59466676D01*
X103612713Y-59466676D01*
X103612720Y-59466676D01*
X103725236Y-59451863D01*
X103725236Y-59451862D01*
X103733295Y-59450802D01*
X103733698Y-59453865D01*
X103766302Y-59453865D01*
X103766705Y-59450802D01*
X103774763Y-59451862D01*
X103774764Y-59451863D01*
X103887280Y-59466676D01*
X103887287Y-59466676D01*
X104112713Y-59466676D01*
X104112720Y-59466676D01*
X104225236Y-59451863D01*
X104225236Y-59451862D01*
X104233295Y-59450802D01*
X104233698Y-59453865D01*
X104266302Y-59453865D01*
X104266705Y-59450802D01*
X104274763Y-59451862D01*
X104274764Y-59451863D01*
X104387280Y-59466676D01*
X104387287Y-59466676D01*
X104612713Y-59466676D01*
X104612720Y-59466676D01*
X104725236Y-59451863D01*
X104865233Y-59393874D01*
X104924514Y-59348385D01*
X104950488Y-59338344D01*
X104975086Y-59325291D01*
X104982625Y-59325920D01*
X104989683Y-59323192D01*
X105016963Y-59328787D01*
G37*
%TD.AperFunction*%
%TA.AperFunction,Conductor*%
G36*
X92205703Y-63333766D02*
G01*
X92232486Y-63370300D01*
X92233535Y-63369680D01*
X92237505Y-63376394D01*
X92237506Y-63376395D01*
X92253120Y-63402797D01*
X92319881Y-63515684D01*
X92319887Y-63515692D01*
X92434307Y-63630112D01*
X92434311Y-63630115D01*
X92434313Y-63630117D01*
X92573605Y-63712494D01*
X92594818Y-63718657D01*
X92729002Y-63757642D01*
X92729005Y-63757642D01*
X92729007Y-63757643D01*
X92765310Y-63760500D01*
X92765318Y-63760500D01*
X93234682Y-63760500D01*
X93234690Y-63760500D01*
X93270993Y-63757643D01*
X93270995Y-63757642D01*
X93270997Y-63757642D01*
X93371433Y-63728462D01*
X93426395Y-63712494D01*
X93565687Y-63630117D01*
X93565692Y-63630112D01*
X93578986Y-63616819D01*
X93640309Y-63583334D01*
X93666667Y-63580500D01*
X96275500Y-63580500D01*
X96342539Y-63600185D01*
X96388294Y-63652989D01*
X96399500Y-63704500D01*
X96399500Y-64400001D01*
X96399501Y-64400019D01*
X96410000Y-64502796D01*
X96410002Y-64502803D01*
X96432298Y-64570088D01*
X96434700Y-64639916D01*
X96398968Y-64699958D01*
X96336447Y-64731150D01*
X96266988Y-64723589D01*
X96249500Y-64714632D01*
X96169334Y-64665186D01*
X96002797Y-64610001D01*
X96002795Y-64610000D01*
X95900010Y-64599500D01*
X94899998Y-64599500D01*
X94899980Y-64599501D01*
X94797203Y-64610000D01*
X94797200Y-64610001D01*
X94630668Y-64665185D01*
X94630663Y-64665187D01*
X94481342Y-64757289D01*
X94357289Y-64881342D01*
X94265187Y-65030663D01*
X94265185Y-65030668D01*
X94255438Y-65060084D01*
X94210001Y-65197203D01*
X94210001Y-65197204D01*
X94210000Y-65197204D01*
X94199500Y-65299983D01*
X94199500Y-65999901D01*
X94179815Y-66066940D01*
X94163185Y-66087577D01*
X93887582Y-66363182D01*
X93860651Y-66377888D01*
X93834838Y-66394477D01*
X93828638Y-66395368D01*
X93826262Y-66396666D01*
X93799903Y-66399500D01*
X93666667Y-66399500D01*
X93599628Y-66379815D01*
X93578986Y-66363181D01*
X93565692Y-66349887D01*
X93565684Y-66349881D01*
X93426393Y-66267505D01*
X93426390Y-66267504D01*
X93270997Y-66222357D01*
X93270991Y-66222356D01*
X93234697Y-66219500D01*
X93234690Y-66219500D01*
X92765310Y-66219500D01*
X92765302Y-66219500D01*
X92729008Y-66222356D01*
X92729002Y-66222357D01*
X92573609Y-66267504D01*
X92573606Y-66267505D01*
X92434315Y-66349881D01*
X92434307Y-66349887D01*
X92319887Y-66464307D01*
X92319881Y-66464315D01*
X92259502Y-66566412D01*
X92244766Y-66591330D01*
X92233535Y-66610320D01*
X92231960Y-66609389D01*
X92193605Y-66655479D01*
X92126971Y-66676495D01*
X92059553Y-66658151D01*
X92012755Y-66606269D01*
X92000500Y-66552520D01*
X92000500Y-63427479D01*
X92020185Y-63360440D01*
X92072989Y-63314685D01*
X92142147Y-63304741D01*
X92205703Y-63333766D01*
G37*
%TD.AperFunction*%
%TA.AperFunction,Conductor*%
G36*
X96733010Y-64976409D02*
G01*
X96750494Y-64985364D01*
X96830666Y-65034814D01*
X96997203Y-65089999D01*
X97099991Y-65100500D01*
X97799902Y-65100499D01*
X97866941Y-65120183D01*
X97887583Y-65136818D01*
X98460654Y-65709889D01*
X98460656Y-65709892D01*
X98471139Y-65720375D01*
X98495710Y-65744947D01*
X98514027Y-65778493D01*
X98529193Y-65806268D01*
X98529192Y-65806269D01*
X98529194Y-65806271D01*
X98526166Y-65848593D01*
X98524209Y-65875960D01*
X98524208Y-65875961D01*
X98524208Y-65875963D01*
X98524201Y-65875971D01*
X98495710Y-65920305D01*
X98451838Y-65964179D01*
X98390516Y-65997666D01*
X98364155Y-66000500D01*
X96724500Y-66000500D01*
X96657461Y-65980815D01*
X96611706Y-65928011D01*
X96600500Y-65876500D01*
X96600499Y-65299998D01*
X96600498Y-65299980D01*
X96589999Y-65197203D01*
X96589998Y-65197200D01*
X96567701Y-65129912D01*
X96565299Y-65060084D01*
X96601031Y-65000042D01*
X96663551Y-64968849D01*
X96733010Y-64976409D01*
G37*
%TD.AperFunction*%
%TD*%
M02*
