%TF.GenerationSoftware,KiCad,Pcbnew,9.0.7*%
%TF.CreationDate,2026-02-15T00:10:14-08:00*%
%TF.ProjectId,Pulse_Box_PCB,50756c73-655f-4426-9f78-5f5043422e6b,rev?*%
%TF.SameCoordinates,Original*%
%TF.FileFunction,Soldermask,Top*%
%TF.FilePolarity,Negative*%
%FSLAX46Y46*%
G04 Gerber Fmt 4.6, Leading zero omitted, Abs format (unit mm)*
G04 Created by KiCad (PCBNEW 9.0.7) date 2026-02-15 00:10:14*
%MOMM*%
%LPD*%
G01*
G04 APERTURE LIST*
G04 Aperture macros list*
%AMRoundRect*
0 Rectangle with rounded corners*
0 $1 Rounding radius*
0 $2 $3 $4 $5 $6 $7 $8 $9 X,Y pos of 4 corners*
0 Add a 4 corners polygon primitive as box body*
4,1,4,$2,$3,$4,$5,$6,$7,$8,$9,$2,$3,0*
0 Add four circle primitives for the rounded corners*
1,1,$1+$1,$2,$3*
1,1,$1+$1,$4,$5*
1,1,$1+$1,$6,$7*
1,1,$1+$1,$8,$9*
0 Add four rect primitives between the rounded corners*
20,1,$1+$1,$2,$3,$4,$5,0*
20,1,$1+$1,$4,$5,$6,$7,0*
20,1,$1+$1,$6,$7,$8,$9,0*
20,1,$1+$1,$8,$9,$2,$3,0*%
%AMFreePoly0*
4,1,13,0.750000,1.250000,1.250000,1.250000,1.250000,-1.250000,0.750000,-1.250000,0.750000,-2.300000,-0.750000,-2.300000,-0.750000,-1.250000,-1.250000,-1.250000,-1.250000,1.250000,-0.750000,1.250000,-0.750000,2.300000,0.750000,2.300000,0.750000,1.250000,0.750000,1.250000,$1*%
G04 Aperture macros list end*
%ADD10R,1.700000X1.700000*%
%ADD11C,1.700000*%
%ADD12O,2.404000X4.604000*%
%ADD13O,2.204000X4.204000*%
%ADD14O,4.204000X2.204000*%
%ADD15R,0.700000X1.825000*%
%ADD16R,1.500000X2.000000*%
%ADD17R,2.000000X1.350000*%
%ADD18O,1.700000X1.350000*%
%ADD19O,1.500000X1.100000*%
%ADD20R,2.500000X1.430000*%
%ADD21R,1.650000X0.400000*%
%ADD22RoundRect,0.250000X0.450000X0.350000X-0.450000X0.350000X-0.450000X-0.350000X0.450000X-0.350000X0*%
%ADD23C,1.000000*%
%ADD24R,1.000000X1.000000*%
%ADD25RoundRect,0.150000X0.150000X-0.512500X0.150000X0.512500X-0.150000X0.512500X-0.150000X-0.512500X0*%
%ADD26RoundRect,0.135000X0.135000X0.185000X-0.135000X0.185000X-0.135000X-0.185000X0.135000X-0.185000X0*%
%ADD27RoundRect,0.250000X0.325000X1.100000X-0.325000X1.100000X-0.325000X-1.100000X0.325000X-1.100000X0*%
%ADD28RoundRect,0.250000X-0.250000X-0.475000X0.250000X-0.475000X0.250000X0.475000X-0.250000X0.475000X0*%
%ADD29RoundRect,0.250000X0.475000X-0.250000X0.475000X0.250000X-0.475000X0.250000X-0.475000X-0.250000X0*%
%ADD30RoundRect,0.135000X-0.135000X-0.185000X0.135000X-0.185000X0.135000X0.185000X-0.135000X0.185000X0*%
%ADD31RoundRect,0.050000X-0.200000X0.650000X-0.200000X-0.650000X0.200000X-0.650000X0.200000X0.650000X0*%
%ADD32RoundRect,0.050050X-0.124950X0.299950X-0.124950X-0.299950X0.124950X-0.299950X0.124950X0.299950X0*%
%ADD33C,0.500000*%
%ADD34FreePoly0,270.000000*%
%ADD35RoundRect,0.250000X0.250000X0.475000X-0.250000X0.475000X-0.250000X-0.475000X0.250000X-0.475000X0*%
%ADD36RoundRect,0.250000X-0.475000X0.250000X-0.475000X-0.250000X0.475000X-0.250000X0.475000X0.250000X0*%
%ADD37RoundRect,0.140000X-0.140000X-0.170000X0.140000X-0.170000X0.140000X0.170000X-0.140000X0.170000X0*%
%ADD38RoundRect,0.140000X0.140000X0.170000X-0.140000X0.170000X-0.140000X-0.170000X0.140000X-0.170000X0*%
%ADD39RoundRect,0.140000X0.170000X-0.140000X0.170000X0.140000X-0.170000X0.140000X-0.170000X-0.140000X0*%
%ADD40RoundRect,0.140000X-0.170000X0.140000X-0.170000X-0.140000X0.170000X-0.140000X0.170000X0.140000X0*%
%ADD41RoundRect,0.225000X-0.250000X0.225000X-0.250000X-0.225000X0.250000X-0.225000X0.250000X0.225000X0*%
%ADD42RoundRect,0.225000X-0.225000X-0.250000X0.225000X-0.250000X0.225000X0.250000X-0.225000X0.250000X0*%
%ADD43RoundRect,0.075000X-0.075000X-0.725000X0.075000X-0.725000X0.075000X0.725000X-0.075000X0.725000X0*%
%ADD44RoundRect,0.075000X-0.725000X-0.075000X0.725000X-0.075000X0.725000X0.075000X-0.725000X0.075000X0*%
%ADD45RoundRect,0.150000X-0.150000X0.512500X-0.150000X-0.512500X0.150000X-0.512500X0.150000X0.512500X0*%
G04 APERTURE END LIST*
D10*
%TO.C,J4*%
X94500000Y-94000000D03*
D11*
X94500000Y-96540000D03*
X94500000Y-99080000D03*
%TD*%
D12*
%TO.C,J1*%
X117500000Y-92000000D03*
D13*
X123500000Y-92000000D03*
D14*
X120500000Y-87300000D03*
%TD*%
D15*
%TO.C,J3*%
X127435000Y-55025000D03*
D16*
X126115000Y-55125000D03*
D17*
X128185000Y-55275000D03*
D18*
X129115000Y-55295000D03*
D19*
X126115000Y-55605000D03*
D20*
X129385000Y-57065000D03*
X129385000Y-58985000D03*
D19*
X126115000Y-60445000D03*
D18*
X129115000Y-60755000D03*
D17*
X128185000Y-60755000D03*
D16*
X126135000Y-60875000D03*
D15*
X127435000Y-60975000D03*
D21*
X126235000Y-56725000D03*
X126235000Y-57375000D03*
X126235000Y-58025000D03*
X126235000Y-58675000D03*
X126235000Y-59325000D03*
%TD*%
D22*
%TO.C,Y1*%
X97600000Y-64000000D03*
X95400000Y-64000000D03*
X95400000Y-65700000D03*
X97600000Y-65700000D03*
%TD*%
D23*
%TO.C,J2*%
X128500000Y-74310000D03*
X127230000Y-74310000D03*
X128500000Y-73040000D03*
X127230000Y-73040000D03*
X128500000Y-71770000D03*
X127230000Y-71770000D03*
X128500000Y-70500000D03*
X127230000Y-70500000D03*
X128500000Y-69230000D03*
D24*
X127230000Y-69230000D03*
%TD*%
D25*
%TO.C,U3*%
X95050000Y-79362500D03*
X96950000Y-79362500D03*
X96950000Y-81637500D03*
X96000000Y-81637500D03*
X95050000Y-81637500D03*
%TD*%
D26*
%TO.C,R3*%
X108000000Y-88300000D03*
X106980000Y-88300000D03*
%TD*%
D27*
%TO.C,C4*%
X104475000Y-93300000D03*
X101525000Y-93300000D03*
%TD*%
D26*
%TO.C,R4*%
X109490000Y-88300000D03*
X110510000Y-88300000D03*
%TD*%
D28*
%TO.C,C2*%
X114450000Y-93800000D03*
X112550000Y-93800000D03*
%TD*%
D29*
%TO.C,C1*%
X113500000Y-89450000D03*
X113500000Y-87550000D03*
%TD*%
D27*
%TO.C,C3*%
X101525000Y-89800000D03*
X104475000Y-89800000D03*
%TD*%
D30*
%TO.C,R1*%
X105990000Y-95800000D03*
X107010000Y-95800000D03*
%TD*%
%TO.C,R2*%
X107990000Y-95800000D03*
X109010000Y-95800000D03*
%TD*%
D31*
%TO.C,U4*%
X110670000Y-90175000D03*
D32*
X109695000Y-89825000D03*
X109045000Y-89825000D03*
X108395000Y-89825000D03*
X107745000Y-89825000D03*
X107095000Y-89825000D03*
D31*
X106370000Y-90175000D03*
X106370000Y-94175000D03*
D32*
X107095000Y-94525000D03*
X107745000Y-94525000D03*
X108395000Y-94525000D03*
X109045000Y-94525000D03*
X109695000Y-94525000D03*
D31*
X110670000Y-94175000D03*
D33*
X109475000Y-91225000D03*
X108525000Y-91225000D03*
X107575000Y-91225000D03*
X110425000Y-92175000D03*
X109475000Y-92175000D03*
X108525000Y-92175000D03*
D34*
X108525000Y-92175000D03*
D33*
X107575000Y-92175000D03*
X106625000Y-92175000D03*
X109475000Y-93125000D03*
X108525000Y-93125000D03*
X107575000Y-93125000D03*
%TD*%
D35*
%TO.C,C6*%
X93000000Y-76000000D03*
X94900000Y-76000000D03*
%TD*%
%TO.C,C5*%
X95050000Y-84500000D03*
X96950000Y-84500000D03*
%TD*%
D36*
%TO.C,C22*%
X126000000Y-63000000D03*
X126000000Y-64900000D03*
%TD*%
D37*
%TO.C,C20*%
X97520000Y-70341176D03*
X98480000Y-70341176D03*
%TD*%
%TO.C,C15*%
X97520000Y-62000000D03*
X98480000Y-62000000D03*
%TD*%
D38*
%TO.C,C21*%
X97540000Y-71841176D03*
X98500000Y-71841176D03*
%TD*%
D39*
%TO.C,C16*%
X93000000Y-62020000D03*
X93000000Y-62980000D03*
%TD*%
D37*
%TO.C,C14*%
X98480000Y-61000000D03*
X97520000Y-61000000D03*
%TD*%
D39*
%TO.C,C17*%
X93000000Y-67000000D03*
X93000000Y-67960000D03*
%TD*%
D40*
%TO.C,C8*%
X103000000Y-76321176D03*
X103000000Y-75361176D03*
%TD*%
D39*
%TO.C,C12*%
X116500000Y-57520000D03*
X116500000Y-58480000D03*
%TD*%
D40*
%TO.C,C10*%
X114000000Y-76321176D03*
X114000000Y-75361176D03*
%TD*%
D38*
%TO.C,C19*%
X97520000Y-68841176D03*
X98480000Y-68841176D03*
%TD*%
%TO.C,C18*%
X97520000Y-67500000D03*
X98480000Y-67500000D03*
%TD*%
D41*
%TO.C,C9*%
X112500000Y-77116176D03*
X112500000Y-75566176D03*
%TD*%
D42*
%TO.C,C11*%
X119275000Y-60841176D03*
X117725000Y-60841176D03*
%TD*%
D43*
%TO.C,U1*%
X102000000Y-58166176D03*
X102500000Y-58166176D03*
X103000000Y-58166176D03*
X103500000Y-58166176D03*
X104000000Y-58166176D03*
X104500000Y-58166176D03*
X105000000Y-58166176D03*
X105500000Y-58166176D03*
X106000000Y-58166176D03*
X106500000Y-58166176D03*
X107000000Y-58166176D03*
X107500000Y-58166176D03*
X108000000Y-58166176D03*
X108500000Y-58166176D03*
X109000000Y-58166176D03*
X109500000Y-58166176D03*
X110000000Y-58166176D03*
X110500000Y-58166176D03*
X111000000Y-58166176D03*
X111500000Y-58166176D03*
X112000000Y-58166176D03*
X112500000Y-58166176D03*
X113000000Y-58166176D03*
X113500000Y-58166176D03*
X114000000Y-58166176D03*
D44*
X115675000Y-59841176D03*
X115675000Y-60341176D03*
X115675000Y-60841176D03*
X115675000Y-61341176D03*
X115675000Y-61841176D03*
X115675000Y-62341176D03*
X115675000Y-62841176D03*
X115675000Y-63341176D03*
X115675000Y-63841176D03*
X115675000Y-64341176D03*
X115675000Y-64841176D03*
X115675000Y-65341176D03*
X115675000Y-65841176D03*
X115675000Y-66341176D03*
X115675000Y-66841176D03*
X115675000Y-67341176D03*
X115675000Y-67841176D03*
X115675000Y-68341176D03*
X115675000Y-68841176D03*
X115675000Y-69341176D03*
X115675000Y-69841176D03*
X115675000Y-70341176D03*
X115675000Y-70841176D03*
X115675000Y-71341176D03*
X115675000Y-71841176D03*
D43*
X114000000Y-73516176D03*
X113500000Y-73516176D03*
X113000000Y-73516176D03*
X112500000Y-73516176D03*
X112000000Y-73516176D03*
X111500000Y-73516176D03*
X111000000Y-73516176D03*
X110500000Y-73516176D03*
X110000000Y-73516176D03*
X109500000Y-73516176D03*
X109000000Y-73516176D03*
X108500000Y-73516176D03*
X108000000Y-73516176D03*
X107500000Y-73516176D03*
X107000000Y-73516176D03*
X106500000Y-73516176D03*
X106000000Y-73516176D03*
X105500000Y-73516176D03*
X105000000Y-73516176D03*
X104500000Y-73516176D03*
X104000000Y-73516176D03*
X103500000Y-73516176D03*
X103000000Y-73516176D03*
X102500000Y-73516176D03*
X102000000Y-73516176D03*
D44*
X100325000Y-71841176D03*
X100325000Y-71341176D03*
X100325000Y-70841176D03*
X100325000Y-70341176D03*
X100325000Y-69841176D03*
X100325000Y-69341176D03*
X100325000Y-68841176D03*
X100325000Y-68341176D03*
X100325000Y-67841176D03*
X100325000Y-67341176D03*
X100325000Y-66841176D03*
X100325000Y-66341176D03*
X100325000Y-65841176D03*
X100325000Y-65341176D03*
X100325000Y-64841176D03*
X100325000Y-64341176D03*
X100325000Y-63841176D03*
X100325000Y-63341176D03*
X100325000Y-62841176D03*
X100325000Y-62341176D03*
X100325000Y-61841176D03*
X100325000Y-61341176D03*
X100325000Y-60841176D03*
X100325000Y-60341176D03*
X100325000Y-59841176D03*
%TD*%
D45*
%TO.C,U2*%
X107450000Y-78616176D03*
X105550000Y-78616176D03*
X105550000Y-76341176D03*
X106500000Y-76341176D03*
X107450000Y-76341176D03*
%TD*%
D40*
%TO.C,C7*%
X107500000Y-81460000D03*
X107500000Y-80500000D03*
%TD*%
D39*
%TO.C,C13*%
X102000000Y-55361176D03*
X102000000Y-56321176D03*
%TD*%
M02*
