M48
; DRILL file {KiCad 9.0.7} date 2026-02-15T00:10:08-0800
; FORMAT={-:-/ absolute / metric / decimal}
; #@! TF.CreationDate,2026-02-15T00:10:08-08:00
; #@! TF.GenerationSoftware,Kicad,Pcbnew,9.0.7
; #@! TF.FileFunction,Plated,1,2,PTH
FMAT,2
METRIC
; #@! TA.AperFunction,Plated,PTH,ViaDrill
T1C0.300
; #@! TA.AperFunction,Plated,PTH,ComponentDrill
T2C0.300
; #@! TA.AperFunction,Plated,PTH,ComponentDrill
T3C0.650
; #@! TA.AperFunction,Plated,PTH,ComponentDrill
T4C0.700
; #@! TA.AperFunction,Plated,PTH,ComponentDrill
T5C1.000
%
G90
G05
T1
X93.0Y-65.5
X94.439Y-59.561
X94.439Y-69.363
X96.0Y-62.0
X96.0Y-68.0
X97.0Y-73.5
X99.5Y-93.0
X100.5Y-75.0
X101.5Y-79.5
X102.0Y-82.0
X102.5Y-62.0
X103.0Y-85.0
X104.0Y-71.0
X106.5Y-66.5
X106.5Y-84.5
X107.5Y-64.5
X110.5Y-79.5
X111.0Y-86.0
X111.5Y-96.0
X113.0Y-65.0
X113.5Y-64.0
X114.0Y-60.0
X114.0Y-61.341
X118.0Y-66.5
X118.0Y-68.0
X118.0Y-69.5
X118.0Y-71.5
X118.0Y-73.5
X118.5Y-65.0
X119.0Y-64.0
X121.0Y-59.5
X128.5Y-78.0
T2
X106.625Y-92.175
X107.575Y-91.225
X107.575Y-92.175
X107.575Y-93.125
X108.525Y-91.225
X108.525Y-92.175
X108.525Y-93.125
X109.475Y-91.225
X109.475Y-92.175
X109.475Y-93.125
X110.425Y-92.175
T3
X127.23Y-69.23
X127.23Y-70.5
X127.23Y-71.77
X127.23Y-73.04
X127.23Y-74.31
X128.5Y-69.23
X128.5Y-70.5
X128.5Y-71.77
X128.5Y-73.04
X128.5Y-74.31
T5
X94.5Y-94.0
X94.5Y-96.54
X94.5Y-99.08
T3
G00X126.315Y-55.605
M15
G01X125.915Y-55.605
M16
G05
G00X126.315Y-60.445
M15
G01X125.915Y-60.445
M16
G05
T4
G00X129.365Y-55.295
M15
G01X128.865Y-55.295
M16
G05
G00X129.365Y-60.755
M15
G01X128.865Y-60.755
M16
G05
T5
G00X117.5Y-93.25
M15
G01X117.5Y-90.75
M16
G05
G00X121.5Y-87.3
M15
G01X119.5Y-87.3
M16
G05
G00X123.5Y-93.0
M15
G01X123.5Y-91.0
M16
G05
M30
