%TF.GenerationSoftware,KiCad,Pcbnew,9.0.7*%
%TF.CreationDate,2026-02-15T00:10:14-08:00*%
%TF.ProjectId,Pulse_Box_PCB,50756c73-655f-4426-9f78-5f5043422e6b,rev?*%
%TF.SameCoordinates,Original*%
%TF.FileFunction,Legend,Top*%
%TF.FilePolarity,Positive*%
%FSLAX46Y46*%
G04 Gerber Fmt 4.6, Leading zero omitted, Abs format (unit mm)*
G04 Created by KiCad (PCBNEW 9.0.7) date 2026-02-15 00:10:14*
%MOMM*%
%LPD*%
G01*
G04 APERTURE LIST*
%ADD10C,0.250000*%
%ADD11C,0.150000*%
%ADD12C,0.120000*%
%ADD13C,0.127000*%
%ADD14C,0.200000*%
G04 APERTURE END LIST*
D10*
X112640663Y-83242238D02*
X112640663Y-81242238D01*
X112640663Y-81242238D02*
X113402568Y-81242238D01*
X113402568Y-81242238D02*
X113593044Y-81337476D01*
X113593044Y-81337476D02*
X113688282Y-81432714D01*
X113688282Y-81432714D02*
X113783520Y-81623190D01*
X113783520Y-81623190D02*
X113783520Y-81908904D01*
X113783520Y-81908904D02*
X113688282Y-82099380D01*
X113688282Y-82099380D02*
X113593044Y-82194619D01*
X113593044Y-82194619D02*
X113402568Y-82289857D01*
X113402568Y-82289857D02*
X112640663Y-82289857D01*
X115497806Y-81908904D02*
X115497806Y-83242238D01*
X114640663Y-81908904D02*
X114640663Y-82956523D01*
X114640663Y-82956523D02*
X114735901Y-83147000D01*
X114735901Y-83147000D02*
X114926377Y-83242238D01*
X114926377Y-83242238D02*
X115212092Y-83242238D01*
X115212092Y-83242238D02*
X115402568Y-83147000D01*
X115402568Y-83147000D02*
X115497806Y-83051761D01*
X116735901Y-83242238D02*
X116545425Y-83147000D01*
X116545425Y-83147000D02*
X116450187Y-82956523D01*
X116450187Y-82956523D02*
X116450187Y-81242238D01*
X117402568Y-83147000D02*
X117593044Y-83242238D01*
X117593044Y-83242238D02*
X117973996Y-83242238D01*
X117973996Y-83242238D02*
X118164473Y-83147000D01*
X118164473Y-83147000D02*
X118259711Y-82956523D01*
X118259711Y-82956523D02*
X118259711Y-82861285D01*
X118259711Y-82861285D02*
X118164473Y-82670809D01*
X118164473Y-82670809D02*
X117973996Y-82575571D01*
X117973996Y-82575571D02*
X117688282Y-82575571D01*
X117688282Y-82575571D02*
X117497806Y-82480333D01*
X117497806Y-82480333D02*
X117402568Y-82289857D01*
X117402568Y-82289857D02*
X117402568Y-82194619D01*
X117402568Y-82194619D02*
X117497806Y-82004142D01*
X117497806Y-82004142D02*
X117688282Y-81908904D01*
X117688282Y-81908904D02*
X117973996Y-81908904D01*
X117973996Y-81908904D02*
X118164473Y-82004142D01*
X119878759Y-83147000D02*
X119688283Y-83242238D01*
X119688283Y-83242238D02*
X119307330Y-83242238D01*
X119307330Y-83242238D02*
X119116854Y-83147000D01*
X119116854Y-83147000D02*
X119021616Y-82956523D01*
X119021616Y-82956523D02*
X119021616Y-82194619D01*
X119021616Y-82194619D02*
X119116854Y-82004142D01*
X119116854Y-82004142D02*
X119307330Y-81908904D01*
X119307330Y-81908904D02*
X119688283Y-81908904D01*
X119688283Y-81908904D02*
X119878759Y-82004142D01*
X119878759Y-82004142D02*
X119973997Y-82194619D01*
X119973997Y-82194619D02*
X119973997Y-82385095D01*
X119973997Y-82385095D02*
X119021616Y-82575571D01*
X121497807Y-82194619D02*
X121783521Y-82289857D01*
X121783521Y-82289857D02*
X121878759Y-82385095D01*
X121878759Y-82385095D02*
X121973997Y-82575571D01*
X121973997Y-82575571D02*
X121973997Y-82861285D01*
X121973997Y-82861285D02*
X121878759Y-83051761D01*
X121878759Y-83051761D02*
X121783521Y-83147000D01*
X121783521Y-83147000D02*
X121593045Y-83242238D01*
X121593045Y-83242238D02*
X120831140Y-83242238D01*
X120831140Y-83242238D02*
X120831140Y-81242238D01*
X120831140Y-81242238D02*
X121497807Y-81242238D01*
X121497807Y-81242238D02*
X121688283Y-81337476D01*
X121688283Y-81337476D02*
X121783521Y-81432714D01*
X121783521Y-81432714D02*
X121878759Y-81623190D01*
X121878759Y-81623190D02*
X121878759Y-81813666D01*
X121878759Y-81813666D02*
X121783521Y-82004142D01*
X121783521Y-82004142D02*
X121688283Y-82099380D01*
X121688283Y-82099380D02*
X121497807Y-82194619D01*
X121497807Y-82194619D02*
X120831140Y-82194619D01*
X123116854Y-83242238D02*
X122926378Y-83147000D01*
X122926378Y-83147000D02*
X122831140Y-83051761D01*
X122831140Y-83051761D02*
X122735902Y-82861285D01*
X122735902Y-82861285D02*
X122735902Y-82289857D01*
X122735902Y-82289857D02*
X122831140Y-82099380D01*
X122831140Y-82099380D02*
X122926378Y-82004142D01*
X122926378Y-82004142D02*
X123116854Y-81908904D01*
X123116854Y-81908904D02*
X123402569Y-81908904D01*
X123402569Y-81908904D02*
X123593045Y-82004142D01*
X123593045Y-82004142D02*
X123688283Y-82099380D01*
X123688283Y-82099380D02*
X123783521Y-82289857D01*
X123783521Y-82289857D02*
X123783521Y-82861285D01*
X123783521Y-82861285D02*
X123688283Y-83051761D01*
X123688283Y-83051761D02*
X123593045Y-83147000D01*
X123593045Y-83147000D02*
X123402569Y-83242238D01*
X123402569Y-83242238D02*
X123116854Y-83242238D01*
X124450188Y-83242238D02*
X125497807Y-81908904D01*
X124450188Y-81908904D02*
X125497807Y-83242238D01*
X127593046Y-81908904D02*
X128069236Y-83242238D01*
X128069236Y-83242238D02*
X128545427Y-81908904D01*
X130354951Y-83242238D02*
X129212094Y-83242238D01*
X129783522Y-83242238D02*
X129783522Y-81242238D01*
X129783522Y-81242238D02*
X129593046Y-81527952D01*
X129593046Y-81527952D02*
X129402570Y-81718428D01*
X129402570Y-81718428D02*
X129212094Y-81813666D01*
D11*
X94166666Y-90954819D02*
X94166666Y-91669104D01*
X94166666Y-91669104D02*
X94119047Y-91811961D01*
X94119047Y-91811961D02*
X94023809Y-91907200D01*
X94023809Y-91907200D02*
X93880952Y-91954819D01*
X93880952Y-91954819D02*
X93785714Y-91954819D01*
X95071428Y-91288152D02*
X95071428Y-91954819D01*
X94833333Y-90907200D02*
X94595238Y-91621485D01*
X94595238Y-91621485D02*
X95214285Y-91621485D01*
X127941666Y-97839819D02*
X127941666Y-98554104D01*
X127941666Y-98554104D02*
X127894047Y-98696961D01*
X127894047Y-98696961D02*
X127798809Y-98792200D01*
X127798809Y-98792200D02*
X127655952Y-98839819D01*
X127655952Y-98839819D02*
X127560714Y-98839819D01*
X128941666Y-98839819D02*
X128370238Y-98839819D01*
X128655952Y-98839819D02*
X128655952Y-97839819D01*
X128655952Y-97839819D02*
X128560714Y-97982676D01*
X128560714Y-97982676D02*
X128465476Y-98077914D01*
X128465476Y-98077914D02*
X128370238Y-98125533D01*
X123454819Y-55833333D02*
X124169104Y-55833333D01*
X124169104Y-55833333D02*
X124311961Y-55880952D01*
X124311961Y-55880952D02*
X124407200Y-55976190D01*
X124407200Y-55976190D02*
X124454819Y-56119047D01*
X124454819Y-56119047D02*
X124454819Y-56214285D01*
X123454819Y-55452380D02*
X123454819Y-54833333D01*
X123454819Y-54833333D02*
X123835771Y-55166666D01*
X123835771Y-55166666D02*
X123835771Y-55023809D01*
X123835771Y-55023809D02*
X123883390Y-54928571D01*
X123883390Y-54928571D02*
X123931009Y-54880952D01*
X123931009Y-54880952D02*
X124026247Y-54833333D01*
X124026247Y-54833333D02*
X124264342Y-54833333D01*
X124264342Y-54833333D02*
X124359580Y-54880952D01*
X124359580Y-54880952D02*
X124407200Y-54928571D01*
X124407200Y-54928571D02*
X124454819Y-55023809D01*
X124454819Y-55023809D02*
X124454819Y-55309523D01*
X124454819Y-55309523D02*
X124407200Y-55404761D01*
X124407200Y-55404761D02*
X124359580Y-55452380D01*
X93123809Y-64678628D02*
X93123809Y-65154819D01*
X92790476Y-64154819D02*
X93123809Y-64678628D01*
X93123809Y-64678628D02*
X93457142Y-64154819D01*
X94314285Y-65154819D02*
X93742857Y-65154819D01*
X94028571Y-65154819D02*
X94028571Y-64154819D01*
X94028571Y-64154819D02*
X93933333Y-64297676D01*
X93933333Y-64297676D02*
X93838095Y-64392914D01*
X93838095Y-64392914D02*
X93742857Y-64440533D01*
X127166666Y-75954819D02*
X127166666Y-76669104D01*
X127166666Y-76669104D02*
X127119047Y-76811961D01*
X127119047Y-76811961D02*
X127023809Y-76907200D01*
X127023809Y-76907200D02*
X126880952Y-76954819D01*
X126880952Y-76954819D02*
X126785714Y-76954819D01*
X127595238Y-76050057D02*
X127642857Y-76002438D01*
X127642857Y-76002438D02*
X127738095Y-75954819D01*
X127738095Y-75954819D02*
X127976190Y-75954819D01*
X127976190Y-75954819D02*
X128071428Y-76002438D01*
X128071428Y-76002438D02*
X128119047Y-76050057D01*
X128119047Y-76050057D02*
X128166666Y-76145295D01*
X128166666Y-76145295D02*
X128166666Y-76240533D01*
X128166666Y-76240533D02*
X128119047Y-76383390D01*
X128119047Y-76383390D02*
X127547619Y-76954819D01*
X127547619Y-76954819D02*
X128166666Y-76954819D01*
X98238095Y-80954819D02*
X98238095Y-81764342D01*
X98238095Y-81764342D02*
X98285714Y-81859580D01*
X98285714Y-81859580D02*
X98333333Y-81907200D01*
X98333333Y-81907200D02*
X98428571Y-81954819D01*
X98428571Y-81954819D02*
X98619047Y-81954819D01*
X98619047Y-81954819D02*
X98714285Y-81907200D01*
X98714285Y-81907200D02*
X98761904Y-81859580D01*
X98761904Y-81859580D02*
X98809523Y-81764342D01*
X98809523Y-81764342D02*
X98809523Y-80954819D01*
X99190476Y-80954819D02*
X99809523Y-80954819D01*
X99809523Y-80954819D02*
X99476190Y-81335771D01*
X99476190Y-81335771D02*
X99619047Y-81335771D01*
X99619047Y-81335771D02*
X99714285Y-81383390D01*
X99714285Y-81383390D02*
X99761904Y-81431009D01*
X99761904Y-81431009D02*
X99809523Y-81526247D01*
X99809523Y-81526247D02*
X99809523Y-81764342D01*
X99809523Y-81764342D02*
X99761904Y-81859580D01*
X99761904Y-81859580D02*
X99714285Y-81907200D01*
X99714285Y-81907200D02*
X99619047Y-81954819D01*
X99619047Y-81954819D02*
X99333333Y-81954819D01*
X99333333Y-81954819D02*
X99238095Y-81907200D01*
X99238095Y-81907200D02*
X99190476Y-81859580D01*
X107454819Y-86966666D02*
X106978628Y-87299999D01*
X107454819Y-87538094D02*
X106454819Y-87538094D01*
X106454819Y-87538094D02*
X106454819Y-87157142D01*
X106454819Y-87157142D02*
X106502438Y-87061904D01*
X106502438Y-87061904D02*
X106550057Y-87014285D01*
X106550057Y-87014285D02*
X106645295Y-86966666D01*
X106645295Y-86966666D02*
X106788152Y-86966666D01*
X106788152Y-86966666D02*
X106883390Y-87014285D01*
X106883390Y-87014285D02*
X106931009Y-87061904D01*
X106931009Y-87061904D02*
X106978628Y-87157142D01*
X106978628Y-87157142D02*
X106978628Y-87538094D01*
X106454819Y-86633332D02*
X106454819Y-86014285D01*
X106454819Y-86014285D02*
X106835771Y-86347618D01*
X106835771Y-86347618D02*
X106835771Y-86204761D01*
X106835771Y-86204761D02*
X106883390Y-86109523D01*
X106883390Y-86109523D02*
X106931009Y-86061904D01*
X106931009Y-86061904D02*
X107026247Y-86014285D01*
X107026247Y-86014285D02*
X107264342Y-86014285D01*
X107264342Y-86014285D02*
X107359580Y-86061904D01*
X107359580Y-86061904D02*
X107407200Y-86109523D01*
X107407200Y-86109523D02*
X107454819Y-86204761D01*
X107454819Y-86204761D02*
X107454819Y-86490475D01*
X107454819Y-86490475D02*
X107407200Y-86585713D01*
X107407200Y-86585713D02*
X107359580Y-86633332D01*
X102833333Y-96159580D02*
X102785714Y-96207200D01*
X102785714Y-96207200D02*
X102642857Y-96254819D01*
X102642857Y-96254819D02*
X102547619Y-96254819D01*
X102547619Y-96254819D02*
X102404762Y-96207200D01*
X102404762Y-96207200D02*
X102309524Y-96111961D01*
X102309524Y-96111961D02*
X102261905Y-96016723D01*
X102261905Y-96016723D02*
X102214286Y-95826247D01*
X102214286Y-95826247D02*
X102214286Y-95683390D01*
X102214286Y-95683390D02*
X102261905Y-95492914D01*
X102261905Y-95492914D02*
X102309524Y-95397676D01*
X102309524Y-95397676D02*
X102404762Y-95302438D01*
X102404762Y-95302438D02*
X102547619Y-95254819D01*
X102547619Y-95254819D02*
X102642857Y-95254819D01*
X102642857Y-95254819D02*
X102785714Y-95302438D01*
X102785714Y-95302438D02*
X102833333Y-95350057D01*
X103690476Y-95588152D02*
X103690476Y-96254819D01*
X103452381Y-95207200D02*
X103214286Y-95921485D01*
X103214286Y-95921485D02*
X103833333Y-95921485D01*
X109954819Y-86966666D02*
X109478628Y-87299999D01*
X109954819Y-87538094D02*
X108954819Y-87538094D01*
X108954819Y-87538094D02*
X108954819Y-87157142D01*
X108954819Y-87157142D02*
X109002438Y-87061904D01*
X109002438Y-87061904D02*
X109050057Y-87014285D01*
X109050057Y-87014285D02*
X109145295Y-86966666D01*
X109145295Y-86966666D02*
X109288152Y-86966666D01*
X109288152Y-86966666D02*
X109383390Y-87014285D01*
X109383390Y-87014285D02*
X109431009Y-87061904D01*
X109431009Y-87061904D02*
X109478628Y-87157142D01*
X109478628Y-87157142D02*
X109478628Y-87538094D01*
X109288152Y-86109523D02*
X109954819Y-86109523D01*
X108907200Y-86347618D02*
X109621485Y-86585713D01*
X109621485Y-86585713D02*
X109621485Y-85966666D01*
X113333333Y-96159580D02*
X113285714Y-96207200D01*
X113285714Y-96207200D02*
X113142857Y-96254819D01*
X113142857Y-96254819D02*
X113047619Y-96254819D01*
X113047619Y-96254819D02*
X112904762Y-96207200D01*
X112904762Y-96207200D02*
X112809524Y-96111961D01*
X112809524Y-96111961D02*
X112761905Y-96016723D01*
X112761905Y-96016723D02*
X112714286Y-95826247D01*
X112714286Y-95826247D02*
X112714286Y-95683390D01*
X112714286Y-95683390D02*
X112761905Y-95492914D01*
X112761905Y-95492914D02*
X112809524Y-95397676D01*
X112809524Y-95397676D02*
X112904762Y-95302438D01*
X112904762Y-95302438D02*
X113047619Y-95254819D01*
X113047619Y-95254819D02*
X113142857Y-95254819D01*
X113142857Y-95254819D02*
X113285714Y-95302438D01*
X113285714Y-95302438D02*
X113333333Y-95350057D01*
X113714286Y-95350057D02*
X113761905Y-95302438D01*
X113761905Y-95302438D02*
X113857143Y-95254819D01*
X113857143Y-95254819D02*
X114095238Y-95254819D01*
X114095238Y-95254819D02*
X114190476Y-95302438D01*
X114190476Y-95302438D02*
X114238095Y-95350057D01*
X114238095Y-95350057D02*
X114285714Y-95445295D01*
X114285714Y-95445295D02*
X114285714Y-95540533D01*
X114285714Y-95540533D02*
X114238095Y-95683390D01*
X114238095Y-95683390D02*
X113666667Y-96254819D01*
X113666667Y-96254819D02*
X114285714Y-96254819D01*
X113333333Y-86359580D02*
X113285714Y-86407200D01*
X113285714Y-86407200D02*
X113142857Y-86454819D01*
X113142857Y-86454819D02*
X113047619Y-86454819D01*
X113047619Y-86454819D02*
X112904762Y-86407200D01*
X112904762Y-86407200D02*
X112809524Y-86311961D01*
X112809524Y-86311961D02*
X112761905Y-86216723D01*
X112761905Y-86216723D02*
X112714286Y-86026247D01*
X112714286Y-86026247D02*
X112714286Y-85883390D01*
X112714286Y-85883390D02*
X112761905Y-85692914D01*
X112761905Y-85692914D02*
X112809524Y-85597676D01*
X112809524Y-85597676D02*
X112904762Y-85502438D01*
X112904762Y-85502438D02*
X113047619Y-85454819D01*
X113047619Y-85454819D02*
X113142857Y-85454819D01*
X113142857Y-85454819D02*
X113285714Y-85502438D01*
X113285714Y-85502438D02*
X113333333Y-85550057D01*
X114285714Y-86454819D02*
X113714286Y-86454819D01*
X114000000Y-86454819D02*
X114000000Y-85454819D01*
X114000000Y-85454819D02*
X113904762Y-85597676D01*
X113904762Y-85597676D02*
X113809524Y-85692914D01*
X113809524Y-85692914D02*
X113714286Y-85740533D01*
X102833333Y-87659580D02*
X102785714Y-87707200D01*
X102785714Y-87707200D02*
X102642857Y-87754819D01*
X102642857Y-87754819D02*
X102547619Y-87754819D01*
X102547619Y-87754819D02*
X102404762Y-87707200D01*
X102404762Y-87707200D02*
X102309524Y-87611961D01*
X102309524Y-87611961D02*
X102261905Y-87516723D01*
X102261905Y-87516723D02*
X102214286Y-87326247D01*
X102214286Y-87326247D02*
X102214286Y-87183390D01*
X102214286Y-87183390D02*
X102261905Y-86992914D01*
X102261905Y-86992914D02*
X102309524Y-86897676D01*
X102309524Y-86897676D02*
X102404762Y-86802438D01*
X102404762Y-86802438D02*
X102547619Y-86754819D01*
X102547619Y-86754819D02*
X102642857Y-86754819D01*
X102642857Y-86754819D02*
X102785714Y-86802438D01*
X102785714Y-86802438D02*
X102833333Y-86850057D01*
X103166667Y-86754819D02*
X103785714Y-86754819D01*
X103785714Y-86754819D02*
X103452381Y-87135771D01*
X103452381Y-87135771D02*
X103595238Y-87135771D01*
X103595238Y-87135771D02*
X103690476Y-87183390D01*
X103690476Y-87183390D02*
X103738095Y-87231009D01*
X103738095Y-87231009D02*
X103785714Y-87326247D01*
X103785714Y-87326247D02*
X103785714Y-87564342D01*
X103785714Y-87564342D02*
X103738095Y-87659580D01*
X103738095Y-87659580D02*
X103690476Y-87707200D01*
X103690476Y-87707200D02*
X103595238Y-87754819D01*
X103595238Y-87754819D02*
X103309524Y-87754819D01*
X103309524Y-87754819D02*
X103214286Y-87707200D01*
X103214286Y-87707200D02*
X103166667Y-87659580D01*
X106964819Y-97466666D02*
X106488628Y-97799999D01*
X106964819Y-98038094D02*
X105964819Y-98038094D01*
X105964819Y-98038094D02*
X105964819Y-97657142D01*
X105964819Y-97657142D02*
X106012438Y-97561904D01*
X106012438Y-97561904D02*
X106060057Y-97514285D01*
X106060057Y-97514285D02*
X106155295Y-97466666D01*
X106155295Y-97466666D02*
X106298152Y-97466666D01*
X106298152Y-97466666D02*
X106393390Y-97514285D01*
X106393390Y-97514285D02*
X106441009Y-97561904D01*
X106441009Y-97561904D02*
X106488628Y-97657142D01*
X106488628Y-97657142D02*
X106488628Y-98038094D01*
X106964819Y-96514285D02*
X106964819Y-97085713D01*
X106964819Y-96799999D02*
X105964819Y-96799999D01*
X105964819Y-96799999D02*
X106107676Y-96895237D01*
X106107676Y-96895237D02*
X106202914Y-96990475D01*
X106202914Y-96990475D02*
X106250533Y-97085713D01*
X108954819Y-97466666D02*
X108478628Y-97799999D01*
X108954819Y-98038094D02*
X107954819Y-98038094D01*
X107954819Y-98038094D02*
X107954819Y-97657142D01*
X107954819Y-97657142D02*
X108002438Y-97561904D01*
X108002438Y-97561904D02*
X108050057Y-97514285D01*
X108050057Y-97514285D02*
X108145295Y-97466666D01*
X108145295Y-97466666D02*
X108288152Y-97466666D01*
X108288152Y-97466666D02*
X108383390Y-97514285D01*
X108383390Y-97514285D02*
X108431009Y-97561904D01*
X108431009Y-97561904D02*
X108478628Y-97657142D01*
X108478628Y-97657142D02*
X108478628Y-98038094D01*
X108050057Y-97085713D02*
X108002438Y-97038094D01*
X108002438Y-97038094D02*
X107954819Y-96942856D01*
X107954819Y-96942856D02*
X107954819Y-96704761D01*
X107954819Y-96704761D02*
X108002438Y-96609523D01*
X108002438Y-96609523D02*
X108050057Y-96561904D01*
X108050057Y-96561904D02*
X108145295Y-96514285D01*
X108145295Y-96514285D02*
X108240533Y-96514285D01*
X108240533Y-96514285D02*
X108383390Y-96561904D01*
X108383390Y-96561904D02*
X108954819Y-97133332D01*
X108954819Y-97133332D02*
X108954819Y-96514285D01*
X110238095Y-96454819D02*
X110238095Y-97264342D01*
X110238095Y-97264342D02*
X110285714Y-97359580D01*
X110285714Y-97359580D02*
X110333333Y-97407200D01*
X110333333Y-97407200D02*
X110428571Y-97454819D01*
X110428571Y-97454819D02*
X110619047Y-97454819D01*
X110619047Y-97454819D02*
X110714285Y-97407200D01*
X110714285Y-97407200D02*
X110761904Y-97359580D01*
X110761904Y-97359580D02*
X110809523Y-97264342D01*
X110809523Y-97264342D02*
X110809523Y-96454819D01*
X111714285Y-96788152D02*
X111714285Y-97454819D01*
X111476190Y-96407200D02*
X111238095Y-97121485D01*
X111238095Y-97121485D02*
X111857142Y-97121485D01*
X96833333Y-76359580D02*
X96785714Y-76407200D01*
X96785714Y-76407200D02*
X96642857Y-76454819D01*
X96642857Y-76454819D02*
X96547619Y-76454819D01*
X96547619Y-76454819D02*
X96404762Y-76407200D01*
X96404762Y-76407200D02*
X96309524Y-76311961D01*
X96309524Y-76311961D02*
X96261905Y-76216723D01*
X96261905Y-76216723D02*
X96214286Y-76026247D01*
X96214286Y-76026247D02*
X96214286Y-75883390D01*
X96214286Y-75883390D02*
X96261905Y-75692914D01*
X96261905Y-75692914D02*
X96309524Y-75597676D01*
X96309524Y-75597676D02*
X96404762Y-75502438D01*
X96404762Y-75502438D02*
X96547619Y-75454819D01*
X96547619Y-75454819D02*
X96642857Y-75454819D01*
X96642857Y-75454819D02*
X96785714Y-75502438D01*
X96785714Y-75502438D02*
X96833333Y-75550057D01*
X97690476Y-75454819D02*
X97500000Y-75454819D01*
X97500000Y-75454819D02*
X97404762Y-75502438D01*
X97404762Y-75502438D02*
X97357143Y-75550057D01*
X97357143Y-75550057D02*
X97261905Y-75692914D01*
X97261905Y-75692914D02*
X97214286Y-75883390D01*
X97214286Y-75883390D02*
X97214286Y-76264342D01*
X97214286Y-76264342D02*
X97261905Y-76359580D01*
X97261905Y-76359580D02*
X97309524Y-76407200D01*
X97309524Y-76407200D02*
X97404762Y-76454819D01*
X97404762Y-76454819D02*
X97595238Y-76454819D01*
X97595238Y-76454819D02*
X97690476Y-76407200D01*
X97690476Y-76407200D02*
X97738095Y-76359580D01*
X97738095Y-76359580D02*
X97785714Y-76264342D01*
X97785714Y-76264342D02*
X97785714Y-76026247D01*
X97785714Y-76026247D02*
X97738095Y-75931009D01*
X97738095Y-75931009D02*
X97690476Y-75883390D01*
X97690476Y-75883390D02*
X97595238Y-75835771D01*
X97595238Y-75835771D02*
X97404762Y-75835771D01*
X97404762Y-75835771D02*
X97309524Y-75883390D01*
X97309524Y-75883390D02*
X97261905Y-75931009D01*
X97261905Y-75931009D02*
X97214286Y-76026247D01*
X92883333Y-84859580D02*
X92835714Y-84907200D01*
X92835714Y-84907200D02*
X92692857Y-84954819D01*
X92692857Y-84954819D02*
X92597619Y-84954819D01*
X92597619Y-84954819D02*
X92454762Y-84907200D01*
X92454762Y-84907200D02*
X92359524Y-84811961D01*
X92359524Y-84811961D02*
X92311905Y-84716723D01*
X92311905Y-84716723D02*
X92264286Y-84526247D01*
X92264286Y-84526247D02*
X92264286Y-84383390D01*
X92264286Y-84383390D02*
X92311905Y-84192914D01*
X92311905Y-84192914D02*
X92359524Y-84097676D01*
X92359524Y-84097676D02*
X92454762Y-84002438D01*
X92454762Y-84002438D02*
X92597619Y-83954819D01*
X92597619Y-83954819D02*
X92692857Y-83954819D01*
X92692857Y-83954819D02*
X92835714Y-84002438D01*
X92835714Y-84002438D02*
X92883333Y-84050057D01*
X93788095Y-83954819D02*
X93311905Y-83954819D01*
X93311905Y-83954819D02*
X93264286Y-84431009D01*
X93264286Y-84431009D02*
X93311905Y-84383390D01*
X93311905Y-84383390D02*
X93407143Y-84335771D01*
X93407143Y-84335771D02*
X93645238Y-84335771D01*
X93645238Y-84335771D02*
X93740476Y-84383390D01*
X93740476Y-84383390D02*
X93788095Y-84431009D01*
X93788095Y-84431009D02*
X93835714Y-84526247D01*
X93835714Y-84526247D02*
X93835714Y-84764342D01*
X93835714Y-84764342D02*
X93788095Y-84859580D01*
X93788095Y-84859580D02*
X93740476Y-84907200D01*
X93740476Y-84907200D02*
X93645238Y-84954819D01*
X93645238Y-84954819D02*
X93407143Y-84954819D01*
X93407143Y-84954819D02*
X93311905Y-84907200D01*
X93311905Y-84907200D02*
X93264286Y-84859580D01*
X128359580Y-64542857D02*
X128407200Y-64590476D01*
X128407200Y-64590476D02*
X128454819Y-64733333D01*
X128454819Y-64733333D02*
X128454819Y-64828571D01*
X128454819Y-64828571D02*
X128407200Y-64971428D01*
X128407200Y-64971428D02*
X128311961Y-65066666D01*
X128311961Y-65066666D02*
X128216723Y-65114285D01*
X128216723Y-65114285D02*
X128026247Y-65161904D01*
X128026247Y-65161904D02*
X127883390Y-65161904D01*
X127883390Y-65161904D02*
X127692914Y-65114285D01*
X127692914Y-65114285D02*
X127597676Y-65066666D01*
X127597676Y-65066666D02*
X127502438Y-64971428D01*
X127502438Y-64971428D02*
X127454819Y-64828571D01*
X127454819Y-64828571D02*
X127454819Y-64733333D01*
X127454819Y-64733333D02*
X127502438Y-64590476D01*
X127502438Y-64590476D02*
X127550057Y-64542857D01*
X127550057Y-64161904D02*
X127502438Y-64114285D01*
X127502438Y-64114285D02*
X127454819Y-64019047D01*
X127454819Y-64019047D02*
X127454819Y-63780952D01*
X127454819Y-63780952D02*
X127502438Y-63685714D01*
X127502438Y-63685714D02*
X127550057Y-63638095D01*
X127550057Y-63638095D02*
X127645295Y-63590476D01*
X127645295Y-63590476D02*
X127740533Y-63590476D01*
X127740533Y-63590476D02*
X127883390Y-63638095D01*
X127883390Y-63638095D02*
X128454819Y-64209523D01*
X128454819Y-64209523D02*
X128454819Y-63590476D01*
X127550057Y-63209523D02*
X127502438Y-63161904D01*
X127502438Y-63161904D02*
X127454819Y-63066666D01*
X127454819Y-63066666D02*
X127454819Y-62828571D01*
X127454819Y-62828571D02*
X127502438Y-62733333D01*
X127502438Y-62733333D02*
X127550057Y-62685714D01*
X127550057Y-62685714D02*
X127645295Y-62638095D01*
X127645295Y-62638095D02*
X127740533Y-62638095D01*
X127740533Y-62638095D02*
X127883390Y-62685714D01*
X127883390Y-62685714D02*
X128454819Y-63257142D01*
X128454819Y-63257142D02*
X128454819Y-62638095D01*
X94857142Y-70700756D02*
X94809523Y-70748376D01*
X94809523Y-70748376D02*
X94666666Y-70795995D01*
X94666666Y-70795995D02*
X94571428Y-70795995D01*
X94571428Y-70795995D02*
X94428571Y-70748376D01*
X94428571Y-70748376D02*
X94333333Y-70653137D01*
X94333333Y-70653137D02*
X94285714Y-70557899D01*
X94285714Y-70557899D02*
X94238095Y-70367423D01*
X94238095Y-70367423D02*
X94238095Y-70224566D01*
X94238095Y-70224566D02*
X94285714Y-70034090D01*
X94285714Y-70034090D02*
X94333333Y-69938852D01*
X94333333Y-69938852D02*
X94428571Y-69843614D01*
X94428571Y-69843614D02*
X94571428Y-69795995D01*
X94571428Y-69795995D02*
X94666666Y-69795995D01*
X94666666Y-69795995D02*
X94809523Y-69843614D01*
X94809523Y-69843614D02*
X94857142Y-69891233D01*
X95238095Y-69891233D02*
X95285714Y-69843614D01*
X95285714Y-69843614D02*
X95380952Y-69795995D01*
X95380952Y-69795995D02*
X95619047Y-69795995D01*
X95619047Y-69795995D02*
X95714285Y-69843614D01*
X95714285Y-69843614D02*
X95761904Y-69891233D01*
X95761904Y-69891233D02*
X95809523Y-69986471D01*
X95809523Y-69986471D02*
X95809523Y-70081709D01*
X95809523Y-70081709D02*
X95761904Y-70224566D01*
X95761904Y-70224566D02*
X95190476Y-70795995D01*
X95190476Y-70795995D02*
X95809523Y-70795995D01*
X96428571Y-69795995D02*
X96523809Y-69795995D01*
X96523809Y-69795995D02*
X96619047Y-69843614D01*
X96619047Y-69843614D02*
X96666666Y-69891233D01*
X96666666Y-69891233D02*
X96714285Y-69986471D01*
X96714285Y-69986471D02*
X96761904Y-70176947D01*
X96761904Y-70176947D02*
X96761904Y-70415042D01*
X96761904Y-70415042D02*
X96714285Y-70605518D01*
X96714285Y-70605518D02*
X96666666Y-70700756D01*
X96666666Y-70700756D02*
X96619047Y-70748376D01*
X96619047Y-70748376D02*
X96523809Y-70795995D01*
X96523809Y-70795995D02*
X96428571Y-70795995D01*
X96428571Y-70795995D02*
X96333333Y-70748376D01*
X96333333Y-70748376D02*
X96285714Y-70700756D01*
X96285714Y-70700756D02*
X96238095Y-70605518D01*
X96238095Y-70605518D02*
X96190476Y-70415042D01*
X96190476Y-70415042D02*
X96190476Y-70176947D01*
X96190476Y-70176947D02*
X96238095Y-69986471D01*
X96238095Y-69986471D02*
X96285714Y-69891233D01*
X96285714Y-69891233D02*
X96333333Y-69843614D01*
X96333333Y-69843614D02*
X96428571Y-69795995D01*
X94357142Y-60518404D02*
X94309523Y-60566024D01*
X94309523Y-60566024D02*
X94166666Y-60613643D01*
X94166666Y-60613643D02*
X94071428Y-60613643D01*
X94071428Y-60613643D02*
X93928571Y-60566024D01*
X93928571Y-60566024D02*
X93833333Y-60470785D01*
X93833333Y-60470785D02*
X93785714Y-60375547D01*
X93785714Y-60375547D02*
X93738095Y-60185071D01*
X93738095Y-60185071D02*
X93738095Y-60042214D01*
X93738095Y-60042214D02*
X93785714Y-59851738D01*
X93785714Y-59851738D02*
X93833333Y-59756500D01*
X93833333Y-59756500D02*
X93928571Y-59661262D01*
X93928571Y-59661262D02*
X94071428Y-59613643D01*
X94071428Y-59613643D02*
X94166666Y-59613643D01*
X94166666Y-59613643D02*
X94309523Y-59661262D01*
X94309523Y-59661262D02*
X94357142Y-59708881D01*
X95309523Y-60613643D02*
X94738095Y-60613643D01*
X95023809Y-60613643D02*
X95023809Y-59613643D01*
X95023809Y-59613643D02*
X94928571Y-59756500D01*
X94928571Y-59756500D02*
X94833333Y-59851738D01*
X94833333Y-59851738D02*
X94738095Y-59899357D01*
X96214285Y-59613643D02*
X95738095Y-59613643D01*
X95738095Y-59613643D02*
X95690476Y-60089833D01*
X95690476Y-60089833D02*
X95738095Y-60042214D01*
X95738095Y-60042214D02*
X95833333Y-59994595D01*
X95833333Y-59994595D02*
X96071428Y-59994595D01*
X96071428Y-59994595D02*
X96166666Y-60042214D01*
X96166666Y-60042214D02*
X96214285Y-60089833D01*
X96214285Y-60089833D02*
X96261904Y-60185071D01*
X96261904Y-60185071D02*
X96261904Y-60423166D01*
X96261904Y-60423166D02*
X96214285Y-60518404D01*
X96214285Y-60518404D02*
X96166666Y-60566024D01*
X96166666Y-60566024D02*
X96071428Y-60613643D01*
X96071428Y-60613643D02*
X95833333Y-60613643D01*
X95833333Y-60613643D02*
X95738095Y-60566024D01*
X95738095Y-60566024D02*
X95690476Y-60518404D01*
X94857142Y-72200756D02*
X94809523Y-72248376D01*
X94809523Y-72248376D02*
X94666666Y-72295995D01*
X94666666Y-72295995D02*
X94571428Y-72295995D01*
X94571428Y-72295995D02*
X94428571Y-72248376D01*
X94428571Y-72248376D02*
X94333333Y-72153137D01*
X94333333Y-72153137D02*
X94285714Y-72057899D01*
X94285714Y-72057899D02*
X94238095Y-71867423D01*
X94238095Y-71867423D02*
X94238095Y-71724566D01*
X94238095Y-71724566D02*
X94285714Y-71534090D01*
X94285714Y-71534090D02*
X94333333Y-71438852D01*
X94333333Y-71438852D02*
X94428571Y-71343614D01*
X94428571Y-71343614D02*
X94571428Y-71295995D01*
X94571428Y-71295995D02*
X94666666Y-71295995D01*
X94666666Y-71295995D02*
X94809523Y-71343614D01*
X94809523Y-71343614D02*
X94857142Y-71391233D01*
X95238095Y-71391233D02*
X95285714Y-71343614D01*
X95285714Y-71343614D02*
X95380952Y-71295995D01*
X95380952Y-71295995D02*
X95619047Y-71295995D01*
X95619047Y-71295995D02*
X95714285Y-71343614D01*
X95714285Y-71343614D02*
X95761904Y-71391233D01*
X95761904Y-71391233D02*
X95809523Y-71486471D01*
X95809523Y-71486471D02*
X95809523Y-71581709D01*
X95809523Y-71581709D02*
X95761904Y-71724566D01*
X95761904Y-71724566D02*
X95190476Y-72295995D01*
X95190476Y-72295995D02*
X95809523Y-72295995D01*
X96761904Y-72295995D02*
X96190476Y-72295995D01*
X96476190Y-72295995D02*
X96476190Y-71295995D01*
X96476190Y-71295995D02*
X96380952Y-71438852D01*
X96380952Y-71438852D02*
X96285714Y-71534090D01*
X96285714Y-71534090D02*
X96190476Y-71581709D01*
X93200756Y-60642857D02*
X93248376Y-60690476D01*
X93248376Y-60690476D02*
X93295995Y-60833333D01*
X93295995Y-60833333D02*
X93295995Y-60928571D01*
X93295995Y-60928571D02*
X93248376Y-61071428D01*
X93248376Y-61071428D02*
X93153137Y-61166666D01*
X93153137Y-61166666D02*
X93057899Y-61214285D01*
X93057899Y-61214285D02*
X92867423Y-61261904D01*
X92867423Y-61261904D02*
X92724566Y-61261904D01*
X92724566Y-61261904D02*
X92534090Y-61214285D01*
X92534090Y-61214285D02*
X92438852Y-61166666D01*
X92438852Y-61166666D02*
X92343614Y-61071428D01*
X92343614Y-61071428D02*
X92295995Y-60928571D01*
X92295995Y-60928571D02*
X92295995Y-60833333D01*
X92295995Y-60833333D02*
X92343614Y-60690476D01*
X92343614Y-60690476D02*
X92391233Y-60642857D01*
X93295995Y-59690476D02*
X93295995Y-60261904D01*
X93295995Y-59976190D02*
X92295995Y-59976190D01*
X92295995Y-59976190D02*
X92438852Y-60071428D01*
X92438852Y-60071428D02*
X92534090Y-60166666D01*
X92534090Y-60166666D02*
X92581709Y-60261904D01*
X92295995Y-58833333D02*
X92295995Y-59023809D01*
X92295995Y-59023809D02*
X92343614Y-59119047D01*
X92343614Y-59119047D02*
X92391233Y-59166666D01*
X92391233Y-59166666D02*
X92534090Y-59261904D01*
X92534090Y-59261904D02*
X92724566Y-59309523D01*
X92724566Y-59309523D02*
X93105518Y-59309523D01*
X93105518Y-59309523D02*
X93200756Y-59261904D01*
X93200756Y-59261904D02*
X93248376Y-59214285D01*
X93248376Y-59214285D02*
X93295995Y-59119047D01*
X93295995Y-59119047D02*
X93295995Y-58928571D01*
X93295995Y-58928571D02*
X93248376Y-58833333D01*
X93248376Y-58833333D02*
X93200756Y-58785714D01*
X93200756Y-58785714D02*
X93105518Y-58738095D01*
X93105518Y-58738095D02*
X92867423Y-58738095D01*
X92867423Y-58738095D02*
X92772185Y-58785714D01*
X92772185Y-58785714D02*
X92724566Y-58833333D01*
X92724566Y-58833333D02*
X92676947Y-58928571D01*
X92676947Y-58928571D02*
X92676947Y-59119047D01*
X92676947Y-59119047D02*
X92724566Y-59214285D01*
X92724566Y-59214285D02*
X92772185Y-59261904D01*
X92772185Y-59261904D02*
X92867423Y-59309523D01*
X94357142Y-59018404D02*
X94309523Y-59066024D01*
X94309523Y-59066024D02*
X94166666Y-59113643D01*
X94166666Y-59113643D02*
X94071428Y-59113643D01*
X94071428Y-59113643D02*
X93928571Y-59066024D01*
X93928571Y-59066024D02*
X93833333Y-58970785D01*
X93833333Y-58970785D02*
X93785714Y-58875547D01*
X93785714Y-58875547D02*
X93738095Y-58685071D01*
X93738095Y-58685071D02*
X93738095Y-58542214D01*
X93738095Y-58542214D02*
X93785714Y-58351738D01*
X93785714Y-58351738D02*
X93833333Y-58256500D01*
X93833333Y-58256500D02*
X93928571Y-58161262D01*
X93928571Y-58161262D02*
X94071428Y-58113643D01*
X94071428Y-58113643D02*
X94166666Y-58113643D01*
X94166666Y-58113643D02*
X94309523Y-58161262D01*
X94309523Y-58161262D02*
X94357142Y-58208881D01*
X95309523Y-59113643D02*
X94738095Y-59113643D01*
X95023809Y-59113643D02*
X95023809Y-58113643D01*
X95023809Y-58113643D02*
X94928571Y-58256500D01*
X94928571Y-58256500D02*
X94833333Y-58351738D01*
X94833333Y-58351738D02*
X94738095Y-58399357D01*
X96166666Y-58446976D02*
X96166666Y-59113643D01*
X95928571Y-58066024D02*
X95690476Y-58780309D01*
X95690476Y-58780309D02*
X96309523Y-58780309D01*
X93518404Y-70622857D02*
X93566024Y-70670476D01*
X93566024Y-70670476D02*
X93613643Y-70813333D01*
X93613643Y-70813333D02*
X93613643Y-70908571D01*
X93613643Y-70908571D02*
X93566024Y-71051428D01*
X93566024Y-71051428D02*
X93470785Y-71146666D01*
X93470785Y-71146666D02*
X93375547Y-71194285D01*
X93375547Y-71194285D02*
X93185071Y-71241904D01*
X93185071Y-71241904D02*
X93042214Y-71241904D01*
X93042214Y-71241904D02*
X92851738Y-71194285D01*
X92851738Y-71194285D02*
X92756500Y-71146666D01*
X92756500Y-71146666D02*
X92661262Y-71051428D01*
X92661262Y-71051428D02*
X92613643Y-70908571D01*
X92613643Y-70908571D02*
X92613643Y-70813333D01*
X92613643Y-70813333D02*
X92661262Y-70670476D01*
X92661262Y-70670476D02*
X92708881Y-70622857D01*
X93613643Y-69670476D02*
X93613643Y-70241904D01*
X93613643Y-69956190D02*
X92613643Y-69956190D01*
X92613643Y-69956190D02*
X92756500Y-70051428D01*
X92756500Y-70051428D02*
X92851738Y-70146666D01*
X92851738Y-70146666D02*
X92899357Y-70241904D01*
X92613643Y-69337142D02*
X92613643Y-68670476D01*
X92613643Y-68670476D02*
X93613643Y-69099047D01*
X103359580Y-78007842D02*
X103407200Y-78055461D01*
X103407200Y-78055461D02*
X103454819Y-78198318D01*
X103454819Y-78198318D02*
X103454819Y-78293556D01*
X103454819Y-78293556D02*
X103407200Y-78436413D01*
X103407200Y-78436413D02*
X103311961Y-78531651D01*
X103311961Y-78531651D02*
X103216723Y-78579270D01*
X103216723Y-78579270D02*
X103026247Y-78626889D01*
X103026247Y-78626889D02*
X102883390Y-78626889D01*
X102883390Y-78626889D02*
X102692914Y-78579270D01*
X102692914Y-78579270D02*
X102597676Y-78531651D01*
X102597676Y-78531651D02*
X102502438Y-78436413D01*
X102502438Y-78436413D02*
X102454819Y-78293556D01*
X102454819Y-78293556D02*
X102454819Y-78198318D01*
X102454819Y-78198318D02*
X102502438Y-78055461D01*
X102502438Y-78055461D02*
X102550057Y-78007842D01*
X102883390Y-77436413D02*
X102835771Y-77531651D01*
X102835771Y-77531651D02*
X102788152Y-77579270D01*
X102788152Y-77579270D02*
X102692914Y-77626889D01*
X102692914Y-77626889D02*
X102645295Y-77626889D01*
X102645295Y-77626889D02*
X102550057Y-77579270D01*
X102550057Y-77579270D02*
X102502438Y-77531651D01*
X102502438Y-77531651D02*
X102454819Y-77436413D01*
X102454819Y-77436413D02*
X102454819Y-77245937D01*
X102454819Y-77245937D02*
X102502438Y-77150699D01*
X102502438Y-77150699D02*
X102550057Y-77103080D01*
X102550057Y-77103080D02*
X102645295Y-77055461D01*
X102645295Y-77055461D02*
X102692914Y-77055461D01*
X102692914Y-77055461D02*
X102788152Y-77103080D01*
X102788152Y-77103080D02*
X102835771Y-77150699D01*
X102835771Y-77150699D02*
X102883390Y-77245937D01*
X102883390Y-77245937D02*
X102883390Y-77436413D01*
X102883390Y-77436413D02*
X102931009Y-77531651D01*
X102931009Y-77531651D02*
X102978628Y-77579270D01*
X102978628Y-77579270D02*
X103073866Y-77626889D01*
X103073866Y-77626889D02*
X103264342Y-77626889D01*
X103264342Y-77626889D02*
X103359580Y-77579270D01*
X103359580Y-77579270D02*
X103407200Y-77531651D01*
X103407200Y-77531651D02*
X103454819Y-77436413D01*
X103454819Y-77436413D02*
X103454819Y-77245937D01*
X103454819Y-77245937D02*
X103407200Y-77150699D01*
X103407200Y-77150699D02*
X103359580Y-77103080D01*
X103359580Y-77103080D02*
X103264342Y-77055461D01*
X103264342Y-77055461D02*
X103073866Y-77055461D01*
X103073866Y-77055461D02*
X102978628Y-77103080D01*
X102978628Y-77103080D02*
X102931009Y-77150699D01*
X102931009Y-77150699D02*
X102883390Y-77245937D01*
X117857142Y-57859580D02*
X117809523Y-57907200D01*
X117809523Y-57907200D02*
X117666666Y-57954819D01*
X117666666Y-57954819D02*
X117571428Y-57954819D01*
X117571428Y-57954819D02*
X117428571Y-57907200D01*
X117428571Y-57907200D02*
X117333333Y-57811961D01*
X117333333Y-57811961D02*
X117285714Y-57716723D01*
X117285714Y-57716723D02*
X117238095Y-57526247D01*
X117238095Y-57526247D02*
X117238095Y-57383390D01*
X117238095Y-57383390D02*
X117285714Y-57192914D01*
X117285714Y-57192914D02*
X117333333Y-57097676D01*
X117333333Y-57097676D02*
X117428571Y-57002438D01*
X117428571Y-57002438D02*
X117571428Y-56954819D01*
X117571428Y-56954819D02*
X117666666Y-56954819D01*
X117666666Y-56954819D02*
X117809523Y-57002438D01*
X117809523Y-57002438D02*
X117857142Y-57050057D01*
X118809523Y-57954819D02*
X118238095Y-57954819D01*
X118523809Y-57954819D02*
X118523809Y-56954819D01*
X118523809Y-56954819D02*
X118428571Y-57097676D01*
X118428571Y-57097676D02*
X118333333Y-57192914D01*
X118333333Y-57192914D02*
X118238095Y-57240533D01*
X119190476Y-57050057D02*
X119238095Y-57002438D01*
X119238095Y-57002438D02*
X119333333Y-56954819D01*
X119333333Y-56954819D02*
X119571428Y-56954819D01*
X119571428Y-56954819D02*
X119666666Y-57002438D01*
X119666666Y-57002438D02*
X119714285Y-57050057D01*
X119714285Y-57050057D02*
X119761904Y-57145295D01*
X119761904Y-57145295D02*
X119761904Y-57240533D01*
X119761904Y-57240533D02*
X119714285Y-57383390D01*
X119714285Y-57383390D02*
X119142857Y-57954819D01*
X119142857Y-57954819D02*
X119761904Y-57954819D01*
X114359580Y-79142857D02*
X114407200Y-79190476D01*
X114407200Y-79190476D02*
X114454819Y-79333333D01*
X114454819Y-79333333D02*
X114454819Y-79428571D01*
X114454819Y-79428571D02*
X114407200Y-79571428D01*
X114407200Y-79571428D02*
X114311961Y-79666666D01*
X114311961Y-79666666D02*
X114216723Y-79714285D01*
X114216723Y-79714285D02*
X114026247Y-79761904D01*
X114026247Y-79761904D02*
X113883390Y-79761904D01*
X113883390Y-79761904D02*
X113692914Y-79714285D01*
X113692914Y-79714285D02*
X113597676Y-79666666D01*
X113597676Y-79666666D02*
X113502438Y-79571428D01*
X113502438Y-79571428D02*
X113454819Y-79428571D01*
X113454819Y-79428571D02*
X113454819Y-79333333D01*
X113454819Y-79333333D02*
X113502438Y-79190476D01*
X113502438Y-79190476D02*
X113550057Y-79142857D01*
X114454819Y-78190476D02*
X114454819Y-78761904D01*
X114454819Y-78476190D02*
X113454819Y-78476190D01*
X113454819Y-78476190D02*
X113597676Y-78571428D01*
X113597676Y-78571428D02*
X113692914Y-78666666D01*
X113692914Y-78666666D02*
X113740533Y-78761904D01*
X113454819Y-77571428D02*
X113454819Y-77476190D01*
X113454819Y-77476190D02*
X113502438Y-77380952D01*
X113502438Y-77380952D02*
X113550057Y-77333333D01*
X113550057Y-77333333D02*
X113645295Y-77285714D01*
X113645295Y-77285714D02*
X113835771Y-77238095D01*
X113835771Y-77238095D02*
X114073866Y-77238095D01*
X114073866Y-77238095D02*
X114264342Y-77285714D01*
X114264342Y-77285714D02*
X114359580Y-77333333D01*
X114359580Y-77333333D02*
X114407200Y-77380952D01*
X114407200Y-77380952D02*
X114454819Y-77476190D01*
X114454819Y-77476190D02*
X114454819Y-77571428D01*
X114454819Y-77571428D02*
X114407200Y-77666666D01*
X114407200Y-77666666D02*
X114359580Y-77714285D01*
X114359580Y-77714285D02*
X114264342Y-77761904D01*
X114264342Y-77761904D02*
X114073866Y-77809523D01*
X114073866Y-77809523D02*
X113835771Y-77809523D01*
X113835771Y-77809523D02*
X113645295Y-77761904D01*
X113645295Y-77761904D02*
X113550057Y-77714285D01*
X113550057Y-77714285D02*
X113502438Y-77666666D01*
X113502438Y-77666666D02*
X113454819Y-77571428D01*
X94857142Y-69200756D02*
X94809523Y-69248376D01*
X94809523Y-69248376D02*
X94666666Y-69295995D01*
X94666666Y-69295995D02*
X94571428Y-69295995D01*
X94571428Y-69295995D02*
X94428571Y-69248376D01*
X94428571Y-69248376D02*
X94333333Y-69153137D01*
X94333333Y-69153137D02*
X94285714Y-69057899D01*
X94285714Y-69057899D02*
X94238095Y-68867423D01*
X94238095Y-68867423D02*
X94238095Y-68724566D01*
X94238095Y-68724566D02*
X94285714Y-68534090D01*
X94285714Y-68534090D02*
X94333333Y-68438852D01*
X94333333Y-68438852D02*
X94428571Y-68343614D01*
X94428571Y-68343614D02*
X94571428Y-68295995D01*
X94571428Y-68295995D02*
X94666666Y-68295995D01*
X94666666Y-68295995D02*
X94809523Y-68343614D01*
X94809523Y-68343614D02*
X94857142Y-68391233D01*
X95809523Y-69295995D02*
X95238095Y-69295995D01*
X95523809Y-69295995D02*
X95523809Y-68295995D01*
X95523809Y-68295995D02*
X95428571Y-68438852D01*
X95428571Y-68438852D02*
X95333333Y-68534090D01*
X95333333Y-68534090D02*
X95238095Y-68581709D01*
X96285714Y-69295995D02*
X96476190Y-69295995D01*
X96476190Y-69295995D02*
X96571428Y-69248376D01*
X96571428Y-69248376D02*
X96619047Y-69200756D01*
X96619047Y-69200756D02*
X96714285Y-69057899D01*
X96714285Y-69057899D02*
X96761904Y-68867423D01*
X96761904Y-68867423D02*
X96761904Y-68486471D01*
X96761904Y-68486471D02*
X96714285Y-68391233D01*
X96714285Y-68391233D02*
X96666666Y-68343614D01*
X96666666Y-68343614D02*
X96571428Y-68295995D01*
X96571428Y-68295995D02*
X96380952Y-68295995D01*
X96380952Y-68295995D02*
X96285714Y-68343614D01*
X96285714Y-68343614D02*
X96238095Y-68391233D01*
X96238095Y-68391233D02*
X96190476Y-68486471D01*
X96190476Y-68486471D02*
X96190476Y-68724566D01*
X96190476Y-68724566D02*
X96238095Y-68819804D01*
X96238095Y-68819804D02*
X96285714Y-68867423D01*
X96285714Y-68867423D02*
X96380952Y-68915042D01*
X96380952Y-68915042D02*
X96571428Y-68915042D01*
X96571428Y-68915042D02*
X96666666Y-68867423D01*
X96666666Y-68867423D02*
X96714285Y-68819804D01*
X96714285Y-68819804D02*
X96761904Y-68724566D01*
X94857142Y-67859580D02*
X94809523Y-67907200D01*
X94809523Y-67907200D02*
X94666666Y-67954819D01*
X94666666Y-67954819D02*
X94571428Y-67954819D01*
X94571428Y-67954819D02*
X94428571Y-67907200D01*
X94428571Y-67907200D02*
X94333333Y-67811961D01*
X94333333Y-67811961D02*
X94285714Y-67716723D01*
X94285714Y-67716723D02*
X94238095Y-67526247D01*
X94238095Y-67526247D02*
X94238095Y-67383390D01*
X94238095Y-67383390D02*
X94285714Y-67192914D01*
X94285714Y-67192914D02*
X94333333Y-67097676D01*
X94333333Y-67097676D02*
X94428571Y-67002438D01*
X94428571Y-67002438D02*
X94571428Y-66954819D01*
X94571428Y-66954819D02*
X94666666Y-66954819D01*
X94666666Y-66954819D02*
X94809523Y-67002438D01*
X94809523Y-67002438D02*
X94857142Y-67050057D01*
X95809523Y-67954819D02*
X95238095Y-67954819D01*
X95523809Y-67954819D02*
X95523809Y-66954819D01*
X95523809Y-66954819D02*
X95428571Y-67097676D01*
X95428571Y-67097676D02*
X95333333Y-67192914D01*
X95333333Y-67192914D02*
X95238095Y-67240533D01*
X96380952Y-67383390D02*
X96285714Y-67335771D01*
X96285714Y-67335771D02*
X96238095Y-67288152D01*
X96238095Y-67288152D02*
X96190476Y-67192914D01*
X96190476Y-67192914D02*
X96190476Y-67145295D01*
X96190476Y-67145295D02*
X96238095Y-67050057D01*
X96238095Y-67050057D02*
X96285714Y-67002438D01*
X96285714Y-67002438D02*
X96380952Y-66954819D01*
X96380952Y-66954819D02*
X96571428Y-66954819D01*
X96571428Y-66954819D02*
X96666666Y-67002438D01*
X96666666Y-67002438D02*
X96714285Y-67050057D01*
X96714285Y-67050057D02*
X96761904Y-67145295D01*
X96761904Y-67145295D02*
X96761904Y-67192914D01*
X96761904Y-67192914D02*
X96714285Y-67288152D01*
X96714285Y-67288152D02*
X96666666Y-67335771D01*
X96666666Y-67335771D02*
X96571428Y-67383390D01*
X96571428Y-67383390D02*
X96380952Y-67383390D01*
X96380952Y-67383390D02*
X96285714Y-67431009D01*
X96285714Y-67431009D02*
X96238095Y-67478628D01*
X96238095Y-67478628D02*
X96190476Y-67573866D01*
X96190476Y-67573866D02*
X96190476Y-67764342D01*
X96190476Y-67764342D02*
X96238095Y-67859580D01*
X96238095Y-67859580D02*
X96285714Y-67907200D01*
X96285714Y-67907200D02*
X96380952Y-67954819D01*
X96380952Y-67954819D02*
X96571428Y-67954819D01*
X96571428Y-67954819D02*
X96666666Y-67907200D01*
X96666666Y-67907200D02*
X96714285Y-67859580D01*
X96714285Y-67859580D02*
X96761904Y-67764342D01*
X96761904Y-67764342D02*
X96761904Y-67573866D01*
X96761904Y-67573866D02*
X96714285Y-67478628D01*
X96714285Y-67478628D02*
X96666666Y-67431009D01*
X96666666Y-67431009D02*
X96571428Y-67383390D01*
X112859580Y-79166666D02*
X112907200Y-79214285D01*
X112907200Y-79214285D02*
X112954819Y-79357142D01*
X112954819Y-79357142D02*
X112954819Y-79452380D01*
X112954819Y-79452380D02*
X112907200Y-79595237D01*
X112907200Y-79595237D02*
X112811961Y-79690475D01*
X112811961Y-79690475D02*
X112716723Y-79738094D01*
X112716723Y-79738094D02*
X112526247Y-79785713D01*
X112526247Y-79785713D02*
X112383390Y-79785713D01*
X112383390Y-79785713D02*
X112192914Y-79738094D01*
X112192914Y-79738094D02*
X112097676Y-79690475D01*
X112097676Y-79690475D02*
X112002438Y-79595237D01*
X112002438Y-79595237D02*
X111954819Y-79452380D01*
X111954819Y-79452380D02*
X111954819Y-79357142D01*
X111954819Y-79357142D02*
X112002438Y-79214285D01*
X112002438Y-79214285D02*
X112050057Y-79166666D01*
X112954819Y-78690475D02*
X112954819Y-78499999D01*
X112954819Y-78499999D02*
X112907200Y-78404761D01*
X112907200Y-78404761D02*
X112859580Y-78357142D01*
X112859580Y-78357142D02*
X112716723Y-78261904D01*
X112716723Y-78261904D02*
X112526247Y-78214285D01*
X112526247Y-78214285D02*
X112145295Y-78214285D01*
X112145295Y-78214285D02*
X112050057Y-78261904D01*
X112050057Y-78261904D02*
X112002438Y-78309523D01*
X112002438Y-78309523D02*
X111954819Y-78404761D01*
X111954819Y-78404761D02*
X111954819Y-78595237D01*
X111954819Y-78595237D02*
X112002438Y-78690475D01*
X112002438Y-78690475D02*
X112050057Y-78738094D01*
X112050057Y-78738094D02*
X112145295Y-78785713D01*
X112145295Y-78785713D02*
X112383390Y-78785713D01*
X112383390Y-78785713D02*
X112478628Y-78738094D01*
X112478628Y-78738094D02*
X112526247Y-78690475D01*
X112526247Y-78690475D02*
X112573866Y-78595237D01*
X112573866Y-78595237D02*
X112573866Y-78404761D01*
X112573866Y-78404761D02*
X112526247Y-78309523D01*
X112526247Y-78309523D02*
X112478628Y-78261904D01*
X112478628Y-78261904D02*
X112383390Y-78214285D01*
X120857142Y-60859580D02*
X120809523Y-60907200D01*
X120809523Y-60907200D02*
X120666666Y-60954819D01*
X120666666Y-60954819D02*
X120571428Y-60954819D01*
X120571428Y-60954819D02*
X120428571Y-60907200D01*
X120428571Y-60907200D02*
X120333333Y-60811961D01*
X120333333Y-60811961D02*
X120285714Y-60716723D01*
X120285714Y-60716723D02*
X120238095Y-60526247D01*
X120238095Y-60526247D02*
X120238095Y-60383390D01*
X120238095Y-60383390D02*
X120285714Y-60192914D01*
X120285714Y-60192914D02*
X120333333Y-60097676D01*
X120333333Y-60097676D02*
X120428571Y-60002438D01*
X120428571Y-60002438D02*
X120571428Y-59954819D01*
X120571428Y-59954819D02*
X120666666Y-59954819D01*
X120666666Y-59954819D02*
X120809523Y-60002438D01*
X120809523Y-60002438D02*
X120857142Y-60050057D01*
X121809523Y-60954819D02*
X121238095Y-60954819D01*
X121523809Y-60954819D02*
X121523809Y-59954819D01*
X121523809Y-59954819D02*
X121428571Y-60097676D01*
X121428571Y-60097676D02*
X121333333Y-60192914D01*
X121333333Y-60192914D02*
X121238095Y-60240533D01*
X122761904Y-60954819D02*
X122190476Y-60954819D01*
X122476190Y-60954819D02*
X122476190Y-59954819D01*
X122476190Y-59954819D02*
X122380952Y-60097676D01*
X122380952Y-60097676D02*
X122285714Y-60192914D01*
X122285714Y-60192914D02*
X122190476Y-60240533D01*
X107238095Y-55865995D02*
X107238095Y-56675518D01*
X107238095Y-56675518D02*
X107285714Y-56770756D01*
X107285714Y-56770756D02*
X107333333Y-56818376D01*
X107333333Y-56818376D02*
X107428571Y-56865995D01*
X107428571Y-56865995D02*
X107619047Y-56865995D01*
X107619047Y-56865995D02*
X107714285Y-56818376D01*
X107714285Y-56818376D02*
X107761904Y-56770756D01*
X107761904Y-56770756D02*
X107809523Y-56675518D01*
X107809523Y-56675518D02*
X107809523Y-55865995D01*
X108809523Y-56865995D02*
X108238095Y-56865995D01*
X108523809Y-56865995D02*
X108523809Y-55865995D01*
X108523809Y-55865995D02*
X108428571Y-56008852D01*
X108428571Y-56008852D02*
X108333333Y-56104090D01*
X108333333Y-56104090D02*
X108238095Y-56151709D01*
X108354819Y-78240580D02*
X109164342Y-78240580D01*
X109164342Y-78240580D02*
X109259580Y-78192961D01*
X109259580Y-78192961D02*
X109307200Y-78145342D01*
X109307200Y-78145342D02*
X109354819Y-78050104D01*
X109354819Y-78050104D02*
X109354819Y-77859628D01*
X109354819Y-77859628D02*
X109307200Y-77764390D01*
X109307200Y-77764390D02*
X109259580Y-77716771D01*
X109259580Y-77716771D02*
X109164342Y-77669152D01*
X109164342Y-77669152D02*
X108354819Y-77669152D01*
X108450057Y-77240580D02*
X108402438Y-77192961D01*
X108402438Y-77192961D02*
X108354819Y-77097723D01*
X108354819Y-77097723D02*
X108354819Y-76859628D01*
X108354819Y-76859628D02*
X108402438Y-76764390D01*
X108402438Y-76764390D02*
X108450057Y-76716771D01*
X108450057Y-76716771D02*
X108545295Y-76669152D01*
X108545295Y-76669152D02*
X108640533Y-76669152D01*
X108640533Y-76669152D02*
X108783390Y-76716771D01*
X108783390Y-76716771D02*
X109354819Y-77288199D01*
X109354819Y-77288199D02*
X109354819Y-76669152D01*
X109019580Y-81146666D02*
X109067200Y-81194285D01*
X109067200Y-81194285D02*
X109114819Y-81337142D01*
X109114819Y-81337142D02*
X109114819Y-81432380D01*
X109114819Y-81432380D02*
X109067200Y-81575237D01*
X109067200Y-81575237D02*
X108971961Y-81670475D01*
X108971961Y-81670475D02*
X108876723Y-81718094D01*
X108876723Y-81718094D02*
X108686247Y-81765713D01*
X108686247Y-81765713D02*
X108543390Y-81765713D01*
X108543390Y-81765713D02*
X108352914Y-81718094D01*
X108352914Y-81718094D02*
X108257676Y-81670475D01*
X108257676Y-81670475D02*
X108162438Y-81575237D01*
X108162438Y-81575237D02*
X108114819Y-81432380D01*
X108114819Y-81432380D02*
X108114819Y-81337142D01*
X108114819Y-81337142D02*
X108162438Y-81194285D01*
X108162438Y-81194285D02*
X108210057Y-81146666D01*
X108114819Y-80813332D02*
X108114819Y-80146666D01*
X108114819Y-80146666D02*
X109114819Y-80575237D01*
X103859580Y-56142857D02*
X103907200Y-56190476D01*
X103907200Y-56190476D02*
X103954819Y-56333333D01*
X103954819Y-56333333D02*
X103954819Y-56428571D01*
X103954819Y-56428571D02*
X103907200Y-56571428D01*
X103907200Y-56571428D02*
X103811961Y-56666666D01*
X103811961Y-56666666D02*
X103716723Y-56714285D01*
X103716723Y-56714285D02*
X103526247Y-56761904D01*
X103526247Y-56761904D02*
X103383390Y-56761904D01*
X103383390Y-56761904D02*
X103192914Y-56714285D01*
X103192914Y-56714285D02*
X103097676Y-56666666D01*
X103097676Y-56666666D02*
X103002438Y-56571428D01*
X103002438Y-56571428D02*
X102954819Y-56428571D01*
X102954819Y-56428571D02*
X102954819Y-56333333D01*
X102954819Y-56333333D02*
X103002438Y-56190476D01*
X103002438Y-56190476D02*
X103050057Y-56142857D01*
X103954819Y-55190476D02*
X103954819Y-55761904D01*
X103954819Y-55476190D02*
X102954819Y-55476190D01*
X102954819Y-55476190D02*
X103097676Y-55571428D01*
X103097676Y-55571428D02*
X103192914Y-55666666D01*
X103192914Y-55666666D02*
X103240533Y-55761904D01*
X102954819Y-54857142D02*
X102954819Y-54238095D01*
X102954819Y-54238095D02*
X103335771Y-54571428D01*
X103335771Y-54571428D02*
X103335771Y-54428571D01*
X103335771Y-54428571D02*
X103383390Y-54333333D01*
X103383390Y-54333333D02*
X103431009Y-54285714D01*
X103431009Y-54285714D02*
X103526247Y-54238095D01*
X103526247Y-54238095D02*
X103764342Y-54238095D01*
X103764342Y-54238095D02*
X103859580Y-54285714D01*
X103859580Y-54285714D02*
X103907200Y-54333333D01*
X103907200Y-54333333D02*
X103954819Y-54428571D01*
X103954819Y-54428571D02*
X103954819Y-54714285D01*
X103954819Y-54714285D02*
X103907200Y-54809523D01*
X103907200Y-54809523D02*
X103859580Y-54857142D01*
D12*
%TO.C,J4*%
X93120000Y-92620000D02*
X94500000Y-92620000D01*
X93120000Y-94000000D02*
X93120000Y-92620000D01*
X93120000Y-95270000D02*
X93120000Y-100460000D01*
X93120000Y-95270000D02*
X95880000Y-95270000D01*
X93120000Y-100460000D02*
X95880000Y-100460000D01*
X95880000Y-95270000D02*
X95880000Y-100460000D01*
D13*
%TO.C,J1*%
X131200000Y-96500000D02*
X116800000Y-96500000D01*
X131200000Y-87500000D02*
X131200000Y-96500000D01*
X122820000Y-87500000D02*
X131200000Y-87500000D01*
X116800000Y-96500000D02*
X116800000Y-94520000D01*
X116800000Y-87500000D02*
X118180000Y-87500000D01*
X116800000Y-87500000D02*
X116800000Y-89480000D01*
D14*
X115500000Y-92000000D02*
G75*
G02*
X115300000Y-92000000I-100000J0D01*
G01*
X115300000Y-92000000D02*
G75*
G02*
X115500000Y-92000000I100000J0D01*
G01*
D12*
%TO.C,J3*%
X127935000Y-53875000D02*
X126385000Y-53875000D01*
X130735000Y-54175000D02*
X127935000Y-54175000D01*
X127935000Y-54175000D02*
X127935000Y-53875000D01*
X124685000Y-58925000D02*
X125135000Y-59325000D01*
X125135000Y-59325000D02*
X124685000Y-59725000D01*
X124685000Y-59725000D02*
X124685000Y-58925000D01*
X130735000Y-61875000D02*
X127935000Y-61875000D01*
X127935000Y-62175000D02*
X127935000Y-61875000D01*
X127935000Y-62175000D02*
X126385000Y-62175000D01*
%TO.C,Y1*%
X98560000Y-66560000D02*
X98560000Y-63140000D01*
X98560000Y-63140000D02*
X94440000Y-63140000D01*
%TO.C,J2*%
X129680000Y-68485000D02*
X129680000Y-75055000D01*
X128817923Y-75055000D02*
X129680000Y-75055000D01*
X128817923Y-68485000D02*
X129680000Y-68485000D01*
X127547923Y-75055000D02*
X128182077Y-75055000D01*
X126050000Y-75055000D02*
X126912077Y-75055000D01*
X126050000Y-70040000D02*
X126563292Y-70040000D01*
X126050000Y-70040000D02*
X126050000Y-75055000D01*
X126050000Y-69230000D02*
X126050000Y-68420000D01*
X126050000Y-68420000D02*
X127230000Y-68420000D01*
%TO.C,U3*%
X94490000Y-81950000D02*
X94160000Y-82190000D01*
X94160000Y-81710000D01*
X94490000Y-81950000D01*
G36*
X94490000Y-81950000D02*
G01*
X94160000Y-82190000D01*
X94160000Y-81710000D01*
X94490000Y-81950000D01*
G37*
X97560000Y-79590000D02*
X97560000Y-81410000D01*
X97510000Y-79590000D02*
X97560000Y-79590000D01*
X95610000Y-79590000D02*
X96390000Y-79590000D01*
X94440000Y-79590000D02*
X94490000Y-79590000D01*
X97560000Y-81410000D02*
X97510000Y-81410000D01*
X94490000Y-81410000D02*
X94440000Y-81410000D01*
X94440000Y-81410000D02*
X94440000Y-79590000D01*
%TO.C,R3*%
X107643641Y-88680000D02*
X107336359Y-88680000D01*
X107643641Y-87920000D02*
X107336359Y-87920000D01*
%TO.C,C4*%
X103711252Y-94660000D02*
X102288748Y-94660000D01*
X103711252Y-91940000D02*
X102288748Y-91940000D01*
%TO.C,R4*%
X110153641Y-87920000D02*
X109846359Y-87920000D01*
X110153641Y-88680000D02*
X109846359Y-88680000D01*
%TO.C,C2*%
X113238748Y-94535000D02*
X113761252Y-94535000D01*
X113238748Y-93065000D02*
X113761252Y-93065000D01*
%TO.C,C1*%
X112765000Y-88761252D02*
X112765000Y-88238748D01*
X114235000Y-88761252D02*
X114235000Y-88238748D01*
%TO.C,C3*%
X103711252Y-88440000D02*
X102288748Y-88440000D01*
X103711252Y-91160000D02*
X102288748Y-91160000D01*
%TO.C,R1*%
X106346359Y-95420000D02*
X106653641Y-95420000D01*
X106346359Y-96180000D02*
X106653641Y-96180000D01*
%TO.C,R2*%
X108346359Y-95420000D02*
X108653641Y-95420000D01*
X108346359Y-96180000D02*
X108653641Y-96180000D01*
%TO.C,U4*%
X111375000Y-94675000D02*
X111375000Y-89675000D01*
X105675000Y-94675000D02*
X105675000Y-89675000D01*
X111375000Y-89295000D02*
X111095000Y-89295000D01*
X111095000Y-89015000D01*
X111375000Y-89295000D01*
G36*
X111375000Y-89295000D02*
G01*
X111095000Y-89295000D01*
X111095000Y-89015000D01*
X111375000Y-89295000D01*
G37*
%TO.C,C6*%
X94211252Y-75265000D02*
X93688748Y-75265000D01*
X94211252Y-76735000D02*
X93688748Y-76735000D01*
%TO.C,C5*%
X96261252Y-83765000D02*
X95738748Y-83765000D01*
X96261252Y-85235000D02*
X95738748Y-85235000D01*
%TO.C,C22*%
X126735000Y-63688748D02*
X126735000Y-64211252D01*
X125265000Y-63688748D02*
X125265000Y-64211252D01*
%TO.C,C20*%
X97892164Y-69981176D02*
X98107836Y-69981176D01*
X97892164Y-70701176D02*
X98107836Y-70701176D01*
%TO.C,C15*%
X97892164Y-61640000D02*
X98107836Y-61640000D01*
X97892164Y-62360000D02*
X98107836Y-62360000D01*
%TO.C,C21*%
X98127836Y-71481176D02*
X97912164Y-71481176D01*
X98127836Y-72201176D02*
X97912164Y-72201176D01*
%TO.C,C16*%
X93360000Y-62607836D02*
X93360000Y-62392164D01*
X92640000Y-62607836D02*
X92640000Y-62392164D01*
%TO.C,C14*%
X97892164Y-61360000D02*
X98107836Y-61360000D01*
X97892164Y-60640000D02*
X98107836Y-60640000D01*
%TO.C,C17*%
X93360000Y-67587836D02*
X93360000Y-67372164D01*
X92640000Y-67587836D02*
X92640000Y-67372164D01*
%TO.C,C8*%
X102640000Y-75733340D02*
X102640000Y-75949012D01*
X103360000Y-75733340D02*
X103360000Y-75949012D01*
%TO.C,C12*%
X116860000Y-58107836D02*
X116860000Y-57892164D01*
X116140000Y-58107836D02*
X116140000Y-57892164D01*
%TO.C,C10*%
X113640000Y-75733340D02*
X113640000Y-75949012D01*
X114360000Y-75733340D02*
X114360000Y-75949012D01*
%TO.C,C19*%
X98107836Y-68481176D02*
X97892164Y-68481176D01*
X98107836Y-69201176D02*
X97892164Y-69201176D01*
%TO.C,C18*%
X98107836Y-67140000D02*
X97892164Y-67140000D01*
X98107836Y-67860000D02*
X97892164Y-67860000D01*
%TO.C,C9*%
X111990000Y-76200596D02*
X111990000Y-76481756D01*
X113010000Y-76200596D02*
X113010000Y-76481756D01*
%TO.C,C11*%
X118359420Y-61351176D02*
X118640580Y-61351176D01*
X118359420Y-60331176D02*
X118640580Y-60331176D01*
%TO.C,U1*%
X100250000Y-59431176D02*
X99910000Y-58961176D01*
X100590000Y-58961176D01*
X100250000Y-59431176D01*
G36*
X100250000Y-59431176D02*
G01*
X99910000Y-58961176D01*
X100590000Y-58961176D01*
X100250000Y-59431176D01*
G37*
X115110000Y-72951176D02*
X114410000Y-72951176D01*
X115110000Y-72251176D02*
X115110000Y-72951176D01*
X115110000Y-58731176D02*
X115110000Y-59431176D01*
X114410000Y-58731176D02*
X115110000Y-58731176D01*
X101590000Y-72951176D02*
X100890000Y-72951176D01*
X100890000Y-72951176D02*
X100890000Y-72251176D01*
X100890000Y-59431176D02*
X100890000Y-58731176D01*
X100890000Y-58731176D02*
X101590000Y-58731176D01*
%TO.C,U2*%
X108340000Y-76268676D02*
X108010000Y-76028676D01*
X108340000Y-75788676D01*
X108340000Y-76268676D01*
G36*
X108340000Y-76268676D02*
G01*
X108010000Y-76028676D01*
X108340000Y-75788676D01*
X108340000Y-76268676D01*
G37*
X104940000Y-78388676D02*
X104940000Y-76568676D01*
X104990000Y-78388676D02*
X104940000Y-78388676D01*
X106890000Y-78388676D02*
X106110000Y-78388676D01*
X108060000Y-78388676D02*
X108010000Y-78388676D01*
X104940000Y-76568676D02*
X104990000Y-76568676D01*
X108010000Y-76568676D02*
X108060000Y-76568676D01*
X108060000Y-76568676D02*
X108060000Y-78388676D01*
%TO.C,C7*%
X107140000Y-80872164D02*
X107140000Y-81087836D01*
X107860000Y-80872164D02*
X107860000Y-81087836D01*
%TO.C,C13*%
X102360000Y-55949012D02*
X102360000Y-55733340D01*
X101640000Y-55949012D02*
X101640000Y-55733340D01*
%TD*%
M02*
